<svg xmlns="http://www.w3.org/2000/svg" xmlns:xlink="http://www.w3.org/1999/xlink" width="432.444" height="324.333" viewBox="0 0 432.444 324.333">
  <defs>
    <linearGradient id="linear-gradient" x1="1" y1="0.5" x2="0" y2="0.5" gradientUnits="objectBoundingBox">
      <stop offset="0" stop-color="#beb9db"/>
      <stop offset="1" stop-color="#8a7cbf"/>
    </linearGradient>
  </defs>
  <g id="banner-principal" transform="translate(11002.021 11532.964)">
    <g id="Grupo_130962" data-name="Grupo 130962" transform="translate(-10713.261 -11508.902)">
      <path id="Trazado_149351" data-name="Trazado 149351" d="M117.887,195.465l54.488,31.459v-37.8l-54.488-31.459Z" transform="translate(-117.887 -156.693)" fill="#ffaf04"/>
      <path id="Trazado_149352" data-name="Trazado 149352" d="M172.375,189.124l-32.089,13.126-22.4-44.585Z" transform="translate(-117.887 -156.699)" fill="#ff9201"/>
      <g id="Grupo_130960" data-name="Grupo 130960" transform="translate(30.38 35.602)">
        <path id="Trazado_149353" data-name="Trazado 149353" d="M142,200.848v-.991l-22.448-33.637h-1.661L140.3,199.793Z" transform="translate(-117.887 -166.219)" fill="#ff9201"/>
      </g>
      <g id="Grupo_130961" data-name="Grupo 130961" transform="translate(0 26.281)">
        <path id="Trazado_149354" data-name="Trazado 149354" d="M127.24,176.856l18.988-11.476-.742-1.463-19.023,11.5v.991Z" transform="translate(-126.463 -163.917)" fill="#ff9201"/>
      </g>
      <path id="Trazado_149355" data-name="Trazado 149355" d="M117.457,166.162l1.74-.966v37.8l-1.74.975Z" transform="translate(-62.969 -133.738)" fill="#ff9201"/>
      <path id="Trazado_149356" data-name="Trazado 149356" d="M117.457,158.392l1.74-.966,54.488,31.458-1.74.966Z" transform="translate(-117.457 -157.426)" fill="#ffaf04"/>
    </g>
    <g id="Grupo_130988" data-name="Grupo 130988" transform="translate(-10974.224 -11419.647)" opacity="0.1" style="isolation: isolate">
      <g id="Grupo_130987" data-name="Grupo 130987" transform="translate(0 0)">
        <g id="Grupo_130984" data-name="Grupo 130984" transform="translate(-3.311 62.298)">
          <g id="Grupo_130983" data-name="Grupo 130983" transform="translate(0 62.104)">
            <path id="Trazado_149401" data-name="Trazado 149401" d="M413.526,391.486l-72.9,42.112a9.473,9.473,0,0,1-8.575,0h0c-2.368-1.368-2.368-3.586,0-4.953l72.9-42.113a9.475,9.475,0,0,1,8.576,0h0C415.894,387.9,415.894,390.117,413.526,391.486Z" transform="translate(-330.276 -352.973)" fill="#0f0140"/>
            <path id="Trazado_149402" data-name="Trazado 149402" d="M466.885,360.013,428.36,382.268a9.473,9.473,0,0,1-8.575,0h0c-2.368-1.368-2.368-3.586,0-4.953l38.525-22.256a9.473,9.473,0,0,1,8.575,0h0C469.254,356.428,469.254,358.645,466.885,360.013Z" transform="translate(-327.319 -354.034)" fill="#0f0140"/>
          </g>
          <path id="Trazado_149403" data-name="Trazado 149403" d="M434.433,358.031l-72.9,42.113a9.473,9.473,0,0,1-8.575,0h0c-2.368-1.368-2.368-3.586,0-4.953l72.9-42.113a9.475,9.475,0,0,1,8.576,0h0C436.8,354.446,436.8,356.663,434.433,358.031Z" transform="translate(-329.571 -291.997)" fill="#0f0140"/>
          <path id="Trazado_149404" data-name="Trazado 149404" d="M524.611,305.938l-72.9,42.112a9.473,9.473,0,0,1-8.574,0h0c-2.367-1.368-2.367-3.586,0-4.953l72.9-42.112a9.469,9.469,0,0,1,8.576,0h0C526.978,302.352,526.978,304.569,524.611,305.938Z" transform="translate(-326.532 -293.752)" fill="#0f0140"/>
          <path id="Trazado_149405" data-name="Trazado 149405" d="M565.113,325.293l-72.9,42.113a9.473,9.473,0,0,1-8.575,0h0c-2.368-1.368-2.368-3.586,0-4.954l72.9-42.113a9.475,9.475,0,0,1,8.576,0h0C567.48,321.708,567.48,323.925,565.113,325.293Z" transform="translate(-325.168 -293.1)" fill="#0f0140"/>
          <path id="Trazado_149406" data-name="Trazado 149406" d="M430.347,402.174,409.009,414.5a9.469,9.469,0,0,1-8.576,0h0c-2.367-1.368-2.367-3.585,0-4.953l21.339-12.326a9.467,9.467,0,0,1,8.575,0h0C432.715,398.588,432.715,400.805,430.347,402.174Z" transform="translate(-327.971 -290.509)" fill="#0f0140"/>
          <path id="Trazado_149407" data-name="Trazado 149407" d="M607.33,299.934l-21.338,12.327a9.473,9.473,0,0,1-8.575,0h0c-2.368-1.369-2.368-3.586,0-4.953l21.338-12.327a9.473,9.473,0,0,1,8.574,0h0C609.7,296.348,609.7,298.566,607.33,299.934Z" transform="translate(-322.007 -293.955)" fill="#0f0140"/>
          <path id="Trazado_149408" data-name="Trazado 149408" d="M448.462,328.551l-72.9,42.112a9.469,9.469,0,0,1-8.576,0h0c-2.367-1.368-2.367-3.585,0-4.953l72.9-42.112a9.469,9.469,0,0,1,8.576,0h0C450.829,324.965,450.829,327.183,448.462,328.551Z" transform="translate(-329.099 -292.99)" fill="#0f0140"/>
          <path id="Trazado_149409" data-name="Trazado 149409" d="M490.679,303.191l-21.338,12.327a9.473,9.473,0,0,1-8.575,0h0c-2.368-1.368-2.368-3.586,0-4.953L482.1,298.237a9.473,9.473,0,0,1,8.574,0h0C493.047,299.606,493.047,301.823,490.679,303.191Z" transform="translate(-325.938 -293.845)" fill="#0f0140"/>
        </g>
        <g id="Grupo_130986" data-name="Grupo 130986" transform="translate(108.893 -3.895)">
          <g id="Grupo_130985" data-name="Grupo 130985" transform="translate(0 62.104)">
            <path id="Trazado_149410" data-name="Trazado 149410" d="M450.484,321.647l-72.9,42.113a9.473,9.473,0,0,1-8.575,0h0c-2.368-1.369-2.368-3.586,0-4.954l72.9-42.113a9.473,9.473,0,0,1,8.575,0h0C452.852,318.061,452.852,320.279,450.484,321.647Z" transform="translate(-367.234 -283.135)" fill="#0f0140"/>
            <path id="Trazado_149411" data-name="Trazado 149411" d="M503.843,290.175,465.318,312.43a9.473,9.473,0,0,1-8.575,0h0c-2.368-1.369-2.368-3.586,0-4.954l38.525-22.256a9.473,9.473,0,0,1,8.575,0h0C506.211,286.589,506.211,288.807,503.843,290.175Z" transform="translate(-364.277 -284.196)" fill="#0f0140"/>
          </g>
          <path id="Trazado_149412" data-name="Trazado 149412" d="M471.391,288.193l-72.9,42.113a9.473,9.473,0,0,1-8.575,0h0c-2.368-1.369-2.368-3.586,0-4.953l72.9-42.113a9.473,9.473,0,0,1,8.575,0h0C473.759,284.607,473.759,286.825,471.391,288.193Z" transform="translate(-366.529 -222.158)" fill="#0f0140"/>
          <path id="Trazado_149413" data-name="Trazado 149413" d="M561.569,236.1l-72.9,42.113a9.473,9.473,0,0,1-8.575,0h0c-2.368-1.368-2.368-3.586,0-4.954l72.9-42.113a9.475,9.475,0,0,1,8.575,0h0C563.937,232.514,563.937,234.731,561.569,236.1Z" transform="translate(-363.49 -223.914)" fill="#0f0140"/>
          <path id="Trazado_149414" data-name="Trazado 149414" d="M602.071,255.455l-72.9,42.113a9.473,9.473,0,0,1-8.575,0h0c-2.368-1.369-2.368-3.586,0-4.953L593.5,250.5a9.475,9.475,0,0,1,8.576,0h0C604.439,251.869,604.439,254.087,602.071,255.455Z" transform="translate(-362.126 -223.261)" fill="#0f0140"/>
          <path id="Trazado_149415" data-name="Trazado 149415" d="M467.3,332.335l-21.338,12.327a9.475,9.475,0,0,1-8.576,0h0c-2.367-1.368-2.367-3.586,0-4.953l21.339-12.327a9.473,9.473,0,0,1,8.575,0h0C469.673,328.75,469.673,330.967,467.3,332.335Z" transform="translate(-364.929 -220.671)" fill="#0f0140"/>
          <path id="Trazado_149416" data-name="Trazado 149416" d="M644.289,230.1,622.95,242.422a9.467,9.467,0,0,1-8.575,0h0c-2.368-1.368-2.368-3.585,0-4.953l21.338-12.326a9.469,9.469,0,0,1,8.576,0h0C646.656,226.51,646.656,228.727,644.289,230.1Z" transform="translate(-358.965 -224.116)" fill="#0f0140"/>
          <path id="Trazado_149417" data-name="Trazado 149417" d="M485.42,258.713l-72.9,42.112a9.473,9.473,0,0,1-8.575,0h0c-2.368-1.368-2.368-3.586,0-4.953l72.9-42.113a9.475,9.475,0,0,1,8.576,0h0C487.787,255.127,487.787,257.344,485.42,258.713Z" transform="translate(-366.056 -223.152)" fill="#0f0140"/>
          <path id="Trazado_149418" data-name="Trazado 149418" d="M527.638,233.353,506.3,245.68a9.473,9.473,0,0,1-8.575,0h0c-2.368-1.368-2.368-3.586,0-4.953L519.063,228.4a9.475,9.475,0,0,1,8.575,0h0C530.005,229.767,530.005,231.985,527.638,233.353Z" transform="translate(-362.896 -224.006)" fill="#0f0140"/>
        </g>
      </g>
    </g>
    <g id="Grupo_130978" data-name="Grupo 130978" transform="translate(-10868.007 -11471.362)">
      <g id="Grupo_130975" data-name="Grupo 130975" transform="translate(0 0)">
        <path id="Trazado_149375" data-name="Trazado 149375" d="M439.61,186.068l-7.882-21.978.829-1.545-1.707-.9-7.015,7.509-9.882-28.064.371-2.892-1.707-.9-9.671,36.787-8.079-8.1v-.809l-1.707-.9L382.82,191.26l-6.838-12.636v-2.252l-1.707-.9-14.341,56.6,1.707.9,2.031-3.06Z" transform="translate(-359.934 -137.295)" fill="#efe8eb"/>
        <path id="Trazado_149376" data-name="Trazado 149376" d="M358.891,232.62l14.341-56.6,8.545,15.79,10.341-26.987,9.786,9.808,9.671-36.787L422.792,169.7l7.015-7.509,8.76,24.425Z" transform="translate(-357.184 -136.945)" fill="#fff"/>
      </g>
      <g id="Grupo_130976" data-name="Grupo 130976" transform="translate(5.96 14.536)">
        <path id="Trazado_149377" data-name="Trazado 149377" d="M434.77,164.068l.259.056.856-2.825-1.712-1.1-5.18,7.692-4.969-16.62.192-3.982-1.712-1.1L411.46,177.47l-3.722-6.089v-1.7l-1.712-1.1-4.207,11.281-4.788-4.9.064-.583-1.712-1.1-4.607,11.243-8.992-7.539.077-.266-1.712-1.1-10.933,23.079-8.063-6.58-7.669,39.964,84.266-48.651Z" transform="translate(-353.486 -146.179)" fill="#5e5ecc"/>
        <path id="Trazado_149378" data-name="Trazado 149378" d="M436.706,184.091l-3.579-23.222-5.181,7.692-6.489-21.707-11.043,31.29-5.434-8.89-4.207,11.281-6.436-6.59-4.606,11.243-10.627-8.91-10.932,23.079-8.063-6.58-7.669,39.964Z" transform="translate(-350.727 -145.75)" fill="#4646a5"/>
        <path id="Trazado_149379" data-name="Trazado 149379" d="M400.967,215.316l-1.712-1.1,7.669-39.964,1.712,1.1Z" transform="translate(-399.255 -128.324)" fill="#5e5ecc"/>
      </g>
      <g id="Grupo_130977" data-name="Grupo 130977" transform="translate(11.531 43.772)">
        <path id="Trazado_149380" data-name="Trazado 149380" d="M422.768,166.316l.069-.959-1.767-.939-4.733,11.69-5.989-9.311v-1.809l-1.767-.939-8.808,28.078-4.029-5.855.256-1.256-1.767-.939-4.816,11.608-6.485-9.173.335-1.087-1.767-.939-5.521,13.039-6.6-10.017.219-1.41-1.767-.939-7.1,20.353L358.1,202.7l-8.019,25.218,84.266-48.651Z" transform="translate(-350.081 -164.048)" fill="#ff9201"/>
        <path id="Trazado_149381" data-name="Trazado 149381" d="M433.268,179.837l-13.277-14.845-4.733,11.69L407.5,164.622,398.694,192.7l-5.54-8.05-4.816,11.608-7.918-11.2L374.9,198.1l-8.151-12.366-7.1,20.353-2.629-2.815L349,228.487Z" transform="translate(-347.234 -163.683)" fill="#ffaf04"/>
        <path id="Trazado_149382" data-name="Trazado 149382" d="M405.389,188.609l-1.767-.939L395.6,212.887l1.767.939Z" transform="translate(-395.603 -149.022)" fill="#ff9d27"/>
      </g>
    </g>
    <g id="Grupo_130890" data-name="Grupo 130890" transform="translate(-10718.624 -11381.871)" opacity="0.27">
      <path id="Trazado_149039" data-name="Trazado 149039" d="M339.729,248.758,380.1,272.08a5.246,5.246,0,0,0,4.749,0h0c1.311-.758,1.311-1.986,0-2.744l-40.371-23.322a5.245,5.245,0,0,0-4.749,0h0C338.417,246.772,338.417,248,339.729,248.758Z" transform="translate(-331.956 -245.446)" fill="#f2f8ff"/>
      <path id="Trazado_149040" data-name="Trazado 149040" d="M350.731,263.28l28.175,16.276a5.246,5.246,0,0,0,4.749,0h0c1.311-.758,1.311-1.986,0-2.744L355.48,260.538a5.246,5.246,0,0,0-4.749,0h0C349.42,261.3,349.42,262.523,350.731,263.28Z" transform="translate(-340.255 -247.439)" fill="#f2f8ff"/>
      <path id="Trazado_149041" data-name="Trazado 149041" d="M361.734,269.636l28.175,16.276a5.246,5.246,0,0,0,4.749,0h0c1.311-.758,1.311-1.986,0-2.744l-28.175-16.276a5.245,5.245,0,0,0-4.749,0h0C360.422,267.651,360.422,268.879,361.734,269.636Z" transform="translate(-360.75 -248.311)" fill="#f2f8ff"/>
    </g>
    <g id="Grupo_130891" data-name="Grupo 130891" transform="translate(-10780.666 -11342.708)" opacity="0.27">
      <path id="Trazado_149042" data-name="Trazado 149042" d="M411.637,294.149l40.371,23.322a5.246,5.246,0,0,0,4.749,0h0c1.311-.757,1.311-1.985,0-2.743l-40.371-23.322a5.246,5.246,0,0,0-4.749,0h0C410.325,292.164,410.325,293.392,411.637,294.149Z" transform="translate(-403.864 -290.838)" fill="#f2f8ff"/>
      <path id="Trazado_149043" data-name="Trazado 149043" d="M422.64,308.672l28.175,16.276a5.245,5.245,0,0,0,4.749,0h0c1.311-.758,1.311-1.985,0-2.743l-28.175-16.276a5.246,5.246,0,0,0-4.749,0h0C421.328,306.686,421.328,307.915,422.64,308.672Z" transform="translate(-412.164 -292.831)" fill="#f2f8ff"/>
      <path id="Trazado_149044" data-name="Trazado 149044" d="M433.643,315.028,461.817,331.3a5.246,5.246,0,0,0,4.749,0h0c1.311-.758,1.311-1.985,0-2.743l-28.174-16.276a5.246,5.246,0,0,0-4.749,0h0C432.331,313.042,432.331,314.271,433.643,315.028Z" transform="translate(-432.659 -293.703)" fill="#f2f8ff"/>
    </g>
    <g id="Grupo_130892" data-name="Grupo 130892" transform="translate(-10863.324 -11353.93)" opacity="0.27">
      <path id="Trazado_149045" data-name="Trazado 149045" d="M507.442,281.143l40.371,23.321a5.246,5.246,0,0,0,4.749,0h0c1.311-.758,1.311-1.985,0-2.743L512.19,278.4a5.245,5.245,0,0,0-4.749,0h0C506.13,279.157,506.13,280.386,507.442,281.143Z" transform="translate(-499.669 -277.831)" fill="#f2f8ff"/>
      <path id="Trazado_149046" data-name="Trazado 149046" d="M518.444,295.665l28.175,16.276a5.246,5.246,0,0,0,4.749,0h0c1.311-.758,1.311-1.985,0-2.743l-28.175-16.276a5.245,5.245,0,0,0-4.749,0h0C517.133,293.679,517.133,294.908,518.444,295.665Z" transform="translate(-507.968 -279.824)" fill="#f2f8ff"/>
      <path id="Trazado_149047" data-name="Trazado 149047" d="M529.448,302.021,557.622,318.3a5.246,5.246,0,0,0,4.749,0h0c1.311-.758,1.311-1.985,0-2.743L534.2,299.278a5.245,5.245,0,0,0-4.749,0h0C528.136,300.035,528.136,301.264,529.448,302.021Z" transform="translate(-528.464 -280.696)" fill="#f2f8ff"/>
    </g>
    <g id="Grupo_130893" data-name="Grupo 130893" transform="translate(-10854.663 -11302.067)" opacity="0.27">
      <path id="Trazado_149048" data-name="Trazado 149048" d="M497.4,341.252l40.371,23.322a5.246,5.246,0,0,0,4.749,0h0c1.311-.758,1.311-1.985,0-2.743L502.152,338.51a5.245,5.245,0,0,0-4.749,0h0C496.092,339.267,496.092,340.495,497.4,341.252Z" transform="translate(-489.63 -337.941)" fill="#f2f8ff"/>
      <path id="Trazado_149049" data-name="Trazado 149049" d="M508.406,355.775l28.175,16.276a5.245,5.245,0,0,0,4.749,0h0c1.311-.758,1.311-1.985,0-2.743l-28.175-16.276a5.245,5.245,0,0,0-4.749,0h0C507.094,353.789,507.094,355.018,508.406,355.775Z" transform="translate(-497.929 -339.934)" fill="#f2f8ff"/>
      <path id="Trazado_149050" data-name="Trazado 149050" d="M519.408,362.131l28.175,16.276a5.246,5.246,0,0,0,4.749,0h0c1.311-.758,1.311-1.985,0-2.743l-28.175-16.276a5.245,5.245,0,0,0-4.749,0h0C518.1,360.145,518.1,361.374,519.408,362.131Z" transform="translate(-518.425 -340.806)" fill="#f2f8ff"/>
    </g>
    <g id="Grupo_130894" data-name="Grupo 130894" transform="translate(-10797.382 -11393.379)" opacity="0.27">
      <path id="Trazado_149051" data-name="Trazado 149051" d="M431.011,235.419l40.371,23.322a5.245,5.245,0,0,0,4.749,0h0c1.311-.758,1.311-1.985,0-2.743l-40.371-23.322a5.246,5.246,0,0,0-4.749,0h0C429.7,233.434,429.7,234.662,431.011,235.419Z" transform="translate(-423.238 -232.108)" fill="#717f90"/>
      <path id="Trazado_149052" data-name="Trazado 149052" d="M442.014,249.942l28.175,16.276a5.246,5.246,0,0,0,4.749,0h0c1.311-.758,1.311-1.985,0-2.743L446.762,247.2a5.245,5.245,0,0,0-4.749,0h0C440.7,247.956,440.7,249.185,442.014,249.942Z" transform="translate(-431.537 -234.101)" fill="#717f90"/>
      <path id="Trazado_149053" data-name="Trazado 149053" d="M453.016,256.3l28.175,16.276a5.245,5.245,0,0,0,4.749,0h0c1.311-.758,1.311-1.985,0-2.743l-28.174-16.276a5.247,5.247,0,0,0-4.75,0h0C451.705,254.312,451.705,255.541,453.016,256.3Z" transform="translate(-452.033 -234.973)" fill="#717f90"/>
    </g>
    <g id="Grupo_130895" data-name="Grupo 130895" transform="translate(-10974.145 -11508.902)">
      <path id="Trazado_149054" data-name="Trazado 149054" d="M341.945,127.609V152.5c0,8.716-6.113,19.314-13.659,23.673l-3.189,1.841-7.581,18.261-7.581-9.5q-1.6.914-3.19,1.841c-.308.177-.615.343-.917.492-3.409,1.711-6.474,1.776-8.747.462l-.177-.107c-2.368-1.468-3.824-4.488-3.824-8.74V155.841c0-8.723,6.119-19.321,13.665-23.68q10.768-6.217,21.541-12.441c3.7-2.138,7.055-2.38,9.511-1.042.047.024.1.054.148.083C340.418,120.189,341.945,123.25,341.945,127.609Z" transform="translate(-282.002 -111.451)" fill="#dad6f7"/>
      <path id="Trazado_149055" data-name="Trazado 149055" d="M285.523,182.9c-2.473-1.427-4-4.495-4-8.846V149.158c0-8.717,6.113-19.315,13.658-23.674q10.768-6.217,21.541-12.447c3.776-2.179,7.191-2.38,9.658-.953q5.478,3.153,10.937,6.318c-2.456-1.338-5.811-1.1-9.51,1.042q-10.768,6.217-21.541,12.441c-7.546,4.358-13.665,14.957-13.665,23.68v24.886c0,4.252,1.456,7.271,3.824,8.74Q290.974,186.048,285.523,182.9Z" transform="translate(-281.523 -111.174)" fill="#8a7cbf"/>
      <path id="Trazado_149056" data-name="Trazado 149056" d="M310.486,189.762l7.581,9.5-11.084-6.4-.6-.764c.3-.149.61-.314.917-.492Q308.885,190.68,310.486,189.762Z" transform="translate(-282.554 -114.433)" fill="#a68efe"/>
      <path id="Trazado_149057" data-name="Trazado 149057" d="M325.969,145.2c-2.888-2.587-8.534-.529-12.609,4.6s-5.04,11.376-2.152,13.962c2.5,2.239,7.065,1,10.892-2.7l5.229,4.683c.6.536,1.8.072,2.677-1.035s1.11-2.439.512-2.974l-5.229-4.683C328.082,152.42,328.469,147.435,325.969,145.2Zm-3.412,12.834c-3.093,3.89-7.379,5.451-9.57,3.488s-1.461-6.708,1.633-10.6,7.378-5.451,9.57-3.488S325.651,154.14,322.557,158.029Z" transform="translate(-282.685 -112.538)" fill="#8a7cbf"/>
    </g>
    <g id="Grupo_130896" data-name="Grupo 130896" transform="translate(-10985.903 -11430.602)">
      <path id="Trazado_149059" data-name="Trazado 149059" d="M297.7,226.413l2.026,2.937a.662.662,0,0,0,.86.129l4.53-1.959c.936-.4,1.309.531.633,1.581l-3.279,5.092a1.768,1.768,0,0,0-.327,1.2l.773,4.068a2.173,2.173,0,0,1-1.654,2.159l-4.053.21a1.69,1.69,0,0,0-1.062.612l-4.053,4.473c-.837.925-1.814.778-1.654-.246l.773-4.963c.063-.407-.059-.713-.327-.821l-3.279-1.3c-.677-.27-.3-1.636.632-2.312l4.531-3.276a2.584,2.584,0,0,0,.858-1.12l2.027-5.279C296.076,226.506,297.284,225.808,297.7,226.413Z" transform="translate(-287.263 -173.086)" fill="#ef6c00"/>
      <path id="Trazado_149060" data-name="Trazado 149060" d="M311.816,218.261l2.026,2.937a.664.664,0,0,0,.86.129l4.53-1.959c.936-.405,1.309.529.632,1.581l-3.278,5.092a1.768,1.768,0,0,0-.327,1.2l.773,4.067a2.173,2.173,0,0,1-1.656,2.159l-4.051.21a1.69,1.69,0,0,0-1.062.612l-4.053,4.473c-.837.923-1.815.778-1.654-.247l.773-4.961c.063-.407-.059-.713-.329-.821l-3.278-1.3c-.677-.269-.3-1.635.632-2.312l4.531-3.276a2.564,2.564,0,0,0,.858-1.12l2.027-5.277C310.19,218.352,311.4,217.653,311.816,218.261Z" transform="translate(-278.395 -178.208)" fill="#ef6c00"/>
      <path id="Trazado_149061" data-name="Trazado 149061" d="M325.93,210.108l2.026,2.937c.166.241.487.288.86.127l4.53-1.957c.936-.405,1.309.529.632,1.581l-3.278,5.092a1.767,1.767,0,0,0-.329,1.2l.775,4.069a2.174,2.174,0,0,1-1.656,2.159l-4.051.208a1.7,1.7,0,0,0-1.062.614l-4.053,4.473c-.837.923-1.816.777-1.656-.247l.775-4.961c.063-.407-.06-.715-.329-.821l-3.278-1.3c-.677-.269-.3-1.635.632-2.312L321,217.688a2.573,2.573,0,0,0,.858-1.12l2.026-5.279C324.3,210.2,325.512,209.5,325.93,210.108Z" transform="translate(-269.528 -183.331)" fill="#0f0140"/>
      <path id="Trazado_149062" data-name="Trazado 149062" d="M340.044,201.953l2.026,2.937a.66.66,0,0,0,.858.129l4.532-1.959c.935-.4,1.309.531.632,1.583l-3.278,5.09a1.771,1.771,0,0,0-.329,1.2L345.26,215a2.176,2.176,0,0,1-1.656,2.161l-4.053.208a1.7,1.7,0,0,0-1.062.614l-4.051,4.471c-.837.925-1.815.778-1.656-.246l.775-4.963c.064-.407-.06-.713-.329-.821l-3.278-1.3c-.677-.27-.3-1.636.632-2.312l4.53-3.276a2.567,2.567,0,0,0,.86-1.12L338,203.136C338.416,202.046,339.626,201.348,340.044,201.953Z" transform="translate(-260.66 -188.454)" fill="#0f0140"/>
      <path id="Trazado_149063" data-name="Trazado 149063" d="M354.157,193.8l2.027,2.937a.661.661,0,0,0,.858.129l4.531-1.959c.935-.4,1.309.531.632,1.581l-3.279,5.092a1.767,1.767,0,0,0-.327,1.2l.773,4.068a2.172,2.172,0,0,1-1.654,2.159l-4.053.21a1.69,1.69,0,0,0-1.062.612l-4.051,4.473c-.837.923-1.816.778-1.656-.247l.773-4.961c.063-.407-.059-.713-.327-.821l-3.278-1.3c-.677-.27-.3-1.636.632-2.312l4.53-3.276a2.586,2.586,0,0,0,.86-1.12l2.026-5.279C352.53,193.893,353.738,193.195,354.157,193.8Z" transform="translate(-251.792 -193.576)" fill="#0f0140"/>
    </g>
    <g id="Grupo_130911" data-name="Grupo 130911" transform="translate(-10937.012 -11465.275)">
      <g id="Grupo_130923" data-name="Grupo 130923" transform="translate(0 53.137)">
        <g id="Grupo_130915" data-name="Grupo 130915">
          <path id="Trazado_149198" data-name="Trazado 149198" d="M338.1,237.3a14.017,14.017,0,0,1-4.176,3.461L145.245,349.751a23.972,23.972,0,0,1-7.1,2.714,37.728,37.728,0,0,1-7.632.815,29.6,29.6,0,0,1-14.749-3.529L25.988,297.894c-2.533-1.464-5.287-3.99-5.943-6.843a6.449,6.449,0,0,1-.159-1.451v13.386c-.01,3.679,2.842,6.633,6.1,8.513l89.781,51.866a23.984,23.984,0,0,0,7.1,2.7c7.286,1.562,15.961,1.006,22.38-2.7l188.678-109a19.29,19.29,0,0,0,2.364-1.611,9.561,9.561,0,0,0,3.728-6.961h.01V232.243h-.01A8.948,8.948,0,0,1,338.1,237.3Z" transform="translate(-19.886 -168.344)" fill="#596876"/>
          <path id="Trazado_149199" data-name="Trazado 149199" d="M128.06,269.748a1.608,1.608,0,0,0-1.491-.188,1.492,1.492,0,0,0-.727,1.471v.955a4.894,4.894,0,0,0,2.217,3.838l15.185,8.772a1.35,1.35,0,0,0,2.217-1.273v-.964a4.9,4.9,0,0,0-2.217-3.83Z" transform="translate(-84.66 -114.484)" fill="#1c1a2a"/>
          <path id="Trazado_149200" data-name="Trazado 149200" d="M122.456,278.162c-2.117-2.146-4.144-1.292-4.085.925.088,3.331,3.39,6.584,5.177,5.47a1.907,1.907,0,0,0,.617-.668,2.866,2.866,0,0,0,.24-1.76,6.687,6.687,0,0,0-.627-2.1l-.01-.01a7.345,7.345,0,0,1-.468-.815A6.575,6.575,0,0,0,122.456,278.162Z" transform="translate(-45.345 -103.668)" fill="#1c1a2a"/>
          <path id="Trazado_149201" data-name="Trazado 149201" d="M223.817,274.262c-1.549,1.87-2.793,2.367-8.219,5.539-.1.059-183.866,106.251-184.82,106.719a25.393,25.393,0,0,1-10.892,2.286l.02,2.266a37.726,37.726,0,0,0,7.632-.815,23.971,23.971,0,0,0,7.1-2.714L223.311,278.557a14.019,14.019,0,0,0,4.176-3.461,8.948,8.948,0,0,0,1.916-5.062,5.892,5.892,0,0,0-.149-1.672c-.666-2.854-3.407-5.377-5.943-6.838l-89.781-51.859a29.687,29.687,0,0,0-14.739-3.529l.02,2.266a28,28,0,0,1,5.806.6c3.887.825,5.764,2.009,8.655,3.737,2.932,1.762-6.667-3.906,33.7,19.412,6.569,3.8,13.109,7.666,19.678,11.455s13.168,7.507,19.727,11.347c2.734,1.6,5.456,3.221,8.2,4.773a74.392,74.392,0,0,1,7.732,4.614C225.727,267.08,226.62,270.891,223.817,274.262Z" transform="translate(90.726 -206.136)" fill="#717f90"/>
          <g id="Grupo_130911-2" data-name="Grupo 130911" transform="translate(267.768 95.048)">
            <path id="Trazado_149202" data-name="Trazado 149202" d="M35.41,255.4l-1.5-.869,16.552-9.562,1.5.869Z" transform="translate(-33.906 -244.97)" fill="#403d54"/>
            <path id="Trazado_149203" data-name="Trazado 149203" d="M40.668,250.967v-2.091l1.5.869v2.091Z" transform="translate(-40.668 -239.315)" fill="#2f2d3d"/>
            <path id="Trazado_149204" data-name="Trazado 149204" d="M33.906,256.977v-2.091l16.552-9.562v2.091Z" transform="translate(-32.401 -244.455)" fill="#585858"/>
          </g>
          <path id="Trazado_149205" data-name="Trazado 149205" d="M115.569,281.847h0a1.264,1.264,0,0,1-.582-.984h0c0-.355.262-.495.582-.311h0a1.272,1.272,0,0,1,.583.984h0C116.151,281.891,115.889,282.033,115.569,281.847Z" transform="translate(-28.775 -98.531)" fill="#1c1a2a"/>
          <g id="Grupo_130912" data-name="Grupo 130912" transform="translate(10.015 136.189)">
            <path id="Trazado_149206" data-name="Trazado 149206" d="M146.758,268.214h0a1.964,1.964,0,0,1-.9-1.525v-4.3c0-.551.406-.768.9-.482h0a1.972,1.972,0,0,1,.9,1.527v4.3C147.661,268.285,147.255,268.5,146.758,268.214Z" transform="translate(-145.855 -261.778)" fill="#1c1a2a"/>
            <path id="Trazado_149207" data-name="Trazado 149207" d="M145.281,269.068h0a1.965,1.965,0,0,1-.9-1.527v-4.3c0-.553.4-.769.9-.482h0a1.964,1.964,0,0,1,.9,1.525v4.3C146.184,269.136,145.778,269.354,145.281,269.068Z" transform="translate(-140.767 -260.544)" fill="#1c1a2a"/>
            <path id="Trazado_149208" data-name="Trazado 149208" d="M143.807,269.919h0a1.964,1.964,0,0,1-.9-1.525v-4.3c0-.551.406-.769.9-.482h0a1.967,1.967,0,0,1,.9,1.525v4.3C144.71,269.99,144.3,270.206,143.807,269.919Z" transform="translate(-135.681 -259.31)" fill="#1c1a2a"/>
            <path id="Trazado_149209" data-name="Trazado 149209" d="M142.331,270.773h0a1.972,1.972,0,0,1-.9-1.527v-4.3c0-.553.406-.771.9-.482h0a1.964,1.964,0,0,1,.9,1.525v4.3C143.234,270.842,142.828,271.06,142.331,270.773Z" transform="translate(-130.593 -258.077)" fill="#1c1a2a"/>
            <path id="Trazado_149210" data-name="Trazado 149210" d="M140.856,271.625h0a1.967,1.967,0,0,1-.9-1.525v-4.3c0-.553.406-.769.9-.482h0a1.968,1.968,0,0,1,.9,1.525v4.3C141.759,271.7,141.353,271.911,140.856,271.625Z" transform="translate(-125.507 -256.843)" fill="#1c1a2a"/>
            <path id="Trazado_149211" data-name="Trazado 149211" d="M139.38,272.476h0a1.964,1.964,0,0,1-.9-1.525v-4.3c0-.553.406-.771.9-.482h0a1.963,1.963,0,0,1,.9,1.525v4.3C140.283,272.547,139.877,272.765,139.38,272.476Z" transform="translate(-120.419 -255.608)" fill="#1c1a2a"/>
          </g>
          <path id="Trazado_149212" data-name="Trazado 149212" d="M71.177,335.686l89.781,51.857a29.594,29.594,0,0,0,14.749,3.529l-.02-2.266a26.062,26.062,0,0,1-9.888-1.85,34.463,34.463,0,0,1-4.582-2.484c-2.932-1.76,6.667,3.906-33.7-19.412-6.569-3.8-13.109-7.668-19.678-11.455S94.661,346.1,88.111,342.257c-2.734-1.6-5.456-3.221-8.209-4.773-5.436-3.062-8-4.256-9.68-6.672-2.2-3.162-1.689-7.34,3.737-10.551.208-.13,188.9-109.154,189.75-109.57a25.481,25.481,0,0,1,10.9-2.289l-.02-2.266a37.746,37.746,0,0,0-7.641.815,24.134,24.134,0,0,0-7.105,2.714L71.177,318.651a14.057,14.057,0,0,0-4.185,3.461,8.878,8.878,0,0,0-1.916,5.279,6.449,6.449,0,0,0,.159,1.451C65.89,331.7,68.644,334.222,71.177,335.686Z" transform="translate(-65.075 -206.136)" fill="#717f90"/>
          <g id="Grupo_130913" data-name="Grupo 130913" transform="translate(3.935 2.266)">
            <path id="Trazado_149213" data-name="Trazado 149213" d="M212.715,211.35c2.193-1.265,3.414-1.973,3.48-2a25.486,25.486,0,0,1,10.9-2.288,28.3,28.3,0,0,1,5.8.6c3.887.825,5.769,2,8.655,3.737,2.719,1.637-5.394-3.152,25.983,14.945l7.725,4.462c6.567,3.8,13.109,7.668,19.669,11.457q2.7,1.56,5.412,3.1c4.773,2.741,9.565,5.46,14.323,8.248,2.729,1.606,5.451,3.223,8.2,4.773A75.213,75.213,0,0,1,330.595,263c3.414,2.746,4.318,6.552,1.515,9.922-1.557,1.87-2.8,2.369-8.221,5.541l-79.8,46.1c-49.769,28.749-104.5,60.357-105.03,60.616a25.281,25.281,0,0,1-10.884,2.289,26.043,26.043,0,0,1-9.883-1.85,32.774,32.774,0,0,1-4.579-2.487c-2.935-1.76,6.665,3.909-33.71-19.407-6.567-3.8-13.109-7.668-19.676-11.46s-13.175-7.509-19.735-11.344c-2.722-1.6-5.451-3.226-8.2-4.773-5.443-3.059-8-4.256-9.68-6.674-2.12-3.042-1.728-7.015,3.128-10.167.2-.132.4-.259.612-.382C26.637,318.806,186.893,226.2,212.715,211.35Z" transform="translate(-21.488 -207.062)" fill="#717f90"/>
            <path id="Trazado_149214" data-name="Trazado 149214" d="M25.839,319.305c-4.856,3.152-5.248,7.125-3.128,10.167,1.679,2.418,4.237,3.615,9.68,6.674,2.746,1.547,5.475,3.172,8.2,4.773,6.56,3.835,13.158,7.553,19.735,11.344S73.432,359.92,80,363.723c40.375,23.316,30.776,17.647,33.71,19.407a32.761,32.761,0,0,0,4.579,2.487c6.315,2.641,14.942,2.416,20.768-.438.874-.426,160.67-92.76,184.833-106.716,5.426-3.172,6.665-3.671,8.221-5.541,2.8-3.37,1.9-7.176-1.515-9.922-1.863-1.486-3.48-2.068-15.931-9.389-3.708-2.173-70.487-40.627-73.111-42.208-2.886-1.733-4.768-2.913-8.655-3.737a27.1,27.1,0,0,0-16.7,1.686C216.076,209.4,221.193,206.453,25.839,319.305Z" transform="translate(-21.488 -207.062)" fill="url(#linear-gradient)"/>
          </g>
          <g id="Grupo_130914" data-name="Grupo 130914" transform="translate(248.923 26.252)">
            <path id="Trazado_149215" data-name="Trazado 149215" d="M42.835,218.053a3.187,3.187,0,0,0-2.942,0l-1.092.624,19.984,11.545a3.251,3.251,0,0,0,2.952,0l1.084-.627Z" transform="translate(-37.901 -215.659)" fill="#090000"/>
            <path id="Trazado_149216" data-name="Trazado 149216" d="M40.424,217.217l-1.38.8a.9.9,0,0,0,0,1.7l.289.169,1.092-.624a3.187,3.187,0,0,1,2.942,0L63.352,230.8l.286-.169a1.064,1.064,0,0,0,.617-.835v-.02a1.029,1.029,0,0,0-.617-.847L43.366,217.217A3.223,3.223,0,0,0,40.424,217.217Z" transform="translate(-38.432 -216.862)" fill="#1a2738"/>
          </g>
          <path id="Trazado_149217" data-name="Trazado 149217" d="M63.33,215.116a6.637,6.637,0,0,1-6.019,0c-1.662-.959-1.662-2.516,0-3.476a6.652,6.652,0,0,1,6.019,0C64.992,212.6,64.992,214.157,63.33,215.116Z" transform="translate(167.013 -199.209)" fill="#717f90"/>
        </g>
        <g id="Grupo_130916" data-name="Grupo 130916" transform="translate(225.537 47.053)" opacity="0.27">
          <path id="Trazado_149218" data-name="Trazado 149218" d="M37.224,228.715l40.921,23.639a5.31,5.31,0,0,0,4.812,0h0c1.329-.769,1.329-2.012,0-2.78L42.038,225.937a5.315,5.315,0,0,0-4.814,0h0C35.894,226.7,35.894,227.949,37.224,228.715Z" transform="translate(-29.347 -225.36)" fill="#f6f6f6"/>
          <path id="Trazado_149219" data-name="Trazado 149219" d="M41.155,233.905,69.71,250.4a5.315,5.315,0,0,0,4.814,0h0c1.329-.769,1.329-2.012,0-2.78l-28.556-16.5a5.314,5.314,0,0,0-4.814,0h0C39.825,231.893,39.825,233.137,41.155,233.905Z" transform="translate(-30.536 -217.851)" fill="#f6f6f6"/>
          <path id="Trazado_149220" data-name="Trazado 149220" d="M45.086,236.176l28.556,16.5a5.315,5.315,0,0,0,4.814,0h0c1.329-.768,1.329-2.012,0-2.78L49.9,233.4a5.31,5.31,0,0,0-4.812,0h0C43.757,234.164,43.757,235.408,45.086,236.176Z" transform="translate(-44.089 -214.563)" fill="#f6f6f6"/>
        </g>
        <g id="Grupo_130917" data-name="Grupo 130917" transform="translate(145.713 35.388)" opacity="0.27">
          <path id="Trazado_149221" data-name="Trazado 149221" d="M69.838,223.951l40.918,23.636a5.315,5.315,0,0,0,4.814,0h0c1.329-.766,1.329-2.012,0-2.78L74.652,221.171a5.315,5.315,0,0,0-4.814,0h0C68.508,221.939,68.508,223.183,69.838,223.951Z" transform="translate(-61.961 -220.594)" fill="#717f90"/>
          <path id="Trazado_149222" data-name="Trazado 149222" d="M73.769,229.138l28.556,16.5a5.315,5.315,0,0,0,4.814,0h0c1.329-.766,1.329-2.012,0-2.78l-28.556-16.5a5.33,5.33,0,0,0-4.814,0h0C72.44,227.126,72.44,228.372,73.769,229.138Z" transform="translate(-63.15 -213.083)" fill="#717f90"/>
          <path id="Trazado_149223" data-name="Trazado 149223" d="M77.7,231.409l28.556,16.5a5.314,5.314,0,0,0,4.814,0h0c1.329-.766,1.329-2.012,0-2.78l-28.558-16.5a5.324,5.324,0,0,0-4.812,0h0C76.371,229.4,76.371,230.643,77.7,231.409Z" transform="translate(-76.703 -209.796)" fill="#717f90"/>
        </g>
        <g id="Grupo_130918" data-name="Grupo 130918" transform="translate(162.655 86.745)" opacity="0.27">
          <path id="Trazado_149224" data-name="Trazado 149224" d="M62.914,244.934l40.921,23.639a5.309,5.309,0,0,0,4.812,0h0c1.329-.768,1.329-2.012,0-2.78L67.728,242.154a5.315,5.315,0,0,0-4.814,0h0C61.587,242.922,61.587,244.168,62.914,244.934Z" transform="translate(-55.037 -241.577)" fill="#f6f6f6"/>
          <path id="Trazado_149225" data-name="Trazado 149225" d="M66.847,250.123,95.4,266.62a5.315,5.315,0,0,0,4.814,0h0c1.329-.769,1.329-2.012,0-2.78l-28.556-16.5a5.315,5.315,0,0,0-4.814,0h0C65.517,248.109,65.517,249.355,66.847,250.123Z" transform="translate(-56.228 -234.066)" fill="#f6f6f6"/>
          <path id="Trazado_149226" data-name="Trazado 149226" d="M70.778,252.394l28.556,16.5a5.329,5.329,0,0,0,4.814,0h0c1.329-.768,1.329-2.014,0-2.78l-28.558-16.5a5.31,5.31,0,0,0-4.812,0h0C69.449,250.38,69.449,251.626,70.778,252.394Z" transform="translate(-69.781 -230.779)" fill="#f6f6f6"/>
        </g>
        <path id="Trazado_149227" data-name="Trazado 149227" d="M51.555,250.708,79.91,267.088a9.9,9.9,0,0,0,8.97,0l16.173-9.345c2.479-1.429,2.479-3.75,0-5.181L76.7,236.182a9.9,9.9,0,0,0-8.97,0l-16.176,9.345C49.078,246.956,49.078,249.277,51.555,250.708Z" transform="translate(140.261 -164.197)" fill="#f6f6f6" opacity="0.69"/>
        <g id="Grupo_130919" data-name="Grupo 130919" transform="translate(78.875 75.372)" opacity="0.27">
          <path id="Trazado_149228" data-name="Trazado 149228" d="M97.145,240.287l40.918,23.639a5.325,5.325,0,0,0,4.812,0h0c1.329-.769,1.329-2.014,0-2.78l-40.918-23.639a5.31,5.31,0,0,0-4.812,0h0C95.816,238.275,95.816,239.519,97.145,240.287Z" transform="translate(-89.266 -236.931)" fill="#f6f6f6"/>
          <path id="Trazado_149229" data-name="Trazado 149229" d="M101.077,245.476l28.558,16.5a5.324,5.324,0,0,0,4.812,0h0c1.329-.769,1.329-2.014,0-2.78l-28.556-16.5a5.315,5.315,0,0,0-4.814,0h0C99.748,243.462,99.748,244.708,101.077,245.476Z" transform="translate(-90.458 -229.419)" fill="#f6f6f6"/>
          <path id="Trazado_149230" data-name="Trazado 149230" d="M105.008,247.747l28.558,16.5a5.324,5.324,0,0,0,4.812,0h0c1.329-.768,1.329-2.014,0-2.78l-28.556-16.5a5.315,5.315,0,0,0-4.814,0h0C103.678,245.733,103.678,246.979,105.008,247.747Z" transform="translate(-104.011 -226.132)" fill="#f6f6f6"/>
        </g>
        <path id="Trazado_149231" data-name="Trazado 149231" d="M78.863,267.043l28.355,16.379a9.9,9.9,0,0,0,8.97,0l16.176-9.342c2.477-1.432,2.477-3.752,0-5.182l-28.355-16.382a9.918,9.918,0,0,0-8.97,0l-16.176,9.345C76.386,263.294,76.386,265.614,78.863,267.043Z" transform="translate(46.115 -140.548)" fill="#f6f6f6" opacity="0.69"/>
        <path id="Trazado_149232" data-name="Trazado 149232" d="M86.574,246.3l28.353,16.379a9.9,9.9,0,0,0,8.97,0l16.176-9.345c2.477-1.429,2.477-3.75,0-5.181l-28.355-16.379a9.9,9.9,0,0,0-8.97,0l-16.173,9.345C84.094,242.545,84.094,244.866,86.574,246.3Z" transform="translate(19.538 -170.582)" fill="#f6f6f6" opacity="0.69"/>
        <g id="Grupo_130920" data-name="Grupo 130920" transform="translate(87.654 127.937)" opacity="0.27">
          <path id="Trazado_149233" data-name="Trazado 149233" d="M93.559,261.765,134.479,285.4a5.309,5.309,0,0,0,4.812,0h0c1.329-.768,1.329-2.012,0-2.78L98.373,258.982a5.33,5.33,0,0,0-4.814,0h0C92.229,259.75,92.229,261,93.559,261.765Z" transform="translate(-85.682 -258.407)" fill="#f6f6f6"/>
          <path id="Trazado_149234" data-name="Trazado 149234" d="M97.49,266.952l28.556,16.5a5.314,5.314,0,0,0,4.814,0h0c1.329-.768,1.329-2.012,0-2.78l-28.558-16.5a5.309,5.309,0,0,0-4.812,0h0C96.161,264.94,96.161,266.184,97.49,266.952Z" transform="translate(-86.871 -250.897)" fill="#f6f6f6"/>
          <path id="Trazado_149235" data-name="Trazado 149235" d="M101.421,269.223l28.556,16.5a5.314,5.314,0,0,0,4.814,0h0c1.329-.769,1.329-2.012,0-2.78l-28.558-16.5a5.31,5.31,0,0,0-4.812,0h0C100.091,267.211,100.091,268.455,101.421,269.223Z" transform="translate(-100.424 -247.61)" fill="#f6f6f6"/>
        </g>
        <path id="Trazado_149236" data-name="Trazado 149236" d="M117.215,263.125,145.567,279.5a9.9,9.9,0,0,0,8.97,0l16.176-9.342c2.477-1.432,2.477-3.752,0-5.184L142.359,248.6a9.918,9.918,0,0,0-8.97,0l-16.173,9.345C114.738,259.376,114.738,261.7,117.215,263.125Z" transform="translate(-86.104 -146.22)" fill="#f6f6f6" opacity="0.69"/>
        <path id="Trazado_149237" data-name="Trazado 149237" d="M58.478,230.069l28.355,16.379a9.9,9.9,0,0,0,8.97,0l16.173-9.345c2.477-1.429,2.477-3.75,0-5.181L83.624,215.543a9.9,9.9,0,0,0-8.97,0l-16.176,9.345C56,226.317,56,228.638,58.478,230.069Z" transform="translate(116.396 -194.073)" fill="#fcfcfc" opacity="0.69"/>
      </g>
      <g id="Grupo_130989" data-name="Grupo 130989" transform="translate(-23 7)">
        <ellipse id="Elipse_4947" data-name="Elipse 4947" cx="51.134" cy="29.522" rx="51.134" ry="29.522" transform="translate(154.741 98.364)" fill="#b0a7c2" style="mix-blend-mode: multiply;isolation: isolate"/>
        <path id="Trazado_149250" data-name="Trazado 149250" d="M65.268,233.349c-15.234,8.794-15.234,23.054,0,31.85s39.934,8.794,55.168,0,15.234-23.056,0-31.85S80.5,224.552,65.268,233.349Z" transform="translate(117.817 -118.619)" fill="#312e61"/>
        <g id="Grupo_130926" data-name="Grupo 130926" transform="translate(160.219 -73.025)">
          <g id="Grupo_130924" data-name="Grupo 130924" transform="translate(0)">
            <path id="Trazado_149251" data-name="Trazado 149251" d="M53.72,254.031c0,4.905,1.177,13.673,2.756,22.845A42.19,42.19,0,0,0,85.742,310.17a117.51,117.51,0,0,0,32.518,5h.533c11.561-.074,24.026-6.619,33.051-15.977,6.929-7.223,11.838-16.1,12.664-24.981.26-2.81.425-5.863.425-9.244,0-15.883-9.375-28.419-21.948-36.252a10.5,10.5,0,0,1-4.392,3.475,15.117,15.117,0,0,1-6.1,1.14,11.449,11.449,0,0,1-5.094-1.157c-2.169,8.272-11.193,13.217-19.759,13.217-12,0-16.912-8.069-18.841-19.671a10.548,10.548,0,0,1-4.338-2.574,37.9,37.9,0,0,1-7.705-11.635C60.025,212.486,53.72,237.376,53.72,254.031Z" transform="translate(-53.72 -97.283)" fill="#716de1"/>
            <path id="Trazado_149252" data-name="Trazado 149252" d="M87.621,190.875c-3.094,5.364-5.391,10.461-5.391,16.6,0,5.654,2.216,14.752,7.85,14.752a5.663,5.663,0,0,0,1.228-.138,27.641,27.641,0,0,1-.961-7.908c0-3.63.385-7.314.385-10.681,0-4.058-3.252-6.578-3.252-10.606A14.178,14.178,0,0,1,87.621,190.875Z" transform="translate(-76.276 -146.263)" fill="#283c48"/>
            <path id="Trazado_149253" data-name="Trazado 149253" d="M80.027,202.448c.091.125.189.25.29.374a32.769,32.769,0,0,1,3.61,3.127,30.076,30.076,0,0,0,5.452,2.719.977.977,0,0,0,1.272-.8c0-4.848-6.615-8.667-10-12.8-.1-.125-.2-.25-.3-.374-.078-.1-.155-.2-.226-.3a.828.828,0,0,0-1.467.243A8.464,8.464,0,0,0,80.027,202.448Z" transform="translate(-62.198 -138.742)" fill="#7f542e"/>
            <path id="Trazado_149254" data-name="Trazado 149254" d="M81.315,196.535l.007.162q.147.1.283.213C81.5,196.785,81.406,196.66,81.315,196.535Z" transform="translate(-63.486 -132.829)" fill="#d49063"/>
            <path id="Trazado_149255" data-name="Trazado 149255" d="M75.436,224.082c.094.125.2.25.3.374,3.181-6.3,8.879-7.509,13.393-8.228a17.1,17.1,0,0,1,8.65.884c4.156,1.545,8.643,2.537,11.952,5.63a17.007,17.007,0,0,1,1.913,2.152l.01.014c.084.115.172.229.253.348l.013.013c2.561,3.114,9.662,2.324.705-19.06-3.394-8.1,1.994-12.674,6.066-18.689a57.228,57.228,0,0,0-15.478-5.189c-2.439-.1-4.99-.668-7.456-.668-7.024,0-10.046,5.924-13.562,11.72a12.786,12.786,0,0,1-1.491,3.023,52.914,52.914,0,0,0-7.452,6.8,19.335,19.335,0,0,0-4.625,9.53,14.179,14.179,0,0,0-.142,2.021c0,4.028,3.252,6.548,3.252,10.606,0,3.367-.385,7.051-.385,10.681a27.64,27.64,0,0,0,.961,7.908,15.834,15.834,0,0,0,1.673,3.785h0c.5-3.593,1.333-4.976,1.333-9.817,0-1.984-.125-3.954-.206-5.927l-.007-.162a8.463,8.463,0,0,1-1.366-7.813.828.828,0,0,1,1.467-.243C75.281,223.879,75.358,223.98,75.436,224.082Z" transform="translate(-57.279 -168.128)" fill="#a26d42"/>
            <path id="Trazado_149256" data-name="Trazado 149256" d="M77.907,192.055c-4.514.719-10.212,1.93-13.393,8.228,3.384,4.129,10,7.948,10,12.8a.977.977,0,0,1-1.272.8,30.075,30.075,0,0,1-5.452-2.719,26.03,26.03,0,0,1,7.257,12.529,19.742,19.742,0,0,1,.341,2.038,18.506,18.506,0,0,1,.132,2.21c0,12.755-6.329,10.893-6.329,16.162,0,1.707,1.214,5.377,4.149,5.377,2.179,0,4.6-1.69,6.2-1.69h.024a1.193,1.193,0,0,1,.3,2.334c-2.071.634-4.237,1.64-4.237,3.927a4.538,4.538,0,0,0,.206,1.3C79.206,257,82.2,257,85.808,257a13.68,13.68,0,0,0,3.66-.5,21.135,21.135,0,0,1-11.5,3.616c-.253,0-.5-.007-.756-.017a18.584,18.584,0,0,1,6.609,4.49c1.957,1.936,6.329,3.913,11.234,3.913a42.832,42.832,0,0,0,15.447-3.421c.907-.418,1.808-.854,2.7-1.312v0c1.211-10.765,7.658-19.846,7.658-29.117a20.2,20.2,0,0,0-.452-4.274,6.927,6.927,0,0,0-3.981-4.888C109.2,222.319,106.2,208.687,100.7,201.1l-.013-.013a3.274,3.274,0,0,1-.253-.348l-.01-.014a17.009,17.009,0,0,0-1.913-2.152c-3.309-3.093-7.8-4.085-11.952-5.63A17.1,17.1,0,0,0,77.907,192.055Zm-4.45,47.182a2.825,2.825,0,0,1,1.889-.685,3.32,3.32,0,0,1,3.407,3.09,6,6,0,0,1-.462,1.872C78.008,241.575,75.218,239.723,73.457,239.238Zm12.8-19.276c0-2.038,1.275-3.441,4.018-3.441,12.789,0,22.009,9.362,24.235,11.844-6.136-2.989-18.332-5.232-18.359-5.236C93.263,222.623,86.253,223.49,86.253,219.961Zm9.405,13.781a.7.7,0,0,1,1.026-.8c.263.159.526.314.8.459a53.488,53.488,0,0,0,9.068,3.269c1.306.364,2.557.675,3.616.887a.928.928,0,0,1,.469,1.572,12.25,12.25,0,0,1-6.423,3.65l-.007,0a6.428,6.428,0,0,1-.8.054C98.816,242.834,96.7,237.072,95.659,233.742Z" transform="translate(-46.061 -143.956)" fill="#e6a57a"/>
            <path id="Trazado_149257" data-name="Trazado 149257" d="M79.382,199.684a.5.5,0,0,0-.833.418c.324,3.579,1.454,8.005,7.145,8.005h.03a3.185,3.185,0,0,0,1.093-2.385,3.757,3.757,0,0,0-.172-1.1A30.745,30.745,0,0,1,79.382,199.684Z" transform="translate(-59.36 -125.666)" fill="#1c194e"/>
            <path id="Trazado_149258" data-name="Trazado 149258" d="M83.855,199.773a32.769,32.769,0,0,0-3.61-3.127A15.441,15.441,0,0,0,83.855,199.773Z" transform="translate(-62.126 -132.566)" fill="#7f542e"/>
            <path id="Trazado_149259" data-name="Trazado 149259" d="M73.819,210.045a3.319,3.319,0,0,0,2.992,3.151c-.523.094-1.039.125-1.562.189.145,2.813,1.535,2.463,4.3,3.515.253.01.5.017.756.017a21.135,21.135,0,0,0,11.5-3.616,13.682,13.682,0,0,1-3.66.5c-3.6,0-6.6.007-9.976-1.646C76.72,211.347,75.206,211.054,73.819,210.045Z" transform="translate(-48.403 -100.763)" fill="#b25055"/>
            <path id="Trazado_149260" data-name="Trazado 149260" d="M79.086,202.156a3.185,3.185,0,0,1-1.093,2.385,6.87,6.87,0,0,0,2.962-.668,19.746,19.746,0,0,0-.341-2.038c-.59-.253-1.157-.509-1.7-.779A3.756,3.756,0,0,1,79.086,202.156Z" transform="translate(-51.629 -122.099)" fill="#f0dfbe"/>
            <path id="Trazado_149261" data-name="Trazado 149261" d="M78.884,205.692a2.825,2.825,0,0,0-1.889.685c1.761.486,4.551,2.338,4.834,4.278a6,6,0,0,0,.462-1.872A3.32,3.32,0,0,0,78.884,205.692Z" transform="translate(-49.599 -111.095)" fill="#f1bc98"/>
            <path id="Trazado_149262" data-name="Trazado 149262" d="M134.04,253.985c2.739,1.2,3.876,3.65,3.876,6.669,0,4.527-2.547,10.323-6.066,15.093l-.007.013a9.154,9.154,0,0,1-1.484,1.882c-3.454,4.1-7.55,7.041-11.042,7.041-2.9,0-6.136-2.021-6.136-7,0-10.617,12.833-23.82,19.853-23.82A3.491,3.491,0,0,1,134.04,253.985ZM51.682,189.6a34.088,34.088,0,0,1,15.194-3.37c32.261,0,52.867,36.188,54.176,55.542.87,12.809-12.165,24.526-12.165,36.63,0,5.323,2.2,10.451,7.7,10.451a19.109,19.109,0,0,0,7.563-2.027h.01c7.482-4.48,14.216-14.064,16.459-21.719a17.559,17.559,0,0,0,.789-4.858c0-5.226-2.641-9.422-6.008-13.45-1.231-1.481-2.567-2.938-3.9-4.416-4.045-11.541-13.865-42.355-35.581-56.618a44.215,44.215,0,0,0-18.5-7.02,45.873,45.873,0,0,0-6.214-.418,22.51,22.51,0,0,0-8.812,1.9A48.593,48.593,0,0,0,51.682,189.6Z" transform="translate(-23.321 -176.039)" fill="#596876"/>
            <path id="Trazado_149263" data-name="Trazado 149263" d="M67.034,216.169a11.423,11.423,0,0,1-2.186-.445c1.943,11.6,6.848,19.671,18.845,19.671,8.569,0,17.6-4.956,19.762-13.228a10.972,10.972,0,0,1-1.474-.891c-2.051,6.676-9.483,10.778-17,10.778C76.956,232.055,68.829,227.38,67.034,216.169Z" transform="translate(-29.783 -87.284)" fill="#9f3759"/>
            <path id="Trazado_149264" data-name="Trazado 149264" d="M68.669,222.061a11.224,11.224,0,0,1-3.384.182c1.795,11.21,9.922,15.886,17.944,15.886,7.52,0,14.952-4.1,17-10.778a13.543,13.543,0,0,1-5.249-10.785,31.368,31.368,0,0,1,.192-3.4c-.891.459-1.791.894-2.7,1.312A114.106,114.106,0,0,1,68.669,222.061Z" transform="translate(-28.034 -93.358)" fill="#c78154"/>
            <path id="Trazado_149265" data-name="Trazado 149265" d="M70.415,199.161c-2.743,0-4.018,1.4-4.018,3.441,0,3.529,7.01,2.662,9.895,3.168.027,0,12.222,2.247,18.359,5.236C92.424,208.523,83.2,199.161,70.415,199.161Z" transform="translate(-26.205 -126.596)" fill="#7f542e"/>
            <path id="Trazado_149266" data-name="Trazado 149266" d="M69.68,204.1a.7.7,0,0,0-1.026.8C69.7,208.235,71.812,214,76.4,214a6.422,6.422,0,0,0,.8-.054l.007,0A4.209,4.209,0,0,0,80,209.726a3.631,3.631,0,0,0-.455-1.9,53.484,53.484,0,0,1-9.068-3.269C70.206,204.416,69.943,204.261,69.68,204.1Z" transform="translate(-19.057 -115.119)" fill="#1c194e"/>
            <path id="Trazado_149267" data-name="Trazado 149267" d="M64.758,283.812v0a31.363,31.363,0,0,0-.192,3.4A13.543,13.543,0,0,0,69.815,298a10.963,10.963,0,0,0,1.474.891,11.277,11.277,0,0,0,5.1,1.157c4.581,0,8.2-1.474,10.5-4.612a14.841,14.841,0,0,0,2.54-6.754c14.091-3.134,25.585-18.851,25.585-33.347,0-.759-.034-1.511-.094-2.257-2.243,7.654-8.977,17.239-16.46,21.719h-.01a15.832,15.832,0,0,1-8.019,2.52c-6.835,0-12.017-3.455-12.017-11.8,0-8.737,6.106-17.036,9.26-24.751a34.836,34.836,0,0,0,1.656-10.721c0-17.168-10.883-36.852-30.3-46.646-4.072,6.015-9.459,10.593-6.066,18.689,8.957,21.385,1.855,22.174-.705,19.06,5.506,7.59,8.5,21.223,15.727,24.384a6.927,6.927,0,0,1,3.981,4.888,20.2,20.2,0,0,1,.452,4.274C72.416,263.966,65.969,273.047,64.758,283.812Z" transform="translate(2.383 -164.008)" fill="#c48b5e"/>
            <path id="Trazado_149268" data-name="Trazado 149268" d="M115.694,253.835a42.833,42.833,0,0,1-15.447,3.421c-4.905,0-9.277-1.977-11.234-3.913a18.585,18.585,0,0,0-6.609-4.49c-2.77-1.053-4.16-.7-4.3-3.515.523-.064,1.039-.094,1.562-.189A3.319,3.319,0,0,1,76.669,242c1.387,1.009,2.9,1.3,4.355,2.112a4.538,4.538,0,0,1-.206-1.3c0-2.287,2.166-3.293,4.237-3.927a1.193,1.193,0,0,0-.3-2.335h-.024c-1.592,0-4.018,1.69-6.2,1.69-2.935,0-4.149-3.67-4.149-5.377,0-5.269,6.329-3.407,6.329-16.163a18.5,18.5,0,0,0-.132-2.21,6.87,6.87,0,0,1-2.962.668h-.03c-5.691,0-6.821-4.426-7.145-8.005a.5.5,0,0,1,.833-.418,30.746,30.746,0,0,0,7.263,4.939c.543.27,1.11.526,1.7.779a26.03,26.03,0,0,0-7.257-12.529,15.442,15.442,0,0,1-3.61-3.127q-.137-.111-.283-.213c.081,1.974.206,3.944.206,5.927,0,4.841-.83,6.224-1.333,9.817a45.811,45.811,0,0,0-.378,6.437c0,2.034.088,4.079.229,6.1a98.731,98.731,0,0,0,6.481,22.07,37.919,37.919,0,0,0,7.692,11.652,10.876,10.876,0,0,0,4.332,2.567,11.421,11.421,0,0,0,2.186.445,11.222,11.222,0,0,0,3.384-.182A114.1,114.1,0,0,0,115.694,253.835Z" transform="translate(-51.253 -132.715)" fill="#d49063"/>
            <path id="Trazado_149269" data-name="Trazado 149269" d="M70.256,207.029a4.209,4.209,0,0,1-2.793,4.213,12.25,12.25,0,0,0,6.423-3.65.928.928,0,0,0-.469-1.572c-1.059-.213-2.311-.523-3.616-.887A3.631,3.631,0,0,1,70.256,207.029Z" transform="translate(-9.313 -112.422)" fill="#f0dfbe"/>
            <path id="Trazado_149270" data-name="Trazado 149270" d="M71.576,177.651c-2.614,0-6.875,1.019-11.622,2.709a44.216,44.216,0,0,1,18.5,7.02A32.544,32.544,0,0,1,92.5,184.425c1.127,0,2.348.088,3.546.122v0A47.316,47.316,0,0,0,71.576,177.651Z" transform="translate(-5.859 -177.651)" fill="#a26d42"/>
            <path id="Trazado_149271" data-name="Trazado 149271" d="M66.451,179.659a32.544,32.544,0,0,0-14.037,2.955c21.715,14.263,31.536,45.077,35.581,56.618,1.333,1.478,2.668,2.935,3.9,4.416l0,0A43.058,43.058,0,0,0,95.433,228.1c0-22.356-10.687-39.416-25.436-48.326v0C68.8,179.747,67.578,179.659,66.451,179.659Z" transform="translate(20.185 -172.885)" fill="#c48b5e"/>
            <path id="Trazado_149272" data-name="Trazado 149272" d="M134.093,283.3c-5.5,0-7.7-5.128-7.7-10.451,0-12.1,13.035-23.82,12.165-36.63-1.309-19.354-21.915-55.542-54.176-55.542a34.088,34.088,0,0,0-15.194,3.37v0A66.94,66.94,0,0,0,56.8,205.559a52.913,52.913,0,0,1,7.452-6.8,12.785,12.785,0,0,0,1.491-3.023c3.515-5.8,6.538-11.72,13.562-11.72,2.466,0,5.016.567,7.456.668a57.228,57.228,0,0,1,15.478,5.189c19.418,9.793,30.3,29.478,30.3,46.646a34.836,34.836,0,0,1-1.656,10.721c-3.154,7.715-9.26,16.014-9.26,24.752,0,8.346,5.182,11.8,12.017,11.8a15.832,15.832,0,0,0,8.019-2.52A19.109,19.109,0,0,1,134.093,283.3Z" transform="translate(-40.828 -170.478)" fill="#283c48"/>
            <path id="Trazado_149273" data-name="Trazado 149273" d="M53.783,214.524c0,2.783,1.613,5.087,4.5,5.087a4.2,4.2,0,0,0,.793-.091,21.868,21.868,0,0,0,7.493-8.464,5.256,5.256,0,0,0-1.5-6.359,4.478,4.478,0,0,0-2.733-.945C59.282,203.752,53.783,210.047,53.783,214.524Z" transform="translate(43.948 -115.7)" fill="#1a2738"/>
            <path id="Trazado_149274" data-name="Trazado 149274" d="M69.9,224.5q.764-.911,1.484-1.882l.007-.013c3.519-4.77,6.066-10.566,6.066-15.093,0-3.019-1.137-5.472-3.876-6.669a3.488,3.488,0,0,0-1.005-.121c-7.02,0-19.853,13.2-19.853,23.821,0,4.979,3.235,7,6.137,7C62.345,231.541,66.441,228.6,69.9,224.5Zm3.475-6.248a21.866,21.866,0,0,1-7.493,8.464,4.188,4.188,0,0,1-.793.091c-2.884,0-4.5-2.3-4.5-5.087,0-4.477,5.5-10.772,8.545-10.772a4.478,4.478,0,0,1,2.733.945A5.256,5.256,0,0,1,73.37,218.252Z" transform="translate(37.144 -122.896)" fill="#c95b68"/>
          </g>
          <path id="Trazado_149275" data-name="Trazado 149275" d="M57.6,254.031c0,4.905,1.177,13.673,2.756,22.845A42.19,42.19,0,0,0,89.622,310.17a117.51,117.51,0,0,0,32.518,5h.533c11.561-.074,24.026-6.619,33.051-15.977-.975.132-1.984.277-3.013.442C61.257,313.6,92.675,225.72,92.675,225.72a10.548,10.548,0,0,1-4.338-2.574,37.9,37.9,0,0,1-7.705-11.635C63.905,212.486,57.6,237.376,57.6,254.031Z" transform="translate(-57.6 -97.283)" fill="#b0a7c2" style="mix-blend-mode: multiply;isolation: isolate"/>
          <g id="Grupo_130925" data-name="Grupo 130925" transform="translate(46.269 95.202)">
            <path id="Trazado_149276" data-name="Trazado 149276" d="M55.608,229.586a4.523,4.523,0,0,0,3.768,2.776c.479.071.864.145,1.177.182,2.793.5.091.277,7.445.826a20.89,20.89,0,0,0,4.355.057,40.363,40.363,0,0,0,8.694-.958,26.462,26.462,0,0,0,4.247-1.046,29.2,29.2,0,0,0,4.136-1.4A47.419,47.419,0,0,0,114.4,207.175a.9.9,0,0,0-.442-1.211.643.643,0,0,0-.368-.091.891.891,0,0,0-.773.385c-6.562,9.321-15.994,16.1-25.13,19.006a33.276,33.276,0,0,1-3.768,1.066,23.135,23.135,0,0,1-3.842.793,38.331,38.331,0,0,1-7.83.6c-2.574.094-.918.165-7.884-.422-3.788-.277-5.276-2.058-8.309.5A1.5,1.5,0,0,0,55.608,229.586Z" transform="translate(-55.481 -205.871)" fill="#504a5e"/>
            <path id="Trazado_149277" data-name="Trazado 149277" d="M55.875,229.586a4.523,4.523,0,0,0,3.768,2.776c.479.071.864.145,1.177.182a1.59,1.59,0,0,1-.793-1.306c0-1.818,1.859-2.206,3.66-2.206,1.248,0,1.434.128,4.3.128,20.973,0,34.852-7.3,45.863-23.287a.891.891,0,0,0-.773.385c-6.562,9.321-15.994,16.1-25.129,19.006a33.277,33.277,0,0,1-3.768,1.066,23.136,23.136,0,0,1-3.842.793,38.331,38.331,0,0,1-7.83.6c-2.574.094-.918.165-7.884-.422-3.788-.277-5.276-2.058-8.309.5A1.5,1.5,0,0,0,55.875,229.586Z" transform="translate(-55.747 -205.871)" fill="#383442"/>
          </g>
        </g>
      </g>
    </g>
    <g id="Grupo_130929" data-name="Grupo 130929" transform="translate(-10644.18 -11490.927)">
      <path id="Trazado_149297" data-name="Trazado 149297" d="M303.435,206.481c11.413,6.593,20.666,20.091,20.666,30.153,0,4.957-2.253,8.148-5.9,9.326.038,4.534,4.555,9.224,5.9,10.367,0,0-1.477.624-5.413-1.65a27.523,27.523,0,0,1-9.8-9.279,30.042,30.042,0,0,1-5.451-2.486c-11.413-6.593-20.666-20.092-20.666-30.153s9.252-12.872,20.666-6.278Z" transform="translate(-261.594 -202.914)" fill="#dad6f7"/>
      <path id="Trazado_149298" data-name="Trazado 149298" d="M321.881,225.591c8.969,5.182,16.24,15.789,16.24,23.7s-7.272,10.115-16.24,4.933a32.284,32.284,0,0,1-4.284-2.995c-1.413.641-3.776.66-7.7-1.608A12.738,12.738,0,0,1,305.642,246c1.057.324,4.607.739,4.637-2.788-2.867-4.238-4.637-8.79-4.637-12.687,0-7.907,7.27-10.115,16.239-4.933Z" transform="translate(-305.642 -196.698)" fill="#8a7cbf"/>
    </g>
    <g id="Grupo_130928" data-name="Grupo 130928" transform="translate(-10848.378 -11290.347)">
      <g id="Grupo_130927" data-name="Grupo 130927" transform="translate(0 0)">
        <path id="Trazado_149278" data-name="Trazado 149278" d="M162.967,273.494c17.487-2.587,35.616-28.235,35.616-49.162.049-19.782-16.083-25.068-32.754-10.707-11.44,9.864-20.047,26.7-20.084,41.186C145.716,266.723,151.922,275.126,162.967,273.494Zm38.38-63.187c-2.061-5.182-5.683-8.969-10.976-10.341a4.445,4.445,0,0,0-.486-.109c-4.529-1.037-9.249-.025-13.536,1.717-11.507,4.673-22.155,17.2-27.7,28.1-5.491,10.115-9.377,24.61-6.739,35.766.009.049.029.1.04.149a29.662,29.662,0,0,0,1.032,3.265,16.914,16.914,0,0,0,7.572,9.012,14.967,14.967,0,0,0,2.818,1.16,18.269,18.269,0,0,0,7.968.467c9.547-1.41,19.491-8.852,27.3-19,.009-.01.009-.02.02-.03,8.554-11.124,14.538-25.524,14.6-38.832A30.526,30.526,0,0,0,201.348,210.306Z" transform="translate(-135.551 -198.007)" fill="#9f3759"/>
        <path id="Trazado_149279" data-name="Trazado 149279" d="M152.029,271.016a15.617,15.617,0,0,0,10.3.681c17.048-4.107,33.809-28.687,33.809-48.809,0-6.256-1.731-12.953-6.811-16.509,6.459,3,8.754,10.441,8.736,17.624,0,20.927-18.13,46.575-35.616,49.162A14.147,14.147,0,0,1,152.029,271.016Z" transform="translate(-135.032 -197.678)" fill="#ebd863"/>
        <path id="Trazado_149280" data-name="Trazado 149280" d="M187.975,236.624a43.483,43.483,0,0,1-4.654,10.432l-.835-.568c3.283-5.389,5.68-12,5.623-18.37-.085-9.812-6.462-14.564-15.025-11.008-.068-.486-.137-.94-.2-1.354C185.158,210.371,192.6,220.8,187.975,236.624Z" transform="translate(-134.044 -197.302)" fill="#f3e187"/>
        <path id="Trazado_149281" data-name="Trazado 149281" d="M181.452,198.582c-9.552,1.345-18.636,8.574-24.933,15.86a74.777,74.777,0,0,0-13.91,24.1c-3.15,9.089-4.861,20.561-1.253,29.495a22.273,22.273,0,0,1-4.03-10.574c-2.072-15.2,6.892-37.851,23.068-51.039C166.195,201.7,174.064,197.6,181.452,198.582Z" transform="translate(-135.742 -198.055)" fill="#d69f98"/>
        <path id="Trazado_149282" data-name="Trazado 149282" d="M177.1,241.683l-1.278.737-5.8,12.856v1.65l5.513-3.182v3.511l1.562-.9v-3.511l1.715-.993V250.2l-1.715.99Zm-24.764.96,1.751.211c-1.151,4.971-1.4,11.352,1.306,15.65a9.772,9.772,0,0,0,3.9,3.608l.835-1.532a9.144,9.144,0,0,1-3.584-3.284c-2.514-3.917-2.363-9.731-1.357-14.312l14.838,1.781c.1.058.383.222.483.28,2.523,1.476,6.868-3.145,6.868-7.25-.195-1.305-2.019-13.679-2.992-20.251,8.563-3.556,14.941,1.2,15.025,11.008.057,6.365-2.34,12.981-5.623,18.37l.835.568a43.483,43.483,0,0,0,4.654-10.432c4.65-15.923-2.892-26.22-15.089-20.868-.086-.572-.158-1.07-.219-1.48l-.7-.405-1.229.71c-.1.815-.207,1.626-.308,2.44-6.73,3.977-13.574,12.321-16.789,22.335l-2.841.867-.466,1.577Zm37.3-36.208c5.08,3.556,6.811,10.253,6.811,16.509,0,20.122-16.761,44.7-33.809,48.809a15.618,15.618,0,0,1-10.3-.681,14.922,14.922,0,0,1-5.177-6.88c-5.156-13,2.266-36.88,18.459-50.84,4.359-3.755,9.864-7.112,15.532-7.951A14.841,14.841,0,0,1,189.636,206.435Zm-20.77,54.675v-1.731q-3.12,1.8-6.232,3.6c1.367-3.369,6.212-8.616,6.212-12.516,0-2.167-1.377-3.273-3.961-1.788a8.135,8.135,0,0,0-4.123,6.629l1.6-.737a5.078,5.078,0,0,1,2.49-4.379c1.484-.857,2.391-.206,2.391,1.164,0,3.742-6.892,10.484-6.779,14.612Q164.667,263.532,168.866,261.11Z" transform="translate(-135.339 -197.734)" fill="#cd7e8e"/>
        <path id="Trazado_149283" data-name="Trazado 149283" d="M174.362,243.656v6.617l-3.977,2.295Z" transform="translate(-134.163 -195.913)" fill="#cd7e8e"/>
        <path id="Trazado_149284" data-name="Trazado 149284" d="M174.431,243.828l-3.977,8.911,3.977-2.295Zm-5.513,9.8,5.8-12.856,1.278-.737v9.507l1.715-.99V250.2l-1.715.993V254.7l-1.562.9v-3.511l-5.513,3.182Z" transform="translate(-134.232 -196.084)" fill="#f3e187"/>
        <path id="Trazado_149285" data-name="Trazado 149285" d="M172.887,214.279c.146.988,3.25,22.015,3.409,23.085,0,2.838-2.185,6.236-4.561,7.237-2.069.869-3.487-.355-3.487-2.59.515-4.1,3.057-24.237,3.41-27.026Z" transform="translate(-134.264 -197.304)" fill="#bb426a"/>
        <path id="Trazado_149286" data-name="Trazado 149286" d="M172.066,213.892l.7.405-1.228.705-.7-.4Z" transform="translate(-134.141 -197.322)" fill="#8c3155"/>
        <path id="Trazado_149287" data-name="Trazado 149287" d="M171.053,218.375q-1.034,8.217-2.063,16.355l-13.307,4.063C158.7,229.668,164.937,222.066,171.053,218.375Z" transform="translate(-134.859 -197.11)" fill="#cd7e8e"/>
        <path id="Trazado_149288" data-name="Trazado 149288" d="M171.69,214.971l-.7-.4c-.07.561-3.387,26.846-3.41,27.021a2.853,2.853,0,0,0,1.18,2.607c.264.147.173.116.34.138A3.146,3.146,0,0,1,168.28,242C168.795,237.9,171.337,217.76,171.69,214.971Z" transform="translate(-134.296 -197.29)" fill="#8c3155"/>
        <path id="Trazado_149289" data-name="Trazado 149289" d="M160.087,253.366a8.136,8.136,0,0,1,4.123-6.629c2.581-1.483,3.961-.384,3.961,1.788,0,3.9-4.845,9.147-6.212,12.516q3.114-1.8,6.232-3.6v1.731q-4.2,2.421-8.4,4.849c-.113-4.128,6.779-10.87,6.779-14.612,0-1.369-.9-2.021-2.391-1.164a5.078,5.078,0,0,0-2.49,4.379Z" transform="translate(-134.665 -195.799)" fill="#f3e187"/>
        <path id="Trazado_149290" data-name="Trazado 149290" d="M159.775,258.877l-.835,1.532a9.771,9.771,0,0,1-3.9-3.608c-2.7-4.3-2.457-10.679-1.306-15.65l1.1.13c-1.005,4.581-1.156,10.4,1.357,14.312A9.145,9.145,0,0,0,159.775,258.877Z" transform="translate(-134.99 -196.031)" fill="#f3e187"/>
        <path id="Trazado_149291" data-name="Trazado 149291" d="M155.738,238.862l-1.224.373c3.215-10.014,10.059-18.358,16.789-22.335l-.195,1.545C164.992,222.136,158.753,229.738,155.738,238.862Z" transform="translate(-134.914 -197.18)" fill="#f3e187"/>
        <path id="Trazado_149292" data-name="Trazado 149292" d="M169.174,233.99c-.029.215-.053.429-.082.645L152.5,239.7l-.7-.405C151.9,239.262,155.2,238.256,169.174,233.99Z" transform="translate(-135.043 -196.371)" fill="#8c3155"/>
        <path id="Trazado_149293" data-name="Trazado 149293" d="M152.523,239.459l-.462,1.581-.705-.409.466-1.577Z" transform="translate(-135.064 -196.131)" fill="#8c3155"/>
        <path id="Trazado_149294" data-name="Trazado 149294" d="M152.029,241.25l.462-1.582,16.59-5.063q-.383,3.027-.762,6.036a2.853,2.853,0,0,0,1.18,2.607C169.841,243.439,171.729,243.622,152.029,241.25Z" transform="translate(-135.032 -196.341)" fill="#bb426a"/>
        <path id="Trazado_149295" data-name="Trazado 149295" d="M194.239,201.553a16.969,16.969,0,0,0-11.161-1.824c-20.162,2.98-41.86,32.64-41.921,57.829-.016,7.84,2.278,16.159,9.033,20.118-.616-.357-1.237-.709-1.853-1.07-3.737-2.165-6.95-6.224-8.376-12.82-1.744-8.141-.175-17.4,2.542-25.237a74.777,74.777,0,0,1,13.91-24.1c6.294-7.281,15.386-14.516,24.933-15.86a16.953,16.953,0,0,1,10.963,1.853C192.418,200.51,192.819,200.733,194.239,201.553Z" transform="translate(-135.638 -198.057)" fill="#bb426a"/>
        <path id="Trazado_149296" data-name="Trazado 149296" d="M141.414,268.057c.068.17.141.34.215.507-15.427-16.91,1.955-58.225,26.624-68.424a23.145,23.145,0,0,1,13.838-1.614c-.191.021-.385.045-.58.073-7.384-.983-15.254,3.112-21.058,7.845C140.608,222.622,130.808,254.253,141.414,268.057Z" transform="translate(-135.801 -198.072)" fill="#d8b7ac"/>
      </g>
    </g>
    <g id="Grupo_130946" data-name="Grupo 130946" transform="translate(-10949.025 -11378.639)">
      <path id="Trazado_149318" data-name="Trazado 149318" d="M165.534,211.852l-8.211,4.742V198.953l3.6-2.342.876-1.3-5.686-3.384a1.12,1.12,0,0,0-.1-.058l-.153-.09-.009,0a2.625,2.625,0,0,0-2.688.193c-2.283,1.321-4.153,4.895-4.153,7.937v14.063l-15.335,8.85a8.281,8.281,0,0,0-3.438,6.576,3.085,3.085,0,0,0,.962,2.512l-.032.036.764.454a8.68,8.68,0,0,0-1.694,4.832,2.839,2.839,0,0,0,1.164,2.611l-.045.049,1.07.638a8.542,8.542,0,0,0-2.189,5.393,3.056,3.056,0,0,0,.953,2.495l-.023.027,1.371.818a8.507,8.507,0,0,0-2.3,5.5,3.254,3.254,0,0,0,.944,2.566l-.014.018.049.031a1.087,1.087,0,0,0,.121.072l6.522,3.847,3.182-3.659-3.254-2.647,27.74-16.018Z" transform="translate(-130.243 -191.495)" fill="#e0d1db"/>
      <path id="Trazado_149319" data-name="Trazado 149319" d="M145.275,226.561l-7.824,4.518V198.75l7.824-4.517Z" transform="translate(-105.055 -181.927)" fill="#3a3a93"/>
      <path id="Trazado_149320" data-name="Trazado 149320" d="M151.334,197.83l-6.059-3.6-7.824,4.517,6.058,3.6Z" transform="translate(-105.055 -181.927)" fill="#5252ba"/>
      <path id="Trazado_149321" data-name="Trazado 149321" d="M149.593,199.992l-6.058-3.6-7.825,4.517,6.059,3.6Z" transform="translate(-111.139 -174.37)" fill="#e0d1db"/>
      <g id="Grupo_130945" data-name="Grupo 130945" transform="translate(6.059 3.583)">
        <path id="Trazado_149322" data-name="Trazado 149322" d="M158.67,217.4V195.924c0-3.043-1.87-4.459-4.153-3.137s-4.153,4.89-4.153,7.937v14.059l-15.335,8.854c-1.892,1.092-3.438,4.05-3.438,6.571,0,1.694.728,2.7,1.762,2.9a8.692,8.692,0,0,0-1.762,4.931c0,2.1,1.1,3.178,2.548,2.876a8.6,8.6,0,0,0-2.548,5.816c0,2.229,1.227,3.3,2.814,2.8a8.474,8.474,0,0,0-2.814,6.041c0,2.526,1.546,3.694,3.438,2.6l31.853-18.387V212.662Z" transform="translate(-131.591 -192.292)" fill="#fff"/>
        <path id="Trazado_149323" data-name="Trazado 149323" d="M146.624,227.361l-7.825,4.517V199.55l7.825-4.517Z" transform="translate(-106.404 -182.713)" fill="#4646a5"/>
        <g id="Grupo_130942" data-name="Grupo 130942" transform="translate(4.828 30.325)">
          <path id="Trazado_149324" data-name="Trazado 149324" d="M133.653,207.682a.988.988,0,0,1-.494-1.843l11.542-6.665a.989.989,0,0,1,.989,1.712l-11.542,6.665A.981.981,0,0,1,133.653,207.682Z" transform="translate(-132.665 -199.039)" fill="#e0d1db"/>
        </g>
        <g id="Grupo_130943" data-name="Grupo 130943" transform="translate(4.828 39.19)">
          <path id="Trazado_149325" data-name="Trazado 149325" d="M133.653,209.657a.991.991,0,0,1-.494-1.847l11.542-6.665a.989.989,0,0,1,.989,1.712l-11.542,6.665A.987.987,0,0,1,133.653,209.657Z" transform="translate(-132.665 -201.011)" fill="#e0d1db"/>
        </g>
        <g id="Grupo_130944" data-name="Grupo 130944" transform="translate(4.828 48.057)">
          <path id="Trazado_149326" data-name="Trazado 149326" d="M133.653,211.627a.988.988,0,0,1-.494-1.843l11.542-6.665a.989.989,0,0,1,.989,1.712l-11.542,6.661A.986.986,0,0,1,133.653,211.627Z" transform="translate(-132.665 -202.984)" fill="#e0d1db"/>
        </g>
      </g>
    </g>
    <g id="Grupo_130959" data-name="Grupo 130959" transform="translate(-10669.526 -11431.922)">
      <path id="Trazado_149345" data-name="Trazado 149345" d="M106.376,236.83l44.71,25.813V231.628l-44.71-25.813Z" transform="translate(-106.376 -205.015)" fill="#fff"/>
      <path id="Trazado_149346" data-name="Trazado 149346" d="M151.086,231.626,124.755,242.4l-18.379-36.583Z" transform="translate(-106.376 -205.02)" fill="#e0d1db"/>
      <g id="Grupo_130957" data-name="Grupo 130957" transform="translate(24.928 29.214)">
        <path id="Trazado_149347" data-name="Trazado 149347" d="M126.158,242.782v-.813l-18.419-27.6h-1.362l18.391,27.549Z" transform="translate(-106.376 -214.368)" fill="#e0d1db"/>
      </g>
      <g id="Grupo_130958" data-name="Grupo 130958" transform="translate(0 21.565)">
        <path id="Trazado_149348" data-name="Trazado 149348" d="M115.589,222.683l15.581-9.417-.609-1.2L114.952,221.5v.813Z" transform="translate(-114.952 -212.065)" fill="#e0d1db"/>
      </g>
      <path id="Trazado_149349" data-name="Trazado 149349" d="M105.946,214.137l1.428-.792v31.014l-1.428.8Z" transform="translate(-61.236 -187.531)" fill="#e0d1db"/>
      <path id="Trazado_149350" data-name="Trazado 149350" d="M105.946,206.367l1.428-.793,44.71,25.814-1.428.792Z" transform="translate(-105.946 -205.575)" fill="#efe8eb"/>
    </g>
    <g id="Grupo_130974" data-name="Grupo 130974" transform="translate(-10685.146 -11300.389)">
      <g id="Grupo_130968" data-name="Grupo 130968" transform="translate(16.129 20.326)">
        <path id="Trazado_149357" data-name="Trazado 149357" d="M93.086,260.526l-9.341,5.393,17.378,10.033,4.355-2.219,1.783-.119.1,7.525a.826.826,0,0,1,0,.133l0,.2-.011,0a2.978,2.978,0,0,1-1.722,2.54c-2.6,1.5-7.18,1.311-10.18-.421l-13.851-8L64.159,285.664c-2.154,1.246-5.948,1.088-8.437-.349a3.491,3.491,0,0,1-1.92-2.378l-.058.014-.014-1.012a9.874,9.874,0,0,1-5.721-1.077,3.241,3.241,0,0,1-1.913-2.633l-.072.014L46,276.827a9.731,9.731,0,0,1-6.56-.911,3.474,3.474,0,0,1-1.913-2.36l-.04.011-.029-1.823a9.631,9.631,0,0,1-6.722-.854,3.7,3.7,0,0,1-1.992-2.4l-.029.007v-.065c-.007-.054,0-.1,0-.158l-.083-8.613,5.418-1.056.757,4.712L66.367,245.1Z" transform="translate(-28.583 -233.85)" fill="#ff9201"/>
        <path id="Trazado_149358" data-name="Trazado 149358" d="M47.1,244.2l-8.9,5.139,31.848,18.387,8.9-5.139Z" transform="translate(-3.706 -236.188)" fill="#3a3a93"/>
        <path id="Trazado_149359" data-name="Trazado 149359" d="M55.91,247.082l.1,8.015-8.9,5.139-.1-8.014Z" transform="translate(19.23 -228.694)" fill="#4646a5"/>
        <path id="Trazado_149360" data-name="Trazado 149360" d="M52.016,247.687l.1,8.014-8.9,5.139-.1-8.014Z" transform="translate(9.099 -227.119)" fill="#ff9201"/>
        <g id="Grupo_130967" data-name="Grupo 130967">
          <path id="Trazado_149361" data-name="Trazado 149361" d="M83.683,263.694l21.16,12.219c3,1.733,3.329,4.377.731,5.879s-7.18,1.308-10.18-.425l-13.855-8L64.1,283.443c-2.154,1.243-5.951,1.084-8.437-.349-1.668-.965-2.244-2.255-1.852-3.386a9.928,9.928,0,0,1-5.865-1.07c-2.071-1.2-2.5-2.885-1.38-4.146a9.781,9.781,0,0,1-7.183-.8c-2.194-1.264-2.55-3.087-1.149-4.362a9.639,9.639,0,0,1-7.554-.663c-2.489-1.434-2.759-3.628-.609-4.871l36.236-20.919L93.028,258.3Z" transform="translate(-28.621 -239.64)" fill="#ffaf04"/>
          <path id="Trazado_149362" data-name="Trazado 149362" d="M47.069,241.978l-8.9,5.139L70.016,265.5l8.9-5.139Z" transform="translate(-3.777 -241.978)" fill="#5252ba"/>
          <g id="Grupo_130964" data-name="Grupo 130964" transform="translate(29.168 28.979)">
            <path id="Trazado_149363" data-name="Trazado 149363" d="M36.869,258.166A1.123,1.123,0,0,0,38.4,259.7l13.131-7.579a1.125,1.125,0,0,0-1.124-1.949L37.28,257.752A1.132,1.132,0,0,0,36.869,258.166Z" transform="translate(-36.718 -250.022)" fill="#ff9201"/>
          </g>
          <g id="Grupo_130965" data-name="Grupo 130965" transform="translate(20.433 23.937)">
            <path id="Trazado_149364" data-name="Trazado 149364" d="M34.443,256.766a1.123,1.123,0,0,0,1.535,1.535l13.134-7.579a1.123,1.123,0,0,0-1.124-1.945l-13.131,7.579A1.106,1.106,0,0,0,34.443,256.766Z" transform="translate(-34.293 -248.622)" fill="#ff9201"/>
          </g>
          <g id="Grupo_130966" data-name="Grupo 130966" transform="translate(11.701 18.896)">
            <path id="Trazado_149365" data-name="Trazado 149365" d="M32.019,255.364a1.125,1.125,0,0,0,1.535,1.538l13.131-7.583a1.122,1.122,0,1,0-1.12-1.945l-13.131,7.579A1.132,1.132,0,0,0,32.019,255.364Z" transform="translate(-31.869 -247.223)" fill="#ff9201"/>
          </g>
        </g>
      </g>
      <g id="Grupo_130973" data-name="Grupo 130973" transform="translate(0 0)">
        <path id="Trazado_149366" data-name="Trazado 149366" d="M38.424,254.883l9.345,5.4L30.387,270.313l-4.355-2.219-1.783-.119-.1,7.525a.779.779,0,0,0,0,.13l0,.2.011,0a2.986,2.986,0,0,0,1.722,2.54c2.6,1.5,7.18,1.308,10.18-.421l13.851-8,17.443,10.069c2.154,1.243,5.948,1.084,8.437-.349a3.514,3.514,0,0,0,1.924-2.378l.054.014.014-1.016a9.863,9.863,0,0,0,5.724-1.077,3.233,3.233,0,0,0,1.909-2.633l.072.018.022-1.419a9.73,9.73,0,0,0,6.56-.908,3.491,3.491,0,0,0,1.916-2.36l.036.007.029-1.819a9.66,9.66,0,0,0,6.726-.854,3.7,3.7,0,0,0,1.989-2.4l.025.007,0-.068c.007-.054,0-.1,0-.159l.083-8.613-5.418-1.056-.753,4.712L65.143,239.458Z" transform="translate(-24.144 -228.209)" fill="#e0d1db"/>
        <path id="Trazado_149367" data-name="Trazado 149367" d="M56.977,238.56l8.9,5.139L34.029,262.087l-8.9-5.139Z" transform="translate(-21.582 -230.546)" fill="#3a3a93"/>
        <path id="Trazado_149368" data-name="Trazado 149368" d="M25.226,241.44l-.1,8.015,8.9,5.139.1-8.015Z" transform="translate(-21.582 -223.052)" fill="#4646a5"/>
        <path id="Trazado_149369" data-name="Trazado 149369" d="M29.12,242.045l-.1,8.015,8.9,5.139.1-8.015Z" transform="translate(-11.451 -221.476)" fill="#e0d1db"/>
        <g id="Grupo_130972" data-name="Grupo 130972" transform="translate(0.078)">
          <path id="Trazado_149370" data-name="Trazado 149370" d="M47.81,258.052l-21.16,12.216c-3,1.733-3.329,4.38-.731,5.879s7.18,1.311,10.18-.421l13.855-8L67.4,277.8c2.151,1.243,5.948,1.088,8.433-.349,1.668-.962,2.244-2.255,1.852-3.383a9.931,9.931,0,0,0,5.865-1.073c2.071-1.192,2.5-2.886,1.38-4.146a9.762,9.762,0,0,0,7.183-.8c2.194-1.268,2.55-3.091,1.149-4.362a9.649,9.649,0,0,0,7.558-.663c2.486-1.437,2.756-3.628.605-4.87L65.184,237.234,38.465,252.659Z" transform="translate(-24.166 -233.997)" fill="#fff"/>
          <path id="Trazado_149371" data-name="Trazado 149371" d="M57,236.335l8.9,5.139L34.056,259.862l-8.9-5.139Z" transform="translate(-21.589 -236.335)" fill="#5252ba"/>
          <g id="Grupo_130969" data-name="Grupo 130969" transform="translate(34.159 28.979)">
            <path id="Trazado_149372" data-name="Trazado 149372" d="M48.879,252.522a1.128,1.128,0,0,1-1.538,1.538l-13.127-7.583a1.122,1.122,0,1,1,1.12-1.945l13.131,7.58A1.132,1.132,0,0,1,48.879,252.522Z" transform="translate(-33.648 -244.38)" fill="#e0d1db"/>
          </g>
          <g id="Grupo_130970" data-name="Grupo 130970" transform="translate(42.89 23.937)">
            <path id="Trazado_149373" data-name="Trazado 149373" d="M51.3,251.121a1.125,1.125,0,0,1-1.535,1.538L36.635,245.08a1.125,1.125,0,0,1,1.124-1.949L50.89,250.71A1.131,1.131,0,0,1,51.3,251.121Z" transform="translate(-36.072 -242.98)" fill="#e0d1db"/>
          </g>
          <g id="Grupo_130971" data-name="Grupo 130971" transform="translate(51.625 18.894)">
            <path id="Trazado_149374" data-name="Trazado 149374" d="M53.726,249.724a1.123,1.123,0,0,1-1.535,1.535l-13.131-7.579a1.125,1.125,0,1,1,1.124-1.949l13.127,7.583A1.106,1.106,0,0,1,53.726,249.724Z" transform="translate(-38.496 -241.58)" fill="#e0d1db"/>
          </g>
        </g>
      </g>
    </g>
    <rect id="Rectngulo_35406" data-name="Rectngulo 35406" width="432.444" height="324.333" transform="translate(-11002.021 -11532.964)" fill="none"/>
  </g>
</svg>
