<svg xmlns="http://www.w3.org/2000/svg" width="89" height="89" viewBox="0 0 89 89">
  <g id="icon1" transform="translate(-705 -1294)">
    <circle id="Elipse_4905" data-name="Elipse 4905" cx="44.5" cy="44.5" r="44.5" transform="translate(705 1294)" fill="#fcecdf"/>
    <g id="_350jIN" data-name="350jIN" transform="translate(-1651.569 -1152.671)">
      <g id="Grupo_131690" data-name="Grupo 131690" transform="translate(2368.114 2459.221)">
        <path id="Trazado_149693" data-name="Trazado 149693" d="M2432.024,2491.548a1.559,1.559,0,0,1-1.48.574c-.393-.023-.788,0-1.249,0A29.326,29.326,0,0,1,2401,2520.394c0,.568.012,1.1,0,1.635-.019.686-.38,1.095-.937,1.092s-.909-.412-.928-1.1c-.013-.519,0-1.038,0-1.572-1.251-.146-2.479-.206-3.671-.448-1.685-.342-3.347-.8-5.009-1.246-.685-.184-.949-.651-.786-1.191.174-.575.673-.8,1.353-.569a28.047,28.047,0,0,0,7,1.446c.33.024.66.043,1.1.071,0-1.146.011-2.257-.021-3.366,0-.087-.308-.227-.479-.238a23.593,23.593,0,0,1-13.729-5.445c-.32-.262-.63-.535-.939-.8-.763.634-1.229.7-1.656.271s-.347-.865.213-1.576c-.906-1.261-1.869-2.465-2.684-3.761a22.629,22.629,0,0,1-3.47-10.926c-.024-.429-.159-.574-.588-.563-.976.026-1.953.008-3.069.008.118,1.11.171,2.181.352,3.231a27.072,27.072,0,0,0,13.881,19.806c.645.368.853.858.589,1.373-.276.539-.825.647-1.5.258a28.866,28.866,0,0,1-14.788-21.016c-.206-1.181-.288-2.385-.436-3.655-.521,0-1.056.015-1.589,0-.69-.025-1.091-.39-1.083-.949s.411-.9,1.108-.914c.517-.01,1.034,0,1.615,0a29.322,29.322,0,0,1,28.216-28.289c.278-.917-.325-2.015.639-2.736h.749c.962.72.361,1.819.638,2.737a29.318,29.318,0,0,1,28.215,28.287c.5,0,.938.026,1.371-.006a1.443,1.443,0,0,1,1.358.56Zm-53.847.568a22.018,22.018,0,0,0,5.832,13.96c.312-.375.556-.714.847-1.006a.94.94,0,1,1,1.294,1.33c-.293.289-.637.525-1,.819a22.049,22.049,0,0,0,13.98,5.838c0-.455,0-.824,0-1.193,0-.4-.013-.792.014-1.185a.87.87,0,0,1,.853-.9.84.84,0,0,1,.957.7,3.49,3.49,0,0,1,.048.744c.006.592,0,1.184,0,1.836a22.008,22.008,0,0,0,13.948-5.821c-.379-.327-.711-.579-1-.873a.934.934,0,1,1,1.312-1.309,11.977,11.977,0,0,1,.827,1.06,22.05,22.05,0,0,0,5.861-14c-.8,0-1.508.016-2.211,0s-1.083-.384-1.074-.952.393-.9,1.106-.909,1.406,0,2.143,0a4.208,4.208,0,0,0-.006-.748c-.367-1.828-.719-3.66-1.138-5.476-.192-.833-.1-1.295.513-1.5.57-.191,1.036.089,1.251.872.373,1.359.727,2.727,1.011,4.106.183.884.227,1.8.332,2.689h3.49c-.448-15.39-13.734-26.363-26.361-26.254,0,1.037.007,2.076,0,3.114,0,.421.281.381.551.4a23.392,23.392,0,0,1,13.287,5.1c.467.369.918.757,1.37,1.13.709-.628,1.184-.7,1.616-.286s.369.9-.266,1.657c.183.213.386.422.557.654.786,1.072,1.58,2.138,2.334,3.232a.925.925,0,0,1-.21,1.414.976.976,0,0,1-1.371-.435c-.162-.242-.3-.5-.468-.736-.7-.942-1.411-1.875-2.143-2.846-.249.236-.4.375-.546.518s-.291.3-.443.439a.936.936,0,0,1-1.43.067.909.909,0,0,1,.113-1.379,12.235,12.235,0,0,1,1.063-.832,22.267,22.267,0,0,0-14.012-5.858c0,.7,0,1.3,0,1.9,0,.96-.3,1.4-.952,1.388s-.919-.434-.921-1.417c0-.6,0-1.193,0-1.777-3.656-.47-10.959,2.542-13.915,5.778.325.273.679.529.984.835a.932.932,0,1,1-1.3,1.317c-.31-.3-.578-.645-.909-1.019a21.92,21.92,0,0,0-5.8,13.95c.793,0,1.477-.008,2.161,0,.716.01,1.105.327,1.125.892.02.586-.387.954-1.12.972C2379.665,2492.129,2378.979,2492.116,2378.177,2492.116Zm20.95-28.223c-14.211.271-26.136,12.331-26.34,26.288a.628.628,0,0,0,.173.052c.936.007,1.872-.011,2.807.021.438.015.556-.144.583-.567a23.31,23.31,0,0,1,5.21-13.423c.333-.417.682-.821,1.018-1.224-.632-.715-.711-1.179-.3-1.614s.836-.376,1.589.159c1.46-1.016,2.838-2.1,4.33-2.987a22.554,22.554,0,0,1,10.391-3.146c.274-.016.551.011.546-.406C2399.119,2466.008,2399.127,2464.97,2399.127,2463.893Zm18.42,43.4c.638.725.717,1.193.31,1.626s-.838.369-1.6-.163c-1.4.985-2.73,2.029-4.163,2.9a22.826,22.826,0,0,1-10.555,3.251c-.181.011-.5.175-.506.277-.037,1.091-.023,2.183-.023,3.275,15-.349,26.341-13.3,26.3-26.284h-3.478A23.864,23.864,0,0,1,2417.547,2507.3Z" transform="translate(-2368.114 -2459.221)" fill="#0f0140"/>
        <path id="Trazado_149694" data-name="Trazado 149694" d="M2530.71,2637.188a31,31,0,0,1,2.268,2.195,7.853,7.853,0,0,1,1.805,4.88c.031.694-.293,1.115-.857,1.156-.606.044-.959-.32-1.008-1.066a6.327,6.327,0,0,0-3.6-5.581,1.964,1.964,0,0,0-.984-.088c-.821.061-1.639.195-2.46.234a.588.588,0,0,0-.615.356c-.325.619-.722,1.2-1.027,1.7a31.488,31.488,0,0,1,2.414,2.457,7.428,7.428,0,0,1,1.584,4.573c.017.754-.291,1.164-.88,1.185s-.946-.366-.988-1.111a6.265,6.265,0,0,0-3.615-5.559,1.35,1.35,0,0,0-.922-.07,6.159,6.159,0,0,1-3.74-.007,1.27,1.27,0,0,0-.866.055,6.283,6.283,0,0,0-3.647,5.412,2.294,2.294,0,0,1-.179.84.829.829,0,0,1-1.017.4.778.778,0,0,1-.665-.858,15.05,15.05,0,0,1,.48-2.806,7.95,7.95,0,0,1,3.579-4.371c-.4-.684-.787-1.363-1.208-2.017-.072-.111-.3-.145-.468-.166-.9-.117-1.8-.228-2.7-.319a1.239,1.239,0,0,0-.638.074,6.314,6.314,0,0,0-3.735,5.616c-.032.5-.14.915-.66,1.081-.692.22-1.258-.3-1.213-1.137a8.207,8.207,0,0,1,3.612-6.583c.165-.117.333-.231.382-.265-.466-.98-.979-1.878-1.324-2.836a4.781,4.781,0,0,1,.036-3.009c.2-.664.642-.976,1.174-.832.573.156.8.634.623,1.342a3.924,3.924,0,0,0,3.525,5.025,7.625,7.625,0,0,0,.955-.039,5.954,5.954,0,0,1,2.966-5.193,3.862,3.862,0,0,0-4.6-2.515c-.141.034-.279.083-.42.118a.929.929,0,1,1-.549-1.773,5.7,5.7,0,0,1,3.616-.063,5.552,5.552,0,0,1,3.544,3.107c.169.369.368.408.74.447a2.112,2.112,0,0,0,2.3-1.238,5.686,5.686,0,0,1,8.209-1.441,5.8,5.8,0,0,1,1.09,8.3C2530.917,2636.94,2530.8,2637.083,2530.71,2637.188Zm-10.73-4.177a3.917,3.917,0,0,0-3.948,3.9,3.937,3.937,0,1,0,7.874.022A3.918,3.918,0,0,0,2519.98,2633.01Zm5.814,3.952a3.794,3.794,0,0,0,4.474-2.652,3.926,3.926,0,0,0-2.741-4.932,3.82,3.82,0,0,0-4.677,2.5A5.877,5.877,0,0,1,2525.793,2636.963Z" transform="translate(-2488.017 -2606.33)" fill="#0f0140"/>
      </g>
    </g>
  </g>
</svg>
