<svg xmlns="http://www.w3.org/2000/svg" width="61.046" height="61.047" viewBox="0 0 61.046 61.047">
  <g id="icon3" transform="translate(-349.477 -1599.272)">
    <g id="Grupo_92070" data-name="Grupo 92070" transform="translate(349.477 1599.271)">
      <path id="Trazado_147677" data-name="Trazado 147677" d="M985.009,987.8a30.523,30.523,0,1,1,30.523-30.523A30.557,30.557,0,0,1,985.009,987.8Z" transform="translate(-954.486 -926.756)" fill="#3e2ea6"/>
    </g>
    <g id="Grupo_131691" data-name="Grupo 131691" transform="translate(-2982.929 -978.784)">
      <path id="Trazado_149695" data-name="Trazado 149695" d="M3422.838,2604.285c.75.076,1.507.108,2.248.235a13.36,13.36,0,1,1-14.668,8.367c.31-.795.749-1.54,1.138-2.3a.784.784,0,0,0-.615-1.209.874.874,0,0,0-.8.526,14.913,14.913,0,1,0,4.963-4.94,2.2,2.2,0,0,0-.261.171.775.775,0,0,0-.188.986.76.76,0,0,0,.975.328,3.927,3.927,0,0,0,.443-.246A13.739,13.739,0,0,1,3422.838,2604.285Zm.008,16.1a2.666,2.666,0,0,0,2.512-3.62.476.476,0,0,1,.136-.6q2.427-2.405,4.837-4.828a2.562,2.562,0,0,0,.334-.38.769.769,0,0,0-1.078-1.052,2.558,2.558,0,0,0-.348.312q-2.432,2.429-4.857,4.864a.444.444,0,0,1-.57.126,2.415,2.415,0,0,0-1.9,0,.462.462,0,0,1-.6-.143q-1.106-1.13-2.238-2.236a1.3,1.3,0,0,0-.55-.339.693.693,0,0,0-.815.389.763.763,0,0,0,.175.96c.772.775,1.538,1.555,2.325,2.314a.5.5,0,0,1,.135.637A2.666,2.666,0,0,0,3422.846,2620.382Zm10.641-1.9c.168,0,.337.008.505,0a.773.773,0,0,0,.053-1.541,6.773,6.773,0,0,0-1.126,0,.773.773,0,0,0,.063,1.541C3433.15,2618.495,3433.319,2618.487,3433.488,2618.487Zm-9.865,9.859h0c0-.168.011-.338,0-.505a.782.782,0,0,0-.816-.763.765.765,0,0,0-.737.795c-.01.311-.01.622,0,.933a.755.755,0,0,0,.749.78.771.771,0,0,0,.8-.734C3423.637,2628.684,3423.623,2628.514,3423.623,2628.345Zm.017-21.232c0-.181.009-.364,0-.544a.753.753,0,0,0-.7-.748.74.74,0,0,0-.833.644,5.888,5.888,0,0,0,0,1.2.752.752,0,0,0,.826.658.763.763,0,0,0,.708-.745C3423.648,2607.425,3423.64,2607.269,3423.64,2607.113Zm-11.4,9.8c-.168,0-.337-.007-.505,0a.755.755,0,0,0-.763.725.747.747,0,0,0,.671.813,6.243,6.243,0,0,0,1.164,0,.754.754,0,0,0,.671-.816.765.765,0,0,0-.771-.722C3412.552,2616.909,3412.4,2616.916,3412.241,2616.916Zm16.793-17.654a.762.762,0,0,0-.752-.783.786.786,0,0,0-.8.785.8.8,0,0,0,.782.771A.778.778,0,0,0,3429.034,2599.262Zm-15.4,8.443a.784.784,0,0,0-.769-.776.8.8,0,0,0-.787.764.786.786,0,0,0,.793.791A.773.773,0,0,0,3413.636,2607.7Z" transform="translate(-59.925 -9.124)" fill="#fff"/>
      <path id="Trazado_149696" data-name="Trazado 149696" d="M3342.929,2607.328c.1-.758.19-1.519.313-2.274a20.065,20.065,0,0,1,14.458-15.788,20.294,20.294,0,0,1,7.545-.547c.538.065.852.408.8.86a.811.811,0,0,1-1,.684,18.427,18.427,0,0,0-14.565,31.9,17.89,17.89,0,0,0,10.208,4.71,18.363,18.363,0,0,0,20.074-13.678,17.986,17.986,0,0,0-2.751-15.21.833.833,0,0,0-.31-.287c0,.239.009.478,0,.717a.777.777,0,0,1-.757.785.76.76,0,0,1-.784-.719q-.038-1.542,0-3.085a.735.735,0,0,1,.78-.718c.99-.011,1.979-.013,2.969,0a.748.748,0,0,1,.762.773.768.768,0,0,1-.762.778c-.195.013-.39,0-.586,0h-.645c.2.275.362.488.515.706a19.758,19.758,0,0,1,3.641,13.61,19.976,19.976,0,0,1-16.456,17.728c-.729.122-1.464.2-2.2.3h-2.5c-.087-.021-.173-.05-.261-.062-.913-.133-1.834-.221-2.737-.4a20,20,0,0,1-15.439-16.011c-.123-.755-.209-1.516-.313-2.274Z" transform="translate(0 0)" fill="#fff"/>
      <path id="Trazado_149697" data-name="Trazado 149697" d="M3422.838,2654.982a13.739,13.739,0,0,0-6.766,1.916,3.889,3.889,0,0,1-.443.246.76.76,0,0,1-.975-.328.775.775,0,0,1,.188-.986,2.2,2.2,0,0,1,.261-.171,14.875,14.875,0,1,1-4.963,4.94.874.874,0,0,1,.8-.526.784.784,0,0,1,.615,1.209c-.389.763-.828,1.508-1.138,2.3a13.34,13.34,0,1,0,14.668-8.367C3424.345,2655.09,3423.588,2655.058,3422.838,2654.982Z" transform="translate(-59.925 -59.82)" fill="#fff"/>
      <path id="Trazado_149698" data-name="Trazado 149698" d="M3536.632,2753.3a2.666,2.666,0,0,1-2.5-3.6.5.5,0,0,0-.135-.637c-.787-.759-1.553-1.539-2.325-2.314a.763.763,0,0,1-.175-.96.693.693,0,0,1,.815-.389,1.3,1.3,0,0,1,.55.339q1.133,1.1,2.238,2.236a.462.462,0,0,0,.6.143,2.416,2.416,0,0,1,1.9,0,.444.444,0,0,0,.569-.126q2.42-2.44,4.857-4.864a2.589,2.589,0,0,1,.348-.312.769.769,0,0,1,1.078,1.052,2.548,2.548,0,0,1-.334.38q-2.415,2.418-4.837,4.828a.476.476,0,0,0-.136.6A2.666,2.666,0,0,1,3536.632,2753.3Z" transform="translate(-173.71 -142.04)" fill="#fff"/>
      <path id="Trazado_149699" data-name="Trazado 149699" d="M3719.445,2835.637c-.168,0-.338.008-.505,0a.773.773,0,0,1-.062-1.541,6.8,6.8,0,0,1,1.126,0,.773.773,0,0,1-.053,1.541C3719.782,2835.645,3719.614,2835.637,3719.445,2835.637Z" transform="translate(-345.882 -226.274)" fill="#fff"/>
      <path id="Trazado_149700" data-name="Trazado 149700" d="M3589.863,2965.069c0,.168.014.338,0,.505a.771.771,0,0,1-.8.734.755.755,0,0,1-.749-.78c-.011-.311-.01-.622,0-.933a.765.765,0,0,1,.737-.795.782.782,0,0,1,.816.763c.014.167,0,.337,0,.505Z" transform="translate(-226.165 -345.848)" fill="#fff"/>
      <path id="Trazado_149701" data-name="Trazado 149701" d="M3590.03,2693.528c0,.156.008.312,0,.467a.763.763,0,0,1-.708.745.752.752,0,0,1-.826-.658,5.888,5.888,0,0,1,0-1.2.74.74,0,0,1,.833-.644.753.753,0,0,1,.7.748C3590.038,2693.165,3590.03,2693.347,3590.03,2693.528Z" transform="translate(-226.314 -95.538)" fill="#fff"/>
      <path id="Trazado_149702" data-name="Trazado 149702" d="M3447.892,2833.971c.156,0,.311-.006.467,0a.765.765,0,0,1,.771.722.754.754,0,0,1-.671.816,6.243,6.243,0,0,1-1.164,0,.747.747,0,0,1-.671-.813.755.755,0,0,1,.763-.725C3447.555,2833.964,3447.724,2833.971,3447.892,2833.971Z" transform="translate(-95.576 -226.179)" fill="#fff"/>
      <path id="Trazado_149703" data-name="Trazado 149703" d="M3659.089,2599.262a.778.778,0,0,1-.77.773.8.8,0,0,1-.782-.771.786.786,0,0,1,.8-.785A.762.762,0,0,1,3659.089,2599.262Z" transform="translate(-289.981 -9.124)" fill="#fff"/>
      <path id="Trazado_149704" data-name="Trazado 149704" d="M3462.357,2707.195a.773.773,0,0,1-.762.778.785.785,0,0,1-.793-.791.8.8,0,0,1,.787-.764A.784.784,0,0,1,3462.357,2707.195Z" transform="translate(-108.645 -108.614)" fill="#fff"/>
    </g>
  </g>
</svg>
