<svg xmlns="http://www.w3.org/2000/svg" width="89" height="89" viewBox="0 0 89 89">
  <g id="icon2" transform="translate(-705 -1401)">
    <circle id="Elipse_4906" data-name="Elipse 4906" cx="44.5" cy="44.5" r="44.5" transform="translate(705 1401)" fill="#fcecdf"/>
    <g id="xxo131" transform="translate(-1824.544 -2261.429)">
      <g id="Grupo_131689" data-name="Grupo 131689" transform="translate(2546.544 3679.429)">
        <path id="Trazado_149687" data-name="Trazado 149687" d="M2651.087,4037.465h5.775v-1.826c0-.579-.008-1.157,0-1.735.012-.624.328-.977.832-.963.487.014.765.347.768.955.006,1.171,0,2.342,0,3.542h14c0-1.08,0-2.152,0-3.225,0-.909.232-1.273.807-1.271s.8.37.8,1.279c0,1.059,0,2.118,0,3.222h5.708c.026-.047.059-.081.059-.114q-.037-3.353-.083-6.705a3.314,3.314,0,0,0-.091-.511.838.838,0,0,1,.613-1.073.814.814,0,0,1,.96.771,13.275,13.275,0,0,1,.211,1.95c.027,2.083.013,4.167.009,6.25,0,.819-.261,1.078-1.069,1.078h-29.853c-.75,0-1.037-.233-1.04-.92-.01-2.275-.077-4.555.025-6.827a8.68,8.68,0,0,1,8.789-8.416c4.686-.037,9.373-.009,14.059-.006a2.028,2.028,0,0,1,.458.043.783.783,0,0,1-.069,1.539,4.746,4.746,0,0,1-.635.018q-6.885,0-13.77,0a7.175,7.175,0,0,0-7.118,5.776,6.107,6.107,0,0,0-.142,1.2C2651.079,4033.466,2651.087,4035.43,2651.087,4037.465Z" transform="translate(-2637.536 -3983.093)" fill="#0f0140"/>
        <path id="Trazado_149688" data-name="Trazado 149688" d="M2731.541,3694a.815.815,0,0,1-1.295.7c-1.1-.56-2.2-1.115-3.263-1.731a1.275,1.275,0,0,0-1.466-.015c-1.043.615-2.138,1.141-3.209,1.709-.362.191-.782.337-1.06,0a1.409,1.409,0,0,1-.249-.98c.182-1.334.446-2.657.645-3.989a.859.859,0,0,0-.21-.638c-.92-.933-1.868-1.836-2.809-2.749-.3-.287-.593-.572-.447-1.045s.544-.559.954-.617c1.2-.171,2.4-.358,3.6-.5a1.124,1.124,0,0,0,1.03-.736c.483-1.089,1.042-2.145,1.564-3.218.192-.4.4-.77.912-.762s.707.391.9.784c.556,1.142,1.107,2.286,1.7,3.411a.932.932,0,0,0,.578.433c1.213.211,2.435.374,3.654.553a1.231,1.231,0,0,1,.451.081c.274.172.647.345.738.6a1.041,1.041,0,0,1-.283.851c-.922.957-1.884,1.875-2.849,2.79a.851.851,0,0,0-.3.9c.262,1.3.459,2.615.682,3.924C2731.518,3693.852,2731.533,3693.948,2731.541,3694Zm-10.732-7.969c.665.7,1.275,1.423,1.966,2.054a1.548,1.548,0,0,1,.517,1.642c-.2.9-.314,1.81-.49,2.867.868-.458,1.64-.8,2.343-1.252a1.811,1.811,0,0,1,2.18,0c.7.45,1.471.793,2.289,1.224-.022-.291-.021-.462-.049-.628-.125-.74-.231-1.485-.4-2.217a1.446,1.446,0,0,1,.488-1.594c.632-.533,1.2-1.144,1.787-1.726a3.969,3.969,0,0,0,.289-.368c-1.04-.146-1.99-.3-2.946-.405a1.361,1.361,0,0,1-1.217-.892c-.388-.89-.853-1.746-1.339-2.726-.512,1.037-.978,1.957-1.423,2.888a1.09,1.09,0,0,1-.917.682C2722.861,3685.708,2721.836,3685.879,2720.809,3686.034Z" transform="translate(-2698.25 -3679.429)" fill="#0f0140"/>
        <path id="Trazado_149689" data-name="Trazado 149689" d="M2892.564,3754.58c.243-1.437.458-2.827.724-4.207a.764.764,0,0,0-.276-.8c-.935-.892-1.851-1.8-2.778-2.7-.3-.292-.577-.594-.4-1.056s.562-.52.982-.577c1.317-.179,2.633-.365,3.943-.588a.878.878,0,0,0,.517-.44c.592-1.146,1.153-2.309,1.719-3.468.185-.379.392-.714.883-.71s.691.343.876.721c.566,1.16,1.122,2.324,1.724,3.465a1,1,0,0,0,.635.442c1.329.227,2.67.379,4,.619a1.118,1.118,0,0,1,.765.561,1.085,1.085,0,0,1-.267.9c-.917.962-1.881,1.881-2.845,2.8a.86.86,0,0,0-.3.9c.26,1.3.485,2.615.661,3.931a.818.818,0,0,1-1.248.907c-1.162-.559-2.3-1.167-3.427-1.8a1.048,1.048,0,0,0-1.162.007c-1.124.632-2.272,1.223-3.421,1.811C2893.148,3755.666,2892.515,3755.273,2892.564,3754.58Zm10.731-7.955c-.785-.112-1.581-.278-2.383-.327a1.908,1.908,0,0,1-1.9-1.35,24.153,24.153,0,0,0-1.144-2.34c-.509,1.032-.97,1.938-1.406,2.857a1.177,1.177,0,0,1-1.015.727c-1.015.123-2.023.3-2.965.438.673.72,1.3,1.455,2,2.112a1.449,1.449,0,0,1,.466,1.5c-.192.938-.33,1.886-.514,2.958.9-.472,1.714-.847,2.473-1.316a1.639,1.639,0,0,1,1.921-.01c.76.469,1.578.843,2.484,1.317-.181-1.056-.32-1.985-.507-2.905a1.483,1.483,0,0,1,.477-1.546C2901.979,3748.089,2902.6,3747.355,2903.3,3746.625Z" transform="translate(-2849.991 -3733.01)" fill="#0f0140"/>
        <path id="Trazado_149690" data-name="Trazado 149690" d="M2559.028,3755.479c-.1-.044-.322-.117-.522-.222-1.161-.6-2.312-1.231-3.486-1.809a1,1,0,0,0-.774.006c-1.191.586-2.349,1.243-3.546,1.817a1.383,1.383,0,0,1-1.012.042c-.4-.165-.387-.594-.312-1.008.236-1.288.426-2.585.671-3.871a.768.768,0,0,0-.249-.809c-.924-.875-1.825-1.773-2.734-2.664-.3-.3-.647-.58-.474-1.085.168-.489.584-.545,1.019-.605,1.3-.178,2.595-.362,3.885-.583a.868.868,0,0,0,.529-.421c.6-1.162,1.174-2.34,1.747-3.517.177-.364.382-.673.84-.685.489-.012.706.316.892.7.566,1.159,1.146,2.312,1.7,3.476a.771.771,0,0,0,.692.487c1.318.164,2.637.344,3.942.586a1.2,1.2,0,0,1,.808.591,1.089,1.089,0,0,1-.3.9c-.933.973-1.914,1.9-2.888,2.836a.719.719,0,0,0-.25.75c.258,1.323.466,2.655.693,3.984C2560.013,3755.027,2559.712,3755.471,2559.028,3755.479Zm-9.8-8.815c.638.68,1.226,1.4,1.908,2.007a1.612,1.612,0,0,1,.552,1.74c-.2.888-.313,1.8-.483,2.809.611-.32,1.1-.583,1.593-.831,2.271-1.137,1.39-1.16,3.693,0,.5.251.992.51,1.581.813-.176-1.042-.291-1.96-.494-2.857a1.535,1.535,0,0,1,.525-1.637c.69-.633,1.3-1.352,1.959-2.048-.947-.142-1.927-.32-2.916-.424a1.275,1.275,0,0,1-1.139-.817c-.414-.9-.874-1.781-1.369-2.78-.5,1.012-.966,1.912-1.395,2.828a1.206,1.206,0,0,1-1.053.761C2551.178,3746.344,2550.179,3746.519,2549.223,3746.664Z" transform="translate(-2546.544 -3733.037)" fill="#0f0140"/>
        <path id="Trazado_149691" data-name="Trazado 149691" d="M2731.906,3860.4a8.388,8.388,0,1,1-8.354-8.423A8.391,8.391,0,0,1,2731.906,3860.4Zm-1.607-.02a6.78,6.78,0,1,0-6.819,6.766A6.78,6.78,0,0,0,2730.3,3860.383Z" transform="translate(-2695.589 -3831.979)" fill="#0f0140"/>
        <path id="Trazado_149692" data-name="Trazado 149692" d="M2884.419,4036.725c0,.625-.622,1.07-1.086.766a8.98,8.98,0,0,1-1.625-1.366.935.935,0,0,1,.049-.874c.131-.193.631-.375.775-.278a19.438,19.438,0,0,1,1.811,1.482C2884.414,4036.518,2884.405,4036.671,2884.419,4036.725Z" transform="translate(-2842.781 -3993.738)" fill="#0f0140"/>
      </g>
    </g>
  </g>
</svg>
