<svg xmlns="http://www.w3.org/2000/svg" width="77" height="77" viewBox="0 0 77 77">
  <g id="icon11" transform="translate(-623 -1998)">
    <rect id="Rectángulo_35446" data-name="Rectángulo 35446" width="77" height="77" transform="translate(623 1998)" fill="none"/>
    <g id="XSmEFb" transform="translate(-2673.598 1872.551)">
      <g id="Grupo_133662" data-name="Grupo 133662" transform="translate(3310.598 129.449)">
        <path id="Trazado_150856" data-name="Trazado 150856" d="M3357.888,190.957c.847.356,1.03.7.846,1.583a6.854,6.854,0,0,1-6.573,5.45q-17.388.043-34.775,0a6.84,6.84,0,0,1-6.775-6.617c-.012-.244-.012-.488-.012-.732q0-22.585,0-45.171a6.946,6.946,0,0,1,5.095-7.008,11.826,11.826,0,0,1,3.418-.215c.467.007.569-.134.558-.574-.029-1.244-.013-2.489-.01-3.734,0-1.023.336-1.366,1.353-1.368,2.733-.005,5.467-.011,8.2.007a.908.908,0,0,0,.92-.5,5.359,5.359,0,0,1,9.221,0,.91.91,0,0,0,.918.5c2.709-.019,5.418-.012,8.126-.009,1.115,0,1.43.321,1.432,1.439,0,1.2.026,2.392-.011,3.587-.016.5.1.665.629.653a13.094,13.094,0,0,1,2.917.118,6.939,6.939,0,0,1,5.519,6.445,1.126,1.126,0,0,1-.729,1.217c-.877.23-1.277,0-1.483-.872-.084-.356-.129-.721-.216-1.076a4.484,4.484,0,0,0-4.444-3.552q-17.239-.022-34.479,0a4.606,4.606,0,0,0-4.66,4.506c-.021.268-.018.537-.018.8q0,22.291,0,44.582a7.183,7.183,0,0,0,.114,1.456,4.578,4.578,0,0,0,4.667,3.842q10.578.015,21.157,0,6.369,0,12.738,0a4.652,4.652,0,0,0,4.975-3.673C3356.819,191.055,3357.126,190.812,3357.888,190.957Z" transform="translate(-3310.598 -129.449)"/>
        <path id="Trazado_150857" data-name="Trazado 150857" d="M3360.39,204.188a1.185,1.185,0,0,0-1.166,1.091,4.78,4.78,0,0,1-4.876,3.9q-17.1.011-34.2,0a4.818,4.818,0,0,1-4.992-4.987q-.014-22.847,0-45.7a4.8,4.8,0,0,1,4.987-4.982q17.1-.011,34.2,0a4.822,4.822,0,0,1,4.993,4.532c.1,1,.34,1.221,1.327,1.211-.292.18-.282.463-.28.758.009,1.251.006,2.5.007,3.755a2.366,2.366,0,0,0-.814,2.2c.034,2.413.041,4.827,0,7.24a1.89,1.89,0,0,0,.949,2.01,4.258,4.258,0,0,0-.127,1.8c-.029.9,0,1.8,0,2.7a2.112,2.112,0,0,0-.809,2.041q.032,7.92,0,15.839c0,.881.086,1.636.941,2.091a3.566,3.566,0,0,0-.129,1.649C3360.365,202.29,3360.388,203.239,3360.39,204.188Z" transform="translate(-3313.101 -142.68)" fill="#98bbe6"/>
        <path id="Trazado_150858" data-name="Trazado 150858" d="M3414.5,231.707c-.892-.078-1.17-.355-1.171-1.229q-.007-8.75-.007-17.5a1.1,1.1,0,0,1,1.048-1.242,1.149,1.149,0,0,1,1.01,1.3q-.01,8.713,0,17.424A1.116,1.116,0,0,1,3414.5,231.707Z" transform="translate(-3367.081 -174.693)"/>
        <path id="Trazado_150859" data-name="Trazado 150859" d="M3414.493,187.758c-.888-.081-1.167-.357-1.168-1.227-.007-2.967.01-5.935-.012-8.9a1.16,1.16,0,0,1,1.049-1.323,1.209,1.209,0,0,1,1.017,1.371c-.017,2.921-.012,5.842,0,8.763C3415.378,187.092,3415.185,187.583,3414.493,187.758Z" transform="translate(-3367.075 -155.212)"/>
        <path id="Trazado_150860" data-name="Trazado 150860" d="M3363.5,137.414a3.361,3.361,0,1,1-3.3-3.393A3.387,3.387,0,0,1,3363.5,137.414Z" transform="translate(-3335.99 -131.962)" fill="#edd98c"/>
        <path id="Trazado_150861" data-name="Trazado 150861" d="M3344.048,144.54c-2.845,0-5.552,0-8.258.005-.344,0-.539-.039-.525-.463.03-.9.022-1.8,0-2.707-.008-.354.118-.458.464-.456,2.243.012,4.488.007,6.732,0,.231,0,.438-.006.44.324A5.829,5.829,0,0,0,3344.048,144.54Z" transform="translate(-3324.161 -135.756)" fill="#9baeca"/>
        <path id="Trazado_150862" data-name="Trazado 150862" d="M3373.707,144.54a5.858,5.858,0,0,0,1.145-3.293c0-.331.212-.323.442-.322,2.244,0,4.488.007,6.731-.005.347,0,.471.1.463.457-.02.9-.027,1.806,0,2.707.014.425-.183.464-.526.462C3379.259,144.536,3376.552,144.54,3373.707,144.54Z" transform="translate(-3345.298 -135.756)" fill="#9baeca"/>
        <path id="Trazado_150863" data-name="Trazado 150863" d="M3359.8,183.867q0,11.237,0,22.474c0,2.249-1.058,3.3-3.319,3.3h-33.6a2.837,2.837,0,0,1-3.177-3.144q0-22.657,0-45.314a2.813,2.813,0,0,1,3.133-3.107q16.911,0,33.821,0a2.83,2.83,0,0,1,3.143,3.173Q3359.805,172.556,3359.8,183.867Z" transform="translate(-3315.605 -145.187)"/>
        <path id="Trazado_150864" data-name="Trazado 150864" d="M3360.26,186.291q0,11.275,0,22.551c0,1.1-.153,1.251-1.274,1.251h-33.46c-1.109,0-1.261-.151-1.261-1.264q0-22.477,0-44.955c0-1.1.146-1.246,1.273-1.246H3359c1.123,0,1.261.137,1.261,1.26Q3360.26,175.089,3360.26,186.291Z" transform="translate(-3318.113 -147.692)" fill="#f4f2f7"/>
        <path id="Trazado_150865" data-name="Trazado 150865" d="M3371.6,176.275c1.926,0,3.85,0,5.776,0,.816,0,1.25.354,1.26.992.011.664-.449,1.054-1.287,1.055q-5.738.007-11.477,0c-.838,0-1.306-.388-1.3-1.044s.445-1,1.325-1C3367.8,176.272,3369.7,176.275,3371.6,176.275Z" transform="translate(-3340.273 -155.195)"/>
        <path id="Trazado_150866" data-name="Trazado 150866" d="M3371.6,209.333c-1.925,0-3.85,0-5.775,0-.819,0-1.246-.351-1.252-1s.446-1.046,1.227-1.048q5.811-.014,11.623,0c.776,0,1.227.423,1.215,1.059s-.441.983-1.263.985C3375.445,209.336,3373.521,209.333,3371.6,209.333Z" transform="translate(-3340.273 -172.243)" fill="#010101"/>
        <path id="Trazado_150867" data-name="Trazado 150867" d="M3371.6,238.42q2.852,0,5.7,0c.893,0,1.322.324,1.332.988s-.45,1.057-1.29,1.059q-5.739.009-11.477,0c-.838,0-1.305-.4-1.3-1.052s.447-.993,1.328-.994Q3368.747,238.416,3371.6,238.42Z" transform="translate(-3340.273 -189.365)"/>
        <path id="Trazado_150868" data-name="Trazado 150868" d="M3371.585,189.78c-1.9,0-3.8,0-5.7,0-.861,0-1.312-.359-1.313-1.019s.465-1.028,1.31-1.029q5.739,0,11.477,0c.833,0,1.3.4,1.276,1.062-.02.632-.46.982-1.273.985C3375.436,189.783,3373.511,189.78,3371.585,189.78Z" transform="translate(-3340.274 -161.493)"/>
        <path id="Trazado_150869" data-name="Trazado 150869" d="M3371.609,220.877q-2.741,0-5.482,0a3.507,3.507,0,0,1-.726-.047.938.938,0,0,1-.82-1.04.924.924,0,0,1,.922-.945c.363-.032.73-.016,1.1-.016,3.581,0,7.163,0,10.744,0,.621,0,1.126.144,1.279.817.16.7-.359,1.227-1.239,1.233C3375.458,220.886,3373.534,220.877,3371.609,220.877Z" transform="translate(-3340.279 -178.59)" fill="#010101"/>
        <path id="Trazado_150870" data-name="Trazado 150870" d="M3371.675,249.86q2.814,0,5.629,0c.858,0,1.317.357,1.328,1.009s-.442,1.038-1.292,1.039q-5.739,0-11.478,0c-.847,0-1.3-.377-1.293-1.039s.473-1.007,1.329-1.009Q3368.787,249.855,3371.675,249.86Z" transform="translate(-3340.274 -195.655)"/>
        <path id="Trazado_150871" data-name="Trazado 150871" d="M3333.93,179.079a1.459,1.459,0,0,1,1.16.533c.478.434.869,1.271,1.418,1.227.484-.039.911-.8,1.36-1.252.95-.948,1.9-1.9,2.85-2.845.568-.563,1.15-.633,1.6-.212.5.465.464,1.054-.133,1.656q-2.4,2.415-4.816,4.813c-.669.664-1.144.66-1.814,0-.731-.719-1.459-1.441-2.172-2.177a.94.94,0,0,1-.211-1.14A.981.981,0,0,1,3333.93,179.079Z" transform="translate(-3322.952 -155.188)"/>
        <path id="Trazado_150872" data-name="Trazado 150872" d="M3342.441,208.252a1.258,1.258,0,0,1-.427.972c-1.636,1.635-3.264,3.278-4.908,4.9a1.045,1.045,0,0,1-1.708-.007q-1.072-1.045-2.117-2.118a1.036,1.036,0,1,1,1.438-1.47,12.661,12.661,0,0,1,1.08,1.088c.324.389.538.392.9.017,1.285-1.331,2.608-2.625,3.917-3.933a1.009,1.009,0,0,1,1.191-.281A1.059,1.059,0,0,1,3342.441,208.252Z" transform="translate(-3322.845 -172.273)"/>
        <path id="Trazado_150873" data-name="Trazado 150873" d="M3342.2,239.456a1.043,1.043,0,0,1-.389.8c-1.655,1.654-3.3,3.315-4.968,4.959a1.022,1.022,0,0,1-1.655-.011q-1.078-1.041-2.124-2.116a1.049,1.049,0,0,1-.1-1.6c.444-.417,1-.366,1.549.143.036.033.068.071.1.1.491.425.872,1.269,1.426,1.234.48-.03.919-.788,1.367-1.233q1.505-1.494,3-3a1.021,1.021,0,0,1,1.2-.241A.94.94,0,0,1,3342.2,239.456Z" transform="translate(-3322.72 -189.349)"/>
      </g>
    </g>
  </g>
</svg>
