<svg xmlns="http://www.w3.org/2000/svg" width="77" height="77" viewBox="0 0 77 77">
  <g id="icon10" transform="translate(-208 -1998)">
    <rect id="Rectángulo_35447" data-name="Rectángulo 35447" width="77" height="77" transform="translate(208 1998)" fill="none"/>
    <g id="riiWAx" transform="translate(-3225.074 1845.148)">
      <g id="Grupo_133660" data-name="Grupo 133660" transform="translate(3438.074 163.852)">
        <path id="Trazado_150826" data-name="Trazado 150826" d="M3504.311,205.441a2.618,2.618,0,0,1-2.841,1.816c-6.141-.035-12.282-.008-18.424-.028-.512,0-.635.135-.625.633.033,1.572.025,3.146,0,4.719-.006.389.078.538.491.5a12.544,12.544,0,0,1,1.357-.007,2.208,2.208,0,0,1,2.216,1.943,8.014,8.014,0,0,1,0,2.127,2.184,2.184,0,0,1-2.033,1.919c-.214.02-.43.017-.646.017H3458.6c-1.923,0-2.676-.826-2.763-2.751-.1-2.132.6-3.459,3.293-3.265.822.059.825.009.825-.849,0-1.487-.018-2.974.011-4.46.008-.435-.129-.526-.538-.522-2.37.019-4.74.006-7.111.012-.566,0-1.021-.147-1.186-.759-.212-.88.053-1.23,1.024-1.355q22.264-.006,44.528-.006c1.508,0,3.016-.023,4.524-.026.884,0,.947-.068.954-.962s-.005-1.81,0-2.714c0-.492-.2-.692-.694-.692-1.293,0-2.585.028-3.878-.013-.365.03-.732.017-1.1.017h-54.94c-1.327,0-1.328,0-1.328,1.353,0,.733-.009,1.465,0,2.2s.086.807.832.812c1.961.013,3.921,0,5.882.006a2.34,2.34,0,0,1,.955.122.862.862,0,0,1,.538,1.13,1.009,1.009,0,0,1-1.148.887c-2.286,0-4.571.01-6.856-.005a2.256,2.256,0,0,1-2.354-2.366q-.007-19.339,0-38.677a2.235,2.235,0,0,1,2.246-2.334c.151-.007.3,0,.452,0q19.986,0,39.97-.006c.669,0,1.263.055,1.466.836.264.538-.031.86-.45,1.111a2.486,2.486,0,0,1-1.316.264c-1.66,0-3.32,0-4.98,0h-33.889c-1.35,0-1.35,0-1.35,1.343q0,14.875,0,29.751c0,1.212,0,1.213,1.2,1.213h55.3c.28,0,.561-.009.84.018,1.248-.037,2.5,0,3.746-.018.784-.009.845-.062.847-.85q.009-5.814,0-11.629,0-9.238,0-18.477c0-.151,0-.3,0-.452-.016-.836-.074-.893-.944-.9-1.206-.013-2.411.023-3.617-.018-3.726.031-7.452.014-11.178.009a2.714,2.714,0,0,1-.89-.141c-.677-.235-.872-.634-.664-1.352a1.054,1.054,0,0,1,1.108-.707q8.019.008,16.037,0a2.4,2.4,0,0,1,2.3,1.735Z" transform="translate(-3438.074 -163.852)"/>
        <path id="Trazado_150827" data-name="Trazado 150827" d="M3486.958,165.332c0,.95.292,1.233,1.3,1.235q5.323.006,10.646,0c.257,0,.514.025.77.039a1.245,1.245,0,0,1,.205.859q.005,6.714,0,13.428a1.408,1.408,0,0,1-.153.811.212.212,0,0,1-.23.065.9.9,0,0,1-.372-.25c-.432-.451-1.033-.784-1.314-1.32-.319-.61.335-1.095.524-1.646a4.774,4.774,0,0,0-1.922-5.56,4.737,4.737,0,0,0-6.705,6.266c.032.057.065.112.1.167.486.822.48.814-.221,1.492a6.175,6.175,0,0,0-2.027,4.66c.018,1.681,0,3.362.006,5.043a1.976,1.976,0,0,0,2.194,2.206c3.167-.015,6.336.071,9.5-.048a.6.6,0,0,1,.43.1,1.285,1.285,0,0,1,.185.859q.009,2.373,0,4.746a1.111,1.111,0,0,1-.207.848c-.236.008-.472.022-.709.022q-28.061,0-56.122.018c-.641,0-.751-.17-.75-.772q.03-15.485.015-30.971c0-1.064,0-1.064,1.035-1.064h39.7c1.085,0,1.347-.2,1.462-1.109A11.456,11.456,0,0,0,3486.958,165.332Z" transform="translate(-3440.164 -164.622)" fill="#f1eef1"/>
        <path id="Trazado_150828" data-name="Trazado 150828" d="M3450.527,246.134c-.085-.779-.373-1.048-1.166-1.05-2.156-.005-4.312-.024-6.467.011-.64.011-.822-.209-.8-.823.041-1.163.023-2.328.005-3.492-.006-.356.091-.53.468-.478a2.416,2.416,0,0,0,.323,0h56.069c.237,0,.474.014.711.022a1.007,1.007,0,0,1,.212.788c.01,1.013.014,2.025,0,3.038-.012.82-.073.871-.889.871q-22.042,0-44.083,0a2.254,2.254,0,0,0-.769.044c-.77.184-.915.372-.921,1.194-.076-.072-.153-.207-.229-.206A9.657,9.657,0,0,0,3450.527,246.134Z" transform="translate(-3440.166 -203.63)" fill="#7a6e79"/>
        <path id="Trazado_150829" data-name="Trazado 150829" d="M3561.876,183.1c.185-.228.1-.5.1-.747q.01-7.2.006-14.4l4.324-.038c.319,0,.48.147.461.475-.007.129,0,.258,0,.388q0,15.608.015,31.216c0,.6-.156.745-.734.723-1.355-.051-2.713-.029-4.069-.037,0-1.934,0-3.869,0-5.8,0-.225.084-.481-.149-.658.015-.3.262-.436.445-.6a2.079,2.079,0,0,0,.687-1.612c0-1.7.025-3.4-.009-5.106a6.5,6.5,0,0,0-.788-2.907C3562.02,183.717,3561.761,183.465,3561.876,183.1Z" transform="translate(-3502.472 -165.966)" fill="#e0dce0"/>
        <path id="Trazado_150830" data-name="Trazado 150830" d="M3487.816,260.112c-.245-.12-.116-.343-.118-.51-.009-1.571.012-3.143-.01-4.714-.006-.428.076-.593.554-.592q8.751.025,17.5,0c.384,0,.575.047.566.513-.03,1.614-.02,3.229-.005,4.844,0,.345-.064.5-.455.489-1.1-.031-2.194-.023-3.292-.03-.24-.26-.208-.6-.271-.914a2.455,2.455,0,0,0-2.591-2.22c-3.663-.028-7.327,0-10.989-.016-.541,0-.725.223-.7.737.024.559.012,1.12,0,1.681A.957.957,0,0,1,3487.816,260.112Z" transform="translate(-3463.88 -210.916)" fill="#a59ba6"/>
        <path id="Trazado_150831" data-name="Trazado 150831" d="M3502.79,272.6c-1.315.008-2.629.023-3.943.024q-9.378,0-18.755,0c-.939,0-.939,0-.942-.92,0-.194.007-.388,0-.582-.014-.425.153-.614.611-.613q11.48.021,22.958.019a.5.5,0,0,1,.064.008A2.409,2.409,0,0,1,3502.79,272.6Z" transform="translate(-3459.447 -219.352)" fill="#7a6e79"/>
        <path id="Trazado_150832" data-name="Trazado 150832" d="M3487.971,262.793c0-.924.014-1.849-.007-2.773-.01-.4.088-.575.533-.573,3.848.014,7.7,0,11.544.014a2.742,2.742,0,0,1,2.673,2.884c.006.15,0,.3,0,.451Z" transform="translate(-3464.035 -213.597)" fill="#b4acb5"/>
        <path id="Trazado_150833" data-name="Trazado 150833" d="M3467.211,245.073c.248-.2.54-.1.81-.1q21.935-.008,43.87,0c.853,0,.854,0,.854-.822q0-1.907,0-3.812c1.444-.008,2.888,0,4.331-.03.382-.007.471.138.466.49-.016,1.228-.021,2.457,0,3.685.009.5-.221.621-.67.617-1.574-.013-3.147,0-4.72,0h-44.292C3467.64,245.094,3467.426,245.08,3467.211,245.073Z" transform="translate(-3453.236 -203.633)" fill="#685e67"/>
        <path id="Trazado_150834" data-name="Trazado 150834" d="M3528.431,272.6q0-1.032-.008-2.063c.881-.007,1.762-.006,2.644-.023.384-.007.529.18.566.541.149,1.479.078,1.566-1.4,1.563C3529.635,272.62,3529.033,272.609,3528.431,272.6Z" transform="translate(-3485.089 -219.357)" fill="#675d66"/>
        <path id="Trazado_150835" data-name="Trazado 150835" d="M3470.424,183.887a.973.973,0,0,1,.849,1.106c-.008,1.207.03,2.415-.016,3.621-.021.558.165.714.686.653a2.99,2.99,0,0,1,1.217.1,2.2,2.2,0,0,1,1.542,2.159q.029,3.492,0,6.984a2.179,2.179,0,0,1-2.213,2.288c-.753.038-1.509.013-2.263.013q-9.377,0-18.754,0a2.258,2.258,0,0,1-2.529-1.73,3.446,3.446,0,0,1-.065-.768q-.007-3.266,0-6.532a2.256,2.256,0,0,1,2.505-2.522c.919,0,.919,0,.919-.919q0-5.723,0-11.447c0-1.87.812-2.683,2.666-2.683q6.855,0,13.71,0c1.772,0,2.591.83,2.594,2.618,0,1.078-.013,2.156,0,3.234a1.02,1.02,0,0,1-.927,1.177c-.71.105-1.156-.282-1.213-1.1-.055-.792-.012-1.588-.02-2.382,0-.258-.006-.515,0-.773,0-.428-.2-.622-.628-.623-.537,0-1.073.014-1.61-.009-.472.016-.945.014-1.417,0-.444-.01-.614.194-.612.622.006.795,0,1.589,0,2.384a1.731,1.731,0,0,1-1.086,1.739,9.47,9.47,0,0,1-3.971,0,1.579,1.579,0,0,1-1.03-1.627c0-.818-.008-1.637,0-2.456.005-.467-.188-.658-.655-.651-.926.013-1.853,0-2.779.006-.739.007-.811.074-.812.823q-.011,5.494,0,10.988c0,.778.062.839.855.841,3.4.006,6.808,0,10.212,0,.409,0,.819-.018,1.227.014.492-.018.986,0,1.479-.009.774-.01.822-.055.827-.855.008-.965,0-1.93,0-2.9a1.676,1.676,0,0,1,.264-1.041C3469.645,183.884,3469.959,183.656,3470.424,183.887Z" transform="translate(-3443.694 -169.242)"/>
        <path id="Trazado_150836" data-name="Trazado 150836" d="M3548.648,189.054a7.552,7.552,0,0,1,1.271,4.575c-.039,1.335-.043,2.674,0,4.008a2.6,2.6,0,0,1-1.322,2.533,4.339,4.339,0,0,1-1.336.167c-2.779-.007-5.558,0-8.338,0a2.254,2.254,0,0,1-2.514-2.51q-.011-2.391,0-4.783a6.486,6.486,0,0,1,2.476-5.239c.388-.316.166-.461.007-.7a4.721,4.721,0,0,1-.171-5.352,4.636,4.636,0,0,1,4.752-2.355,4.685,4.685,0,0,1,4.143,3.4,4.851,4.851,0,0,1-.807,4.561A7.666,7.666,0,0,1,3548.648,189.054Z" transform="translate(-3489.244 -171.918)"/>
        <path id="Trazado_150837" data-name="Trazado 150837" d="M3506.444,194.427c0-.776-.009-1.552,0-2.328a1.707,1.707,0,0,1,1.905-1.923c.431-.008.864-.024,1.293.005.383.027.568-.074.515-.493a2.225,2.225,0,0,1,.024-.644,1.651,1.651,0,0,1,2.76-1.019c1.826,1.737,3.594,3.537,5.348,5.348a1.557,1.557,0,0,1-.042,2.226q-2.6,2.661-5.255,5.26a1.678,1.678,0,0,1-2.823-1.312c.061-.718-.216-.881-.854-.8a6.652,6.652,0,0,1-1.1.005,1.682,1.682,0,0,1-1.766-1.742c-.032-.861-.007-1.724-.007-2.586Z" transform="translate(-3473.648 -176.196)"/>
        <path id="Trazado_150838" data-name="Trazado 150838" d="M3482.961,178.274c.645-.008,1.29,0,1.933-.03.434-.02.558.172.552.576-.016,1.1-.01,2.193,0,3.289,0,.791.24,1.066,1.017,1.228a16.157,16.157,0,0,0,.076,2.649c-.8.078-1.087.379-1.092,1.192-.008,1.222-.015,2.445,0,3.667.007.377-.077.544-.493.519-.662-.041-1.327-.028-1.991-.038a.79.79,0,0,1-.187-.6c.031-.53-.266-.649-.72-.635-.511.014-1.024.014-1.535,0-.249-.009-.523.022-.684-.245.164-.318.473-.245.736-.25.8-.017,1.592-.005,2.388-.007.193,0,.387,0,.58-.014.423-.043.775-.2.8-.679.025-.453-.274-.695-.677-.829-.275-.092-.62-.011-.808-.324a2.057,2.057,0,0,1-.1-.825q0-3.863,0-7.726A1.225,1.225,0,0,1,3482.961,178.274Z" transform="translate(-3459.806 -171.34)" fill="#d78661"/>
        <path id="Trazado_150839" data-name="Trazado 150839" d="M3469.565,189.8a8.743,8.743,0,0,0,2.284.1c.819.031.819.008.82.849v.578l-9.114.03c-.992,0-1.983-.013-2.974.008-.376.008-.528-.076-.526-.5q.022-6.013,0-12.027c0-.444.15-.608.6-.6q1.809.035,3.621,0c.379-.007.475.129.467.485-.02.883.018,1.768-.013,2.651a1.638,1.638,0,0,0,.949,1.682c.037.078.007-.03.04.05.436,1.045.436,1.045,1.636,1.045.364,0,.73-.018,1.093,0,.558.034.92-.145.95-.761a.561.561,0,0,1,.163-.342,1.731,1.731,0,0,0,.922-1.762c-.038-.878,0-1.758-.013-2.637-.005-.3.077-.425.395-.411.6.026,1.2.022,1.8.03q0,4.776,0,9.552c-.267.261-.606.172-.92.182-.538.016-1.077-.009-1.615.011-.443.017-.881.082-1.074.562-.186.464.069.781.406,1.057A.391.391,0,0,1,3469.565,189.8Z" transform="translate(-3449.512 -171.339)" fill="#dd9879"/>
        <path id="Trazado_150840" data-name="Trazado 150840" d="M3453.152,217.269c-.238-.034-.229-.213-.229-.388q0-3.4,0-6.8c0-.125-.013-.262.143-.321a1.1,1.1,0,0,1,.631-.065q8.918-.006,17.836,0c.788,0,.857.05.864.83q.023,3,0,6.01c-.006.7-.1.788-.706.788q-9.08,0-18.159,0A.739.739,0,0,1,3453.152,217.269Z" transform="translate(-3445.801 -187.7)" fill="#3aa8f7"/>
        <path id="Trazado_150841" data-name="Trazado 150841" d="M3453.309,217.221l18.153-.016c.888,0,.888,0,.888-.915,0-1.981-.018-3.963.012-5.943.008-.523-.16-.649-.661-.647q-9.238.024-18.476.012c.175-.191.406-.1.609-.1,6.808,0,13.617,0,20.425-.012.58,0,.8.142.787.759-.034,2.09-.026,4.18,0,6.27.005.514-.178.67-.678.67q-10.31-.015-20.619-.006A2.81,2.81,0,0,1,3453.309,217.221Z" transform="translate(-3445.958 -187.651)" fill="#2897f5"/>
        <path id="Trazado_150842" data-name="Trazado 150842" d="M3473.865,179.67v-.064c0-1.524,0-1.513,1.516-1.412.3.02.354.12.349.383-.013.731,0,1.463,0,2.194,0,.2.017.395-.282.388-.43-.011-.86-.008-1.291,0-.234,0-.29-.125-.288-.326C3473.868,180.444,3473.865,180.057,3473.865,179.67Z" transform="translate(-3456.698 -171.295)" fill="#fadac0"/>
        <path id="Trazado_150843" data-name="Trazado 150843" d="M3475.671,188.275a5.566,5.566,0,0,1-.01.645c-.051.41-.237.663-.714.647-.731-.026-1.464-.006-2.2-.007-.889,0-.957-.07-.961-.956,0-.108,0-.215,0-.323A18.05,18.05,0,0,0,3475.671,188.275Z" transform="translate(-3455.618 -176.561)" fill="#d78761"/>
        <path id="Trazado_150844" data-name="Trazado 150844" d="M3547.367,215.039c-2.129.009-4.258.013-6.387.033-.4,0-.525-.176-.521-.546q.016-1.355,0-2.711c0-.292.068-.424.393-.421,2.172.021,4.344.024,6.517.034a.761.761,0,0,1,.194.528q.035,1.278,0,2.555A.762.762,0,0,1,3547.367,215.039Z" transform="translate(-3491.351 -188.591)" fill="#3aa8f7"/>
        <path id="Trazado_150845" data-name="Trazado 150845" d="M3540.6,202.95a4.566,4.566,0,0,1,2.272-3.789.473.473,0,0,1,.425-.03,5.707,5.707,0,0,0,2.719.311c.349.086.515.373.691.642a5.626,5.626,0,0,1,.866,2.278c.049.34.035.657-.458.654-2.133-.011-4.266.007-6.4-.012A.265.265,0,0,1,3540.6,202.95Z" transform="translate(-3491.423 -182.19)" fill="#f43346"/>
        <path id="Trazado_150846" data-name="Trazado 150846" d="M3545.329,188.98a2.9,2.9,0,0,1-1.316-3.736,2.939,2.939,0,0,1,3.655-1.675,3.4,3.4,0,0,1,.011,3.722,3.607,3.607,0,0,1-1.444,1.535A.9.9,0,0,1,3545.329,188.98Z" transform="translate(-3493.076 -174.034)" fill="#faafa1"/>
        <path id="Trazado_150847" data-name="Trazado 150847" d="M3540.6,202.827c2.089,0,4.178-.012,6.267.006.5,0,.633-.137.526-.645a6.7,6.7,0,0,0-1.378-2.869c.382-.135.774-.244,1.14-.413a.516.516,0,0,1,.535.068,4.805,4.805,0,0,1,2.419,3.54c.039.236.051.426-.283.425q-4.542-.006-9.085-.008C3540.691,202.931,3540.644,202.863,3540.6,202.827Z" transform="translate(-3491.424 -182.067)" fill="#de273a"/>
        <path id="Trazado_150848" data-name="Trazado 150848" d="M3547.017,189.141a3.292,3.292,0,0,0,2.348-2.061,4.023,4.023,0,0,0-.009-3.35,2.967,2.967,0,0,1,.756,5.3A2.741,2.741,0,0,1,3547.017,189.141Z" transform="translate(-3494.764 -174.195)" fill="#f59e8f"/>
        <path id="Trazado_150849" data-name="Trazado 150849" d="M3554.864,215.039v-3.611c.774-.009,1.549-.007,2.322-.033.319-.011.4.116.4.414-.015.9-.013,1.808,0,2.712,0,.374-.125.561-.523.549C3556.326,215.048,3555.595,215.048,3554.864,215.039Z" transform="translate(-3498.848 -188.592)" fill="#2897f5"/>
        <path id="Trazado_150850" data-name="Trazado 150850" d="M3513.795,201.611a8.927,8.927,0,0,0-2.689-.121c-.474-.008-.634-.115-.618-.61.038-1.162.031-2.325,0-3.487-.011-.462.093-.665.6-.627.6.045,1.2.006,1.807.012a1.915,1.915,0,0,0,.992-.228c.062-.023.139-.046.186-.008a12.071,12.071,0,0,1,2.169,2.18.659.659,0,0,1-.058.842,19.478,19.478,0,0,1-1.987,2.015A.281.281,0,0,1,3513.795,201.611Z" transform="translate(-3475.755 -180.852)" fill="#35cfb2"/>
        <path id="Trazado_150851" data-name="Trazado 150851" d="M3517.384,199.379a10.278,10.278,0,0,0,2.337-2.245c.229-.265.073-.555-.123-.753a24.457,24.457,0,0,0-2.118-2.063c.5-.534.214-1.227.4-2.085.609.671,1.094,1.237,1.614,1.771.841.866,1.706,1.709,2.556,2.566.139.14.38.261.123.517-1.417,1.409-2.829,2.823-4.3,4.3C3517.671,200.657,3518.019,199.888,3517.384,199.379Z" transform="translate(-3479.344 -178.62)" fill="#2cb49e"/>
        <path id="Trazado_150852" data-name="Trazado 150852" d="M3479.024,200.2a.942.942,0,0,1-.766-1.157c.12-.616.593-.787,1.162-.79.9-.005,1.805-.018,2.708-.028.235.012.471.009.7.039a.976.976,0,0,1,.918,1.044.925.925,0,0,1-1,.883C3481.509,200.2,3480.267,200.2,3479.024,200.2Z" transform="translate(-3458.972 -181.738)" fill="#010000"/>
        <path id="Trazado_150853" data-name="Trazado 150853" d="M3488.246,216.207a.924.924,0,0,1-.5.889.831.831,0,0,1-1.023-.076c-.352-.373-.565-.3-.918,0a.943.943,0,0,1-1.284-1.364c.279-.31.344-.482.018-.813a.867.867,0,0,1,.02-1.276.915.915,0,0,1,1.327-.054c.3.274.462.3.767.005a.947.947,0,0,1,1.353,1.32c-.321.339-.268.542.03.823A.692.692,0,0,1,3488.246,216.207Z" transform="translate(-3462.11 -189.555)"/>
        <path id="Trazado_150854" data-name="Trazado 150854" d="M3472.617,217.21a.862.862,0,0,1-.833-.5.885.885,0,0,1,.134-1.076c.29-.282.318-.453.015-.761a.91.91,0,0,1,.034-1.325.9.9,0,0,1,1.328,0c.288.28.439.255.719-.008a.95.95,0,0,1,1.346,1.342c-.256.278-.295.429-.011.719a.9.9,0,0,1,0,1.328.914.914,0,0,1-1.326.032c-.312-.309-.5-.278-.759.023A.781.781,0,0,1,3472.617,217.21Z" transform="translate(-3455.552 -189.558)"/>
        <path id="Trazado_150855" data-name="Trazado 150855" d="M3462.958,214.361c-.6.524-.325,1.163-.024,1.861.151.349-.136.709-.5.882a.867.867,0,0,1-1.028-.113c-.3-.3-.477-.35-.816-.024a.948.948,0,0,1-1.356-1.315c.277-.318.345-.482.021-.819a.865.865,0,0,1,.033-1.279.851.851,0,0,1,1.274-.075c.369.36.554.28.874-.024a.85.85,0,0,1,1.027-.077A.962.962,0,0,1,3462.958,214.361Z" transform="translate(-3448.959 -189.545)"/>
      </g>
    </g>
  </g>
</svg>
