<svg xmlns="http://www.w3.org/2000/svg" width="77" height="77" viewBox="0 0 77 77">
  <g id="icon13" transform="translate(-208 -2481)">
    <rect id="Rectángulo_35450" data-name="Rectángulo 35450" width="77" height="77" transform="translate(208 2481)" fill="none"/>
    <g id="Grupo_133664" data-name="Grupo 133664" transform="translate(-3460.894 1358.814)">
      <path id="Trazado_150874" data-name="Trazado 150874" d="M3674.008,1211.395a8.444,8.444,0,0,1,6.824-7.108c1.014-.19,2.03-.367,3.045-.555a1.818,1.818,0,0,0,1.555-1.057.57.57,0,0,0-.225-.825,8.909,8.909,0,0,1-4.176-8.032,46.437,46.437,0,0,1,.112-5.865,8.96,8.96,0,0,1,17.831,1.045c.039,1.781.047,3.564,0,5.344a8.8,8.8,0,0,1-4.11,7.47c-.3.2-.541.389-.282.777a3.771,3.771,0,0,0,2.275,1.065,15.685,15.685,0,0,1,4.7,1.231,8.568,8.568,0,0,1,4.751,7.683c.042,1.055,0,2.113.009,3.169.005.839.055.89.907.89q8.351,0,16.7,0,6.866,0,13.732,0c.983,0,1-.018,1-.991q0-5.315,0-10.631c0-.86-.048-.909-.883-.912q-2.244-.009-4.489,0c-.758,0-.818.067-.821.841-.007,2.245,0,4.49,0,6.735a2.883,2.883,0,0,1-.14,1.107,1.546,1.546,0,0,1-1.451,1.068c-1.562.042-3.125.059-4.686-.006a1.591,1.591,0,0,1-1.625-1.506,1.62,1.62,0,0,1,1.638-1.5c.834-.059,1.672-.026,2.507-.018.492.005.717-.166.712-.689-.017-1.782-.014-3.564,0-5.346,0-.52-.227-.69-.716-.689q-7.524,0-15.048,0c-.535,0-.741.2-.736.738q.026,2.64,0,5.281c0,.5.189.717.7.708.726-.013,1.452-.022,2.178.005a1.528,1.528,0,1,1-.028,3.034c-1.342.026-2.685.032-4.026,0a1.693,1.693,0,0,1-1.862-1.906c-.017-2.311,0-4.621-.007-6.932,0-.891-.035-.921-.933-.924-1.5,0-2.992,0-4.488,0a2.566,2.566,0,0,1-1.036-.16,1.173,1.173,0,0,1-.761-1.576,1.331,1.331,0,0,1,1.427-1.1c.682-.016,1.366-.036,2.045.008.458.029.523-.147.528-.553a25.868,25.868,0,0,1,.1-3.821,7.313,7.313,0,0,1,2.022-4.056,1.2,1.2,0,0,0,.367-.925c-.008-4.753-.062-9.506.02-14.258a11.773,11.773,0,0,1,9.957-11.292,12.017,12.017,0,0,1,13.028,6.8,11.74,11.74,0,0,1,1.057,5.117c-.011,4.533,0,9.065-.012,13.6a1.279,1.279,0,0,0,.392.98,7.353,7.353,0,0,1,2.093,4.917c.043.966.039,1.937.006,2.9-.015.447.081.6.563.586,1.165-.039,2.332.012,3.5-.021a1.6,1.6,0,0,1,1.761,1.065v16.113a1.117,1.117,0,0,1-1.056,1.057h-65.5a1.117,1.117,0,0,1-1.057-1.057v-6.339C3674.051,1211.87,3673.887,1211.609,3674.008,1211.395Z" transform="translate(0 -24.666)"/>
      <path id="Trazado_150875" data-name="Trazado 150875" d="M3709.682,1127.186a5.816,5.816,0,0,1,3.161,1.62,4.85,4.85,0,0,1,1.421,3.25c.05,2.221.12,4.451-.017,6.665a5.009,5.009,0,0,1-4.619,4.778c-.5.062-.651.207-.619.7.045.679,0,1.364.015,2.046a1.373,1.373,0,0,1-.8,1.457,1.41,1.41,0,0,1-1.657-.451c-1.037-1.049-2.1-2.068-3.116-3.139a1.507,1.507,0,0,0-1.374-.554,3.939,3.939,0,0,1-.856,0c-.334-.033-.4.109-.394.412.018.88.015,1.761,0,2.641a5.234,5.234,0,0,1-5.423,5.4q-4.028.024-8.054,0a1.16,1.16,0,0,0-.919.38q-2.383,2.425-4.8,4.815c-.767.761-1.685.758-2.209.02a1.634,1.634,0,0,1-.251-1q.008-1.882,0-3.763c0-.2.095-.427-.276-.461-2.83-.262-4.418-1.891-5-4.6v-8.452a4.855,4.855,0,0,1,2.817-4.211,5.535,5.535,0,0,1,2.677-.595c2.309-.01,4.618,0,6.927,0,.817,0,.865-.043.858-.855a6.559,6.559,0,0,1,.572-3.212,4.855,4.855,0,0,1,4.24-2.877Z"/>
      <path id="Trazado_150876" data-name="Trazado 150876" d="M3673.894,1308.244a1.844,1.844,0,0,0,1.057,1.057C3673.894,1309.3,3673.894,1309.3,3673.894,1308.244Z" transform="translate(0 -114.492)" fill="#e8e8e8"/>
      <path id="Trazado_150877" data-name="Trazado 150877" d="M3854.929,1309.3a1.843,1.843,0,0,0,1.056-1.057C3855.985,1309.3,3855.985,1309.3,3854.929,1309.3Z" transform="translate(-114.478 -114.492)" fill="#e8e8e8"/>
      <path id="Trazado_150878" data-name="Trazado 150878" d="M3674.008,1289.135a.737.737,0,0,1-.114.684v-.661A.136.136,0,0,1,3674.008,1289.135Z" transform="translate(0 -102.406)" fill="#505050"/>
      <path id="Trazado_150879" data-name="Trazado 150879" d="M3760.3,1274.538c.259,1.015.633,1.318,1.659,1.322q2.113.008,4.226,0c1.171,0,1.654-.479,1.656-1.64.006-2.509.016-5.019-.011-7.528,0-.486.1-.627.607-.617,1.826.034,3.654.029,5.48,0,.442-.006.539.128.537.55q-.024,5.943,0,11.886c0,.46-.156.527-.56.526q-15.814-.015-31.627,0c-.45,0-.593-.092-.587-.568a33.952,33.952,0,0,0-.064-4.616c-.514-4.091-3.3-6.79-7.518-7.5-.91-.153-1.817-.326-2.72-.511a1.407,1.407,0,0,1-1.218-1.056l7.363-.02c.258,0,.531.047.709-.214.018,1.055.473,1.526,1.525,1.532,1.8.01,3.6.017,5.4-.008.417-.006.507.117.5.515-.019,2.5-.011,5.009-.009,7.513,0,1.3.451,1.753,1.737,1.756s2.548,0,3.822,0c1.091,0,1.453-.284,1.721-1.323a4.565,4.565,0,0,1,2.328-.137c.288.086.355.358.487.578a1.094,1.094,0,0,0,1.995.042c.141-.212.178-.5.462-.609A3.6,3.6,0,0,1,3760.3,1274.538Z" transform="translate(-35.584 -86.864)" fill="#fcb38a"/>
      <path id="Trazado_150880" data-name="Trazado 150880" d="M3694.5,1285.231c-4.267,0-8.534-.008-12.8.011-.5,0-.672-.1-.659-.636.035-1.488.008-1.488,1.51-1.488,2.419,0,4.839,0,7.259,0,.9,0,1.454-.4,1.552-1.106.129-.916-.462-1.526-1.52-1.531-2.244-.01-4.487,0-6.731,0h-1.187c-.931,0-.952-.006-.681-.935a5.807,5.807,0,0,1,4.76-4.3,35.227,35.227,0,0,0,4.123-.854,1.064,1.064,0,0,1,.643.072c1.056.3,2.114.59,3.166.9a2.006,2.006,0,0,0,1.163.006,13.187,13.187,0,0,1,3.678-.931,26.349,26.349,0,0,1,3.669.694,6.823,6.823,0,0,1,3.685,1.606,5.822,5.822,0,0,1,1.863,4.356c.011,1.166-.023,2.333.014,3.5.016.5-.107.658-.639.655C3703.075,1285.221,3698.786,1285.231,3694.5,1285.231Z" transform="translate(-4.516 -93.065)" fill="#6f89f1"/>
      <path id="Trazado_150881" data-name="Trazado 150881" d="M3713.082,1220.656a15.109,15.109,0,0,1-.378,4.423,6.356,6.356,0,0,1-9.87,2.849,6.14,6.14,0,0,1-2.39-4.657,44.14,44.14,0,0,1,.073-6.327,6.317,6.317,0,0,1,12.564.986C3713.1,1218.766,3713.082,1219.6,3713.082,1220.656Z" transform="translate(-16.739 -53.339)" fill="#868690"/>
      <path id="Trazado_150882" data-name="Trazado 150882" d="M3782.019,1246.856c-3.76,0-7.521-.009-11.281.012-.481,0-.651-.1-.62-.606.048-.789.006-1.583.014-2.375a5,5,0,0,1,4.1-5.094c.75-.167,1.52-.248,2.261-.441a.651.651,0,0,1,.807.33c1.132,1.568,2.279,3.125,3.427,4.682.846,1.147,1.738,1.149,2.582,0q1.72-2.336,3.424-4.684a.654.654,0,0,1,.806-.332c.87.222,1.773.319,2.641.549a4.9,4.9,0,0,1,3.71,4.651c.039.922-.012,1.848.024,2.77.017.435-.116.546-.545.543C3789.583,1246.849,3785.8,1246.856,3782.019,1246.856Z" transform="translate(-60.845 -70.274)" fill="#51b9f1"/>
      <path id="Trazado_150883" data-name="Trazado 150883" d="M3795.71,1188.284c0,2.156-.011,4.312.009,6.468,0,.479-.076.582-.583.454-1.127-.284-2.277-.475-3.42-.694a1.8,1.8,0,0,1-.732-.272c-.6-.426-.594-.811-.011-1.229a7.986,7.986,0,0,0,3.5-6.343c.077-1.514.023-3.035.026-4.553a1.363,1.363,0,0,0-.723-1.246c-1.476-.869-2.946-1.751-4.433-2.6a1.277,1.277,0,0,0-1.785.272,6.672,6.672,0,0,1-5.493,2.2c-.857-.03-1.716-.02-2.573,0a1.219,1.219,0,0,0-1.331,1.188,27.981,27.981,0,0,0,.213,6.247,8.014,8.014,0,0,0,3.186,4.771c.217.161.645.191.557.616a1.067,1.067,0,0,1-.834.847c-.768.183-1.548.313-2.323.467a9.169,9.169,0,0,0-1.414.3c-.588.219-.632-.022-.63-.518.016-3.278,0-6.556.013-9.834a18.564,18.564,0,0,1,.279-4.659,9.419,9.419,0,0,1,9.281-6.9c4.744.237,8.4,3.346,9.089,7.759a43.63,43.63,0,0,1,.126,5.533C3795.723,1187.14,3795.71,1187.712,3795.71,1188.284Z" transform="translate(-65.148 -29.138)" fill="#f3b75e"/>
      <path id="Trazado_150884" data-name="Trazado 150884" d="M3798.468,1198.76a6.872,6.872,0,0,1-.656,3.633,5.537,5.537,0,0,1-10.426-2.4c-.029-.857.023-1.717-.024-2.573-.027-.5.175-.563.6-.551a11.88,11.88,0,0,0,4.173-.437,8.4,8.4,0,0,0,2.916-1.618.549.549,0,0,1,.789-.064c.74.472,1.5.908,2.269,1.337a.593.593,0,0,1,.363.614C3798.449,1197.29,3798.468,1197.885,3798.468,1198.76Z" transform="translate(-71.751 -42.635)" fill="#fdccad"/>
      <path id="Trazado_150885" data-name="Trazado 150885" d="M3796.85,1230.634a6.6,6.6,0,0,0,2.487,0c.273-.053.464.005.552.3a1.017,1.017,0,0,0,.215.474c.76.658.394,1.2-.1,1.8-.584.711-1.1,1.475-1.638,2.227-.19.268-.318.294-.522.01-.7-.982-1.42-1.953-2.132-2.927-.089-.122-.234-.246-.112-.4a6.321,6.321,0,0,0,.829-1.411C3796.5,1230.544,3796.7,1230.636,3796.85,1230.634Z" transform="translate(-76.93 -65.4)" fill="#fcb38a"/>
      <path id="Trazado_150886" data-name="Trazado 150886" d="M3714.1,1267.848c-.661-.187-1.3-.362-1.927-.546-.255-.075-.159-.244-.114-.422.066-.265.2-.364.468-.3a7.842,7.842,0,0,0,2.231.117,5.22,5.22,0,0,0,.912-.12c.329-.076.41.108.5.357.121.335-.1.363-.322.423C3715.26,1267.519,3714.67,1267.688,3714.1,1267.848Z" transform="translate(-24.1 -88.132)" fill="#fbcbac"/>
      <path id="Trazado_150887" data-name="Trazado 150887" d="M3686.338,1170.1c0-.932.014-1.681,0-2.428a1.362,1.362,0,0,0-1.479-1.484c-.439-.013-.881.011-1.32-.011a2.519,2.519,0,0,1-2.461-2.453q-.06-3.729,0-7.458a2.547,2.547,0,0,1,2.762-2.492q7.689-.01,15.378,0c.33,0,.661-.009.99.006a2.533,2.533,0,0,1,2.5,2.491q.055,3.7,0,7.393a2.532,2.532,0,0,1-2.665,2.521c-2.882.014-5.764.025-8.646-.009a2.487,2.487,0,0,0-1.978.836C3688.45,1168.02,3687.441,1168.991,3686.338,1170.1Z" transform="translate(-4.521 -16.806)" fill="#a5d96f"/>
      <path id="Trazado_150888" data-name="Trazado 150888" d="M3734,1147.8c-.581-.583-1.132-1.11-1.651-1.667a1.987,1.987,0,0,0-1.637-.689c-.68.031-1.506.237-2.006-.066s-.132-1.2-.222-1.835a5.235,5.235,0,0,0-5.314-4.692q-2.476-.032-4.952.007c-.441.007-.571-.124-.536-.549s0-.88.01-1.32a2.569,2.569,0,0,1,2.639-2.626c2-.021,4.006-.005,6.009-.006q5.051,0,10.1,0a2.621,2.621,0,0,1,2.9,2.895q.007,2.641,0,5.283a2.623,2.623,0,0,1-2.884,2.916h-.2c-1.889,0-2.129.231-2.2,2.091A1.81,1.81,0,0,1,3734,1147.8Z" transform="translate(-27.689 -4.534)" fill="#7cd2f7"/>
      <path id="Trazado_150889" data-name="Trazado 150889" d="M3798.849,1289.459c.233-.878.707-1.331,1.371-1.31s1.084.454,1.3,1.31c-.216.859-.647,1.293-1.3,1.314S3799.081,1290.34,3798.849,1289.459Z" transform="translate(-79.016 -101.785)" fill="#010101"/>
      <path id="Trazado_150890" data-name="Trazado 150890" d="M3717.214,1292.361a1.331,1.331,0,0,1-1.326,1.283,1.313,1.313,0,0,1,.057-2.625A1.329,1.329,0,0,1,3717.214,1292.361Z" transform="translate(-25.744 -103.6)" fill="#010101"/>
      <path id="Trazado_150891" data-name="Trazado 150891" d="M3798.26,1215.12a2.765,2.765,0,0,1-1.889-.756,1.312,1.312,0,0,1-.212-1.774,1.241,1.241,0,0,1,1.737-.317.7.7,0,0,0,.833,0,1.23,1.23,0,0,1,1.733.324,1.3,1.3,0,0,1-.211,1.771A2.867,2.867,0,0,1,3798.26,1215.12Z" transform="translate(-77.154 -53.663)"/>
      <path id="Trazado_150892" data-name="Trazado 150892" d="M3793.432,1205.22a1.282,1.282,0,0,1-1.312,1.264,1.308,1.308,0,0,1-1.29-1.3,1.335,1.335,0,0,1,1.355-1.3A1.3,1.3,0,0,1,3793.432,1205.22Z" transform="translate(-73.945 -48.498)" fill="#010100"/>
      <path id="Trazado_150893" data-name="Trazado 150893" d="M3808.386,1206.474a1.278,1.278,0,0,1-1.319-1.255,1.316,1.316,0,0,1,1.3-1.351,1.346,1.346,0,0,1,1.3,1.3A1.3,1.3,0,0,1,3808.386,1206.474Z" transform="translate(-84.212 -48.489)" fill="#010100"/>
      <path id="Trazado_150894" data-name="Trazado 150894" d="M3694.685,1163.224c-1.629,0-3.257.008-4.885,0a1.329,1.329,0,1,1,0-2.633c1.937-.014,3.873,0,5.81,0,1.386,0,2.773-.021,4.159.007a1.318,1.318,0,0,1,1.269,1.946,1.449,1.449,0,0,1-1.4.691C3697.986,1163.219,3696.335,1163.224,3694.685,1163.224Z" transform="translate(-9.103 -21.114)"/>
      <path id="Trazado_150895" data-name="Trazado 150895" d="M3693.966,1173.519c1.408,0,2.817-.02,4.225.006a1.317,1.317,0,1,1,.05,2.629c-2.861.007-5.722.016-8.583-.005a1.314,1.314,0,0,1-1.369-1.317,1.332,1.332,0,0,1,1.386-1.3C3691.1,1173.5,3692.536,1173.52,3693.966,1173.519Z" transform="translate(-9.103 -29.294)"/>
      <path id="Trazado_150896" data-name="Trazado 150896" d="M3726.578,1173.555a1.312,1.312,0,1,1-1.293,1.332A1.363,1.363,0,0,1,3726.578,1173.555Z" transform="translate(-32.497 -29.321)" fill="#010100"/>
    </g>
  </g>
</svg>
