<svg xmlns="http://www.w3.org/2000/svg" width="77" height="77" viewBox="0 0 77 77">
  <g id="icon2" transform="translate(-588 -523)">
    <rect id="Rectángulo_35440" data-name="Rectángulo 35440" width="77" height="77" transform="translate(588 523)" fill="none"/>
    <g id="Grupo_133646" data-name="Grupo 133646" transform="translate(-2461.829 -728.437)">
      <path id="Trazado_150711" data-name="Trazado 150711" d="M3311.116,1485.741a.175.175,0,0,1,.024.019l.01-.019Z" transform="translate(-216.684 -199.453)"/>
      <path id="Trazado_150712" data-name="Trazado 150712" d="M3116.47,1323.135q-.494-6.227-1.02-12.451c-.17-2.029-.247-4.075-.57-6.08a12.544,12.544,0,0,0-11.371-10.473c-2.891-.271-5.769-.687-8.659-.979-.753-.076-.567-.626-.726-1.025-.167-.419-.013-.653.369-.874a11.9,11.9,0,0,0,4.473-4.537.924.924,0,0,1,.97-.532c1.19.027,2.381.01,3.572.009,1.337,0,1.672-.33,1.674-1.646,0-.87.007-1.74,0-2.61a.586.586,0,0,1,.353-.643,3.315,3.315,0,0,0,1.9-3.162c.009-1.419.006-2.839,0-4.258a3.347,3.347,0,0,0-1.945-3.208.636.636,0,0,1-.406-.625,12.218,12.218,0,0,0-.466-2.836,16.8,16.8,0,0,0-12.256-12.211c-.838-.237-1.7-.374-2.558-.557h-.412c-.091.187-.183.159-.274,0H3087.2c-.091.159-.183.187-.274,0h-.55a4.739,4.739,0,0,1-1.559.33,17.006,17.006,0,0,0-13.583,15.275.66.66,0,0,1-.407.624,3.31,3.31,0,0,0-1.938,3.14c-.008,1.465-.031,2.931.006,4.4a3.35,3.35,0,0,0,3.547,3.451c.938.012,1.878.02,2.815-.006.382-.01.495.119.549.492a12.163,12.163,0,0,0,6.021,9.1c.708.426.272.889.277,1.353.006.483-.352.512-.7.552-2.885.334-5.767.713-8.657.993a12.632,12.632,0,0,0-10.949,8.858,26.224,26.224,0,0,0-.744,5.631q-.612,7.251-1.2,14.5c-.1,1.266.281,1.65,1.558,1.65h53.5C3116.182,1324.777,3116.57,1324.391,3116.47,1323.135Zm-22.193-25.545a1.632,1.632,0,0,0,.6-1.76c-.09-.31-.067-.482.336-.384.507.123,1.239-.087,1.491.282.24.351-.156.972-.28,1.473-.656,2.656-1.319,5.31-2.017,8.118-1.187-1.426-2.289-2.759-3.4-4.083-.245-.292.019-.405.163-.551C3092.2,1299.647,3093.215,1298.594,3094.278,1297.59Zm-3.474.25c-.769.781-1.559,1.542-2.319,2.331-.245.255-.4.286-.647.006-.374-.428-.783-.824-1.178-1.234-.9-.881-1.789-1.768-2.7-2.638a.654.654,0,0,1-.174-.682c.184-.9.357-1.793.542-2.688.048-.232.043-.534.446-.41a13.152,13.152,0,0,0,5.164.387c.29-.061.58-.117.868-.183,1.08-.247,1.087-.25,1.294.807a5.813,5.813,0,0,1,.368,2.461C3092.256,1296.713,3091.394,1297.24,3090.8,1297.839Zm12.1-14.234c-.03.265-.115.357-.373.346-.342-.015-.684,0-1.025,0-1.3,0-1.3,0-1.069-1.278a2.9,2.9,0,0,0,.083-.539c0-.39.176-.534.547-.478a.878.878,0,0,0,.136,0C3103.094,1281.641,3103.12,1281.678,3102.9,1283.6Zm.946-11.021a1.207,1.207,0,0,1,1.332,1.319q.034,2.088,0,4.177a1.208,1.208,0,0,1-1.322,1.331c-.912.027-1.826-.005-2.739.013-.359.007-.479-.125-.473-.478.016-.981.006-1.963.005-2.945,0-.959.016-1.918-.008-2.876-.01-.4.1-.57.533-.556C3102.066,1272.6,3102.957,1272.562,3103.847,1272.584Zm-28.686,6.842c-.89-.022-1.781.011-2.671-.012a1.225,1.225,0,0,1-1.356-1.368q-.028-2.054,0-4.109a1.223,1.223,0,0,1,1.368-1.353c.89-.019,1.781.013,2.671-.012.4-.011.5.148.5.521-.02.981-.007,1.963-.007,2.945,0,.959-.014,1.918.007,2.876C3075.68,1279.3,3075.549,1279.435,3075.161,1279.426Zm.641-9.606c-.031.354-.124.51-.527.523-1.92.06-1.92.074-1.557-1.838a14.805,14.805,0,0,1,12.218-11.618c.752-.1,1.5-.106,2.193-.168a14.74,14.74,0,0,1,14.609,12.665c.022.158.057.315.09.472.071.337-.006.511-.409.485a5.164,5.164,0,0,1-1.628-.059c-.535-.239-.309-.965-.424-1.473a12.487,12.487,0,0,0-24.1-1.126A9.646,9.646,0,0,0,3075.8,1269.82Zm18.011-6.81a8.112,8.112,0,0,1,2.2,1.944,10,10,0,0,1,2.226,4.938c.041.257.1.466-.27.455-2.35-.071-4.712.2-7.05-.243a.424.424,0,0,1-.38-.222A10.287,10.287,0,0,0,3093.813,1263.01Zm-9.507,7.261c-1.077.089-2.149.039-3.058.073-1.012,0-1.859-.018-2.706.007-.434.013-.522-.09-.454-.544a10.165,10.165,0,0,1,10.17-8.535,11.191,11.191,0,0,1,2.775.381.621.621,0,0,1,.552.706A7.989,7.989,0,0,1,3084.306,1270.272Zm-2.718,18.039a9.682,9.682,0,0,1-3.61-7.551c-.041-2.564-.007-5.128-.026-7.692,0-.395.122-.5.5-.495,1.625.019,3.251-.007,4.876.012a10.463,10.463,0,0,0,4.465-.9.706.706,0,0,1,.648-.047,10.466,10.466,0,0,0,4.109.958c1.784,0,3.568,0,5.352-.021.378,0,.454.141.452.48-.02,2.791-.026,5.582-.037,8.374,0,.023,0,.046,0,.069a4.623,4.623,0,0,1-.5,2.18c-.467.65-1.349.23-2.04.252a13.622,13.622,0,0,1-3.259-.074,3.792,3.792,0,0,0-3.968-2.2,16.959,16.959,0,0,0-2.121.083,3.38,3.38,0,0,0,.057,6.671,13.339,13.339,0,0,0,3.078.038,3.5,3.5,0,0,0,2.941-2.155h0a10.9,10.9,0,0,1,2.563-.093c.471-.023.944,0,1.584,0a9.955,9.955,0,0,1-6.292,4.256A9.668,9.668,0,0,1,3081.588,1288.311Zm7.873-2.159a21.03,21.03,0,0,1-2.6,0,1.007,1.007,0,0,1-.921-1.152,1,1,0,0,1,.985-1.026c.408-.038.822-.007,1.233-.008s.825-.03,1.233.007a1.1,1.1,0,0,1,.072,2.178Zm-9.083,9.376c.34-.042.771-.213,1-.069.284.18-.02.609-.014.933a1.425,1.425,0,0,0,.5,1.01c1.089,1.079,2.164,2.17,3.255,3.246.233.23.385.387.1.719-1.047,1.21-2.059,2.45-3.087,3.677a1.283,1.283,0,0,1-.192.157c-.043-.035-.067-.044-.071-.059-.787-3.141-1.573-6.283-2.373-9.482C3079.8,1295.615,3080.088,1295.564,3080.377,1295.528Zm32.92,26.965c-1.235-.007-2.47-.022-3.7-.033-1.327.012-2.654.007-3.979.045-.55.016-.428-.341-.428-.637q0-6.009,0-12.017c0-.97,0-.97-.987-.97-1.305,0-1.305,0-1.305,1.283,0,3.868-.016,7.737.016,11.6,0,.624-.181.743-.766.742q-14.009-.028-28.018,0c-.577,0-.718-.156-.714-.722.024-4.074,0-8.149.024-12.223,0-.526-.117-.709-.678-.7-1.624.027-1.625,0-1.625,1.652,0,3.754-.011,7.508.012,11.262,0,.547-.1.742-.7.734-2.541-.036-5.082-.028-7.622,0-.5,0-.679-.087-.63-.635.41-4.625.793-9.253,1.185-13.881a17.948,17.948,0,0,1,.6-4.337,10.042,10.042,0,0,1,8.59-7.185c1.357-.2,2.726-.32,4.083-.518.479-.07.614.1.721.534.92,3.748,1.871,7.489,2.8,11.235.128.517.314.974.88,1.114a1.291,1.291,0,0,0,1.363-.578c1.429-1.728,2.873-3.444,4.3-5.173.241-.292.4-.467.78-.121a.958.958,0,0,0,1.373-.032c.314-.289.455-.18.679.091,1.412,1.713,2.844,3.409,4.258,5.12.383.464.79.854,1.447.7.636-.154.781-.686.919-1.24.918-3.7,1.861-7.4,2.764-11.1.12-.492.307-.625.786-.531.627.123,1.267.18,1.9.266,3.043.159,5.883.847,8.12,3.109a10.22,10.22,0,0,1,3.016,6.517q.661,7.863,1.331,15.724C3114.169,1322.495,3114.182,1322.5,3113.3,1322.493Z" transform="translate(0)"/>
      <path id="Trazado_150713" data-name="Trazado 150713" d="M3256.842,1254.436h-.275A.178.178,0,0,0,3256.842,1254.436Z" transform="translate(-169.647)" fill="#696969"/>
      <path id="Trazado_150714" data-name="Trazado 150714" d="M3256.842,1254.436a.178.178,0,0,1-.275,0C3256.659,1254.623,3256.75,1254.6,3256.842,1254.436Z" transform="translate(-169.647)" fill="#696969"/>
      <path id="Trazado_150715" data-name="Trazado 150715" d="M3272.8,1254.436h-.274A.177.177,0,0,0,3272.8,1254.436Z" transform="translate(-183.412)" fill="#696969"/>
      <path id="Trazado_150716" data-name="Trazado 150716" d="M3272.8,1254.436a.177.177,0,0,1-.274,0C3272.622,1254.6,3272.714,1254.623,3272.8,1254.436Z" transform="translate(-183.412)" fill="#696969"/>
      <path id="Trazado_150717" data-name="Trazado 150717" d="M3123.539,1572.529c-.172-2.2-.376-4.4-.536-6.595a11.609,11.609,0,0,0-2.482-6.542,11.4,11.4,0,0,0-3.668-3.031c-.16-.085-.313-.182-.47-.274-.634-.086-1.274-.144-1.9-.266-.48-.094-.667.039-.786.531-.9,3.706-1.846,7.4-2.764,11.1-.137.554-.282,1.086-.919,1.24-.657.159-1.064-.231-1.447-.7-1.414-1.711-2.846-3.407-4.258-5.12-.223-.271-.365-.38-.679-.091a.958.958,0,0,1-1.373.032c-.376-.346-.539-.171-.78.121-1.428,1.729-2.872,3.445-4.3,5.173a1.29,1.29,0,0,1-1.363.578c-.566-.14-.751-.6-.88-1.113-.932-3.746-1.883-7.486-2.8-11.235-.108-.438-.243-.6-.721-.534-1.357.2-2.726.316-4.083.518a10.042,10.042,0,0,0-8.59,7.185,17.936,17.936,0,0,0-.6,4.337c-.392,4.627-.775,9.255-1.185,13.881-.049.548.134.639.63.635,2.541-.023,5.082-.031,7.622,0,.6.008.7-.186.7-.734-.024-3.754-.013-7.508-.013-11.262,0-1.652,0-1.625,1.625-1.652.561-.009.681.173.678.7-.02,4.074,0,8.149-.024,12.223,0,.566.137.723.714.722q14.009-.028,28.017,0c.585,0,.771-.118.766-.742-.032-3.868-.016-7.737-.016-11.605,0-1.283,0-1.283,1.305-1.283.987,0,.987,0,.987.971q0,6.009,0,12.017c0,.3-.122.653.428.637,1.325-.038,2.652-.033,3.979-.045-.179-2.084-.379-4.166-.528-6.252C3123.741,1574.885,3123.631,1573.708,3123.539,1572.529Zm-20.567,7.571c-1.177,0-1.177,0-1.177-1.166,0-1.12,0-1.12,1.1-1.12,1.142,0,1.142,0,1.142,1.215C3104.039,1580.1,3104.039,1580.1,3102.972,1580.1Zm-.086-4.536c-1.091,0-1.091,0-1.091-1.118,0-1.171,0-1.171,1.188-1.171,1.056,0,1.056,0,1.056,1.029v.136C3104.039,1575.564,3104.039,1575.564,3102.886,1575.564Zm.061-4.536c-1.152,0-1.152,0-1.152-1.127,0-1.164,0-1.164,1.127-1.164s1.117,0,1.117,1.173C3104.039,1571.028,3104.039,1571.028,3102.947,1571.028Z" transform="translate(-14.761 -259.858)" fill="#6b9de2"/>
      <path id="Trazado_150718" data-name="Trazado 150718" d="M3203.846,1397.775a13.1,13.1,0,0,0,3.851-3.672c.07-.106.12-.226.244-.468a.149.149,0,0,0-.024-.019h-1.926a3.5,3.5,0,0,1-2.941,2.155,13.332,13.332,0,0,1-3.078-.038,3.38,3.38,0,0,1-.057-6.671,16.93,16.93,0,0,1,2.12-.083,3.792,3.792,0,0,1,3.968,2.2c.8-.008,1.593-.044,2.387-.014.51.019.766-.106.883-.661a15.9,15.9,0,0,0,.224-5.384,2.258,2.258,0,0,1-2.111,1.589,2.146,2.146,0,0,1-2.039-1.156,2.256,2.256,0,0,1,3.884-2.3c.1.155.173.322.259.483a16.23,16.23,0,0,0,.1-3.466c0-.286-.29-.236-.485-.238-.8-.005-1.6,0-2.4-.006-.222,0-.462.07-.656-.112a10.469,10.469,0,0,1-4.109-.958.705.705,0,0,0-.648.047,10.463,10.463,0,0,1-4.465.9c-1.625-.02-3.251.007-4.876-.012-.383,0-.508.1-.5.495.019,2.564-.015,5.129.026,7.692a10.148,10.148,0,0,0,12.383,9.687Zm-10.151-13.29a2.263,2.263,0,0,1,2.245-2.279,2.223,2.223,0,0,1,2.281,2.219,2.262,2.262,0,0,1-2.221,2.3A2.319,2.319,0,0,1,3193.695,1384.486Z" transform="translate(-113.485 -107.329)" fill="#f1c5b1"/>
      <path id="Trazado_150719" data-name="Trazado 150719" d="M3374.474,1567.556a10.22,10.22,0,0,0-3.017-6.517c-2.237-2.262-5.077-2.95-8.12-3.109a8.743,8.743,0,0,1,4.283,3.183,11.457,11.457,0,0,1,2.518,6.418c.333,3.917.639,7.835.971,11.752.112,1.32.182,2.645.355,3.96a1.118,1.118,0,0,1-.157.919c1.235.011,2.469.026,3.7.033.885,0,.872,0,.794-.914Q3375.133,1575.418,3374.474,1567.556Z" transform="translate(-261.714 -261.701)" fill="#598ad2"/>
      <path id="Trazado_150720" data-name="Trazado 150720" d="M3371.463,1583.242c-.173-1.315-.243-2.64-.355-3.96-.332-3.916-.637-7.835-.971-11.752a11.457,11.457,0,0,0-2.518-6.418,8.743,8.743,0,0,0-4.283-3.183c.156.092.31.189.47.274a11.407,11.407,0,0,1,3.668,3.031,11.609,11.609,0,0,1,2.482,6.542c.16,2.2.364,4.4.536,6.6.092,1.179.2,2.357.287,3.537.149,2.086.349,4.168.528,6.252A1.118,1.118,0,0,0,3371.463,1583.242Z" transform="translate(-261.714 -261.701)" fill="#598ad2"/>
      <path id="Trazado_150721" data-name="Trazado 150721" d="M3205.245,1304.465a11.194,11.194,0,0,0-2.775-.381,10.164,10.164,0,0,0-10.17,8.535c-.068.455.02.558.454.545.846-.026,1.694-.007,2.706-.007.908-.034,1.981.016,3.057-.073a7.989,7.989,0,0,0,7.281-7.911A.622.622,0,0,0,3205.245,1304.465Z" transform="translate(-114.212 -42.811)" fill="#8b5656"/>
      <path id="Trazado_150722" data-name="Trazado 150722" d="M3283.193,1323.8c2.338.44,4.7.172,7.05.243.366.011.311-.2.27-.454a10,10,0,0,0-2.226-4.938,8.111,8.111,0,0,0-2.2-1.943,10.287,10.287,0,0,1-3.278,6.871A.423.423,0,0,0,3283.193,1323.8Z" transform="translate(-192.278 -53.692)" fill="#7c4e4e"/>
      <path id="Trazado_150723" data-name="Trazado 150723" d="M3146.367,1389.595c0-.982-.013-1.964.007-2.945.008-.374-.094-.532-.5-.521-.89.025-1.781-.007-2.671.012a1.223,1.223,0,0,0-1.368,1.353q-.03,2.054,0,4.109a1.225,1.225,0,0,0,1.356,1.368c.89.024,1.781-.009,2.671.012.388.009.519-.125.51-.512C3146.353,1391.513,3146.367,1390.554,3146.367,1389.595Z" transform="translate(-70.703 -113.557)" fill="#656665"/>
      <path id="Trazado_150724" data-name="Trazado 150724" d="M3356.745,1386.116c-.435-.014-.543.151-.534.556.023.958.008,1.918.008,2.876,0,.981.011,1.963-.006,2.945-.006.353.114.485.473.478.913-.018,1.827.015,2.739-.013a1.208,1.208,0,0,0,1.322-1.331q.033-2.089,0-4.178a1.207,1.207,0,0,0-1.332-1.319C3358.526,1386.108,3357.635,1386.146,3356.745,1386.116Z" transform="translate(-255.569 -113.547)" fill="#656665"/>
      <path id="Trazado_150725" data-name="Trazado 150725" d="M3240.217,1533.094c-.119-.625-.264-1.244-.4-1.866a13.148,13.148,0,0,1-5.164-.387c-.4-.124-.4.178-.446.41-.185.9-.358,1.793-.542,2.688a.655.655,0,0,0,.174.683c.907.87,1.8,1.757,2.7,2.638,1.158-1.137,2.313-2.278,3.477-3.409A.775.775,0,0,0,3240.217,1533.094Z" transform="translate(-149.876 -238.318)" fill="#f1c5b1"/>
      <path id="Trazado_150726" data-name="Trazado 150726" d="M3300.4,1386.208c.313,0,.571.058.586.413a12.321,12.321,0,0,1-.081,3.274.462.462,0,0,1-.207.108,3.143,3.143,0,0,1,.009,1.346.219.219,0,0,1,.167.071,11.221,11.221,0,0,1,.108,3.453,8.161,8.161,0,0,1-.313,1.95.763.763,0,0,1-.874.659c-.86-.056-1.726.057-2.586-.057a13.636,13.636,0,0,0,3.259.074c.69-.022,1.573.4,2.04-.252a4.625,4.625,0,0,0,.5-2.18.64.64,0,0,0,0-.068c.01-2.791.016-5.583.037-8.374,0-.339-.073-.485-.452-.48-1.784.022-3.568.017-5.352.022C3298.3,1386.272,3299.354,1386.195,3300.4,1386.208Z" transform="translate(-204.697 -113.572)" fill="#dab19d"/>
      <path id="Trazado_150727" data-name="Trazado 150727" d="M3298.14,1386.414c.8.008,1.6,0,2.4.006.2,0,.489-.048.485.238a16.23,16.23,0,0,1-.1,3.466s0,.01,0,.015a.462.462,0,0,0,.207-.108,12.311,12.311,0,0,0,.081-3.274c-.014-.355-.273-.408-.585-.412-1.051-.013-2.1.064-3.153-.042C3297.677,1386.483,3297.918,1386.412,3298.14,1386.414Z" transform="translate(-204.929 -113.707)" fill="#dab19d"/>
      <path id="Trazado_150728" data-name="Trazado 150728" d="M3299.8,1430.058a.763.763,0,0,0,.874-.659,8.162,8.162,0,0,0,.313-1.95,11.221,11.221,0,0,0-.108-3.453.219.219,0,0,0-.167-.071l0,.018a15.9,15.9,0,0,1-.224,5.384c-.117.554-.372.68-.883.661-.794-.03-1.591.006-2.387.014C3298.075,1430.115,3298.941,1430,3299.8,1430.058Z" transform="translate(-204.697 -146.148)" fill="#dab19d"/>
      <path id="Trazado_150729" data-name="Trazado 150729" d="M3205.088,1561.728a1.291,1.291,0,0,0,.192-.158c1.028-1.227,2.041-2.467,3.087-3.677.287-.332.135-.489-.1-.719-1.09-1.077-2.166-2.168-3.255-3.246a1.425,1.425,0,0,1-.5-1.01c-.006-.324.3-.753.014-.933-.227-.144-.658.027-1,.069-.29.036-.578.087-.883.133.8,3.2,1.586,6.341,2.373,9.482C3205.02,1561.684,3205.044,1561.693,3205.088,1561.728Z" transform="translate(-123.148 -256.526)" fill="#eeeced"/>
      <path id="Trazado_150730" data-name="Trazado 150730" d="M3285.763,1557.309c-.144.146-.407.259-.163.55,1.113,1.324,2.216,2.656,3.4,4.083.7-2.808,1.361-5.463,2.017-8.119.124-.5.521-1.122.28-1.473-.252-.369-.984-.159-1.491-.282-.4-.1-.426.075-.336.384a1.632,1.632,0,0,1-.6,1.76C3287.81,1555.217,3286.794,1556.271,3285.763,1557.309Z" transform="translate(-194.596 -256.624)" fill="#d8d6d7"/>
      <path id="Trazado_150731" data-name="Trazado 150731" d="M3260.483,1534.929a5.814,5.814,0,0,0-.368-2.461c-.207-1.057-.215-1.054-1.294-.807-.288.066-.579.122-.868.182a2.417,2.417,0,0,1-.184,3.24c-.805.806-1.607,1.617-2.421,2.415-.186.182-.345.445-.678.378.395.41.8.806,1.178,1.234.244.28.4.249.647-.006.76-.79,1.55-1.55,2.319-2.331C3259.4,1536.173,3260.266,1535.647,3260.483,1534.929Z" transform="translate(-168.01 -238.934)" fill="#dab19d"/>
      <path id="Trazado_150732" data-name="Trazado 150732" d="M3255.347,1539.489c.814-.8,1.616-1.608,2.421-2.415a2.417,2.417,0,0,0,.184-3.24c.135.622.281,1.241.4,1.866a.775.775,0,0,1-.205.757c-1.165,1.131-2.319,2.271-3.477,3.409C3255,1539.934,3255.161,1539.672,3255.347,1539.489Z" transform="translate(-168.01 -240.924)" fill="#dab19d"/>
      <path id="Trazado_150733" data-name="Trazado 150733" d="M3252.861,1468.82c-.408-.037-.822-.007-1.233-.007s-.825-.031-1.233.008a1,1,0,0,0-.985,1.026,1.007,1.007,0,0,0,.921,1.152,21.105,21.105,0,0,0,2.6,0,1.1,1.1,0,0,0-.072-2.178Z" transform="translate(-163.473 -184.846)" fill="#656665"/>
      <path id="Trazado_150734" data-name="Trazado 150734" d="M3285.325,1484.908a.513.513,0,0,1,.3.046h.034l-.01.019c.1.089.053.256-.04.444a4.037,4.037,0,0,1-.624.891,8.809,8.809,0,0,1-3.432,2.8,9.958,9.958,0,0,0,6.292-4.256c-.639,0-1.113-.019-1.584,0a10.913,10.913,0,0,0-2.563.093A13.232,13.232,0,0,1,3285.325,1484.908Z" transform="translate(-191.19 -198.666)" fill="#d9b19d"/>
      <path id="Trazado_150735" data-name="Trazado 150735" d="M3299.053,1485.43a.513.513,0,0,0-.3-.046,13.231,13.231,0,0,0-1.63.046h1.926Z" transform="translate(-204.621 -199.142)" fill="#d9b19d"/>
      <path id="Trazado_150736" data-name="Trazado 150736" d="M3284.982,1487.214a4.034,4.034,0,0,0,.624-.891c.093-.188.139-.355.04-.444-.124.241-.174.362-.244.468a13.1,13.1,0,0,1-3.851,3.672A8.808,8.808,0,0,0,3284.982,1487.214Z" transform="translate(-191.19 -199.572)" fill="#d9b19d"/>
      <path id="Trazado_150737" data-name="Trazado 150737" d="M3258.525,1649.8c-1.126,0-1.126,0-1.126,1.164,0,1.127,0,1.127,1.152,1.127,1.092,0,1.092,0,1.092-1.118C3259.643,1649.8,3259.643,1649.8,3258.525,1649.8Z" transform="translate(-170.364 -340.916)" fill="#010101"/>
      <path id="Trazado_150738" data-name="Trazado 150738" d="M3258.587,1682.754c-1.188,0-1.188,0-1.188,1.171,0,1.118,0,1.118,1.091,1.118,1.153,0,1.153,0,1.153-1.123v-.136C3259.643,1682.754,3259.643,1682.754,3258.587,1682.754Z" transform="translate(-170.364 -369.337)" fill="#010101"/>
      <path id="Trazado_150739" data-name="Trazado 150739" d="M3258.5,1715.718c-1.1,0-1.1,0-1.1,1.12,0,1.166,0,1.166,1.177,1.166,1.067,0,1.067,0,1.067-1.07C3259.643,1715.718,3259.643,1715.718,3258.5,1715.718Z" transform="translate(-170.364 -397.761)" fill="#010101"/>
      <path id="Trazado_150740" data-name="Trazado 150740" d="M3212.361,1405.1a2.223,2.223,0,0,0-2.281-2.219,2.262,2.262,0,0,0-2.245,2.279,2.319,2.319,0,0,0,2.3,2.242A2.262,2.262,0,0,0,3212.361,1405.1Z" transform="translate(-127.625 -128.004)"/>
      <path id="Trazado_150741" data-name="Trazado 150741" d="M3296.022,1405.732c-.205.028-.288-.236-.383-.383a1.987,1.987,0,0,0-1.646-.961,2.02,2.02,0,0,0-2.1,1.421,2.048,2.048,0,0,0,3.451,2.027c.176-.182.3-.4.469-.59.065-.073.132-.157.217-.171A1.786,1.786,0,0,1,3296.022,1405.732Z" transform="translate(-200.025 -129.301)"/>
      <path id="Trazado_150742" data-name="Trazado 150742" d="M3294.553,1405.888c-.168.187-.293.408-.469.59a2.048,2.048,0,0,1-3.451-2.027,2.021,2.021,0,0,1,2.1-1.421,1.986,1.986,0,0,1,1.646.961c.1.147.178.41.383.383,0-.005,0-.011.006-.016-.086-.161-.162-.328-.259-.483a2.256,2.256,0,0,0-3.884,2.3,2.147,2.147,0,0,0,2.04,1.156,2.258,2.258,0,0,0,2.111-1.589l-.005-.019C3294.684,1405.73,3294.618,1405.815,3294.553,1405.888Z" transform="translate(-198.764 -127.942)"/>
      <path id="Trazado_150743" data-name="Trazado 150743" d="M3321.681,1415.5h.01a3.143,3.143,0,0,0-.009-1.346l-.009,0A1.786,1.786,0,0,0,3321.681,1415.5Z" transform="translate(-225.676 -137.725)"/>
      <path id="Trazado_150744" data-name="Trazado 150744" d="M3322.54,1423.926c0,.006,0,.013.006.019l0-.018Z" transform="translate(-226.535 -146.15)"/>
      <path id="Trazado_150745" data-name="Trazado 150745" d="M3322.487,1414.065l0-.015c0,.005,0,.011-.006.016Z" transform="translate(-226.482 -137.634)"/>
    </g>
  </g>
</svg>
