<svg xmlns="http://www.w3.org/2000/svg" width="77" height="77" viewBox="0 0 77 77">
  <g id="icon1" transform="translate(-208 -523)">
    <rect id="Rectángulo_35439" data-name="Rectángulo 35439" width="77" height="77" transform="translate(208 523)" fill="none"/>
    <g id="Grupo_133642" data-name="Grupo 133642" transform="translate(-2848.794 -555.089)">
      <path id="Trazado_150677" data-name="Trazado 150677" d="M3504.5,1245.965a1.122,1.122,0,0,1-.417-.9c-.027-1.049-.009-2.1-.011-3.148,0-.236,0-.472,0-.771h-5.983v31.909h5.983v-.814q0-10.921,0-21.842a3.5,3.5,0,0,1,.064-.845,1.008,1.008,0,0,1,.362-.582Z" transform="translate(-378.061 -137.279)" fill="#fee07e"/>
      <rect id="Rectángulo_35451" data-name="Rectángulo 35451" width="3.205" height="33.466" transform="translate(3123.232 1103.029)" fill="#fed065"/>
      <path id="Trazado_150678" data-name="Trazado 150678" d="M3075.693,1172.449a2.829,2.829,0,0,1,.088.841c.006,2.58,0,5.161.005,7.741,0,.992.249,1.235,1.25,1.235q17.811,0,35.622,0c1.027,0,1.263-.24,1.263-1.29q0-26.176,0-52.352c0-1.041-.254-1.3-1.261-1.3-3.368,0-6.735,0-10.1-.013-.473,0-.7.071-.7.634.027,3.039,0,6.079.019,9.119a1.973,1.973,0,0,0,2.739,1.995,2.03,2.03,0,0,0,1.239-2.051c-.005-2.318-.009-4.636.008-6.954a1.214,1.214,0,0,1,.231-.84,1.55,1.55,0,0,1,1.04-.326.868.868,0,0,1,.707.968q.006,2.1,0,4.2c0,1.028.007,2.055,0,3.083a3.991,3.991,0,1,1-7.98,0c-.023-3.061-.006-6.123-.006-9.184v-.6c-.266-.015-.5-.038-.724-.038q-10.989,0-21.977,0c-1.145,0-1.372.23-1.372,1.391q0,19.386,0,38.772a4.413,4.413,0,0,1-.052.847.974.974,0,0,1-.311.568v3.133A.986.986,0,0,1,3075.693,1172.449Zm28.183-11.855a4.972,4.972,0,0,1-.524.008H3086.3a2.625,2.625,0,0,1-.588-.023.988.988,0,0,1,.026-1.943,3.138,3.138,0,0,1,.589-.02h17.055a4.051,4.051,0,0,1,.524.012.958.958,0,0,1,.9.963A.98.98,0,0,1,3103.876,1160.594Zm-14.389-12.811a1.359,1.359,0,0,1,.954-.63c2.929-.049,5.86-.039,8.791-.023a1.019,1.019,0,0,1,1.1.984,1.035,1.035,0,0,1-1.128,1.026c-1.465.021-2.93.006-4.4.006-1.421,0-2.843.018-4.264-.005C3089.669,1149.127,3089.119,1148.44,3089.487,1147.783Zm-4.579,6.348a.988.988,0,0,1,.89-.979,3.326,3.326,0,0,1,.589-.023h16.922c.066,0,.131,0,.2,0,.808.013,1.282.374,1.3.989.018.631-.47,1.022-1.32,1.024q-4.329.009-8.657,0-4.165,0-8.33,0a5.6,5.6,0,0,1-.655-.021A.98.98,0,0,1,3084.908,1154.131Z" transform="translate(-10.966 -38.401)" fill="#eaf6ff"/>
      <path id="Trazado_150679" data-name="Trazado 150679" d="M3490.439,1184.06h-5.983v31.909h5.983v-.815q0-10.921,0-21.842a3.5,3.5,0,0,1,.064-.845.89.89,0,0,1,.941-.749.943.943,0,0,1,.994.781,3.52,3.52,0,0,1,.052.716q0,11.643-.013,23.285a3.344,3.344,0,0,1-.35,1.431c-.925,1.856-1.911,3.682-2.856,5.528a1.989,1.989,0,0,1-3.687-.011c-.968-1.884-1.96-3.755-2.916-5.645a2.435,2.435,0,0,1-.266-1.056q-.02-19.579-.009-39.158a1.947,1.947,0,0,1,2.15-2.161q2.886-.026,5.772,0a1.967,1.967,0,0,1,2.173,2.153c.013,3.389,0,6.778,0,10.167,0,.087,0,.175-.006.262a1.033,1.033,0,0,1-1.042,1.046,1,1,0,0,1-1-1.078c-.027-1.049-.01-2.1-.011-3.148C3490.439,1184.6,3490.439,1184.359,3490.439,1184.06Zm-5.982-6.569v4.474h5.925v-4.474Zm2.98,45.1,2.331-4.484h-4.689Z" transform="translate(-364.431 -80.189)"/>
      <path id="Trazado_150680" data-name="Trazado 150680" d="M3157.532,1367.408H3149a2.625,2.625,0,0,1-.588-.023.988.988,0,0,1,.026-1.943,3.127,3.127,0,0,1,.589-.02h17.055a4.056,4.056,0,0,1,.524.012.958.958,0,0,1,.9.963.98.98,0,0,1-.923,1.006,4.972,4.972,0,0,1-.524.008Z" transform="translate(-73.673 -245.207)"/>
      <path id="Trazado_150681" data-name="Trazado 150681" d="M3157.5,1325.73q-4.165,0-8.33,0a5.6,5.6,0,0,1-.655-.021.989.989,0,0,1-.045-1.971,3.326,3.326,0,0,1,.589-.023h16.922c.066,0,.131,0,.2,0,.808.013,1.282.374,1.3.989.018.631-.469,1.022-1.32,1.024Q3161.824,1325.736,3157.5,1325.73Z" transform="translate(-73.633 -208.987)"/>
      <path id="Trazado_150682" data-name="Trazado 150682" d="M3186.965,1280.027c-1.421,0-2.843.018-4.264-.006-.874-.014-1.424-.7-1.056-1.358a1.359,1.359,0,0,1,.954-.63c2.929-.049,5.86-.039,8.791-.023a1.019,1.019,0,0,1,1.1.984,1.035,1.035,0,0,1-1.128,1.026C3189.9,1280.041,3188.431,1280.026,3186.965,1280.027Z" transform="translate(-103.124 -169.281)"/>
      <path id="Trazado_150683" data-name="Trazado 150683" d="M3180.629,1175.265c.9,0,1.745.007,2.593,0,.791-.008,1.2-.345,1.218-.973.016-.65-.427-1.027-1.229-1.033-.849-.006-1.7,0-2.588,0v-12.329h.682l5.313,0c1.11,0,1.342.231,1.342,1.34q0,21.155,0,42.31,0,5.018,0,10.036c0,.971-.281,1.263-1.235,1.264q-17.809.005-35.619,0c-.971,0-1.258-.287-1.275-1.239,0-.219.013-.438,0-.656-.025-.361.117-.529.49-.5.2.016.393,0,.59,0q13.152,0,26.3,0a3.317,3.317,0,0,0,2.375-.75,3.023,3.023,0,0,0,.991-2.341c0-.76,0-1.52,0-2.354.935,0,1.8.005,2.671,0,.76-.006,1.192-.375,1.191-1s-.43-.99-1.194-1c-.851-.008-1.7,0-2.61,0v-8.912c.856,0,1.7.006,2.549,0,.806-.007,1.254-.377,1.253-1.017s-.425-.989-1.26-1-1.694,0-2.57,0v-8.91c.655,0,1.3,0,1.945,0a8.934,8.934,0,0,0,.917-.018,1,1,0,0,0-.052-2.007c-.7-.03-1.4-.01-2.1-.011h-.693Z" transform="translate(-75.589 -67.604)" fill="#c5e2fe"/>
      <path id="Trazado_150684" data-name="Trazado 150684" d="M3498.089,1191.191h5.925v4.474h-5.925Z" transform="translate(-378.063 -93.889)" fill="#99bde3"/>
      <path id="Trazado_150685" data-name="Trazado 150685" d="M3505.18,1504.569l-2.358-4.484h4.689Z" transform="translate(-382.173 -362.17)" fill="#fff"/>
      <rect id="Rectángulo_35452" data-name="Rectángulo 35452" width="3.033" height="55.931" transform="translate(3100.547 1088.575)" fill="#d9ecfd"/>
      <rect id="Rectángulo_35453" data-name="Rectángulo 35453" width="3.033" height="55.931" transform="translate(3109.34 1092.836)" fill="#b4dbfc"/>
      <path id="Trazado_150686" data-name="Trazado 150686" d="M3096.22,1083.089a12.468,12.468,0,0,1,1.767.94,3.845,3.845,0,0,1,1.416,2.876c.741,0,1.5,0,2.255,0a2.989,2.989,0,0,1,3.322,3.327c0,.326,0,.652,0,1.057.271.013.5.033.73.033,1.837,0,3.674,0,5.511,0a2.9,2.9,0,0,1,3.171,3.184q.014,6.888,0,13.777,0,19.254-.016,38.509a4.825,4.825,0,0,1-.377,1.96,2.622,2.622,0,0,1-2.432,1.512c-.764.031-1.53.009-2.3.009-11.175,0-22.349-.033-33.523.028-2.267.012-3.707-1.394-3.529-3.537.021-.259,0-.521,0-.855-.266-.015-.5-.038-.725-.038-1.837,0-3.674.005-5.511,0a2.925,2.925,0,0,1-3.187-3.184c-.01-2.646-.018-5.292.014-7.938a1.806,1.806,0,0,1,.386-1.115.919.919,0,0,1,1.525.416,2.821,2.821,0,0,1,.088.841c.006,2.58,0,5.161.005,7.741,0,.992.249,1.235,1.25,1.235q17.811,0,35.622,0c1.027,0,1.263-.24,1.263-1.29q0-26.176,0-52.351c0-1.041-.254-1.3-1.261-1.3-3.368,0-6.735,0-10.1-.013-.473,0-.7.071-.7.634.027,3.039,0,6.079.019,9.119a1.973,1.973,0,0,0,2.739,1.995,2.03,2.03,0,0,0,1.239-2.051c-.005-2.318-.009-4.636.008-6.954a1.214,1.214,0,0,1,.231-.84,1.551,1.551,0,0,1,1.04-.326.868.868,0,0,1,.707.968q.006,2.1,0,4.2c0,1.028.007,2.056,0,3.083a3.991,3.991,0,1,1-7.98,0c-.023-3.061-.006-6.123-.006-9.184v-.6c-.266-.015-.5-.038-.724-.038q-10.989,0-21.977,0c-1.145,0-1.372.23-1.372,1.391q0,19.386,0,38.772a4.412,4.412,0,0,1-.052.847.906.906,0,0,1-.918.785.921.921,0,0,1-.992-.776,3.283,3.283,0,0,1-.052-.716q0-19.484,0-38.968c0-2.2,1.155-3.339,3.373-3.339h22.666c.047-.21.1-.393.13-.579a3.807,3.807,0,0,1,2.585-3.038c.158-.059.31-.132.465-.2Zm8.82,24.572v8.911h.693c.7,0,1.4-.02,2.1.011a1,1,0,0,1,.052,2.007,8.934,8.934,0,0,1-.917.018c-.645,0-1.29,0-1.945,0v8.91c.875,0,1.723-.006,2.57,0s1.259.35,1.26,1-.447,1.01-1.253,1.017c-.846.007-1.692,0-2.549,0v8.912c.908,0,1.759-.006,2.61,0,.764.007,1.193.372,1.194,1s-.432.993-1.191,1c-.868.007-1.736,0-2.671,0,0,.834,0,1.594,0,2.354a3.023,3.023,0,0,1-.991,2.341,3.317,3.317,0,0,1-2.375.75q-13.152-.011-26.3,0c-.2,0-.395.015-.59,0-.373-.03-.515.138-.49.5.015.218,0,.437,0,.656.017.953.3,1.239,1.275,1.239q17.81,0,35.619,0c.954,0,1.235-.292,1.235-1.264q0-5.018,0-10.036,0-21.155,0-42.31c0-1.109-.232-1.339-1.342-1.34l-5.313,0h-.682v12.329c.891,0,1.739-.005,2.588,0,.8.006,1.245.383,1.229,1.033-.015.628-.427.965-1.218.973C3106.785,1107.668,3105.937,1107.661,3105.04,1107.661Zm-7.679-20.781c-.122-.918-.548-1.6-1.383-1.685a19.171,19.171,0,0,0-3.7,0,1.454,1.454,0,0,0-1.246,1.681Z"/>
    </g>
  </g>
</svg>
