<svg xmlns="http://www.w3.org/2000/svg" width="77" height="77" viewBox="0 0 77 77">
  <g id="icon9" transform="translate(-1044 -1508)">
    <rect id="Rectángulo_35444" data-name="Rectángulo 35444" width="77" height="77" transform="translate(1044 1508)" fill="none"/>
    <g id="Grupo_133658" data-name="Grupo 133658" transform="translate(-2389.185 1140.927)">
      <path id="Trazado_150814" data-name="Trazado 150814" d="M3490.229,445.949h5.888V434.228h-5.888Z" transform="translate(-26.809 -29.441)" fill="#00d068"/>
      <path id="Trazado_150815" data-name="Trazado 150815" d="M3480.827,410.433q3.326,0,6.651,0c2.217,0,4.434-.006,6.651.007a.458.458,0,0,0,.51-.347,15.982,15.982,0,0,0-.026-11.82,9.883,9.883,0,0,0-3.578-4.729,5.876,5.876,0,0,0-5.3-.878,7.435,7.435,0,0,0-4.125,3.294c-2.834,4.526-3.033,9.3-1.219,14.241C3480.479,410.436,3480.635,410.433,3480.827,410.433Zm5.3-14.781a.548.548,0,0,0,.271-.322,1.121,1.121,0,0,1,1.087-.9,1.051,1.051,0,0,1,1.079.883.459.459,0,0,0,.347.368,3.546,3.546,0,0,1,2.3,3.219,1.11,1.11,0,0,1-1.079,1.143A1.078,1.078,0,0,1,3489,399a1.334,1.334,0,0,0-.956-1.28,1.546,1.546,0,0,0-1.658.333,1.142,1.142,0,0,0-.335,1.255,1.352,1.352,0,0,0,1.148.933c.377.063.768.056,1.14.136a3.57,3.57,0,0,1,2.856,3.2,3.528,3.528,0,0,1-2.314,3.5.4.4,0,0,0-.3.388,1.095,1.095,0,0,1-2.182-.029c-.018-.253-.154-.295-.328-.365a3.529,3.529,0,0,1-2.288-3.185,1.105,1.105,0,1,1,2.206-.135,1.5,1.5,0,0,0,2.207,1.222,1.248,1.248,0,0,0,.789-1.162,1.228,1.228,0,0,0-.815-1.178,2.234,2.234,0,0,0-.793-.154,3.656,3.656,0,0,1-3.547-2.973A3.525,3.525,0,0,1,3486.125,395.652Z" transform="translate(-21.137 -7.886)" fill="#009568"/>
      <path id="Trazado_150816" data-name="Trazado 150816" d="M3463.529,434.225h-20.74v4.741h20.74Z" transform="translate(-2.371 -29.44)" fill="#00d068"/>
      <path id="Trazado_150817" data-name="Trazado 150817" d="M3557.075,420.288c.274,0,.29-.151.289-.358,0-1.225,0-2.45,0-3.675v-.58a5.693,5.693,0,0,0-4.57,4.575.626.626,0,0,0,.125.031C3554.3,420.283,3555.69,420.279,3557.075,420.288Z" transform="translate(-59.036 -19.885)" fill="#aed35d"/>
      <path id="Trazado_150818" data-name="Trazado 150818" d="M3442.8,453.381h20.738v-4.742H3442.8Z" transform="translate(-2.38 -36.865)" fill="#00d068"/>
      <path id="Trazado_150819" data-name="Trazado 150819" d="M3538.686,420.3h4.191c-.167-2.089-2.624-4.562-4.547-4.592q0,2.173,0,4.344C3538.329,420.321,3538.508,420.3,3538.686,420.3Z" transform="translate(-51.586 -19.903)" fill="#aed35d"/>
      <path id="Trazado_150820" data-name="Trazado 150820" d="M3495.515,395.15a1.068,1.068,0,0,1-.823-1.068c-.017-.619-.007-1.239-.007-1.859q0-5.056,0-10.112v-.453h-51.911v23.226h2.728c.006-.115.017-.223.017-.331q0-7.156,0-14.312c0-.917.346-1.286,1.252-1.335a3.163,3.163,0,0,0,2.99-3.08,1.086,1.086,0,0,1,1.165-1.161q3.661-.01,7.323,0a1.076,1.076,0,0,1,1.135.915,1.063,1.063,0,0,1-.668,1.194,1.732,1.732,0,0,1-.582.082c-1.946.006-3.891,0-5.836,0h-.421c-.038.122-.071.226-.1.331a5.3,5.3,0,0,1-3.716,3.72c-.237.072-.342.149-.342.418q.012,6.654.006,13.309c0,.073.01.145.017.245h11.543c-.213-.808-.469-1.6-.627-2.408a17.577,17.577,0,0,1,1.843-12.436,11,11,0,0,1,4.339-4.379,8.151,8.151,0,0,1,9.24.988,13.552,13.552,0,0,1,4.442,7.181,18.229,18.229,0,0,1-.312,10.757c-.031.092-.054.187-.093.321h.464q3.346,0,6.691,0a1.1,1.1,0,1,1,.05,2.208c-.1.007-.2,0-.3,0H3473.9V411.9h.458q4.052,0,8.1,0a1.106,1.106,0,0,1,1.137,1.463,1.126,1.126,0,0,1-1.161.749q-2.714,0-5.428,0H3473.9v4.78h.438q2.956,0,5.911,0a1.119,1.119,0,0,1,1.148.772,2.81,2.81,0,0,1,1.609.805c.058-.206.115-.412.172-.618q1.252-4.546,2.5-9.093a4.741,4.741,0,0,1,2.554-3.117.4.4,0,0,0,.274-.416c-.015-.718,0-1.437-.01-2.156a.4.4,0,0,0-.185-.294,2.37,2.37,0,0,1-1.421-2.291q-.009-2.714,0-5.428a1.11,1.11,0,0,1,1.268-1.246c.26,0,.52.017.779.043.243.024.485.071.749.111v-4.957a5.468,5.468,0,0,1-4.13-4.154h-.4c-1.983,0-3.965,0-5.948,0a1.086,1.086,0,0,1-1.123-1.434,1.069,1.069,0,0,1,1.073-.754c1.462-.008,2.924-.006,4.387-.007.953,0,1.908,0,2.862,0a1.119,1.119,0,0,1,1.27,1.213,3.154,3.154,0,0,0,3,3.031c.879.047,1.246.43,1.247,1.31,0,2.094.005,4.189,0,6.283a.5.5,0,0,0,.273.5,7.988,7.988,0,0,1,2.7,2.731l.281-.4a9.408,9.408,0,0,1,1.057-1.239A3.425,3.425,0,0,1,3495.515,395.15Z" transform="translate(-2.366 -2.362)" fill="#00d068"/>
      <path id="Trazado_150821" data-name="Trazado 150821" d="M3546.351,436.077a2.579,2.579,0,0,0-2.547-1.942c-.818,0-1.635.006-2.453,0a1.106,1.106,0,1,1,0-2.21c.372-.009.743,0,1.115,0h1c0-.637,0-1.206,0-1.776,0-.281-.134-.4-.412-.4q-3.772.005-7.545,0c-.282,0-.411.127-.411.4,0,.569,0,1.138,0,1.771.735,0,1.426-.008,2.116,0a1.123,1.123,0,0,1,1.157,1.11,1.107,1.107,0,0,1-1.161,1.1c-.743.009-1.487,0-2.229,0a2.631,2.631,0,0,0-2.832,2.159c-.761,2.768-1.539,5.532-2.279,8.305a24.526,24.526,0,0,0-.884,3.865,10.35,10.35,0,1,0,20.312-1.685C3548.334,443.206,3547.337,439.643,3546.351,436.077Zm-5.637,18.38a.4.4,0,0,0-.332.468,1.083,1.083,0,0,1-1.117,1.167,1.1,1.1,0,0,1-1.089-1.164c0-.111,0-.221,0-.353a4.586,4.586,0,0,1-2.159-1.268,3.973,3.973,0,0,1-1.11-2.608,1.109,1.109,0,1,1,2.208-.112,2.053,2.053,0,0,0,1.912,1.894,2.2,2.2,0,0,0,2.339-1.389,1.939,1.939,0,0,0-1.623-2.457c-.437-.076-.891-.063-1.327-.143a4.231,4.231,0,0,1-3.506-3.769,4.164,4.164,0,0,1,2.958-4.236c.222-.074.307-.156.318-.4a1.1,1.1,0,0,1,2.195,0c.012.242.1.325.317.4a4.145,4.145,0,0,1,2.951,3.566c.11.841-.323,1.436-1.031,1.463a1.1,1.1,0,0,1-1.165-1.127,2.048,2.048,0,0,0-1.892-1.91,2.195,2.195,0,0,0-2.364,1.4,1.941,1.941,0,0,0,1.643,2.443c.439.072.891.061,1.327.143a4.225,4.225,0,0,1,3.494,3.819A4.154,4.154,0,0,1,3540.713,454.458Z" transform="translate(-46.747 -27.133)" fill="#aed38a"/>
      <path id="Trazado_150822" data-name="Trazado 150822" d="M3478.03,418.746a1.108,1.108,0,1,0-.141-2.211q-2.956-.006-5.911,0h-.438v-4.78h3.107q2.715,0,5.428,0a1.126,1.126,0,0,0,1.16-.749,1.106,1.106,0,0,0-1.137-1.463q-4.052-.007-8.1,0h-.458v-4.779h11.126c.1,0,.2,0,.3,0a1.1,1.1,0,1,0-.049-2.208q-3.345-.007-6.691,0h-.464c.039-.135.062-.229.093-.321a18.233,18.233,0,0,0,.312-10.757,13.551,13.551,0,0,0-4.443-7.181,8.151,8.151,0,0,0-9.24-.988,11.006,11.006,0,0,0-4.339,4.379,17.576,17.576,0,0,0-1.843,12.436c.158.81.415,1.6.627,2.408h-11.543c-.007-.1-.017-.172-.017-.245q0-6.654-.006-13.309c0-.269.1-.346.342-.418a5.3,5.3,0,0,0,3.716-3.72l.1-.331h.421c1.945,0,3.891,0,5.837,0a1.734,1.734,0,0,0,.582-.082,1.063,1.063,0,0,0,.667-1.194,1.076,1.076,0,0,0-1.135-.915q-3.662-.009-7.323,0a1.086,1.086,0,0,0-1.165,1.161,3.163,3.163,0,0,1-2.99,3.08c-.906.049-1.252.418-1.252,1.335q0,7.156,0,14.312c0,.108-.011.215-.017.331h-2.728V379.3h51.911v.453l0,10.112c0,.619-.01,1.239.007,1.859a1.073,1.073,0,0,0,1.142,1.1,1.1,1.1,0,0,0,1.064-1.226q0-6.635,0-13.272c0-.074,0-.149-.005-.223-.067-.674-.531-1.03-1.342-1.03q-12.287,0-24.573.006-14.517,0-29.034,0c-1.021,0-1.4.371-1.4,1.38v38.923c0,.1,0,.2,0,.3a1.081,1.081,0,0,0,.994,1.063c.185.017.372.012.558.012h37.547C3477.534,418.75,3477.783,418.759,3478.03,418.746Zm-17.554-30.672a7.436,7.436,0,0,1,4.125-3.294,5.877,5.877,0,0,1,5.3.878,9.885,9.885,0,0,1,3.578,4.729,15.981,15.981,0,0,1,.026,11.82.458.458,0,0,1-.51.347c-2.217-.013-4.434-.007-6.651-.007s-4.434,0-6.651,0c-.192,0-.348,0-.434-.233C3457.442,397.376,3457.641,392.6,3460.475,388.074Zm-20.058,16.711h20.74v4.741h-20.74Zm20.746,11.731h-20.738v-4.742h20.738Zm8.145-.008h-5.888V404.787h5.888Z"/>
      <path id="Trazado_150823" data-name="Trazado 150823" d="M3524.267,414a4.786,4.786,0,0,0-2.59-3.177.374.374,0,0,1-.245-.4c.011-.719-.009-1.438.007-2.156a.438.438,0,0,1,.21-.312,2.319,2.319,0,0,0,1.381-2.164c.016-1.871.011-3.742,0-5.614a1.074,1.074,0,0,0-1.217-1.176,7.835,7.835,0,0,0-6.5,3.515l-.28.4a7.987,7.987,0,0,0-2.7-2.731.5.5,0,0,1-.273-.5c.01-2.094.006-4.189,0-6.283,0-.88-.368-1.263-1.247-1.31a3.155,3.155,0,0,1-3-3.031,1.118,1.118,0,0,0-1.269-1.213c-.954,0-1.909,0-2.862,0-1.462,0-2.925,0-4.387.007a1.069,1.069,0,0,0-1.073.754,1.086,1.086,0,0,0,1.124,1.434c1.983.005,3.965,0,5.948,0h.4a5.469,5.469,0,0,0,4.13,4.154v4.957c-.265-.04-.506-.087-.749-.111-.259-.026-.52-.04-.779-.043a1.11,1.11,0,0,0-1.268,1.246q-.007,2.714,0,5.428a2.37,2.37,0,0,0,1.421,2.291.4.4,0,0,1,.185.294c.015.719,0,1.438.01,2.156a.4.4,0,0,1-.274.416,4.741,4.741,0,0,0-2.554,3.117q-1.253,4.546-2.5,9.093a17.957,17.957,0,0,0-.831,4.029,12.479,12.479,0,0,0,5.03,10.835c.091.072.181.146.35.284h-24.582c-.136,0-.273,0-.409.006a1.085,1.085,0,0,0-1.007,1.09c0,.693.5,1.109,1.333,1.109q15.892,0,31.785-.008a13.219,13.219,0,0,0,2.107-.171,12.49,12.49,0,0,0,10.137-15.33C3526.324,421.241,3525.257,417.631,3524.267,414Zm-3.436-12.659v.58c0,1.225,0,2.45,0,3.675,0,.207-.015.359-.289.358-1.385-.009-2.771,0-4.157-.007a.628.628,0,0,1-.125-.031A5.693,5.693,0,0,1,3520.831,401.343Zm-11.582.017c1.923.031,4.379,2.5,4.547,4.592H3509.6c-.178,0-.357.017-.357-.249Q3509.252,403.532,3509.249,401.36Zm6.719,36.786a10.313,10.313,0,0,1-11.225-11.264,24.58,24.58,0,0,1,.883-3.865c.74-2.773,1.518-5.537,2.279-8.305a2.631,2.631,0,0,1,2.832-2.159c.743,0,1.487,0,2.23,0a1.107,1.107,0,0,0,1.16-1.1,1.123,1.123,0,0,0-1.157-1.11c-.691-.01-1.382,0-2.116,0,0-.632,0-1.2,0-1.771,0-.275.129-.4.411-.4q3.773.005,7.545,0c.278,0,.414.117.412.4,0,.57,0,1.139,0,1.776h-1c-.371,0-.743-.007-1.115,0a1.106,1.106,0,1,0,0,2.21c.818.009,1.635,0,2.453,0a2.579,2.579,0,0,1,2.548,1.942c.987,3.566,1.983,7.129,2.948,10.7A10.35,10.35,0,0,1,3515.969,438.146Z" transform="translate(-22.504 -5.552)"/>
      <path id="Trazado_150824" data-name="Trazado 150824" d="M3492.226,404.666a2.234,2.234,0,0,1,.793.154,1.229,1.229,0,0,1,.815,1.178,1.248,1.248,0,0,1-.789,1.162,1.5,1.5,0,0,1-2.207-1.222,1.105,1.105,0,1,0-2.206.135,3.529,3.529,0,0,0,2.288,3.185c.175.07.311.112.328.365a1.095,1.095,0,0,0,2.182.029.4.4,0,0,1,.3-.388,3.528,3.528,0,0,0,2.314-3.5,3.571,3.571,0,0,0-2.856-3.2c-.372-.08-.763-.073-1.14-.136a1.352,1.352,0,0,1-1.148-.933,1.142,1.142,0,0,1,.335-1.255,1.546,1.546,0,0,1,1.658-.333,1.334,1.334,0,0,1,.956,1.28,1.078,1.078,0,0,0,1.126,1.047,1.11,1.11,0,0,0,1.079-1.143,3.546,3.546,0,0,0-2.3-3.219.459.459,0,0,1-.347-.368,1.051,1.051,0,0,0-1.079-.883,1.122,1.122,0,0,0-1.088.9.547.547,0,0,1-.271.322,3.525,3.525,0,0,0-2.292,3.86A3.656,3.656,0,0,0,3492.226,404.666Z" transform="translate(-25.983 -10.067)"/>
      <path id="Trazado_150825" data-name="Trazado 150825" d="M3546.5,456.335c-.436-.082-.888-.071-1.327-.143a1.941,1.941,0,0,1-1.643-2.443,2.194,2.194,0,0,1,2.363-1.4,2.047,2.047,0,0,1,1.892,1.91,1.1,1.1,0,0,0,1.166,1.127c.708-.028,1.14-.623,1.031-1.463a4.145,4.145,0,0,0-2.951-3.566c-.22-.079-.3-.161-.317-.4a1.1,1.1,0,0,0-2.194,0c-.011.244-.1.326-.318.4a4.165,4.165,0,0,0-2.958,4.236,4.232,4.232,0,0,0,3.506,3.769c.436.081.889.067,1.327.143a1.939,1.939,0,0,1,1.623,2.457,2.2,2.2,0,0,1-2.339,1.389,2.053,2.053,0,0,1-1.912-1.894,1.109,1.109,0,1,0-2.208.112,3.974,3.974,0,0,0,1.11,2.608,4.588,4.588,0,0,0,2.159,1.268c0,.131,0,.242,0,.353a1.1,1.1,0,0,0,1.089,1.164,1.083,1.083,0,0,0,1.117-1.167.4.4,0,0,1,.332-.468,4.154,4.154,0,0,0,2.947-4.168A4.225,4.225,0,0,0,3546.5,456.335Z" transform="translate(-53.082 -36.998)"/>
    </g>
  </g>
</svg>
