<svg xmlns="http://www.w3.org/2000/svg" width="77" height="77" viewBox="0 0 77 77">
  <g id="icon7" transform="translate(-208 -1508)">
    <rect id="Rectángulo_35442" data-name="Rectángulo 35442" width="77" height="77" transform="translate(208 1508)" fill="none"/>
    <g id="sn6FPN" transform="translate(-2766.568 1263.013)">
      <g id="Grupo_133650" data-name="Grupo 133650" transform="translate(2978.568 249.987)">
        <path id="Trazado_150769" data-name="Trazado 150769" d="M3425.119,418.492a1.237,1.237,0,0,1-1.37.7c-2.515-.255-5.033-.477-7.549-.723-.725-.071-1.138-.505-1.1-1.1s.493-.971,1.24-.906c2.563.224,5.122.485,7.685.714a1.916,1.916,0,0,1,1.1.639Z" transform="translate(-3356.209 -394.002)"/>
        <path id="Trazado_150770" data-name="Trazado 150770" d="M2997.693,299.325a1.126,1.126,0,0,1,.626-1.56,16.477,16.477,0,0,0,5.642-5.031c4.251-5.382,8.6-10.691,12.921-16.013a.757.757,0,0,0,.043-1.095,2.611,2.611,0,0,1-.54-2.573,4.315,4.315,0,0,1,3.831-2.233,2.506,2.506,0,0,1,1.7,1.3q4.275,6.947,8.568,13.882,4.636,7.513,9.269,15.028c1.007,1.634.719,2.839-.911,3.838a5.023,5.023,0,0,1-1.543.788,2.278,2.278,0,0,1-2.661-1.342c-.38-.706-.774-.8-1.522-.635-6.114,1.367-12.238,2.684-18.359,4.018-.195.042-.385.1-.614.163a3.381,3.381,0,0,1,.808,2.89c-.058.259.129.291.29.364a3.245,3.245,0,0,1,2.057,3.425.418.418,0,0,0,.31.487,3.229,3.229,0,0,1,1.9,4.284.473.473,0,0,0,.223.605,3.242,3.242,0,0,1-.2,5.547c-1.015.655-2.053,1.274-3.092,1.891a3.228,3.228,0,0,1-1.637.543,1.7,1.7,0,0,0-.878.292c-1.168.706-2.344,1.4-3.514,2.1a5.669,5.669,0,0,1-4.2.7c-1.052-.216-2.105-.427-3.156-.651-.285-.061-.534-.088-.657.25a.108.108,0,0,1-.04.054c-1.569.947-2.225,2.658-3.326,4a2.958,2.958,0,0,1-2.443,1.16c-5.092-.012-10.182,0-15.274-.007a2.447,2.447,0,0,1-2.744-2.731c0-.875.01-1.75,0-2.624a2.5,2.5,0,0,1,.993-2.1q4.773-3.774,9.55-7.543c.291-.23.648-.47.979-.325.608.267.908-.13,1.275-.434.345-.286.679-.587,1.034-.86a1.031,1.031,0,0,1,.934-.281.974.974,0,0,0,1.177-.52c.859-1.229,1.67-2.492,2.5-3.741.1-.148.254-.308.01-.441-.209-.114-.348-.437-.691-.212a7.94,7.94,0,0,1-1.171.65,2.594,2.594,0,0,1-3.186-.84c-.974-1.446-1.9-2.929-2.752-4.451a2.612,2.612,0,0,1,.994-3.57,1.478,1.478,0,0,0,.89-1.6,3.035,3.035,0,0,1,1.428-2.8c.4-.286.834-.522,1.242-.8a1.131,1.131,0,0,1,1.62.145.965.965,0,0,1-.146,1.458,7.363,7.363,0,0,1-1.053.718,1.447,1.447,0,0,0-.573,2.308c.517.866,1.071,1.707,1.6,2.566.748,1.275,1.547,2.518,2.316,3.78a3.09,3.09,0,0,0,.231.33c.4.493.532.492.89-.023.294-.423.579-.852.859-1.285a6.045,6.045,0,0,1,1.83-1.844c.7-.446,1.4-.887,2.1-1.328a6.034,6.034,0,0,1,3.129-1.2c-.812-1.4-1.638-2.667-2.42-3.959q-1.036-1.653-2.046-3.321c-.365-.6-.476-.629-1.055-.261s-1.176.744-1.787,1.074A1.026,1.026,0,0,1,2997.693,299.325Z" transform="translate(-2978.568 -267.987)"/>
        <path id="Trazado_150771" data-name="Trazado 150771" d="M3090.748,474.62a1.137,1.137,0,0,0,1.672.159c.668-.406,1.341-.806,1.995-1.235.29-.19.446-.17.63.141.75,1.268,1.525,2.521,2.29,3.78.044.3-.21.379-.384.487-2.718,1.7-5.45,3.375-8.179,5.057-.184.114-.373.274-.616.122-.592-.941-1.21-1.867-1.768-2.827a1.456,1.456,0,0,1,.493-2.1c.309-.218.643-.4.963-.6.755-.477.864-.767.606-1.606Z" transform="translate(-3071.623 -443.282)" fill="#fa7161"/>
        <path id="Trazado_150772" data-name="Trazado 150772" d="M3351.986,251.008a4.484,4.484,0,0,1-.134.5q-1.4,3.622-2.812,7.242a1.053,1.053,0,0,1-.934.754.955.955,0,0,1-.9-.482,1.252,1.252,0,0,1,.035-1.215c.824-2.1,1.636-4.2,2.457-6.3a6.976,6.976,0,0,1,.452-1.041.892.892,0,0,1,1.1-.423A1.04,1.04,0,0,1,3351.986,251.008Z" transform="translate(-3297.351 -249.987)"/>
        <path id="Trazado_150773" data-name="Trazado 150773" d="M3388.469,337.183a1.052,1.052,0,0,1-.56.861c-1.767,1.093-3.533,2.187-5.31,3.264a1.025,1.025,0,0,1-1.43-.246.991.991,0,0,1,.363-1.447c1.777-1.118,3.562-2.225,5.366-3.3A1,1,0,0,1,3388.469,337.183Z" transform="translate(-3326.706 -324.524)"/>
        <path id="Trazado_150774" data-name="Trazado 150774" d="M3165.4,347.8c-.9-1.445-1.781-2.9-2.707-4.327-.258-.4.012-.565.194-.79q6.569-8.138,13.142-16.273c.5-.623,1.008-1.244,1.563-1.93.363.586.689,1.114,1.018,1.641.5.8.767.909,1.657.656a4.127,4.127,0,0,1,1.267,2.318,1.217,1.217,0,0,0-.054,1.69q3.416,5.493,6.8,11.008c.128.208.24.425.359.638-.024.479-.437.459-.735.53-2.133.511-4.274.986-6.412,1.473q-7.3,1.659-14.6,3.31C3166.407,347.853,3165.91,348.134,3165.4,347.8Z" transform="translate(-3137.765 -314.432)" fill="#fbcd6e"/>
        <path id="Trazado_150775" data-name="Trazado 150775" d="M3183.444,462.919a14.961,14.961,0,0,0,2.747-.536q8.893-2,17.78-4.035c.76-.173,1.516-.364,2.277-.529a.529.529,0,0,0,.431-.269q1.669,2.67,3.34,5.339c.284.451-.087.4-.329.45q-5.8,1.267-11.593,2.533c-3.6.784-7.208,1.555-10.809,2.351-.35.077-.567.078-.773-.266C3185.505,466.27,3184.47,464.6,3183.444,462.919Z" transform="translate(-3155.807 -429.55)" fill="#f2b15c"/>
        <path id="Trazado_150776" data-name="Trazado 150776" d="M3111.276,553.51a1.655,1.655,0,0,0-.877,1.253,4.077,4.077,0,0,1-1.781,2.729,4.126,4.126,0,0,0-.423.33,1.009,1.009,0,0,0-.232,1.422,1.022,1.022,0,0,0,1.437.173,6.9,6.9,0,0,0,.855-.642c.223-.2.353-.266.549.053,1,1.635,2.026,3.255,3.043,4.88a.437.437,0,0,1-.244.5,10.4,10.4,0,0,1-3.785,1.805,9.315,9.315,0,0,1-2.667-.144c-.5-.062-1.043.07-1.5-.255-1.132-1.329-2.26-2.662-3.4-3.985-.181-.21-.25-.355.044-.505a2.541,2.541,0,0,0,.894-.98c1.584-2.387,3.181-4.764,4.745-7.164a5.958,5.958,0,0,1,2.049-1.985c.814-.467,1.589-1,2.4-1.473a1.965,1.965,0,0,1,2.78.589c.995,1.537,1.911,3.125,2.86,4.691.122.346-.126.479-.36.617a2.077,2.077,0,0,1-2.649-.423l-.661-.922c-.206-.342-.449-.659-.664-.995a1.29,1.29,0,0,0-.928-.588c-.773-.125-.963-.019-1.3.742A1.045,1.045,0,0,1,3111.276,553.51Z" transform="translate(-3085.433 -508.83)" fill="#fde5cf"/>
        <path id="Trazado_150777" data-name="Trazado 150777" d="M2993.766,667.3c-.282-.134-.252-.392-.252-.638,0-.828.014-1.657-.006-2.485a.887.887,0,0,1,.394-.789q4.3-3.371,8.585-6.765c.188-.148.337-.3.553-.045q2.1,2.522,4.215,5.038c.059.259-.115.417-.258.586-1.313,1.557-2.633,3.108-3.944,4.667a1.1,1.1,0,0,1-.9.484c-2.731-.013-5.463,0-8.194-.007A.5.5,0,0,1,2993.766,667.3Z" transform="translate(-2991.492 -601.615)" fill="#3b5465"/>
        <path id="Trazado_150778" data-name="Trazado 150778" d="M3277.288,295.7c-.269-.857-.966-1.479-1.267-2.318a1.227,1.227,0,0,0,.081-1.693c-.895-1.394-1.729-2.826-2.623-4.22-.306-.477-.308-.759.224-1.066,1.222-.706,1.045-.829,1.837.456q7.154,11.6,14.318,23.2c.117.189.214.39.321.585a2.2,2.2,0,0,1-1.715,1.06q-4.739-7.668-9.479-15.335C3278.454,295.519,3278.148,295.4,3277.288,295.7Z" transform="translate(-3233.517 -281.041)" fill="#fa7161"/>
        <path id="Trazado_150779" data-name="Trazado 150779" d="M3101.124,509.06a36.957,36.957,0,0,0,3.536-2.125c1.89-1.165,3.822-2.266,5.643-3.541l2.5,3.971c-3.167,1.067-5.971,2.507-7.767,5.452-.784,1.286-.861,1.262-1.653-.035C3102.625,511.544,3101.876,510.3,3101.124,509.06Z" transform="translate(-3084.592 -469.21)" fill="#d43f3d"/>
        <path id="Trazado_150780" data-name="Trazado 150780" d="M3128.466,658.7a15.7,15.7,0,0,1,2.852.253,3.96,3.96,0,0,0,1.788-.14,9.468,9.468,0,0,0,3.555-2.023c.27.407.548.809.81,1.221a4.16,4.16,0,0,0,3.263,2.068c.133.012.264.052.4.061.359.024.5.334.591.573.112.276-.249.309-.413.412-.738.463-1.5.891-2.237,1.349a3.772,3.772,0,0,1-2.836.448c-1.6-.321-3.193-.655-4.794-.961a.762.762,0,0,1-.5-.268C3130.12,660.694,3129.292,659.7,3128.466,658.7Z" transform="translate(-3108.245 -601.917)" fill="#ecd3bd"/>
        <path id="Trazado_150781" data-name="Trazado 150781" d="M2995.428,700.507c2.464-.006,4.929-.047,7.393,0a2.289,2.289,0,0,0,2.1-.92c1.272-1.634,2.655-3.183,3.992-4.766q1.474,1.691,2.947,3.383c.043.05.076.111.118.163.8.978.787,1.133-.115,2.037a.78.78,0,0,1-.61.21q-7.7,0-15.392.005A.53.53,0,0,1,2995.428,700.507Z" transform="translate(-2993.154 -634.816)" fill="#19424e"/>
        <path id="Trazado_150782" data-name="Trazado 150782" d="M3180.5,600.294a3.227,3.227,0,0,0,1.487,3.133c.48.311.022.633-.013.939s-.309.28-.537.223a2.155,2.155,0,0,1-1.284-1.017c-1.445-2.259-2.873-4.528-4.3-6.8a2.179,2.179,0,0,1,.232-1.62c.268-.249.479-.044.61.153a15.3,15.3,0,0,1,1.4,2.272,3.757,3.757,0,0,0,2.08,2.219C3180.528,599.939,3180.52,599.96,3180.5,600.294Z" transform="translate(-3149.173 -548.495)" fill="#344a5a"/>
        <path id="Trazado_150783" data-name="Trazado 150783" d="M3385.889,470.547a10.415,10.415,0,0,0,1.715-1.06q1.461,2.333,2.925,4.664c.21.332.156.548-.173.779-1.246.874-1.244.884-2.049-.428S3386.695,471.866,3385.889,470.547Z" transform="translate(-3330.943 -439.878)" fill="#d43f3d"/>
        <path id="Trazado_150784" data-name="Trazado 150784" d="M3073.684,545.215c-.327.005-.526-.241-.695-.51-.75-1.193-1.5-2.386-2.233-3.59a1.093,1.093,0,0,1,.824-1.664c.231-.026.313.147.4.293.932,1.5,1.851,3.011,2.792,4.507.175.278.139.434-.137.578A1.963,1.963,0,0,1,3073.684,545.215Z" transform="translate(-3058.177 -500.402)" fill="#344a5a"/>
        <path id="Trazado_150785" data-name="Trazado 150785" d="M3104.139,673.1c1.224,1.448,2.434,2.907,3.681,4.334.314.36.183.55-.126.714-.266.141-.432.741-.888.189-1.192-1.445-2.41-2.869-3.618-4.3C3103.393,673.606,3103.831,673.417,3104.139,673.1Z" transform="translate(-3086.378 -616.02)" fill="#93a2a7"/>
        <path id="Trazado_150786" data-name="Trazado 150786" d="M3231.461,614.134a1.217,1.217,0,0,1-.03,2.075c-1.129.757-2.306,1.448-3.493,2.114-.634.356-1.286.047-1.694-.7.362-.39.9-.465,1.328-.738A18.164,18.164,0,0,0,3231.461,614.134Z" transform="translate(-3192.834 -565.012)" fill="#ecd3bd"/>
        <path id="Trazado_150787" data-name="Trazado 150787" d="M3242.069,647.1a1.21,1.21,0,0,1,0,2.13c-1.073.712-2.176,1.382-3.295,2.02a1.2,1.2,0,0,1-1.826-.658c1.042-.566,2.059-1.172,3.073-1.785A6.7,6.7,0,0,0,3242.069,647.1Z" transform="translate(-3202.096 -593.529)" fill="#ecd3bd"/>
        <path id="Trazado_150788" data-name="Trazado 150788" d="M3230.893,612.218a4.426,4.426,0,0,1-2.058,1.819,12.344,12.344,0,0,1-3.159,1.674,1.259,1.259,0,0,1,.551-1.608q1.581-1,3.19-1.951A1.16,1.16,0,0,1,3230.893,612.218Z" transform="translate(-3192.266 -563.096)" fill="#fce4cf"/>
        <path id="Trazado_150789" data-name="Trazado 150789" d="M3083.2,648.967c-.108.524-.6.656-.95.936-1.048-1.216-2.089-2.436-3.148-3.642-.187-.213-.138-.327.052-.472a4.285,4.285,0,0,0,.511-.432c.234-.245.387-.176.582.062C3081.22,646.609,3082.21,647.786,3083.2,648.967Z" transform="translate(-3065.436 -591.891)" fill="#cbd2dc"/>
        <path id="Trazado_150790" data-name="Trazado 150790" d="M3241.23,645.594a1.391,1.391,0,0,1-.661.975,35.809,35.809,0,0,1-3.876,2.381,2.261,2.261,0,0,1-.581.136,1.085,1.085,0,0,1,.488-1.487c1.125-.726,2.278-1.409,3.436-2.081A1.015,1.015,0,0,1,3241.23,645.594Z" transform="translate(-3201.257 -592.025)" fill="#fce5cf"/>
        <path id="Trazado_150791" data-name="Trazado 150791" d="M3219.346,554.228a1.245,1.245,0,0,1-.211.7c-.421.689-.718.691-1.134.016q-.4-.655-.807-1.309c-.1-.154-.217-.3.034-.432a1.438,1.438,0,0,1,1.341-.129A1.344,1.344,0,0,1,3219.346,554.228Z" transform="translate(-3184.905 -512.091)" fill="#efd6c1"/>
        <path id="Trazado_150792" data-name="Trazado 150792" d="M3233.636,585.077a1.237,1.237,0,0,1,.045,1.994,8.986,8.986,0,0,1-1.011.642,8.51,8.51,0,0,1-1.12.6,3.616,3.616,0,0,0,.623-2.552c.3.356.546.255.817-.057C3233.186,585.483,3233.3,585.163,3233.636,585.077Z" transform="translate(-3197.425 -539.875)" fill="#ead1bb"/>
        <path id="Trazado_150793" data-name="Trazado 150793" d="M3170.151,573.119c.122-.446-.018-1.042.626-1.2a1.787,1.787,0,0,1,1.946.694,2.179,2.179,0,0,1,.509,1.073A3.04,3.04,0,0,0,3170.151,573.119Z" transform="translate(-3144.307 -528.44)" fill="#ead2bc"/>
        <path id="Trazado_150794" data-name="Trazado 150794" d="M3197.887,590.995a2.292,2.292,0,0,0,2.645.232c.176-.1.351-.191.364-.426.3.786.091,1.173-.894,1.687a1,1,0,0,1-1.488-.391C3198.287,591.741,3198.095,591.363,3197.887,590.995Z" transform="translate(-3168.302 -544.827)" fill="#ebd2bc"/>
        <path id="Trazado_150795" data-name="Trazado 150795" d="M3236.49,583.117a2.772,2.772,0,0,1-1.253,1.258c-.192-.14.008-.439-.21-.569.018-.268-.416-.573.011-.8A1.181,1.181,0,0,1,3236.49,583.117Z" transform="translate(-3200.279 -537.915)" fill="#fbe3ce"/>
      </g>
    </g>
  </g>
</svg>
