<svg xmlns="http://www.w3.org/2000/svg" width="77" height="77" viewBox="0 0 77 77">
  <g id="icon8" transform="translate(-623 -1508)">
    <rect id="Rectángulo_35443" data-name="Rectángulo 35443" width="77" height="77" transform="translate(623 1508)" fill="none"/>
    <g id="_39u3vt" data-name="39u3vt" transform="translate(-2554.179 822.04)">
      <g id="Grupo_133656" data-name="Grupo 133656" transform="translate(3182.179 700.96)">
        <path id="Trazado_150796" data-name="Trazado 150796" d="M3222.232,701.608a1,1,0,0,1,1.07-.647q9.2.006,18.392.007c1.075,0,1.634.625,1.635,1.788,0,5.743.01,11.487-.012,17.23,0,.582.131.827.733.735.252-.039.517.014.773-.01a3.071,3.071,0,0,1,3.521,2.224v23.13a2.953,2.953,0,0,1-2.182,2.11,18.045,18.045,0,0,1-3.777.057c-.466-.017-.724-.41-.787-.885-.143-.634.2-1.084.942-1.182a11.85,11.85,0,0,1,1.721-.029c.323-.018.646,0,.968-.026.665-.042.911-.294.962-.967.017-.215.01-.43.01-.646q0-10.042,0-20.084c0-.065,0-.129,0-.194-.009-1.181-.154-1.327-1.348-1.339-.215,0-.43-.024-.645-.011-2.8.023-5.592,0-8.388.011-1.159,0-1.353.186-1.354,1.35q-.009,10.259,0,20.519c0,1.15.219,1.359,1.359,1.367.839.006,1.678,0,2.517.005a1.571,1.571,0,0,1,.874.178c.368.242.721.51.472,1.04a1.09,1.09,0,0,1-1.255.932c-1.054-.026-2.11,0-3.165-.009a2.824,2.824,0,0,1-2.928-2.931c-.014-1.4-.017-2.8.005-4.2.006-.378-.065-.511-.484-.509q-4.618.031-9.236,0c-.363,0-.482.093-.473.465.025.968.023,1.938,0,2.906-.008.367.108.484.476.478,1.162-.02,2.325-.014,3.488,0,.775.006,1.182.356,1.172.974s-.422.959-1.2.959q-13.338,0-26.676,0c-.746,0-1.2-.385-1.2-.975s.439-.953,1.2-.958c1.141-.008,2.283-.022,3.423.007.435.011.544-.129.53-.547-.031-.925-.033-1.852,0-2.776.016-.428-.115-.531-.533-.529-3.337.017-6.674.01-10.011.01q-4.425,0-8.848,0a1.58,1.58,0,0,1-1.8-1.771q0-18.052,0-36.1a1.573,1.573,0,0,1,1.769-1.8q17.536,0,35.072-.005c.575,0,1.014.157,1.17.77a.945.945,0,0,1-.738,1.3,4.374,4.374,0,0,1-1.22.08q-16.308,0-32.616,0c-1.289,0-1.29,0-1.29,1.259q0,16.437,0,32.873c0,1.24,0,1.241,1.238,1.241h45.211c.172,0,.344,0,.517,0,.733-.021.814-.1.814-.826,0-.744-.075-.817-.95-.817q-8.654,0-17.309,0H3199.51c-.28,0-.561.009-.839-.016-.73-.066-1-.315-1.153-1.06a1.16,1.16,0,0,1,.992-1.177,4.794,4.794,0,0,1,1.348-.1q15.4,0,30.806,0c1.594,0,1.444.115,1.447-1.479.007-2.971,0-5.941,0-8.912a4.261,4.261,0,0,1,.146-1.343,2.915,2.915,0,0,1,2.444-2.2c.579,0,1.159-.015,1.739-.016.8,0,.846-.043.848-.83.006-1.847,0-3.694,0-5.542,0-1.4.014-2.792-.006-4.188a2.87,2.87,0,0,0-1.268-2.537,3.407,3.407,0,0,0-1.934-.342,6.317,6.317,0,0,1-.775.016h-41.934c-.258,0-.517-.007-.775.011a2.389,2.389,0,0,0-2.26,2.245c-.014.194-.011.387-.011.581q0,10.854,0,21.709c0,.065,0,.129,0,.194a2.416,2.416,0,0,0,2.605,2.629c1.12.014,2.24-.023,3.36.015a1.434,1.434,0,0,1,1.6,1.2c-.164.8-.474,1.107-1.245,1.123-1.464.03-2.931.066-4.392-.008a4.771,4.771,0,0,1-4.261-4.393c-.028-.732-.008-1.464-.008-2.2q0-10.271,0-20.543a4.691,4.691,0,0,1,2.866-4.516,4.6,4.6,0,0,1,2.072-.395q14.858.006,29.717,0c4.544,0,9.089.08,13.631-.03a4.987,4.987,0,0,1,5.217,3.964,5.733,5.733,0,0,1,.147,1.536q0,4.711,0,9.423c0,.763.081.848.7.864.712.019.815-.069.816-.812q.01-7.906,0-15.813c0-.717-.073-.776-.772-.792-.323-.008-.646.007-.968-.016-4.641.039-9.281.007-13.921.016-.752,0-1.505.037-2.255-.018C3222.312,703.027,3221.975,702.51,3222.232,701.608Z" transform="translate(-3182.18 -700.96)"/>
        <path id="Trazado_150797" data-name="Trazado 150797" d="M3226.719,703.124c-.048,1,.237,1.3,1.265,1.3h15.155c.257,0,.515.013.773.02a.706.706,0,0,1,.2.529q.037,2.347,0,4.693c0,.216.022.494-.3.564a5.5,5.5,0,0,0-1.084-2.168,4.986,4.986,0,0,0-3.979-1.624q-18.962.028-37.924.011c-1.852,0-3.7-.02-5.556.01a4.638,4.638,0,0,0-4.519,3.63,5.537,5.537,0,0,0-.105,1.347c0,7.257.045,14.515-.026,21.771a4.824,4.824,0,0,0,4.979,5c1.139-.048,2.282-.023,3.424,0a1.074,1.074,0,0,0,1.23-.959,2.23,2.23,0,0,1,1.9-.009c.188.793.4.96,1.267.961q6.623.005,13.245,0c6.461,0,12.923.009,19.383-.014.606,0,.821.12.793.766-.053,1.269-.014,1.271-1.294,1.271q-23.066,0-46.132.013c-.612,0-.826-.092-.824-.784q.04-17.153,0-34.307c0-.6.167-.732.744-.731q17.025.025,34.05.012c.969,0,1.271-.279,1.295-1.174A2.08,2.08,0,0,0,3226.719,703.124Z" transform="translate(-3186.667 -702.476)" fill="#857f85"/>
        <path id="Trazado_150798" data-name="Trazado 150798" d="M3365.978,797.033l-1.409.023c-.785.012-1.062.247-1.2,1.02l-1.911-.006c-.2-.8-.441-1.009-1.239-1.013-1.033-.006-2.067,0-3.1,0-.739-.006-1.07-.322-1.071-1.06q-.008-10.786,0-21.571c0-.671.3-1.03.891-1.03,3.013-.005,6.027.011,9.04.02.408.257.408.7.428,1.088.067,1.3.035,2.612.018,3.919a.684.684,0,0,1-.262.623c-1.076.31-1.163.4-1.174,1.219-.015,1.067.069,1.174,1.13,1.441a1.531,1.531,0,0,1,.02,1.875c-1.11.29-1.364.706-1.133,1.863a.773.773,0,0,0,.753.664c.2.021.44-.061.577.179.077.623.312,1.264-.2,1.821-1.1.28-1.375.745-1.125,1.878a.781.781,0,0,0,.727.624c.222.037.491-.044.619.24a20.906,20.906,0,0,1,.08,3.063,16.725,16.725,0,0,1-.02,1.982C3366.375,796.3,3366.413,796.764,3365.978,797.033Z" transform="translate(-3303.948 -751.688)" fill="#df8086"/>
        <path id="Trazado_150799" data-name="Trazado 150799" d="M3211.445,749.5l-1.9.009c-.246-.8-.456-.966-1.286-.97-1.141-.006-2.283.012-3.424-.005a2.757,2.757,0,0,1-2.967-2.992q-.009-10.95,0-21.9a2.743,2.743,0,0,1,2.96-2.993q21.32-.008,42.641,0c.149,0,.3.025.448.038a3.712,3.712,0,0,1,1.212,2.95c.053,3.373.023,6.748.016,10.122,0,.391-.065.746-.58.742a2.877,2.877,0,0,0-2.441,3.149c0,3.4-.014,6.8.013,10.2,0,.552-.109.709-.692.707q-16.3-.031-32.594-.015C3211.863,748.535,3211.647,748.686,3211.445,749.5Z" transform="translate(-3195.964 -714.744)" fill="#cbe1fd"/>
        <path id="Trazado_150800" data-name="Trazado 150800" d="M3266.822,837.217c-2.3,0-4.607-.01-6.91.009-.434,0-.613-.094-.6-.567.034-.946.021-1.894,0-2.841-.005-.324.081-.453.432-.453q7.007.015,14.015,0c.375,0,.477.132.47.487-.019.947-.028,1.895,0,2.841.015.452-.176.533-.572.53C3271.385,837.21,3269.1,837.217,3266.822,837.217Z" transform="translate(-3236.203 -793.693)" fill="#776f77"/>
        <path id="Trazado_150801" data-name="Trazado 150801" d="M3389.115,778.966c.164-.032.277-.114.27-.3a30.857,30.857,0,0,0-.172-5.092.793.793,0,0,0-.081-.174c.43-.009.859-.03,1.289-.023a.843.843,0,0,1,.9.883c.013.171,0,.344,0,.516q0,10.426,0,20.852c0,1.213-.2,1.416-1.422,1.415-.258,0-.516-.014-.774-.021a4.15,4.15,0,0,0,.257-1.37q0-2.474,0-4.949c-.061-.164.047-.281.115-.41a1.59,1.59,0,0,0-.289-2.069.244.244,0,0,1-.086-.222c.3-.047.262-.28.262-.488,0-.443,0-.887,0-1.33-.066-.165.043-.281.111-.409a1.56,1.56,0,0,0-.25-2.019c-.073-.079-.148-.152-.127-.272a1.36,1.36,0,0,0-.019-1.711c.167-.449.639-.7.663-1.275A2.542,2.542,0,0,0,3389.115,778.966Z" transform="translate(-3327.102 -751.68)" fill="#da6470"/>
        <path id="Trazado_150802" data-name="Trazado 150802" d="M3372.883,713.068c.172-.179.1-.4.1-.609,0-1.726,0-3.451,0-5.177.621-.021,1.413-.262,1.815.079.42.356.138,1.172.14,1.785.012,5.059,0,10.119.018,15.178,0,.554-.089.8-.726.769-1.268-.053-1.269-.013-1.269-1.312q0-3.876,0-7.751A23.9,23.9,0,0,0,3372.883,713.068Z" transform="translate(-3315.743 -705.316)" fill="#787078"/>
        <path id="Trazado_150803" data-name="Trazado 150803" d="M3356.206,734.539a.586.586,0,0,0,.395-.633c-.015-3.4.009-6.8-.022-10.2a3.861,3.861,0,0,0-.737-2.419c-.125-.16-.3-.32-.283-.563a2.8,2.8,0,0,1,3.33,2.982c.008,3.421-.005,6.842.012,10.263,0,.441-.1.609-.566.583C3357.627,734.513,3356.916,734.541,3356.206,734.539Z" transform="translate(-3303.608 -714.788)" fill="#bed8f9"/>
        <path id="Trazado_150804" data-name="Trazado 150804" d="M3362.538,779.123a4.915,4.915,0,0,1-.794-.085.867.867,0,0,1-.69-1.016.842.842,0,0,1,.828-.834,11.612,11.612,0,0,1,1.418-.011.953.953,0,0,1,.111,1.9A8.557,8.557,0,0,1,3362.538,779.123Z" transform="translate(-3307.454 -754.329)" fill="#010101"/>
        <path id="Trazado_150805" data-name="Trazado 150805" d="M3386.386,792.026c.667.278.774.823.773,1.474a1.275,1.275,0,0,1-.786,1.335c-.974-.079-1.175-.339-1.167-1.509C3385.213,792.365,3385.466,792.087,3386.386,792.026Z" transform="translate(-3324.374 -764.74)" fill="#010101"/>
        <path id="Trazado_150806" data-name="Trazado 150806" d="M3386.3,807.111a1.7,1.7,0,0,1,.267,2.7q-1.307.261-1.442-.773C3384.953,807.669,3385.255,807.172,3386.3,807.111Z" transform="translate(-3324.287 -775.305)" fill="#010101"/>
        <path id="Trazado_150807" data-name="Trazado 150807" d="M3386.315,822.2a1.7,1.7,0,0,1,.26,2.7c-.856.185-1.354-.085-1.441-.781C3384.961,822.743,3385.265,822.248,3386.315,822.2Z" transform="translate(-3324.292 -785.87)" fill="#020101"/>
        <path id="Trazado_150808" data-name="Trazado 150808" d="M3373.116,793.434c0-.15-.01-.3,0-.448a.9.9,0,0,1,.9-.9.884.884,0,0,1,.983.813,4.141,4.141,0,0,1,.015,1.084.947.947,0,0,1-1,.881.934.934,0,0,1-.906-.977c-.005-.15,0-.3,0-.449Z" transform="translate(-3315.901 -764.779)" fill="#020101"/>
        <path id="Trazado_150809" data-name="Trazado 150809" d="M3373.081,808.531c.01-.192,0-.386.032-.575a.943.943,0,0,1,1.835-.135,2.591,2.591,0,0,1,.013,1.393.946.946,0,0,1-1.861-.17c-.014-.17,0-.342,0-.512Z" transform="translate(-3315.882 -775.333)" fill="#020101"/>
        <path id="Trazado_150810" data-name="Trazado 150810" d="M3360.976,793.459c.01-.192,0-.386.032-.575a.888.888,0,0,1,.858-.809.874.874,0,0,1,.977.659,2.538,2.538,0,0,1,0,1.455.873.873,0,0,1-.979.656.885.885,0,0,1-.856-.811C3360.981,793.845,3360.986,793.651,3360.976,793.459Z" transform="translate(-3307.404 -764.771)" fill="#020101"/>
        <path id="Trazado_150811" data-name="Trazado 150811" d="M3360.978,808.557a5.635,5.635,0,0,1,.03-.575.946.946,0,0,1,1.853-.114,2.99,2.99,0,0,1,.034,1.209.93.93,0,0,1-.954.862.944.944,0,0,1-.946-.933c-.014-.148,0-.3,0-.448Z" transform="translate(-3307.405 -775.338)" fill="#020101"/>
        <path id="Trazado_150812" data-name="Trazado 150812" d="M3360.972,823.59a5.09,5.09,0,0,1,.038-.574.946.946,0,0,1,1.841-.095,2.93,2.93,0,0,1,.044,1.209.95.95,0,0,1-1,.882.937.937,0,0,1-.911-.974c-.006-.149,0-.3,0-.448Z" transform="translate(-3307.401 -785.897)" fill="#020101"/>
        <path id="Trazado_150813" data-name="Trazado 150813" d="M3373.077,823.559a4.571,4.571,0,0,1,.038-.575.945.945,0,0,1,1.444-.62,1.769,1.769,0,0,1-.027,2.5.942.942,0,0,1-1.422-.663A5.613,5.613,0,0,1,3373.077,823.559Z" transform="translate(-3315.879 -785.881)" fill="#020101"/>
      </g>
    </g>
  </g>
</svg>
