<svg xmlns="http://www.w3.org/2000/svg" xmlns:xlink="http://www.w3.org/1999/xlink" width="361.656" height="381.797" viewBox="0 0 361.656 381.797">
  <defs>
    <clipPath id="clip-path">
      <path id="Trazado_151178" data-name="Trazado 151178" d="M152.312,108.253V61.488a17.422,17.422,0,0,0-17.421-17.422H68.873A17.421,17.421,0,0,0,51.452,61.488v77.021A17.421,17.421,0,0,0,68.873,155.93h66.018a17.422,17.422,0,0,0,17.421-17.421v-17.9l11.926,3.438Z" transform="translate(-51.452 -44.066)" fill="#f94e4e"/>
    </clipPath>
  </defs>
  <g id="img3" transform="translate(-254 -3447)">
    <path id="Trazado_148788" data-name="Trazado 148788" d="M-5619.141-856.675c.01-.891.033-1.78.033-2.673,0-123.93-100.135-224.478-223.954-225.254V-1217.45c197.234.779,356.882,160.8,356.882,358.1,0,.892-.009,1.782-.017,2.673Z" transform="translate(6097.062 4674.45)" fill="#bcbcbc" style="isolation: isolate"/>
    <g id="Grupo_134481" data-name="Grupo 134481" transform="translate(-223.526 -75)">
      <g id="Grupo_134480" data-name="Grupo 134480" transform="translate(505 3522)">
        <g id="Grupo_134479" data-name="Grupo 134479" transform="translate(0 0)">
          <g id="Grupo_134455" data-name="Grupo 134455">
            <g id="Grupo_134426" data-name="Grupo 134426" transform="translate(0 160.827)">
              <g id="Grupo_134424" data-name="Grupo 134424" transform="translate(210.835)">
                <path id="Trazado_151111" data-name="Trazado 151111" d="M431.064,266.173l-10.989-5.323v-3.619a12.319,12.319,0,0,0-12.319-12.319H322.638a12.319,12.319,0,0,0-12.319,12.319v41.445a12.319,12.319,0,0,0,12.319,12.319h85.118a12.319,12.319,0,0,0,12.319-12.319V270.194Z" transform="translate(-310.319 -244.912)" fill="#eaeaea"/>
              </g>
              <g id="Grupo_134425" data-name="Grupo 134425" transform="translate(0 102.554)">
                <path id="Trazado_151112" data-name="Trazado 151112" d="M167.766,394.246l-10.99-5.323V385.3a12.319,12.319,0,0,0-12.319-12.319H59.34A12.319,12.319,0,0,0,47.021,385.3v41.446A12.319,12.319,0,0,0,59.34,439.068h85.117a12.319,12.319,0,0,0,12.319-12.319V398.267Z" transform="translate(-47.021 -372.985)" fill="#eaeaea"/>
              </g>
              <path id="Trazado_151113" data-name="Trazado 151113" d="M455.784,330.552l1.769,3.585,3.956.575-2.863,2.791.676,3.94-3.539-1.86-3.539,1.86.676-3.94-2.863-2.791,3.956-.575Z" transform="translate(-127.328 -261.976)" fill="#eaeaea"/>
              <path id="Trazado_151114" data-name="Trazado 151114" d="M70.263,245.708l1.769,3.585,3.956.575-2.863,2.791.676,3.94-3.539-1.86-3.539,1.86.676-3.94-2.863-2.791,3.956-.575Z" transform="translate(-50.511 -245.071)" fill="#eaeaea"/>
              <path id="Trazado_151115" data-name="Trazado 151115" d="M87.816,245.708l1.769,3.585,3.956.575-2.863,2.791.676,3.94-3.539-1.86-3.539,1.86.676-3.94-2.863-2.791,3.956-.575Z" transform="translate(-54.009 -245.071)" fill="#eaeaea"/>
            </g>
            <g id="Grupo_134428" data-name="Grupo 134428" transform="translate(58.331 19.419)">
              <rect id="Rectángulo_35498" data-name="Rectángulo 35498" width="6.474" height="14.762" transform="translate(164.593 33.107)" fill="#03091c"/>
              <rect id="Rectángulo_35499" data-name="Rectángulo 35499" width="6.474" height="35.634" transform="translate(164.593 57.875)" fill="#03091c"/>
              <rect id="Rectángulo_35500" data-name="Rectángulo 35500" width="167.289" height="285.728" rx="11.464" fill="#03091c"/>
              <g id="Grupo_134427" data-name="Grupo 134427" transform="translate(6.452 6.872)">
                <path id="Trazado_151116" data-name="Trazado 151116" d="M246.248,76.9h0c0,8.676-7.034,8.8-15.71,8.8H179.7c-8.676,0-15.71-.121-15.71-8.8H137.1a9.18,9.18,0,0,0-9.18,9.18V340.394a9.18,9.18,0,0,0,9.18,9.18H273.13a9.18,9.18,0,0,0,9.18-9.18V86.079a9.18,9.18,0,0,0-9.18-9.18Z" transform="translate(-127.924 -76.899)" fill="#fff" stroke="#03091c" stroke-linecap="round" stroke-linejoin="round" stroke-width="0.863"/>
              </g>
              <rect id="Rectángulo_35501" data-name="Rectángulo 35501" width="167.289" height="285.728" rx="11.464" fill="none" stroke="#03091c" stroke-linecap="round" stroke-linejoin="round" stroke-width="0.863"/>
              <path id="Trazado_151117" data-name="Trazado 151117" d="M241.922,80.867h-33.9a1.956,1.956,0,0,1-1.955-1.955h0a1.956,1.956,0,0,1,1.955-1.956h33.9a1.956,1.956,0,0,1,1.955,1.956h0A1.956,1.956,0,0,1,241.922,80.867Z" transform="translate(-137.043 -70.038)" fill="#fff"/>
              <path id="Trazado_151118" data-name="Trazado 151118" d="M199.572,78.874a2.1,2.1,0,1,1-2.1-2.1A2.1,2.1,0,0,1,199.572,78.874Z" transform="translate(-134.91 -70.001)" fill="#fff"/>
            </g>
            <g id="Grupo_134429" data-name="Grupo 134429" transform="translate(236.587 3.431)">
              <path id="Trazado_151119" data-name="Trazado 151119" d="M342.479,64.014l8.1-3.921V57.427a9.075,9.075,0,0,1,9.075-9.076h62.706a9.075,9.075,0,0,1,9.075,9.076V87.959a9.075,9.075,0,0,1-9.075,9.075H359.65a9.075,9.075,0,0,1-9.075-9.075V66.976Z" transform="translate(-342.479 -48.351)" fill="#3e2ea6"/>
              <path id="Trazado_151120" data-name="Trazado 151120" d="M371.865,60.982l1.368,4.209h4.426l-3.581,2.6L375.445,72l-3.581-2.6L368.284,72l1.368-4.209-3.581-2.6H370.5Z" transform="translate(-347.18 -50.868)" fill="#fff"/>
              <line id="Línea_200" data-name="Línea 200" x1="58.549" transform="translate(18.867 27.479)" fill="none" stroke="#fff" stroke-linecap="round" stroke-linejoin="round" stroke-width="1.586"/>
              <line id="Línea_201" data-name="Línea 201" x1="58.549" transform="translate(18.867 31.924)" fill="none" stroke="#fff" stroke-linecap="round" stroke-linejoin="round" stroke-width="1.586"/>
              <line id="Línea_202" data-name="Línea 202" x1="50.294" transform="translate(27.122 36.369)" fill="none" stroke="#fff" stroke-linecap="round" stroke-linejoin="round" stroke-width="1.586"/>
              <g id="Trazado_151121" data-name="Trazado 151121" transform="translate(-359.097 -50.868)" fill="none" stroke-linecap="round" stroke-linejoin="round">
                <path d="M431.672,60.982l1.368,4.209h4.426l-3.581,2.6L435.252,72l-3.581-2.6L428.091,72l1.368-4.209-3.581-2.6H430.3Z" stroke="none"/>
                <path d="M 431.6716003417969 63.82553863525391 L 431.1396789550781 65.46263122558594 C 431.0220336914062 65.82469177246094 430.6846618652344 66.06983184814453 430.303955078125 66.06983184814453 L 428.5823669433594 66.06983184814453 L 429.9751281738281 67.08175659179688 C 430.2831115722656 67.30552673339844 430.4119873046875 67.7021484375 430.2943420410156 68.06420135498047 L 429.7623901367188 69.70130920410156 L 431.1550598144531 68.68948364257812 C 431.4630126953125 68.46575164794922 431.8800659179688 68.4656982421875 432.1880798339844 68.68949127197266 L 433.5807189941406 69.70131683349609 L 433.0487976074219 68.06419372558594 C 432.9311828613281 67.7021484375 433.0600280761719 67.30551147460938 433.3680114746094 67.08175659179688 L 434.7607727050781 66.06983184814453 L 433.0392456054688 66.06983184814453 C 432.6585693359375 66.06983184814453 432.3211669921875 65.82470703125 432.2035217285156 65.46265411376953 L 431.6716003417969 63.82553863525391 M 431.6715698242188 60.98189544677734 L 433.0392456054688 65.19110107421875 L 437.4651489257812 65.19110107421875 L 433.884521484375 67.79265594482422 L 435.2521362304688 72.00185394287109 L 431.6715698242188 69.400390625 L 428.0909423828125 72.00185394287109 L 429.4586181640625 67.79265594482422 L 425.8779907226562 65.19110107421875 L 430.303955078125 65.19110107421875 L 431.6715698242188 60.98189544677734 Z" stroke="none" fill="#fff"/>
              </g>
              <g id="Trazado_151122" data-name="Trazado 151122" transform="translate(-350.159 -50.868)" fill="none" stroke-linecap="round" stroke-linejoin="round">
                <path d="M386.816,60.982l1.368,4.209h4.426l-3.581,2.6L390.4,72l-3.581-2.6L383.236,72l1.368-4.209-3.581-2.6h4.426Z" stroke="none"/>
                <path d="M 386.8163452148438 63.82550811767578 L 386.2843933105469 65.462646484375 C 386.166748046875 65.82470703125 385.8293762207031 66.06983184814453 385.4486694335938 66.06983184814453 L 383.7271118164062 66.06983184814453 L 385.1199035644531 67.08175659179688 C 385.4278869628906 67.30551147460938 385.5567321777344 67.70213317871094 385.4391174316406 68.06418609619141 L 384.9071960449219 69.70132446289062 L 386.2998352050781 68.68949127197266 C 386.6078186035156 68.4656982421875 387.0248718261719 68.46573638916016 387.3328552246094 68.68949127197266 L 388.7254333496094 69.70127868652344 L 388.1935119628906 68.06419372558594 C 388.0758972167969 67.70213317871094 388.2047424316406 67.30551147460938 388.5127258300781 67.08175659179688 L 389.9054870605469 66.06983184814453 L 388.1839904785156 66.06983184814453 C 387.8033142089844 66.06983184814453 387.4659118652344 65.82470703125 387.3482666015625 65.462646484375 L 386.8163452148438 63.82550811767578 M 386.8163452148438 60.98189544677734 L 388.1839904785156 65.19110107421875 L 392.6098937988281 65.19110107421875 L 389.0292358398438 67.79265594482422 L 390.3968505859375 72.00185394287109 L 386.8163452148438 69.400390625 L 383.2358093261719 72.00185394287109 L 384.6033935546875 67.79265594482422 L 381.0226745605469 65.19110107421875 L 385.4486694335938 65.19110107421875 L 386.8163452148438 60.98189544677734 Z" stroke="none" fill="#fff"/>
              </g>
              <g id="Trazado_151123" data-name="Trazado 151123" transform="translate(-353.138 -50.868)" fill="none" stroke-linecap="round" stroke-linejoin="round">
                <path d="M401.768,60.982l1.368,4.209h4.426l-3.581,2.6L405.349,72l-3.581-2.6L398.187,72l1.368-4.209-3.581-2.6H400.4Z" stroke="none"/>
                <path d="M 401.76806640625 63.825439453125 L 401.2361145019531 65.46265411376953 C 401.1184692382812 65.82470703125 400.7810668945312 66.06983184814453 400.400390625 66.06983184814453 L 398.6788940429688 66.06983184814453 L 400.0716247558594 67.08176422119141 C 400.3796081542969 67.30552673339844 400.5084533691406 67.7021484375 400.3908386230469 68.06419372558594 L 399.8589172363281 69.70132446289062 L 401.2515563964844 68.68949127197266 C 401.5596008300781 68.46572875976562 401.9765930175781 68.46573638916016 402.2845764160156 68.68948364257812 L 403.67724609375 69.70132446289062 L 403.1452941894531 68.06420135498047 C 403.0276489257812 67.70215606689453 403.1565246582031 67.30551147460938 403.4645080566406 67.08175659179688 L 404.8572692871094 66.06983184814453 L 403.1357727050781 66.06983184814453 C 402.7550964355469 66.06983184814453 402.4176940917969 65.82470703125 402.3000793457031 65.46265411376953 L 401.76806640625 63.825439453125 M 401.76806640625 60.98189544677734 L 403.1357727050781 65.19110107421875 L 407.5617065429688 65.19110107421875 L 403.9810180664062 67.79265594482422 L 405.3487243652344 72.00185394287109 L 401.76806640625 69.400390625 L 398.1874694824219 72.00185394287109 L 399.5551147460938 67.79265594482422 L 395.9745788574219 65.19110107421875 L 400.400390625 65.19110107421875 L 401.76806640625 60.98189544677734 Z" stroke="none" fill="#fff"/>
              </g>
              <g id="Trazado_151124" data-name="Trazado 151124" transform="translate(-356.117 -50.868)" fill="none" stroke-linecap="round" stroke-linejoin="round">
                <path d="M416.72,60.982l1.368,4.209h4.426l-3.581,2.6L420.3,72l-3.581-2.6L413.139,72l1.368-4.209-3.581-2.6h4.426Z" stroke="none"/>
                <path d="M 416.7198791503906 63.82548522949219 L 416.1879272460938 65.462646484375 C 416.0702819824219 65.82470703125 415.73291015625 66.06983184814453 415.3522033691406 66.06983184814453 L 413.6306762695312 66.06983184814453 L 415.0234375 67.08175659179688 C 415.3314208984375 67.30552673339844 415.4602966308594 67.7021484375 415.3426513671875 68.06420135498047 L 414.8106994628906 69.70130920410156 L 416.203369140625 68.68948364257812 C 416.5113525390625 68.46572875976562 416.9284057617188 68.46572875976562 417.2363891601562 68.68948364257812 L 418.6289672851562 69.70124816894531 L 418.0969848632812 68.06422424316406 C 417.9793395996094 67.70216369628906 418.1082153320312 67.30552673339844 418.4161987304688 67.08175659179688 L 419.8089294433594 66.06983184814453 L 418.0875549316406 66.06983184814453 C 417.7068786621094 66.06983184814453 417.3694763183594 65.82470703125 417.2518310546875 65.46265411376953 L 416.7198791503906 63.82548522949219 M 416.7198791503906 60.98189544677734 L 418.0875549316406 65.19110107421875 L 422.5133056640625 65.19110107421875 L 418.9327087402344 67.79265594482422 L 420.3005065917969 72.00185394287109 L 416.7198791503906 69.400390625 L 413.1392517089844 72.00185394287109 L 414.5069274902344 67.79265594482422 L 410.9263000488281 65.19110107421875 L 415.3522033691406 65.19110107421875 L 416.7198791503906 60.98189544677734 Z" stroke="none" fill="#fff"/>
              </g>
            </g>
            <g id="Grupo_134432" data-name="Grupo 134432" transform="translate(236.587 55.712)">
              <path id="Trazado_151125" data-name="Trazado 151125" d="M342.479,129.66l8.28-4.011v-2.727a9.281,9.281,0,0,1,9.281-9.281h16.53a9.281,9.281,0,0,1,9.281,9.281v14.813a9.282,9.282,0,0,1-9.281,9.281h-16.53a9.281,9.281,0,0,1-9.281-9.281v-5.046Z" transform="translate(-342.479 -113.641)" fill="#3e2ea6"/>
              <g id="Grupo_134431" data-name="Grupo 134431" transform="translate(17.224 9.198)">
                <path id="Trazado_151126" data-name="Trazado 151126" d="M363.989,132.617a7.489,7.489,0,1,0,7.489-7.489A7.489,7.489,0,0,0,363.989,132.617Z" transform="translate(-363.989 -125.128)" fill="none" stroke="#fff" stroke-linecap="round" stroke-linejoin="round" stroke-width="1.025"/>
                <path id="Trazado_151127" data-name="Trazado 151127" d="M376.06,139.209a25.313,25.313,0,0,0-7.238-.022" transform="translate(-364.952 -127.88)" fill="none" stroke="#fff" stroke-linecap="round" stroke-linejoin="round" stroke-width="1.025"/>
                <g id="Grupo_134430" data-name="Grupo 134430" transform="translate(3.232 4.411)">
                  <path id="Trazado_151128" data-name="Trazado 151128" d="M374.772,132.193a1.556,1.556,0,1,0,1.556-1.556A1.556,1.556,0,0,0,374.772,132.193Z" transform="translate(-369.369 -130.637)" fill="#fff"/>
                  <path id="Trazado_151129" data-name="Trazado 151129" d="M368.025,132.193a1.556,1.556,0,1,0,1.556-1.556A1.556,1.556,0,0,0,368.025,132.193Z" transform="translate(-368.025 -130.637)" fill="#fff"/>
                </g>
              </g>
            </g>
            <g id="Grupo_134436" data-name="Grupo 134436" transform="translate(282.033 55.712)">
              <path id="Trazado_151130" data-name="Trazado 151130" d="M399.233,129.66l8.28-4.011v-2.727a9.281,9.281,0,0,1,9.281-9.281h16.53a9.281,9.281,0,0,1,9.281,9.281v14.813a9.281,9.281,0,0,1-9.281,9.281h-16.53a9.282,9.282,0,0,1-9.281-9.281v-5.046Z" transform="translate(-399.233 -113.641)" fill="#3e2ea6"/>
              <g id="Grupo_134435" data-name="Grupo 134435" transform="translate(17.223 9.198)">
                <path id="Trazado_151131" data-name="Trazado 151131" d="M420.742,132.617a7.489,7.489,0,1,0,7.489-7.489A7.489,7.489,0,0,0,420.742,132.617Z" transform="translate(-420.742 -125.128)" fill="none" stroke="#fff" stroke-linecap="round" stroke-linejoin="round" stroke-width="1.025"/>
                <path id="Trazado_151132" data-name="Trazado 151132" d="M432.813,139.209a25.307,25.307,0,0,0-7.237-.022" transform="translate(-421.705 -127.88)" fill="none" stroke="#fff" stroke-linecap="round" stroke-linejoin="round" stroke-width="1.025"/>
                <g id="Grupo_134433" data-name="Grupo 134433" transform="translate(8.45 4.411)">
                  <path id="Trazado_151133" data-name="Trazado 151133" d="M431.479,132.193c-.685.518.7,1.556,1.557,1.556a1.556,1.556,0,0,0,0-3.112C432.177,130.637,431.988,131.809,431.479,132.193Z" transform="translate(-431.295 -130.637)" fill="#fff"/>
                </g>
                <g id="Grupo_134434" data-name="Grupo 134434" transform="translate(3.112 4.411)">
                  <path id="Trazado_151134" data-name="Trazado 151134" d="M427.74,132.193c.686.518-.7,1.556-1.556,1.556a1.556,1.556,0,1,1,0-3.112C427.043,130.637,427.23,131.809,427.74,132.193Z" transform="translate(-424.628 -130.637)" fill="#fff"/>
                </g>
              </g>
            </g>
            <g id="Grupo_134454" data-name="Grupo 134454" transform="translate(3.548)">
              <g id="Grupo_134437" data-name="Grupo 134437" transform="translate(4.749 117.156)">
                <path id="Trazado_151135" data-name="Trazado 151135" d="M125.085,202.3l-6.162-2.985v-2.029a6.907,6.907,0,0,0-6.907-6.907H64.29a6.907,6.907,0,0,0-6.907,6.907v23.238a6.907,6.907,0,0,0,6.907,6.907h47.725a6.907,6.907,0,0,0,6.907-6.907v-15.97Z" transform="translate(-57.383 -190.375)" fill="#3e2ea6"/>
                <path id="Trazado_151136" data-name="Trazado 151136" d="M80.583,213.17A5.174,5.174,0,1,1,75.41,208,5.173,5.173,0,0,1,80.583,213.17Z" transform="translate(-59.944 -193.886)" fill="#fff"/>
                <path id="Trazado_151137" data-name="Trazado 151137" d="M99.125,213.17A5.173,5.173,0,1,1,93.953,208,5.173,5.173,0,0,1,99.125,213.17Z" transform="translate(-63.639 -193.886)" fill="#fff"/>
                <path id="Trazado_151138" data-name="Trazado 151138" d="M117.668,213.17A5.174,5.174,0,1,1,112.495,208,5.173,5.173,0,0,1,117.668,213.17Z" transform="translate(-67.333 -193.886)" fill="#fff"/>
              </g>
              <g id="Grupo_134453" data-name="Grupo 134453">
                <path id="Trazado_151139" data-name="Trazado 151139" d="M152.312,108.253V61.488a17.422,17.422,0,0,0-17.421-17.422H68.873A17.421,17.421,0,0,0,51.452,61.488v77.021A17.421,17.421,0,0,0,68.873,155.93h66.018a17.422,17.422,0,0,0,17.421-17.421v-17.9l11.926,3.438Z" transform="translate(-51.452 -44.066)" fill="#3e2ea6"/>
                <g id="Grupo_134452" data-name="Grupo 134452" clip-path="url(#clip-path)">
                  <g id="Grupo_134451" data-name="Grupo 134451" transform="translate(-1.649 5.897)">
                    <g id="Grupo_134450" data-name="Grupo 134450">
                      <g id="Grupo_134438" data-name="Grupo 134438" transform="translate(0 75.547)">
                        <path id="Trazado_151140" data-name="Trazado 151140" d="M153.626,186.841V155.535c-4.161-.017-5.927-2.9-7.372-2.736s-6.119-.966-6.119-.966c-4.484-1.261-8.98-2.58-13.341-4.159a29.151,29.151,0,0,0-4.271-1.3,29.1,29.1,0,0,0-5.379-.375L88.6,145.779a17.605,17.605,0,0,0-3.628.223,38.75,38.75,0,0,0-3.944,1.276c-1.167.37-2.449.239-3.543.577-1.368.423-2.706,1.189-4.078,1.661-2.473.851-4.981,1.613-7.5,2.317,0,0-4.67,1.127-6.119.966s-3.289,1.98-7.407,2.738c-.111.02-2.787.085-2.983.173l.094,31.131Z" transform="translate(-49.393 -145.775)" fill="#683424"/>
                        <path id="Trazado_151141" data-name="Trazado 151141" d="M168.192,182.919a31.171,31.171,0,0,1,4.969-21.672" transform="translate(-73.003 -148.858)" fill="none" stroke="#03091c" stroke-linecap="round" stroke-linejoin="round" stroke-width="0.87"/>
                        <path id="Trazado_151142" data-name="Trazado 151142" d="M73.518,155.148A162.614,162.614,0,0,1,71.684,181.4" transform="translate(-53.835 -147.643)" fill="none" stroke="#03091c" stroke-linecap="round" stroke-linejoin="round" stroke-width="0.87"/>
                      </g>
                      <g id="Grupo_134449" data-name="Grupo 134449" transform="translate(25.965)">
                        <g id="Grupo_134444" data-name="Grupo 134444" transform="translate(0.532 1.163)">
                          <path id="Trazado_151143" data-name="Trazado 151143" d="M134.376,145.174s-9.259-2.9-9.984-7.166V125.287l-13.405,1.666-13.405-1.666v12.721c-.725,4.267-9.984,7.166-9.984,7.166,5.357,14.309,20.539,16.312,23.188,16.555v.031s.07,0,.2-.014c.132.01.2.014.2.014v-.031C113.837,161.486,129.019,159.483,134.376,145.174Z" transform="translate(-83.502 -67.31)" fill="#fdbe8b"/>
                          <path id="Trazado_151144" data-name="Trazado 151144" d="M126.869,137.323V121.852s-.03,0-.03,0l-13.39,1.664-3.423-.426s-9.967-1.238-9.967-1.235l-.031,0v15.409l.031.022c3.048,2.111,6.64,3.43,10.009,4.976a12.862,12.862,0,0,1,4.72,3.081,11.341,11.341,0,0,1,2.061,4.977c.441,2.044.745,4.113,1,6.187a11.428,11.428,0,0,0,.331,2.875c.384.828.063.637,1.013.581,2.028-.117,4.611-1.638,6.35-2.59a25.5,25.5,0,0,0,6.46-4.978c.555-.6,5.411-7.729,4.846-7.9C136.853,144.489,127.594,141.59,126.869,137.323Z" transform="translate(-85.979 -66.625)" fill="#ffaa71"/>
                          <g id="Grupo_134439" data-name="Grupo 134439" transform="translate(47.314 26.256)">
                            <path id="Trazado_151145" data-name="Trazado 151145" d="M145.561,85.69a2.909,2.909,0,0,1,2.415.891,4.25,4.25,0,0,1,.947,1.984,8.189,8.189,0,0,1-.842,5.787c-1,1.775-2.693,3.224-3.1,5.222a19.659,19.659,0,0,1-.392,2.725,3.137,3.137,0,0,1-3.02,2.026q.2-5.413.5-10.823C142.207,91,142.122,86.08,145.561,85.69Z" transform="translate(-141.57 -85.672)" fill="#fdbe8b"/>
                            <path id="Trazado_151146" data-name="Trazado 151146" d="M143.483,94.662c-.006-.251,0-.5.008-.75a22.444,22.444,0,0,1,2.432-8.236,2.728,2.728,0,0,0-.362.015c-3.439.391-3.354,5.306-3.491,7.812q-.3,5.41-.5,10.823a2.923,2.923,0,0,0,1.132-.185c.162-1.165.39-2.326.625-3.475a15.592,15.592,0,0,0,.352-2.3,14.837,14.837,0,0,0-.086-2.108C143.545,95.724,143.5,95.193,143.483,94.662Z" transform="translate(-141.57 -85.673)" fill="#ffaa71"/>
                            <path id="Trazado_151147" data-name="Trazado 151147" d="M144.678,94.132q-.856,1.342-1.637,2.73a.188.188,0,0,0,.056.287,16.5,16.5,0,0,1,1.754,1.925" transform="translate(-141.854 -87.358)" fill="none" stroke="#03091c" stroke-linecap="round" stroke-linejoin="round" stroke-width="0.87"/>
                            <path id="Trazado_151148" data-name="Trazado 151148" d="M148.588,88.125a5.253,5.253,0,0,1,.836,2.882,7.324,7.324,0,0,1-.653,2.951" transform="translate(-142.968 -86.161)" fill="none" stroke="#03091c" stroke-linecap="round" stroke-linejoin="round" stroke-width="0.87"/>
                          </g>
                          <g id="Grupo_134440" data-name="Grupo 134440" transform="translate(0 26.256)">
                            <path id="Trazado_151149" data-name="Trazado 151149" d="M86.046,85.69a2.911,2.911,0,0,0-2.416.891,4.257,4.257,0,0,0-.947,1.984,8.185,8.185,0,0,0,.843,5.787c1,1.775,2.693,3.224,3.1,5.222a19.663,19.663,0,0,0,.393,2.725,3.136,3.136,0,0,0,3.02,2.026q-.2-5.413-.5-10.823C89.4,91,89.484,86.08,86.046,85.69Z" transform="translate(-82.483 -85.672)" fill="#fdbe8b"/>
                            <path id="Trazado_151150" data-name="Trazado 151150" d="M88.92,94.662c.006-.251,0-.5-.009-.75a22.429,22.429,0,0,0-2.432-8.236,2.746,2.746,0,0,1,.363.015C90.28,86.081,90.2,91,90.332,93.5q.3,5.41.5,10.823a2.921,2.921,0,0,1-1.132-.185c-.163-1.165-.391-2.326-.625-3.475a15.585,15.585,0,0,1-.352-2.3,14.837,14.837,0,0,1,.086-2.108C88.856,95.724,88.907,95.193,88.92,94.662Z" transform="translate(-83.279 -85.673)" fill="#ffaa71"/>
                            <path id="Trazado_151151" data-name="Trazado 151151" d="M88.346,94.132q.856,1.342,1.638,2.73a.248.248,0,0,1,.043.129.257.257,0,0,1-.1.159,16.5,16.5,0,0,0-1.754,1.925" transform="translate(-83.617 -87.358)" fill="none" stroke="#03091c" stroke-linecap="round" stroke-linejoin="round" stroke-width="0.87"/>
                            <path id="Trazado_151152" data-name="Trazado 151152" d="M84.69,88.125a5.254,5.254,0,0,0-.837,2.882,7.323,7.323,0,0,0,.653,2.951" transform="translate(-82.756 -86.161)" fill="none" stroke="#03091c" stroke-linecap="round" stroke-linejoin="round" stroke-width="0.87"/>
                          </g>
                          <g id="Grupo_134441" data-name="Grupo 134441" transform="translate(5.752 3.228)">
                            <path id="Trazado_151153" data-name="Trazado 151153" d="M133.023,81.914c0-13.807-9.706-25-21.679-25s-21.678,11.193-21.678,25a29.068,29.068,0,0,0,.163,3.019l1.318,14.581a10.624,10.624,0,0,0,1.638,4.782c2.667,4.162,8.986,12.211,18.257,12.792v.038c.1,0,.2-.014.3-.019s.2.016.3.019v-.038c9.271-.581,15.591-8.63,18.258-12.792a10.634,10.634,0,0,0,1.638-4.782l1.317-14.581A29.075,29.075,0,0,0,133.023,81.914Z" transform="translate(-89.667 -56.914)" fill="#fdbe8b"/>
                            <path id="Trazado_151154" data-name="Trazado 151154" d="M126.083,117.467a4.487,4.487,0,0,1-4.109,1.029" transform="translate(-96.104 -68.979)" fill="none" stroke="#03091c" stroke-linecap="round" stroke-linejoin="round" stroke-width="0.87"/>
                          </g>
                          <g id="Grupo_134442" data-name="Grupo 134442" transform="translate(15.957 29.516)">
                            <path id="Trazado_151155" data-name="Trazado 151155" d="M106.457,93.371c0,1.6-.906,2.9-2.023,2.9s-2.023-1.3-2.023-2.9.906-2.9,2.023-2.9S106.457,91.77,106.457,93.371Z" transform="translate(-102.411 -89.888)" fill="#03091c"/>
                            <path id="Trazado_151156" data-name="Trazado 151156" d="M107.254,91.725A.725.725,0,1,1,106.53,91,.725.725,0,0,1,107.254,91.725Z" transform="translate(-103.087 -89.994)" fill="#fff"/>
                            <path id="Trazado_151157" data-name="Trazado 151157" d="M105.7,92.86a.2.2,0,1,1-.2-.2A.2.2,0,0,1,105.7,92.86Z" transform="translate(-102.987 -90.324)" fill="#fff"/>
                            <ellipse id="Elipse_5058" data-name="Elipse 5058" cx="2.023" cy="2.898" rx="2.023" ry="2.898" transform="translate(19.323 0.584)" fill="#03091c"/>
                            <path id="Trazado_151158" data-name="Trazado 151158" d="M131.385,91.725a.725.725,0,1,1-.725-.725A.724.724,0,0,1,131.385,91.725Z" transform="translate(-107.895 -89.994)" fill="#fff"/>
                            <path id="Trazado_151159" data-name="Trazado 151159" d="M129.836,92.86a.2.2,0,1,1-.2-.2A.2.2,0,0,1,129.836,92.86Z" transform="translate(-107.795 -90.324)" fill="#fff"/>
                            <path id="Trazado_151160" data-name="Trazado 151160" d="M116.163,89.743l.2,2.939-1.812,11.835,2.174.08v.765" transform="translate(-104.83 -89.743)" fill="none" stroke="#03091c" stroke-linecap="round" stroke-linejoin="round" stroke-width="0.87"/>
                          </g>
                          <path id="Trazado_151161" data-name="Trazado 151161" d="M129.787,60.789c-1.65-4.5-9.39-7.906-18.7-7.906-9.837,0-17.93,3.805-18.922,8.685-5.586,7.689-1.7,29.964-1.7,29.964l.688.068,1.254-5.049c.617-2.488,1.52-4.978,1.083-7.549-.152-.9-.8-2.63-.453-3.474.16-.385.828-.876,1.12-1.192l2.947-3.176,4.3-4.634c2.837.857,6.145,3,9.681,3,3.45,0,6.684-2.12,9.474-2.94.532-.156,3.978,3.722,4.423,4.137,1.556,1.456,3.1,2.928,4.672,4.369-.7,1.461-.308,3.383-.561,4.986-.159,1.006,1.866,11.57,2.349,11.521l.688-.068S136.311,67.6,129.787,60.789Z" transform="translate(-83.812 -52.883)" fill="#683424"/>
                          <path id="Trazado_151162" data-name="Trazado 151162" d="M113.43,73.013a8.624,8.624,0,0,0,7.065.224,15.513,15.513,0,0,0,4.3-2.583c.3-.247,1.537-1.041.717-1.275-.355-.1-1.9.993-2.282,1.171a27.092,27.092,0,0,1-4.835,1.706C117.39,72.508,114.371,73.526,113.43,73.013Z" transform="translate(-88.649 -56.169)" fill="#683424"/>
                          <path id="Trazado_151163" data-name="Trazado 151163" d="M138.952,63a1.5,1.5,0,0,0,.324-.938l.4-3.829" transform="translate(-93.735 -53.949)" fill="none" stroke="#683424" stroke-linecap="round" stroke-linejoin="round" stroke-width="0.87"/>
                          <path id="Trazado_151164" data-name="Trazado 151164" d="M138.879,63.293a12.164,12.164,0,0,1,3.592-.765" transform="translate(-93.72 -54.805)" fill="none" stroke="#683424" stroke-linecap="round" stroke-linejoin="round" stroke-width="0.87"/>
                          <path id="Trazado_151165" data-name="Trazado 151165" d="M128.492,68.33a21.325,21.325,0,0,0,7.318-5.622" transform="translate(-91.651 -54.841)" fill="none" stroke="#03091c" stroke-linecap="round" stroke-linejoin="round" stroke-width="0.87"/>
                          <path id="Trazado_151166" data-name="Trazado 151166" d="M94.735,62.991a4.385,4.385,0,0,0,1.9,2.076,13.039,13.039,0,0,0,2.646,1.087" transform="translate(-84.924 -54.897)" fill="none" stroke="#03091c" stroke-linecap="round" stroke-linejoin="round" stroke-width="0.87"/>
                          <path id="Trazado_151167" data-name="Trazado 151167" d="M117.408,54.759a7.225,7.225,0,0,1,3.229.282" transform="translate(-89.442 -53.243)" fill="none" stroke="#03091c" stroke-linecap="round" stroke-linejoin="round" stroke-width="0.87"/>
                          <path id="Trazado_151168" data-name="Trazado 151168" d="M92.63,83.025q.077,1.375.028,2.753" transform="translate(-84.505 -58.889)" fill="none" stroke="#03091c" stroke-linecap="round" stroke-linejoin="round" stroke-width="0.87"/>
                          <path id="Trazado_151169" data-name="Trazado 151169" d="M140.3,84.146a3.933,3.933,0,0,0-.139,1.511" transform="translate(-93.972 -59.112)" fill="none" stroke="#03091c" stroke-linecap="round" stroke-linejoin="round" stroke-width="0.87"/>
                          <path id="Trazado_151170" data-name="Trazado 151170" d="M127.841,98.09a6.019,6.019,0,0,1,2.42-.447" transform="translate(-91.521 -61.801)" fill="none" stroke="#03091c" stroke-linecap="round" stroke-linejoin="round" stroke-width="0.87"/>
                          <path id="Trazado_151171" data-name="Trazado 151171" d="M102.318,96.953a7.232,7.232,0,0,1,2.309,1.21" transform="translate(-86.435 -61.664)" fill="none" stroke="#03091c" stroke-linecap="round" stroke-linejoin="round" stroke-width="0.87"/>
                          <g id="Grupo_134443" data-name="Grupo 134443" transform="translate(14.35 27.921)">
                            <line id="Línea_203" data-name="Línea 203" x2="9.219" transform="translate(18.614)" fill="none" stroke="#03091c" stroke-linecap="round" stroke-linejoin="round" stroke-width="1.5"/>
                            <line id="Línea_204" data-name="Línea 204" x1="6.785" transform="translate(0 0.458)" fill="none" stroke="#03091c" stroke-linecap="round" stroke-linejoin="round" stroke-width="1.5"/>
                          </g>
                        </g>
                        <path id="Trazado_151172" data-name="Trazado 151172" d="M111.735,168c.973.051,21.214.865,25.2-19.151-1-.334-2-.674-2.985-1.032q-.671-.243-1.348-.476c-.269,5.471-3.193,13.361-17.159,15.623a23.382,23.382,0,0,1-7.522-.017c-14.614-2.4-17.066-11-17.078-16.456-.894.288-1.767.648-2.663.931a12.277,12.277,0,0,1-2.381.359,1.814,1.814,0,0,0-.774.119C89.264,167.646,110.768,168.05,111.735,168Z" transform="translate(-82.458 -70.371)" fill="#03091c"/>
                        <g id="Grupo_134448" data-name="Grupo 134448" transform="translate(0)">
                          <g id="Grupo_134445" data-name="Grupo 134445" transform="translate(0 25.921)">
                            <path id="Rectángulo_35502" data-name="Rectángulo 35502" d="M0,0H2.114a5.5,5.5,0,0,1,5.5,5.5v8.9a5.5,5.5,0,0,1-5.5,5.5H0a0,0,0,0,1,0,0V0A0,0,0,0,1,0,0Z" transform="translate(7.61 19.897) rotate(180)" fill="#fff"/>
                            <path id="Trazado_151173" data-name="Trazado 151173" d="M87.59,100.862l-.275,13.57,20.906,4.126" transform="translate(-82.914 -87.2)" fill="none" stroke="#03091c" stroke-linecap="round" stroke-linejoin="round" stroke-width="0.87"/>
                            <path id="Trazado_151174" data-name="Trazado 151174" d="M108.872,121.873c-.124,1.133,1.633,2.253,3.924,2.5s4.247-.466,4.37-1.6-1.633-2.253-3.924-2.5S109,120.741,108.872,121.873Z" transform="translate(-87.208 -91.058)" fill="#03091c"/>
                            <line id="Línea_205" data-name="Línea 205" y2="17.559" transform="translate(6.354 0.963)" fill="none" stroke="#03091c" stroke-linecap="round" stroke-linejoin="round" stroke-width="0.87"/>
                            <path id="Trazado_151175" data-name="Trazado 151175" d="M112.713,120.844s4.584,0,4.584,2.155" transform="translate(-87.975 -91.182)" fill="none" stroke="#fff" stroke-linecap="round" stroke-linejoin="round" stroke-width="0.87"/>
                          </g>
                          <g id="Grupo_134447" data-name="Grupo 134447" transform="translate(4.834)">
                            <path id="Trazado_151176" data-name="Trazado 151176" d="M138.484,76.81c1.832-8.956,3.36-25.38-21.686-25.38" transform="translate(-93.622 -51.43)" fill="none" stroke="#03091c" stroke-linecap="round" stroke-linejoin="round" stroke-width="0.891"/>
                            <g id="Grupo_134446" data-name="Grupo 134446">
                              <rect id="Rectángulo_35503" data-name="Rectángulo 35503" width="0.969" height="11.753" transform="translate(44.358 25.308)" fill="#fff"/>
                              <path id="Trazado_151177" data-name="Trazado 151177" d="M88.493,76.81c-1.445-8.956-2.649-25.38,22.785-25.38" transform="translate(-87.855 -51.43)" fill="none" stroke="#03091c" stroke-linecap="round" stroke-linejoin="round" stroke-width="0.891"/>
                            </g>
                          </g>
                        </g>
                      </g>
                    </g>
                  </g>
                </g>
              </g>
            </g>
          </g>
          <g id="Grupo_134478" data-name="Grupo 134478" transform="translate(27.042 42.959)">
            <g id="Grupo_134456" data-name="Grupo 134456" transform="translate(64.366 296.801)">
              <path id="Trazado_151179" data-name="Trazado 151179" d="M161.175,472.405s2.15,9.371,18.814,8.494l.877-9.209S167.357,467.858,161.175,472.405Z" transform="translate(-161.175 -468.731)" fill="#03091c"/>
              <path id="Trazado_151180" data-name="Trazado 151180" d="M355,470.014s-1.754,5.153-15.238,5.043l-.11-6.687Z" transform="translate(-196.738 -468.37)" fill="#03091c"/>
            </g>
            <g id="Grupo_134457" data-name="Grupo 134457" transform="translate(74.848 278.081)">
              <path id="Trazado_151181" data-name="Trazado 151181" d="M308.175,446.472c0,.493,5.87,49.114,5.87,49.114H174.265l9.209-50.594Z" transform="translate(-174.265 -444.991)" fill="#265472"/>
              <path id="Trazado_151182" data-name="Trazado 151182" d="M310.809,457.411l-126.585-1.42-4.434,16.787.733-.011c14.481-.183,95.389.263,105.444-1.542,6.652-1.193,15.574-3.917,22.36-2.352.92.212,2.554.377,3.409.514A106.366,106.366,0,0,1,310.809,457.411Z" transform="translate(-175.366 -447.183)" fill="#265472" style="mix-blend-mode: multiply;isolation: isolate"/>
              <line id="Línea_206" data-name="Línea 206" y2="40.828" transform="translate(69.855 19.507)" fill="none" stroke="#03091c" stroke-linecap="round" stroke-linejoin="round" stroke-width="0.847"/>
              <path id="Trazado_151183" data-name="Trazado 151183" d="M321.142,456.254A37.148,37.148,0,0,0,337.8,485.68" transform="translate(-203.531 -447.235)" fill="none" stroke="#03091c" stroke-linecap="round" stroke-linejoin="round" stroke-width="0.847"/>
              <path id="Trazado_151184" data-name="Trazado 151184" d="M200.31,461.621a12.314,12.314,0,0,1-1.67,5.714c-3.83,7.665-9.574,14.854-17.556,17.97" transform="translate(-175.624 -448.305)" fill="none" stroke="#03091c" stroke-linecap="round" stroke-linejoin="round" stroke-width="0.847"/>
            </g>
            <g id="Grupo_134458" data-name="Grupo 134458" transform="translate(39.704 141.425)">
              <path id="Trazado_151185" data-name="Trazado 151185" d="M339.948,361.328s8.317,5.954,21.034-8.3l-12-18.262A275.6,275.6,0,0,0,339.948,361.328Z" transform="translate(-172.135 -286.373)" fill="#03091c"/>
              <path id="Trazado_151186" data-name="Trazado 151186" d="M385.918,302.258s-2.309,7.357-5.487,9.957l-3.37-7.221S379.849,302.026,385.918,302.258Z" transform="translate(-179.53 -279.893)" fill="#03091c"/>
              <path id="Trazado_151187" data-name="Trazado 151187" d="M147.979,334.19s-31.847-38.218-9.867-59.859C138.112,274.331,177.693,292.968,147.979,334.19Z" transform="translate(-130.377 -274.331)" fill="#03091c"/>
            </g>
            <g id="Grupo_134462" data-name="Grupo 134462" transform="translate(1.012 127.094)">
              <path id="Trazado_151188" data-name="Trazado 151188" d="M160.637,296.574,107.67,326.693s-19.64,4-24.982-11.284c-1.912-5.471.65-11.87,5.857-15.235l43.179-27.912,26.484-15.828S189.548,259.932,160.637,296.574Z" transform="translate(-82.057 -256.434)" fill="#fdbe8b"/>
              <g id="Grupo_134461" data-name="Grupo 134461" transform="translate(48.342)">
                <g id="Grupo_134460" data-name="Grupo 134460">
                  <g id="Grupo_134459" data-name="Grupo 134459">
                    <path id="Trazado_151189" data-name="Trazado 151189" d="M170.239,256.434l-26.484,15.828-1.327.858a98.4,98.4,0,0,1,3.39,38.722l26.848-15.268C201.577,259.932,170.239,256.434,170.239,256.434Z" transform="translate(-142.428 -256.434)" fill="#ffaa71"/>
                  </g>
                </g>
              </g>
            </g>
            <g id="Grupo_134466" data-name="Grupo 134466" transform="translate(208.354 155.514)">
              <path id="Trazado_151190" data-name="Trazado 151190" d="M351.323,296.255s-15.129,17.761-8.771,35.74l23.48,43.605s13.814,19.953,28.724,5.263a65.4,65.4,0,0,0,7.328-19.434,15.237,15.237,0,0,0-1.791-10.48l-32.964-54.474S360.093,286.388,351.323,296.255Z" transform="translate(-340.992 -291.926)" fill="#fdbe8b"/>
              <g id="Grupo_134465" data-name="Grupo 134465">
                <g id="Grupo_134464" data-name="Grupo 134464">
                  <g id="Grupo_134463" data-name="Grupo 134463">
                    <path id="Trazado_151191" data-name="Trazado 151191" d="M364.006,318.907a47.194,47.194,0,0,1,8.528-10.457q.536-.524,1.083-1.042l-6.287-10.934s-7.236-10.086-16.006-.219c0,0-15.129,17.761-8.771,35.74l13.379,25.163a101.546,101.546,0,0,1,3.927-27.415A51.966,51.966,0,0,1,364.006,318.907Z" transform="translate(-340.992 -291.926)" fill="#ffaa71"/>
                  </g>
                </g>
              </g>
            </g>
            <g id="Grupo_134467" data-name="Grupo 134467" transform="translate(47.44 108.401)">
              <path id="Trazado_151192" data-name="Trazado 151192" d="M169.2,246.38c5.607-1.031,8.113-3.947,10.086-3.727s8.332-1.316,8.332-1.316c3.43-.959,6.846-1.995,10.213-3.154,1.868-.642,3.691-1.686,5.553-2.262,1.49-.461,3.234-.282,4.824-.786a52.51,52.51,0,0,1,5.371-1.738,23.958,23.958,0,0,1,4.94-.3l38.872.3a29.713,29.713,0,0,1,13.141,2.285c5.938,2.149,12.061,3.945,18.167,5.663,0,0,6.359,1.535,8.332,1.316s4.386,3.727,10.086,3.727,6.578,2.192,6.578,2.192l25,39.906-1.754.219c-27.189,8.332-36.4,52.623-36.4,52.623s3.07,45.988,3.508,54.1,11.182,27.847,11.182,27.847-5.92,1.535-14.471-.439c-6.786-1.565-113.323,3.712-127.8,3.894-4.838.061-9.723.266-14.47-.665a2.259,2.259,0,0,1-1.52-.76,2.18,2.18,0,0,1-.151-1.607,15.586,15.586,0,0,1,1.633-4.626l15.8-82.129V306.019L149.9,325.972s18.419-21.927.219-48.677c0,0-4.824-7.455-10.086-11.182C140.037,266.113,166.225,246.927,169.2,246.38Z" transform="translate(-140.037 -233.089)" fill="#528869"/>
              <path id="Trazado_151193" data-name="Trazado 151193" d="M310.318,304.881v27.408L291.9,343.142,272.824,333.6l-.438-28.833Z" transform="translate(-166.408 -247.372)" fill="#1c2b1c"/>
              <line id="Línea_207" data-name="Línea 207" x2="31.439" transform="translate(109.595 62.99)" fill="none" stroke="#03091c" stroke-linecap="round" stroke-linejoin="round" stroke-width="0.847"/>
              <rect id="Rectángulo_35504" data-name="Rectángulo 35504" width="11.073" height="4.276" transform="translate(128.562 57.564)" fill="#03091c"/>
              <path id="Trazado_151194" data-name="Trazado 151194" d="M333.15,283.666a42.441,42.441,0,0,1,6.764-29.51" transform="translate(-178.432 -237.287)" fill="none" stroke="#03091c" stroke-linecap="round" stroke-linejoin="round" stroke-width="0.847"/>
              <path id="Trazado_151195" data-name="Trazado 151195" d="M333.124,323.067q2.2,19.2,6.014,38.174" transform="translate(-178.51 -251.017)" fill="none" stroke="#03091c" stroke-linecap="round" stroke-linejoin="round" stroke-width="0.847"/>
              <path id="Trazado_151196" data-name="Trazado 151196" d="M193.752,313.828c-1.72,5.129-8.61,34.637-10.522,39.7" transform="translate(-148.643 -249.176)" fill="none" stroke="#03091c" stroke-linecap="round" stroke-linejoin="round" stroke-width="0.847"/>
              <path id="Trazado_151197" data-name="Trazado 151197" d="M185.256,321.153a12.293,12.293,0,0,0,4.551-4.67" transform="translate(-149.047 -249.706)" fill="none" stroke="#03091c" stroke-linecap="round" stroke-linejoin="round" stroke-width="0.847"/>
              <path id="Trazado_151198" data-name="Trazado 151198" d="M204.234,245.851a221.414,221.414,0,0,1-2.5,35.753" transform="translate(-152.331 -235.632)" fill="none" stroke="#03091c" stroke-linecap="round" stroke-linejoin="round" stroke-width="0.847"/>
              <path id="Trazado_151199" data-name="Trazado 151199" d="M344.158,436.284c-.627,5.371,2.4,10.621,2.028,16.015" transform="translate(-180.692 -273.576)" fill="none" stroke="#03091c" stroke-linecap="round" stroke-linejoin="round" stroke-width="0.847"/>
              <path id="Trazado_151200" data-name="Trazado 151200" d="M340.087,342.442s7.963-36.948,32.961-44.759" transform="translate(-179.898 -245.96)" fill="none" stroke="#03091c" stroke-linecap="round" stroke-linejoin="round" stroke-width="0.847"/>
              <path id="Trazado_151201" data-name="Trazado 151201" d="M148.252,271.593s25.435,12.936,12.5,51.307" transform="translate(-141.674 -240.761)" fill="none" stroke="#03091c" stroke-linecap="round" stroke-linejoin="round" stroke-width="0.847"/>
              <line id="Línea_208" data-name="Línea 208" x2="88.996" transform="translate(56.249 53.034)" fill="none" stroke="#03091c" stroke-linecap="round" stroke-linejoin="round" stroke-width="0.847"/>
              <path id="Trazado_151202" data-name="Trazado 151202" d="M171.962,467.789c13.605-1.42,28.545-.611,41.557-.811,9.977-.154,55.9-1.282,69.453-2.785a112.188,112.188,0,0,1,25.862.489" transform="translate(-146.398 -279.03)" fill="none" stroke="#03091c" stroke-linecap="round" stroke-linejoin="round" stroke-width="0.847"/>
            </g>
            <g id="Grupo_134470" data-name="Grupo 134470" transform="translate(0 27.534)">
              <g id="Grupo_134468" data-name="Grupo 134468" transform="translate(108.297 15.334)">
                <path id="Trazado_151203" data-name="Trazado 151203" d="M220.887,151.273a3.96,3.96,0,0,0-3.289,1.213,5.8,5.8,0,0,0-1.29,2.7,11.15,11.15,0,0,0,1.147,7.879c1.365,2.418,3.667,4.39,4.219,7.111a26.837,26.837,0,0,0,.535,3.71,4.271,4.271,0,0,0,4.112,2.758q-.277-7.37-.681-14.736C225.454,158.5,225.57,151.806,220.887,151.273Z" transform="translate(-216.038 -151.249)" fill="#fdbe8b"/>
                <path id="Trazado_151204" data-name="Trazado 151204" d="M224.8,163.489c.008-.342,0-.682-.011-1.021-.154-3.894-1.676-7.623-3.312-11.215a3.619,3.619,0,0,1,.493.021c4.683.532,4.567,7.224,4.754,10.637q.4,7.365.681,14.736a3.973,3.973,0,0,1-1.541-.251c-.221-1.585-.532-3.167-.851-4.732a21.227,21.227,0,0,1-.48-3.136,20.112,20.112,0,0,1,.117-2.869C224.715,164.936,224.783,164.214,224.8,163.489Z" transform="translate(-217.122 -151.25)" fill="#ffaa71"/>
                <path id="Trazado_151205" data-name="Trazado 151205" d="M224.02,162.767q1.166,1.827,2.229,3.718a.338.338,0,0,1,.059.175.345.345,0,0,1-.136.215,22.505,22.505,0,0,0-2.388,2.622" transform="translate(-217.581 -153.544)" fill="none" stroke="#03091c" stroke-linecap="round" stroke-linejoin="round" stroke-width="0.847"/>
                <path id="Trazado_151206" data-name="Trazado 151206" d="M219.041,154.589a7.152,7.152,0,0,0-1.139,3.924,9.982,9.982,0,0,0,.889,4.017" transform="translate(-216.409 -151.915)" fill="none" stroke="#03091c" stroke-linecap="round" stroke-linejoin="round" stroke-width="0.847"/>
              </g>
              <path id="Trazado_151207" data-name="Trazado 151207" d="M192.051,212.862l12.087-7.7,7.318-19.076-15.129-.164L190.9,211.9Z" transform="translate(-102.732 -142.824)" fill="#fdbe8b"/>
              <g id="Grupo_134469" data-name="Grupo 134469" transform="translate(97.407 5.055)">
                <path id="Trazado_151208" data-name="Trazado 151208" d="M215.351,196.634l-12.913-2.642,2.752-55.238,1.808-.342,9.709,5.716Z" transform="translate(-202.438 -138.413)" fill="#03091c"/>
                <path id="Trazado_151209" data-name="Trazado 151209" d="M207.69,140.6l-2.372,52.245,9.5,2.049,1.586-49.719Z" transform="translate(-203.012 -138.848)" fill="#fff"/>
              </g>
              <path id="Trazado_151210" data-name="Trazado 151210" d="M196.862,166.946l-1.316-2.3L195,153.461l-14.69-3.727,2.192-13.923s-.329-7.016-3.837-1.754-9.538,29.6-9.538,29.6a20.412,20.412,0,0,0-2.631,6.8c-.439,3.289-6.8,17.322-6.8,17.322l-4.193,5.512s.014.016.018.023l-51.189,53.117s-16.006,9.429-19.515,26.751c0,0-11.182,12.937,3.727,26.75,0,0,14.252,7.236,22.146-3.508,0,0,17.76-13.155,21.926-21.487s37.494-72.8,37.494-72.8l-.315-.238,4.1-9.273a2.424,2.424,0,0,0,.087-.555q.116-.734.231-1.468.528-3.352,1.056-6.7l.483-3.064.168-1.068c.019-.123.047-.246.058-.369.01-.1-.036-.34-.017-.4a3.781,3.781,0,0,1,1.053-1.389,2.414,2.414,0,0,1,.644-.49,2.5,2.5,0,0,1,.839-.16,31.665,31.665,0,0,0,5.789-1,.755.755,0,0,1,.366-.038.775.775,0,0,1,.252.131,19.4,19.4,0,0,0,3.617,1.844c1.631.681,3.224,1.472,4.833,2.206,0,0-2.741,7.565-1.864,8.99,0,0,3.509-3.07,6.907-10.635Zm-13.348-9.51,8.058,2.385.77,3.561-7.083-4.2-4.623,2.036Zm4.687,11.512-6.717.16,5.566-2.627,6.249,3.7.146,3.847Z" transform="translate(-80.793 -132.1)" fill="#fdbe8b"/>
              <path id="Trazado_151211" data-name="Trazado 151211" d="M191.208,182.474l3.536-4.193,15.458-.164,10.2,9.511" transform="translate(-102.793 -141.269)" fill="none" stroke="#03091c" stroke-linecap="round" stroke-linejoin="round" stroke-width="0.847"/>
              <path id="Trazado_151212" data-name="Trazado 151212" d="M209.271,185.727a20.442,20.442,0,0,0,4.455,2.6" transform="translate(-106.392 -142.785)" fill="none" stroke="#03091c" stroke-linecap="round" stroke-linejoin="round" stroke-width="0.847"/>
              <path id="Trazado_151213" data-name="Trazado 151213" d="M202.093,188.095a21.316,21.316,0,0,0,6.476-1.211" transform="translate(-104.962 -143.016)" fill="none" stroke="#03091c" stroke-linecap="round" stroke-linejoin="round" stroke-width="0.847"/>
              <path id="Trazado_151214" data-name="Trazado 151214" d="M189.668,172.906,206.935,166l10.36,5.673" transform="translate(-102.486 -138.854)" fill="none" stroke="#03091c" stroke-linecap="round" stroke-linejoin="round" stroke-width="0.847"/>
              <line id="Línea_209" data-name="Línea 209" y1="15.07" x2="8.82" transform="translate(90.695 17.634)" fill="none" stroke="#03091c" stroke-linecap="round" stroke-linejoin="round" stroke-width="0.847"/>
              <path id="Trazado_151215" data-name="Trazado 151215" d="M205.6,167.275l2.78-3.535,8.058,2.384.576,2.96" transform="translate(-105.662 -138.404)" fill="none" stroke="#03091c" stroke-linecap="round" stroke-linejoin="round" stroke-width="0.847"/>
              <path id="Trazado_151216" data-name="Trazado 151216" d="M206.3,177.42l5.756-2.384,6.249,3.7.346,3.814" transform="translate(-105.801 -140.655)" fill="none" stroke="#03091c" stroke-linecap="round" stroke-linejoin="round" stroke-width="0.847"/>
              <path id="Trazado_151217" data-name="Trazado 151217" d="M141.186,304.725s-10.878,16.653-23.675,25.32c0,0-2.585,3.788-5.825,5.2" transform="translate(-86.948 -166.496)" fill="none" stroke="#03091c" stroke-linecap="round" stroke-linejoin="round" stroke-width="0.847"/>
              <path id="Trazado_151218" data-name="Trazado 151218" d="M191.369,218.848a75.588,75.588,0,0,0-7.065,7.071" transform="translate(-101.418 -149.385)" fill="none" stroke="#03091c" stroke-linecap="round" stroke-linejoin="round" stroke-width="0.847"/>
            </g>
            <g id="Grupo_134473" data-name="Grupo 134473" transform="translate(231.48 48.983)">
              <g id="Grupo_134471" data-name="Grupo 134471" transform="translate(0.938)">
                <path id="Trazado_151219" data-name="Trazado 151219" d="M395.712,231.508a1.213,1.213,0,0,1-.107.2c-.526.8-3.538.137-4.507.1l-6.489-.246-7.911-.3L373.417,218.8l1.308-11.727s-2.626-1.313-3-2.213-.562-12.552-.562-12.552l-.116-3.508a3.092,3.092,0,0,1,3.427-2.835l1.94-.22s1.284-3.5,1.987-3.543c3,.2,6.028,1.173,8.953,1.825a49.253,49.253,0,0,0,1.433-7.718c.3-2.885.346-9.8.67-12.679a7.812,7.812,0,0,1,.777-2.972c.458-.821,2.775-2.787,3.352-1.114.477,5.916.954,15.836,1.433,21.751l.341,4.227a5.6,5.6,0,0,0,.106,1.484c.495.987,2.639,1.224,3.521,1.964,1.639,1.375,1.784,3.88,1.24,5.948s-1.632,3.979-2.031,6.081a19.371,19.371,0,0,0-.252,2.905c-.327,8.9-1.551,17.8-2.072,26.7A2.834,2.834,0,0,1,395.712,231.508Z" transform="translate(-371.044 -158.886)" fill="#fdbe8b"/>
                <path id="Trazado_151220" data-name="Trazado 151220" d="M381.175,218.66c-1.838.187-3.409.285-5.516.305" transform="translate(-371.964 -170.796)" fill="none" stroke="#03091c" stroke-linecap="round" stroke-linejoin="round" stroke-width="0.847"/>
                <path id="Trazado_151221" data-name="Trazado 151221" d="M383.656,212.983a2.957,2.957,0,0,1,1.35-1.049,17.572,17.572,0,0,1,2.888-.728" transform="translate(-373.557 -169.311)" fill="none" stroke="#03091c" stroke-linecap="round" stroke-linejoin="round" stroke-width="0.847"/>
                <path id="Trazado_151222" data-name="Trazado 151222" d="M383.463,212a4.73,4.73,0,0,0-1.915-2.015,1.967,1.967,0,0,0-.7-.319,10.762,10.762,0,0,1,1.245-4.043,6.67,6.67,0,0,1,3.057-2.858" transform="translate(-372.998 -167.63)" fill="none" stroke="#03091c" stroke-linecap="round" stroke-linejoin="round" stroke-width="0.847"/>
                <path id="Trazado_151223" data-name="Trazado 151223" d="M374.84,207.149a6.333,6.333,0,0,0,2.064,2.137,11.378,11.378,0,0,0,2.715,1.254" transform="translate(-371.8 -168.503)" fill="none" stroke="#03091c" stroke-linecap="round" stroke-linejoin="round" stroke-width="0.847"/>
                <path id="Trazado_151224" data-name="Trazado 151224" d="M371.258,198.84c6.418-1.931,13.979-1.632,20.566-2.867a4.064,4.064,0,0,1,1.337-.108,3.891,3.891,0,0,1,.911.3l1.99.838a1.8,1.8,0,0,1,1.337,1.527l1.087,3.879" transform="translate(-371.087 -166.25)" fill="none" stroke="#03091c" stroke-linecap="round" stroke-linejoin="round" stroke-width="0.847"/>
                <path id="Trazado_151225" data-name="Trazado 151225" d="M395.711,194.035c-.85-.112-1.6-.189-2.053-.207-1.7-.066-3.752-.179-5.448-.32-6.156-.51-15.329-.455-15.329-.455a2.6,2.6,0,0,0-1.594,1.6" transform="translate(-371.092 -165.694)" fill="none" stroke="#03091c" stroke-linecap="round" stroke-linejoin="round" stroke-width="0.847"/>
                <path id="Trazado_151226" data-name="Trazado 151226" d="M376.68,230.292c1.171-4.875,5.628-11.124,5.972-16.126" transform="translate(-372.167 -169.901)" fill="none" stroke="#03091c" stroke-linecap="round" stroke-linejoin="round" stroke-width="0.847"/>
                <path id="Trazado_151227" data-name="Trazado 151227" d="M378.4,213.6a1.056,1.056,0,0,0,.356-.183A7.548,7.548,0,0,0,380.5,211.7" transform="translate(-372.51 -169.409)" fill="none" stroke="#03091c" stroke-linecap="round" stroke-linejoin="round" stroke-width="0.847"/>
                <path id="Trazado_151228" data-name="Trazado 151228" d="M380.228,188l15.017,3.147,1.6.238" transform="translate(-372.874 -164.687)" fill="none" stroke="#03091c" stroke-linecap="round" stroke-linejoin="round" stroke-width="0.847"/>
              </g>
              <g id="Grupo_134472" data-name="Grupo 134472" transform="translate(0 70.935)">
                <path id="Trazado_151229" data-name="Trazado 151229" d="M401.623,313.551,395.4,248.037c.069-.07.136-.153.2-.231l-19.084-.333-.181,7.246-4.779,80.691c-4.613,10.837,1.669,29.355,1.669,29.355,11.745,28.72,32.466.464,32.466.464C415.908,337.615,401.623,313.551,401.623,313.551Z" transform="translate(-369.873 -247.472)" fill="#fdbe8b"/>
              </g>
              <path id="Trazado_151230" data-name="Trazado 151230" d="M375.076,294.918l-3.508,49.945s-7.413,24.707,8.894,39.96" transform="translate(-369.876 -185.991)" fill="none" stroke="#03091c" stroke-linecap="round" stroke-linejoin="round" stroke-width="0.847"/>
              <path id="Trazado_151231" data-name="Trazado 151231" d="M401.544,247.722Q401.27,253.861,401,260" transform="translate(-376.075 -176.587)" fill="none" stroke="#03091c" stroke-linecap="round" stroke-linejoin="round" stroke-width="0.847"/>
            </g>
            <g id="Grupo_134477" data-name="Grupo 134477" transform="translate(111.393)">
              <path id="Trazado_151232" data-name="Trazado 151232" d="M287.1,232.27s-12.608-3.947-13.594-9.758V205.19l-18.254,2.269L237,205.19v17.322c-.987,5.811-13.594,9.758-13.594,9.758,7.295,19.484,27.968,22.211,31.574,22.541v.042s.095,0,.274-.018c.179.014.274.018.274.018v-.042C259.135,254.481,279.808,251.753,287.1,232.27Z" transform="translate(-220.602 -119.129)" fill="#fdbe8b"/>
              <path id="Trazado_151233" data-name="Trazado 151233" d="M276.88,222.512V205.19s-.042.006-.042,0l-18.233,2.266-4.66-.579s-13.573-1.687-13.573-1.682l-.042-.006v17.237l.042.029c4.152,2.874,9.041,4.67,13.629,6.776,2.345,1.077,4.772,2.215,6.426,4.2a15.425,15.425,0,0,1,2.807,6.777c.6,2.783,1.015,5.6,1.369,8.425.139,1.106-.013,2.917.45,3.915.523,1.128.086.867,1.38.793,2.76-.16,6.278-2.231,8.646-3.528a34.715,34.715,0,0,0,8.8-6.778c.757-.814,7.368-10.524,6.6-10.76C290.475,232.27,277.867,228.323,276.88,222.512Z" transform="translate(-223.974 -119.129)" fill="#ffaa71"/>
              <g id="Grupo_134474" data-name="Grupo 134474" transform="translate(61.652 42.868)">
                <path id="Trazado_151234" data-name="Trazado 151234" d="M302.332,151.273a3.959,3.959,0,0,1,3.289,1.213,5.8,5.8,0,0,1,1.29,2.7,11.147,11.147,0,0,1-1.147,7.879c-1.364,2.418-3.667,4.39-4.219,7.111a26.846,26.846,0,0,1-.535,3.71,4.27,4.27,0,0,1-4.112,2.758q.277-7.37.681-14.736C297.765,158.5,297.65,151.806,302.332,151.273Z" transform="translate(-296.897 -151.249)" fill="#fdbe8b"/>
                <path id="Trazado_151235" data-name="Trazado 151235" d="M299.5,163.489c-.008-.342,0-.682.012-1.021.154-3.894,1.676-7.623,3.311-11.215a3.631,3.631,0,0,0-.493.021c-4.682.532-4.567,7.224-4.753,10.637q-.4,7.365-.681,14.736a3.974,3.974,0,0,0,1.542-.251c.221-1.585.532-3.167.85-4.732a21.354,21.354,0,0,0,.48-3.136,20.231,20.231,0,0,0-.118-2.869C299.587,164.936,299.519,164.214,299.5,163.489Z" transform="translate(-296.897 -151.25)" fill="#ffaa71"/>
                <path id="Trazado_151236" data-name="Trazado 151236" d="M301.13,162.767q-1.168,1.827-2.229,3.718a.34.34,0,0,0-.06.175.346.346,0,0,0,.137.215,22.582,22.582,0,0,1,2.388,2.622" transform="translate(-297.284 -153.544)" fill="none" stroke="#03091c" stroke-linecap="round" stroke-linejoin="round" stroke-width="0.847"/>
                <path id="Trazado_151237" data-name="Trazado 151237" d="M306.454,154.589a7.152,7.152,0,0,1,1.139,3.924,9.981,9.981,0,0,1-.888,4.017" transform="translate(-298.801 -151.915)" fill="none" stroke="#03091c" stroke-linecap="round" stroke-linejoin="round" stroke-width="0.847"/>
              </g>
              <g id="Grupo_134475" data-name="Grupo 134475" transform="translate(1.538)">
                <path id="Trazado_151238" data-name="Trazado 151238" d="M285.26,146.131c0-18.8-13.216-34.041-29.518-34.041s-29.519,15.241-29.519,34.041a39.5,39.5,0,0,0,.223,4.112l2.08,29.765s9.722,18.942,26.8,20.011v.051c.139,0,.274-.019.412-.026s.272.022.411.026v-.051c17.082-1.069,26.8-20.011,26.8-20.011l2.08-29.765A39.51,39.51,0,0,0,285.26,146.131Z" transform="translate(-222.701 -100.579)" fill="#fdbe8b"/>
                <path id="Trazado_151239" data-name="Trazado 151239" d="M262.487,112.984c-3.39-.088-6.24,2.423-9.1,4.251a32.752,32.752,0,0,1-18.769,5.085l11.615,7.657a47.289,47.289,0,0,0,4.58,2.778,41.955,41.955,0,0,0,4.852,2,159.934,159.934,0,0,0,18.306,5.182,3.44,3.44,0,0,1,2.992,2.4,36.309,36.309,0,0,1,2.792,6.792c1.34,5.145-1.032,8.776-3.269,13.24a130.258,130.258,0,0,1-7.885,13.614c-4.271,6.444-4.627,15.323-4.663,22.87,13.05-4.5,20.347-18.7,20.347-18.7l2.08-29.765a39.494,39.494,0,0,0,.223-4.112,38.756,38.756,0,0,0-1.642-11.216,33.89,33.89,0,0,0-11.782-17.314,27.682,27.682,0,0,0-8.961-4.5A6.831,6.831,0,0,0,262.487,112.984Z" transform="translate(-224.373 -100.757)" fill="#ffaa71"/>
                <path id="Trazado_151240" data-name="Trazado 151240" d="M287.993,123.495c.259-.186.519-.37.776-.565,0,0,12.827-19.185-4.6-21.816,0,0-10.744,2.192-15.239.11s-9.1-3.18-13.814-1.206c0,0-12.717-6.03-19.624,1.425,0,0-5.592,4.385-6.359,10.963,0,0-6.578,3.069-6.907,9.1s-.877,11.182.439,15.239,2.741,9.539,2.741,9.539l.03-.144,2.16,30.2a3.678,3.678,0,0,0,.469,1.56c2.015,3.544,11.359,18.424,26.639,19.27v.014c.027,0,.054,0,.082-.006s.054.006.083.006v-.014c15.246-.844,24.753-15.655,26.837-19.241a3.675,3.675,0,0,0,.488-1.617l1.847-28.824,1.114-1.312s3.179-8.223,4.824-12.717-1.316-8.551-1.316-8.551Zm-8.872,40.218c-.768,2.63-9.758,11.73-9.758,11.73a10.847,10.847,0,0,1-2.083-3.179,4.824,4.824,0,0,0-2.522-2.522l-9.757-.63v-.028l-.219.014-.219-.014v.028l-9.757.63a4.827,4.827,0,0,0-2.522,2.522,10.848,10.848,0,0,1-2.083,3.179s-8.99-9.1-9.757-11.73-4.386-17.431-2.192-24.558l3.727-2.412,1.266-14.932s22.99,12.493,44.129,6.713l.212,8.219,3.727,2.412C283.506,146.282,279.889,161.082,279.121,163.713Z" transform="translate(-221.824 -97.714)" fill="#683424"/>
                <path id="Trazado_151241" data-name="Trazado 151241" d="M294,135.1a2.626,2.626,0,0,0,1.818-.448,14.2,14.2,0,0,0,4.424-3.155" transform="translate(-236.206 -104.445)" fill="none" stroke="#03091c" stroke-linecap="round" stroke-linejoin="round" stroke-width="0.847"/>
                <path id="Trazado_151242" data-name="Trazado 151242" d="M263.5,101.877a3.408,3.408,0,0,1,1.482.826,64,64,0,0,1,6.754,6.348" transform="translate(-230.129 -98.544)" fill="none" stroke="#03091c" stroke-linecap="round" stroke-linejoin="round" stroke-width="0.847"/>
                <path id="Trazado_151243" data-name="Trazado 151243" d="M285.294,104.643a11.985,11.985,0,0,1,4.823,4.487" transform="translate(-234.471 -99.095)" fill="none" stroke="#03091c" stroke-linecap="round" stroke-linejoin="round" stroke-width="0.847"/>
                <path id="Trazado_151244" data-name="Trazado 151244" d="M305.172,106.3a1.013,1.013,0,0,1,.555.588,10.913,10.913,0,0,1-1.88,12.185" transform="translate(-238.168 -99.426)" fill="none" stroke="#03091c" stroke-linecap="round" stroke-linejoin="round" stroke-width="0.847"/>
                <path id="Trazado_151245" data-name="Trazado 151245" d="M231.152,121.024a5.266,5.266,0,0,0,1.4,1.971" transform="translate(-223.683 -102.359)" fill="none" stroke="#03091c" stroke-linecap="round" stroke-linejoin="round" stroke-width="0.847"/>
                <path id="Trazado_151246" data-name="Trazado 151246" d="M257.766,199.122a13.554,13.554,0,0,1,10.262-.328" transform="translate(-228.986 -117.685)" fill="none" stroke="#03091c" stroke-linecap="round" stroke-linejoin="round" stroke-width="0.847"/>
              </g>
              <g id="Grupo_134476" data-name="Grupo 134476" transform="translate(18.105 47.306)">
                <path id="Trazado_151247" data-name="Trazado 151247" d="M249.086,161.731c0,2.18-1.233,3.947-2.755,3.947s-2.755-1.766-2.755-3.947,1.233-3.946,2.755-3.946S249.086,159.551,249.086,161.731Z" transform="translate(-242.726 -156.99)" fill="#03091c"/>
                <path id="Trazado_151248" data-name="Trazado 151248" d="M250.171,159.49a.987.987,0,1,1-.987-.987A.987.987,0,0,1,250.171,159.49Z" transform="translate(-243.647 -157.133)" fill="#fff"/>
                <path id="Trazado_151249" data-name="Trazado 151249" d="M248.061,161.037a.274.274,0,1,1-.275-.275A.274.274,0,0,1,248.061,161.037Z" transform="translate(-243.51 -157.583)" fill="#fff"/>
                <path id="Trazado_151250" data-name="Trazado 151250" d="M242.514,167.7a18.131,18.131,0,0,1,7.039-.039" transform="translate(-242.514 -158.89)" fill="none" stroke="#03091c" stroke-linecap="round" stroke-linejoin="round" stroke-width="0.847"/>
                <path id="Trazado_151251" data-name="Trazado 151251" d="M281.945,161.731c0,2.18-1.234,3.947-2.755,3.947s-2.755-1.766-2.755-3.947,1.233-3.946,2.755-3.946S281.945,159.551,281.945,161.731Z" transform="translate(-249.273 -156.99)" fill="#03091c"/>
                <path id="Trazado_151252" data-name="Trazado 151252" d="M283.03,159.49a.987.987,0,1,1-.987-.987A.987.987,0,0,1,283.03,159.49Z" transform="translate(-250.194 -157.133)" fill="#fff"/>
                <path id="Trazado_151253" data-name="Trazado 151253" d="M280.92,161.037a.274.274,0,1,1-.274-.275A.274.274,0,0,1,280.92,161.037Z" transform="translate(-250.057 -157.583)" fill="#fff"/>
                <path id="Trazado_151254" data-name="Trazado 151254" d="M275.373,167.7a18.127,18.127,0,0,1,7.039-.039" transform="translate(-249.061 -158.89)" fill="none" stroke="#03091c" stroke-linecap="round" stroke-linejoin="round" stroke-width="0.847"/>
                <path id="Trazado_151255" data-name="Trazado 151255" d="M262.3,156.792l.274,4-2.467,16.116,2.96.11v1.042" transform="translate(-246.02 -156.792)" fill="none" stroke="#03091c" stroke-linecap="round" stroke-linejoin="round" stroke-width="0.847"/>
              </g>
              <path id="Trazado_151256" data-name="Trazado 151256" d="M285.2,156.234l-2.413-3.892L269.248,154.1c.054.274.384,4.166.384,4.166l11.347-4.057Z" transform="translate(-229.736 -108.599)" fill="#03091c"/>
              <path id="Trazado_151257" data-name="Trazado 151257" d="M235.123,153.462l2.412-3.892,13.539,1.754c-.054.274-.384,4.165-.384,4.165l-11.347-4.056Z" transform="translate(-222.936 -108.047)" fill="#03091c"/>
              <path id="Trazado_151258" data-name="Trazado 151258" d="M269.545,138.305c-3.509-1.782-7.111-3.635-9.676-6.619a2.227,2.227,0,0,0-.506-.484,2.1,2.1,0,0,0-.8-.228,98.654,98.654,0,0,1-17.653-4.29c-.949-.326-5.05-2.587-5.678-2.108,3.51,3.166,8.146,5.58,12.4,7.583a68.615,68.615,0,0,0,13.746,4.776A67.117,67.117,0,0,0,269.545,138.305Z" transform="translate(-222.958 -103.053)" fill="#683424"/>
              <path id="Trazado_151259" data-name="Trazado 151259" d="M263.224,100.273a17.335,17.335,0,0,1,13.349-1.832c4.341,1.192,8.112,4.065,12.519,4.986.348.073.848.03.884-.323" transform="translate(-228.536 -97.74)" fill="none" stroke="#683424" stroke-linecap="round" stroke-linejoin="round" stroke-width="0.847"/>
              <path id="Trazado_151260" data-name="Trazado 151260" d="M303.5,129.266a17.968,17.968,0,0,1,3.038,2.7,6.035,6.035,0,0,1,1.52,3.693c.038,3.263-3.328,5.618-3.961,8.819" transform="translate(-236.561 -104.001)" fill="none" stroke="#683424" stroke-linecap="round" stroke-linejoin="round" stroke-width="0.847"/>
              <path id="Trazado_151261" data-name="Trazado 151261" d="M231.1,115.244c-1.208-1.971-.585-4.558.487-6.607a8.572,8.572,0,0,1,3.845-4.051c2.488-1.106,5.377-.287,8.084-.572" transform="translate(-222.003 -98.964)" fill="none" stroke="#683424" stroke-linecap="round" stroke-linejoin="round" stroke-width="0.847"/>
              <path id="Trazado_151262" data-name="Trazado 151262" d="M256.272,263.35c1.324.07,28.887,1.177,34.316-26.078-1.362-.453-2.719-.918-4.065-1.4q-.915-.331-1.835-.649c-.368,7.449-4.347,18.194-23.365,21.272a31.806,31.806,0,0,1-10.242-.022c-19.9-3.274-23.238-14.98-23.255-22.407-1.217.392-2.405.882-3.626,1.268a16.667,16.667,0,0,1-3.241.488,2.472,2.472,0,0,0-1.055.162C225.674,262.869,254.955,263.419,256.272,263.35Z" transform="translate(-219.904 -124.882)" fill="#1c2b1c"/>
            </g>
          </g>
        </g>
      </g>
    </g>
  </g>
</svg>
