<svg xmlns="http://www.w3.org/2000/svg" xmlns:xlink="http://www.w3.org/1999/xlink" width="383" height="388" viewBox="0 0 383 388">
  <defs>
    <clipPath id="clip-path">
      <rect id="Rectángulo_35529" data-name="Rectángulo 35529" width="383" height="388" transform="translate(250 5200)" fill="#fff" stroke="#707070" stroke-width="1"/>
    </clipPath>
  </defs>
  <g id="img5" transform="translate(-250 -5200)" clip-path="url(#clip-path)">
    <g id="Grupo_134486" data-name="Grupo 134486" transform="translate(0 1757)">
      <path id="Trazado_148788" data-name="Trazado 148788" d="M-5619.141-856.675c.01-.891.033-1.78.033-2.673,0-123.93-100.135-224.478-223.954-225.254V-1217.45c197.234.779,356.882,160.8,356.882,358.1,0,.892-.009,1.782-.017,2.673Z" transform="translate(6097.062 4674.45)" fill="#bcbcbc" style="isolation: isolate"/>
      <g id="Grupo_134481" data-name="Grupo 134481" transform="translate(-223.526 -75)">
        <g id="Grupo_134480" data-name="Grupo 134480" transform="translate(505 3522)">
          <g id="Grupo_134479" data-name="Grupo 134479" transform="translate(0 0)">
            <g id="Grupo_134455" data-name="Grupo 134455">
              <g id="Grupo_134426" data-name="Grupo 134426" transform="translate(0 160.827)">
                <g id="Grupo_134424" data-name="Grupo 134424" transform="translate(210.835)">
                  <path id="Trazado_151111" data-name="Trazado 151111" d="M431.064,266.173l-10.989-5.323v-3.619a12.319,12.319,0,0,0-12.319-12.319H322.638a12.319,12.319,0,0,0-12.319,12.319v41.445a12.319,12.319,0,0,0,12.319,12.319h85.118a12.319,12.319,0,0,0,12.319-12.319V270.194Z" transform="translate(-310.319 -244.912)" fill="#eaeaea"/>
                </g>
                <g id="Grupo_134425" data-name="Grupo 134425" transform="translate(0 102.554)">
                  <path id="Trazado_151112" data-name="Trazado 151112" d="M167.766,394.246l-10.99-5.323V385.3a12.319,12.319,0,0,0-12.319-12.319H59.34A12.319,12.319,0,0,0,47.021,385.3v41.446A12.319,12.319,0,0,0,59.34,439.068h85.117a12.319,12.319,0,0,0,12.319-12.319V398.267Z" transform="translate(-47.021 -372.985)" fill="#eaeaea"/>
                </g>
                <path id="Trazado_151113" data-name="Trazado 151113" d="M455.784,330.552l1.769,3.585,3.956.575-2.863,2.791.676,3.94-3.539-1.86-3.539,1.86.676-3.94-2.863-2.791,3.956-.575Z" transform="translate(-127.328 -261.976)" fill="#eaeaea"/>
                <path id="Trazado_151114" data-name="Trazado 151114" d="M70.263,245.708l1.769,3.585,3.956.575-2.863,2.791.676,3.94-3.539-1.86-3.539,1.86.676-3.94-2.863-2.791,3.956-.575Z" transform="translate(-50.511 -245.071)" fill="#eaeaea"/>
                <path id="Trazado_151115" data-name="Trazado 151115" d="M87.816,245.708l1.769,3.585,3.956.575-2.863,2.791.676,3.94-3.539-1.86-3.539,1.86.676-3.94-2.863-2.791,3.956-.575Z" transform="translate(-54.009 -245.071)" fill="#eaeaea"/>
              </g>
              <g id="Grupo_134429" data-name="Grupo 134429" transform="translate(236.587 3.431)">
                <path id="Trazado_151119" data-name="Trazado 151119" d="M342.479,64.014l8.1-3.921V57.427a9.075,9.075,0,0,1,9.075-9.076h62.706a9.075,9.075,0,0,1,9.075,9.076V87.959a9.075,9.075,0,0,1-9.075,9.075H359.65a9.075,9.075,0,0,1-9.075-9.075V66.976Z" transform="translate(-343.125 -47.383)" fill="#3e2ea6"/>
                <g id="Grupo_136995" data-name="Grupo 136995" transform="translate(-1378.289 -2114.714)">
                  <g id="Grupo_136989" data-name="Grupo 136989" transform="translate(1398.228 2123.283)">
                    <path id="Trazado_151721" data-name="Trazado 151721" d="M1423.443,2156.766h-24.649a.566.566,0,0,1-.567-.566v-26.437a.567.567,0,0,1,.567-.566h4.657v-5.345a.566.566,0,0,1,.566-.566h19.426a.567.567,0,0,1,.567.566V2156.2A.566.566,0,0,1,1423.443,2156.766Zm-24.083-1.133h23.516v-31.216h-18.293v5.345a.566.566,0,0,1-.567.567h-4.657Z" transform="translate(-1398.228 -2123.284)" fill="#fff"/>
                  </g>
                  <g id="Grupo_136990" data-name="Grupo 136990" transform="translate(1402.614 2135.405)">
                    <path id="Trazado_151722" data-name="Trazado 151722" d="M1433.424,2177.915h-15.271a.567.567,0,0,1,0-1.133h15.271a.567.567,0,0,1,0,1.133Z" transform="translate(-1417.586 -2176.782)" fill="#fff"/>
                  </g>
                  <g id="Grupo_136991" data-name="Grupo 136991" transform="translate(1402.614 2138.82)">
                    <path id="Trazado_151723" data-name="Trazado 151723" d="M1433.424,2192.988h-15.271a.566.566,0,0,1,0-1.133h15.271a.566.566,0,0,1,0,1.133Z" transform="translate(-1417.586 -2191.855)" fill="#fff"/>
                  </g>
                  <g id="Grupo_136992" data-name="Grupo 136992" transform="translate(1402.614 2141.968)">
                    <path id="Trazado_151724" data-name="Trazado 151724" d="M1433.424,2206.882h-15.271a.566.566,0,0,1,0-1.133h15.271a.566.566,0,0,1,0,1.133Z" transform="translate(-1417.586 -2205.749)" fill="#fff"/>
                  </g>
                  <g id="Grupo_136993" data-name="Grupo 136993" transform="translate(1402.827 2145.25)">
                    <path id="Trazado_151725" data-name="Trazado 151725" d="M1434.544,2221.368h-15.45a.567.567,0,0,1,0-1.133h15.45a.567.567,0,1,1,0,1.133Z" transform="translate(-1418.527 -2220.235)" fill="#fff"/>
                  </g>
                  <g id="Grupo_136994" data-name="Grupo 136994" transform="translate(1398.228 2123.283)">
                    <path id="Trazado_151726" data-name="Trazado 151726" d="M1398.794,2130.328a.566.566,0,0,1-.424-.941l5.223-5.912a.566.566,0,0,1,.849.75l-5.223,5.912A.565.565,0,0,1,1398.794,2130.328Z" transform="translate(-1398.228 -2123.283)" fill="#fff"/>
                  </g>
                </g>
                <g id="Grupo_136996" data-name="Grupo 136996" transform="translate(-1348.289 -2114.714)">
                  <g id="Grupo_136989-2" data-name="Grupo 136989" transform="translate(1398.228 2123.283)">
                    <path id="Trazado_151721-2" data-name="Trazado 151721" d="M1423.443,2156.766h-24.649a.566.566,0,0,1-.567-.566v-26.437a.567.567,0,0,1,.567-.566h4.657v-5.345a.566.566,0,0,1,.566-.566h19.426a.567.567,0,0,1,.567.566V2156.2A.566.566,0,0,1,1423.443,2156.766Zm-24.083-1.133h23.516v-31.216h-18.293v5.345a.566.566,0,0,1-.567.567h-4.657Z" transform="translate(-1398.228 -2123.284)" fill="#fff"/>
                  </g>
                  <g id="Grupo_136990-2" data-name="Grupo 136990" transform="translate(1402.614 2135.405)">
                    <path id="Trazado_151722-2" data-name="Trazado 151722" d="M1433.424,2177.915h-15.271a.567.567,0,0,1,0-1.133h15.271a.567.567,0,0,1,0,1.133Z" transform="translate(-1417.586 -2176.782)" fill="#fff"/>
                  </g>
                  <g id="Grupo_136991-2" data-name="Grupo 136991" transform="translate(1402.614 2138.82)">
                    <path id="Trazado_151723-2" data-name="Trazado 151723" d="M1433.424,2192.988h-15.271a.566.566,0,0,1,0-1.133h15.271a.566.566,0,0,1,0,1.133Z" transform="translate(-1417.586 -2191.855)" fill="#fff"/>
                  </g>
                  <g id="Grupo_136992-2" data-name="Grupo 136992" transform="translate(1402.614 2141.968)">
                    <path id="Trazado_151724-2" data-name="Trazado 151724" d="M1433.424,2206.882h-15.271a.566.566,0,0,1,0-1.133h15.271a.566.566,0,0,1,0,1.133Z" transform="translate(-1417.586 -2205.749)" fill="#fff"/>
                  </g>
                  <g id="Grupo_136993-2" data-name="Grupo 136993" transform="translate(1402.827 2145.25)">
                    <path id="Trazado_151725-2" data-name="Trazado 151725" d="M1434.544,2221.368h-15.45a.567.567,0,0,1,0-1.133h15.45a.567.567,0,1,1,0,1.133Z" transform="translate(-1418.527 -2220.235)" fill="#fff"/>
                  </g>
                  <g id="Grupo_136994-2" data-name="Grupo 136994" transform="translate(1398.228 2123.283)">
                    <path id="Trazado_151726-2" data-name="Trazado 151726" d="M1398.794,2130.328a.566.566,0,0,1-.424-.941l5.223-5.912a.566.566,0,0,1,.849.75l-5.223,5.912A.565.565,0,0,1,1398.794,2130.328Z" transform="translate(-1398.228 -2123.283)" fill="#fff"/>
                  </g>
                </g>
              </g>
              <g id="Grupo_134432" data-name="Grupo 134432" transform="translate(198.587 55.712)">
                <path id="Trazado_151125" data-name="Trazado 151125" d="M342.479,129.66l8.28-4.011v-2.727a9.281,9.281,0,0,1,9.281-9.281h16.53a9.281,9.281,0,0,1,9.281,9.281v14.813a9.282,9.282,0,0,1-9.281,9.281h-16.53a9.281,9.281,0,0,1-9.281-9.281v-5.046Z" transform="translate(-342.479 -113.641)" fill="#3e2ea6"/>
                <g id="Grupo_134431" data-name="Grupo 134431" transform="translate(17.224 9.198)">
                  <path id="Trazado_151126" data-name="Trazado 151126" d="M363.989,132.617a7.489,7.489,0,1,0,7.489-7.489A7.489,7.489,0,0,0,363.989,132.617Z" transform="translate(-363.989 -125.128)" fill="none" stroke="#fff" stroke-linecap="round" stroke-linejoin="round" stroke-width="1.025"/>
                  <path id="Trazado_151127" data-name="Trazado 151127" d="M376.06,139.209a25.313,25.313,0,0,0-7.238-.022" transform="translate(-364.952 -127.88)" fill="none" stroke="#fff" stroke-linecap="round" stroke-linejoin="round" stroke-width="1.025"/>
                  <g id="Grupo_134430" data-name="Grupo 134430" transform="translate(3.232 4.411)">
                    <path id="Trazado_151128" data-name="Trazado 151128" d="M374.772,132.193a1.556,1.556,0,1,0,1.556-1.556A1.556,1.556,0,0,0,374.772,132.193Z" transform="translate(-369.369 -130.637)" fill="#fff"/>
                    <path id="Trazado_151129" data-name="Trazado 151129" d="M368.025,132.193a1.556,1.556,0,1,0,1.556-1.556A1.556,1.556,0,0,0,368.025,132.193Z" transform="translate(-368.025 -130.637)" fill="#fff"/>
                  </g>
                </g>
              </g>
              <g id="Grupo_134436" data-name="Grupo 134436" transform="translate(241.96 94.712)">
                <path id="Trazado_151130" data-name="Trazado 151130" d="M399.233,129.66l8.28-4.011v-2.727a9.281,9.281,0,0,1,9.281-9.281h16.53a9.281,9.281,0,0,1,9.281,9.281v14.813a9.281,9.281,0,0,1-9.281,9.281h-16.53a9.282,9.282,0,0,1-9.281-9.281v-5.046Z" transform="translate(-399.233 -113.641)" fill="#3e2ea6"/>
                <g id="Grupo_134435" data-name="Grupo 134435" transform="translate(17.223 9.198)">
                  <path id="Trazado_151131" data-name="Trazado 151131" d="M420.742,132.617a7.489,7.489,0,1,0,7.489-7.489A7.489,7.489,0,0,0,420.742,132.617Z" transform="translate(-420.742 -125.128)" fill="none" stroke="#fff" stroke-linecap="round" stroke-linejoin="round" stroke-width="1.025"/>
                  <path id="Trazado_151132" data-name="Trazado 151132" d="M432.813,139.209a25.307,25.307,0,0,0-7.237-.022" transform="translate(-421.705 -127.88)" fill="none" stroke="#fff" stroke-linecap="round" stroke-linejoin="round" stroke-width="1.025"/>
                  <g id="Grupo_134433" data-name="Grupo 134433" transform="translate(8.45 4.411)">
                    <path id="Trazado_151133" data-name="Trazado 151133" d="M431.479,132.193c-.685.518.7,1.556,1.557,1.556a1.556,1.556,0,0,0,0-3.112C432.177,130.637,431.988,131.809,431.479,132.193Z" transform="translate(-431.295 -130.637)" fill="#fff"/>
                  </g>
                  <g id="Grupo_134434" data-name="Grupo 134434" transform="translate(3.112 4.411)">
                    <path id="Trazado_151134" data-name="Trazado 151134" d="M427.74,132.193c.686.518-.7,1.556-1.556,1.556a1.556,1.556,0,1,1,0-3.112C427.043,130.637,427.23,131.809,427.74,132.193Z" transform="translate(-424.628 -130.637)" fill="#fff"/>
                  </g>
                </g>
              </g>
              <g id="Grupo_134454" data-name="Grupo 134454" transform="translate(3.548)">
                <g id="Grupo_134437" data-name="Grupo 134437" transform="translate(27.749 9.156)">
                  <path id="Trazado_151135" data-name="Trazado 151135" d="M125.085,202.3l-6.162-2.985v-2.029a6.907,6.907,0,0,0-6.907-6.907H64.29a6.907,6.907,0,0,0-6.907,6.907v23.238a6.907,6.907,0,0,0,6.907,6.907h47.725a6.907,6.907,0,0,0,6.907-6.907v-15.97Z" transform="translate(-57.383 -190.375)" fill="#3e2ea6"/>
                  <path id="Trazado_151136" data-name="Trazado 151136" d="M80.583,213.17A5.174,5.174,0,1,1,75.41,208,5.173,5.173,0,0,1,80.583,213.17Z" transform="translate(-59.944 -193.886)" fill="#fff"/>
                  <path id="Trazado_151137" data-name="Trazado 151137" d="M99.125,213.17A5.173,5.173,0,1,1,93.953,208,5.173,5.173,0,0,1,99.125,213.17Z" transform="translate(-63.639 -193.886)" fill="#fff"/>
                  <path id="Trazado_151138" data-name="Trazado 151138" d="M117.668,213.17A5.174,5.174,0,1,1,112.495,208,5.173,5.173,0,0,1,117.668,213.17Z" transform="translate(-67.333 -193.886)" fill="#fff"/>
                </g>
              </g>
              <g id="Grupo_136723" data-name="Grupo 136723" transform="translate(-146.424 -43.109)">
                <g id="Grupo_136723-2" data-name="Grupo 136723" transform="translate(188.802 58.365)">
                  <path id="Trazado_151648" data-name="Trazado 151648" d="M320.44,69.722c-22.863-17.317-55.672-15.586-67.762,10.421a34.951,34.951,0,0,0-2.188,6.086c-5.05,19.752,9.762,21.078-7.022,32.724s-25.016,16.021-26.794,26.84c-3.139,19.111,19.629,14.361-3.767,30.819s-28.1,32.438-21.26,45.859c12.03,23.62,28.1-2.317,36.13,27.333.049.179.1.355.147.532,4.479,16.078,26.094,18.874,34.515,4.463,6.8-11.63,13.684-22.656,27.1-15.006,24.79,14.137,31.858,39.726,49.877,20.786s2.354-31.514,16.076-42.665,2.757-33.525-11.738-42.1-33.106-10.017-24.473-20.574,12.219-17.47,7.59-25.718.771-7.413,2.706-19.938C330.7,102.291,334.37,80.272,320.44,69.722Z" transform="translate(-188.772 -58.365)" fill="#181709"/>
                </g>
                <g id="Grupo_136730" data-name="Grupo 136730" transform="translate(308.516 167.568)">
                  <g id="Grupo_136725" data-name="Grupo 136725">
                    <g id="Grupo_136724" data-name="Grupo 136724">
                      <path id="Trazado_151649" data-name="Trazado 151649" d="M273.627,261.156q5.075-5.647,9.828-11.535,5.658-7,10.819-14.326c3.434-4.875,6.7-9.84,9.746-14.876,1.524-2.517,2.987-5.055,4.375-7.588l.265-.484c-.361-.758-.751-1.552-1.168-2.356-1.5-2.885-3.319-5.93-5.241-8.974-3.885-6.105-8.254-12.247-12.786-18.319s-9.278-12.1-14.117-18.061q-3.63-4.475-7.339-8.891l-3.719-4.4-1.868-2.174-1.831-2.107-.129-.156a16.165,16.165,0,0,1,24.412-21.2l2.038,2.346,1.971,2.3,3.894,4.6q3.874,4.616,7.673,9.292c5.066,6.239,10.045,12.576,14.918,19.088s9.628,13.193,14.185,20.35c2.275,3.6,4.5,7.3,6.632,11.394,1.062,2.05,2.105,4.2,3.1,6.582a49.456,49.456,0,0,1,2.71,8.426,15.735,15.735,0,0,1-1.623,11.118l-.065.115c-.127.217-.177.285-.258.414l-.212.316-.4.59-.772,1.11c-.513.723-1.022,1.425-1.534,2.116-1.016,1.388-2.043,2.733-3.077,4.057q-3.1,3.974-6.321,7.744c-4.288,5.038-8.732,9.868-13.3,14.542s-9.285,9.172-14.126,13.5-9.776,8.488-14.84,12.482Z" transform="translate(-256.501 -120.147)" fill="#c9614d"/>
                    </g>
                  </g>
                  <g id="Grupo_136727" data-name="Grupo 136727" transform="translate(51.533 86.259)">
                    <g id="Grupo_136726" data-name="Grupo 136726">
                      <path id="Trazado_151650" data-name="Trazado 151650" d="M298.292,170.172a18.662,18.662,0,0,0-11.584,5.076c-.573.537-1.437-.323-.863-.864a20.008,20.008,0,0,1,12.447-5.433c.783-.055.781,1.167,0,1.221Z" transform="translate(-285.656 -168.949)" fill="#722324"/>
                    </g>
                  </g>
                  <g id="Grupo_136729" data-name="Grupo 136729" transform="translate(54.293 82.267)">
                    <g id="Grupo_136728" data-name="Grupo 136728">
                      <path id="Trazado_151651" data-name="Trazado 151651" d="M292.744,167.584l-4.368,6.5c-.437.647-1.494.037-1.053-.617l4.366-6.5c.437-.649,1.5-.039,1.055.617Z" transform="translate(-287.218 -166.69)" fill="#722324"/>
                    </g>
                  </g>
                </g>
                <g id="Grupo_136766" data-name="Grupo 136766" transform="translate(227.489 155.566)">
                  <g id="Grupo_136737" data-name="Grupo 136737">
                    <g id="Grupo_136736" data-name="Grupo 136736">
                      <g id="Grupo_136735" data-name="Grupo 136735">
                        <g id="Grupo_136734" data-name="Grupo 136734">
                          <g id="Grupo_136733" data-name="Grupo 136733">
                            <g id="Grupo_136732" data-name="Grupo 136732">
                              <g id="Grupo_136731" data-name="Grupo 136731">
                                <path id="Trazado_151652" data-name="Trazado 151652" d="M343.258,314.5s-17.633.9-44.4-6.672c-.368-.1-.737-.207-1.11-.316a218.247,218.247,0,0,1-30.179-11.242l-1.023-.472a240.071,240.071,0,0,1-25.309-13.654,80.566,80.566,0,0,0,4.566-10.664q.209-.581.414-1.191a84.153,84.153,0,0,0,4.262-19.91c.028-.366.055-.732.076-1.1a60.182,60.182,0,0,0-.1-9.433,44.518,44.518,0,0,0-.949-5.737c-.08-.359-.164-.719-.255-1.085q-.347-1.434-.783-2.929a162.448,162.448,0,0,0-9.476-23.68c-.164-.339-.329-.682-.493-1.025-3.182-6.589-6.676-13.225-10.073-19.445-.182-.329-.361-.658-.536-.983-2.593-4.718-5.113-9.181-7.385-13.184-.242-.419-.479-.836-.712-1.244-.523-.921-1.03-1.819-1.524-2.685-.518-.912-1.025-1.789-1.515-2.628-.194-.332-.387-.661-.574-.979-2.6-4.429-4.619-7.717-4.912-9.539-.237-1.5-.449-3.06-.546-4.642-.027-.384-.044-.771-.055-1.154a24.055,24.055,0,0,1,.09-2.851c.044-.483.106-.962.191-1.444a16.709,16.709,0,0,1,.748-2.881,13.217,13.217,0,0,1,.6-1.439c1.439-3.072,4.018-6.022,8.419-8.649.313-.189.642-.375.977-.562.445-.247.914-.493,1.4-.734.5-.253,1.022-.5,1.563-.742,1.23-.55,2.559-1.087,4-1.594a71.237,71.237,0,0,0,12.53-5.691c.438-.251.852-.507,1.25-.762a36.8,36.8,0,0,0,3.882-2.8c.3-.24.574-.483.836-.716,3.106-2.775,3.828-4.693,3.828-4.693l21.214,2.473,1.38.161,12.074,1.405a58.039,58.039,0,0,0,10.39,4.967q.862.3,1.732.548c.726.209,1.453.394,2.176.541.431.09.859.168,1.281.226.493.076.983.131,1.465.161,5.053.322,9.366.346,12.322,2.911a8.487,8.487,0,0,1,1.052,1.094,12.6,12.6,0,0,1,2.24,4.788c.117.442.21.884.292,1.333.025.133.048.263.069.394.041.232.073.465.106.695.034.253.062.5.088.757.384,3.786-.1,7.721-.315,11.222a29.7,29.7,0,0,0-.007,4.642c.037.376.083.742.15,1.1a7.3,7.3,0,0,0,1.278,3.155c1.881,2.494,5.327,5.538,8.092,9.635.113.168.226.336.336.511.187.288.366.58.541.88.074.117.143.233.216.357a22.37,22.37,0,0,1,2.86,8.228c.025.187.048.373.065.564.03.258.051.518.069.785.009.106.016.212.016.322a19.885,19.885,0,0,1,.011,2.179,31.164,31.164,0,0,1-1.181,6.98c-.117.456-.255.9-.391,1.365-.445,1.439-.956,2.87-1.5,4.3-.209.544-.419,1.092-.635,1.637-.654,1.63-1.338,3.254-2.006,4.871q-.217.528-.431,1.052c-.171.414-.339.825-.5,1.239v0q-.35.864-.679,1.73v0c-.682,1.794-1.3,3.579-1.785,5.361-.129.461-.242.921-.352,1.384a29.019,29.019,0,0,0-.58,3.236,57.585,57.585,0,0,0,.709,14.2l.131.866c.011.076.026.154.037.23.4,2.545.894,5.2,1.456,7.889.124.606.256,1.209.387,1.819v0c.859,3.912,1.84,7.858,2.867,11.629.117.419.23.833.343,1.244.939,3.387,1.911,6.607,2.842,9.5q.925,2.877,1.76,5.607v.014c.4,1.315.788,2.586,1.161,3.846q.042.143.08.281v.018c.088.283.171.551.249.829C342.633,299.571,343.258,314.5,343.258,314.5Z" transform="translate(-210.659 -113.357)" fill="#fff"/>
                              </g>
                            </g>
                          </g>
                        </g>
                      </g>
                    </g>
                  </g>
                  <g id="Grupo_136763" data-name="Grupo 136763" transform="translate(0.008 2.473)">
                    <g id="Grupo_136739" data-name="Grupo 136739" transform="translate(5.513 35.365)">
                      <g id="Grupo_136738" data-name="Grupo 136738">
                        <path id="Trazado_151653" data-name="Trazado 151653" d="M316.286,136.339q-3.139-.186-6.278-.3c-.026,0-.051,0-.078,0-.364-.012-.726-.027-1.091-.034q-9.874-.323-19.751.048-.581.021-1.161.044h0q-10.481.432-20.9,1.624c-.384.041-.771.085-1.158.131h0q-12.424,1.469-24.684,4.014c-.548.113-1.1.23-1.644.346-.38.081-.757.161-1.133.246q-12.154,2.646-24.04,6.34c-.194-.332-.387-.661-.574-.979q11.862-3.693,24.005-6.347c.38-.088.757-.168,1.137-.249q13.1-2.816,26.43-4.4h0c.387-.051.771-.1,1.158-.14q6.66-.772,13.356-1.234,3.813-.262,7.629-.421c.391-.021.778-.035,1.165-.048q9.895-.382,19.795-.072c.364.011.73.021,1.1.037q3.29.109,6.577.3C316.173,135.619,316.219,135.985,316.286,136.339Z" transform="translate(-213.783 -134.764)" fill="#e2cec3"/>
                      </g>
                    </g>
                    <g id="Grupo_136741" data-name="Grupo 136741" transform="translate(17.223 57.026)">
                      <g id="Grupo_136740" data-name="Grupo 136740">
                        <path id="Trazado_151654" data-name="Trazado 151654" d="M324.674,151.369q-6.294-1.172-12.659-1.925c-.055-.007-.113-.014-.168-.018-.354-.044-.712-.085-1.066-.125q-9.619-1.068-19.309-1.182c-.38-.007-.764-.011-1.144-.014q-9.871-.061-19.721.85c-.373.034-.744.069-1.117.106a199.275,199.275,0,0,0-24.293,3.922c-.362.08-.719.164-1.082.244a197.752,197.752,0,0,0-23.173,6.888c-.182-.329-.361-.658-.536-.983q3.1-1.148,6.252-2.179,8.381-2.76,16.977-4.755c.362-.085.721-.164,1.082-.246A199.131,199.131,0,0,1,269.1,148c.371-.037.744-.074,1.117-.106q9.86-.925,19.779-.87c.384,0,.764,0,1.147.011,6.457.074,12.914.456,19.333,1.161.355.037.709.078,1.064.12q6.557.75,13.052,1.948c.03.258.051.518.069.785C324.667,151.153,324.674,151.259,324.674,151.369Z" transform="translate(-220.408 -147.019)" fill="#e2cec3"/>
                      </g>
                    </g>
                    <g id="Grupo_136743" data-name="Grupo 136743" transform="translate(27.832 81.449)">
                      <g id="Grupo_136742" data-name="Grupo 136742">
                        <path id="Trazado_151655" data-name="Trazado 151655" d="M314.361,162.1q-.217.528-.431,1.052c-.262-.028-.521-.055-.785-.08-.35-.037-.7-.069-1.052-.1q-9.341-.87-18.727-1.027h-.026c-.371-.007-.748-.011-1.121-.014q-9.362-.109-18.709.5c-.369.023-.741.048-1.11.074q-11.541.8-22.971,2.683c-.369.062-.737.12-1.106.187q-10.8,1.824-21.419,4.6c-.164-.339-.329-.682-.493-1.025.035-.012.076-.019.113-.03q10.621-2.784,21.46-4.613.551-.1,1.106-.186,11.443-1.885,23.029-2.688l1.11-.076q9.357-.607,18.743-.511c.371,0,.748.007,1.121.014h0q9.394.138,18.761.99c.35.032.7.065,1.052.1C313.394,162,313.877,162.047,314.361,162.1Z" transform="translate(-226.41 -160.836)" fill="#e2cec3"/>
                      </g>
                    </g>
                    <g id="Grupo_136745" data-name="Grupo 136745" transform="translate(38.584 109.644)">
                      <g id="Grupo_136744" data-name="Grupo 136744">
                        <path id="Trazado_151656" data-name="Trazado 151656" d="M306.2,178.929c.011.076.027.154.037.23-.942-.117-1.89-.223-2.835-.322q-4.634-.48-9.29-.726-.554-.027-1.114-.055a181.61,181.61,0,0,0-18.169.078c-.369.021-.735.039-1.1.065a181.626,181.626,0,0,0-22.333,2.738c-.361.064-.719.133-1.076.2a180.647,180.647,0,0,0-17.571,4.292c-.08-.359-.164-.719-.255-1.085a180.467,180.467,0,0,1,17.645-4.3c.359-.069.719-.134,1.078-.2a181.966,181.966,0,0,1,22.324-2.722q.554-.037,1.1-.065,9.083-.5,18.185-.083c.371.018.741.035,1.114.055q6.079.31,12.132,1.032Z" transform="translate(-232.493 -176.788)" fill="#e2cec3"/>
                      </g>
                    </g>
                    <g id="Grupo_136747" data-name="Grupo 136747" transform="translate(39.81 130.382)">
                      <g id="Grupo_136746" data-name="Grupo 136746">
                        <path id="Trazado_151657" data-name="Trazado 151657" d="M310.416,191.493c.117.419.23.833.343,1.244q-7.01-1.029-14.126-1.764-.551-.058-1.106-.113-9.094-.9-18.268-1.209l-1.107-.032a225.967,225.967,0,0,0-23.218.521c-.359.03-.716.055-1.075.088a184.386,184.386,0,0,0-18.672,2.462c.028-.366.055-.732.076-1.1,4.613-.829,9.255-1.462,13.918-1.928q2.3-.231,4.61-.414l1.073-.083q11.539-.862,23.162-.589c.369,0,.737.011,1.107.023q9.131.228,18.25,1.091c.371.034.741.071,1.11.106Q303.475,190.48,310.416,191.493Z" transform="translate(-233.187 -188.52)" fill="#e2cec3"/>
                      </g>
                    </g>
                    <g id="Grupo_136749" data-name="Grupo 136749" transform="translate(35.135 150.988)">
                      <g id="Grupo_136748" data-name="Grupo 136748">
                        <path id="Trazado_151658" data-name="Trazado 151658" d="M318.882,203.882l-.223-.021c-.366-.034-.735-.065-1.1-.1-5.552-.5-11.107-.97-16.668-1.366-.369-.025-.735-.049-1.1-.076-6.144-.424-12.29-.748-18.439-.917-.369-.014-.735-.021-1.1-.028-6.351-.157-12.7-.147-19.058.1q-2.951.114-5.9.3c-.362.023-.721.044-1.082.071a195.843,195.843,0,0,0-23.666,3q.209-.581.414-1.191a198.157,198.157,0,0,1,23.284-2.9c.362-.027.725-.051,1.082-.074,8.262-.518,16.555-.6,24.838-.4.366.007.734.019,1.1.03,4.463.124,8.923.329,13.37.59q2.532.148,5.055.325c.368.023.734.048,1.1.074,5.587.391,11.164.857,16.74,1.361.343.034.682.062,1.027.1a.457.457,0,0,1,.073.007c0,.092.007.182.007.274v.018C318.721,203.336,318.8,203.6,318.882,203.882Z" transform="translate(-230.542 -200.178)" fill="#e2cec3"/>
                      </g>
                    </g>
                    <g id="Grupo_136751" data-name="Grupo 136751" transform="translate(0 17.422)">
                      <g id="Grupo_136750" data-name="Grupo 136750">
                        <path id="Trazado_151659" data-name="Trazado 151659" d="M318.764,126.414q-3.134-.241-6.278-.4-3.4-.17-6.807-.256l-1.158-.021q-10.38-.209-20.751.431-.6.032-1.195.076-11.146.729-22.2,2.425c-.4.058-.8.12-1.19.182a258.346,258.346,0,0,0-27.551,5.905c-.38.1-.76.205-1.14.311h0q-10.014,2.776-19.775,6.358c-.027-.384-.044-.771-.055-1.154q6.517-2.394,13.165-4.422,2.964-.9,5.946-1.73h0c.384-.113.764-.216,1.144-.322a258.428,258.428,0,0,1,27.653-5.964c.394-.062.792-.125,1.19-.182q11.088-1.715,22.292-2.462c.4-.03.8-.055,1.2-.078q10.4-.644,20.827-.46c.387.007.774.014,1.165.027q6.679.146,13.341.645c.025.133.048.263.069.394C318.7,125.951,318.73,126.185,318.764,126.414Z" transform="translate(-210.664 -124.613)" fill="#e2cec3"/>
                      </g>
                    </g>
                    <g id="Grupo_136753" data-name="Grupo 136753" transform="translate(10.043 15.257)">
                      <g id="Grupo_136752" data-name="Grupo 136752">
                        <path id="Trazado_151660" data-name="Trazado 151660" d="M266.217,259.62c-.007.366-.021.732-.032,1.1a198.183,198.183,0,0,1-2.98,27.858l-1.023-.472a197.207,197.207,0,0,0,2.922-27.316c.011-.366.025-.728.032-1.092q.26-8.113-.156-16.23c-.055-1.082-.122-2.162-.194-3.243q-.032-.488-.069-.976-.626-8.606-2-17.12c-.058-.366-.118-.726-.18-1.092a196.146,196.146,0,0,0-6.485-26.914c-.11-.355-.223-.709-.339-1.064a193.439,193.439,0,0,0-8.474-21.69c-.157-.343-.318-.686-.479-1.029q-1.45-3.1-3.015-6.151-3.407-6.639-7.309-13c-.2-.329-.4-.658-.61-.986q-4.528-7.307-9.684-14.192h0c-.233-.318-.475-.636-.716-.949h0q-4.322-5.719-9.068-11.111c.313-.189.642-.375.977-.562q4.828,5.5,9.237,11.351c.164.216.323.431.484.647.078.1.157.207.232.313q5.154,6.915,9.681,14.254c.205.329.408.658.606.99a197.272,197.272,0,0,1,10.273,19.148c.161.345.322.688.479,1.031a195.615,195.615,0,0,1,8.5,21.748l.339,1.062q1.983,6.247,3.535,12.618,1.726,7.087,2.922,14.284c.062.361.12.726.179,1.091q1.381,8.574,2,17.239c.027.322.051.645.071.97Q266.518,249.863,266.217,259.62Z" transform="translate(-216.346 -123.388)" fill="#e2cec3"/>
                      </g>
                    </g>
                    <g id="Grupo_136755" data-name="Grupo 136755" transform="translate(35.643 2.22)">
                      <g id="Grupo_136754" data-name="Grupo 136754">
                        <path id="Trazado_151661" data-name="Trazado 151661" d="M283.378,305.793c-.368-.1-.737-.207-1.11-.316-.511-13.181-1.168-26.358-2.241-39.5-.026-.366-.055-.726-.088-1.092q-.318-3.874-.689-7.745-.57-5.934-1.287-11.862c-.039-.343-.079-.691-.127-1.038q-1.188-9.722-2.83-19.388c-.062-.359-.12-.716-.187-1.075-1.573-9.034-3.48-18-5.81-26.863-.092-.355-.186-.709-.281-1.068-2.072-7.756-4.463-15.425-7.235-22.982-.131-.354-.263-.709-.394-1.062l-.242-.647c-2.409-6.413-5.1-12.732-8.078-18.907h0c-.164-.346-.329-.689-.5-1.032h0q-3.935-8.065-8.56-15.756-.3-.509-.613-1.018a183.7,183.7,0,0,0-12.269-17.709c.3-.24.574-.483.836-.716a182.585,182.585,0,0,1,12.622,18.243q.313.509.613,1.018.883,1.469,1.739,2.959,3.627,6.3,6.793,12.839c.171.346.339.695.5,1.041q4.6,9.592,8.279,19.579l.394,1.062q4.141,11.329,7.227,23.012c.1.357.191.712.281,1.069q2.532,9.622,4.422,19.378.729,3.744,1.377,7.494c.065.359.129.716.191,1.075q1.654,9.707,2.833,19.477c.044.35.085.7.127,1.046q1.172,9.781,1.969,19.606c.034.361.062.726.092,1.091C282.2,279.243,282.864,292.526,283.378,305.793Z" transform="translate(-230.829 -116.012)" fill="#e2cec3"/>
                      </g>
                    </g>
                    <g id="Grupo_136757" data-name="Grupo 136757" transform="translate(61.197 0.467)">
                      <g id="Grupo_136756" data-name="Grupo 136756">
                        <path id="Trazado_151662" data-name="Trazado 151662" d="M245.816,116.116a.548.548,0,0,0,0-1.1.548.548,0,0,0,0,1.1Z" transform="translate(-245.286 -115.02)" fill="#e2cec3"/>
                      </g>
                    </g>
                    <g id="Grupo_136759" data-name="Grupo 136759" transform="translate(61.521)">
                      <g id="Grupo_136758" data-name="Grupo 136758">
                        <path id="Trazado_151663" data-name="Trazado 151663" d="M292.52,303.507c.058.705-1.037.7-1.1,0-.953-11.88-1.925-23.763-3.093-35.625-.034-.366-.071-.726-.106-1.092q-.514-5.2-1.089-10.386-.493-4.465-1.038-8.926c-.048-.387-.094-.774-.145-1.165q-1.283-10.343-2.915-20.645c-.055-.361-.113-.723-.175-1.08-1.483-9.149-3.215-18.257-5.274-27.289-.08-.361-.164-.719-.247-1.08q-2.373-10.261-5.35-20.378c-.3-1-.592-1.983-.9-2.973-.11-.362-.223-.719-.336-1.082q-3.2-10.292-7.15-20.334h0c-.14-.359-.278-.716-.424-1.071q-3.37-8.413-7.319-16.569c-.171-.354-.343-.705-.518-1.055q-4.224-8.6-9.159-16.822c-.138-.233-.281-.47-.428-.705-.09-.157-.189-.316-.285-.474l1.38.161q5.25,8.654,9.69,17.762c.175.352.346.7.514,1.057q2.5,5.159,4.751,10.437,1.31,3.068,2.538,6.16c.147.359.288.716.424,1.075q3.961,10.056,7.136,20.389c.113.362.223.723.332,1.085q3.534,11.552,6.227,23.351h0c.08.361.164.723.244,1.08h.005q2.487,10.942,4.375,22,.459,2.662.887,5.329c.062.361.117.719.175,1.08q1.644,10.322,2.911,20.7.077.586.141,1.172,1.18,9.627,2.123,19.273c.035.364.069.73.106,1.094C290.6,279.8,291.569,291.657,292.52,303.507Z" transform="translate(-245.47 -114.756)" fill="#e2cec3"/>
                      </g>
                    </g>
                    <g id="Grupo_136762" data-name="Grupo 136762" transform="translate(89.273 7.622)">
                      <g id="Grupo_136760" data-name="Grupo 136760">
                        <path id="Trazado_151664" data-name="Trazado 151664" d="M286.746,196.448v0q-.35.864-.679,1.73-.318-1.578-.654-3.152c-.076-.373-.157-.744-.237-1.117q-2.5-11.653-5.683-23.158-.148-.551-.307-1.106-3.049-10.894-6.718-21.6c-.126-.366-.253-.73-.38-1.1q-2.964-8.556-6.333-16.956c-.143-.362-.288-.723-.438-1.085q-2-4.953-4.145-9.842c.431.09.859.168,1.281.226q2.087,4.788,4.028,9.642c.147.361.288.723.431,1.08q3.073,7.737,5.8,15.6c.157.456.318.916.475,1.373q.186.546.371,1.1,3.648,10.746,6.692,21.684c.106.369.207.742.309,1.112q3.168,11.48,5.668,23.135c.08.373.161.741.237,1.114C286.56,195.567,286.655,196.009,286.746,196.448Z" transform="translate(-261.171 -119.068)" fill="#e2cec3"/>
                      </g>
                      <g id="Grupo_136761" data-name="Grupo 136761" transform="translate(32.712 142.096)">
                        <path id="Trazado_151665" data-name="Trazado 151665" d="M281.046,209.461a.547.547,0,0,1-1.094,0q-.034-2.577-.106-5.151c-.007-.364-.019-.734-.034-1.1-.037-1.248-.08-2.5-.134-3.751.4,1.315.788,2.586,1.161,3.846a.457.457,0,0,1,.073.007c0,.092.007.182.007.274v.018c.011.267.018.537.026.808Q281.014,206.931,281.046,209.461Z" transform="translate(-279.678 -199.46)" fill="#e2cec3"/>
                      </g>
                    </g>
                  </g>
                  <g id="Grupo_136765" data-name="Grupo 136765" transform="translate(13.681 50.172)">
                    <g id="Grupo_136764" data-name="Grupo 136764">
                      <path id="Trazado_151666" data-name="Trazado 151666" d="M218.549,142.9c20.1,26.008,36.044,57.268,33.893,91.011a84.536,84.536,0,0,1-6.345,27.4c-.329.779.944,1.119,1.267.35,13.4-31.865,4.764-67.663-12.032-96.439a217.671,217.671,0,0,0-15.853-23.256c-.516-.668-1.441.269-.93.93Z" transform="translate(-218.4 -141.742)" fill="#110e0a"/>
                    </g>
                  </g>
                </g>
                <g id="Grupo_136808" data-name="Grupo 136808" transform="translate(233.519 307.425)">
                  <g id="Grupo_136780" data-name="Grupo 136780" transform="translate(6.003 3.318)">
                    <path id="Trazado_151671" data-name="Trazado 151671" d="M211.871,308.6S222.8,228.042,242,201.149c0,0,49.689,21.75,89.148,9.944,0,0,13.668,43.284,10.181,106.825C341.329,317.918,226.784,379.11,211.871,308.6Z" transform="translate(-217.467 -201.149)" fill="#009580"/>
                  </g>
                  <path id="Sustracción_32" data-name="Sustracción 32" d="M-2632.358,6326.006h-1.3c-.055-7.166.192-14.167.731-20.811a233.367,233.367,0,0,1,18.641-73.166.513.513,0,0,1,.48-.344.746.746,0,0,1,.6.345.682.682,0,0,1,.059.664c-1.486,3.456-2.887,6.9-4.163,10.247a226.573,226.573,0,0,0-14.893,72.26c-.132,3.5-.184,7.138-.156,10.8Z" transform="translate(2644 -6212.822)" fill="#110e0a" stroke="rgba(0,0,0,0)" stroke-miterlimit="10" stroke-width="1"/>
                  <g id="Grupo_136804" data-name="Grupo 136804" transform="translate(71.652 94.763)">
                    <g id="Grupo_136803" data-name="Grupo 136803">
                      <path id="Trazado_151742" data-name="Trazado 151742" d="M3.194,0C3.7,5.907,5.035,23.277,5.035,23.277" fill="none" stroke="#000" stroke-width="1"/>
                    </g>
                  </g>
                  <g id="Grupo_136805" data-name="Grupo 136805" transform="translate(24.498)">
                    <path id="Trazado_151681" data-name="Trazado 151681" d="M234.522,199.272s-7.268,5.6-6.54,16.931c-.59,1.062,39.885,24.272,98.952,8.382,0,0,1.313-9.189-5.57-19.169C321.365,205.416,269.329,218.812,234.522,199.272Z" transform="translate(-227.931 -199.272)" fill="#005f53"/>
                  </g>
                  <g id="Grupo_136807" data-name="Grupo 136807" transform="translate(21.457 39.369)">
                    <g id="Grupo_136806" data-name="Grupo 136806">
                      <path id="Trazado_151682" data-name="Trazado 151682" d="M245.5,221.992a70.536,70.536,0,0,1-19.084,28.037c-.631.566.3,1.494.93.93a71.945,71.945,0,0,0,19.424-28.617c.293-.8-.977-1.138-1.269-.35Z" transform="translate(-226.21 -221.545)" fill="#110e0a"/>
                    </g>
                  </g>
                </g>
                <g id="Grupo_136809" data-name="Grupo 136809" transform="translate(311.938 121.041)">
                  <path id="Trazado_151683" data-name="Trazado 151683" d="M262.623,93.824l-4.186,22.911s3.134,2.931,11.151.7L263.83,93.838Z" transform="translate(-258.437 -93.824)" fill="#fff"/>
                </g>
                <g id="Grupo_136923" data-name="Grupo 136923" transform="translate(258.669 68.788)">
                  <g id="Grupo_136922" data-name="Grupo 136922">
                    <g id="Grupo_136921" data-name="Grupo 136921">
                      <g id="Grupo_136920" data-name="Grupo 136920">
                        <g id="Grupo_136815" data-name="Grupo 136815" transform="translate(56.964 38.862)">
                          <g id="Grupo_136814" data-name="Grupo 136814">
                            <g id="Grupo_136813" data-name="Grupo 136813">
                              <g id="Grupo_136812" data-name="Grupo 136812">
                                <g id="Grupo_136811" data-name="Grupo 136811">
                                  <g id="Grupo_136810" data-name="Grupo 136810">
                                    <path id="Trazado_151684" data-name="Trazado 151684" d="M264.378,86.248s3.76.345,4.461,5.149-1.745,12.8-6.6,11.8S264.378,86.248,264.378,86.248Z" transform="translate(-260.528 -86.248)" fill="#722324"/>
                                  </g>
                                </g>
                              </g>
                            </g>
                          </g>
                        </g>
                        <g id="Grupo_136828" data-name="Grupo 136828" transform="translate(4.752 56.516)">
                          <g id="Grupo_136820" data-name="Grupo 136820" transform="translate(42.614 19.563)">
                            <g id="Grupo_136819" data-name="Grupo 136819">
                              <g id="Grupo_136818" data-name="Grupo 136818">
                                <g id="Grupo_136817" data-name="Grupo 136817">
                                  <g id="Grupo_136816" data-name="Grupo 136816">
                                    <line id="Línea_214" data-name="Línea 214" y2="0.004" fill="#c9614d"/>
                                  </g>
                                </g>
                              </g>
                            </g>
                          </g>
                          <g id="Grupo_136825" data-name="Grupo 136825" transform="translate(2.776)">
                            <g id="Grupo_136824" data-name="Grupo 136824">
                              <g id="Grupo_136823" data-name="Grupo 136823">
                                <g id="Grupo_136822" data-name="Grupo 136822">
                                  <g id="Grupo_136821" data-name="Grupo 136821">
                                    <path id="Trazado_151685" data-name="Trazado 151685" d="M232.559,128.923a39.113,39.113,0,0,0,20.541,14.5c17.624,5.06,19.917-5.011,19.917-5.011a33.83,33.83,0,0,1-1.38-7.4c-.074-.976-.117-1.978-.124-3.014a81.842,81.842,0,0,1,.571-9.485c.09-.836.191-1.7.3-2.6l.011-.106c-12.346-3-22.434-8.535-29.308-17.7l-1.849-1.115L240,96.236l-.235.719.224,2.3C241.068,110.063,238.583,119,232.559,128.923Z" transform="translate(-232.559 -96.236)" fill="#c9614d"/>
                                  </g>
                                </g>
                              </g>
                            </g>
                          </g>
                          <g id="Grupo_136827" data-name="Grupo 136827" transform="translate(0 29.905)">
                            <g id="Grupo_136826" data-name="Grupo 136826">
                              <path id="Trazado_151686" data-name="Trazado 151686" d="M231.051,114.161c5.161,11.689,10.748,24.242,21.7,31.655,4.686,3.169,11.143,5.914,16.808,3.954,4.744-1.642,7.636-6.409,8.663-11.105,1.589-7.275-1.133-14.589-3.68-21.3-.3-.783-1.57-.444-1.267.35,2.165,5.709,4.472,11.728,4.057,17.946-.327,4.884-2.69,10.395-7.372,12.542-5.585,2.561-12.391-.6-17.009-3.843a44.1,44.1,0,0,1-11.457-12.426c-3.737-5.8-6.528-12.139-9.308-18.434-.341-.772-1.474-.1-1.135.663Z" transform="translate(-230.989 -113.155)" fill="#110e0a"/>
                            </g>
                          </g>
                        </g>
                        <g id="Grupo_136834" data-name="Grupo 136834" transform="translate(26.572 67.938)">
                          <g id="Grupo_136833" data-name="Grupo 136833">
                            <g id="Grupo_136832" data-name="Grupo 136832">
                              <g id="Grupo_136831" data-name="Grupo 136831">
                                <g id="Grupo_136830" data-name="Grupo 136830">
                                  <g id="Grupo_136829" data-name="Grupo 136829">
                                    <path id="Trazado_151687" data-name="Trazado 151687" d="M243.333,102.7c2.579,5.916,8.581,16.385,19.91,20.336a81.842,81.842,0,0,1,.571-9.485c.09-.836.191-1.7.3-2.6-.244.027-.495.046-.744.062C256.634,111.421,249.334,107.907,243.333,102.7Z" transform="translate(-243.333 -102.698)" fill="#181709"/>
                                  </g>
                                </g>
                              </g>
                            </g>
                          </g>
                        </g>
                        <g id="Grupo_136836" data-name="Grupo 136836" transform="translate(0 1.883)">
                          <g id="Grupo_136835" data-name="Grupo 136835">
                            <path id="Trazado_151688" data-name="Trazado 151688" d="M228.328,102.067c-.46,6.7,4.647,15.289,13.391,16.132l.046.005h0l.186.019c.115.394.253.785.4,1.182.06.171.126.346.193.518a.188.188,0,0,0,.021.048c4.675,11.752,20.429,19.561,29.182,20.4a19.978,19.978,0,0,0,5.964-.361c9.433-1.38,12.035-13.82,11.236-23.521a36.924,36.924,0,0,0-.555-4.005l-.053-.258s4.037-13.214,5.168-19.022c2.188-11.257-3.533-23.24-28.277-27.22s-31.775,11.068-34.087,19.146c-.389,1.347-.673,9.5.6,10.909C229.3,97.083,228.482,99.815,228.328,102.067Z" transform="translate(-228.3 -65.327)" fill="#c9614d"/>
                          </g>
                        </g>
                        <g id="Grupo_136848" data-name="Grupo 136848" transform="translate(51.306 39.811)">
                          <g id="Grupo_136841" data-name="Grupo 136841" transform="translate(1.574 0.464)">
                            <g id="Grupo_136840" data-name="Grupo 136840">
                              <g id="Grupo_136839" data-name="Grupo 136839">
                                <g id="Grupo_136838" data-name="Grupo 136838">
                                  <g id="Grupo_136837" data-name="Grupo 136837">
                                    <path id="Trazado_151689" data-name="Trazado 151689" d="M261.367,90.262c-.251,1.639-1.145,2.863-2,2.733s-1.34-1.564-1.089-3.2,1.144-2.863,2-2.733S261.618,88.621,261.367,90.262Z" transform="translate(-258.217 -87.048)" fill="#181709"/>
                                  </g>
                                </g>
                              </g>
                            </g>
                          </g>
                          <g id="Grupo_136847" data-name="Grupo 136847">
                            <g id="Grupo_136846" data-name="Grupo 136846">
                              <g id="Grupo_136845" data-name="Grupo 136845">
                                <g id="Grupo_136844" data-name="Grupo 136844">
                                  <g id="Grupo_136843" data-name="Grupo 136843">
                                    <g id="Grupo_136842" data-name="Grupo 136842">
                                      <path id="Trazado_151690" data-name="Trazado 151690" d="M257.591,88.634a.445.445,0,0,1-.2-.18.439.439,0,0,1,.156-.6c.175-.1,4.318-2.489,7.638.224a.439.439,0,0,1-.557.679c-2.848-2.33-6.6-.168-6.635-.147A.441.441,0,0,1,257.591,88.634Z" transform="translate(-257.326 -86.785)" fill="#181709"/>
                                    </g>
                                  </g>
                                </g>
                              </g>
                            </g>
                          </g>
                        </g>
                        <g id="Grupo_136859" data-name="Grupo 136859" transform="translate(36.186 37.842)">
                          <g id="Grupo_136852" data-name="Grupo 136852" transform="translate(2.368 0.491)">
                            <g id="Grupo_136851" data-name="Grupo 136851">
                              <g id="Grupo_136850" data-name="Grupo 136850">
                                <g id="Grupo_136849" data-name="Grupo 136849">
                                  <path id="Trazado_151691" data-name="Trazado 151691" d="M253.262,89.163c-.251,1.64-1.144,2.863-2,2.734s-1.34-1.566-1.089-3.206,1.145-2.862,2-2.733S253.513,87.524,253.262,89.163Z" transform="translate(-250.112 -85.949)" fill="#181709"/>
                                </g>
                              </g>
                            </g>
                          </g>
                          <g id="Grupo_136858" data-name="Grupo 136858">
                            <g id="Grupo_136857" data-name="Grupo 136857">
                              <g id="Grupo_136856" data-name="Grupo 136856">
                                <g id="Grupo_136855" data-name="Grupo 136855">
                                  <g id="Grupo_136854" data-name="Grupo 136854">
                                    <g id="Grupo_136853" data-name="Grupo 136853">
                                      <path id="Trazado_151692" data-name="Trazado 151692" d="M249.088,88.05a.431.431,0,0,1-.224-.152.439.439,0,0,1,.078-.615c.161-.126,3.968-3.015,7.6-.744a.439.439,0,0,1-.465.744c-3.123-1.951-6.566.666-6.6.695A.439.439,0,0,1,249.088,88.05Z" transform="translate(-248.772 -85.671)" fill="#181709"/>
                                    </g>
                                  </g>
                                </g>
                              </g>
                            </g>
                          </g>
                        </g>
                        <g id="Grupo_136864" data-name="Grupo 136864" transform="translate(40.557 54.682)">
                          <g id="Grupo_136863" data-name="Grupo 136863">
                            <g id="Grupo_136862" data-name="Grupo 136862">
                              <g id="Grupo_136861" data-name="Grupo 136861">
                                <g id="Grupo_136860" data-name="Grupo 136860">
                                  <path id="Trazado_151693" data-name="Trazado 151693" d="M251.245,95.2s.012,7.862,6.579,8.61,7.616-5.676,7.616-5.676Z" transform="translate(-251.245 -95.198)" fill="#fff"/>
                                </g>
                              </g>
                            </g>
                          </g>
                        </g>
                        <g id="Grupo_136870" data-name="Grupo 136870" transform="translate(43.615 63.936)">
                          <g id="Grupo_136869" data-name="Grupo 136869">
                            <g id="Grupo_136868" data-name="Grupo 136868">
                              <g id="Grupo_136867" data-name="Grupo 136867">
                                <g id="Grupo_136866" data-name="Grupo 136866">
                                  <g id="Grupo_136865" data-name="Grupo 136865">
                                    <path id="Trazado_151694" data-name="Trazado 151694" d="M255.018,102.677a3.516,3.516,0,0,1-1.943-1.32.594.594,0,0,1,.986-.663,2.4,2.4,0,0,0,2.561.827.593.593,0,1,1,.269,1.156A3.857,3.857,0,0,1,255.018,102.677Z" transform="translate(-252.976 -100.434)" fill="#722324"/>
                                  </g>
                                </g>
                              </g>
                            </g>
                          </g>
                        </g>
                        <g id="Grupo_136874" data-name="Grupo 136874" transform="translate(0.187)">
                          <g id="Grupo_136873" data-name="Grupo 136873">
                            <g id="Grupo_136872" data-name="Grupo 136872">
                              <g id="Grupo_136871" data-name="Grupo 136871">
                                <path id="Trazado_151695" data-name="Trazado 151695" d="M231.664,96.861a14.545,14.545,0,0,1,2,.373c4.161,1.085,6.611,3.823,8.493,6.512.352-2.277,2.789-12.717,18.034-14.432.219-.025.452-.048.7-.065a13,13,0,0,0,1.679-6.542c-1.52-6.2,28.321-3.051,29.322,6.462.421,3.986.643,6.582.764,8.267v0a16.137,16.137,0,0,1,.1,3.095s2.635,2.741,2.856-10.358a17.778,17.778,0,0,0-4.426-11.687c-5.955-7.238-17.262-12.429-29.764-14.029-18.513-2.37-32,17.082-32.891,24.178S231.664,96.861,231.664,96.861Z" transform="translate(-228.405 -64.261)" fill="#181709"/>
                              </g>
                            </g>
                          </g>
                        </g>
                        <g id="Grupo_136880" data-name="Grupo 136880" transform="translate(55.686 49.042)" opacity="0.5">
                          <g id="Grupo_136879" data-name="Grupo 136879">
                            <g id="Grupo_136878" data-name="Grupo 136878">
                              <g id="Grupo_136877" data-name="Grupo 136877">
                                <g id="Grupo_136876" data-name="Grupo 136876">
                                  <g id="Grupo_136875" data-name="Grupo 136875">
                                    <path id="Trazado_151696" data-name="Trazado 151696" d="M259.805,93.741c-.049,1,2.082,1.935,4.962,2.271a36.931,36.931,0,0,0-.555-4.005C261.695,92.154,259.848,92.832,259.805,93.741Z" transform="translate(-259.805 -92.007)" fill="#722324"/>
                                  </g>
                                </g>
                              </g>
                            </g>
                          </g>
                        </g>
                        <g id="Grupo_136882" data-name="Grupo 136882" transform="translate(47.58 41.682)">
                          <g id="Grupo_136881" data-name="Grupo 136881">
                            <path id="Trazado_151697" data-name="Trazado 151697" d="M257.251,99.68a.776.776,0,0,0,.419-.074l3.551-1.764a.76.76,0,0,0,.092-1.306c-2.581-1.773-4.035-4.329-4.581-8.042a.76.76,0,1,0-1.5.223,12.655,12.655,0,0,0,4.221,8.309l-2.455,1.218a.761.761,0,0,0,.258,1.437Z" transform="translate(-255.218 -87.843)" fill="#722324"/>
                          </g>
                        </g>
                        <g id="Grupo_136887" data-name="Grupo 136887" transform="translate(31.024 29.525)">
                          <g id="Grupo_136886" data-name="Grupo 136886">
                            <g id="Grupo_136885" data-name="Grupo 136885">
                              <g id="Grupo_136884" data-name="Grupo 136884">
                                <g id="Grupo_136883" data-name="Grupo 136883">
                                  <path id="Trazado_151698" data-name="Trazado 151698" d="M257.907,86.321a1.847,1.847,0,0,0,2.727-2.39,5.363,5.363,0,0,0-2.987-2.28A13.405,13.405,0,0,0,245.852,83.4s7.113.237,10.3,1.822A10.479,10.479,0,0,1,257.907,86.321Z" transform="translate(-245.852 -80.965)" fill="#181709"/>
                                </g>
                              </g>
                            </g>
                          </g>
                        </g>
                        <g id="Grupo_136892" data-name="Grupo 136892" transform="translate(51.798 31.714)">
                          <g id="Grupo_136891" data-name="Grupo 136891">
                            <g id="Grupo_136890" data-name="Grupo 136890">
                              <g id="Grupo_136889" data-name="Grupo 136889">
                                <g id="Grupo_136888" data-name="Grupo 136888">
                                  <path id="Trazado_151699" data-name="Trazado 151699" d="M260.2,86.685a1.847,1.847,0,0,1-2.026-3.008,5.354,5.354,0,0,1,3.473-1.437c6.95-.483,8.7,4.085,8.7,4.085a24.516,24.516,0,0,0-8.168-.251A10.444,10.444,0,0,0,260.2,86.685Z" transform="translate(-257.605 -82.204)" fill="#181709"/>
                                </g>
                              </g>
                            </g>
                          </g>
                        </g>
                        <g id="Grupo_136898" data-name="Grupo 136898" transform="translate(27.564 47.438)" opacity="0.5">
                          <g id="Grupo_136897" data-name="Grupo 136897">
                            <g id="Grupo_136896" data-name="Grupo 136896">
                              <g id="Grupo_136895" data-name="Grupo 136895">
                                <g id="Grupo_136894" data-name="Grupo 136894">
                                  <g id="Grupo_136893" data-name="Grupo 136893">
                                    <path id="Trazado_151700" data-name="Trazado 151700" d="M256.535,93.5c-.058,1.135-2.934,1.912-6.423,1.736S243.839,94,243.9,92.862s2.934-1.914,6.425-1.737S256.593,92.367,256.535,93.5Z" transform="translate(-243.895 -91.1)" fill="#722324"/>
                                  </g>
                                </g>
                              </g>
                            </g>
                          </g>
                        </g>
                        <g id="Grupo_136905" data-name="Grupo 136905" transform="translate(13.421 52.183)">
                          <g id="Grupo_136904" data-name="Grupo 136904">
                            <g id="Grupo_136903" data-name="Grupo 136903">
                              <g id="Grupo_136902" data-name="Grupo 136902">
                                <g id="Grupo_136901" data-name="Grupo 136901">
                                  <g id="Grupo_136900" data-name="Grupo 136900">
                                    <g id="Grupo_136899" data-name="Grupo 136899">
                                      <path id="Trazado_151701" data-name="Trazado 151701" d="M235.893,96.357l.044.005h.005l.184.019c.115.394.253.785.4,1.182.062.171.127.346.193.518a.282.282,0,0,0,.021.048,8.065,8.065,0,0,0,3.475-1.106,6.428,6.428,0,0,0,1.92-1.812.907.907,0,0,0-1.487-1.039,4.877,4.877,0,0,1-2.285,1.739,6.631,6.631,0,0,1-1.612.385A7.791,7.791,0,0,1,235.893,96.357Z" transform="translate(-235.893 -93.785)" fill="#722324"/>
                                    </g>
                                  </g>
                                </g>
                              </g>
                            </g>
                          </g>
                        </g>
                        <g id="Grupo_136912" data-name="Grupo 136912" transform="translate(5.191 37.415)">
                          <g id="Grupo_136911" data-name="Grupo 136911">
                            <g id="Grupo_136910" data-name="Grupo 136910">
                              <g id="Grupo_136909" data-name="Grupo 136909">
                                <g id="Grupo_136908" data-name="Grupo 136908">
                                  <g id="Grupo_136907" data-name="Grupo 136907">
                                    <g id="Grupo_136906" data-name="Grupo 136906">
                                      <path id="Trazado_151702" data-name="Trazado 151702" d="M240.653,97.6a.9.9,0,0,1-.691-.772c-.774-6.384-8.1-9.63-8.178-9.661A.906.906,0,0,1,232.5,85.5c.341.147,8.361,3.678,9.26,11.107a.905.905,0,0,1-.792,1.007A.86.86,0,0,1,240.653,97.6Z" transform="translate(-231.236 -85.429)" fill="#722324"/>
                                    </g>
                                  </g>
                                </g>
                              </g>
                            </g>
                          </g>
                        </g>
                        <g id="Grupo_136919" data-name="Grupo 136919" transform="translate(6.29 41.756)">
                          <g id="Grupo_136918" data-name="Grupo 136918">
                            <g id="Grupo_136917" data-name="Grupo 136917">
                              <g id="Grupo_136916" data-name="Grupo 136916">
                                <g id="Grupo_136915" data-name="Grupo 136915">
                                  <g id="Grupo_136914" data-name="Grupo 136914">
                                    <g id="Grupo_136913" data-name="Grupo 136913">
                                      <path id="Trazado_151703" data-name="Trazado 151703" d="M232.556,91.657a.878.878,0,0,1-.316-.143.9.9,0,0,1-.214-1.262,6.215,6.215,0,0,1,5.644-2.324.906.906,0,1,1-.2,1.8A4.408,4.408,0,0,0,233.5,91.3.9.9,0,0,1,232.556,91.657Z" transform="translate(-231.858 -87.885)" fill="#722324"/>
                                    </g>
                                  </g>
                                </g>
                              </g>
                            </g>
                          </g>
                        </g>
                      </g>
                    </g>
                  </g>
                </g>
                <g id="Grupo_136925" data-name="Grupo 136925" transform="translate(266.102 95.935)">
                  <g id="Grupo_136924" data-name="Grupo 136924">
                    <path id="Trazado_151704" data-name="Trazado 151704" d="M232.505,119.874c4.937,3.646,9.978,5.571,15.425.79.574-7.874-1.216-16.852-3.86-22.032-4.345-8.514,3.236-19.012,3.236-19.012-4.831,2-10.179,1.944-13.05,7.593C239.047,92.742,236.056,107.754,232.505,119.874Z" transform="translate(-232.505 -79.62)" fill="#181709"/>
                  </g>
                </g>
                <g id="Grupo_136926" data-name="Grupo 136926" transform="translate(259.348 118.425)">
                  <path id="Trazado_151705" data-name="Trazado 151705" d="M236.737,92.344,228.684,114.2s2.584,3.426,10.867,2.6l-1.626-24.233Z" transform="translate(-228.684 -92.344)" fill="#fff"/>
                </g>
                <g id="Grupo_136933" data-name="Grupo 136933" transform="translate(188.733 173.109)">
                  <g id="Grupo_136928" data-name="Grupo 136928">
                    <g id="Grupo_136927" data-name="Grupo 136927">
                      <path id="Trazado_151706" data-name="Trazado 151706" d="M259.742,270.518c1.246-2.876.336-8.362,2.39-11.083-3.486-2.662-4.988-3.915-8.338-6.722q-6.9-5.783-13.377-11.972c-4.307-4.122-8.472-8.366-12.429-12.719q-2.969-3.266-5.755-6.6c-.115-.14-.235-.283-.352-.424.207-.815.437-1.669.691-2.536.916-3.12,2.114-6.459,3.413-9.817,2.635-6.738,5.741-13.607,9.018-20.438s6.773-13.661,10.374-20.443q2.7-5.091,5.488-10.139l2.8-5.032,1.414-2.494,1.391-2.42.1-.177a16.165,16.165,0,1,0-28.039-16.1l-1.548,2.694-1.492,2.635L222.558,142q-2.911,5.276-5.739,10.6c-3.768,7.1-7.434,14.275-10.962,21.6s-6.9,14.8-10,22.7c-1.538,3.973-3.008,8.032-4.311,12.456-.649,2.218-1.258,4.525-1.773,7.056a49.526,49.526,0,0,0-1.038,8.792,15.734,15.734,0,0,0,3.737,10.6l.085.1c.166.189.228.244.334.357l.269.269.506.5.972.94q.962.915,1.913,1.78c1.266,1.167,2.531,2.289,3.8,3.388q3.813,3.3,7.694,6.381c5.177,4.117,10.469,8,15.855,11.706s10.877,7.212,16.463,10.528q7.4,4.4,15,8.362C256.9,276.954,258.344,273.746,259.742,270.518Z" transform="translate(-188.733 -123.282)" fill="#c9614d"/>
                    </g>
                  </g>
                  <g id="Grupo_136930" data-name="Grupo 136930" transform="translate(19.738 94.039)">
                    <g id="Grupo_136929" data-name="Grupo 136929">
                      <path id="Trazado_151707" data-name="Trazado 151707" d="M200.614,177.844a18.665,18.665,0,0,1,12.346,2.75c.665.417,1.347-.6.68-1.015a20.014,20.014,0,0,0-13.262-2.934c-.78.1-.541,1.3.235,1.2Z" transform="translate(-199.9 -176.485)" fill="#722324"/>
                    </g>
                  </g>
                  <g id="Grupo_136932" data-name="Grupo 136932" transform="translate(23.715 89.325)">
                    <g id="Grupo_136931" data-name="Grupo 136931">
                      <path id="Trazado_151708" data-name="Trazado 151708" d="M202.323,174.811q2.768,2.768,5.538,5.532c.551.553,1.472-.249.916-.808L203.239,174c-.551-.552-1.472.251-.916.808Z" transform="translate(-202.15 -173.818)" fill="#722324"/>
                    </g>
                  </g>
                </g>
                <g id="Grupo_136958" data-name="Grupo 136958" transform="translate(343.852 302.243)">
                  <g id="Grupo_136939" data-name="Grupo 136939">
                    <g id="Grupo_136938" data-name="Grupo 136938">
                      <g id="Grupo_136937" data-name="Grupo 136937">
                        <g id="Grupo_136936" data-name="Grupo 136936">
                          <g id="Grupo_136935" data-name="Grupo 136935">
                            <g id="Grupo_136934" data-name="Grupo 136934">
                              <path id="Trazado_151709" data-name="Trazado 151709" d="M280.59,196.343s7.185-.285,8.214,4.894-7.238,14.515-10.363,17.594-2.144-7.206.5-10.959,2.2-6.552,2.2-6.552Z" transform="translate(-276.493 -196.34)" fill="#c9614d"/>
                            </g>
                          </g>
                        </g>
                      </g>
                    </g>
                  </g>
                  <g id="Grupo_136945" data-name="Grupo 136945" transform="translate(4.707 16.942)">
                    <g id="Grupo_136944" data-name="Grupo 136944">
                      <g id="Grupo_136943" data-name="Grupo 136943">
                        <g id="Grupo_136942" data-name="Grupo 136942">
                          <g id="Grupo_136941" data-name="Grupo 136941">
                            <g id="Grupo_136940" data-name="Grupo 136940">
                              <path id="Trazado_151710" data-name="Trazado 151710" d="M282.709,205.937s7.729-.479,8.76,4.7-7.24,14.515-10.363,17.594-2.146-7.208.5-10.961,1.849-6.1,1.849-6.1Z" transform="translate(-279.156 -205.925)" fill="#c9614d"/>
                            </g>
                          </g>
                        </g>
                      </g>
                    </g>
                  </g>
                  <g id="Grupo_136951" data-name="Grupo 136951" transform="translate(8.689 24.722)">
                    <g id="Grupo_136950" data-name="Grupo 136950">
                      <g id="Grupo_136949" data-name="Grupo 136949">
                        <g id="Grupo_136948" data-name="Grupo 136948">
                          <g id="Grupo_136947" data-name="Grupo 136947">
                            <g id="Grupo_136946" data-name="Grupo 136946">
                              <path id="Trazado_151711" data-name="Trazado 151711" d="M284.547,210.338s6.828-.424,7.738,4.152-6.4,12.822-9.154,15.542-1.895-6.367.438-9.681,1.633-5.386,1.633-5.386Z" transform="translate(-281.409 -210.327)" fill="#c9614d"/>
                            </g>
                          </g>
                        </g>
                      </g>
                    </g>
                  </g>
                  <g id="Grupo_136957" data-name="Grupo 136957" transform="translate(1.708 8.661)">
                    <g id="Grupo_136956" data-name="Grupo 136956">
                      <g id="Grupo_136955" data-name="Grupo 136955">
                        <g id="Grupo_136954" data-name="Grupo 136954">
                          <g id="Grupo_136953" data-name="Grupo 136953">
                            <g id="Grupo_136952" data-name="Grupo 136952">
                              <path id="Trazado_151712" data-name="Trazado 151712" d="M281.013,201.252s7.728-.479,8.758,4.7-7.238,14.515-10.363,17.594-2.146-7.208.5-10.959,1.849-6.1,1.849-6.1Z" transform="translate(-277.459 -201.24)" fill="#c9614d"/>
                            </g>
                          </g>
                        </g>
                      </g>
                    </g>
                  </g>
                </g>
                <g id="Grupo_136983" data-name="Grupo 136983" transform="translate(244.856 308.217)">
                  <g id="Grupo_136964" data-name="Grupo 136964" transform="translate(9.245 0)">
                    <g id="Grupo_136963" data-name="Grupo 136963">
                      <g id="Grupo_136962" data-name="Grupo 136962">
                        <g id="Grupo_136961" data-name="Grupo 136961">
                          <g id="Grupo_136960" data-name="Grupo 136960">
                            <g id="Grupo_136959" data-name="Grupo 136959">
                              <path id="Trazado_151713" data-name="Trazado 151713" d="M235.3,199.771s-7.929-.834-9.4,4.24,5.978,15.077,8.829,18.411,2.75-7,.437-10.962-1.631-6.715-1.631-6.715Z" transform="translate(-225.716 -199.72)" fill="#c9614d"/>
                            </g>
                          </g>
                        </g>
                      </g>
                    </g>
                  </g>
                  <g id="Grupo_136970" data-name="Grupo 136970" transform="translate(3.129 16.54)">
                    <g id="Grupo_136969" data-name="Grupo 136969">
                      <g id="Grupo_136968" data-name="Grupo 136968">
                        <g id="Grupo_136967" data-name="Grupo 136967">
                          <g id="Grupo_136966" data-name="Grupo 136966">
                            <g id="Grupo_136965" data-name="Grupo 136965">
                              <path id="Trazado_151714" data-name="Trazado 151714" d="M231.573,209.186s-7.661-1.135-9.128,3.938,5.978,15.079,8.829,18.413,2.75-7,.437-10.962-1.324-6.232-1.324-6.232Z" transform="translate(-222.256 -209.078)" fill="#c9614d"/>
                            </g>
                          </g>
                        </g>
                      </g>
                    </g>
                  </g>
                  <g id="Grupo_136976" data-name="Grupo 136976" transform="translate(0 23.999)">
                    <g id="Grupo_136975" data-name="Grupo 136975">
                      <g id="Grupo_136974" data-name="Grupo 136974">
                        <g id="Grupo_136973" data-name="Grupo 136973">
                          <g id="Grupo_136972" data-name="Grupo 136972">
                            <g id="Grupo_136971" data-name="Grupo 136971">
                              <path id="Trazado_151715" data-name="Trazado 151715" d="M228.714,213.394s-6.766-1-8.062,3.479,5.28,13.318,7.8,16.263,2.43-6.181.387-9.683-1.17-5.5-1.17-5.5Z" transform="translate(-220.485 -213.298)" fill="#c9614d"/>
                            </g>
                          </g>
                        </g>
                      </g>
                    </g>
                  </g>
                  <g id="Grupo_136982" data-name="Grupo 136982" transform="translate(6.822 8.543)">
                    <g id="Grupo_136981" data-name="Grupo 136981">
                      <g id="Grupo_136980" data-name="Grupo 136980">
                        <g id="Grupo_136979" data-name="Grupo 136979">
                          <g id="Grupo_136978" data-name="Grupo 136978">
                            <g id="Grupo_136977" data-name="Grupo 136977">
                              <path id="Trazado_151716" data-name="Trazado 151716" d="M233.66,204.662s-7.659-1.137-9.126,3.938,5.978,15.077,8.829,18.413,2.75-7,.438-10.962-1.326-6.232-1.326-6.232Z" transform="translate(-224.345 -204.553)" fill="#c9614d"/>
                            </g>
                          </g>
                        </g>
                      </g>
                    </g>
                  </g>
                </g>
                <g id="Grupo_136985" data-name="Grupo 136985" transform="translate(257.455 708.442)">
                  <g id="Grupo_136984" data-name="Grupo 136984">
                    <path id="Trazado_151717" data-name="Trazado 151717" d="M227.936,427.373a23.284,23.284,0,0,0,16.843,2.31c.824-.2.475-1.465-.348-1.267a21.9,21.9,0,0,1-15.832-2.178c-.739-.412-1.4.723-.663,1.135Z" transform="translate(-227.613 -426.15)" fill="#110e0a"/>
                  </g>
                </g>
                <g id="Grupo_136987" data-name="Grupo 136987" transform="translate(334.951 703.512)">
                  <g id="Grupo_136986" data-name="Grupo 136986">
                    <path id="Trazado_151718" data-name="Trazado 151718" d="M271.774,424.881a21.9,21.9,0,0,0,22.5-.283c.716-.447.057-1.584-.665-1.135a20.561,20.561,0,0,1-21.168.283.658.658,0,0,0-.665,1.135Z" transform="translate(-271.457 -423.361)" fill="#110e0a"/>
                  </g>
                </g>
              </g>
              <g id="_7doA5k" data-name="7doA5k" transform="translate(-1626.78 -2866.447)">
                <g id="Grupo_136988" data-name="Grupo 136988" transform="translate(1867.106 2998.132)">
                  <path id="Trazado_151719" data-name="Trazado 151719" d="M1950.739,3055.114v-10.323q0-7.64,0-15.278a12.137,12.137,0,0,0-12.271-12.365c-3.562-.025-7.123,0-10.811,0v.846c0,3.14.014,6.281-.013,9.421a.927.927,0,0,0,.688,1.044,5.369,5.369,0,0,1,3.176,6.529,5.473,5.473,0,0,1-5.961,3.84,5.414,5.414,0,0,1-4.662-5.667,5.128,5.128,0,0,1,3.354-4.691.992.992,0,0,0,.708-1.117q-.018-13.623,0-27.246c0-1.575.387-1.968,1.933-1.969q5.6,0,11.2,0c1.341,0,1.8.446,1.8,1.762q.007,3.692,0,7.384c0,1.233-.47,1.714-1.673,1.719q-3.1.012-6.194,0c-1.072,0-1.654-.51-1.636-1.393.018-.849.582-1.316,1.62-1.32,1.691-.006,3.383,0,5.121,0v-5.363h-9.4v13.513h.932c3.2,0,6.392-.013,9.589,0a14.918,14.918,0,0,1,15.226,15.268q0,13.113,0,26.226c0,1.567-.391,1.96-1.945,1.961l-28.257,0h-1.024v.953q0,9.379,0,18.758c0,1.658-.368,2.019-2.057,2.02q-3.479,0-6.958,0c-1.4,0-1.845-.431-1.846-1.8q0-7.724,0-15.447c0-.113,0-.227,0-.339a1.316,1.316,0,0,1,1.353-1.418,1.3,1.3,0,0,1,1.351,1.417c.022,2.433.012,4.866.013,7.3,0,2.486,0,4.972,0,7.517h5.379v-18.961h-.958l-38.95,0c-1.8,0-2.132-.332-2.133-2.114,0-.566,0-1.132,0-1.7,0-1.166.468-1.75,1.374-1.735.877.014,1.327.583,1.335,1.691,0,.338,0,.675,0,1.076h24.4c.013-.268.038-.542.038-.814q0-12.392,0-24.784a12.135,12.135,0,0,0-12.869-12.342,12.445,12.445,0,0,0-6.278,2.094,2.026,2.026,0,0,1-1.542.266c-1.1-.4-1.117-1.689-.084-2.407a15.309,15.309,0,0,1,9.023-2.7q13.534.031,27.07.011c.4,0,.794-.022,1.188.006a1.281,1.281,0,0,1,1.255,1.333,1.3,1.3,0,0,1-1.233,1.363c-.252.025-.509.012-.763.012l-18.329,0h-.914c.846.8,1.646,1.466,2.333,2.232a14.736,14.736,0,0,1,3.865,10.139q.005,12.264,0,24.529v1.071Zm-27.156-21.671a2.713,2.713,0,1,0,2.753-2.713A2.711,2.711,0,0,0,1923.583,3033.444Z" transform="translate(-1871.984 -2998.132)" fill="#3e2ea6"/>
                  <path id="Trazado_151720" data-name="Trazado 151720" d="M1891.439,3058.1c1.664,1.414,3.244,2.737,4.8,4.092.3.266.7.67.688,1a2.15,2.15,0,0,1-.61,1.361,1.158,1.158,0,0,1-1.615-.128q-2.075-1.749-4.149-3.5l-1.221-1.029c-.711.6-1.393,1.182-2.083,1.755a1.434,1.434,0,0,1-2.246,0c-.674-.56-1.34-1.128-2.092-1.762l-10.728,9.083h1.072q11.156,0,22.311,0c1.165,0,1.806.569,1.709,1.49-.085.806-.632,1.227-1.635,1.227q-7.72.005-15.44,0c-3,0-6,0-8.993,0a3.737,3.737,0,0,1-4.1-4.107q0-9.5,0-19.007a3.711,3.711,0,0,1,3.985-4.043q10.9-.013,21.8-.005c1.112,0,1.727.55,1.657,1.455a1.339,1.339,0,0,1-1.518,1.259c-2.206.014-4.412,0-6.617,0h-14.235l13.933,11.8,5.473-4.629c.993-.84,1.979-1.688,2.98-2.518a1.35,1.35,0,0,1,2.083.023c.545.651.438,1.378-.348,2.053C1894.721,3055.33,1893.122,3056.674,1891.439,3058.1Zm-10.634,0-10.926-9.24v18.483Z" transform="translate(-1867.106 -3020.077)" fill="#3e2ea6"/>
                </g>
              </g>
              <g id="_7doA5k-2" data-name="7doA5k" transform="translate(-18.202 254.156)">
                <g id="Grupo_136988-2" data-name="Grupo 136988" transform="translate(0 0)">
                  <path id="Trazado_151719-2" data-name="Trazado 151719" d="M1880.722,3067.372v-12.544q0-9.283,0-18.564a14.748,14.748,0,0,1,14.91-15.025c4.328-.03,8.655-.005,13.136-.005v1.029c0,3.816-.017,7.632.016,11.448a1.126,1.126,0,0,1-.835,1.269,6.524,6.524,0,0,0-3.859,7.934,6.65,6.65,0,0,0,7.243,4.666,6.579,6.579,0,0,0,5.665-6.886,6.231,6.231,0,0,0-4.076-5.7,1.206,1.206,0,0,1-.861-1.357q.022-16.553.006-33.106c0-1.914-.47-2.392-2.349-2.392q-6.806,0-13.611,0c-1.629,0-2.183.542-2.186,2.141q-.009,4.486,0,8.973c0,1.5.571,2.083,2.033,2.088q3.763.014,7.526,0c1.3,0,2.009-.619,1.988-1.693-.021-1.032-.707-1.6-1.969-1.6-2.055-.007-4.11,0-6.222,0v-6.517H1908.7v16.42h-1.132c-3.883,0-7.767-.015-11.652,0a18.127,18.127,0,0,0-18.5,18.552q0,15.934,0,31.868c0,1.9.475,2.382,2.363,2.383l34.336.006h1.244v1.158q0,11.4.006,22.793c0,2.015.448,2.453,2.5,2.454q4.228,0,8.455,0c1.706,0,2.242-.524,2.243-2.19q0-9.385,0-18.77c0-.138,0-.275,0-.412a1.6,1.6,0,0,0-1.644-1.723,1.573,1.573,0,0,0-1.642,1.722c-.026,2.956-.015,5.913-.016,8.87,0,3.021,0,6.042,0,9.133h-6.536v-23.04h1.164l47.329.006c2.181,0,2.591-.4,2.591-2.568,0-.688,0-1.375,0-2.063-.005-1.416-.568-2.126-1.67-2.109-1.066.017-1.612.708-1.623,2.055,0,.41,0,.82,0,1.308h-29.653c-.016-.326-.046-.658-.046-.99q0-15.058,0-30.115a14.745,14.745,0,0,1,15.637-15,15.123,15.123,0,0,1,7.628,2.544,2.463,2.463,0,0,0,1.874.323c1.339-.482,1.357-2.053.1-2.925a18.6,18.6,0,0,0-10.964-3.283q-16.446.037-32.893.014c-.481,0-.964-.026-1.443.008a1.556,1.556,0,0,0-1.525,1.62,1.584,1.584,0,0,0,1.5,1.656c.307.03.618.015.927.015l22.272,0h1.11c-1.028.975-2,1.781-2.835,2.712a17.907,17.907,0,0,0-4.7,12.32q-.007,14.9,0,29.806v1.3Zm33-26.332a3.3,3.3,0,1,1-3.345-3.3A3.295,3.295,0,0,1,1913.72,3041.04Z" transform="translate(-1877.419 -2998.132)" fill="#3e2ea6"/>
                  <path id="Trazado_151720-2" data-name="Trazado 151720" d="M1874.2,3061.023c-2.022,1.718-3.942,3.325-5.827,4.972-.369.323-.851.814-.835,1.21a2.612,2.612,0,0,0,.741,1.654,1.408,1.408,0,0,0,1.962-.156q2.521-2.126,5.041-4.254l1.484-1.25c.864.729,1.692,1.437,2.532,2.132,1.064.882,1.675.882,2.729.005.819-.68,1.628-1.371,2.542-2.141l13.036,11.036h-1.3q-13.556,0-27.111,0c-1.415,0-2.2.691-2.077,1.81.1.979.768,1.491,1.987,1.491q9.38.007,18.761,0c3.643,0,7.285,0,10.927-.006,3.17-.01,4.976-1.827,4.977-4.991q0-11.548,0-23.1c0-3.042-1.828-4.91-4.843-4.913q-13.247-.016-26.493-.007c-1.352,0-2.1.669-2.014,1.768a1.627,1.627,0,0,0,1.844,1.53c2.68.017,5.361.006,8.041.006h17.3l-16.93,14.334-6.651-5.625c-1.207-1.021-2.4-2.052-3.622-3.06-.953-.789-1.868-.765-2.532.028s-.532,1.675.423,2.495C1870.216,3057.654,1872.159,3059.288,1874.2,3061.023Zm12.921.006L1900.4,3049.8v22.46Z" transform="translate(-1804.772 -3014.819)" fill="#3e2ea6"/>
                </g>
              </g>
              <g id="Grupo_136997" data-name="Grupo 136997" transform="translate(-640.859 -732.158)">
                <path id="Trazado_151727" data-name="Trazado 151727" d="M873.221,1025.763a1.241,1.241,0,0,0,2.441.185,3.585,3.585,0,0,0,.063-.917c0-6.306.012-12.612-.013-18.918,0-.617.129-.783.769-.781q21.232.031,42.462,0c.6,0,.8.11.79.763-.039,3.363-.024,6.726-.017,10.09a2.653,2.653,0,0,0,2.965,2.949c3.391,0,6.782.021,10.174-.016.646-.007.785.176.77.791-.044,1.764-.007,3.531-.019,5.3a1.3,1.3,0,0,0,.7,1.321c.907.45,1.806-.207,1.816-1.357.018-2.046-.035-4.093.021-6.137a3.593,3.593,0,0,0-1.184-2.826q-6.157-6.091-12.253-12.242a4.132,4.132,0,0,0-1.7-1.142h-46.1a2.8,2.8,0,0,0-1.726,2.929c.05,6.418.022,12.837.022,19.255A6.719,6.719,0,0,0,873.221,1025.763Zm49.01-18.406,9.261,9.262H925c-.757,0-1.514-.012-2.271.006-.342.008-.5-.075-.5-.461C922.237,1013.2,922.231,1010.247,922.231,1007.357Z" transform="translate(0)" fill="#eaeaea"/>
                <path id="Trazado_151728" data-name="Trazado 151728" d="M963.947,1032.7q-.672-.343-1.353-.667a3.371,3.371,0,0,0-4.85,1.648q-12.361,25.08-24.71,50.167a2.74,2.74,0,0,0-.289,1.46c.059.754.073,1.512.106,2.268h-.019c.046.812.119,1.623.132,2.435a1.81,1.81,0,0,0,.98,1.8,1.882,1.882,0,0,0,2.043-.276q1.88-1.342,3.787-2.646a3.424,3.424,0,0,0,1.168-1.39c1.489-3.067,3.006-6.121,4.514-9.179.7-1.429,1.422-2.853,2.109-4.289a1.286,1.286,0,0,0-.627-1.883c-.673-.246-1.262.048-1.672.874q-1.788,3.606-3.549,7.224c-.213.44-.389.577-.862.3a13.58,13.58,0,0,0-2.028-1c-.585-.228-.66-.445-.37-1.025,2.409-4.826,4.778-9.671,7.16-14.511q4.645-9.441,9.28-18.888c.266-.544.479-.689,1.034-.345a13.822,13.822,0,0,0,1.957.957c.517.217.624.436.348.978-1.293,2.54-2.535,5.105-3.795,7.662q-3.278,6.657-6.553,13.315c-.44.9-.27,1.58.45,1.941s1.356.053,1.814-.837c.051-.1.1-.2.15-.3q3.852-7.823,7.7-15.646,3.778-7.672,7.55-15.346A3.373,3.373,0,0,0,963.947,1032.7Zm-28.535,56.156v-3.142l2.645,1.3Zm4.506-5.976a2.63,2.63,0,0,1,.368.277c-.3.577-.548,1.1-.85,1.6-.105.171-.3-.023-.439-.088-.8-.383-1.581-.813-2.4-1.163-.449-.192-.4-.392-.225-.752.626-1.314.615-1.321,1.9-.685C938.825,1082.335,939.375,1082.6,939.918,1082.878Zm19.778-39.213c-.089.162-.261.043-.373-.012-.879-.428-1.746-.878-2.63-1.293-.277-.13-.272-.24-.172-.5.574-1.529.586-1.542,2.056-.816.5.247,1,.506,1.5.748.175.084.342.156.4.336C960.2,1042.672,959.965,1043.177,959.7,1043.665Zm3.753-7.7a4.11,4.11,0,0,1-.182.489c-.447.927-.924,1.84-1.351,2.776-.2.433-.391.5-.814.263-.727-.407-1.484-.764-2.246-1.1-.382-.17-.5-.317-.279-.734.515-.954.983-1.934,1.454-2.911a.926.926,0,0,1,1.437-.474c.471.24.948.468,1.419.709A.908.908,0,0,1,963.45,1035.962Z" transform="translate(-18.379 -8.876)" fill="#eaeaea"/>
                <path id="Trazado_151729" data-name="Trazado 151729" d="M936.053,1073.888a1.15,1.15,0,0,0-1.177-.894,1.132,1.132,0,0,0-1.168.793,3.238,3.238,0,0,0-.086,1c0,7.57-.017,15.14.017,22.709,0,.8-.167,1-.988,1q-27.966-.04-55.932,0c-.784,0-1.007-.142-1.005-.976q.044-26.872.02-53.745a4.147,4.147,0,0,0-.068-1,1.237,1.237,0,0,0-2.438.187c-.021.223-.012.448-.012.672q0,27.252,0,54.5c0,2.076.8,2.864,2.911,2.864h57.109c2.071,0,2.9-.827,2.9-2.9q0-11.649,0-23.3A3.5,3.5,0,0,0,936.053,1073.888Z" transform="translate(-0.009 -12.033)" fill="#eaeaea"/>
                <path id="Trazado_151730" data-name="Trazado 151730" d="M881.956,1074.37a2.411,2.411,0,0,0,2.48,2.512q3.32.056,6.641,0a2.46,2.46,0,0,0,2.508-2.589q.025-3.236,0-6.472a2.364,2.364,0,0,0-2.333-2.558q-3.484-.11-6.973,0a2.319,2.319,0,0,0-2.324,2.467c-.027,1.092-.005,2.185,0,3.278C881.95,1072.129,881.928,1073.25,881.956,1074.37Zm2.5-6.1c0-.4.123-.534.527-.53q2.81.026,5.622,0c.374,0,.471.138.468.492-.013,1.874-.022,3.748,0,5.622.008.491-.213.534-.6.525-.923-.02-1.846-.006-2.769-.006-.9,0-1.791-.023-2.685.009-.45.016-.57-.145-.565-.575Q884.485,1071.036,884.458,1068.267Z" transform="translate(-2.703 -19.254)" fill="#eaeaea"/>
                <path id="Trazado_151731" data-name="Trazado 151731" d="M881.953,1052.387a2.356,2.356,0,0,0,2.384,2.507q3.443.092,6.89-.008a2.381,2.381,0,0,0,2.357-2.542q.026-3.237,0-6.473a2.445,2.445,0,0,0-2.485-2.606c-2.24-.042-4.483-.045-6.724,0a2.379,2.379,0,0,0-2.42,2.478c-.029,1.119-.006,2.241-.007,3.362C881.949,1050.2,881.929,1051.3,881.953,1052.387Zm2.5-6.105c0-.4.125-.526.528-.522,1.847.019,3.7.024,5.543,0,.465-.007.552.164.548.581q-.028,2.772,0,5.543c0,.4-.109.541-.518.53-.923-.026-1.847-.008-2.772-.008-.9,0-1.792-.016-2.687.007-.437.012-.655-.063-.646-.585C884.484,1049.978,884.475,1048.129,884.457,1046.282Z" transform="translate(-2.702 -12.472)" fill="#eaeaea"/>
                <path id="Trazado_151732" data-name="Trazado 151732" d="M881.96,1096.42a2.392,2.392,0,0,0,2.472,2.422q3.32.031,6.641,0a2.435,2.435,0,0,0,2.509-2.491q.039-3.32,0-6.641a2.4,2.4,0,0,0-2.492-2.49q-3.32-.035-6.641,0a2.368,2.368,0,0,0-2.494,2.475c-.028,1.092-.005,2.185-.005,3.278h0C881.953,1094.123,881.925,1095.272,881.96,1096.42Zm2.5-6.132c0-.429.1-.589.554-.572.923.034,1.847.01,2.772.01s1.849.017,2.772-.008c.4-.011.528.1.524.512-.021,1.876-.018,3.752,0,5.628,0,.359-.089.483-.465.479q-2.815-.027-5.628,0c-.389,0-.531-.087-.526-.505Q884.489,1093.06,884.456,1090.288Z" transform="translate(-2.702 -26.042)" fill="#eaeaea"/>
                <path id="Trazado_151733" data-name="Trazado 151733" d="M893.576,1023.739a2.391,2.391,0,0,0-2.407-2.414q-3.4-.055-6.808,0a2.35,2.35,0,0,0-2.4,2.4q-.054,3.4,0,6.808a2.361,2.361,0,0,0,2.472,2.411c1.092.021,2.185,0,3.279,0h3.278c.056,0,.112,0,.168,0a2.41,2.41,0,0,0,2.417-2.4Q893.629,1027.145,893.576,1023.739Zm-3.016,6.7c-.922-.028-1.847-.008-2.77-.008-.951,0-1.9-.014-2.854.007-.36.008-.484-.1-.481-.47q.026-2.811,0-5.624c0-.407.118-.518.518-.514,1.874.019,3.749.017,5.624,0,.356,0,.483.086.48.465q-.028,2.811,0,5.624C891.079,1030.317,890.966,1030.448,890.56,1030.435Z" transform="translate(-2.7 -5.702)" fill="#eaeaea"/>
                <path id="Trazado_151734" data-name="Trazado 151734" d="M930.942,1055.341a1.134,1.134,0,0,0-.837-1.289,3.03,3.03,0,0,0-.908-.093q-12.98-.007-25.96,0a3.569,3.569,0,0,0-.752.04,1.237,1.237,0,0,0-.968,1.52,1.332,1.332,0,0,0,1.48.962c4.425-.014,8.85-.007,13.274-.007h12.854a4.643,4.643,0,0,0,.755-.017A1.157,1.157,0,0,0,930.942,1055.341Z" transform="translate(-8.73 -15.781)" fill="#eaeaea"/>
                <path id="Trazado_151735" data-name="Trazado 151735" d="M903.419,1045.814a6.281,6.281,0,0,0-.839.028,1.149,1.149,0,0,0-1.079,1.186,1.132,1.132,0,0,0,.932,1.224,3.958,3.958,0,0,0,.915.082q12.87.006,25.738,0a3.567,3.567,0,0,0,1.077-.12,1.232,1.232,0,0,0-.169-2.353,4.814,4.814,0,0,0-.922-.045q-6.392,0-12.785,0Z" transform="translate(-8.739 -13.268)" fill="#eaeaea"/>
                <path id="Trazado_151736" data-name="Trazado 151736" d="M928.449,1078.42a1.206,1.206,0,0,0,1.318-1.376c-.072-.786-.6-1.137-1.753-1.137q-12.363,0-24.725,0a3.127,3.127,0,0,0-.993.116,1.13,1.13,0,0,0-.8,1.239,1.147,1.147,0,0,0,.969,1.113,4.748,4.748,0,0,0,.921.05q6.1,0,12.194,0h8.578C925.59,1078.43,927.02,1078.449,928.449,1078.42Z" transform="translate(-8.736 -22.556)" fill="#eaeaea"/>
                <path id="Trazado_151737" data-name="Trazado 151737" d="M902.908,1070.286c.14.006.281,0,.42,0q11.439,0,22.878,0a2.727,2.727,0,0,0,1-.088,1.233,1.233,0,0,0,.736-1.7,1.4,1.4,0,0,0-1.471-.738c-3.9.01-7.794,0-11.691,0h-5.046c-2.271,0-4.542-.007-6.813,0a1.275,1.275,0,0,0-1.435,1.2C901.456,1069.73,902.012,1070.246,902.908,1070.286Z" transform="translate(-8.734 -20.041)" fill="#eaeaea"/>
                <path id="Trazado_151738" data-name="Trazado 151738" d="M924.009,1092.215a1.221,1.221,0,0,0,1.175-1.2,1.241,1.241,0,0,0-1.168-1.3,6.718,6.718,0,0,0-.756-.01H903.5a7.892,7.892,0,0,0-.84.01,1.235,1.235,0,0,0-1.173,1.289,1.215,1.215,0,0,0,1.166,1.211,5.166,5.166,0,0,0,.671.012h20.008A5.578,5.578,0,0,0,924.009,1092.215Z" transform="translate(-8.735 -26.812)" fill="#eaeaea"/>
                <path id="Trazado_151739" data-name="Trazado 151739" d="M903.079,1034.537q9.712.006,19.425,0c1.039,0,1.648-.478,1.648-1.269s-.6-1.252-1.649-1.253q-4.835,0-9.67,0-4.877,0-9.755,0c-1,0-1.569.442-1.594,1.213C901.457,1034.033,902.056,1034.537,903.079,1034.537Z" transform="translate(-8.734 -9.009)" fill="#eaeaea"/>
                <path id="Trazado_151740" data-name="Trazado 151740" d="M902.5,1026.306a4.749,4.749,0,0,0,.838.034q4.707,0,9.414,0h4.959c1.709,0,3.419.012,5.127-.009a1.246,1.246,0,0,0,1.316-1.233,1.3,1.3,0,0,0-1.227-1.26,2.852,2.852,0,0,0-.336-.008q-9.792,0-19.585,0a2,2,0,0,0-.738.118,1.231,1.231,0,0,0,.231,2.352Z" transform="translate(-8.736 -6.483)" fill="#eaeaea"/>
                <path id="Trazado_151741" data-name="Trazado 151741" d="M920.336,1097.938a4.922,4.922,0,0,0-.921-.048q-3.992-.005-7.983,0-3.361,0-6.722,0c-.7,0-1.4-.017-2.1.032a1.126,1.126,0,0,0-1.108,1.155,1.151,1.151,0,0,0,.978,1.272,3.381,3.381,0,0,0,.749.062q8.194.005,16.387,0a2.708,2.708,0,0,0,.907-.118,1.228,1.228,0,0,0-.188-2.351Z" transform="translate(-8.739 -29.339)" fill="#eaeaea"/>
              </g>
            </g>
          </g>
        </g>
      </g>
    </g>
  </g>
</svg>
