<svg xmlns="http://www.w3.org/2000/svg" width="356.882" height="360.775" viewBox="0 0 356.882 360.775">
  <g id="img6" transform="translate(-254 -3457)">
    <path id="Trazado_148788" data-name="Trazado 148788" d="M-5619.141-856.675c.01-.891.033-1.78.033-2.673,0-123.93-100.135-224.478-223.954-225.254V-1217.45c197.234.779,356.882,160.8,356.882,358.1,0,.892-.009,1.782-.017,2.673Z" transform="translate(6097.062 4674.45)" fill="#bcbcbc" style="isolation: isolate"/>
    <g id="Grupo_137454" data-name="Grupo 137454" transform="translate(9.717 3241.561)">
      <g id="Grupo_137062" data-name="Grupo 137062" transform="translate(494.312 227.877)">
        <g id="Grupo_137061" data-name="Grupo 137061">
          <g id="Grupo_137054" data-name="Grupo 137054" transform="translate(2.586)">
            <g id="Grupo_137053" data-name="Grupo 137053">
              <path id="Trazado_151857" data-name="Trazado 151857" d="M484.231,253.711a24.811,24.811,0,1,1-19.482-29.183A24.811,24.811,0,0,1,484.231,253.711Z" transform="translate(-435.082 -224.045)" fill="#539380"/>
            </g>
          </g>
          <g id="Grupo_137056" data-name="Grupo 137056" transform="translate(14.724 15.598)">
            <g id="Grupo_137055" data-name="Grupo 137055">
              <path id="Trazado_151858" data-name="Trazado 151858" d="M448.643,255.205a2.47,2.47,0,0,1-.481-.048,2.4,2.4,0,0,1-1.655-1.259l-2.762-5.4a2.4,2.4,0,1,1,4.272-2.187l1.4,2.73,16.4-13.653a2.4,2.4,0,0,1,3.07,3.69l-18.71,15.569A2.394,2.394,0,0,1,448.643,255.205Z" transform="translate(-443.48 -234.836)" fill="#fff"/>
            </g>
          </g>
          <g id="Grupo_137058" data-name="Grupo 137058" transform="translate(25.726 32.199)">
            <g id="Grupo_137057" data-name="Grupo 137057">
              <path id="Trazado_151859" data-name="Trazado 151859" d="M480.157,246.322a.618.618,0,0,1,.6.776,27.473,27.473,0,0,1-29.076,20.4.638.638,0,0,1-.581-.541.613.613,0,0,1,.665-.688,26.241,26.241,0,0,0,27.8-19.479.617.617,0,0,1,.6-.464Z" transform="translate(-451.092 -246.322)" fill="#539380"/>
            </g>
          </g>
          <g id="Grupo_137060" data-name="Grupo 137060" transform="translate(0 33.456)">
            <g id="Grupo_137059" data-name="Grupo 137059">
              <path id="Trazado_151860" data-name="Trazado 151860" d="M439.587,247.192,433.4,262.613a1.477,1.477,0,0,0,1.867,1.941l16.4-5.848Z" transform="translate(-433.293 -247.192)" fill="#539380"/>
            </g>
          </g>
        </g>
      </g>
      <g id="Grupo_137077" data-name="Grupo 137077" transform="translate(296.283 248.187)">
        <g id="Grupo_137074" data-name="Grupo 137074" transform="translate(0 10.268)">
          <g id="Grupo_137063" data-name="Grupo 137063" transform="translate(0 0)">
            <rect id="Rectángulo_35531" data-name="Rectángulo 35531" width="56.484" height="39.017" transform="matrix(1, -0.001, 0.001, 1, 0, 0.081)" fill="#e59f3f"/>
          </g>
          <g id="Grupo_137065" data-name="Grupo 137065" transform="translate(0.002 0.002)">
            <g id="Grupo_137064" data-name="Grupo 137064">
              <path id="Trazado_151861" data-name="Trazado 151861" d="M296.284,245.283l0,2.5,28.276,24.989L352.77,247.7l0-2.5-28.2,25.157Z" transform="translate(-296.284 -245.202)" fill="#b56d25"/>
            </g>
          </g>
          <g id="Grupo_137068" data-name="Grupo 137068" transform="translate(33.713 18.856)">
            <g id="Grupo_137067" data-name="Grupo 137067">
              <g id="Grupo_137066" data-name="Grupo 137066">
                <path id="Trazado_151862" data-name="Trazado 151862" d="M319.608,259.616,340.8,278.41l1.636,0v-.995l-21.612-19.166Z" transform="translate(-319.608 -258.247)" fill="#b56d25"/>
              </g>
            </g>
          </g>
          <g id="Grupo_137071" data-name="Grupo 137071" transform="translate(0.055 18.875)">
            <g id="Grupo_137070" data-name="Grupo 137070">
              <g id="Grupo_137069" data-name="Grupo 137069">
                <path id="Trazado_151863" data-name="Trazado 151863" d="M296.321,277.621v.863l1.784,0,21.137-18.855-1.219-1.365Z" transform="translate(-296.321 -258.26)" fill="#b56d25"/>
              </g>
            </g>
          </g>
          <g id="Grupo_137073" data-name="Grupo 137073" transform="translate(0.001)">
            <g id="Grupo_137072" data-name="Grupo 137072">
              <path id="Trazado_151864" data-name="Trazado 151864" d="M352.768,245.2l-28.206,25.159-28.278-25.077Z" transform="translate(-296.284 -245.201)" fill="#e59f3f"/>
            </g>
          </g>
        </g>
        <g id="Grupo_137076" data-name="Grupo 137076" transform="translate(41.564)">
          <circle id="Elipse_5063" data-name="Elipse 5063" cx="12.259" cy="12.259" r="12.259" fill="#539380"/>
          <g id="Grupo_137075" data-name="Grupo 137075" transform="translate(5.554 6.434)">
            <path id="Trazado_151865" data-name="Trazado 151865" d="M333.076,254.2h0a1.188,1.188,0,0,1-.84-.348l-3-3a1.189,1.189,0,0,1,1.682-1.681l2.162,2.164,8.431-8.431a1.19,1.19,0,0,1,1.682,1.682l-9.272,9.271A1.189,1.189,0,0,1,333.076,254.2Z" transform="translate(-328.883 -242.548)" fill="#fff"/>
          </g>
        </g>
      </g>
      <g id="Grupo_137081" data-name="Grupo 137081" transform="translate(299.062 340.623)">
        <g id="Grupo_137078" data-name="Grupo 137078">
          <path id="Trazado_151866" data-name="Trazado 151866" d="M450.177,537.462c-57.381-2.013-116.73-9.84-147.45-115.576-9.132-31.432-3.191-55.236,6.831-73.17a108.986,108.986,0,0,1,8.012-12.244l0,0q1.587-2.114,3.2-4.089c22.419-27.491,60.022-37.354,93.35-25.2,18.691,6.812,42.67,16.889,64.05,29.99,42.956,26.324,53.032,56.339,67.066,107.826,1.207,4.42,2.409,9.378,3.324,14.642.49,2.816.9,5.716,1.174,8.671C552.852,501.227,540.153,540.626,450.177,537.462Z" transform="translate(-298.206 -302.05)" fill="#171612"/>
        </g>
        <g id="Grupo_137080" data-name="Grupo 137080" transform="translate(8.168 34.423)">
          <g id="Grupo_137079" data-name="Grupo 137079">
            <path id="Trazado_151867" data-name="Trazado 151867" d="M547.224,457.7a67.64,67.64,0,0,1-8.236,15.981c-10.852,15.546-33.446,34.332-79.466,35.544q-3.038.08-6,.08c-17.581,0-33.09-2.122-47.259-6.451a115.557,115.557,0,0,1-39.56-20.877c-19.715-15.906-35.962-39.177-52.672-75.448a105.5,105.5,0,0,1-10.172-43.156,94.089,94.089,0,0,1,3.178-25.262,108.992,108.992,0,0,1,8.012-12.244c-.711,1.645-1.4,3.363-2.057,5.157-6.011,16.486-10.151,42.711,4.271,74.013C346.6,468.7,380.613,507.729,459.43,505.665c44.533-1.171,66.258-19.148,76.636-34.027a62.475,62.475,0,0,0,9.984-22.611C546.541,451.842,546.947,454.743,547.224,457.7Z" transform="translate(-303.857 -325.866)" fill="#5a554d"/>
          </g>
        </g>
      </g>
      <g id="Grupo_137441" data-name="Grupo 137441" transform="translate(328.653 215.439)">
        <g id="Grupo_137085" data-name="Grupo 137085" transform="translate(43.649 197.526)">
          <g id="Grupo_137084" data-name="Grupo 137084">
            <g id="Grupo_137083" data-name="Grupo 137083">
              <g id="Grupo_137082" data-name="Grupo 137082">
                <path id="Trazado_151868" data-name="Trazado 151868" d="M397.149,409.33c2.4,1.723,6.195,3.515,11.875,5.322,32.266,10.266,61.853-6.3,61.853-6.3,1.788-8.837.682-18.878-2.3-22.554a3.24,3.24,0,0,0,.315-2.866l29.7-30.827c-16.886,13.994-37.775,18.573-54.036,28.4h-.007c-4.686,2.83-8.9,5.325-11.986,7.059-4.71,2.643-10.723,2.9-16.616,2.091-11.483-1.587-22.5-7.246-22.5-7.246s-36.981-16.762-43.914-16.2C344.14,366.637,373.151,396.927,397.149,409.33Z" transform="translate(-348.878 -352.101)" fill="#c04d3a"/>
              </g>
            </g>
          </g>
        </g>
        <g id="Grupo_137165" data-name="Grupo 137165" transform="translate(0 205.059)">
          <g id="Grupo_137155" data-name="Grupo 137155" transform="translate(130.018 55.91)">
            <g id="Grupo_137086" data-name="Grupo 137086" transform="translate(0 13.795)">
              <path id="Trazado_151869" data-name="Trazado 151869" d="M427.69,411.365s-9.519-2.735-12.442-5.825l-6.614,15.572,22.516,7.027S431.463,414.459,427.69,411.365Z" transform="translate(-408.634 -405.54)" fill="#eaad8f"/>
            </g>
            <g id="Grupo_137154" data-name="Grupo 137154" transform="translate(15.137)">
              <g id="Grupo_137088" data-name="Grupo 137088">
                <g id="Grupo_137087" data-name="Grupo 137087">
                  <path id="Trazado_151870" data-name="Trazado 151870" d="M477.365,460.618l-29.107-64.608a9.915,9.915,0,0,0-3.972.767c-5.647,2.058-13.583,7.73-18.7,11.061-.6.393-1.155.752-1.667,1.065a20.7,20.7,0,0,1-2.159,1.2c-4.488,2.022-1.928,5.647-1.928,5.647,9.356,3.65,3.077,15.384,8.178,18.285,0,0,2.172,1.26,9.1,4.312s13.9,10.4,20.355,16.427c8.325,7.783,13.553,8.7,16.551,7.987A5.54,5.54,0,0,0,477.365,460.618Z" transform="translate(-419.107 -395.996)" fill="#fff"/>
                </g>
              </g>
              <g id="Grupo_137089" data-name="Grupo 137089" transform="translate(25.18)">
                <path id="Trazado_151871" data-name="Trazado 151871" d="M469.607,460.618,440.5,396.011a9.915,9.915,0,0,0-3.972.767l29.73,65.988A5.54,5.54,0,0,0,469.607,460.618Z" transform="translate(-436.528 -395.996)" fill="#f0e8e0"/>
              </g>
              <g id="Grupo_137099" data-name="Grupo 137099" transform="translate(4.814 4.688)">
                <g id="Grupo_137098" data-name="Grupo 137098">
                  <g id="Grupo_137097" data-name="Grupo 137097">
                    <g id="Grupo_137096" data-name="Grupo 137096">
                      <g id="Grupo_137095" data-name="Grupo 137095">
                        <g id="Grupo_137094" data-name="Grupo 137094">
                          <g id="Grupo_137093" data-name="Grupo 137093">
                            <g id="Grupo_137092" data-name="Grupo 137092">
                              <g id="Grupo_137091" data-name="Grupo 137091">
                                <g id="Grupo_137090" data-name="Grupo 137090">
                                  <path id="Trazado_151872" data-name="Trazado 151872" d="M449.744,401.158l-.864-1.919a15.547,15.547,0,0,1-8.781,8.133c-6.524,2.564-12.553.674-15.994-.977-.6.393-1.155.752-1.667,1.065,3.485,1.88,10.462,4.553,18.277,1.484A17.193,17.193,0,0,0,449.744,401.158Z" transform="translate(-422.438 -399.239)" fill="#f0e8e0"/>
                                </g>
                              </g>
                            </g>
                          </g>
                        </g>
                      </g>
                    </g>
                  </g>
                </g>
              </g>
              <g id="Grupo_137108" data-name="Grupo 137108" transform="translate(19.088 38.857)">
                <g id="Grupo_137107" data-name="Grupo 137107">
                  <g id="Grupo_137106" data-name="Grupo 137106">
                    <g id="Grupo_137105" data-name="Grupo 137105">
                      <g id="Grupo_137104" data-name="Grupo 137104">
                        <g id="Grupo_137103" data-name="Grupo 137103">
                          <g id="Grupo_137102" data-name="Grupo 137102">
                            <g id="Grupo_137101" data-name="Grupo 137101">
                              <g id="Grupo_137100" data-name="Grupo 137100">
                                <path id="Trazado_151873" data-name="Trazado 151873" d="M434.547,423.567a1.169,1.169,0,0,0-2.214.691l.817,4.486a1.168,1.168,0,0,0,2.3-.418l-.817-4.488A1.21,1.21,0,0,0,434.547,423.567Z" transform="translate(-432.314 -422.88)" fill="#171612"/>
                              </g>
                            </g>
                          </g>
                        </g>
                      </g>
                    </g>
                  </g>
                </g>
              </g>
              <g id="Grupo_137117" data-name="Grupo 137117" transform="translate(13.922 36.361)">
                <g id="Grupo_137116" data-name="Grupo 137116">
                  <g id="Grupo_137115" data-name="Grupo 137115">
                    <g id="Grupo_137114" data-name="Grupo 137114">
                      <g id="Grupo_137113" data-name="Grupo 137113">
                        <g id="Grupo_137112" data-name="Grupo 137112">
                          <g id="Grupo_137111" data-name="Grupo 137111">
                            <g id="Grupo_137110" data-name="Grupo 137110">
                              <g id="Grupo_137109" data-name="Grupo 137109">
                                <path id="Trazado_151874" data-name="Trazado 151874" d="M430.972,421.84a1.168,1.168,0,0,0-2.213.689l.815,4.486a1.168,1.168,0,1,0,2.3-.418l-.817-4.486A1.207,1.207,0,0,0,430.972,421.84Z" transform="translate(-428.74 -421.153)" fill="#171612"/>
                              </g>
                            </g>
                          </g>
                        </g>
                      </g>
                    </g>
                  </g>
                </g>
              </g>
              <g id="Grupo_137126" data-name="Grupo 137126" transform="translate(23.254 41.836)">
                <g id="Grupo_137125" data-name="Grupo 137125">
                  <g id="Grupo_137124" data-name="Grupo 137124">
                    <g id="Grupo_137123" data-name="Grupo 137123">
                      <g id="Grupo_137122" data-name="Grupo 137122">
                        <g id="Grupo_137121" data-name="Grupo 137121">
                          <g id="Grupo_137120" data-name="Grupo 137120">
                            <g id="Grupo_137119" data-name="Grupo 137119">
                              <g id="Grupo_137118" data-name="Grupo 137118">
                                <path id="Trazado_151875" data-name="Trazado 151875" d="M437.428,425.628a1.168,1.168,0,0,0-2.213.69l.815,4.488a1.168,1.168,0,0,0,2.3-.418l-.817-4.488A1.211,1.211,0,0,0,437.428,425.628Z" transform="translate(-435.195 -424.941)" fill="#171612"/>
                              </g>
                            </g>
                          </g>
                        </g>
                      </g>
                    </g>
                  </g>
                </g>
              </g>
              <g id="Grupo_137135" data-name="Grupo 137135" transform="translate(27.327 44.856)">
                <g id="Grupo_137134" data-name="Grupo 137134">
                  <g id="Grupo_137133" data-name="Grupo 137133">
                    <g id="Grupo_137132" data-name="Grupo 137132">
                      <g id="Grupo_137131" data-name="Grupo 137131">
                        <g id="Grupo_137130" data-name="Grupo 137130">
                          <g id="Grupo_137129" data-name="Grupo 137129">
                            <g id="Grupo_137128" data-name="Grupo 137128">
                              <g id="Grupo_137127" data-name="Grupo 137127">
                                <path id="Trazado_151876" data-name="Trazado 151876" d="M440.246,427.718a1.167,1.167,0,0,0-2.213.689l.815,4.486a1.168,1.168,0,1,0,2.3-.418l-.817-4.486A1.165,1.165,0,0,0,440.246,427.718Z" transform="translate(-438.014 -427.03)" fill="#171612"/>
                              </g>
                            </g>
                          </g>
                        </g>
                      </g>
                    </g>
                  </g>
                </g>
              </g>
              <g id="Grupo_137144" data-name="Grupo 137144" transform="translate(31.394 48.317)">
                <g id="Grupo_137143" data-name="Grupo 137143">
                  <g id="Grupo_137142" data-name="Grupo 137142">
                    <g id="Grupo_137141" data-name="Grupo 137141">
                      <g id="Grupo_137140" data-name="Grupo 137140">
                        <g id="Grupo_137139" data-name="Grupo 137139">
                          <g id="Grupo_137138" data-name="Grupo 137138">
                            <g id="Grupo_137137" data-name="Grupo 137137">
                              <g id="Grupo_137136" data-name="Grupo 137136">
                                <path id="Trazado_151877" data-name="Trazado 151877" d="M443.061,430.112a1.168,1.168,0,0,0-2.214.69l.817,4.488a1.167,1.167,0,1,0,2.3-.419l-.815-4.486A1.215,1.215,0,0,0,443.061,430.112Z" transform="translate(-440.828 -429.425)" fill="#171612"/>
                              </g>
                            </g>
                          </g>
                        </g>
                      </g>
                    </g>
                  </g>
                </g>
              </g>
              <g id="Grupo_137153" data-name="Grupo 137153" transform="translate(35.324 52.288)">
                <g id="Grupo_137152" data-name="Grupo 137152">
                  <g id="Grupo_137151" data-name="Grupo 137151">
                    <g id="Grupo_137150" data-name="Grupo 137150">
                      <g id="Grupo_137149" data-name="Grupo 137149">
                        <g id="Grupo_137148" data-name="Grupo 137148">
                          <g id="Grupo_137147" data-name="Grupo 137147">
                            <g id="Grupo_137146" data-name="Grupo 137146">
                              <g id="Grupo_137145" data-name="Grupo 137145">
                                <path id="Trazado_151878" data-name="Trazado 151878" d="M445.779,432.859a1.168,1.168,0,0,0-2.213.691l.815,4.486a1.168,1.168,0,0,0,2.3-.418l-.817-4.488A1.21,1.21,0,0,0,445.779,432.859Z" transform="translate(-443.547 -432.172)" fill="#171612"/>
                              </g>
                            </g>
                          </g>
                        </g>
                      </g>
                    </g>
                  </g>
                </g>
              </g>
            </g>
          </g>
          <g id="Grupo_137158" data-name="Grupo 137158">
            <g id="Grupo_137157" data-name="Grupo 137157">
              <g id="Grupo_137156" data-name="Grupo 137156">
                <path id="Trazado_151879" data-name="Trazado 151879" d="M362.982,363.883s-23.4-12.63-36.962-2.868c-24.791,17.853,17.275,52.2,65.394,68.971s63.743,14.484,63.743,14.484,10.454-2.876,6.745-19.82c0,0-27.738-10.545-42.17-21.592S395.463,378.476,362.982,363.883Z" transform="translate(-318.679 -357.313)" fill="#c04d3a"/>
              </g>
            </g>
          </g>
          <g id="Grupo_137161" data-name="Grupo 137161" transform="translate(42.367 11.58)">
            <g id="Grupo_137160" data-name="Grupo 137160">
              <g id="Grupo_137159" data-name="Grupo 137159">
                <path id="Trazado_151880" data-name="Trazado 151880" d="M446.977,426.011c-10.093-2.427-30.658-11.859-55.013-25.233-18.214-10-39.223-22.788-42.306-27.221-1.665-2.4-2.086-4.355-1.247-5.823,1.253-2.2,4.862-2.424,6.507-2.408a.732.732,0,0,1,.726.785h0a.728.728,0,0,1-.731.678c-1.617-.01-4.431.266-5.231,1.671-.665,1.166.273,2.962,1.178,4.262,2.486,3.574,20.069,14.835,41.809,26.773,18.72,10.281,42.909,22.27,54.651,25.093Z" transform="translate(-347.991 -365.325)" fill="#7e231a"/>
              </g>
            </g>
          </g>
          <g id="Grupo_137164" data-name="Grupo 137164" transform="translate(130.976 64.698)">
            <g id="Grupo_137163" data-name="Grupo 137163">
              <g id="Grupo_137162" data-name="Grupo 137162">
                <path id="Trazado_151881" data-name="Trazado 151881" d="M417.773,402.465c-1.136,8.906-3.444,17-8.476,23.211,0,0,4.307,3.1,8.241.876,3.006-1.7,8.8-15.61,6.592-23.036C421.617,402.142,419.448,401.664,417.773,402.465Z" transform="translate(-409.297 -402.076)" fill="#7e231a"/>
              </g>
            </g>
          </g>
        </g>
        <g id="Grupo_137230" data-name="Grupo 137230" transform="translate(27.426 192.492)">
          <g id="Grupo_137219" data-name="Grupo 137219" transform="translate(0 69.925)">
            <g id="Grupo_137166" data-name="Grupo 137166" transform="translate(48.675 11.285)">
              <path id="Trazado_151882" data-name="Trazado 151882" d="M373.866,411.449s9.315-3.365,12.025-6.644l7.64,15.1-22,8.516S370.308,414.788,373.866,411.449Z" transform="translate(-371.331 -404.805)" fill="#eaad8f"/>
            </g>
            <g id="Grupo_137218" data-name="Grupo 137218">
              <g id="Grupo_137168" data-name="Grupo 137168">
                <g id="Grupo_137167" data-name="Grupo 137167">
                  <path id="Trazado_151883" data-name="Trazado 151883" d="M337.654,463.457l24.726-66.406a9.907,9.907,0,0,1,4.014.5c5.771,1.677,14.069,6.8,19.4,9.788.62.353,1.2.672,1.734.951a20.475,20.475,0,0,0,2.234,1.057c4.612,1.719,2.3,5.507,2.3,5.507-9.091,4.267-2.042,15.555-6.938,18.791,0,0-2.084,1.4-8.791,4.91s-13.174,11.306-19.212,17.749c-7.788,8.321-12.943,9.583-15.98,9.074A5.533,5.533,0,0,1,337.654,463.457Z" transform="translate(-337.654 -396.998)" fill="#fff"/>
                </g>
              </g>
              <g id="Grupo_137169" data-name="Grupo 137169">
                <path id="Trazado_151884" data-name="Trazado 151884" d="M337.654,463.457l24.726-66.406a9.907,9.907,0,0,1,4.014.5l-25.255,67.827A5.533,5.533,0,0,1,337.654,463.457Z" transform="translate(-337.654 -396.998)" fill="#f0e8e0"/>
              </g>
              <g id="Grupo_137179" data-name="Grupo 137179" transform="translate(22.202 4.856)">
                <g id="Grupo_137178" data-name="Grupo 137178">
                  <g id="Grupo_137177" data-name="Grupo 137177">
                    <g id="Grupo_137176" data-name="Grupo 137176">
                      <g id="Grupo_137175" data-name="Grupo 137175">
                        <g id="Grupo_137174" data-name="Grupo 137174">
                          <g id="Grupo_137173" data-name="Grupo 137173">
                            <g id="Grupo_137172" data-name="Grupo 137172">
                              <g id="Grupo_137171" data-name="Grupo 137171">
                                <g id="Grupo_137170" data-name="Grupo 137170">
                                  <path id="Trazado_151885" data-name="Trazado 151885" d="M353.015,402.33l.736-1.973a15.549,15.549,0,0,0,9.3,7.529c6.68,2.123,12.57-.168,15.893-2.044.62.353,1.2.672,1.734.951-3.352,2.11-10.135,5.242-18.138,2.7A17.194,17.194,0,0,1,353.015,402.33Z" transform="translate(-353.015 -400.357)" fill="#f0e8e0"/>
                                </g>
                              </g>
                            </g>
                          </g>
                        </g>
                      </g>
                    </g>
                  </g>
                </g>
              </g>
              <g id="Grupo_137180" data-name="Grupo 137180" transform="translate(34.59 38.211)">
                <path id="Trazado_151886" data-name="Trazado 151886" d="M362.173,424.194a1.168,1.168,0,0,1,2.255.541l-.514,4.533a1.167,1.167,0,1,1-2.32-.265l.514-4.531A1.258,1.258,0,0,1,362.173,424.194Z" transform="translate(-361.586 -423.435)" fill="#171612"/>
              </g>
              <g id="Grupo_137189" data-name="Grupo 137189" transform="translate(39.578 35.375)">
                <g id="Grupo_137188" data-name="Grupo 137188">
                  <g id="Grupo_137187" data-name="Grupo 137187">
                    <g id="Grupo_137186" data-name="Grupo 137186">
                      <g id="Grupo_137185" data-name="Grupo 137185">
                        <g id="Grupo_137184" data-name="Grupo 137184">
                          <g id="Grupo_137183" data-name="Grupo 137183">
                            <g id="Grupo_137182" data-name="Grupo 137182">
                              <g id="Grupo_137181" data-name="Grupo 137181">
                                <path id="Trazado_151887" data-name="Trazado 151887" d="M365.625,422.232a1.168,1.168,0,0,1,2.255.541l-.515,4.531a1.168,1.168,0,1,1-2.321-.263l.515-4.533A1.224,1.224,0,0,1,365.625,422.232Z" transform="translate(-365.037 -421.473)" fill="#171612"/>
                              </g>
                            </g>
                          </g>
                        </g>
                      </g>
                    </g>
                  </g>
                </g>
              </g>
              <g id="Grupo_137198" data-name="Grupo 137198" transform="translate(30.634 41.462)">
                <g id="Grupo_137197" data-name="Grupo 137197">
                  <g id="Grupo_137196" data-name="Grupo 137196">
                    <g id="Grupo_137195" data-name="Grupo 137195">
                      <g id="Grupo_137194" data-name="Grupo 137194">
                        <g id="Grupo_137193" data-name="Grupo 137193">
                          <g id="Grupo_137192" data-name="Grupo 137192">
                            <g id="Grupo_137191" data-name="Grupo 137191">
                              <g id="Grupo_137190" data-name="Grupo 137190">
                                <path id="Trazado_151888" data-name="Trazado 151888" d="M359.437,426.443a1.167,1.167,0,0,1,2.253.541l-.515,4.531a1.167,1.167,0,1,1-2.32-.263l.515-4.531A1.178,1.178,0,0,1,359.437,426.443Z" transform="translate(-358.849 -425.684)" fill="#171612"/>
                              </g>
                            </g>
                          </g>
                        </g>
                      </g>
                    </g>
                  </g>
                </g>
              </g>
              <g id="Grupo_137207" data-name="Grupo 137207" transform="translate(26.772 44.747)">
                <g id="Grupo_137206" data-name="Grupo 137206">
                  <g id="Grupo_137205" data-name="Grupo 137205">
                    <g id="Grupo_137204" data-name="Grupo 137204">
                      <g id="Grupo_137203" data-name="Grupo 137203">
                        <g id="Grupo_137202" data-name="Grupo 137202">
                          <g id="Grupo_137201" data-name="Grupo 137201">
                            <g id="Grupo_137200" data-name="Grupo 137200">
                              <g id="Grupo_137199" data-name="Grupo 137199">
                                <path id="Trazado_151889" data-name="Trazado 151889" d="M356.764,428.716a1.168,1.168,0,0,1,2.255.541l-.515,4.531a1.167,1.167,0,1,1-2.32-.263l.515-4.531A1.162,1.162,0,0,1,356.764,428.716Z" transform="translate(-356.177 -427.957)" fill="#171612"/>
                              </g>
                            </g>
                          </g>
                        </g>
                      </g>
                    </g>
                  </g>
                </g>
              </g>
              <g id="Grupo_137216" data-name="Grupo 137216" transform="translate(22.943 48.472)">
                <g id="Grupo_137215" data-name="Grupo 137215">
                  <g id="Grupo_137214" data-name="Grupo 137214">
                    <g id="Grupo_137213" data-name="Grupo 137213">
                      <g id="Grupo_137212" data-name="Grupo 137212">
                        <g id="Grupo_137211" data-name="Grupo 137211">
                          <g id="Grupo_137210" data-name="Grupo 137210">
                            <g id="Grupo_137209" data-name="Grupo 137209">
                              <g id="Grupo_137208" data-name="Grupo 137208">
                                <path id="Trazado_151890" data-name="Trazado 151890" d="M354.116,431.293a1.168,1.168,0,0,1,2.255.541l-.516,4.531a1.167,1.167,0,1,1-2.32-.263l.515-4.531A1.178,1.178,0,0,1,354.116,431.293Z" transform="translate(-353.528 -430.534)" fill="#171612"/>
                              </g>
                            </g>
                          </g>
                        </g>
                      </g>
                    </g>
                  </g>
                </g>
              </g>
              <g id="Grupo_137217" data-name="Grupo 137217" transform="translate(19.289 52.697)">
                <path id="Trazado_151891" data-name="Trazado 151891" d="M351.587,434.216a1.168,1.168,0,0,1,2.255.541l-.515,4.531a1.167,1.167,0,1,1-2.32-.263l.514-4.533A1.166,1.166,0,0,1,351.587,434.216Z" transform="translate(-351 -433.457)" fill="#171612"/>
              </g>
            </g>
          </g>
          <g id="Grupo_137222" data-name="Grupo 137222" transform="translate(63.197)">
            <g id="Grupo_137221" data-name="Grupo 137221">
              <g id="Grupo_137220" data-name="Grupo 137220">
                <path id="Trazado_151892" data-name="Trazado 151892" d="M474.591,357.5s22.147-14.725,36.543-6.247c26.323,15.5-12.413,53.564-58.792,74.679S390.2,446.2,390.2,446.2s-10.674-1.905-8.535-19.118c0,0,26.654-13.044,40.012-25.369S443.585,375.006,474.591,357.5Z" transform="translate(-381.378 -348.619)" fill="#c04d3a"/>
              </g>
            </g>
          </g>
          <g id="Grupo_137224" data-name="Grupo 137224" transform="translate(75.085 85.254)">
            <g id="Grupo_137223" data-name="Grupo 137223">
              <path id="Trazado_151893" data-name="Trazado 151893" d="M430.423,407.6c-2.554.84-5.151,1.682-7.831,2.526-10.375,3.267-22.222,6.685-32.951,9.32l-.038,1.535c9.687-2.362,21.058-5.565,33.428-9.458,2.415-.76,4.881-1.561,7.353-2.373Z" transform="translate(-389.603 -407.603)" fill="#7e231a"/>
            </g>
          </g>
          <g id="Grupo_137226" data-name="Grupo 137226" transform="translate(65.325 14.243)">
            <g id="Grupo_137225" data-name="Grupo 137225">
              <path id="Trazado_151894" data-name="Trazado 151894" d="M383.321,427.427c9.827-3.34,29.441-14.62,52.467-30.172,17.221-11.632,36.968-26.29,39.63-30.987,1.44-2.538,1.677-4.527.708-5.913-1.45-2.073-5.065-1.969-6.7-1.8a.732.732,0,0,0-.65.848h0a.73.73,0,0,0,.791.608c1.61-.159,4.437-.142,5.362,1.184.769,1.1,0,2.973-.782,4.352-2.148,3.788-18.624,16.613-39.177,30.5-17.7,11.953-40.684,26.112-52.12,30Z" transform="translate(-382.85 -358.473)" fill="#7e231a"/>
            </g>
          </g>
          <g id="Grupo_137229" data-name="Grupo 137229" transform="translate(60.583 75.633)">
            <g id="Grupo_137228" data-name="Grupo 137228">
              <g id="Grupo_137227" data-name="Grupo 137227">
                <path id="Trazado_151895" data-name="Trazado 151895" d="M386.016,401.189c1.948,8.766,4.989,16.614,10.569,22.335,0,0-4,3.485-8.126,1.629-3.149-1.417-10.2-14.737-8.678-22.335C382.159,401.22,384.275,400.544,386.016,401.189Z" transform="translate(-379.57 -400.947)" fill="#7e231a"/>
              </g>
            </g>
          </g>
        </g>
        <g id="Grupo_137440" data-name="Grupo 137440" transform="translate(3.481)">
          <g id="Grupo_137306" data-name="Grupo 137306" transform="translate(41.812 51.893)">
            <g id="Grupo_137231" data-name="Grupo 137231" transform="translate(67.665 33.478)">
              <path id="Trazado_151896" data-name="Trazado 151896" d="M525.444,276.576a11.638,11.638,0,0,0-16.194,2.941l-.155.22-1.207,1.746-1.263,1.8-2.571,3.593q-2.58,3.56-5.242,7.056a.255.255,0,0,1-.03.042c-.358.467-.71.931-1.078,1.4v0c-3.217,4.2-6.513,8.305-9.889,12.247-2.032,2.372-4.1,4.695-6.188,6.9-.264.279-.529.558-.8.837-1.489,1.554-2.995,3.048-4.5,4.45a57.455,57.455,0,0,1-5.667,4.71c-.438.309-.864.593-1.263.841-.74-.441-1.577-.989-2.444-1.584-.98-.679-2.006-1.429-3.04-2.221q-.7-.531-1.392-1.085c-.286-.227-.572-.452-.86-.687-3.457-2.784-6.972-5.9-10.434-9.1q-4.492-4.169-8.912-8.575c-.354-.347-.71-.7-1.059-1.052q-1.283-1.279-2.557-2.576-3.094-3.139-6.14-6.339l-3.021-3.206-1.49-1.607-1.418-1.554-.12-.132c-.26-.279-.527-.554-.808-.818A17.094,17.094,0,1,0,402.147,309.6l1.779,1.69,1.727,1.622,3.463,3.194q3.473,3.174,7,6.287c4.71,4.151,9.508,8.24,14.485,12.252,3.074,2.463,6.189,4.9,9.47,7.286.314.23.626.457.942.682,1.762,1.272,3.576,2.531,5.461,3.775,1.448.951,2.946,1.9,4.537,2.833q1.086.64,2.245,1.27c.324.178.656.354.992.528q.932.492,1.943.977c.954.449,1.922.893,3.04,1.331.022.012.049.019.071.03.291.11.558.218.867.328l.928.328c.3.105.668.215,1,.317l.517.155.354.1.487.124a20.011,20.011,0,0,0,3.774.569c.619.042,1.181.042,1.766.033.546-.017,1.123-.045,1.632-.1a24.173,24.173,0,0,0,5.4-1.184,28.934,28.934,0,0,0,3.842-1.629l.159-.08c1.169-.6,2.21-1.218,3.175-1.84a50.265,50.265,0,0,0,5.034-3.768c.992-.841,1.931-1.678,2.826-2.524.5-.467.976-.931,1.447-1.4,1.23-1.214,2.385-2.428,3.5-3.647a178.677,178.677,0,0,0,12.355-15.353c3.761-5.17,7.283-10.394,10.673-15.669q.9-1.4,1.788-2.81c.185-.286.366-.577.546-.863q1.342-2.14,2.655-4.288,1.223-2,2.425-4.024l1.2-2.032,1.223-2.109A11.681,11.681,0,0,0,525.444,276.576Zm-58,49.781c-.2.064-.3.064-.218,0l.038-.022a.322.322,0,0,1,.064-.03c.035-.012.117-.049.178-.065a3.172,3.172,0,0,1,.509-.117A4.626,4.626,0,0,1,467.446,326.358Z" transform="translate(-396.831 -274.504)" fill="#314fa5"/>
            </g>
            <g id="Grupo_137233" data-name="Grupo 137233" transform="translate(111.955 60.026)">
              <g id="Grupo_137232" data-name="Grupo 137232">
                <path id="Trazado_151897" data-name="Trazado 151897" d="M448.877,312.29a18.333,18.333,0,0,1-4.507,4.163c-4.02,2.5-8.927,2.508-12-1.432-3.19-4.1-4.3-10.138-4.744-15.179a41.264,41.264,0,0,1-.019-6.97c.35.354.705.705,1.059,1.052a39.011,39.011,0,0,0-.038,3.944c.2,5.008,1.181,10.647,3.707,15.055,1.395,2.437,3.586,4.291,6.516,4.216A11.221,11.221,0,0,0,445.751,314a21.006,21.006,0,0,0,2.266-2.4C448.3,311.838,448.591,312.064,448.877,312.29Z" transform="translate(-427.473 -292.872)" fill="#5880eb"/>
              </g>
            </g>
            <g id="Grupo_137235" data-name="Grupo 137235" transform="translate(110.905 96.53)">
              <g id="Grupo_137234" data-name="Grupo 137234">
                <path id="Trazado_151898" data-name="Trazado 151898" d="M440.923,331.589c-.335-.173-.668-.35-.992-.528.919-3.164,1.613-6.939.026-9.639-2.784-4.737-9.172-.705-12.268,1.76-.317-.226-.629-.452-.942-.682q.8-.657,1.648-1.247c3.225-2.256,8.666-5.028,11.914-1.291C442.952,323.006,441.952,327.93,440.923,331.589Z" transform="translate(-426.747 -318.128)" fill="#5880eb"/>
              </g>
            </g>
            <g id="Grupo_137237" data-name="Grupo 137237" transform="translate(151.664 52.901)">
              <g id="Grupo_137236" data-name="Grupo 137236">
                <path id="Trazado_151899" data-name="Trazado 151899" d="M473.185,299.279c-.158,4.968-1.109,11.012-5.253,14.321-3.926,3.129-8.821,1.21-11.7-2.357a14.882,14.882,0,0,1-1.286-1.867q.4-.418.8-.837a13.315,13.315,0,0,0,2.063,2.787c1.875,1.935,4.582,3.379,7.316,2.535a8.687,8.687,0,0,0,4.842-4.7c2.323-4.65,2.221-10.136,2.025-15.2-.061-1.528-.127-3.054-.169-4.579v0c.369-.468.72-.932,1.078-1.4a.253.253,0,0,0,.03-.042C472.974,291.718,473.3,295.5,473.185,299.279Z" transform="translate(-454.947 -287.943)" fill="#5880eb"/>
              </g>
            </g>
            <g id="Grupo_137239" data-name="Grupo 137239" transform="translate(161.9 62.759)">
              <g id="Grupo_137238" data-name="Grupo 137238">
                <path id="Trazado_151900" data-name="Trazado 151900" d="M492.341,295.421c-.181.286-.361.577-.546.863-3.892-2.01-9.224,2.109-12,4.726a47.042,47.042,0,0,0-8.765,11.479,78.015,78.015,0,0,0-7.558,21.273c-.471.468-.95.932-1.447,1.4,1.971-9.469,4.861-18.791,10.253-26.9A40.1,40.1,0,0,1,483.328,296.7C486.009,294.957,489.562,294.066,492.341,295.421Z" transform="translate(-462.029 -294.763)" fill="#5880eb"/>
              </g>
            </g>
            <g id="Grupo_137240" data-name="Grupo 137240" transform="translate(130.063 109.11)">
              <path id="Trazado_151901" data-name="Trazado 151901" d="M460.645,329.09a28.923,28.923,0,0,1-3.842,1.629,24.171,24.171,0,0,1-5.4,1.184c-.509.056-1.085.084-1.632.1-.585.009-1.148.009-1.766-.033a20.011,20.011,0,0,1-3.774-.569l-.487-.124-.354-.1-.517-.155c-.335-.1-.705-.211-1-.317l-.928-.328c-.309-.11-.577-.218-.867-.328-.022-.012-.049-.019-.071-.03a21.775,21.775,0,0,1,11.223-3.183A16.954,16.954,0,0,1,460.645,329.09Z" transform="translate(-440.002 -326.832)" fill="#1c2b74"/>
            </g>
            <g id="Grupo_137242" data-name="Grupo 137242" transform="translate(134.572 84.285)">
              <g id="Grupo_137241" data-name="Grupo 137241">
                <path id="Trazado_151902" data-name="Trazado 151902" d="M447.919,309.789a13.746,13.746,0,0,0-4.757,6.51c-.289.827,1.022,1.182,1.309.361a12.136,12.136,0,0,1,4.132-5.7c.687-.52.012-1.7-.685-1.172Z" transform="translate(-443.121 -309.656)" fill="#1c2b74"/>
              </g>
            </g>
            <g id="Grupo_137244" data-name="Grupo 137244" transform="translate(132.313 85.172)">
              <g id="Grupo_137243" data-name="Grupo 137243">
                <path id="Trazado_151903" data-name="Trazado 151903" d="M442.582,312.192a4.794,4.794,0,0,1,4.155-.205c.794.338,1.487-.833.685-1.174a6.268,6.268,0,0,0-5.526.205c-.772.409-.087,1.581.685,1.174Z" transform="translate(-441.559 -310.27)" fill="#1c2b74"/>
              </g>
            </g>
            <g id="Grupo_137251" data-name="Grupo 137251" transform="translate(0 29.537)">
              <g id="Grupo_137250" data-name="Grupo 137250">
                <g id="Grupo_137249" data-name="Grupo 137249">
                  <g id="Grupo_137248" data-name="Grupo 137248">
                    <g id="Grupo_137247" data-name="Grupo 137247">
                      <g id="Grupo_137246" data-name="Grupo 137246">
                        <g id="Grupo_137245" data-name="Grupo 137245">
                          <path id="Trazado_151904" data-name="Trazado 151904" d="M460.125,406.839a55.017,55.017,0,0,1-15.613,11.317q-.531.269-1.067.515a65.581,65.581,0,0,1-10.8,3.934,83.952,83.952,0,0,1-38.545.922c-.476-.1-.951-.2-1.422-.3a85.06,85.06,0,0,1-10.372-3.034,73.273,73.273,0,0,1-12.314-5.792q-.811-.473-1.6-.981a61.66,61.66,0,0,1-5.612-3.972c3.553-15.848,5.589-23.766,6.474-29.514.074-.487.143-.954.2-1.409.721-5.585.257-9.4-.989-17.748-1.107-7.4-3.879-18.083-7.626-29.105-.133-.393-.266-.786-.406-1.179-.343-1-.692-2-1.055-3-.179-.494-.358-.986-.541-1.48-1.34-3.657-2.781-7.3-4.293-10.811-6.574-15.325-7.633-32.594,8.184-37.871,10.336-3.446,19.317-5.549,19.317-5.549l36.364,3.009a90,90,0,0,1,14.811,2.6c.4.121.8.246,1.179.374,10.317,3.443,10.021,9.315,12.346,21.611,3.167,16.739,12.33,32.19,10.068,40.337-.087.295-.172.591-.269.883-.114.356-.238.705-.367,1.052-2.2,5.829-6.578,10.869-8.26,12.673-.428.46-.681.708-.681.708l.012.11c.027.272.058.561.1.86.145,1.156.343,2.524.6,4.077.374,2.271.795,4.562,1.255,6.835.1.464.191.928.292,1.39a260.95,260.95,0,0,0,9.646,34.246Q459.635,404.7,460.125,406.839Z" transform="translate(-350.016 -271.778)" fill="#314fa5"/>
                        </g>
                      </g>
                    </g>
                  </g>
                </g>
              </g>
            </g>
            <g id="Grupo_137253" data-name="Grupo 137253" transform="translate(94.848 51.816)">
              <g id="Grupo_137252" data-name="Grupo 137252">
                <path id="Trazado_151905" data-name="Trazado 151905" d="M415.648,288.257c1.058,7.428,3.608,14.431,6.54,21.3,3.2,7.5,6.542,15.467,5.158,23.8-.178,1.068,1.458,1.528,1.636.451,1.3-7.857-1.21-15.426-4.246-22.585-3.225-7.6-6.28-15.186-7.452-23.418-.153-1.077-1.788-.619-1.636.451Z" transform="translate(-415.638 -287.192)" fill="#1c2b74"/>
              </g>
            </g>
            <g id="Grupo_137268" data-name="Grupo 137268" transform="translate(10.411 33.946)">
              <g id="Grupo_137255" data-name="Grupo 137255" transform="translate(76.585 9.962)">
                <g id="Grupo_137254" data-name="Grupo 137254">
                  <path id="Trazado_151906" data-name="Trazado 151906" d="M429.731,336.165c-.113.356-.237.705-.366,1.052-6.925-2.187-12.773-7.863-15.8-14.621-5.766-12.89-2.96-27.223-.124-40.469.15-.713,1.244-.408,1.09.3-2.66,12.421-5.351,25.742-.633,38.029C416.649,327.623,422.555,333.906,429.731,336.165Z" transform="translate(-410.206 -281.721)" fill="#5880eb"/>
                </g>
              </g>
              <g id="Grupo_137257" data-name="Grupo 137257" transform="translate(0 50.7)">
                <g id="Grupo_137256" data-name="Grupo 137256">
                  <path id="Trazado_151907" data-name="Trazado 151907" d="M390.241,330.877c-2.2,13.5-12.5,25.587-24.2,32.074.077-.487.145-.954.2-1.411a49.011,49.011,0,0,0,15.017-13.433c7.059-9.632,13.448-26.048.72-33.953-7.935-4.932-16.623-3.379-24.354.532-.133-.392-.264-.783-.4-1.177a32.634,32.634,0,0,1,10.684-3.42,22.222,22.222,0,0,1,16.416,4.333C389.433,318.449,391.266,324.544,390.241,330.877Z" transform="translate(-357.219 -309.906)" fill="#5880eb"/>
                </g>
              </g>
              <g id="Grupo_137259" data-name="Grupo 137259" transform="translate(77.653 90.723)">
                <g id="Grupo_137258" data-name="Grupo 137258">
                  <path id="Trazado_151908" data-name="Trazado 151908" d="M420.824,340.943a45,45,0,0,0-7,38.973,46.107,46.107,0,0,0,3.548,8.927q-.531.269-1.067.515a47.546,47.546,0,0,1-4.378-31.515A46.054,46.054,0,0,1,422.059,337.6c.1.464.191.928.292,1.39C421.82,339.626,421.314,340.274,420.824,340.943Z" transform="translate(-410.944 -337.597)" fill="#5880eb"/>
                </g>
              </g>
              <g id="Grupo_137261" data-name="Grupo 137261" transform="translate(10.636 126.935)">
                <g id="Grupo_137260" data-name="Grupo 137260">
                  <path id="Trazado_151909" data-name="Trazado 151909" d="M387.616,383.055c-.476-.1-.951-.2-1.422-.3a40.584,40.584,0,0,0-21.237-18.97c-.671-.262-.379-1.351.3-1.091a41.766,41.766,0,0,1,22.1,19.859C387.448,382.717,387.529,382.883,387.616,383.055Z" transform="translate(-364.577 -362.65)" fill="#5880eb"/>
                </g>
              </g>
              <g id="Grupo_137263" data-name="Grupo 137263" transform="translate(34.824 89.692)">
                <g id="Grupo_137262" data-name="Grupo 137262">
                  <path id="Trazado_151910" data-name="Trazado 151910" d="M400.5,338.049c-6.394,3.959-11.966,9.106-15.51,15.811-2.805,5.307-6.195,14.059-.877,18.95,6.036,5.553,14.562.807,19.5-3.741,5.618-5.172,10.746-13.062,10.625-20.961-.056-3.615-1.548-7.522-4.515-9.747-2.824-2.119-6.177-1.719-9.224-.312-.661.3-.087,1.281.571.977,3.055-1.411,6.36-1.522,8.853,1.006a12.075,12.075,0,0,1,3.164,9.049c-.327,6.883-4.6,13.644-9.4,18.358-4.58,4.5-13.1,10.048-18.973,4.375-4.752-4.589-1.12-13.046,1.493-17.829,3.46-6.336,8.775-11.19,14.864-14.96.617-.383.051-1.362-.571-.977Z" transform="translate(-381.313 -336.883)" fill="#5880eb"/>
                </g>
              </g>
              <g id="Grupo_137265" data-name="Grupo 137265" transform="translate(10.195)">
                <g id="Grupo_137264" data-name="Grupo 137264">
                  <path id="Trazado_151911" data-name="Trazado 151911" d="M425.755,301.074c-7.03,12.8-22.8,10.235-33.632,4.3a65.975,65.975,0,0,1-27.79-29.683c-.309-.652.668-1.229.977-.57a65,65,0,0,0,12.283,17.774c8.418,8.636,21.013,17.33,33.663,16.334,6.961-.548,12.339-5.005,14.783-11.46,2.632-6.959,1.742-14.535.825-21.734.408.12.8.244,1.181.373C429.085,284.665,429.914,293.493,425.755,301.074Z" transform="translate(-364.273 -274.828)" fill="#5880eb"/>
                </g>
              </g>
              <g id="Grupo_137267" data-name="Grupo 137267" transform="translate(43.451 47.169)">
                <g id="Grupo_137266" data-name="Grupo 137266">
                  <path id="Trazado_151912" data-name="Trazado 151912" d="M400.234,307.492c-4.914.935-11.7,4.271-12.825,9.729-1.061,5.135,4.7,7.285,8.827,7.038,4.881-.293,10.73-3.361,12.177-8.38,1.4-4.875-3.547-8.611-8.029-8.406-.726.032-.73,1.163,0,1.13,4.543-.207,8.838,3.891,6.3,8.444-2.119,3.8-6.79,6.029-11.031,6.1-4.437.078-9.349-3.045-6.18-7.893,2.407-3.684,6.854-5.873,11.061-6.675.714-.136.412-1.226-.3-1.09Z" transform="translate(-387.281 -307.463)" fill="#5880eb"/>
                </g>
              </g>
            </g>
            <g id="Grupo_137270" data-name="Grupo 137270" transform="translate(10.426 56.852)">
              <g id="Grupo_137269" data-name="Grupo 137269">
                <path id="Trazado_151913" data-name="Trazado 151913" d="M374.683,370.159c-3.183,11.835-5.807,23.721-7.9,35.822q-.811-.473-1.6-.981c2.08-11.917,4.677-23.632,7.817-35.3,4.444-16.516-15.516-77.26-15.718-77.876a.875.875,0,1,1,1.662-.549C359.766,293.8,379.262,353.136,374.683,370.159Z" transform="translate(-357.229 -290.676)" fill="#1c2b74"/>
              </g>
            </g>
            <g id="Grupo_137276" data-name="Grupo 137276" transform="translate(32.757 154.791)">
              <g id="Grupo_137275" data-name="Grupo 137275">
                <g id="Grupo_137274" data-name="Grupo 137274">
                  <g id="Grupo_137273" data-name="Grupo 137273">
                    <g id="Grupo_137272" data-name="Grupo 137272">
                      <g id="Grupo_137271" data-name="Grupo 137271">
                        <path id="Trazado_151914" data-name="Trazado 151914" d="M423.175,370.354a74.879,74.879,0,0,1-24.7,3.219,114.062,114.062,0,0,1-25.136-3.417.895.895,0,1,1,.48-1.724,112.3,112.3,0,0,0,24.736,3.352c12.449.263,29.656-1.792,40.933-13.085a.9.9,0,0,1,1.268,1.266A43.464,43.464,0,0,1,423.175,370.354Z" transform="translate(-372.679 -358.437)" fill="#1c2b74"/>
                      </g>
                    </g>
                  </g>
                </g>
              </g>
            </g>
            <g id="Grupo_137283" data-name="Grupo 137283" transform="translate(48.953 111.263)">
              <g id="Grupo_137282" data-name="Grupo 137282">
                <g id="Grupo_137281" data-name="Grupo 137281">
                  <g id="Grupo_137280" data-name="Grupo 137280">
                    <g id="Grupo_137279" data-name="Grupo 137279">
                      <g id="Grupo_137278" data-name="Grupo 137278">
                        <g id="Grupo_137277" data-name="Grupo 137277">
                          <path id="Trazado_151915" data-name="Trazado 151915" d="M432.157,329.956c.028.272.062.558.1.861a47.947,47.947,0,0,1-19.411-.218,44.163,44.163,0,0,0-27.815,4.125.746.746,0,0,1-.379.1.764.764,0,0,1-.383-1.428,44.957,44.957,0,0,1,28.871-4.3c8.017,1.562,14.7,1.318,19.687.042-.428.46-.682.708-.682.708Z" transform="translate(-383.884 -328.321)" fill="#1c2b74"/>
                        </g>
                      </g>
                    </g>
                  </g>
                </g>
              </g>
            </g>
            <g id="Grupo_137289" data-name="Grupo 137289" transform="translate(39.802 41.704)">
              <g id="Grupo_137288" data-name="Grupo 137288">
                <g id="Grupo_137287" data-name="Grupo 137287">
                  <g id="Grupo_137286" data-name="Grupo 137286">
                    <g id="Grupo_137285" data-name="Grupo 137285">
                      <g id="Grupo_137284" data-name="Grupo 137284">
                        <path id="Trazado_151916" data-name="Trazado 151916" d="M407.046,295.517c-9.328,0-28.362-13.359-29.167-13.929a.766.766,0,1,1,.883-1.252c.194.137,19.44,13.649,28.284,13.649,8.461,0,10.337-9.243,10.355-9.337a.766.766,0,0,1,1.5.289C418.885,285.042,416.758,295.517,407.046,295.517Z" transform="translate(-377.553 -280.196)" fill="#1c2b74"/>
                      </g>
                    </g>
                  </g>
                </g>
              </g>
            </g>
            <g id="Grupo_137305" data-name="Grupo 137305" transform="translate(180.325)">
              <g id="Grupo_137290" data-name="Grupo 137290">
                <path id="Trazado_151917" data-name="Trazado 151917" d="M503.781,288.006s-5.088,12.411-12.017,13.724c-5.833,1.106-13.7-9.278-13.7-9.278-2.949-4.992-3.093-7.671-3.284-12.868s8.5-9.016,8.5-9.016,9.834-18.287,13.222-19.193-3.869,17.256-3.869,17.256a3.327,3.327,0,0,1,3.189-.105c2.554,1.133,8.113,6.066,10.207,9.71C507.9,281.5,503.781,288.006,503.781,288.006Z" transform="translate(-474.777 -251.342)" fill="#eaad8f"/>
              </g>
              <g id="Grupo_137292" data-name="Grupo 137292" transform="translate(1.688 20.155)">
                <g id="Grupo_137291" data-name="Grupo 137291">
                  <path id="Trazado_151918" data-name="Trazado 151918" d="M476.65,276.13c3.981-.847,9.041-1.541,12.2-4.352,1.168-1.039,2.315-2.856,1.5-4.43-.794-1.525-2.947-1.726-4.42-2.047-.708-.155-1.01.932-.3,1.087,1.519.331,3.92.445,3.694,2.467-.207,1.86-2.23,2.923-3.777,3.611a46.233,46.233,0,0,1-9.193,2.577c-.71.15-.409,1.239.3,1.087Z" transform="translate(-475.945 -265.287)" fill="#b4665e"/>
                </g>
              </g>
              <g id="Grupo_137294" data-name="Grupo 137294" transform="translate(14.882 24.558)">
                <g id="Grupo_137293" data-name="Grupo 137293">
                  <path id="Trazado_151919" data-name="Trazado 151919" d="M485.186,269.139a32.283,32.283,0,0,0,13.188,10.18c.668.282.96-.809.3-1.087a30.868,30.868,0,0,1-12.514-9.662c-.436-.568-1.418-.007-.974.57Z" transform="translate(-485.073 -268.333)" fill="#b4665e"/>
                </g>
              </g>
              <g id="Grupo_137296" data-name="Grupo 137296" transform="translate(12.466 31.769)">
                <g id="Grupo_137295" data-name="Grupo 137295">
                  <path id="Trazado_151920" data-name="Trazado 151920" d="M488.623,273.458a13.66,13.66,0,0,0-5.146,12.32c.071.716,1.2.723,1.129,0a12.648,12.648,0,0,1,4.815-11.522c.564-.458-.239-1.252-.8-.8Z" transform="translate(-483.401 -273.322)" fill="#b4665e"/>
                </g>
              </g>
              <g id="Grupo_137298" data-name="Grupo 137298" transform="translate(16.892 18.574)">
                <g id="Grupo_137297" data-name="Grupo 137297">
                  <path id="Trazado_151921" data-name="Trazado 151921" d="M487.509,272.79c1.467-2.764,3.038-5.617,5.463-7.659.556-.468-.246-1.262-.8-.8-2.495,2.1-4.131,5.046-5.64,7.887-.34.642.635,1.213.974.569Z" transform="translate(-486.464 -264.193)" fill="#b4665e"/>
                </g>
              </g>
              <g id="Grupo_137300" data-name="Grupo 137300" transform="translate(20.522 22.171)">
                <g id="Grupo_137299" data-name="Grupo 137299">
                  <path id="Trazado_151922" data-name="Trazado 151922" d="M490.008,275.564a30.847,30.847,0,0,1,5.524-7.912c.5-.526-.3-1.325-.8-.8a31.77,31.77,0,0,0-5.7,8.14c-.311.652.661,1.226.973.569Z" transform="translate(-488.975 -266.681)" fill="#b4665e"/>
                </g>
              </g>
              <g id="Grupo_137302" data-name="Grupo 137302" transform="translate(25.466 26.548)">
                <g id="Grupo_137301" data-name="Grupo 137301">
                  <path id="Trazado_151923" data-name="Trazado 151923" d="M492.611,276.062l-.159.244.974.569a16.378,16.378,0,0,1,4.431-6.222c.549-.477-.251-1.272-.8-.8a17,17,0,0,0-4.608,6.451.565.565,0,0,0,.974.569l.159-.244c.4-.61-.58-1.177-.974-.569Z" transform="translate(-492.396 -269.71)" fill="#b4665e"/>
                </g>
              </g>
              <g id="Grupo_137304" data-name="Grupo 137304" transform="translate(14.725 17.284)">
                <g id="Grupo_137303" data-name="Grupo 137303">
                  <path id="Trazado_151924" data-name="Trazado 151924" d="M487.125,263.551a14.2,14.2,0,0,0-2.138,4.39.564.564,0,0,0,1.087.3,13.291,13.291,0,0,1,2.025-4.121c.416-.6-.561-1.162-.974-.569Z" transform="translate(-484.964 -263.3)" fill="#b4665e"/>
                </g>
              </g>
            </g>
          </g>
          <g id="Grupo_137346" data-name="Grupo 137346" transform="translate(0 89.015)">
            <g id="Grupo_137311" data-name="Grupo 137311">
              <g id="Grupo_137310" data-name="Grupo 137310">
                <g id="Grupo_137309" data-name="Grupo 137309">
                  <g id="Grupo_137308" data-name="Grupo 137308">
                    <g id="Grupo_137307" data-name="Grupo 137307">
                      <path id="Trazado_151925" data-name="Trazado 151925" d="M385.111,279.74a15.488,15.488,0,0,0-21.081,3.4c-.493.653-.942,1.243-1.4,1.867l-1.36,1.84c-.9,1.229-1.786,2.463-2.677,3.7a.217.217,0,0,1-.023.03c-.247.344-.5.691-.74,1.038-.04.055-.077.108-.113.162-1.477,2.064-2.912,4.147-4.362,6.231-1.74,2.493-3.423,5.025-5.118,7.559l-2.526,3.816-2.489,3.85-.049.08q-.373.577-.736,1.152-2.805,4.406-5.527,8.925c-.188.3-.374.616-.558.925q-1.4,2.346-2.782,4.728c-1.557,2.714-3.1,5.465-4.6,8.328-.749,1.434-1.5,2.894-2.229,4.4-.208.425-.412.853-.62,1.285-.143.3-.283.6-.426.909-.382.822-.76,1.669-1.135,2.55-.354.838-.711,1.706-1.067,2.635s-.707,1.911-1.057,3.038c-.142.473-.29.963-.429,1.5-.207.75-.4,1.591-.581,2.6a23.091,23.091,0,0,0-.335,3.279l0,.253v.293l.012.581c.006.231.014.3.02.435l.029.357.061.717.04.357.045.319c.058.416.124.837.2,1.256.074.383.155.752.237,1.126s.178.705.267,1.044l.137.5.074.251.071.23.3.916c.1.311.205.568.309.853.205.58.418,1.093.633,1.607a48.324,48.324,0,0,0,2.7,5.4c.166.289.334.578.5.863,1.336,2.268,2.709,4.329,4.1,6.292l.6.834c.179.243.354.487.532.728,1.844,2.513,3.741,4.893,5.656,7.2.116.145.236.288.355.432.149.176.3.35.444.526,3.95,4.677,8.029,9.065,12.219,13.323.743.756,1.492,1.5,2.25,2.247q.451.451.918.9c1.137,1.122,2.292,2.23,3.444,3.332q1.689,1.585,3.394,3.152c.572.52,1.15,1.032,1.729,1.548l.88.781.912.8a10.328,10.328,0,0,0,15.091-13.923l-.146-.191-5.176-7q-.7-.932-1.385-1.869c-.215-.292-.429-.584-.645-.873-1.054-1.438-2.1-2.882-3.139-4.317-3.008-4.157-5.958-8.327-8.736-12.485-.217-.325-.434-.655-.652-.983l-.442-.672q-1.038-1.559-2.019-3.118c-.211-.334-.418-.666-.624-1q-.9-1.448-1.752-2.879c-.682-1.151-1.324-2.3-1.922-3.414s-1.149-2.2-1.617-3.233c-.335-.753-.639-1.483-.867-2.112.1-.22.213-.47.337-.734.217-.455.464-.955.731-1.473.538-1.042,1.139-2.172,1.788-3.313s1.334-2.318,2.045-3.5c.659-1.1,1.338-2.209,2.029-3.319.208-.334.419-.671.629-1q.889-1.42,1.807-2.842c1.541-2.409,3.128-4.826,4.735-7.24s3.24-4.833,4.875-7.256l3.219-4.722.627-.924,1.109-1.625,5.011-7.266,5.025-7.27,4.972-7.227.013-.019a15.449,15.449,0,0,0-3.969-21.493Zm-35.284,80.023.006.077.007.156.006.088a2.166,2.166,0,0,1-.065-.252,1.987,1.987,0,0,1-.051-.205,1.572,1.572,0,0,0-.026-.159l-.007-.04,0-.022v-.04c.006-.026,0-.066.012-.045.012.006.016.006.02.02a.605.605,0,0,1,.048.15l.006.04.016.075C349.812,359.657,349.819,359.712,349.827,359.763Z" transform="translate(-321.087 -277.026)" fill="#314fa5"/>
                    </g>
                  </g>
                </g>
              </g>
            </g>
            <g id="Grupo_137313" data-name="Grupo 137313" transform="translate(21.354 13.552)">
              <g id="Grupo_137312" data-name="Grupo 137312">
                <path id="Trazado_151926" data-name="Trazado 151926" d="M351.348,297.645c-2.3,6.206-8.565,12.429-15.487,12.644q.364-.577.736-1.152c6.215-.621,11.712-6.354,13.769-11.979a18.186,18.186,0,0,0,.776-9.557c.036-.053.072-.107.113-.162.243-.347.493-.694.74-1.038A19.451,19.451,0,0,1,351.348,297.645Z" transform="translate(-335.861 -286.402)" fill="#5880eb"/>
              </g>
            </g>
            <g id="Grupo_137315" data-name="Grupo 137315" transform="translate(32.419 45.02)">
              <g id="Grupo_137314" data-name="Grupo 137314">
                <path id="Trazado_151927" data-name="Trazado 151927" d="M362.96,310.767l-.627.924a9.563,9.563,0,0,0-8.912-2.089c-4.132,1.135-7.1,4.94-8.192,8.956-1.46,5.364-.051,10.483,2.469,15.192-.21.334-.421.671-.629,1-3.285-5.962-5.036-12.55-1.932-19.073,1.792-3.767,5.228-6.889,9.476-7.423A10.652,10.652,0,0,1,362.96,310.767Z" transform="translate(-343.516 -308.174)" fill="#5880eb"/>
              </g>
            </g>
            <g id="Grupo_137317" data-name="Grupo 137317" transform="translate(9.742 95.573)">
              <g id="Grupo_137316" data-name="Grupo 137316">
                <path id="Trazado_151928" data-name="Trazado 151928" d="M353.909,344.15c-.918.288-1.833.551-2.732.789-7.525,2-17.052,3.92-22.753,9.674l-.6-.834c4.644-4.569,11.543-6.936,17.792-8.545,2.409-.622,5.037-1.279,7.665-2.084C353.491,343.484,353.7,343.816,353.909,344.15Z" transform="translate(-327.827 -343.15)" fill="#5880eb"/>
              </g>
            </g>
            <g id="Grupo_137319" data-name="Grupo 137319" transform="translate(35.797 100.363)">
              <g id="Grupo_137318" data-name="Grupo 137318">
                <path id="Trazado_151929" data-name="Trazado 151929" d="M361.513,365.122a13.854,13.854,0,0,1-2.719,1.5c-3.518,1.432-7.319.924-9.684-2.227-3.437-4.57-4.838-13.465-.769-17.927.218.328.435.658.652.983-3.671,4.34-2.115,12.952,1.513,16.9,2.865,3.123,7.253,2.022,10.362-.1C361.084,364.538,361.3,364.83,361.513,365.122Z" transform="translate(-345.854 -346.464)" fill="#5880eb"/>
              </g>
            </g>
            <g id="Grupo_137321" data-name="Grupo 137321" transform="translate(16.526 114.661)">
              <g id="Grupo_137320" data-name="Grupo 137320">
                <path id="Trazado_151930" data-name="Trazado 151930" d="M348.708,374.092q-.466-.451-.918-.9a13.236,13.236,0,0,0-5.724-13.783,12.45,12.45,0,0,0-8.746-1.788c-.147-.176-.295-.35-.444-.526-.12-.145-.24-.288-.356-.432a13.5,13.5,0,0,1,10.154,1.831A14.394,14.394,0,0,1,348.708,374.092Z" transform="translate(-332.521 -356.356)" fill="#5880eb"/>
              </g>
            </g>
            <g id="Grupo_137323" data-name="Grupo 137323" transform="translate(4.609 46.364)">
              <g id="Grupo_137322" data-name="Grupo 137322">
                <path id="Trazado_151931" data-name="Trazado 151931" d="M337.651,323.332a11.655,11.655,0,0,1-13.375,6.347c.143-.306.283-.61.426-.909a10.2,10.2,0,0,0,4.384.087,10.874,10.874,0,0,0,8.23-7.848c1.055-4.145-.14-7.8-2.381-10.979.184-.309.37-.62.558-.925C338.576,313.245,340.116,318.07,337.651,323.332Z" transform="translate(-324.276 -309.104)" fill="#5880eb"/>
              </g>
            </g>
            <g id="Grupo_137325" data-name="Grupo 137325" transform="translate(55.265 16.819)">
              <g id="Grupo_137324" data-name="Grupo 137324">
                <path id="Trazado_151932" data-name="Trazado 151932" d="M360.079,314.188a.71.71,0,0,0,.533-.3c4.641-6.759,17.47-23.918,17.6-24.09a.707.707,0,1,0-1.133-.847c-.129.172-12.976,17.355-17.632,24.136a.707.707,0,0,0,.632,1.106Z" transform="translate(-359.323 -288.662)" fill="#1c2b74"/>
              </g>
            </g>
            <g id="Grupo_137328" data-name="Grupo 137328" transform="translate(0 76.662)">
              <g id="Grupo_137327" data-name="Grupo 137327">
                <g id="Grupo_137326" data-name="Grupo 137326">
                  <path id="Trazado_151933" data-name="Trazado 151933" d="M321.1,337.079c.006.23.016.3.022.432l.027.357.064.717.038.357.045.319c.059.419.127.838.2,1.257.077.382.157.752.241,1.124s.175.708.267,1.046l.139.5.072.25.071.23.3.915c.1.312.2.569.308.856.207.577.421,1.09.635,1.607a48.813,48.813,0,0,0,2.7,5.4q.251.436.5.863c.705-11.322-1.9-18.689-4.716-23.249-.205.75-.4,1.593-.581,2.6a22.727,22.727,0,0,0-.334,3.279l-.006.256v.292Z" transform="translate(-321.087 -330.066)" fill="#1c2b74"/>
                </g>
              </g>
            </g>
            <g id="Grupo_137333" data-name="Grupo 137333" transform="translate(18.647 79.111)">
              <g id="Grupo_137332" data-name="Grupo 137332">
                <g id="Grupo_137331" data-name="Grupo 137331">
                  <g id="Grupo_137330" data-name="Grupo 137330">
                    <g id="Grupo_137329" data-name="Grupo 137329">
                      <path id="Trazado_151934" data-name="Trazado 151934" d="M343.951,336.582a.605.605,0,0,0,.33-1.1,22.449,22.449,0,0,0-9.632-3.72.605.605,0,1,0-.108,1.205,21.609,21.609,0,0,1,9.039,3.5A.607.607,0,0,0,343.951,336.582Z" transform="translate(-333.988 -331.76)" fill="#1c2b74"/>
                    </g>
                  </g>
                </g>
              </g>
            </g>
            <g id="Grupo_137338" data-name="Grupo 137338" transform="translate(24.049 77.712)">
              <g id="Grupo_137337" data-name="Grupo 137337">
                <g id="Grupo_137336" data-name="Grupo 137336">
                  <g id="Grupo_137335" data-name="Grupo 137335">
                    <g id="Grupo_137334" data-name="Grupo 137334">
                      <path id="Trazado_151935" data-name="Trazado 151935" d="M341.626,336.485a.637.637,0,0,0,.2-.04.6.6,0,0,0,.347-.782,14.687,14.687,0,0,0-3.433-4.715.6.6,0,0,0-.811.9,13.739,13.739,0,0,1,3.115,4.252A.6.6,0,0,0,341.626,336.485Z" transform="translate(-337.726 -330.792)" fill="#1c2b74"/>
                    </g>
                  </g>
                </g>
              </g>
            </g>
            <g id="Grupo_137345" data-name="Grupo 137345" transform="translate(40.836 125.053)">
              <g id="Grupo_137344" data-name="Grupo 137344">
                <g id="Grupo_137343" data-name="Grupo 137343">
                  <g id="Grupo_137342" data-name="Grupo 137342">
                    <g id="Grupo_137341" data-name="Grupo 137341">
                      <g id="Grupo_137340" data-name="Grupo 137340">
                        <g id="Grupo_137339" data-name="Grupo 137339">
                          <path id="Trazado_151936" data-name="Trazado 151936" d="M365.745,363.547a52.535,52.535,0,0,1,8,.522c3.21.583,4.153,1.749,4.153,1.749l.345,5.929a23.712,23.712,0,0,1,7.513.928c3.814,1.164,6.532,4.326,8.262,5.576s-1.312,3.058-4.466,1.859a25.5,25.5,0,0,0-7.143-1.691,23.764,23.764,0,0,1,6.108,2.846c2.191,1.665,7.023,4.554,6.556,6.475s-5.027-.4-8.269-1.429-4.6-1.982-7.423-2.236a18.383,18.383,0,0,1,4.514,2.914c1.416,1.493,4.233,4.112,4.9,5.556s-3.083,1.828-6.055-.046-4.194-4.215-6.377-4.063a42.489,42.489,0,0,1,3.05,3.559c1.124,1.552,2.337,6.228.674,6.727s-5.559-5.047-8.308-5.952a139.622,139.622,0,0,1-14.328-5.807,15.916,15.916,0,0,1-7.808-8.054,3.587,3.587,0,0,1,.059-3.015A23.092,23.092,0,0,1,365.745,363.547Z" transform="translate(-349.34 -363.546)" fill="#eaad8f"/>
                        </g>
                      </g>
                    </g>
                  </g>
                </g>
              </g>
            </g>
          </g>
          <g id="Grupo_137348" data-name="Grupo 137348" transform="translate(47.454)">
            <g id="Grupo_137347" data-name="Grupo 137347">
              <path id="Trazado_151937" data-name="Trazado 151937" d="M398.471,223.043s-20.51-4.624-28.482,8.464S371.3,265.07,371.3,265.07s-.74,5.326-11.444,9.654-5.728,21.487,5.315,19.077c0,0,3.93,15.75,15.773,6.868s29.76-6.377,29.76-6.377,6.682,5.693,14.425,1.821,2.278-9.794,2.278-9.794,8.027,3.612,12.763-4.09c5.026-8.175-8.406-14.284-9.574-18.457-4.238-15.147,1.69-11.932,7.546-20.3,7.15-10.216-6.446-18.681-12.406-11.092,0,0,8.928-8.935-1.337-15.324C415.02,211.221,398.471,223.043,398.471,223.043Z" transform="translate(-353.919 -215.439)" fill="#171612"/>
            </g>
          </g>
          <g id="Grupo_137437" data-name="Grupo 137437" transform="translate(69.331 13.454)">
            <g id="Grupo_137436" data-name="Grupo 137436">
              <g id="Grupo_137435" data-name="Grupo 137435">
                <g id="Grupo_137351" data-name="Grupo 137351" transform="translate(44.571 25.833)">
                  <g id="Grupo_137350" data-name="Grupo 137350">
                    <g id="Grupo_137349" data-name="Grupo 137349">
                      <path id="Trazado_151938" data-name="Trazado 151938" d="M401.756,242.621s2.9-.045,3.83,3.564-.283,9.917-4.072,9.549S401.756,242.621,401.756,242.621Z" transform="translate(-399.892 -242.621)" fill="#c6695d"/>
                    </g>
                  </g>
                </g>
                <g id="Grupo_137353" data-name="Grupo 137353" transform="translate(38.488 36.017)">
                  <g id="Grupo_137352" data-name="Grupo 137352">
                    <path id="Trazado_151939" data-name="Trazado 151939" d="M395.684,257.726a8.06,8.06,0,1,1,8.061,8.059A8.068,8.068,0,0,1,395.684,257.726Zm1.46,0a6.6,6.6,0,1,0,6.6-6.6A6.608,6.608,0,0,0,397.144,257.726Z" transform="translate(-395.684 -249.667)" fill="#fff"/>
                  </g>
                </g>
                <g id="Grupo_137358" data-name="Grupo 137358" transform="translate(9.879 43.068)">
                  <g id="Grupo_137355" data-name="Grupo 137355" transform="translate(29.339 12.281)">
                    <g id="Grupo_137354" data-name="Grupo 137354">
                      <line id="Línea_220" data-name="Línea 220" y2="0.003" fill="#eaad8f"/>
                    </g>
                  </g>
                  <g id="Grupo_137357" data-name="Grupo 137357">
                    <g id="Grupo_137356" data-name="Grupo 137356">
                      <path id="Trazado_151940" data-name="Trazado 151940" d="M375.89,280.111s5.978,8.932,16.87,9.388c13.838.578,14.795-5.459,14.795-5.459a26.015,26.015,0,0,1-1.661-5.539q-.206-1.108-.341-2.292a62.7,62.7,0,0,1-.341-7.287q0-.969.017-2.009v-.081c-9.672-1.276-17.829-4.679-23.827-11.109l-1.5-.7-1.012-.475-.12.569.358,1.736C380.84,265.015,379.675,272.04,375.89,280.111Z" transform="translate(-375.89 -254.545)" fill="#eaad8f"/>
                    </g>
                  </g>
                </g>
                <g id="Grupo_137361" data-name="Grupo 137361" transform="translate(22.675 50.838)">
                  <g id="Grupo_137360" data-name="Grupo 137360">
                    <g id="Grupo_137359" data-name="Grupo 137359">
                      <path id="Trazado_151941" data-name="Trazado 151941" d="M384.743,259.921c2.454,4.3,7.895,11.806,16.867,13.893a62.7,62.7,0,0,1-.341-7.287q0-.969.017-2.009c-.184.042-.374.077-.564.108C395.612,265.49,389.751,263.406,384.743,259.921Z" transform="translate(-384.743 -259.921)" fill="#171612"/>
                    </g>
                  </g>
                </g>
                <g id="Grupo_137362" data-name="Grupo 137362" transform="translate(8.368 57.78)">
                  <path id="Trazado_151942" data-name="Trazado 151942" d="M374.845,276.648s1.263-11.7,3.186-11.92,8.7,7.447,17.451,6.946,10.642-6.709,12.539-4.167,2.472,11.22,2.472,11.22-1.2,7.754-11.05,8.359S376.59,279.989,374.845,276.648Z" transform="translate(-374.845 -264.724)" fill="#314fa5"/>
                </g>
                <g id="Grupo_137364" data-name="Grupo 137364" transform="translate(10.357 59.296)">
                  <g id="Grupo_137363" data-name="Grupo 137363">
                    <path id="Trazado_151943" data-name="Trazado 151943" d="M379.142,266.132c-2.3,3.885-2.905,8.476-2.921,12.922a.748.748,0,0,0,1.494,0c.016-4.187.549-8.5,2.717-12.167a.748.748,0,0,0-1.291-.754Z" transform="translate(-376.221 -265.772)" fill="#5880eb"/>
                  </g>
                </g>
                <g id="Grupo_137366" data-name="Grupo 137366" transform="translate(15.308 61.882)">
                  <g id="Grupo_137365" data-name="Grupo 137365">
                    <path id="Trazado_151944" data-name="Trazado 151944" d="M381.979,268.056a34.084,34.084,0,0,0-2.331,13.534.748.748,0,0,0,1.5,0,33.026,33.026,0,0,1,2.278-13.137c.369-.887-1.077-1.275-1.443-.4Z" transform="translate(-379.646 -267.562)" fill="#5880eb"/>
                  </g>
                </g>
                <g id="Grupo_137368" data-name="Grupo 137368" transform="translate(21.653 63.979)">
                  <g id="Grupo_137367" data-name="Grupo 137367">
                    <path id="Trazado_151945" data-name="Trazado 151945" d="M385.322,269.554a83.865,83.865,0,0,0-1.286,13.7.748.748,0,0,0,1.495,0,81.59,81.59,0,0,1,1.234-13.3c.166-.941-1.275-1.346-1.442-.4Z" transform="translate(-384.036 -269.013)" fill="#5880eb"/>
                  </g>
                </g>
                <g id="Grupo_137370" data-name="Grupo 137370" transform="translate(28.085 64.916)">
                  <g id="Grupo_137369" data-name="Grupo 137369">
                    <path id="Trazado_151946" data-name="Trazado 151946" d="M388.486,270.384q.024,7.27.051,14.539a.748.748,0,0,0,1.5,0q-.026-7.27-.052-14.539a.748.748,0,0,0-1.494,0Z" transform="translate(-388.486 -269.661)" fill="#5880eb"/>
                  </g>
                </g>
                <g id="Grupo_137371" data-name="Grupo 137371" transform="translate(7.778 70.092)">
                  <path id="Trazado_151947" data-name="Trazado 151947" d="M396.288,284.733c-.306,0-.62-.006-.938-.019-10.765-.431-20.291-9.788-20.692-10.187a.752.752,0,1,1,1.061-1.067c.094.094,9.518,9.344,19.692,9.752,11.18.439,14.27-7.561,14.4-7.9a.753.753,0,0,1,1.414.517C411.186,275.919,407.837,284.733,396.288,284.733Z" transform="translate(-374.436 -273.242)" fill="#5880eb"/>
                </g>
                <g id="Grupo_137373" data-name="Grupo 137373" transform="translate(33.7 63.674)">
                  <g id="Grupo_137372" data-name="Grupo 137372">
                    <path id="Trazado_151948" data-name="Trazado 151948" d="M392.406,269.724a49.5,49.5,0,0,1,2.028,14.033.748.748,0,0,0,1.5,0,50.915,50.915,0,0,0-2.083-14.43.748.748,0,0,0-1.441.4Z" transform="translate(-392.371 -268.802)" fill="#5880eb"/>
                  </g>
                </g>
                <g id="Grupo_137375" data-name="Grupo 137375" transform="translate(38.365 61.035)">
                  <g id="Grupo_137374" data-name="Grupo 137374">
                    <path id="Trazado_151949" data-name="Trazado 151949" d="M395.656,267.872a35.62,35.62,0,0,1,2.59,13.183.748.748,0,0,0,1.494,0,36.743,36.743,0,0,0-2.642-13.581c-.354-.882-1.8-.5-1.442.4Z" transform="translate(-395.599 -266.976)" fill="#5880eb"/>
                  </g>
                </g>
                <g id="Grupo_137378" data-name="Grupo 137378">
                  <g id="Grupo_137377" data-name="Grupo 137377">
                    <g id="Grupo_137376" data-name="Grupo 137376">
                      <path id="Trazado_151950" data-name="Trazado 151950" d="M369.062,255.378c.2,5.151,4.8,11.293,11.546,11.22h.182c.12.292.256.578.4.87.062.124.126.253.191.379a.209.209,0,0,0,.02.035c4.533,8.59,17.2,13.26,23.951,13.185a15.36,15.36,0,0,0,4.524-.765c7.089-1.827,8.056-11.538,6.652-18.879a28.123,28.123,0,0,0-.753-3.012l-.061-.192s2-10.42,2.388-14.947c.747-8.775-4.6-17.454-23.821-18.464s-23.353,11.053-24.456,17.411c-.188,1.059.266,7.311,1.351,8.28C369.395,251.493,368.994,253.648,369.062,255.378Z" transform="translate(-369.055 -224.748)" fill="#eaad8f"/>
                    </g>
                  </g>
                </g>
                <g id="Grupo_137390" data-name="Grupo 137390" transform="translate(27.399 26.079)">
                  <g id="Grupo_137383" data-name="Grupo 137383" transform="translate(2.57 0.911)">
                    <g id="Grupo_137382" data-name="Grupo 137382">
                      <g id="Grupo_137381" data-name="Grupo 137381">
                        <g id="Grupo_137380" data-name="Grupo 137380">
                          <g id="Grupo_137379" data-name="Grupo 137379">
                            <path id="Trazado_151951" data-name="Trazado 151951" d="M389.792,245.784c-.04,1.327.486,2.418,1.175,2.438s1.279-1.036,1.318-2.363-.486-2.417-1.174-2.438S389.831,244.459,389.792,245.784Z" transform="translate(-389.789 -243.421)" fill="#171612"/>
                          </g>
                        </g>
                      </g>
                    </g>
                  </g>
                  <g id="Grupo_137389" data-name="Grupo 137389">
                    <g id="Grupo_137388" data-name="Grupo 137388">
                      <g id="Grupo_137387" data-name="Grupo 137387">
                        <g id="Grupo_137386" data-name="Grupo 137386">
                          <g id="Grupo_137385" data-name="Grupo 137385">
                            <g id="Grupo_137384" data-name="Grupo 137384">
                              <path id="Trazado_151952" data-name="Trazado 151952" d="M394.213,244.183a.345.345,0,0,0,.158-.147.351.351,0,0,0-.137-.477c-.142-.079-3.508-1.893-6.1.35a.351.351,0,0,0,.46.532c2.226-1.927,5.271-.285,5.3-.267A.351.351,0,0,0,394.213,244.183Z" transform="translate(-388.011 -242.791)" fill="#171612"/>
                            </g>
                          </g>
                        </g>
                      </g>
                    </g>
                  </g>
                </g>
                <g id="Grupo_137401" data-name="Grupo 137401" transform="translate(39.614 26.735)">
                  <g id="Grupo_137394" data-name="Grupo 137394" transform="translate(1.903 0.798)">
                    <g id="Grupo_137393" data-name="Grupo 137393">
                      <g id="Grupo_137392" data-name="Grupo 137392">
                        <g id="Grupo_137391" data-name="Grupo 137391">
                          <path id="Trazado_151953" data-name="Trazado 151953" d="M397.782,246.16c-.039,1.327.487,2.418,1.175,2.438s1.279-1.038,1.32-2.363-.487-2.417-1.175-2.438S397.822,244.835,397.782,246.16Z" transform="translate(-397.78 -243.797)" fill="#171612"/>
                        </g>
                      </g>
                    </g>
                  </g>
                  <g id="Grupo_137400" data-name="Grupo 137400">
                    <g id="Grupo_137399" data-name="Grupo 137399">
                      <g id="Grupo_137398" data-name="Grupo 137398">
                        <g id="Grupo_137397" data-name="Grupo 137397">
                          <g id="Grupo_137396" data-name="Grupo 137396">
                            <g id="Grupo_137395" data-name="Grupo 137395">
                              <path id="Trazado_151954" data-name="Trazado 151954" d="M402.609,245.082a.352.352,0,0,0,.1-.617c-.13-.1-3.217-2.352-6.091-.48a.351.351,0,1,0,.384.588c2.467-1.607,5.26.434,5.287.455A.355.355,0,0,0,402.609,245.082Z" transform="translate(-396.463 -243.245)" fill="#171612"/>
                            </g>
                          </g>
                        </g>
                      </g>
                    </g>
                  </g>
                </g>
                <g id="Grupo_137405" data-name="Grupo 137405" transform="translate(11.554 39.432)">
                  <g id="Grupo_137404" data-name="Grupo 137404">
                    <g id="Grupo_137403" data-name="Grupo 137403">
                      <g id="Grupo_137402" data-name="Grupo 137402">
                        <path id="Trazado_151955" data-name="Trazado 151955" d="M377.049,254.448h.181c.12.292.257.578.4.87.061.126.126.253.189.379a.222.222,0,0,0,.02.036,6.2,6.2,0,0,0,2.563-1.13,4.933,4.933,0,0,0,1.317-1.541.7.7,0,0,0-1.22-.672,3.748,3.748,0,0,1-1.6,1.515,4.944,4.944,0,0,1-1.2.426A5.692,5.692,0,0,1,377.049,254.448Z" transform="translate(-377.049 -252.03)" fill="#c6695d"/>
                      </g>
                    </g>
                  </g>
                </g>
                <g id="Grupo_137408" data-name="Grupo 137408" transform="translate(43.496 33.663)" opacity="0.5">
                  <g id="Grupo_137407" data-name="Grupo 137407">
                    <g id="Grupo_137406" data-name="Grupo 137406">
                      <path id="Trazado_151956" data-name="Trazado 151956" d="M399.149,249.723c.043.765,1.749,1.307,3.975,1.327a28.139,28.139,0,0,0-.753-3.012C400.463,248.356,399.109,249.025,399.149,249.723Z" transform="translate(-399.148 -248.038)" fill="#c6695d"/>
                    </g>
                  </g>
                </g>
                <g id="Grupo_137411" data-name="Grupo 137411" transform="translate(0.631 37.771)">
                  <g id="Grupo_137410" data-name="Grupo 137410">
                    <g id="Grupo_137409" data-name="Grupo 137409">
                      <path id="Trazado_151957" data-name="Trazado 151957" d="M373.111,252.226c.436.3.87.613,1.317.9a6.594,6.594,0,1,0,3.71-.765,1.588,1.588,0,0,1-.964-1.477q.189-.009.377-.009a8.086,8.086,0,1,1-4.44,1.346Z" transform="translate(-369.492 -250.88)" fill="#fff"/>
                    </g>
                  </g>
                </g>
                <g id="Grupo_137414" data-name="Grupo 137414" transform="translate(35.707 44.979)">
                  <g id="Grupo_137413" data-name="Grupo 137413">
                    <g id="Grupo_137412" data-name="Grupo 137412">
                      <path id="Trazado_151958" data-name="Trazado 151958" d="M395.337,257.2a2.39,2.39,0,0,1-1.463-.648.4.4,0,1,1,.578-.564,1.643,1.643,0,0,0,1.818.239.4.4,0,0,1,.322.743A2.641,2.641,0,0,1,395.337,257.2Z" transform="translate(-393.76 -255.867)" fill="#c6695d"/>
                    </g>
                  </g>
                </g>
                <g id="Grupo_137417" data-name="Grupo 137417" transform="translate(33.551 40.065)">
                  <g id="Grupo_137416" data-name="Grupo 137416">
                    <g id="Grupo_137415" data-name="Grupo 137415">
                      <path id="Trazado_151959" data-name="Trazado 151959" d="M396.525,255.949l-.069-.006a5.119,5.119,0,0,1-4.122-2.57.626.626,0,0,1,1.12-.561,3.869,3.869,0,0,0,3.108,1.883l.056,0a3.8,3.8,0,0,0,3.214-1.035.626.626,0,0,1,.976.785A5.025,5.025,0,0,1,396.525,255.949Z" transform="translate(-392.268 -252.468)" fill="#c6695d"/>
                    </g>
                  </g>
                </g>
                <g id="Grupo_137419" data-name="Grupo 137419" transform="translate(36.62 29.005)">
                  <g id="Grupo_137418" data-name="Grupo 137418">
                    <path id="Trazado_151960" data-name="Trazado 151960" d="M396.855,253.75a.584.584,0,0,0,.314-.091l2.566-1.636a.583.583,0,0,0-.036-1.006,8.408,8.408,0,0,1-4.157-5.764.584.584,0,0,0-1.132.292,9.717,9.717,0,0,0,3.905,6l-1.775,1.132a.583.583,0,0,0,.315,1.075Z" transform="translate(-394.391 -244.815)" fill="#b4665e"/>
                  </g>
                </g>
                <g id="Grupo_137421" data-name="Grupo 137421" transform="translate(23.65 18.352)">
                  <g id="Grupo_137420" data-name="Grupo 137420">
                    <path id="Trazado_151961" data-name="Trazado 151961" d="M394.525,240.54a1.418,1.418,0,0,0,.867-2.645,4.108,4.108,0,0,0-2.866-.338,10.286,10.286,0,0,0-7.108,5.768s4.791-2.626,7.517-2.824A8.029,8.029,0,0,1,394.525,240.54Z" transform="translate(-385.418 -237.445)" fill="#171612"/>
                  </g>
                </g>
                <g id="Grupo_137423" data-name="Grupo 137423" transform="translate(39.427 18.605)">
                  <g id="Grupo_137422" data-name="Grupo 137422">
                    <path id="Trazado_151962" data-name="Trazado 151962" d="M397.937,240.715a1.418,1.418,0,0,1-.867-2.646,4.108,4.108,0,0,1,2.866-.337c5.237,1.094,5.575,4.833,5.575,4.833a18.82,18.82,0,0,0-5.984-1.889A7.927,7.927,0,0,0,397.937,240.715Z" transform="translate(-396.333 -237.62)" fill="#171612"/>
                  </g>
                </g>
                <g id="Grupo_137426" data-name="Grupo 137426" transform="translate(21.898 34.574)" opacity="0.5">
                  <g id="Grupo_137425" data-name="Grupo 137425">
                    <g id="Grupo_137424" data-name="Grupo 137424">
                      <path id="Trazado_151963" data-name="Trazado 151963" d="M393.908,250c.049.873-2.083,1.7-4.761,1.853s-4.891-.434-4.94-1.307,2.083-1.7,4.763-1.852S393.858,249.126,393.908,250Z" transform="translate(-384.205 -248.668)" fill="#c6695d"/>
                    </g>
                  </g>
                </g>
                <g id="Grupo_137430" data-name="Grupo 137430" transform="translate(3.92 29.207)">
                  <g id="Grupo_137429" data-name="Grupo 137429">
                    <g id="Grupo_137428" data-name="Grupo 137428">
                      <g id="Grupo_137427" data-name="Grupo 137427">
                        <path id="Trazado_151964" data-name="Trazado 151964" d="M379.884,253.555a.7.7,0,0,1-.593-.533c-1.113-4.81-6.977-6.688-7.035-6.706a.7.7,0,0,1,.411-1.328c.273.084,6.685,2.123,7.98,7.721a.7.7,0,0,1-.763.847Z" transform="translate(-371.767 -244.955)" fill="#c6695d"/>
                      </g>
                    </g>
                  </g>
                </g>
                <g id="Grupo_137434" data-name="Grupo 137434" transform="translate(5.277 32.066)">
                  <g id="Grupo_137433" data-name="Grupo 137433">
                    <g id="Grupo_137432" data-name="Grupo 137432">
                      <g id="Grupo_137431" data-name="Grupo 137431">
                        <path id="Trazado_151965" data-name="Trazado 151965" d="M373.316,250.2a.722.722,0,0,1-.254-.084.7.7,0,0,1-.266-.948,4.775,4.775,0,0,1,4.118-2.236.7.7,0,0,1,0,1.392,3.388,3.388,0,0,0-2.9,1.525A.7.7,0,0,1,373.316,250.2Z" transform="translate(-372.706 -246.933)" fill="#c6695d"/>
                      </g>
                    </g>
                  </g>
                </g>
              </g>
            </g>
          </g>
          <g id="Grupo_137439" data-name="Grupo 137439" transform="translate(68.387 12.027)">
            <g id="Grupo_137438" data-name="Grupo 137438">
              <path id="Trazado_151966" data-name="Trazado 151966" d="M393.6,235.681s1.265,5.4-3.21,8.708a26.451,26.451,0,0,1-5.968,3.548s6.876,14.692,1.3,17.078-5.546-14-14.256-14.078c0,0-3.16-.529-3.063-6.02s8.8-21.446,23.13-21.154,27.3,6.811,28.211,16.831-1.333,8.142-1.333,8.142.778-5.886-6.3-9.99C406.235,235.342,393.6,235.681,393.6,235.681Z" transform="translate(-368.401 -223.76)" fill="#171612"/>
            </g>
          </g>
        </g>
      </g>
      <g id="Grupo_137453" data-name="Grupo 137453" transform="translate(389.67 400.028)">
        <g id="Grupo_137443" data-name="Grupo 137443" transform="translate(0 50.567)">
          <g id="Grupo_137442" data-name="Grupo 137442">
            <path id="Trazado_151967" data-name="Trazado 151967" d="M368.175,397.907l-6.727-12.794a4.761,4.761,0,0,1,4.265-6.977l105.744,1.14-3.119,16.38Z" transform="translate(-360.895 -378.136)" fill="#171612"/>
          </g>
        </g>
        <g id="Grupo_137445" data-name="Grupo 137445" transform="translate(7.281)">
          <g id="Grupo_137444" data-name="Grupo 137444">
            <path id="Trazado_151968" data-name="Trazado 151968" d="M464.269,409.887H369.636a3.631,3.631,0,0,1-3.678-4.135l6.452-58.466A4.736,4.736,0,0,1,377,343.15h94.634a3.632,3.632,0,0,1,3.678,4.135l-6.452,58.466A4.738,4.738,0,0,1,464.269,409.887Z" transform="translate(-365.932 -343.15)" fill="#fff"/>
          </g>
        </g>
        <g id="Grupo_137447" data-name="Grupo 137447" transform="translate(8.775 5.037)">
          <g id="Grupo_137446" data-name="Grupo 137446">
            <path id="Trazado_151969" data-name="Trazado 151969" d="M367.765,410.856a.772.772,0,0,1-.1-.007.8.8,0,0,1-.694-.89l7.856-62.625a.8.8,0,0,1,1.584.2l-7.856,62.625A.8.8,0,0,1,367.765,410.856Z" transform="translate(-366.966 -346.635)" fill="#171612"/>
          </g>
        </g>
        <g id="Grupo_137450" data-name="Grupo 137450" transform="translate(55.588 26.423)">
          <g id="Grupo_137449" data-name="Grupo 137449">
            <g id="Grupo_137448" data-name="Grupo 137448">
              <path id="Trazado_151970" data-name="Trazado 151970" d="M399.38,369.417a8.33,8.33,0,0,0,7.725,9.038,8.6,8.6,0,0,0,9.036-7.97,8.33,8.33,0,0,0-7.727-9.036A8.6,8.6,0,0,0,399.38,369.417Z" transform="translate(-399.354 -361.431)" fill="#171612"/>
            </g>
          </g>
        </g>
        <g id="Grupo_137452" data-name="Grupo 137452" transform="translate(6.654 61.192)">
          <g id="Grupo_137451" data-name="Grupo 137451">
            <path id="Trazado_151971" data-name="Trazado 151971" d="M464.917,396.123H368.98a3.481,3.481,0,0,1-3.449-3.952l.913-6.685H469.408l-1.042,7.627A3.48,3.48,0,0,1,464.917,396.123Z" transform="translate(-365.499 -385.487)" fill="#171612"/>
          </g>
        </g>
      </g>
    </g>
  </g>
</svg>
