<svg xmlns="http://www.w3.org/2000/svg" width="77" height="77" viewBox="0 0 77 77">
  <g id="icon3" transform="translate(-1058 -523)">
    <rect id="Rectángulo_35441" data-name="Rectángulo 35441" width="77" height="77" transform="translate(1058 523)" fill="none"/>
    <g id="_32Ky3h" data-name="32Ky3h" transform="translate(-1970.219 -726.445)">
      <g id="Grupo_133644" data-name="Grupo 133644" transform="translate(3033.219 1254.445)">
        <path id="Trazado_150687" data-name="Trazado 150687" d="M3112.1,1265.014c.812.268.958.466.95,1.376a11.343,11.343,0,0,1-.186,2.945,5.468,5.468,0,0,1-5.288,4.055c-.965.022-1.932.031-2.9-.007-.475-.019-.53.146-.451.555.3,1.571.575,3.147.864,4.72a1.568,1.568,0,0,1-.732,1.805,1.483,1.483,0,0,1-1.857-.335q-3.327-3.141-6.631-6.307a1.438,1.438,0,0,0-1.1-.436q-13.2.018-26.4,0a1.513,1.513,0,0,0-1.148.475q-3.252,3.125-6.535,6.218a1.51,1.51,0,0,1-2.318.073,1.618,1.618,0,0,1-.341-1.476c.294-1.55.554-3.106.865-4.652.106-.528-.035-.645-.559-.641a24.281,24.281,0,0,1-3.616-.072,5.361,5.361,0,0,1-4.622-5.123q-.083-4.278,0-8.559a5.389,5.389,0,0,1,4.247-5.051c.118-.026.271.029.34-.13h53.762a12.394,12.394,0,0,1,1.328.457,5.371,5.371,0,0,1,3.27,4.818c.032.5,0,1,.011,1.506a1.032,1.032,0,0,1-.915,1.156.953.953,0,0,1-1.221-.891,10,10,0,0,1-.03-1.312,3.317,3.317,0,0,0-3.581-3.563c-1.751,0-3.5-.013-5.254.008q-22.794.01-45.588,0c-.285,0-.571,0-.856,0a3.213,3.213,0,0,0-3.323,3.149q-.138,4.146,0,8.3a3.27,3.27,0,0,0,3.417,3.149c1.075.039,2.152.014,3.228.009a2.16,2.16,0,0,1,1.834.855,2.557,2.557,0,0,1,.313,1.828c-.2,1.1-.416,2.194-.617,3.405,1.87-1.783,3.712-3.459,5.475-5.223a2.6,2.6,0,0,1,2.107-.874q13.516.018,27.032,0a2.672,2.672,0,0,1,2.159.9c1.142,1.182,2.369,2.277,3.563,3.407.589.557,1.164,1.129,1.817,1.736a21.617,21.617,0,0,0-.351-2.146c-.073-.476-.178-.948-.252-1.425a2.039,2.039,0,0,1,2.026-2.429c.987-.026,1.974,0,2.962-.007,2.578-.005,3.9-1.324,3.909-3.884a9.819,9.819,0,0,1,.034-1.511A.9.9,0,0,1,3112.1,1265.014Z" transform="translate(-3047.827 -1254.445)"/>
        <path id="Trazado_150688" data-name="Trazado 150688" d="M3033.333,1482.942a12.426,12.426,0,0,1,10.549-10.936,18.844,18.844,0,0,1,2.233-.124q6.52,0,13.04,0c1.509,0,2.152.773,1.925,2.256a5.28,5.28,0,0,1-1.768,3.283c-.2.175-.312.3-.176.6a15.451,15.451,0,0,1,1.269,7.053,6.006,6.006,0,0,0,.772,3.266c.366.646.665,1.33.972,2.008a2.583,2.583,0,0,1-2.195,3.815.743.743,0,0,0-.778.847q.009,2.107,0,4.215a3.719,3.719,0,0,1-3.886,3.891c-1.493,0-2.986.014-4.479,0-1.148-.013-1.478.77-1.214,1.864.074.307.334.223.538.248a2.509,2.509,0,0,1,2.293,2.459,2.574,2.574,0,0,1-1.96,2.875,3.486,3.486,0,0,1-.783.065q-6.751.005-13.5,0a2.492,2.492,0,0,1-2.728-2.739c0-.5-.009-1.01,0-1.515a2.394,2.394,0,0,1,1.918-2.422c.369-.086.44-.22.437-.556-.014-1.778.032-3.557-.02-5.334a23.535,23.535,0,0,0-.638-3.419c-.161-.9-.088-1.1.694-1.54.635-.2,1.088.054,1.318.77a13.088,13.088,0,0,1,.412,1.931.7.7,0,0,0,.843.687c.525-.031,1.054.018,1.58-.018a1.956,1.956,0,0,0,1.905-1.685,11.055,11.055,0,0,0,.087-2.3,4.341,4.341,0,0,1,1.706-3.546c1.039-.845,2.108-1.652,3.166-2.473a4.475,4.475,0,0,0,1.88-3.524,6.207,6.207,0,0,1,1.937-4.476,6.416,6.416,0,0,1,4.883-1.893,3.131,3.131,0,0,0,3.113-1.9c.265-.55.212-.626-.409-.627q-4.014,0-8.027,0c-1.688-.017-3.376-.025-5.063,0a10.342,10.342,0,0,0-9.684,8.82,13.729,13.729,0,0,0,.367,4.619c.111.514.228,1.027.322,1.545.208,1.147-.2,1.578-1.372,1.458a.98.98,0,0,1-.7-.858c-.247-1.264-.507-2.525-.759-3.788-.021-.1,0-.223-.138-.259v-.659a5.29,5.29,0,0,0,.068-1.32A2.1,2.1,0,0,1,3033.333,1482.942Z" transform="translate(-3033.219 -1443.162)"/>
        <path id="Trazado_150689" data-name="Trazado 150689" d="M3033.33,1560.405c-.031.444.168.907-.111,1.331v-1.318C3033.25,1560.367,3033.287,1560.359,3033.33,1560.405Z" transform="translate(-3033.219 -1519.968)" fill="#4c4c4c"/>
        <path id="Trazado_150690" data-name="Trazado 150690" d="M3033.33,1556.283l-.111.013v-.659l.115-.012Z" transform="translate(-3033.219 -1515.845)" fill="#888"/>
        <path id="Trazado_150691" data-name="Trazado 150691" d="M3332.8,1471.858c2.283,0,4.566-.03,6.849.005a12.35,12.35,0,0,1,11.814,14.443c-.676,3.572-1.447,7.126-2.2,10.682a17.774,17.774,0,0,0-.146,3.344c-.024,1.031,0,2.063-.009,3.095,0,.276.052.4.37.476a2.42,2.42,0,0,1,1.985,2.569c.006.527.009,1.054,0,1.58a2.462,2.462,0,0,1-2.6,2.54c-3.666.008-7.332,0-11,0-.966,0-1.932.015-2.9-.005a2.5,2.5,0,0,1-2.477-2.409c-.109-1.554.708-2.816,2.094-2.932.8-.067.8-.487.815-1.019a1.064,1.064,0,0,0-.9-1.125,3.087,3.087,0,0,0-.526-.019c-1.471,0-2.941,0-4.412,0a3.711,3.711,0,0,1-3.823-3.82c-.01-1.4-.014-2.81,0-4.214.007-.6-.246-.868-.846-.922a2.5,2.5,0,0,1-2.153-3.669,14.728,14.728,0,0,0,1.858-7.781,10.4,10.4,0,0,1,1.129-4.559.544.544,0,0,0-.166-.769,5.13,5.13,0,0,1-1.765-3.557,1.614,1.614,0,0,1,1.756-1.935c2.415-.008,4.829,0,7.244,0Z" transform="translate(-3284.23 -1443.132)"/>
        <path id="Trazado_150692" data-name="Trazado 150692" d="M3045.314,1503.342c1.1-.016,1.38-.373,1.183-1.466-.229-1.27-.564-2.517-.716-3.8a10.428,10.428,0,0,1,8.691-11.228,47.665,47.665,0,0,1,6.237-.114,14.863,14.863,0,0,0,.668,3.9.891.891,0,0,1-.141.808,7.017,7.017,0,0,0-1.842,4.784,3.8,3.8,0,0,1-1.5,2.888c-1.138.926-2.3,1.817-3.464,2.716a4.348,4.348,0,0,0-1.795,3.558c-.005.614.013,1.228-.008,1.84a2.15,2.15,0,0,1-2.326,2.278c-.548.005-1.1-.043-1.642.014-.5.053-.637-.191-.71-.608-.114-.646-.282-1.282-.389-1.929a1.1,1.1,0,0,0-1.214-1.031c-.131-.611-.295-1.216-.381-1.833A.771.771,0,0,0,3045.314,1503.342Z" transform="translate(-3043.717 -1456.01)" fill="#6b63ae"/>
        <path id="Trazado_150693" data-name="Trazado 150693" d="M3165.839,1277.989c-.824.189-1.017.422-1.024,1.254,0,.526,0,1.052,0,1.579a3.479,3.479,0,0,1-3.519,3.567c-1.1.024-2.193,0-3.289.006a1.892,1.892,0,0,0-2.043,2.43c.221,1.27.447,2.539.7,3.973l-5.685-5.455a.944.944,0,0,1,.737-.208c.483-.014.966,0,1.449-.008a4.124,4.124,0,0,0,4.058-4.036c.036-1.646.015-3.293,0-4.939,0-.669-.082-.729-.778-.747-.219-.005-.439,0-.658,0h-42.352a6.6,6.6,0,0,1-.921-.02c-.221-.031-.512.013-.546-.337a1.787,1.787,0,0,1,1.207-.191q15.3-.008,30.606,0h13.691a7.243,7.243,0,0,0,.789-.021.657.657,0,0,0,.649-.548.709.709,0,0,0-.418-.809,4.725,4.725,0,0,0-.885-.242.5.5,0,0,1-.327-.509,4.087,4.087,0,0,0-1.239-2.845.469.469,0,0,1-.184-.459c1.883-.005,3.767-.044,5.649-.007a3.427,3.427,0,0,1,3.3,3.295c.023.481,0,.964.01,1.445.01.8.259,1.083,1.062,1.206Q3165.858,1276.673,3165.839,1277.989Z" transform="translate(-3101.57 -1267.42)" fill="#7ac0a4"/>
        <path id="Trazado_150694" data-name="Trazado 150694" d="M3115.208,1269.428a5.226,5.226,0,0,1,1.419,2.144,5.44,5.44,0,0,1,.164,1.543,1.789,1.789,0,0,1-1.208.189q-18.379.008-36.759,0-3.03,0-6.061,0a3.96,3.96,0,0,0-.982.078c-.723.184-.92.594-.608,1.268a1.12,1.12,0,0,1,.156.429c.267.233.59.124.885.124q21.8.009,43.606.007c1.1,0,.962-.122.967,1,.006,1.581,0,3.162,0,4.742a4.321,4.321,0,0,1-4.422,4.4l-2.042,0a3.292,3.292,0,0,0-2.731-.967q-12.943.045-25.887,0a3.285,3.285,0,0,0-2.731.967,12.866,12.866,0,0,1-5.133,0,2.183,2.183,0,0,0-2.037-.955c-1.008.041-2.019.019-3.029.007a3.483,3.483,0,0,1-3.637-3.653c-.007-2.612-.014-5.224,0-7.836a3.433,3.433,0,0,1,3.507-3.5q23.148-.011,46.3,0C3115.033,1269.408,3115.12,1269.421,3115.208,1269.428Z" transform="translate(-3060.917 -1267.431)" fill="#96d4a5"/>
        <path id="Trazado_150695" data-name="Trazado 150695" d="M3127.444,1390.115l5.133,0-5.686,5.462c.248-1.4.443-2.642.695-3.869A2.689,2.689,0,0,0,3127.444,1390.115Z" transform="translate(-3114.519 -1372.196)" fill="#79c0a4"/>
        <path id="Trazado_150696" data-name="Trazado 150696" d="M3102.683,1527.765c-.048-2.615,1.293-4.417,3.617-4.828.821-.146,1.669.025,2.49-.182.274-.069.316.179.389.352a12.313,12.313,0,0,1,.986,4.071,23.582,23.582,0,0,1,.062,2.632,6.089,6.089,0,0,0,.835,3.263c.384.714.716,1.456,1.052,2.194.3.665.107.992-.612,1.074a2.65,2.65,0,0,0-2.515,2.833c-.006,1.383,0,2.766,0,4.15a1.777,1.777,0,0,1-1.959,1.956c-1.471.006-2.942,0-4.414,0a3.046,3.046,0,0,0-3.277,3.35c.006.23.114.509-.309.464q-3.072-.325-6.145-.639a5.861,5.861,0,0,1,5.2-3.759,4.945,4.945,0,0,0,4.52-4.966q.034-5.07,0-10.14A10.68,10.68,0,0,0,3102.683,1527.765Z" transform="translate(-3085.001 -1487.307)" fill="#c1885d"/>
        <path id="Trazado_150697" data-name="Trazado 150697" d="M3080.9,1560.761c.173.186.1.417.1.629q.006,5.758,0,11.516a5.212,5.212,0,0,1-4.731,4.988,5.346,5.346,0,0,0-4.711,3.061c-.1.21-.162.469-.464.5-.982-.085-1.964-.18-2.947-.249-.287-.02-.367-.135-.366-.407.009-1.536.014-3.071,0-4.607,0-.365.14-.44.466-.432a20.173,20.173,0,0,0,2.1-.014,4.072,4.072,0,0,0,3.75-4.172c.02-.592.01-1.185,0-1.777a2.524,2.524,0,0,1,1.067-2.147c1.03-.783,2.037-1.6,3.074-2.37A6.525,6.525,0,0,0,3080.9,1560.761Z" transform="translate(-3063.214 -1520.303)" fill="#d39761"/>
        <path id="Trazado_150698" data-name="Trazado 150698" d="M3161.429,1491.519a10.668,10.668,0,0,0-.572-2.85,3.5,3.5,0,0,1,.044-1.856c2.825-.008,5.651-.006,8.476-.034.484,0,.416.227.338.523a3.28,3.28,0,0,1-3.188,2.379,7.3,7.3,0,0,0-3.674.794A11.431,11.431,0,0,0,3161.429,1491.519Z" transform="translate(-3143.909 -1456.093)" fill="#5e57a9"/>
        <path id="Trazado_150699" data-name="Trazado 150699" d="M3057.657,1731.934q-3.488.011-6.976.024c-.461,0-.7-.191-.689-.666.008-.5,0-1.009,0-1.514,0-.448.224-.644.661-.6q3.369.336,6.737.677A1.8,1.8,0,0,1,3057.657,1731.934Z" transform="translate(-3047.777 -1666.471)" fill="#df8086"/>
        <path id="Trazado_150700" data-name="Trazado 150700" d="M3106.289,1736.421a4.715,4.715,0,0,0-.264-2.079q3.531.323,7.062.646c.5.046.571.4.559.807a.583.583,0,0,1-.651.649Q3109.642,1736.43,3106.289,1736.421Z" transform="translate(-3096.409 -1670.958)" fill="#da646f"/>
        <path id="Trazado_150701" data-name="Trazado 150701" d="M3352.93,1548.846c-.717.085-1.435.161-2.15.258-.315.043-.379-.083-.333-.364a3.107,3.107,0,0,0-3.358-3.464c-1.446.065-2.9.017-4.345.01a1.765,1.765,0,0,1-1.935-1.909c-.01-1.383,0-2.765,0-4.148a2.644,2.644,0,0,0-2.531-2.879c-.708-.091-.961-.465-.586-1.078a13.955,13.955,0,0,0,1.965-8.153,9.633,9.633,0,0,1,.947-4c.117-.288.257-.431.584-.335a5.448,5.448,0,0,0,1.505.108,4.209,4.209,0,0,1,4.385,4.143,6.662,6.662,0,0,0,2.935,5.449c.872.628,1.678,1.348,2.56,1.959a2.9,2.9,0,0,1,1.3,3.072,34.378,34.378,0,0,0-.74,8.236c.051.761.011,1.528.005,2.292A1.125,1.125,0,0,1,3352.93,1548.846Z" transform="translate(-3297.324 -1487.313)" fill="#fddcce"/>
        <path id="Trazado_150702" data-name="Trazado 150702" d="M3423.323,1486.786c2.208.013,4.432-.243,6.6.436a10.46,10.46,0,0,1,7.064,12.351q-.989,4.659-1.94,9.326c-.1.479-.241.723-.787.671-.587-.056-1.184,0-1.776-.018a2.071,2.071,0,0,1-2.1-1.946,10.1,10.1,0,0,1-.024-1.577,4.89,4.89,0,0,0-1.385-3.835c.14-1.162.5-2.28.678-3.435a2.6,2.6,0,0,0,.069-.958q0-.548,0-1.1a3.607,3.607,0,0,0-.045-1.036,11.416,11.416,0,0,0-5.926-8.444C3423.566,1487.125,3423.319,1487.071,3423.323,1486.786Z" transform="translate(-3371.798 -1456.067)" fill="#df7d4d"/>
        <path id="Trazado_150703" data-name="Trazado 150703" d="M3364.656,1496.675q0,.594,0,1.188c-.177.288.039.632-.131.921a11.625,11.625,0,0,1-.806,3.435c-1.181-.91-2.356-1.827-3.543-2.729a4.554,4.554,0,0,1-1.887-3.589,6.232,6.232,0,0,0-6.608-6.209,3.38,3.38,0,0,1-3.469-2.374c-.07-.262-.211-.543.31-.538,3.183.026,6.365.025,9.548.032a13.085,13.085,0,0,1,2.721,1.815,11.324,11.324,0,0,1,3.734,6.992C3364.7,1495.955,3364.476,1496.34,3364.656,1496.675Z" transform="translate(-3306.546 -1456.094)" fill="#e1934a"/>
        <path id="Trazado_150704" data-name="Trazado 150704" d="M3454.094,1645.844c0-2.255-.057-4.511.02-6.763a19.229,19.229,0,0,1,.916-4.571c.025.524.028,1.05.08,1.571a4.033,4.033,0,0,0,3.937,3.689c.635.022,1.272.026,1.906,0,.347-.014.445.1.44.442-.017,1.512-.011,3.024,0,4.536,0,.267-.01.438-.362.467C3458.715,1645.412,3456.405,1645.632,3454.094,1645.844Z" transform="translate(-3398.488 -1584.312)" fill="#fdcabe"/>
        <path id="Trazado_150705" data-name="Trazado 150705" d="M3462.979,1729.934c1.566-.166,3.132-.338,4.7-.5,1-.1,2.009-.176,3.011-.285.578-.063.811.174.782.744-.022.438-.016.877,0,1.316.016.493-.192.726-.7.722-2.193-.016-4.386-.019-6.578-.026a.669.669,0,0,1-.175-.471A1.479,1.479,0,0,0,3462.979,1729.934Z" transform="translate(-3406.217 -1666.445)" fill="#92d7f6"/>
        <path id="Trazado_150706" data-name="Trazado 150706" d="M3420.04,1735.136c.861.05,1.084.289,1.206,1.318a5.849,5.849,0,0,1,.007.655c-2.349.008-4.7.012-7.045.026-.465,0-.694-.2-.7-.665-.007-.408.066-.748.572-.793Q3417.059,1735.411,3420.04,1735.136Z" transform="translate(-3363.278 -1671.647)" fill="#b2e3f7"/>
        <path id="Trazado_150707" data-name="Trazado 150707" d="M3108.051,1299.448a1.012,1.012,0,0,1-.562-1.2c.173-.6.639-.727,1.182-.728h2.568q20.711,0,41.422,0c.284,0,.568-.023.853-.035.284.017.57.018.851.053a1,1,0,0,1,.942,1,.969.969,0,0,1-.981.948c-.481.026-.965,0-1.448,0q-21.855,0-43.709,0C3108.8,1299.479,3108.424,1299.458,3108.051,1299.448Z" transform="translate(-3097.64 -1291.794)" fill="#000100"/>
        <path id="Trazado_150708" data-name="Trazado 150708" d="M3119.822,1337.332q-5.562,0-11.123,0a1.162,1.162,0,0,1-1.1-.432.974.974,0,0,1,.6-1.5,2.74,2.74,0,0,1,.653-.042q11.025,0,22.049,0a4.015,4.015,0,0,1,.526.011.979.979,0,0,1,.9,1.024.923.923,0,0,1-.982.932c-1.382.019-2.764.008-4.146.009Z" transform="translate(-3097.622 -1324.667)"/>
        <path id="Trazado_150709" data-name="Trazado 150709" d="M3472.236,1554.762c-.261-.325-.074-.7-.131-1.055C3472.37,1554.031,3472.18,1554.412,3472.236,1554.762Z" transform="translate(-3414.127 -1514.181)" fill="#e59660"/>
        <path id="Trazado_150710" data-name="Trazado 150710" d="M3472.119,1571.611c.05-.306-.122-.644.131-.921C3472.2,1571,3472.372,1571.334,3472.119,1571.611Z" transform="translate(-3414.14 -1528.921)" fill="#e69263"/>
      </g>
    </g>
  </g>
</svg>
