<svg xmlns="http://www.w3.org/2000/svg" width="61.046" height="61.047" viewBox="0 0 61.046 61.047">
  <g id="icon6" transform="translate(-1189 -1599.272)">
    <g id="Grupo_106823" data-name="Grupo 106823" transform="translate(1189 1599.271)">
      <path id="Trazado_147677" data-name="Trazado 147677" d="M985.009,987.8a30.523,30.523,0,1,1,30.523-30.523A30.557,30.557,0,0,1,985.009,987.8Z" transform="translate(-954.486 -926.756)" fill="#3e2ea6"/>
    </g>
    <g id="Grupo_131693" data-name="Grupo 131693" transform="translate(899.854 -1296.295)">
      <path id="Trazado_149707" data-name="Trazado 149707" d="M337.92,2922.386a5.21,5.21,0,0,0-1.8-2.272,1.222,1.222,0,0,1-.5-.766c-.141-.667-.32-1.325-.472-1.99-.065-.285-.168-.522-.487-.587-.335-.068-.529.125-.7.376-.221.331-.452.655-.68.982-.2.286-.379.295-.6.023-.087-.1-.155-.225-.237-.334a5.515,5.515,0,0,0-1.929-1.648,5.586,5.586,0,0,0-4.875-.211c-.118.049-.241.147-.285-.1a11.117,11.117,0,0,0-1.111-2.736c-.213-.448-.489-.531-.951-.315-.4.187-.8.376-1.2.578a.211.211,0,0,1-.315-.061,9.468,9.468,0,0,0-2.975-2.131.573.573,0,0,0-.846.235c-.169.269-.316.552-.479.825a6.687,6.687,0,0,0-.961,2.278c-.032.188-.17.218-.308.264a4.288,4.288,0,0,0-2.107,1.5c-.155.2-.262.222-.492.115a5.586,5.586,0,0,0-4.086-.31c-.434.13-.621.39-.53.732s.378.488.812.39a7.724,7.724,0,0,1,1-.182,4.551,4.551,0,0,1,4.621,2.917c.1.278.124.476-.162.652a.808.808,0,0,0-.3.362c-.113.279-.3.275-.546.239a2.908,2.908,0,0,0-2.538.9.571.571,0,0,0,.565.956.972.972,0,0,0,.338-.221,1.949,1.949,0,0,1,1.274-.5c.312-.01.6,0,.6.43a.711.711,0,0,0,.1.288c.071.145.051.21-.122.253a3.487,3.487,0,0,0-1.03.439,1.749,1.749,0,0,0-.974,1.428c-.034.791-.035.791-.84.895-.045.006-.091,0-.136.014-.146.029-.221-.018-.272-.17a2.96,2.96,0,0,0-3.748-1.841.23.23,0,0,1-.33-.114,4.535,4.535,0,0,1-.559-3.445,4.587,4.587,0,0,1,1.488-2.433.573.573,0,0,0,.085-.871.589.589,0,0,0-.855.01,5.7,5.7,0,0,0-1.168,7.3c.07.115.208.222.05.385a3.049,3.049,0,0,0-.63,1.085c-1.171-.915-2.055-2.377-.817-4.024a.566.566,0,0,0-.1-.868.608.608,0,0,0-.853.224,4.581,4.581,0,0,0-.809,1.887v1.025c.1.075.063.181.059.279h0v.135h0c.008.056.03.118-.057.133v.273c.113.033.067.13.074.2a18.026,18.026,0,0,0,.747,3.635,17.46,17.46,0,0,0,15.528,12.144,17.395,17.395,0,0,0,13.6-5.165c.33-.334.339-.706.03-.947a.6.6,0,0,0-.826.106,17.516,17.516,0,0,1-1.42,1.281,16.073,16.073,0,0,1-14.993,2.881,15.477,15.477,0,0,1-6.824-4.108,16.17,16.17,0,0,1-4.451-8.376c.11-.038.175.029.244.089a12.56,12.56,0,0,0,3.995,2.233,30.989,30.989,0,0,0,8.22,1.718,39.832,39.832,0,0,0,12.188-.773,18.955,18.955,0,0,0,6.157-2.406,11.491,11.491,0,0,0,1.286-1,14.871,14.871,0,0,1-.513,2.057,16.463,16.463,0,0,1-2.725,5.081c-.284.364-.262.717.026.932s.613.131.9-.244a19.911,19.911,0,0,0,1.306-1.916,17.6,17.6,0,0,0,2.447-8.9A3.235,3.235,0,0,0,337.92,2922.386Zm-27.593,5.041c-.213.7-.375.782-1.043.537a15.884,15.884,0,0,1-2.28-1.05.318.318,0,0,1-.193-.423,1.819,1.819,0,0,1,3.592.434A1.807,1.807,0,0,1,310.326,2927.427Zm2.13,1.468-1.38-.346a3.163,3.163,0,0,0,.438-1.109c.009-.054.03-.146.059-.152.333-.062.668-.117,1-.161.078-.01.061.08.061.13,0,.5,0,1,0,1.5C312.644,2928.908,312.578,2928.926,312.456,2928.895Zm12.982-11.187a.617.617,0,0,1,.389-.564,4.581,4.581,0,0,1,6.279,2.425.287.287,0,0,1-.032.314c-.105.134-.2.277-.318.449-.309-.389-.6-.761-.9-1.131-.394-.494-.8-.476-1.136.064q-1.6,2.578-3.186,5.165c-.126.207-.208.31-.446.135a1.341,1.341,0,0,0-.7-.238c-.217-.015-.239-.1-.195-.281a1.1,1.1,0,0,0-.019-.508.554.554,0,0,0-.617-.464.546.546,0,0,0-.5.546,2.448,2.448,0,0,1-.055.541,1.081,1.081,0,1,1-.861-1.368c.112.019.221.055.333.073a.571.571,0,0,0,.328-1.089c-.134-.058-.278-.093-.451-.149a6.248,6.248,0,0,0,1.409-1.724A5.472,5.472,0,0,0,325.438,2917.708Zm-2.155-3.606c.1-.044.134-.027.181.065a6,6,0,0,1,.864,2.8,4.8,4.8,0,0,1-1.485,3.537c-.1.093-.163.163-.238-.017a1.533,1.533,0,0,0-.325-.476.384.384,0,0,1-.086-.345,4.442,4.442,0,0,0-1.239-3.714c-.109-.115-.113-.18-.008-.3A6.45,6.45,0,0,1,323.283,2914.1Zm-1.6,7.4a1.074,1.074,0,1,1-1.077-1.085A1.079,1.079,0,0,1,321.687,2921.5Zm-3.054-8.915c.048-.084.088-.112.184-.057a6.343,6.343,0,0,1,2.094,1.571,6.547,6.547,0,0,0-.926.905.162.162,0,0,1-.235.053,3.544,3.544,0,0,0-.985-.372c-.342-.074-.693-.108-1.047-.161A7.6,7.6,0,0,1,318.633,2912.586Zm-3.608,4.772c-.163-.145-.091-.234,0-.362a3.39,3.39,0,0,1,6.041,2.063c0,.113.052.253-.174.23a2.224,2.224,0,0,0-2.4,1.421,2.283,2.283,0,0,0-1.668-.721c-.144,0-.19-.079-.231-.2A5.533,5.533,0,0,0,315.025,2917.358Zm2.611,5.569c-.17.189-.17.189-.845.161-.752-.032-.919-.146-1.024-.693a1.067,1.067,0,0,1,.626-1.163,1.1,1.1,0,0,1,1.307.35A1.063,1.063,0,0,1,317.636,2922.927Zm1.245,6.792a41.386,41.386,0,0,1-4.851-.508c-.141-.023-.242-.049-.237-.248.016-.716.006-1.433.006-2.208a6.292,6.292,0,0,0,2.993.561c.2-.008.408-.033.611-.058.4-.05.623-.294.587-.648a.578.578,0,0,0-.688-.505,6.865,6.865,0,0,1-1.769-.014,3.8,3.8,0,0,1-1.288-.42c-.192-.112-.436-.221-.428-.484.007-.241.235-.349.419-.457a3.752,3.752,0,0,1,1.556-.46,5.467,5.467,0,0,1,2.488.265,2.043,2.043,0,0,1,.7.407.3.3,0,0,1-.013.518c-.113.1-.234.181-.35.273a.538.538,0,0,0-.208.6.512.512,0,0,0,.484.415c.228,0,.246.094.244.281-.009.808-.011,1.616,0,2.425C319.145,2929.663,319.1,2929.729,318.881,2929.719Zm1.33-4.98a2.7,2.7,0,0,0-1.229-1.2A1.017,1.017,0,0,1,320.211,2924.738Zm1.148,4.832c-.151.4-.517.109-.775.185-.126.037-.305.056-.289-.194s0-.475,0-.753a1.946,1.946,0,0,0,.737.286C321.4,2929.1,321.457,2929.312,321.359,2929.57Zm.175-1.568a1.084,1.084,0,0,1-.019-2.167,1.084,1.084,0,1,1,.019,2.167Zm2.961,1.578c-.533.029-1.064.079-1.6.12-.4.021-.429-.012-.339-.409a1.065,1.065,0,0,1,1.109-.813,1.089,1.089,0,0,1,1,.867C324.7,2929.494,324.677,2929.571,324.495,2929.58Zm-.539-3.078a1.081,1.081,0,1,1,1.025,1.1A1.077,1.077,0,0,1,323.956,2926.5Zm5.175-3.825q-.549,3.106-1.1,6.212c-.022.129-.057.2-.2.219q-.911.133-1.818.294c-.143.026-.187-.015-.192-.143a.1.1,0,0,0-.006-.033c-.139-.352-.106-.559.31-.758a2.13,2.13,0,0,0,1.069-2.49.636.636,0,0,1,.091-.567c.6-.954,1.184-1.913,1.774-2.869.008-.066.077-.157.093-.142C329.25,2922.491,329.183,2922.587,329.131,2922.677Zm5.654,1.492c-.064-.081-.124-.164-.192-.24a.58.58,0,1,0-.9.731c.274.363.563.715.845,1.072.175.221.348.443.53.675a13.994,13.994,0,0,1-3.358,1.667c-.727.264-1.479.439-2.217.665-.245.075-.263-.017-.226-.222q.533-2.953,1.057-5.908c.1-.581.2-1.162.317-1.8l1.146,1.443c.269.339.532.682.806,1.016a.582.582,0,1,0,.907-.713c-.281-.372-.575-.735-.865-1.1-.071-.09-.14-.162-.046-.294.557-.788,1.1-1.582,1.662-2.385.13.3,1.588,6.258,1.675,6.841Zm2.03.053-.561-2.312A2.164,2.164,0,0,1,336.815,2924.223Z" fill="#fff"/>
      <path id="Trazado_149708" data-name="Trazado 149708" d="M303.181,2978.6c-.013-.084.031-.177-.035-.254v.274l.035,0Z" transform="translate(0 -54.099)" fill="#fff"/>
      <path id="Trazado_149709" data-name="Trazado 149709" d="M303.181,2978.6v.022l.023,0c0-.1.045-.2-.059-.279C303.212,2978.421,303.169,2978.514,303.181,2978.6Z" transform="translate(0 -54.099)" fill="#fff"/>
      <path id="Trazado_149710" data-name="Trazado 149710" d="M303.181,2979.855v-.091c-.013,0-.024,0-.035-.021v.136l.035,0C303.181,2979.873,303.181,2979.864,303.181,2979.855Z" transform="translate(0 -55.225)" fill="#fff"/>
      <path id="Trazado_149711" data-name="Trazado 149711" d="M303.325,2979.784v.091c0,.009,0,.018,0,.027h.022v-.135h0A.048.048,0,0,1,303.325,2979.784Z" transform="translate(-0.143 -55.245)" fill="#fff"/>
      <path id="Trazado_149712" data-name="Trazado 149712" d="M303.181,2979.764v-.018l-.035,0C303.157,2979.761,303.169,2979.767,303.181,2979.764Z" transform="translate(0 -55.225)" fill="#fff"/>
      <path id="Trazado_149713" data-name="Trazado 149713" d="M303.326,2979.776a.049.049,0,0,0,.023-.016h0l-.023,0Z" transform="translate(-0.145 -55.237)" fill="#fff"/>
      <path id="Trazado_149714" data-name="Trazado 149714" d="M303.146,2980.442v.137a.135.135,0,0,0,.035-.116C303.169,2980.466,303.157,2980.46,303.146,2980.442Z" transform="translate(0 -55.787)" fill="#fff"/>
      <path id="Trazado_149715" data-name="Trazado 149715" d="M303.2,2980.46h0a.043.043,0,0,1-.023.017.136.136,0,0,1-.035.116C303.234,2980.578,303.212,2980.516,303.2,2980.46Z" transform="translate(0 -55.801)" fill="#fff"/>
      <path id="Trazado_149716" data-name="Trazado 149716" d="M303.181,2980.463c0-.006,0-.012,0-.019l-.035,0C303.157,2980.46,303.169,2980.466,303.181,2980.463Z" transform="translate(0 -55.787)" fill="#fff"/>
      <path id="Trazado_149717" data-name="Trazado 149717" d="M303.324,2980.472a.044.044,0,0,0,.023-.017h-.022C303.324,2980.459,303.324,2980.465,303.324,2980.472Z" transform="translate(-0.143 -55.796)" fill="#fff"/>
      <path id="Trazado_149718" data-name="Trazado 149718" d="M345.264,2993.209c0-.05.016-.14-.061-.13-.336.044-.671.1-1,.161-.029.006-.05.1-.059.152a3.163,3.163,0,0,1-.438,1.109l1.38.346c.122.031.188.014.186-.139C345.26,2994.208,345.266,2993.709,345.264,2993.209Z" transform="translate(-32.626 -65.952)" fill="#fff"/>
      <path id="Trazado_149719" data-name="Trazado 149719" d="M473.029,2968.722a2.164,2.164,0,0,0-.561-2.311Z" transform="translate(-136.213 -44.499)" fill="#fff"/>
      <path id="Trazado_149720" data-name="Trazado 149720" d="M435.68,2969.043c.129-.009.1.065.069.136.053-.09.12-.186.024-.278C435.757,2968.886,435.688,2968.977,435.68,2969.043Z" transform="translate(-106.619 -46.502)" fill="#fff"/>
      <path id="Trazado_149721" data-name="Trazado 149721" d="M435.68,2969.629c.075.019.041.094.069.136C435.776,2969.694,435.809,2969.62,435.68,2969.629Z" transform="translate(-106.619 -47.088)" fill="#fff"/>
      <path id="Trazado_149722" data-name="Trazado 149722" d="M427.488,2942.443a.608.608,0,0,0,.56-.582.6.6,0,0,0-.6-.57.571.571,0,0,0-.551.576A.587.587,0,0,0,427.488,2942.443Z" transform="translate(-99.552 -24.291)" fill="#fff"/>
    </g>
  </g>
</svg>
