<svg xmlns="http://www.w3.org/2000/svg" width="61.046" height="61.047" viewBox="0 0 61.046 61.047">
  <g id="icon4" transform="translate(-769 -1599.272)">
    <g id="Grupo_106822" data-name="Grupo 106822" transform="translate(769 1599.271)">
      <path id="Trazado_147677" data-name="Trazado 147677" d="M985.009,987.8a30.523,30.523,0,1,1,30.523-30.523A30.557,30.557,0,0,1,985.009,987.8Z" transform="translate(-954.486 -926.756)" fill="#3e2ea6"/>
    </g>
    <g id="SbmTs8" transform="translate(-2811.313 -981.817)">
      <g id="Grupo_131692" data-name="Grupo 131692" transform="translate(3594.083 2594.377)">
        <path id="Trazado_149705" data-name="Trazado 149705" d="M3594.083,2850.538a1.3,1.3,0,0,1,1.388-.818c1.278.03,2.557.007,3.836.01a1.1,1.1,0,0,1,1.238,1.247c0,.289,0,.579,0,.906h11.591c.964,0,1.371.424,1.321,1.39a7.432,7.432,0,0,1-1.99,4.769c-.073.079-.14.164-.229.269a6.353,6.353,0,0,0,4.811-1.149c2.344-1.914,4.773-3.725,7.165-5.581a3.231,3.231,0,0,1,5.293,2.907,3.376,3.376,0,0,1-1.3,2.162q-4.485,3.493-8.975,6.981a5.532,5.532,0,0,1-3.5,1.177q-6.865-.01-13.729,0h-.456c0,.3,0,.583,0,.869a1.117,1.117,0,0,1-1.27,1.284c-1.256,0-2.513-.022-3.768.009a1.325,1.325,0,0,1-1.424-.816Zm6.477,12.115h.39c4.553,0,9.105-.006,13.658.005a3.828,3.828,0,0,0,2.456-.841q4.372-3.417,8.758-6.817a2.162,2.162,0,0,0,.278-.243,1.065,1.065,0,0,0-1.34-1.631,4.1,4.1,0,0,0-.38.278q-3.629,2.812-7.255,5.627a6.516,6.516,0,0,1-2.961,1.357,7.37,7.37,0,0,1-1.169.107c-2.31.01-4.62,0-6.93.007a1.13,1.13,0,0,1-1.057-.529,1.076,1.076,0,0,1,.974-1.626,5.349,5.349,0,0,0,3.974-1.825,5.115,5.115,0,0,0,1.234-2.466H3600.56Zm-4.3-10.755v12.892h2.111V2851.9Z" transform="translate(-3594.083 -2832.499)" fill="#fff"/>
        <path id="Trazado_149706" data-name="Trazado 149706" d="M3611.583,2594.377a1.282,1.282,0,0,1,.811,1.423c-.022.255,0,.514,0,.8.473.064.936.112,1.395.19a15.367,15.367,0,0,1,10.154,6.3,14.082,14.082,0,0,1,2,3.867.417.417,0,0,0,.5.348,8.945,8.945,0,0,1,1.042,0,1.074,1.074,0,0,1-.006,2.148c-.112.005-.224,0-.336,0q-15.813,0-31.627.009a1.345,1.345,0,0,1-1.422-.816v-.538a1.26,1.26,0,0,1,1.387-.812c.356.027.716,0,1.042,0q3.641-9.528,13.725-10.722c0-.267.019-.525,0-.781a1.274,1.274,0,0,1,.811-1.421Zm12.167,12.916a13.278,13.278,0,0,0-24.856,0Z" transform="translate(-3594.083 -2594.377)" fill="#fff"/>
      </g>
    </g>
  </g>
</svg>
