<svg xmlns="http://www.w3.org/2000/svg" width="77" height="77" viewBox="0 0 77 77">
  <g id="icon6" transform="translate(-1044 -1022)">
    <rect id="Rectángulo_35437" data-name="Rectángulo 35437" width="77" height="77" transform="translate(1044 1022)" fill="none"/>
    <g id="Grupo_133639" data-name="Grupo 133639" transform="translate(-3110.901 -669.076)">
      <path id="Trazado_150657" data-name="Trazado 150657" d="M4188.887,1784.166a1.448,1.448,0,0,1-.768-1.436c.022-1.61-.008-3.221.011-4.832a8.671,8.671,0,0,1,8.121-8.793,38.739,38.739,0,0,1,7.571.025,8.641,8.641,0,0,1,7.356,7.822c.113,2.007.041,4.025.069,6.038a1.358,1.358,0,0,1-.738,1.177Z" transform="translate(-6.392 -20.332)"/>
      <path id="Trazado_150658" data-name="Trazado 150658" d="M4204.042,1695.076a1.393,1.393,0,0,1,.677,1.4c-.042.62,0,1.246-.014,1.868a1.007,1.007,0,1,1-2.007-.007c-.014-.623.03-1.248-.014-1.867a1.35,1.35,0,0,1,.685-1.393Z" transform="translate(-10.4)"/>
      <path id="Trazado_150659" data-name="Trazado 150659" d="M4164.9,1733.543a1.351,1.351,0,0,1,1.393-.686c.62.043,1.245,0,1.868.013a1.007,1.007,0,1,1,.007,2.007c-.623.016-1.248-.029-1.869.013a1.389,1.389,0,0,1-1.4-.676Z" transform="translate(0 -10.4)"/>
      <path id="Trazado_150660" data-name="Trazado 150660" d="M4207.512,1743.056c.25.822.139,1.134-.576,1.559a20.975,20.975,0,0,1-5.537,2.316,2.3,2.3,0,0,0-1.133.628,6.219,6.219,0,0,1-8.848-.057,1.947,1.947,0,0,0-.96-.546,21.6,21.6,0,1,1,26.774-24.022,20.923,20.923,0,0,1-6.038,18.347c-.561.581-.93.607-1.654.168-.537-.489-.533-.96.034-1.594a26.441,26.441,0,0,0,2.623-3.3,19.605,19.605,0,0,0,1.193-18.884,18.128,18.128,0,0,0-4.471-5.957,18.461,18.461,0,0,0-11.132-4.974,18.939,18.939,0,0,0-14.559,4.609,18.719,18.719,0,0,0-6.659,12.764,18.915,18.915,0,0,0,4.627,14.616,19.68,19.68,0,0,0,7.642,5.416c.637.26.542.237.645-.438.207-1.366-.405-1.974-1.593-2.6a17.054,17.054,0,0,1-6.057-24.815,1.312,1.312,0,0,1,1.929-.592,1.331,1.331,0,0,1,.043,1.881,14.821,14.821,0,0,0,6.036,21.9.605.605,0,0,0,.86-.206,6.453,6.453,0,0,1,10.295-.087c.238.433.519.491.986.262a14.359,14.359,0,0,0,8.485-11.6,14.006,14.006,0,0,0-3.907-11.884,13.406,13.406,0,0,0-3.048-2.5,14.234,14.234,0,0,0-7.7-2.157,14.064,14.064,0,0,0-8.018,2.43c-.221.15-.442.3-.671.441a1.184,1.184,0,0,1-1.728-.209c-.367-.831-.224-1.292.589-1.873a16.285,16.285,0,0,1,7.075-2.905,16.717,16.717,0,0,1,14.083,4.041,16.188,16.188,0,0,1,5.716,10.978,17.234,17.234,0,0,1-10.05,17.45.732.732,0,0,0-.521.875,6.106,6.106,0,0,1,.013.872,4.778,4.778,0,0,0-.009.917,13.611,13.611,0,0,0,2.815-1.2c.34-.164.654-.388,1-.537A1,1,0,0,1,4207.512,1743.056Z" transform="translate(-2.574 -2.578)"/>
      <path id="Trazado_150661" data-name="Trazado 150661" d="M4219.525,1714.251a18.433,18.433,0,0,1,6.014,10.35,19.2,19.2,0,0,1-5.074,17.8c-.725.775-.772.939-.386,1.753a13.018,13.018,0,0,1-2.028,1.607,1.173,1.173,0,0,0-1.666-.152,17.958,17.958,0,0,1-3.852,1.75l.161-1.2a1.336,1.336,0,0,1,.521-.408,20.464,20.464,0,0,0,6.6-30.635C4219.637,1714.865,4219.261,1714.658,4219.525,1714.251Z" transform="translate(-13.113 -5.279)" fill="#fcd230"/>
      <path id="Trazado_150662" data-name="Trazado 150662" d="M4239.439,1732.875c.4,0,.8-.021,1.2,0a1,1,0,0,1,.016,1.994c-.823.032-1.648.033-2.469,0a1,1,0,0,1,.051-1.993C4238.637,1732.856,4239.038,1732.874,4239.439,1732.875Z" transform="translate(-19.917 -10.404)" fill="#010101"/>
      <path id="Trazado_150663" data-name="Trazado 150663" d="M4235.721,1713.974a.974.974,0,0,1,.872.691.879.879,0,0,1-.317,1.078c-.752.477-1.528.923-2.32,1.331a.871.871,0,0,1-1.165-.372.837.837,0,0,1,.062-1.167,11.038,11.038,0,0,1,2.643-1.547A.748.748,0,0,1,4235.721,1713.974Z" transform="translate(-18.634 -5.202)" fill="#010101"/>
      <path id="Trazado_150664" data-name="Trazado 150664" d="M4185.985,1704.171a1.008,1.008,0,0,1-.919-.561c-.368-.633-.747-1.261-1.1-1.9a.993.993,0,0,1,.3-1.4.976.976,0,0,1,1.424.388c.409.659.814,1.326,1.164,2.018A.981.981,0,0,1,4185.985,1704.171Z" transform="translate(-5.204 -1.392)" fill="#010101"/>
      <path id="Trazado_150665" data-name="Trazado 150665" d="M4173.994,1716.14a.953.953,0,0,1-1.328.925,18.688,18.688,0,0,1-2.31-1.317.884.884,0,0,1-.234-1.3.9.9,0,0,1,1.27-.368c.728.381,1.431.807,2.14,1.221A.939.939,0,0,1,4173.994,1716.14Z" transform="translate(-1.387 -5.197)" fill="#010101"/>
      <path id="Trazado_150666" data-name="Trazado 150666" d="M4233.686,1750.122a2.615,2.615,0,0,1,.462.164c.657.369,1.315.741,1.958,1.136a1,1,0,1,1-1,1.74q-1.025-.555-2.013-1.173a.93.93,0,0,1-.412-1.158A1.036,1.036,0,0,1,4233.686,1750.122Z" transform="translate(-18.644 -15.154)" fill="#010101"/>
      <path id="Trazado_150667" data-name="Trazado 150667" d="M4223.183,1701.2a2.9,2.9,0,0,1-.18.5c-.356.64-.717,1.278-1.1,1.9a1.028,1.028,0,0,1-1.42.447,1,1,0,0,1-.322-1.444q.545-.992,1.137-1.958a.933.933,0,0,1,1.143-.449A1.048,1.048,0,0,1,4223.183,1701.2Z" transform="translate(-15.166 -1.395)" fill="#010101"/>
      <path id="Trazado_150668" data-name="Trazado 150668" d="M4171.078,1753.35a1.112,1.112,0,0,1-1.042-.688.881.881,0,0,1,.327-1.123c.746-.478,1.524-.91,2.308-1.324a.86.86,0,0,1,1.081.272.833.833,0,0,1,.125,1.105A8.817,8.817,0,0,1,4171.078,1753.35Z" transform="translate(-1.393 -15.153)" fill="#010101"/>
      <path id="Trazado_150669" data-name="Trazado 150669" d="M4207.977,1782.824c-1.322.068-1.321.068-1.322-1.243,0-.828.012-1.655,0-2.482a1.08,1.08,0,0,0-1.039-1.167,1.113,1.113,0,0,0-1.111,1.182c-.021,1.073-.025,2.147,0,3.22.01.422-.132.524-.537.521-2.3-.018-4.607-.022-6.91,0-.48.005-.547-.187-.539-.59.021-1.028.024-2.058,0-3.086-.021-.916-.687-1.441-1.44-1.173a1.04,1.04,0,0,0-.717,1.091c0,1.074-.016,2.147,0,3.221.009.408-.122.549-.536.533-.759-.029-1.521-.009-2.28-.008-.209,0-.422.008-.416-.293a30.181,30.181,0,0,1,.14-5.221,6.41,6.41,0,0,1,6.13-5.243,47.757,47.757,0,0,1,6.967.022,2.072,2.072,0,0,1,.378.111,6.327,6.327,0,0,1,2.749,3.073,8.635,8.635,0,0,1,.792,3.7c-.007,1,.007,2.008-.007,3.012C4208.28,1782.308,4208.341,1782.65,4207.977,1782.824Z" transform="translate(-7.21 -21.169)" fill="#5bbc92"/>
      <path id="Trazado_150670" data-name="Trazado 150670" d="M4213.167,1782.919c.009-.02.027-.04.028-.06.146-2.955.5-5.943-1.353-8.581a15.027,15.027,0,0,0-1.9-1.96,6.446,6.446,0,0,1,5.093,5.728c.071,1.469.019,2.945.044,4.416.008.391-.14.507-.507.484C4214.1,1782.917,4213.634,1782.926,4213.167,1782.919Z" transform="translate(-12.4 -21.265)" fill="#2db17f"/>
      <path id="Trazado_150671" data-name="Trazado 150671" d="M4203.45,1741.827a6.389,6.389,0,0,0-4.726-2.446,6.079,6.079,0,0,0-5.415,2.642.57.57,0,0,1-.853.227,14.919,14.919,0,0,1-6.315-22.1c.423-.611.66-1.164.12-1.805a.288.288,0,0,1,.086-.359,8.134,8.134,0,0,1,1.7-1.566c.712.573.937.554,1.774,0a14.683,14.683,0,0,1,16.073-.721,2.141,2.141,0,0,1,.264.2,15.177,15.177,0,0,1,5.555,11.8,15.5,15.5,0,0,1-2.356,8.744,15.661,15.661,0,0,1-5.042,5.119C4204.052,1741.714,4203.8,1741.932,4203.45,1741.827Z" transform="translate(-5.125 -5.112)" fill="#f8c42d"/>
      <path id="Trazado_150672" data-name="Trazado 150672" d="M4186.247,1714.638l-1.784,1.926c-.85-.334-1.149-.242-1.692.521a16.92,16.92,0,0,0,7.079,25.214c.469.206.618.415.548.922a5.228,5.228,0,0,0,.152,2.2,18.373,18.373,0,0,1-7.358-4.385c-5.561-5.505-7.508-12.146-5.345-19.647s7.34-12.191,14.983-13.769a18.645,18.645,0,0,1,16.908,4.684c-.042.454.363.654.579.938a20.507,20.507,0,0,1,2.626,20.383,20,20,0,0,1-5.067,7.238,16.7,16.7,0,0,1-4.969,3.341c-.248-1.141.1-1.748,1.266-2.315a16.764,16.764,0,0,0,9.3-16.8,16.968,16.968,0,0,0-17.857-15.168,16.762,16.762,0,0,0-8.845,3.132C4186.05,1713.563,4185.974,1713.813,4186.247,1714.638Z" transform="translate(-3.327 -3.333)" fill="#fce265"/>
      <path id="Trazado_150673" data-name="Trazado 150673" d="M4211.023,1742.68a15.793,15.793,0,0,0,8.032-12.035,15.8,15.8,0,0,0-2.2-10.082,27.03,27.03,0,0,0-3.124-3.819,14.323,14.323,0,0,1,6.439,8.091,14.928,14.928,0,0,1-8.09,18.225C4211.532,1743.306,4211.211,1743.263,4211.023,1742.68Z" transform="translate(-12.697 -5.965)" fill="#e6b629"/>
      <path id="Trazado_150674" data-name="Trazado 150674" d="M4201.644,1760.207a3.784,3.784,0,0,1-3.046-2.772,3.861,3.861,0,0,1,1.129-4.213,3.821,3.821,0,0,1,4.086-.855,1.962,1.962,0,0,1,.7.949,5.366,5.366,0,0,1-2.005,6.66A1.027,1.027,0,0,1,4201.644,1760.207Z" transform="translate(-9.219 -15.701)" fill="#5bbc92"/>
      <path id="Trazado_150675" data-name="Trazado 150675" d="M4202.881,1760.3a5.024,5.024,0,0,0,3.11-4.226,5.943,5.943,0,0,0-.94-3.614,4.071,4.071,0,0,1-2.17,7.841Z" transform="translate(-10.456 -15.799)" fill="#2db17f"/>
      <path id="Trazado_150676" data-name="Trazado 150676" d="M4204.4,1733.437a1.343,1.343,0,0,0-.92-1.136c-.687-.318-1.416-.546-2.1-.862-2.26-1.039-2.87-3.433-1.336-5.177a1.169,1.169,0,0,1,.286-.28c.8-.422,1.434-.9,1.384-1.973-.02-.426.5-.644.979-.605a.89.89,0,0,1,.86.717,2.233,2.233,0,0,1,.048.665.468.468,0,0,0,.42.559,4.6,4.6,0,0,1,1.6.816,1.042,1.042,0,0,1,.337,1.462,1,1,0,0,1-1.475.2,2.9,2.9,0,0,0-1.857-.646,1.387,1.387,0,0,0-1.363.986c-.143.672.254,1.043.765,1.342a11.382,11.382,0,0,0,1.922.772,3.435,3.435,0,0,1,2.468,3.172,3.643,3.643,0,0,1-2.237,3.571.822.822,0,0,0-.587.942c.02.772-.349,1.174-.972,1.185s-1.021-.394-1.018-1.146c0-.481-.1-.718-.63-.794a3.881,3.881,0,0,1-1.53-.652,1.008,1.008,0,0,1-.406-1.386.986.986,0,0,1,1.4-.347,3.9,3.9,0,0,0,2.242.551A1.807,1.807,0,0,0,4204.4,1733.437Z" transform="translate(-9.358 -7.798)"/>
    </g>
  </g>
</svg>
