<svg xmlns="http://www.w3.org/2000/svg" width="77" height="77" viewBox="0 0 77 77">
  <g id="icon12" transform="translate(-1044 -1998)">
    <rect id="Rectángulo_35445" data-name="Rectángulo 35445" width="77" height="77" transform="translate(1044 1998)" fill="none"/>
    <g id="Grupo_133666" data-name="Grupo 133666" transform="translate(-2875.728 873.827)">
      <path id="Trazado_150897" data-name="Trazado 150897" d="M3973.511,1130.173a1.418,1.418,0,0,1,.637,1.389c-.012,6.728,0,13.456-.019,20.184,0,.522.075.722.663.694,1.21-.056,1.212-.016,1.212-1.221,0-.42.012-.841,0-1.261a1.022,1.022,0,0,1,.895-1.167c.663-.057,1.021.219,1.168.922a8.1,8.1,0,0,1,.061,1.571c.011.9.03.927.909.932,1.533.009,3.065-.013,4.6.009a12.272,12.272,0,0,1,1.259-.009c.48.017.681-.185.677-.667-.01-1.05,0-2.1,0-3.15,0-1.827.006-3.654,0-5.481,0-.734-.062-.781-.792-.795-.378-.007-.756.013-1.133-.013-1.513.022-3.026,0-4.539.01-.959,0-.967.012-.971,1,0,.8.008,1.6-.006,2.4a1.786,1.786,0,0,1-.264,1.023c-.231.332-.517.562-.957.368a1,1,0,0,1-.9-1.156c.01-1.515,0-3.031,0-4.546a2.085,2.085,0,0,1,.248-.964q2.309-4.544,4.6-9.1c.218-.432.473-.821,1.017-.813s.782.4,1,.836q2.252,4.467,4.524,8.924a2.948,2.948,0,0,1,.327,1.389c-.009,3.431.007,6.861-.017,10.292,0,.507.093.683.641.669,1.619-.041,3.24-.019,4.86-.013.951,0,1.288.353,1.266,1.307a37.69,37.69,0,0,1-3.558,14.459c-.094.211-.2.417-.282.632a1.045,1.045,0,0,1-1.336.736.9.9,0,0,1-.683-1.089,4.154,4.154,0,0,1,.4-1.127,38.191,38.191,0,0,0,3.2-11.057c.044-.377.023-.762.094-1.131.1-.542-.162-.668-.625-.656-.61.017-1.22-.017-1.831-.017q-20.738,0-41.476,0a1.537,1.537,0,0,0-.921.118,1.627,1.627,0,0,0-.433.757c-1.517,3.813-3.079,7.607-4.652,11.4-.368.887-.21,1.124.773,1.135.863.009,1.725,0,2.588,0,1.085.007,1.449.283,1.661,1.323.522,2.557,1.058,5.11,1.659,7.649.232.984.526,1.949.791,2.924.673,2.477,2.426,3.445,4.815,3.622a13.8,13.8,0,0,0,3.584-.163c1.173-.221,1.67.159,1.879,1.36.406,2.343.834,4.681,1.238,7.025.2,1.147.195,1.148,1.332,1.148h19.63c.252,0,.5,0,.757.007.441-.005.883.008,1.324,0,.621-.012.659-.051.567-.657-.258-1.7-.524-3.409-.785-5.113-.395-2.578-.8-5.154-1.188-7.732a2.756,2.756,0,0,1,.473-2.146c1.2-1.674,2.245-3.455,3.282-5.236a1.9,1.9,0,0,1,.652-.755c.352-.2.707-.293,1.016.084a1.056,1.056,0,0,1,.2,1.56q-1.581,2.793-3.372,5.457a1.136,1.136,0,0,0-.192.88q1.118,7.12,2.224,14.242a1.246,1.246,0,0,1-.617,1.49h-26.4a1.945,1.945,0,0,1-.662-1.273c-.435-2.589-.923-5.17-1.354-7.759-.088-.524-.369-.442-.707-.4a12.326,12.326,0,0,1-5.243-.36,6.633,6.633,0,0,1-4.554-5.022c-.848-3.079-1.521-6.2-2.133-9.328-.114-.587-.312-.824-.953-.789a11.615,11.615,0,0,1-2.581-.046,2.314,2.314,0,0,1-1.9-3.093c.686-1.89,1.5-3.733,2.256-5.6,1.06-2.624,2.127-5.246,3.164-7.879a1.243,1.243,0,0,1,1.339-.9c.862.028,1.725,0,2.588.01.23,0,.382-.01.426-.306.172-1.164.372-2.323.567-3.484a.311.311,0,0,0-.21-.392.949.949,0,0,1-.537-.982c.006-1.094,0-2.189,0-3.283a.808.808,0,0,1,.321-.78c.4-.211.318-.425.163-.747a4.739,4.739,0,0,1-.176-3.8,44.528,44.528,0,0,1,4.127-7.98,1.834,1.834,0,0,1,.625-.5h.505a1.382,1.382,0,0,1,.793.573,47.124,47.124,0,0,1,3.847,7.305,5.714,5.714,0,0,1,.117,4.246.822.822,0,0,0,.112.936,1.26,1.26,0,0,1,.237.895c0,1.01,0,2.02,0,3.03a1.349,1.349,0,0,1-.355,1.043.934.934,0,0,0-.254.87c.128.853.3,1.7.4,2.556.053.436.286.591.72.605,1.4.044,1.4.057,1.4-1.326q0-5.492,0-10.984a7.234,7.234,0,0,1,.019-.82,1.215,1.215,0,0,1,1.27-1.211,1.178,1.178,0,0,1,.979,1.343c.027,1.368.008,2.736.009,4.1q0,3.947,0,7.893c0,.959.017.969,1,.975,1.431.009,2.862-.022,4.292.015.481-.013.964-.021,1.445,0,.5.023.736-.147.712-.682-.028-.623-.078-.707-.74-.71-.775,0-1.55-.019-2.326-.018-.707-.157-1.078-.534-1.073-1.09a1.157,1.157,0,0,1,1.121-1.13,5.319,5.319,0,0,1,.935-.029c.525-.018,1.051,0,1.577-.009.337,0,.475-.156.5-.5.116-1.333.073-1.391-1.25-1.4a3.343,3.343,0,0,1-.755-.054,1.079,1.079,0,0,1-.9-1.115,1.046,1.046,0,0,1,.881-1.062,12.035,12.035,0,0,1,1.5-.036c.367,0,.523-.163.525-.53.005-1.574.079-1.354-1.249-1.372-.271,0-.542.01-.813-.007a3.775,3.775,0,0,1-1.115-.087q-.947-.27-.96-1.072c-.008-.53.286-.873.927-1.08.856-.018,1.713-.035,2.57-.022.445.006.627-.168.645-.627.051-1.391.066-1.39-1.309-1.4a4.642,4.642,0,0,1-.689-.03,1.048,1.048,0,0,1-.9-.98,1.036,1.036,0,0,1,.724-1.114,3.943,3.943,0,0,1,1.559-.146c.421,0,.615-.167.61-.6-.008-.821-.011-1.642,0-2.463.007-.425-.163-.615-.6-.607-.5.01-1.01.013-1.515,0-1.512.026-3.023,0-4.534.013-.74.006-.791.058-.8.78-.011.672.021,1.344-.014,2.015a1.13,1.13,0,0,1-1.165,1.212c-.759-.2-1.063-.514-1.086-1.251q-.058-1.858,0-3.718a1.045,1.045,0,0,1,.8-1.131Z" transform="translate(-9.614)"/>
      <path id="Trazado_150898" data-name="Trazado 150898" d="M3932.128,1154.483a.96.96,0,0,1-.915-.654c-.281-.609-.559-1.22-.813-1.84a3.8,3.8,0,0,0-2.155-2.17c-.62-.255-1.229-.537-1.841-.813a.972.972,0,0,1,.009-1.856c.573-.258,1.138-.537,1.723-.767a3.857,3.857,0,0,0,2.292-2.28c.229-.585.507-1.151.764-1.724a.979.979,0,0,1,1.883.01c.288.652.593,1.3.873,1.952a3.543,3.543,0,0,0,1.9,1.914q1.007.442,2.008.9a.973.973,0,0,1-.009,1.856c-.649.293-1.295.6-1.951.873a3.548,3.548,0,0,0-1.955,1.945c-.289.674-.59,1.343-.9,2.009A.953.953,0,0,1,3932.128,1154.483Z" transform="translate(0 -7.739)"/>
      <path id="Trazado_150899" data-name="Trazado 150899" d="M3962.083,1204.025c.176-.237.427-.11.637-.11q22.022-.008,44.045-.01c.5,0,.663.063.62.641a38,38,0,0,1-3.555,12.927c-.407.9-.351,1.17.312,1.684a13.279,13.279,0,0,0-.884,1.673,1.047,1.047,0,0,0-1.414.565q-1.707,3.021-3.665,5.885a1.724,1.724,0,0,0-.213,1.328q.722,4.674,1.445,9.347c.219,1.413.433,2.826.67,4.235.057.339-.067.391-.358.379-.588-.023-1.177-.02-1.766-.027a.979.979,0,0,1-.332-.724c-.689-4.388-1.355-8.779-2.039-13.168a2.094,2.094,0,0,1,.479-1.578c1.2-1.756,2.306-3.573,3.328-5.439a43.176,43.176,0,0,0,5.532-16.205c0-.042.012-.083.017-.125.112-.995.032-1.086-.978-1.086q-20.366,0-40.731-.005C3962.846,1204.212,3962.427,1204.323,3962.083,1204.025Z" transform="translate(-24.463 -49.598)" fill="#f4af84"/>
      <path id="Trazado_150900" data-name="Trazado 150900" d="M4059.483,1176.548c-1.784.008-3.568.009-5.353.031-.332,0-.376-.141-.37-.415.013-.672.015-1.344,0-2.016-.016-.781-.226-1.023-1-1.2a11.078,11.078,0,0,0,0-1.888c.756-.152.983-.408.993-1.2.014-1.11.017-2.221,0-3.331-.006-.348.083-.469.449-.464,1.759.025,3.519.022,5.278.03a1.074,1.074,0,0,1,.2.829q.009,4.4,0,8.794A1.094,1.094,0,0,1,4059.483,1176.548Z" transform="translate(-85.483 -24.151)" fill="#fdce4a"/>
      <path id="Trazado_150901" data-name="Trazado 150901" d="M4098.857,1136.744a.917.917,0,0,1-.6.878c-.572.261-1.141.528-1.722.769a3.3,3.3,0,0,0-1.854,1.868c-.232.561-.5,1.11-.743,1.665a.954.954,0,0,1-1.792.015q-.421-.914-.825-1.835a3.052,3.052,0,0,0-1.649-1.647c-.616-.265-1.224-.549-1.833-.828a.952.952,0,0,1,.015-1.79c.574-.257,1.144-.523,1.722-.769a3.225,3.225,0,0,0,1.782-1.771c.246-.579.517-1.147.771-1.722a.951.951,0,0,1,.9-.66.941.941,0,0,1,.912.646c.262.594.545,1.179.8,1.777a3.119,3.119,0,0,0,1.689,1.693c.615.267,1.226.545,1.835.825A.909.909,0,0,1,4098.857,1136.744Z" transform="translate(-108.666 -0.5)"/>
      <path id="Trazado_150902" data-name="Trazado 150902" d="M3951.161,1204.321l42.18.006c.908,0,.962,0,.886.926a34.27,34.27,0,0,1-1.531,7.484,55.578,55.578,0,0,1-5.118,11.135c-.8,1.382-1.692,2.7-2.568,4.035-.369.56-.149,1.065-.077,1.563.371,2.562.812,5.115,1.211,7.674.274,1.754.518,3.513.779,5.269a3.663,3.663,0,0,0,.112.425c-1.936.008-3.872.021-5.808.022-5.094,0-10.188-.009-15.282.016-.516,0-.667-.161-.746-.632-.446-2.632-.92-5.259-1.388-7.887-.179-1-.549-1.248-1.593-1.052a12.463,12.463,0,0,1-4.518.077,4.733,4.733,0,0,1-4.059-3.469c-1.054-3.486-1.739-7.054-2.47-10.613-.248-1.206-.4-1.347-1.619-1.348-.989,0-1.979.013-2.968,0-.675-.012-.881-.314-.63-.934q2.553-6.3,5.124-12.6C3951.093,1204.377,3951.133,1204.352,3951.161,1204.321Z" transform="translate(-13.541 -49.894)" fill="#fdc7a1"/>
      <path id="Trazado_150903" data-name="Trazado 150903" d="M4011.736,1141.885q-.019-.927-.038-1.855c.744-.175.951-.419.958-1.165.008-.842.013-1.684,0-2.525-.006-.3.079-.4.387-.4,1.724.019,3.449.019,5.173.026a.855.855,0,0,1,.189.645c.01.921.013,1.842,0,2.764a.721.721,0,0,1-.3.711c-.823.617-.779,1.293.117,1.812a3.6,3.6,0,0,1,.136,2.013c-.012.21-.167.311-.392.313a3.913,3.913,0,0,0-.871.031.906.906,0,0,0-.76,1.053c.081.608.529.8,1.079.826.27.013.54.023.811.034a3.026,3.026,0,0,1,0,2.289c-.954.575-.952,1.31.006,1.878a3.053,3.053,0,0,1-.007,2.289c-.27.009-.541.014-.811.028-.551.028-.983.227-1.081.832-.084.522.226.881.893,1.072.084.006-.019-.007.06.017.34.1.837-.207,1.017.215a1.589,1.589,0,0,1-.078,1.492c-1.66.008-3.321,0-4.981.035-.477.011-.588-.122-.585-.591.02-4.164,0-8.327.021-12.491C4012.671,1142.525,4012.455,1142.054,4011.736,1141.885Z" transform="translate(-57.849 -3.883)" fill="#fdce4a"/>
      <path id="Trazado_150904" data-name="Trazado 150904" d="M3979.275,1152.534c-.693.007-1.387.007-2.081.025a.7.7,0,0,1-.553-.236,3.087,3.087,0,0,1-.842-3.349,22.772,22.772,0,0,1,2.1-4.5c.3-.036.39.208.492.4a29.276,29.276,0,0,1,1.677,3.658,4.1,4.1,0,0,1-.223,3.353A1.168,1.168,0,0,1,3979.275,1152.534Z" transform="translate(-33.568 -9.622)" fill="#fb6240"/>
      <path id="Trazado_150905" data-name="Trazado 150905" d="M4073.306,1176.552q0-5.227,0-10.454c.608-.007,1.217,0,1.825-.027.314-.013.387.115.386.4q-.012,4.85,0,9.7c0,.288-.071.42-.386.406C4074.523,1176.555,4073.914,1176.56,4073.306,1176.552Z" transform="translate(-99.305 -24.155)" fill="#fba129"/>
      <path id="Trazado_150906" data-name="Trazado 150906" d="M3983.981,1148.535c1.395-1.847.908-3.7-.009-5.536a12.471,12.471,0,0,0-1.365-2.522l1.07-1.948a31.152,31.152,0,0,1,3.272,6.734,3.05,3.05,0,0,1-.951,3.1.632.632,0,0,1-.5.2C3984.99,1148.544,3984.485,1148.542,3983.981,1148.535Z" transform="translate(-38.274 -5.623)" fill="#dd5039"/>
      <path id="Trazado_150907" data-name="Trazado 150907" d="M3980.417,1189.8c-1.3.009-2.6.01-3.892.031-.32.005-.375-.081-.317-.4q.292-1.6.51-3.222c.045-.33.137-.464.494-.451.857.032,1.715.023,2.573.031a7.64,7.64,0,0,1,.549,2.543A2.4,2.4,0,0,1,3980.417,1189.8Z" transform="translate(-33.955 -37.406)" fill="#fcac52"/>
      <path id="Trazado_150908" data-name="Trazado 150908" d="M4062.148,1153.514h-4.488c.541-1.067,1.055-2.066,1.551-3.074.116-.236.3-.186.479-.187.315,0,.63.011.944.018a.685.685,0,0,1,.353.344q.588,1.15,1.151,2.313C4062.228,1153.116,4062.324,1153.316,4062.148,1153.514Z" transform="translate(-88.777 -13.51)" fill="#fdc7a1"/>
      <path id="Trazado_150909" data-name="Trazado 150909" d="M4031.259,1140.088a3.143,3.143,0,0,0,.111-1.421c.021-.9.005-1.8,0-2.7.629-.006,1.259,0,1.888-.025.31-.013.39.1.386.4-.014,1.092-.02,2.184,0,3.276.007.361-.151.4-.449.4A9.432,9.432,0,0,0,4031.259,1140.088Z" transform="translate(-71.012 -3.882)" fill="#fca129"/>
      <path id="Trazado_150910" data-name="Trazado 150910" d="M3987.817,1189.8l-.632-4.008c.585-.007,1.172.006,1.756-.03.333-.021.438.126.482.414q.253,1.642.524,3.281c.045.268-.02.383-.311.373C3989.03,1189.806,3988.424,1189.807,3987.817,1189.8Z" transform="translate(-41.355 -37.403)" fill="#df9249"/>
      <path id="Trazado_150911" data-name="Trazado 150911" d="M3980.07,1176.6c-1.4.007-2.8.007-4.206.026-.277,0-.34-.088-.355-.356-.069-1.294-.079-1.3,1.234-1.293,1.109,0,2.218.013,3.327.02A1.585,1.585,0,0,1,3980.07,1176.6Z" transform="translate(-33.481 -30.147)" fill="#dfdfdf"/>
      <path id="Trazado_150912" data-name="Trazado 150912" d="M4068.266,1153.4a15.772,15.772,0,0,0-1.2-2.625c-.091-.212-.21-.412-.316-.618a5.244,5.244,0,0,1,1.979.043c.569.249.667,1.093.988,1.666.263.468.487.959.776,1.534Z" transform="translate(-94.895 -13.391)" fill="#f4af84"/>
      <path id="Trazado_150913" data-name="Trazado 150913" d="M4028.172,1156.512a.514.514,0,0,1,.16-.086c.967-.121.967-.119.967-1.089q0-.591,0-1.182c.61,0,1.221.017,1.83,0,.311-.009.464.059.445.413a14.928,14.928,0,0,0,0,1.515c.016.338-.11.431-.435.427C4030.15,1156.5,4029.161,1156.509,4028.172,1156.512Z" transform="translate(-68.935 -16.137)" fill="#faa129"/>
      <path id="Trazado_150914" data-name="Trazado 150914" d="M4031.622,1169.423q0-1.144,0-2.289c.629-.01,1.259-.008,1.887-.036.316-.014.392.122.382.409-.017.5-.026,1.01,0,1.512.021.36-.143.413-.446.4C4032.84,1169.408,4032.231,1169.422,4031.622,1169.423Z" transform="translate(-71.256 -24.847)" fill="#fca129"/>
      <path id="Trazado_150915" data-name="Trazado 150915" d="M4031.62,1182.238q0-1.144.006-2.289c.608,0,1.217.02,1.824,0,.3-.007.465.047.443.405-.037.6.194,1.385-.1,1.769-.317.408-1.134.089-1.731.133A3.405,3.405,0,0,1,4031.62,1182.238Z" transform="translate(-71.255 -33.494)" fill="#fca229"/>
      <path id="Trazado_150916" data-name="Trazado 150916" d="M4029.562,1194.537c0-.1,0-.206,0-.309a4.087,4.087,0,0,0-.035-1.107c-.145-.471-.688-.037-.965-.307.967,0,1.934,0,2.9-.018.267,0,.4.078.366.357a.391.391,0,0,0,0,.063c.068,1.344.068,1.345-1.261,1.343C4030.233,1194.558,4029.9,1194.545,4029.562,1194.537Z" transform="translate(-69.198 -42.139)" fill="#fba129"/>
      <path id="Trazado_150917" data-name="Trazado 150917" d="M3989.5,1176.6V1175c.356-.007.712-.02,1.068-.021,1.232,0,1.219,0,1.157,1.263-.015.3-.107.4-.4.386C3990.719,1176.6,3990.11,1176.6,3989.5,1176.6Z" transform="translate(-42.914 -30.147)" fill="#c4c3c8"/>
      <path id="Trazado_150918" data-name="Trazado 150918" d="M4066.534,1139.823l.733,1.492h-1.4A9.18,9.18,0,0,1,4066.534,1139.823Z" transform="translate(-94.302 -6.494)" fill="#3b4f53"/>
      <path id="Trazado_150919" data-name="Trazado 150919" d="M3941.963,1154.747a3.159,3.159,0,1,1-6.318,0,5.632,5.632,0,0,0,3.154-3.168A5.717,5.717,0,0,0,3941.963,1154.747Z" transform="translate(-6.673 -14.405)" fill="#fdce4a"/>
      <path id="Trazado_150920" data-name="Trazado 150920" d="M4097.159,1143.449a5.2,5.2,0,0,0,2.563-2.571,2.575,2.575,0,0,1,.022,5.15A5.142,5.142,0,0,0,4097.159,1143.449Z" transform="translate(-115.357 -7.203)" fill="#fdce4a"/>
      <path id="Trazado_150921" data-name="Trazado 150921" d="M4019.831,1221.563a1.026,1.026,0,0,1-.667.91c-.651.291-1.294.6-1.951.875a3.669,3.669,0,0,0-2.034,2.039c-.28.656-.585,1.3-.874,1.953a.953.953,0,0,1-1.793,0c-.289-.651-.6-1.3-.874-1.952a3.657,3.657,0,0,0-2.031-2.041c-.658-.275-1.3-.585-1.952-.875a.961.961,0,0,1,0-1.826c.633-.279,1.26-.573,1.9-.843a3.747,3.747,0,0,0,2.085-2.074c.268-.638.57-1.261.848-1.9a.964.964,0,0,1,1.845,0c.271.614.57,1.216.823,1.837a3.778,3.778,0,0,0,2.168,2.156c.621.254,1.225.548,1.839.819A1.024,1.024,0,0,1,4019.831,1221.563Z" transform="translate(-54.685 -57.182)"/>
      <path id="Trazado_150922" data-name="Trazado 150922" d="M4020.1,1231.587a3.1,3.1,0,1,1-.028-6.193c1.459,2.113,1.459,2.113,3.122,3.059a8.11,8.11,0,0,0-1.832,1.233A7.507,7.507,0,0,0,4020.1,1231.587Z" transform="translate(-61.387 -64.075)" fill="#fca129"/>
    </g>
  </g>
</svg>
