<svg xmlns="http://www.w3.org/2000/svg" width="77" height="77" viewBox="0 0 77 77">
  <g id="icon4" transform="translate(-208 -1022)">
    <rect id="Rectángulo_35438" data-name="Rectángulo 35438" width="77" height="77" transform="translate(208 1022)" fill="none"/>
    <g id="ZhOpbf" transform="translate(-3138.099 -150.755)">
      <g id="Grupo_133648" data-name="Grupo 133648" transform="translate(3352.099 1178.755)">
        <path id="Trazado_150746" data-name="Trazado 150746" d="M3381.071,1233.44c-.232.847-.506,1.069-1.357,1.069q-12.127,0-24.253,0a3.212,3.212,0,0,1-3.359-3.376q0-24.488,0-48.977a3.216,3.216,0,0,1,3.4-3.4q26.632,0,53.265,0a3.21,3.21,0,0,1,3.373,3.362q.007,18.558,0,37.118c0,.851-.221,1.124-1.069,1.357a.971.971,0,0,1-1.216-.8,4.659,4.659,0,0,1-.073-1.2q0-13.765,0-27.53c0-1.465.038-1.365-1.337-1.367-.2,0-.4-.009-.6-.018-.357.034-.714.02-1.071.02h-50.982c-1.419,0-1.326-.073-1.326,1.3q0,18.088,0,36.176a7.837,7.837,0,0,1-.019.87c.034.98-.007,1.961.02,2.942.022.828.312,1.114,1.136,1.162.267.015.535.008.8.008q11.369,0,22.738,0a4.359,4.359,0,0,1,1.131.072A.97.97,0,0,1,3381.071,1233.44Z" transform="translate(-3352.099 -1178.755)" fill="#231f20"/>
        <path id="Trazado_150747" data-name="Trazado 150747" d="M3465.481,1314.382q2.008.011,4.017.022c.96.006,1.34.379,1.341,1.334q0,9.378,0,18.755c0,.988-.377,1.353-1.388,1.354q-3.986,0-7.971,0c-1,0-1.407-.372-1.344-1.379.042-.667-.167-.822-.8-.781a3.685,3.685,0,0,0-2.111.732,7.135,7.135,0,0,1-4.747,1.448c-4.129-.063-8.261-.034-12.391-.012a3.281,3.281,0,0,1-3.136-1.659,3.044,3.044,0,0,1,.217-3.461c.112-.159.177-.263.034-.459a3.241,3.241,0,0,1,.088-4.075,2.492,2.492,0,0,1-.928-2.308c.029-.566-.142-.742-.7-.732-1.424.028-2.848.008-4.272.009a3.481,3.481,0,0,1-3.428-2.291,3.409,3.409,0,0,1,3.383-4.515c4.308-.013,8.617,0,13.079,0-.53-.359-.955-.646-1.356-.964a4.492,4.492,0,0,1,.344-7.338,1.179,1.179,0,0,1,1.438.012c1.259.807,2.513,1.621,3.756,2.453q1.5,1.007,3.01,2c1.514,1.021,3.057,2,4.551,3.05a4.9,4.9,0,0,0,3.239.783c.365-.02.49-.19.529-.537.149-1.337.448-1.6,1.772-1.607q1.47-.006,2.939,0A1.264,1.264,0,0,1,3465.481,1314.382Z" transform="translate(-3406.506 -1271.515)" fill="#231f20"/>
        <path id="Trazado_150748" data-name="Trazado 150748" d="M3526.065,1248.86q-2,.011-4,.022c-.994.006-1.4.373-1.342,1.375.04.66-.172.764-.8.795a5.556,5.556,0,0,1-3.734-1.126c-1.32-.975-2.71-1.853-4.07-2.774a.2.2,0,0,1,.053-.24,45.434,45.434,0,0,0,3.214-3.4.529.529,0,0,1,.234-.127c1.091-.121,2.186-.028,3.278-.057a4.944,4.944,0,0,0,.8-.035.852.852,0,0,0-.039-1.7,12.84,12.84,0,0,0-1.338-.027,2.985,2.985,0,0,1-.995-.082c-.281-.177-.142-.4-.028-.576.377-.576.706-1.183,1.117-1.737a2.062,2.062,0,0,1,.972-.116c.47-.012.894-.112,1.061-.613a.91.91,0,0,0-.472-1.117.659.659,0,0,1-.311-.331,1.076,1.076,0,0,1,.147-.706,31.788,31.788,0,0,0,2.661-9.77c.313-2.912.128-5.838.176-8.757.006-.349-.074-.721.193-1.024.688.005,1.566-.243,2.011.089.425.317.128,1.25.129,1.91q.013,13.837.006,27.674c0,.921.2,1.185,1.073,1.421Z" transform="translate(-3467.091 -1205.993)" fill="#fde27e"/>
        <path id="Trazado_150749" data-name="Trazado 150749" d="M3379.166,1353.529a3.5,3.5,0,0,0,3.638,2.159c1.491-.059,2.988,0,4.481-.019.375,0,.509.051.394.477a3.4,3.4,0,0,0,.685,2.75l-1.811,0c-.234-.868-.5-1.074-1.417-1.074h-23.882c-1.219,0-1.529-.313-1.526-1.549,0-.914.014-1.828.021-2.741a1.143,1.143,0,0,1,.884-.214q8.822-.009,17.645,0A1.246,1.246,0,0,1,3379.166,1353.529Z" transform="translate(-3357.582 -1304.209)" fill="#fde27e"/>
        <path id="Trazado_150750" data-name="Trazado 150750" d="M3379.126,1255.435H3359.71c-.008-.223-.021-.446-.021-.669q0-18.594-.015-37.188c0-.61.152-.757.758-.756q26.1.026,52.2.015c.223,0,.446.014.668.021,0,2.251.015,4.5,0,6.753a32.124,32.124,0,0,1-2.4,11.855,6.385,6.385,0,0,0-.686,1.723c-.285.3-.661.222-1.008.224-3.03.008-6.059,0-9.089,0a3.261,3.261,0,0,0-.93.067.816.816,0,0,0,0,1.592,3.016,3.016,0,0,0,.863.066c2.606,0,5.212,0,7.819.005.346,0,.723-.077,1.006.227a11.713,11.713,0,0,1-1.208,2.1c-.217.26-.522.21-.8.213-.865.012-1.731,0-2.6.005a4.194,4.194,0,0,0-.6.022.873.873,0,0,0-.856.85.848.848,0,0,0,.844.854c.486.058.976.009,1.463.028.281.011.586-.045.8.215a23.327,23.327,0,0,1-3.356,3.609q-3.125-2.061-6.248-4.122c-1.247-.824-1.436-.8-2.487.278a4.271,4.271,0,0,0,.436,6.471c.507.4,1.045.754,1.735,1.248h-.858c-4.108,0-8.218.1-12.321-.037C3380.391,1251.031,3378.441,1252.853,3379.126,1255.435Z" transform="translate(-3357.542 -1206.114)" fill="#fde99d"/>
        <path id="Trazado_150751" data-name="Trazado 150751" d="M3387.556,1192.813q-13.565,0-27.13.016c-.636,0-.769-.19-.753-.779.041-1.45.01-2.9.015-4.354,0-.926.379-1.315,1.291-1.315q26.594,0,53.188,0c.878,0,1.269.392,1.273,1.264.008,1.5-.025,2.993.016,4.488.016.565-.153.693-.7.692Q3401.154,1192.8,3387.556,1192.813Z" transform="translate(-3357.542 -1184.235)" fill="#1371eb"/>
        <path id="Trazado_150752" data-name="Trazado 150752" d="M3445.655,1325.7c2.747,0,5.493-.008,8.24.006.619,0,1.124-.144,1.319-.781.188-.617-.173-1-.645-1.332q-2.023-1.43-4.025-2.887a2.158,2.158,0,0,1-.841-2.647c.189-.467.368-.664.905-.3,3.157,2.138,6.376,4.188,9.5,6.371a7.531,7.531,0,0,0,5.247,1.567c.475-.05.644.069.64.6-.026,3.907-.021,7.816,0,11.723,0,.428-.1.584-.547.556a5.282,5.282,0,0,0-3.626,1.13,5.154,5.154,0,0,1-3.37,1.025c-4.086-.049-8.173-.018-12.26-.018-.156,0-.313,0-.469,0a1.093,1.093,0,0,1-1.18-1.092,1.079,1.079,0,0,1,1.155-1.047c.625-.015,1.25,0,1.876-.005.773-.01,1.263-.439,1.254-1.086s-.5-1.048-1.283-1.056c-.625-.006-1.251.013-1.875-.006a1.07,1.07,0,1,1,.017-2.136c.647-.017,1.3.005,1.942-.007a1.077,1.077,0,1,0,0-2.139c-.625-.011-1.251.006-1.876,0a1.077,1.077,0,1,1-.007-2.14c.581-.012,1.161,0,1.742,0,.843-.005,1.339-.4,1.345-1.063s-.492-1.079-1.325-1.08q-4.991,0-9.982,0c-.156,0-.313.008-.469,0a1.083,1.083,0,0,1-1.086-1.052,1.064,1.064,0,0,1,1.115-1.085c.938-.02,1.876-.005,2.814-.006Z" transform="translate(-3412.374 -1278.519)" fill="#fdbbac"/>
        <path id="Trazado_150753" data-name="Trazado 150753" d="M3556.717,1347.461c0,2.633-.015,5.267.013,7.9.006.514-.146.63-.637.621-1.762-.03-3.526-.023-5.289,0-.4,0-.531-.1-.53-.521q.021-8.067,0-16.134c0-.424.132-.522.533-.518,1.763.02,3.526.027,5.289,0,.495-.009.639.115.634.624C3556.7,1342.1,3556.717,1344.783,3556.717,1347.461Z" transform="translate(-3494.528 -1293.781)" fill="#1371eb"/>
        <path id="Trazado_150754" data-name="Trazado 150754" d="M3507.543,1291.414l-9.023-.022a4.873,4.873,0,0,1-.6-.01,1.062,1.062,0,0,1-.959-1.1,1.039,1.039,0,0,1,.96-1.027,4.393,4.393,0,0,1,.668-.011l10.293-.019a1.107,1.107,0,0,1,.921,1.258c-.074.6-.549.9-1.333.905C3508.159,1291.4,3507.851,1291.406,3507.543,1291.414Z" transform="translate(-3456.209 -1258.153)" fill="#231f20"/>
        <path id="Trazado_150755" data-name="Trazado 150755" d="M3515.544,1306.651c-.71-.008-1.42-.01-2.13-.024a1.08,1.08,0,1,1,.01-2.141c1.287-.014,2.574-.017,3.861-.024.755.007,1.509.01,2.263.024a1.08,1.08,0,1,1-.01,2.141C3518.208,1306.641,3516.876,1306.643,3515.544,1306.651Z" transform="translate(-3467.161 -1269.101)" fill="#231f20"/>
        <path id="Trazado_150756" data-name="Trazado 150756" d="M3387.832,1257.852c-2.389,0-4.778-.017-7.166.011a1.389,1.389,0,0,1-1.472-.894c-.3-.693-.7-1.344-1.01-2.034a3.665,3.665,0,0,0-1.687-1.9,3.131,3.131,0,0,1,.108-5.483.81.81,0,0,0,.5-.8,10.65,10.65,0,0,1,7.235-9.728c.492-.165.579-.3.406-.808a3.1,3.1,0,0,1,1.184-3.492,3.21,3.21,0,0,1,3.7-.038,3.1,3.1,0,0,1,1.235,3.531c-.181.53-.046.642.425.8a10.687,10.687,0,0,1,7.218,9.748.823.823,0,0,0,.513.8,3.18,3.18,0,0,1-.379,5.745,1.265,1.265,0,0,0-.746.682c-.49,1.025-1.023,2.03-1.513,3.055a1.3,1.3,0,0,1-1.319.815C3392.654,1257.84,3390.243,1257.852,3387.832,1257.852Z" transform="translate(-3368.507 -1217.108)" fill="#231f20"/>
        <path id="Trazado_150757" data-name="Trazado 150757" d="M3490.254,1241.768q-3.582,0-7.163,0c-1.042,0-1.4-.36-1.4-1.412q0-3.447,0-6.895c0-.963.375-1.341,1.331-1.341q7.229,0,14.458,0c1,0,1.363.369,1.364,1.378q0,3.447,0,6.895c0,1.006-.366,1.375-1.366,1.376Q3493.868,1241.771,3490.254,1241.768Z" transform="translate(-3445.239 -1217.106)" fill="#231f20"/>
        <path id="Trazado_150758" data-name="Trazado 150758" d="M3490.347,1274.047q3.579,0,7.159,0c.845,0,1.338.392,1.35,1.055s-.49,1.087-1.317,1.087q-7.26,0-14.519,0c-.826,0-1.327-.423-1.315-1.089s.5-1.052,1.35-1.053Q3486.7,1274.044,3490.347,1274.047Z" transform="translate(-3445.246 -1247.241)" fill="#231f20"/>
        <path id="Trazado_150759" data-name="Trazado 150759" d="M3368.921,1196.124c-.178,0-.357.013-.533,0a1.072,1.072,0,0,1-1.032-1.091,1.061,1.061,0,0,1,1.013-1.04,9.629,9.629,0,0,1,1-.007,1.077,1.077,0,1,1,.02,2.142c-.156.005-.311,0-.466,0Z" transform="translate(-3363.064 -1189.693)" fill="#231f21"/>
        <path id="Trazado_150760" data-name="Trazado 150760" d="M3388.017,1194c1.093,0,1.595.328,1.608,1.053.013.744-.509,1.092-1.638,1.092-.155,0-.311.007-.466,0a1.072,1.072,0,1,1,.029-2.141C3387.706,1193.992,3387.862,1194,3388.017,1194Z" transform="translate(-3376.76 -1189.708)" fill="#231f21"/>
        <path id="Trazado_150761" data-name="Trazado 150761" d="M3407.085,1196.147c-1.1,0-1.6-.325-1.614-1.047-.018-.745.506-1.1,1.63-1.1h.133c.948,0,1.454.38,1.448,1.08s-.507,1.063-1.465,1.065Z" transform="translate(-3390.457 -1189.713)" fill="#231f21"/>
        <path id="Trazado_150762" data-name="Trazado 150762" d="M3560.075,1382.395c0,1.086-.337,1.592-1.064,1.6s-1.081-.509-1.081-1.581c0-1.125.352-1.648,1.1-1.631C3559.75,1380.8,3560.075,1381.3,3560.075,1382.395Z" transform="translate(-3500.03 -1323.951)" fill="#231f21"/>
        <path id="Trazado_150763" data-name="Trazado 150763" d="M3398.755,1263.534c-2.632,0-5.264-.014-7.9.012-.522.005-.678-.117-.639-.656a8.586,8.586,0,0,1,16.875-1.5c.537,2.147.537,2.147-1.649,2.147Z" transform="translate(-3379.493 -1233.512)" fill="#fdc27d"/>
        <path id="Trazado_150764" data-name="Trazado 150764" d="M3393.25,1295.242h-9.1a5.282,5.282,0,0,1-.535-.007,1.067,1.067,0,0,1-.023-2.13,4.787,4.787,0,0,1,.535-.008h18.405c.156,0,.313-.009.468,0a1.068,1.068,0,0,1,.023,2.134c-.177.017-.357.006-.535.006Z" transform="translate(-3374.022 -1260.931)" fill="#fca542"/>
        <path id="Trazado_150765" data-name="Trazado 150765" d="M3408.447,1308.448c-.329.664-.638,1.275-.932,1.892-.111.233-.3.226-.5.226q-6.458,0-12.917,0c-.207,0-.39,0-.5-.233-.292-.618-.6-1.227-.927-1.886Z" transform="translate(-3381.256 -1271.965)" fill="#fdc27d"/>
        <path id="Trazado_150766" data-name="Trazado 150766" d="M3419.045,1240.824a1.071,1.071,0,1,1-1.049-1.075A1.082,1.082,0,0,1,3419.045,1240.824Z" transform="translate(-3398.675 -1222.591)" fill="#fa952c"/>
        <path id="Trazado_150767" data-name="Trazado 150767" d="M3495.8,1239.708c1.919,0,3.839.02,5.757-.013.518-.009.629.151.618.638-.032,1.405-.026,2.812,0,4.217.007.407-.1.53-.521.528q-5.924-.024-11.849,0c-.427,0-.52-.137-.514-.534.021-1.428.024-2.856,0-4.284-.007-.433.11-.568.554-.562C3491.826,1239.721,3493.813,1239.708,3495.8,1239.708Z" transform="translate(-3450.695 -1222.552)" fill="#fb634a"/>
        <path id="Trazado_150768" data-name="Trazado 150768" d="M3418.3,1258.821a7.528,7.528,0,0,1,6.664,4.784,1.079,1.079,0,1,1-1.977.815,5.328,5.328,0,0,0-4.945-3.461,1.09,1.09,0,0,1-1.133-1.134C3416.945,1259.161,3417.448,1258.8,3418.3,1258.821Z" transform="translate(-3398.673 -1236.298)" fill="#231f20"/>
      </g>
    </g>
  </g>
</svg>
