<svg xmlns="http://www.w3.org/2000/svg" width="77" height="77" viewBox="0 0 77 77">
  <g id="icon14" transform="translate(-623 -2481)">
    <rect id="Rectángulo_35449" data-name="Rectángulo 35449" width="77" height="77" transform="translate(623 2481)" fill="none"/>
    <g id="ajRFrb" transform="translate(-1902.871 1578.61)">
      <g id="Grupo_133668" data-name="Grupo 133668" transform="translate(2531.871 906.39)">
        <path id="Trazado_150923" data-name="Trazado 150923" d="M2535.964,1054.062l.012-1.565a2.847,2.847,0,0,0,.377-1.664q-.028-2.4,0-4.794a2.766,2.766,0,0,0-.373-1.593l-.013-1.6a2.959,2.959,0,0,0,.375-1.742q-.015-3.494,0-6.988c0-1.11.144-1.249,1.271-1.249q27.478-.006,54.956,0c1.179,0,1.312.128,1.313,1.282q.009,8.334,0,16.669c0,.354.106.821-.249,1s-.656-.206-.933-.415a17.216,17.216,0,0,0-19.177-1.113,3,3,0,0,1-.907.45c-1.085.084-2.173.024-3.26.047-1.205.025-1.544.365-1.545,1.573,0,1.063-.021,2.126.014,3.189a19.514,19.514,0,0,1-1.05,2.071,17,17,0,0,0,1.434,17.485c.221.332.69.661.492,1.058s-.743.249-1.144.249c-8.907.006-17.814-.03-26.72.03a4.361,4.361,0,0,1-4.491-4.49q.007-7.135,0-14.27c0-.631-.015-1.262,0-1.893A2.777,2.777,0,0,0,2535.964,1054.062Z" transform="translate(-2535.367 -1014.406)" fill="#71c9f4"/>
        <path id="Trazado_150924" data-name="Trazado 150924" d="M2532.469,946.046c.586.138.616.571.615,1.069-.01,5.58.036,11.16-.025,16.739a4.238,4.238,0,0,0,4.356,4.391c9.049-.061,18.1-.024,27.147-.025.187,0,.373-.017.58-.028-4.719-6.724-5.225-13.6-.941-20.684a4.16,4.16,0,0,1,1.264-1.9,11.228,11.228,0,0,1,3.573-3.019,19.2,19.2,0,0,1,6-2.514,17.25,17.25,0,0,1,14.757,3.494c.076.059.153.117.235.179.235-.133.12-.35.121-.516.007-5.8,0-11.6.017-17.4,0-.544-.1-.742-.706-.741q-27.839.026-55.679,0c-.594,0-.717.183-.712.736.027,2.668,0,5.337.02,8.006,0,.49-.084.865-.614,1-.475-.145-.588-.48-.587-.951.012-5.825,0-11.65.014-17.475a5.189,5.189,0,0,1,5.2-5.176c2.063-.014,4.127-.031,6.189.012.655.014.856-.149.839-.824a3.683,3.683,0,0,1,2.167-3.58,3.816,3.816,0,0,1,4.122.342,4.71,4.71,0,0,1,1.434,1.885,1.541,1.541,0,0,1,.366,1.284c-.011.5.205.708.7.684a2.181,2.181,0,0,1,1.135.174c5.551.007,11.1,0,16.653.036.607,0,.522-.317.519-.678a3.853,3.853,0,0,1,2.447-3.847,3.925,3.925,0,0,1,4.96,1.7c.119.209.223.428.334.642a1.7,1.7,0,0,1,.345,1.3c-.014.5.212.7.7.681a2.5,2.5,0,0,1,1.278.178c1.4.005,2.8.064,4.2,0a5.461,5.461,0,0,1,5.372,2.958,2.891,2.891,0,0,1,.687,2.228c.01,2.96,0,5.92,0,8.88,0,6.139.009,12.277-.011,18.416a2.739,2.739,0,0,0,.671,1.919,17.5,17.5,0,0,1,4.236,9.874,17.673,17.673,0,0,1-29.566,14.682,1.666,1.666,0,0,0-1.182-.461c-1.14.007-2.281,0-3.421,0q-11.974,0-23.948.006a17.7,17.7,0,0,1-2.317-.2,1.374,1.374,0,0,1-1.017-.5,5.653,5.653,0,0,1-3.113-5.533c.066-5.473.024-10.947.015-16.421C2531.885,946.593,2531.934,946.193,2532.469,946.046Z" transform="translate(-2531.871 -906.39)"/>
        <path id="Trazado_150925" data-name="Trazado 150925" d="M2532.645,1112.172a.758.758,0,0,1,.591.867q-.021,3.166,0,6.333c0,.443-.116.762-.594.85a.679.679,0,0,1-.58-.782q.014-3.236,0-6.472A.737.737,0,0,1,2532.645,1112.172Z" transform="translate(-2532.032 -1082.132)" fill="#3a2e5f"/>
        <path id="Trazado_150926" data-name="Trazado 150926" d="M2662.767,1071.384c0-.922-.007-1.844,0-2.766.009-.839.394-1.286,1.229-1.3q2.838-.045,5.677,0a1.157,1.157,0,0,1,1.245,1.3q.014,2.766,0,5.532c0,.912-.417,1.317-1.346,1.321q-2.73.012-5.459,0c-.961,0-1.342-.406-1.348-1.39C2662.763,1073.18,2662.767,1072.282,2662.767,1071.384Z" transform="translate(-2643.657 -1043.807)" fill="#d4fafd"/>
        <path id="Trazado_150927" data-name="Trazado 150927" d="M2760.717,1071.426c0,.922.008,1.845,0,2.767a1.139,1.139,0,0,1-1.3,1.29q-2.767.015-5.534,0c-.916,0-1.313-.418-1.317-1.35q-.01-2.731,0-5.461a1.173,1.173,0,0,1,1.34-1.342q2.73-.027,5.461,0c.958.009,1.347.434,1.352,1.4C2760.721,1069.63,2760.717,1070.528,2760.717,1071.426Z" transform="translate(-2720.341 -1043.824)" fill="#d4fafd"/>
        <path id="Trazado_150928" data-name="Trazado 150928" d="M2850.519,1071.48c0,.9.006,1.794,0,2.692-.009.942-.392,1.339-1.307,1.342q-2.728.01-5.456,0c-1,0-1.391-.406-1.394-1.422q-.007-2.619,0-5.238c0-1.027.48-1.5,1.525-1.5q2.546-.008,5.092,0c1.16,0,1.536.375,1.541,1.507C2850.522,1069.734,2850.519,1070.607,2850.519,1071.48Z" transform="translate(-2797.031 -1043.853)" fill="#d4fafd"/>
        <path id="Trazado_150929" data-name="Trazado 150929" d="M2576.965,1075.478c-.946,0-1.891.01-2.837,0a1.083,1.083,0,0,1-1.178-1.172q-.025-2.873,0-5.746a1.106,1.106,0,0,1,1.221-1.228c1.891-.029,3.783-.024,5.674,0a1.221,1.221,0,0,1,1.25,1.251q.031,2.873,0,5.747a1.1,1.1,0,0,1-1.219,1.15C2578.9,1075.491,2577.935,1075.478,2576.965,1075.478Z" transform="translate(-2566.942 -1043.817)" fill="#d4fafd"/>
        <path id="Trazado_150930" data-name="Trazado 150930" d="M2572.958,1158.17c0-.9-.008-1.8,0-2.693.009-.859.373-1.311,1.2-1.326,1.916-.034,3.833-.028,5.749,0a1.209,1.209,0,0,1,1.2,1.224q.033,2.91,0,5.821a1.064,1.064,0,0,1-1.123,1.094q-2.983.029-5.967,0a1.043,1.043,0,0,1-1.053-1.135C2572.949,1160.159,2572.959,1159.164,2572.958,1158.17Z" transform="translate(-2566.958 -1117.963)" fill="#d4fafd"/>
        <path id="Trazado_150931" data-name="Trazado 150931" d="M2666.77,1162.3c-.946,0-1.891.01-2.837,0a1.087,1.087,0,0,1-1.177-1.175q-.024-2.873,0-5.747a1.136,1.136,0,0,1,1.239-1.224q2.836-.041,5.674,0a1.236,1.236,0,0,1,1.237,1.325q.01,2.764,0,5.528a1.142,1.142,0,0,1-1.3,1.295C2668.662,1162.312,2667.716,1162.3,2666.77,1162.3Z" transform="translate(-2643.64 -1117.966)" fill="#d4fafd"/>
        <path id="Trazado_150932" data-name="Trazado 150932" d="M2666.77,1249.126c-.946,0-1.891.01-2.837,0a1.088,1.088,0,0,1-1.176-1.176q-.023-2.873,0-5.747a1.135,1.135,0,0,1,1.24-1.223q2.837-.04,5.674,0a1.219,1.219,0,0,1,1.232,1.265q.026,2.837,0,5.674a1.107,1.107,0,0,1-1.223,1.207C2668.71,1249.134,2667.74,1249.126,2666.77,1249.126Z" transform="translate(-2643.641 -1192.117)" fill="#d4fafd"/>
        <path id="Trazado_150933" data-name="Trazado 150933" d="M2577,1249.126c-.946,0-1.891.009-2.837,0a1.08,1.08,0,0,1-1.208-1.207q-.013-2.8,0-5.6c0-.876.406-1.328,1.271-1.34,1.867-.025,3.734-.022,5.6,0a1.227,1.227,0,0,1,1.279,1.3q.026,2.837,0,5.674a1.1,1.1,0,0,1-1.195,1.175C2578.941,1249.141,2577.971,1249.126,2577,1249.126Z" transform="translate(-2566.953 -1192.118)" fill="#d4fafd"/>
        <path id="Trazado_150934" data-name="Trazado 150934" d="M2757.3,1154.23a19.472,19.472,0,0,0-4.837,4.923,17.2,17.2,0,0,1-.064-4.014c.035-.631.65-.92,1.287-.924C2754.89,1154.206,2756.095,1154.223,2757.3,1154.23Z" transform="translate(-2720.133 -1118.035)" fill="#d4fafd"/>
        <path id="Trazado_150935" data-name="Trazado 150935" d="M2568.478,959.069q-13.832,0-27.664.016c-.7,0-.9-.168-.881-.877.049-2.183.013-4.368.019-6.552a4.04,4.04,0,0,1,4.09-4.112c2.111,0,4.223.015,6.333-.013.521-.007.662.162.647.663-.033,1.091-.022,2.184,0,3.276a3.854,3.854,0,0,0,3.872,3.81,3.894,3.894,0,0,0,3.987-3.786c.026-1.14.02-2.281,0-3.421-.008-.416.135-.537.542-.537q9.064.015,18.127,0c.447,0,.588.133.576.578-.028,1.067-.014,2.135-.008,3.2a3.9,3.9,0,0,0,3.886,3.964,3.861,3.861,0,0,0,3.981-3.923c.012-1.092.018-2.184,0-3.276-.008-.408.124-.548.539-.545,2.256.016,4.514-.021,6.77.018a4.029,4.029,0,0,1,3.755,3.925c.019,2.305-.013,4.611.018,6.916.008.555-.162.688-.7.685-4.271-.021-8.542-.012-12.813-.012Z" transform="translate(-2538.755 -941.527)" fill="#178aeb"/>
        <path id="Trazado_150936" data-name="Trazado 150936" d="M2773.033,1158.411a14.608,14.608,0,0,1,1.211,6.564,16.208,16.208,0,0,1-4,10.232,16.2,16.2,0,0,1-22.52,2.011,15.992,15.992,0,0,1-6.054-13.745,15.542,15.542,0,0,1,.892-4.393c.077-.222.137-.473.385-.591a11.248,11.248,0,0,1,2.066-3.31,16.466,16.466,0,0,1,10.694-5.787,16.742,16.742,0,0,1,15.686,6.4A25.745,25.745,0,0,1,2773.033,1158.411Z" transform="translate(-2711.022 -1113.794)" fill="#ba608a"/>
        <path id="Trazado_150937" data-name="Trazado 150937" d="M2623.825,920.446c0-.995-.015-1.99,0-2.985a2.757,2.757,0,0,1,5.513-.024q.049,2.984,0,5.969a2.758,2.758,0,0,1-5.516-.049C2623.814,922.388,2623.825,921.417,2623.825,920.446Z" transform="translate(-2610.397 -913.526)" fill="#d4fafd"/>
        <path id="Trazado_150938" data-name="Trazado 150938" d="M2814.949,920.447c0,.995.018,1.99,0,2.984a2.757,2.757,0,0,1-5.51.047c-.04-2.013-.033-4.028,0-6.041a2.757,2.757,0,0,1,5.514.026C2814.966,918.457,2814.95,919.453,2814.949,920.447Z" transform="translate(-2768.892 -913.526)" fill="#d4fafd"/>
        <path id="Trazado_150939" data-name="Trazado 150939" d="M2780.541,1152.557c-.344-.08-.382-.418-.526-.652a16.616,16.616,0,0,0-12.342-8.183,16.815,16.815,0,0,0-16.877,8.36c-.11.188-.23.368-.346.552a1.189,1.189,0,0,1,.21-.755,16.277,16.277,0,0,1,29.88.678Z" transform="translate(-2718.531 -1107.94)" fill="#fefefe"/>
        <path id="Trazado_150940" data-name="Trazado 150940" d="M2676.5,1077.746c-.07.132-.146.307-.249.467-.814,1.262-1.627,2.524-2.453,3.778-.425.645-.7.669-1.267.142-.5-.46-.987-.932-1.484-1.395-.3-.281-.584-.6-.228-.986.339-.369.683-.171,1.011.106.416.351.753,1.078,1.235.976.374-.079.614-.807.906-1.252.465-.708.924-1.421,1.385-2.132a.619.619,0,0,1,.742-.311C2676.363,1077.218,2676.475,1077.427,2676.5,1077.746Z" transform="translate(-2650.395 -1052.187)" fill="#3a2f5f"/>
        <path id="Trazado_150941" data-name="Trazado 150941" d="M2760.525,1079.474c.472.094.723.517,1.055.82.7.639.69.649,1.188-.118.58-.893,1.168-1.781,1.74-2.68.234-.367.527-.636.945-.364s.257.664.029,1.014c-.818,1.258-1.627,2.521-2.452,3.775-.411.625-.683.665-1.215.181-.573-.522-1.131-1.062-1.69-1.6a.567.567,0,0,1-.159-.718A.6.6,0,0,1,2760.525,1079.474Z" transform="translate(-2726.61 -1052.111)" fill="#3a2f5f"/>
        <path id="Trazado_150942" data-name="Trazado 150942" d="M2857.337,1077.667a.781.781,0,0,1-.2.531c-.83,1.28-1.668,2.553-2.49,3.838-.339.53-.71.616-1.177.172q-.817-.777-1.636-1.55c-.3-.283-.46-.61-.116-.938.295-.281.624-.183.906.079.053.049.1.1.156.151,1.134,1.055,1.133,1.055,1.964-.221.5-.771,1.008-1.539,1.509-2.31a.592.592,0,0,1,.753-.262A.474.474,0,0,1,2857.337,1077.667Z" transform="translate(-2804.862 -1052.19)" fill="#3a2f5f"/>
        <path id="Trazado_150943" data-name="Trazado 150943" d="M2583.334,1082.427a.814.814,0,0,1-.514-.243c-.565-.531-1.127-1.064-1.694-1.593-.3-.284-.45-.613-.123-.941.289-.289.621-.189.905.069.072.065.142.132.212.2,1.087,1.017,1.087,1.016,1.917-.261.475-.731.958-1.456,1.422-2.193.222-.353.517-.573.9-.346.439.261.314.636.074,1q-1.257,1.911-2.5,3.834A.868.868,0,0,1,2583.334,1082.427Z" transform="translate(-2573.672 -1052.115)" fill="#3a2f5f"/>
        <path id="Trazado_150944" data-name="Trazado 150944" d="M2583.444,1169.264a7.763,7.763,0,0,1-2.5-2.345.5.5,0,0,1,.235-.5.6.6,0,0,1,.741.063,9.4,9.4,0,0,1,.951.9c.358.419.539.274.781-.115.6-.967,1.236-1.91,1.85-2.868.239-.372.521-.726.986-.426s.235.7,0,1.068q-1.214,1.852-2.416,3.713C2583.906,1169,2583.749,1169.246,2583.444,1169.264Z" transform="translate(-2573.777 -1126.274)" fill="#3a2f5f"/>
        <path id="Trazado_150945" data-name="Trazado 150945" d="M2676.478,1164.34a.887.887,0,0,1-.191.695c-.829,1.281-1.656,2.563-2.5,3.836-.406.614-.678.642-1.215.15s-1.057-1-1.589-1.495c-.3-.281-.47-.606-.138-.938s.665-.177.96.1.616.551.892.856.427.239.633-.092c.653-1.048,1.34-2.075,2.012-3.112a.644.644,0,0,1,.725-.358A.516.516,0,0,1,2676.478,1164.34Z" transform="translate(-2650.404 -1126.365)" fill="#3a2f5f"/>
        <path id="Trazado_150946" data-name="Trazado 150946" d="M2676.506,1251.348a.956.956,0,0,1-.226.542c-.817,1.26-1.63,2.522-2.455,3.777-.433.659-.695.69-1.262.167-.535-.492-1.057-1-1.589-1.5-.279-.26-.433-.564-.151-.885.3-.347.646-.235.954.039.054.048.105.1.159.149,1.138,1.041,1.138,1.041,1.966-.237.488-.752.98-1.5,1.467-2.253a.624.624,0,0,1,.735-.331A.537.537,0,0,1,2676.506,1251.348Z" transform="translate(-2650.412 -1200.517)" fill="#3a2f5f"/>
        <path id="Trazado_150947" data-name="Trazado 150947" d="M2586.657,1251.418c-.079.15-.156.326-.259.485-.814,1.261-1.627,2.522-2.452,3.776-.428.65-.69.675-1.262.147-.516-.477-1.022-.964-1.537-1.442-.293-.272-.5-.59-.184-.937.342-.375.689-.185,1.007.105.39.357.845,1.024,1.179.97.509-.081.683-.849,1.009-1.317.47-.675.9-1.377,1.349-2.067a.622.622,0,0,1,.742-.312C2586.513,1250.9,2586.6,1251.129,2586.657,1251.418Z" transform="translate(-2573.661 -1200.518)" fill="#3a2f5f"/>
        <path id="Trazado_150948" data-name="Trazado 150948" d="M2776.48,1191.193a12.658,12.658,0,0,1-10.739-6.85,12.892,12.892,0,0,1,1.34-14.269,12.566,12.566,0,0,1,10.595-4.8,12.934,12.934,0,0,1,9.128,21.589,13.253,13.253,0,0,1-7.793,4.252,9.366,9.366,0,0,1-1.086.078A4.736,4.736,0,0,1,2776.48,1191.193Z" transform="translate(-2730.274 -1127.474)" fill="#3a2e5f"/>
        <path id="Trazado_150949" data-name="Trazado 150949" d="M2848.392,1342.88h1.445A1.923,1.923,0,0,1,2848.392,1342.88Z" transform="translate(-2802.186 -1279.161)" fill="#a85883"/>
        <path id="Trazado_150950" data-name="Trazado 150950" d="M2784.1,1196.674a11.849,11.849,0,1,1,11.833-11.863A11.85,11.85,0,0,1,2784.1,1196.674Z" transform="translate(-2737.167 -1134.06)" fill="#fdd6e4"/>
        <path id="Trazado_150951" data-name="Trazado 150951" d="M2814.107,1198.693c0,1.479-.017,2.959.008,4.438.011.65-.229.916-.9.906-1.891-.026-3.784-.013-5.676-.006-.426,0-.835-.062-.825-.577.009-.494.411-.593.837-.592,1.576,0,3.154-.027,4.729.016.564.015.675-.164.669-.691-.028-2.522-.012-5.045-.012-7.568,0-.17,0-.34,0-.51-.007-.4.183-.683.583-.685s.583.285.583.684Q2814.1,1196.4,2814.107,1198.693Z" transform="translate(-2766.596 -1151.523)" fill="#3a2e5f"/>
      </g>
    </g>
  </g>
</svg>
