<svg xmlns="http://www.w3.org/2000/svg" width="77" height="77" viewBox="0 0 77 77">
  <g id="icon5" transform="translate(-623 -1022)">
    <rect id="Rectángulo_35436" data-name="Rectángulo 35436" width="77" height="77" transform="translate(623 1022)" fill="none"/>
    <g id="Oh27na" transform="translate(-4003.918 -754.474)">
      <g id="Grupo_133638" data-name="Grupo 133638" transform="translate(4632.918 1782.474)">
        <path id="Trazado_150634" data-name="Trazado 150634" d="M4651.619,1848.274h-.9a6.619,6.619,0,0,1-1.894-1.169.845.845,0,0,0-1.149-.013,7.89,7.89,0,0,1-1.963,1.182h-.771a1.3,1.3,0,0,1-1.184-1.159c-.076-.469-.368-.564-.775-.564-1.412,0-2.826.044-4.236-.011a5.8,5.8,0,0,1-5.407-3.579,5.4,5.4,0,0,1-.418-2.315q.009-14.794,0-29.587c0-7.616.013-15.232-.009-22.848a5.787,5.787,0,0,1,2.2-4.64,4.79,4.79,0,0,1,3.208-1.1q22.461,0,44.923,0a1.618,1.618,0,0,1,1.817,1.824c.021,1.454,0,2.909.007,4.364,0,1.243,0,1.243,1.213,1.243h8.856c.3,0,.6-.007.9.018a1.9,1.9,0,0,1,2,2.151q.007,15.243,0,30.485c0,1.07-.143,1.3-.931,1.6a1.207,1.207,0,0,1-1.367-1.2,8.284,8.284,0,0,1-.031-1.09q0-14.247,0-28.493c0-1.14,0-1.141-1.116-1.141q-4.268,0-8.535,0c-.936,0-.983.049-.987.972q-.007,2.182,0,4.364c0,.875.064.933.961.936,1.519.005,3.037,0,4.556,0,1.026,0,1.582.385,1.6,1.083.02.741-.605,1.228-1.635,1.238-1.54.016-3.081,0-4.62.006-.814,0-.856.049-.863.883,0,.535.014,1.07,0,1.6s.218.715.731.71c1.5-.015,2.994-.007,4.492,0a4,4,0,0,1,.831.051,1.235,1.235,0,0,1,1.063,1.252,1.142,1.142,0,0,1-1.206,1.01c-1.583.037-3.165.01-4.748.014-1.159,0-1.16,0-1.16,1.167,0,.492.013.985,0,1.476s.2.687.688.683c1.519-.01,3.037-.005,4.556,0a5.8,5.8,0,0,1,.769.024,1.16,1.16,0,0,1,1.112,1.117,1.178,1.178,0,0,1-1.081,1.155,5.164,5.164,0,0,1-.769.031c-1.5,0-2.994-.008-4.492,0-.7.005-.766.079-.779.779q-.017.866,0,1.733c.015.719.089.8.83.8,1.434.012,2.867,0,4.3,0,.234,0,.47-.006.706.005a1.185,1.185,0,0,1,1.276,1.009,1.25,1.25,0,0,1-1.093,1.229,4.911,4.911,0,0,1-1.149.084c-1.283,0-2.566,0-3.85,0-1.006,0-1.021.02-1.024,1.054,0,.406,0,.813,0,1.219.006.873.042.914.9.918,1.455.006,2.909,0,4.363,0a3.652,3.652,0,0,1,.957.079,1.142,1.142,0,0,1,.913,1.161,1.153,1.153,0,0,1-.979,1.038,4.051,4.051,0,0,1-.832.048c-1.477,0-2.952,0-4.428,0-.833,0-.88.052-.888.861q-.008.8,0,1.6c.008.788.059.848.833.852,1.5.008,3,0,4.492,0a3.364,3.364,0,0,1,.894.066,1.069,1.069,0,0,1,.891.969,1.113,1.113,0,0,1-.7,1.125,2.191,2.191,0,0,1-1,.166c-1.5,0-2.995,0-4.492,0-.882,0-.911.033-.918.888,0,.428.007.856,0,1.284a1.8,1.8,0,0,1-1.428,1.879,14.993,14.993,0,0,1-1.978.049c-.4.005-.558.168-.582.574-.087,1.48-.1,1.478,1.4,1.479.383,0,.767-.007,1.151.006,3.552-.036,7.1-.006,10.654-.016.214,0,.428,0,.642,0,.7-.017.771-.073.774-.778.013-2.054-.01-4.108.012-6.162.011-1.01.33-1.4,1.217-1.6.791.182,1.089.484,1.1,1.259.027,2.61.036,5.22,0,7.83a1.731,1.731,0,0,1-1.627,1.756,6.948,6.948,0,0,1-.9.029q-4.685,0-9.37,0c-1.054,0-1.055,0-1.055,1.082,0,1.755-.064,3.512.015,5.263.105,2.339-.724,2.918-2.891,2.911-9.307-.029-18.613-.012-27.919-.012-.3,0-.6.009-.9,0a.606.606,0,0,0-.708.564A1.342,1.342,0,0,1,4651.619,1848.274Z" transform="translate(-4632.918 -1782.474)"/>
        <path id="Trazado_150635" data-name="Trazado 150635" d="M4659.981,1919.8c.726-.507,1.459-1,2.173-1.526a.484.484,0,0,1,.669-.008c.712.523,1.442,1.024,2.165,1.534Z" transform="translate(-4647.187 -1853.998)" fill="#fdfdfd"/>
        <path id="Trazado_150636" data-name="Trazado 150636" d="M4753.306,1834.715a10.485,10.485,0,0,0-.125,2.536c-.808.231-.993.467-.994,1.315,0,2.24-.017,4.481.011,6.721.006.479-.112.6-.592.593-3.925-.029-7.851-.027-11.776-.035a3.143,3.143,0,0,1,0-2.409,1.74,1.74,0,0,0,1.313-1.941c-.031-.533.027-1.072-.015-1.6-.037-.469.091-.622.589-.612,1.71.034,3.423.013,5.134.013.15,0,.3.009.45,0a1,1,0,0,0,.978-.988.957.957,0,0,0-1.022-.927c-1.818-.014-3.637-.026-5.455.006-.522.009-.711-.115-.677-.661a19.173,19.173,0,0,0,0-2.309c-.033-.559.094-.767.714-.749,1.731.049,3.465.019,5.2.016.794,0,1.252-.364,1.241-.971s-.47-.952-1.272-.953c-1.754,0-3.509-.024-5.262.013-.529.011-.64-.162-.618-.645.038-.833.034-1.669,0-2.5-.017-.43.123-.542.542-.536,1.711.022,3.422.011,5.134.007a3.644,3.644,0,0,0,.7-.046.939.939,0,0,0-.079-1.857,8.445,8.445,0,0,0-.9-.021c-1.562,0-3.125-.035-4.685.016-.619.02-.753-.19-.718-.753a21.562,21.562,0,0,0,0-2.31c-.024-.483.087-.657.618-.646,1.8.037,3.594.019,5.391.012.693,0,1.133-.381,1.144-.948s-.425-.955-1.112-.974c-.15,0-.3,0-.449,0-1.626,0-3.253-.033-4.877.017-.619.019-.747-.189-.715-.749.044-.81.035-1.626,0-2.438-.017-.435.133-.534.545-.53,1.861.02,3.723.016,5.583,0a.956.956,0,0,0,1.023-.925,1,1,0,0,0-.978-.989c-.17-.017-.343-.007-.514-.007-1.69,0-3.381-.021-5.07.013-.5.01-.612-.143-.591-.612.038-.854.034-1.712,0-2.566-.015-.413.133-.5.513-.493,1.711.018,3.423.008,5.134.008a4.63,4.63,0,0,0,.577-.013,1,1,0,0,0,.927-.972.958.958,0,0,0-1.011-.935c-.834-.018-1.669-.006-2.5-.006-1.006,0-2.012-.022-3.017.01-.456.015-.633-.075-.624-.586q.05-2.727,0-5.455c-.009-.5.153-.6.616-.592,3.252.02,6.5.026,9.755,0,.564-.005.7.13.7.7q-.029,14.088-.014,28.175c0,.642-.009,1.284,0,1.926C4752.2,1834.343,4752.484,1834.629,4753.306,1834.715Z" transform="translate(-4689.159 -1793.159)" fill="#dff5fc"/>
        <path id="Trazado_150637" data-name="Trazado 150637" d="M4695.905,1809.87q0,11.167.013,22.334c0,.615-.1.828-.79.827q-18.45-.037-36.9-.007c-.564,0-.757-.115-.756-.728q.027-22.463,0-44.925c0-.621.2-.723.761-.723q18.45.021,36.9-.007c.691,0,.788.22.786.83Q4695.889,1798.671,4695.905,1809.87Z" transform="translate(-4645.863 -1784.671)" fill="#863f31"/>
        <path id="Trazado_150638" data-name="Trazado 150638" d="M4643.756,1786.7c1.047-.008,2.095-.006,3.142-.029.341-.008.468.119.434.448a3.482,3.482,0,0,0,0,.385v44.708c0,.818,0,.807-.828.821a34.3,34.3,0,0,0-4.415.118c-.3-.348-.2-.773-.2-1.167q-.01-11.807,0-23.612,0-8.854,0-17.709a5.112,5.112,0,0,1,1.037-3.3A1.832,1.832,0,0,1,4643.756,1786.7Z" transform="translate(-4637.637 -1784.685)" fill="#a14f41"/>
        <path id="Trazado_150639" data-name="Trazado 150639" d="M4671.757,1897a.959.959,0,0,0-1.062-.806c-.958,0-1.919-.025-2.878.009-.414.015-.491-.125-.481-.5.026-.98.01-1.961.009-2.942,0-1.165-.274-1.442-1.415-1.446q-2.429-.01-4.857-.023a2.281,2.281,0,0,1,2.129-2.354q14.884,0,29.769,0c.882,0,.774-.088.765.8a5.773,5.773,0,0,1-.057,1.527q-2.914.023-5.829.047c-.6,0-1.2-.007-1.8,0-.7.011-1.114.377-1.115.961s.415.959,1.111.96c2.372.006,4.746.018,7.119-.01.482-.005.635.114.6.6a11.41,11.41,0,0,0,0,1.795c.044.512-.157.584-.612.582-4.34-.017-8.68-.01-13.021-.01q-2.309,0-4.618,0a.991.991,0,0,0-1.13.809A2.182,2.182,0,0,1,4671.757,1897Z" transform="translate(-4647.761 -1838.602)" fill="#fefefe"/>
        <path id="Trazado_150640" data-name="Trazado 150640" d="M4641.394,1786.723a5.723,5.723,0,0,0-1.689,4.505q.054,20.972.021,41.946a7.067,7.067,0,0,0-2.226,1.13.794.794,0,0,1-.1-.583q-.006-21.592,0-43.185A3.608,3.608,0,0,1,4641.394,1786.723Z" transform="translate(-4635.275 -1784.71)" fill="#863f31"/>
        <path id="Trazado_150641" data-name="Trazado 150641" d="M4678.681,1901.785a4.136,4.136,0,0,0,2.63,0c.043.854.318,1.116,1.194,1.117q9.268,0,18.536,0a1.377,1.377,0,0,0,1.568-1.523c.03-.94.028-1.882,0-2.821-.013-.426.127-.54.543-.543,1.58-.011,1.58-.026,1.58,1.545,0,1.732-.013,3.464.009,5.2.005.441-.114.581-.569.58q-14.687-.018-29.375,0c-.427,0-.575-.13-.53-.547.066-.608-.265-1.4.138-1.782.366-.349,1.141-.082,1.735-.1.47-.014.941,0,1.411,0C4678.366,1902.891,4678.638,1902.619,4678.681,1901.785Z" transform="translate(-4654.684 -1843.389)" fill="#b85d4f"/>
        <path id="Trazado_150642" data-name="Trazado 150642" d="M4643.208,1888.8a5.757,5.757,0,0,0,0,7.317,15.75,15.75,0,0,1-3.042-.114,3.623,3.623,0,0,1-2.752-4.058,3.662,3.662,0,0,1,3.517-3.141C4641.652,1888.784,4642.38,1888.8,4643.208,1888.8Z" transform="translate(-4635.271 -1838.53)" fill="#24cff8"/>
        <path id="Trazado_150643" data-name="Trazado 150643" d="M4688.365,1891.177c0-.6-.018-1.2,0-1.794.012-.365-.129-.509-.486-.476-.17.016-.342,0-.512,0-9.677,0-19.353.025-29.029-.033a2.166,2.166,0,0,0-2.137,1.334c-.171.317-.3.66-.441.991-.363.008-.726.017-1.089.023-.853.014-1.193.351-1.2,1.218-.008.962-.031,1.925.009,2.886.025.619-.181.56-.6.323a3.661,3.661,0,0,1,1.606-6.855c1.024-.035,2.052-.012,3.078-.012q15.1,0,30.209-.016c.588,0,.75.163.679.71A9.4,9.4,0,0,1,4688.365,1891.177Z" transform="translate(-4642.447 -1838.515)" fill="#f1fafe"/>
        <path id="Trazado_150644" data-name="Trazado 150644" d="M4666.637,1906.575c-.436-.289-.883-.561-1.3-.873a1.34,1.34,0,0,0-1.237-.255,1.041,1.041,0,0,1-.216-.841c-.008-1.857-.013-3.714,0-5.571,0-.84.063-.881.925-.882.49,0,.984.027,1.472-.008.448-.033.581.121.576.571-.021,2.134-.009,4.268-.009,6.4,0,.385,0,.769,0,1.153C4666.842,1906.411,4666.882,1906.594,4666.637,1906.575Z" transform="translate(-4649.239 -1843.458)" fill="#f72f41"/>
        <path id="Trazado_150645" data-name="Trazado 150645" d="M4664.735,1906.5c.21-.158.144-.388.144-.593,0-2.373-.01-4.747.013-7.12,0-.494-.118-.7-.642-.656a10.094,10.094,0,0,1-1.475,0c-.43-.025-.6.1-.6.568.023,2.223.015,4.447.018,6.671l-1.757,1.249c-.25-.167-.151-.378-.152-.551-.008-2.48.005-4.96-.015-7.44,0-.452.074-.644.586-.627,1.218.038,2.437.025,3.655,0,.4-.009.5.125.5.512-.016,2.566-.005,5.131-.018,7.7C4665,1906.326,4665.177,1906.733,4664.735,1906.5Z" transform="translate(-4647.338 -1843.385)" fill="#df2334"/>
        <path id="Trazado_150646" data-name="Trazado 150646" d="M4645.019,1908.369c1.6-.007,3.2-.005,4.8-.026.345,0,.507.076.487.458-.033.617-.025,1.236-.035,1.854a24.839,24.839,0,0,1-3.747.037C4645.718,1910.66,4644.806,1909.162,4645.019,1908.369Z" transform="translate(-4639.282 -1848.836)" fill="#b85c4f"/>
        <path id="Trazado_150647" data-name="Trazado 150647" d="M4641.029,1906.942a3.673,3.673,0,0,0,1.107,2.027.975.975,0,0,0,.824.262c1.106-.009,2.214,0,3.321,0-.108.2-.3.122-.457.122-1.6,0-3.2.018-4.8-.012a3.644,3.644,0,0,1-3.6-3.316,3.832,3.832,0,0,1,.022-.386A6.051,6.051,0,0,0,4641.029,1906.942Z" transform="translate(-4635.292 -1847.409)" fill="#a14f41"/>
        <path id="Trazado_150648" data-name="Trazado 150648" d="M4736.955,1888.72v2.409c-.787.008-1.574,0-2.359.03-.307.01-.41-.082-.4-.393.029-.657-.216-1.5.1-1.923.3-.407,1.193-.092,1.823-.126C4736.4,1888.7,4736.679,1888.717,4736.955,1888.72Z" transform="translate(-4686.285 -1838.444)" fill="#c8eefc"/>
        <path id="Trazado_150649" data-name="Trazado 150649" d="M4700.661,1802.283a.547.547,0,0,1,.267.466c-.019.571-.019,1.143,0,1.713a.542.542,0,0,1-.267.465,3.4,3.4,0,0,0-.558,2.3q.02,12.474.007,24.948c0,1.464-.031,1.494-1.516,1.494q-12.056,0-24.112,0a1.969,1.969,0,0,1-1.186-.173,1.432,1.432,0,0,1-.179-.926q-.007-17.96,0-35.918c0-1.027.1-1.117,1.154-1.118q12.379,0,24.757,0a1.8,1.8,0,0,1,.82.095c.292.234.243.572.246.882.011,1.189.026,2.38,0,3.568A3.01,3.01,0,0,0,4700.661,1802.283Z" transform="translate(-4654.11 -1789.355)" fill="#c76e5c"/>
        <path id="Trazado_150650" data-name="Trazado 150650" d="M4695.01,1800.2a1.077,1.077,0,0,1-.745-1.2c0-1.793-.014-3.586-.021-5.378a1.3,1.3,0,0,0-.692-.063c-8.383,0-16.766-.021-25.149.018-1.1.005-2.211.13-3.319.133-.379,0-.538.2-.535.559,0,.192,0,.385,0,.577v35.1c0,1.217,0,1.2,1.246,1.226a3.729,3.729,0,0,1,1.887.179c1.324.007,2.65.02,3.976.02q10.876,0,21.751,0c.865,0,.865,0,.865-.9q0-13.154,0-26.308c0-.6.083-1.117.745-1.327.93.034,1.177.279,1.178,1.194q0,13.831,0,27.663c0,1.119-.481,1.6-1.6,1.6q-15.308,0-30.615,0a1.367,1.367,0,0,1-1.574-1.564q0-19.287,0-38.574c0-1.106.493-1.584,1.62-1.584q15.276,0,30.55,0c1.124,0,1.618.484,1.62,1.59q.008,2.921,0,5.841C4696.186,1799.921,4695.938,1800.167,4695.01,1800.2Z" transform="translate(-4648.459 -1787.272)"/>
        <path id="Trazado_150651" data-name="Trazado 150651" d="M4669.8,1833.465c-.962.007-1.924,0-2.886.027-.353.009-.527-.087-.477-.462a2.6,2.6,0,0,0,0-.321q0-18.159-.018-36.318c0-.671.19-.792.816-.791q14.212.028,28.424.015c.233,0,.51-.13.706.124q-12.932,0-25.862-.014c-.559,0-.723.136-.722.711Q4669.81,1814.951,4669.8,1833.465Z" transform="translate(-4650.582 -1789.385)" fill="#b85d4f"/>
        <path id="Trazado_150652" data-name="Trazado 150652" d="M4689.083,1816.445q-3.208,0-6.415,0c-1.145,0-1.671-.494-1.681-1.62q-.026-2.791,0-5.582c.009-1.148.516-1.64,1.654-1.641q6.448-.006,12.9,0c1.12,0,1.628.462,1.644,1.582q.041,2.855,0,5.71c-.018,1.07-.546,1.546-1.614,1.55C4693.4,1816.449,4691.243,1816.445,4689.083,1816.445Z" transform="translate(-4658.255 -1795.72)"/>
        <path id="Trazado_150653" data-name="Trazado 150653" d="M4689.188,1847.232c2.288,0,4.575,0,6.862,0,.726,0,1.122.336,1.135.931s-.4.98-1.087.989c-1.005.013-2.009,0-3.014,0q-5.387,0-10.774,0a1.233,1.233,0,0,1-1.049-.36.918.918,0,0,1-.126-1.023.9.9,0,0,1,.872-.543q1.731,0,3.463,0Z" transform="translate(-4658.287 -1816.616)"/>
        <path id="Trazado_150654" data-name="Trazado 150654" d="M4689.135,1856.105q3.462,0,6.924,0a1.021,1.021,0,0,1,1.069.542.929.929,0,0,1-.681,1.33,3.81,3.81,0,0,1-.765.055q-6.54,0-13.078,0a3.752,3.752,0,0,1-.827-.068.854.854,0,0,1-.7-1,.828.828,0,0,1,.812-.836c.446-.036.9-.021,1.345-.021Q4686.186,1856.1,4689.135,1856.105Z" transform="translate(-4658.309 -1821.293)" fill="#010000"/>
        <path id="Trazado_150655" data-name="Trazado 150655" d="M4697.35,1816.544c-.138.209-.351.109-.526.109-3.718,0-7.435-.007-11.153.01-.472,0-.63-.106-.617-.6.033-1.3.023-2.607,0-3.91-.006-.389.111-.507.507-.505,3.781.012,7.563,0,11.346.007.211,0,.511-.1.5.292-.035,1.533.085,3.069-.063,4.6a1.247,1.247,0,0,1-.213-.912c-.005-.983-.017-1.966,0-2.949.011-.529-.207-.711-.722-.708q-3.525.021-7.051,0c-.486,0-.7.175-.687.673.018.983,0,1.966.009,2.949.009.648.079.718.763.721,2.308.01,4.615,0,6.923.006A1.333,1.333,0,0,1,4697.35,1816.544Z" transform="translate(-4660.405 -1797.855)" fill="#e6b629"/>
        <path id="Trazado_150656" data-name="Trazado 150656" d="M4701.155,1816.686c-2.736,0-5.472-.022-8.208,0-.545,0-.69-.167-.675-.691.036-1.174.026-2.352,0-3.527-.008-.419.131-.554.55-.551,2.587.015,5.174.019,7.76,0,.484,0,.559.2.555.61-.013,1.389.006,2.779.013,4.167Z" transform="translate(-4664.211 -1797.996)" fill="#f8c42d"/>
      </g>
    </g>
  </g>
</svg>
