<svg xmlns="http://www.w3.org/2000/svg" xmlns:xlink="http://www.w3.org/1999/xlink" width="425.544" height="267.28" viewBox="0 0 425.544 267.28">
  <defs>
    <clipPath id="clip-path">
      <path id="Trazado_150627" data-name="Trazado 150627" d="M325.706,790c0,73.671,53.069,124.385,120.68,124.385s122.3-53.995,122.3-127.663S513.992,647.6,446.386,647.6,325.706,716.328,325.706,790Z" transform="translate(-325.706 -647.602)" fill="none"/>
    </clipPath>
    <linearGradient id="linear-gradient" x1="0.5" y1="0.08" x2="0.5" y2="1.056" gradientUnits="objectBoundingBox">
      <stop offset="0" stop-color="#f7ba8a"/>
      <stop offset="0.281" stop-color="#f6b587"/>
      <stop offset="0.581" stop-color="#f4a87e"/>
      <stop offset="0.889" stop-color="#f19371"/>
      <stop offset="1" stop-color="#f08a6b"/>
    </linearGradient>
  </defs>
  <g id="img10" transform="translate(-920.5 -4840.278)">
    <path id="Sustracción_3" data-name="Sustracción 3" d="M212.272,0a213.88,213.88,0,0,0-42.78,4.313,211.117,211.117,0,0,0-75.9,31.938,212.875,212.875,0,0,0-76.907,93.392A211.168,211.168,0,0,0,4.313,169.488,213.841,213.841,0,0,0,0,212.269c0,.294,0,.595,0,.888H78.747c0-.267,0-.549,0-.888a134.507,134.507,0,0,1,2.713-26.912,132.764,132.764,0,0,1,20.093-47.744A133.913,133.913,0,0,1,160.3,89.238a132.946,132.946,0,0,1,25.064-7.779,134.864,134.864,0,0,1,53.819,0,132.8,132.8,0,0,1,47.745,20.089A133.913,133.913,0,0,1,335.3,160.292a132.842,132.842,0,0,1,7.78,25.064,134.527,134.527,0,0,1,2.713,26.912c0,.3,0,.591,0,.888h78.748l0-.4c0-.163,0-.326,0-.488a213.836,213.836,0,0,0-4.313-42.78,211.115,211.115,0,0,0-31.941-75.9,212.888,212.888,0,0,0-93.394-76.9A211.221,211.221,0,0,0,255.051,4.313,213.871,213.871,0,0,0,212.272,0Z" transform="translate(921 4893.901)" fill="#3e2ea6" stroke="rgba(0,0,0,0)" stroke-miterlimit="10" stroke-width="1"/>
    <g id="Grupo_133629" data-name="Grupo 133629" transform="translate(685.667 4192.676)">
      <circle id="Elipse_4984" data-name="Elipse 4984" cx="122.417" cy="122.417" r="122.417" transform="translate(325.333 669.547)" fill="#fefaf7"/>
      <g id="Grupo_133628" data-name="Grupo 133628" transform="translate(326.726 647.602)">
        <g id="Grupo_133627" data-name="Grupo 133627" clip-path="url(#clip-path)">
          <g id="Grupo_133626" data-name="Grupo 133626" transform="translate(12.959 10.733)">
            <g id="Grupo_133611" data-name="Grupo 133611" transform="translate(0 149.561)">
              <path id="Trazado_150577" data-name="Trazado 150577" d="M537.854,745.691c-8.349-12.3-40.716-18.325-53.558-20.886-3.441-.687-7.084-.888-9.6-2.5-2.116-1.355-2.463-3.635-2.721-7.133-.444-5.99.276-20.871,0-24.626H405.66c-.276,3.755.444,10.156,0,16.146-.257,3.5-.6,14.254-2.717,15.609-2.519,1.612-6.162,1.814-9.607,2.5-12.843,2.56-45.209,8.584-53.558,20.886-8.745,12.884-10.6,34.878-10.6,34.878s44.373,18.378,109.64,18.378,109.636-18.378,109.636-18.378S546.6,758.574,537.854,745.691Z" transform="translate(-329.178 -690.55)" fill="#ffbf91"/>
              <path id="Trazado_150578" data-name="Trazado 150578" d="M350.143,706.7c-.127,1.725-.276,5.21-.646,8.465,29.582,9.245,58.22-6.752,66.927-14.843.045-2.448.09-4.755.093-6.588,0-1.082-.015-1.989-.037-2.616-.008-.2-.015-.407-.026-.564H350.143C349.866,694.3,350.587,700.706,350.143,706.7Z" transform="translate(-273.661 -690.55)" fill="#ffac70"/>
            </g>
            <g id="Grupo_133612" data-name="Grupo 133612" transform="translate(34.696 79.155)">
              <path id="Trazado_150579" data-name="Trazado 150579" d="M361.125,677.486s-7.349-10.461-17.422-3.284c-4.568,3.255-8.424,15.556-1.265,27.8,7,11.973,19.337,13.559,23.293,7.439Z" transform="translate(-338.474 -671.686)" fill="#f7be91"/>
              <path id="Trazado_150580" data-name="Trazado 150580" d="M361.109,677.486s-7.349-10.461-17.422-3.284c-2.654,1.892-5.05,6.841-5.207,13.052.172-.869,2.112-10,9.487-11.622,7.744-1.7,13.324,7.8,13.324,7.547,0-.06.093-1.187.228-2.837Z" transform="translate(-338.458 -671.686)" fill="#ffac70"/>
              <path id="Trazado_150581" data-name="Trazado 150581" d="M340.087,681.363c.769-4.856,3.736-7.069,7.606-6.823s6.132,5.446,6.3,10.563c0,0-4.774-.612-4.915,4.091-.123,4.2,4.012,5.669,5.725,4.669,0,0-.317,2.351-4.329,2.628C345.633,696.826,338.747,688.645,340.087,681.363Z" transform="translate(-334.531 -663.937)" fill="#ffac70"/>
            </g>
            <g id="Grupo_133613" data-name="Grupo 133613" transform="translate(157.323 79.155)">
              <path id="Trazado_150582" data-name="Trazado 150582" d="M375.939,677.486s7.345-10.461,17.418-3.284c4.572,3.255,8.427,15.556,1.269,27.8-7,11.973-19.337,13.559-23.3,7.439Z" transform="translate(-371.33 -671.686)" fill="#f7be91"/>
              <path id="Trazado_150583" data-name="Trazado 150583" d="M380.727,704.549a27.4,27.4,0,0,0,1.788-2.654c7.159-12.242,3.3-24.543-1.269-27.8a12.923,12.923,0,0,0-5.483-2.374C381.914,673.262,389.389,686.589,380.727,704.549Z" transform="translate(-359.218 -671.582)" fill="#fddac1"/>
              <path id="Trazado_150584" data-name="Trazado 150584" d="M387.915,681.363c-.765-4.856-3.732-7.069-7.6-6.823s-6.136,5.446-6.3,10.563c0,0,4.773-.612,4.911,4.091.127,4.2-4.008,5.669-5.722,4.669,0,0,.314,2.351,4.326,2.628C382.372,696.826,389.258,688.645,387.915,681.363Z" transform="translate(-366.215 -663.937)" fill="#ffac70"/>
            </g>
            <g id="Grupo_133614" data-name="Grupo 133614" transform="translate(55.533 20.614)">
              <path id="Trazado_150585" data-name="Trazado 150585" d="M397.359,799.235c-17.116,0-37.662-14.4-44-21.916-6.726-7.987-7.692-47.982-8.767-62.2-3.09-40.812,23.622-59.12,52.763-59.12s55.85,18.307,52.76,59.12c-1.075,14.216-4.162,54.211-10.883,62.2C432.9,784.839,414.475,799.235,397.359,799.235Z" transform="translate(-343.252 -656.001)" fill="#ffbf91"/>
              <path id="Trazado_150586" data-name="Trazado 150586" d="M434.012,661.746s-8.853,11.018-29.16,14.011-40.921-7.006-40.921-7.006-1.187,12.563-7.386,18.975-10.921,8.032-11.145,10.857a31.51,31.51,0,0,1,0-18.419c3.023-10.395,9.864-20.654,30.81-21.935S434.012,661.746,434.012,661.746Z" transform="translate(-344.057 -650.507)" fill="#ffac70"/>
            </g>
            <g id="Grupo_133616" data-name="Grupo 133616" transform="translate(45.187 16.375)">
              <path id="Trazado_150587" data-name="Trazado 150587" d="M353.049,705.068c1.478-3.732,7.681-5.852,11.268-14.824a121.016,121.016,0,0,0,5.572-19.9l-8.778-15.478s-11.152,2.594-16.37,12.544c-3.673,7-4.482,33.717-2.12,46.448.982,5.3,6.953,19.74,12.335,20.083l-1.512-10.5A87.852,87.852,0,0,1,353.049,705.068Z" transform="translate(-341.285 -654.865)" fill="#502b3b"/>
              <g id="Grupo_133615" data-name="Grupo 133615" transform="translate(100.301 10.469)">
                <path id="Trazado_150588" data-name="Trazado 150588" d="M385,697.4c-1.478-3.732-7.677-5.852-11.264-14.824a121.024,121.024,0,0,1-5.572-19.9l11.835-5.009s8.357.541,12.959,10.794c3.094,6.893,4.833,25,2.474,37.73-.985,5.3-6.957,19.74-12.339,20.083l1.515-10.5A87.866,87.866,0,0,0,385,697.4Z" transform="translate(-368.159 -657.67)" fill="#502b3b"/>
                <path id="Trazado_150589" data-name="Trazado 150589" d="M385.135,698.785c1.952-10.54,1.094-24.741-1.015-33.236-4.165-5.882-10.547-7.308-12-1.306s5.595,14.634,7.7,20.774c2.43,7.091,2.822,22.983-5.012,33.12C379.578,715.1,384.273,703.432,385.135,698.785Z" transform="translate(-357.867 -650.262)" fill="#713f55"/>
              </g>
            </g>
            <path id="Trazado_150590" data-name="Trazado 150590" d="M365.916,683.8c.668,3.266,5.057,5.125,9.808,4.158s8.062-4.4,7.394-7.663-5.054-5.124-9.8-4.158S365.252,680.539,365.916,683.8Z" transform="translate(-229.031 -581.062)" fill="#e46369" opacity="0.3"/>
            <path id="Trazado_150591" data-name="Trazado 150591" d="M363.908,683.8c-.664,3.266-5.054,5.125-9.8,4.158s-8.062-4.4-7.4-7.663,5.057-5.124,9.8-4.158S364.572,680.539,363.908,683.8Z" transform="translate(-281.518 -581.062)" fill="#e46369" opacity="0.3"/>
            <g id="Grupo_133618" data-name="Grupo 133618" transform="translate(97.532 78.267)">
              <path id="Trazado_150592" data-name="Trazado 150592" d="M379.036,708.5c-1.284-3.352-6.4-37.054-11.619-37.054s-10.338,33.7-11.622,37.054.388,4.591.388,4.591l1.773-.336c2.889-1.015,8.039,2.683,9.461,2.978h0c1.422-.3,6.573-3.993,9.461-2.978l1.769.336S380.32,711.85,379.036,708.5Z" transform="translate(-355.31 -671.448)" fill="#ffb682"/>
              <path id="Trazado_150593" data-name="Trazado 150593" d="M361.239,682.011a1.3,1.3,0,0,1-.664,1.612c-.545.16-1.131-.306-1.306-1.038a1.3,1.3,0,0,1,.664-1.612C360.477,680.816,361.063,681.279,361.239,682.011Z" transform="translate(-344.638 -645.505)" fill="#fff" opacity="0.3"/>
              <g id="Grupo_133617" data-name="Grupo 133617" transform="translate(0.439 39.487)">
                <path id="Trazado_150594" data-name="Trazado 150594" d="M372.639,682.554a6.678,6.678,0,0,0-3.359.415c-1.709.739-3.2,1.6-4.744,1.6s-3.038-.858-4.747-1.6a6.668,6.668,0,0,0-3.355-.415c-.052.008-.1.131-.037.135,2.952.257,4.5,2.549,7.244,3.247a3.916,3.916,0,0,0,1.788,0c2.747-.7,4.3-2.99,7.244-3.247C372.736,682.685,372.688,682.562,372.639,682.554Z" transform="translate(-352.865 -680.74)" fill="#502b3b"/>
                <path id="Trazado_150595" data-name="Trazado 150595" d="M362.118,684.745a10.063,10.063,0,0,0,2.59.116c1.206-.123,2.893-1.47,1-2.444a3.565,3.565,0,0,0-3.8.4,8.4,8.4,0,0,1-2.008,1.336Z" transform="translate(-343.217 -682.028)" fill="#502b3b"/>
                <path id="Trazado_150596" data-name="Trazado 150596" d="M359.866,684.745a10.064,10.064,0,0,1-2.59.116c-1.206-.123-2.893-1.47-.993-2.444a3.566,3.566,0,0,1,3.8.4,8.374,8.374,0,0,0,2,1.336Z" transform="translate(-355.428 -682.028)" fill="#502b3b"/>
              </g>
            </g>
            <path id="Trazado_150597" data-name="Trazado 150597" d="M411.041,672.743s-6.121,36.39-8.427,46.874-7.319,16.086-17.5,23.009-20.18,10.865-26.555,10.865c17.116,0,35.543-14.4,41.876-21.916,6.248-7.423,9.353-42.5,10.626-58.821Z" transform="translate(-248.914 -589.643)" fill="#fddac1"/>
            <g id="Grupo_133619" data-name="Grupo 133619" transform="translate(0 181.308)">
              <path id="Trazado_150598" data-name="Trazado 150598" d="M537.854,720.7c-8.349-12.3-40.716-18.325-53.558-20.886l-.541-.112c-5.21,13.373-23.726,23.958-44.933,23.958s-39.726-10.585-44.937-23.958h.007l-.556.112c-12.843,2.56-45.209,8.584-53.558,20.886-8.745,12.884-10.6,34.878-10.6,34.878s44.373,18.378,109.64,18.378,109.636-18.378,109.636-18.378S546.6,733.579,537.854,720.7Z" transform="translate(-329.178 -697.302)" fill="#4067ab"/>
              <path id="Trazado_150599" data-name="Trazado 150599" d="M436.384,701.452a58.335,58.335,0,0,1-9.066-2.4H427.3c-2.926,9.379-17.579,17.889-35.852,17.889s-32.93-8.509-35.852-17.889h-.026a58.348,58.348,0,0,1-9.058,2.4c5.21,13.373,23.726,23.958,44.937,23.958S431.174,714.825,436.384,701.452Z" transform="translate(-281.808 -699.056)" fill="#4067ab"/>
              <path id="Trazado_150600" data-name="Trazado 150600" d="M387.87,702.011c-7.3,7.192-12.346,22.345-10.835,40.275,1.515,17.9,3.284,17.773,3.288,17.8,18.217-4.251,38.1-10.831,38.1-10.831s-1.851-21.994-10.6-34.878C404.326,709.218,396.6,705.168,387.87,702.011Z" transform="translate(-199.151 -690.982)" fill="#4067ab"/>
              <path id="Trazado_150601" data-name="Trazado 150601" d="M370.576,742.289c1.515-17.93-3.538-33.083-10.835-40.275v0c-8.737,3.158-16.463,7.211-19.964,12.369-8.745,12.884-10.6,34.878-10.6,34.878s19.889,6.584,38.11,10.835C367.292,760.08,369.061,760.208,370.576,742.289Z" transform="translate(-329.178 -690.985)" fill="#4067ab"/>
              <path id="Trazado_150602" data-name="Trazado 150602" d="M377.656,708.144a71.083,71.083,0,0,0-.623,17.385c1.515,17.9,3.284,17.773,3.288,17.8,3.467-.81,6.99-1.7,10.428-2.616C382.959,735.218,377.685,708.3,377.656,708.144Z" transform="translate(-199.148 -674.225)" fill="#335292"/>
              <path id="Trazado_150603" data-name="Trazado 150603" d="M349.688,708.144a71.076,71.076,0,0,1,.623,17.385c-1.515,17.9-3.284,17.773-3.288,17.8-3.464-.81-6.991-1.7-10.428-2.616C344.384,735.218,349.658,708.3,349.688,708.144Z" transform="translate(-308.913 -674.225)" fill="#335292"/>
              <path id="Trazado_150604" data-name="Trazado 150604" d="M376.985,701.138c-2.982-.594-6.11-.829-8.532-1.926,6.867,3.408,27.033,8.084,41.428,14.209,15.228,6.48,19.117,16.2,22.032,27.866s-4.886,20-4.886,20l.526.276c8.763-2.669,13.589-4.662,13.589-4.662s-1.851-21.994-10.6-34.878C422.194,709.722,389.828,703.7,376.985,701.138Z" transform="translate(-221.868 -698.63)" fill="#def0f7" style="mix-blend-mode: soft-light;isolation: isolate"/>
            </g>
            <g id="Grupo_133621" data-name="Grupo 133621" transform="translate(92.522 131.632)">
              <path id="Trazado_150605" data-name="Trazado 150605" d="M369.55,686.3h-15.02l15.02,6.318,14.9-6.239Z" transform="translate(-352.433 -684.231)" fill="#fff"/>
              <path id="Trazado_150606" data-name="Trazado 150606" d="M370.6,690.342a60.189,60.189,0,0,0-16.459-4.124s1.9,9.969,16.459,9.969,16.456-9.969,16.456-9.969A60.7,60.7,0,0,0,370.6,690.342Z" transform="translate(-353.486 -684.457)" fill="url(#linear-gradient)"/>
              <g id="Grupo_133620" data-name="Grupo 133620">
                <path id="Trazado_150607" data-name="Trazado 150607" d="M387.993,686.208a19.41,19.41,0,0,1-3.229.429c-2.34-.063-5.763-.743-7.353-.862-3.057-.228-5,.944-6.326.944s-3.273-1.172-6.33-.944c-1.586.119-5.009.8-7.353.862a19.476,19.476,0,0,1-3.228-.429c-.847.186.205,3.06,16.911,3.06S388.844,686.395,387.993,686.208Z" transform="translate(-353.968 -685.746)" fill="#984338"/>
              </g>
              <path id="Trazado_150608" data-name="Trazado 150608" d="M364.356,689.469c-2.661,0-8.469-1.277-7.883-.829a13.409,13.409,0,0,0,3.8,1.765,13.187,13.187,0,0,0,4.076.7h0a13.154,13.154,0,0,0,4.076-.7,13.353,13.353,0,0,0,3.8-1.765C372.821,688.193,367.013,689.469,364.356,689.469Z" transform="translate(-347.234 -678.098)" fill="#984338"/>
            </g>
            <path id="Trazado_150609" data-name="Trazado 150609" d="M373.612,669.147c-7.028.362-8.566-1.09-10.936-.172-2.019.784-1.855,3.911.9,5.318,3.117,1.59,9.678.6,14.586.384,6.834-.31,13.761-.937,17.575.851,0,0-.314-5.449-6.908-6.124A145.427,145.427,0,0,0,373.612,669.147Z" transform="translate(-241.373 -600.782)" fill="#502b3b"/>
            <path id="Trazado_150610" data-name="Trazado 150610" d="M368.695,669.147c7.028.362,8.569-1.09,10.939-.172,2.015.784,1.851,3.911-.907,5.318-3.117,1.59-9.678.6-14.586.384-6.834-.31-13.761-.937-17.572.851,0,0,.313-5.449,6.9-6.124A145.426,145.426,0,0,1,368.695,669.147Z" transform="translate(-281.658 -600.782)" fill="#502b3b"/>
            <g id="Grupo_133623" data-name="Grupo 133623" transform="translate(123.043 74.095)">
              <path id="Trazado_150611" data-name="Trazado 150611" d="M362.258,677.325c.145-2.09,5.431-5.681,14.074-5.58,10.182.119,11.342,4.732,11.342,4.732s-1.485,7.811-10.973,8.368A16.071,16.071,0,0,1,362.258,677.325Z" transform="translate(-361.837 -666.469)" fill="#fff"/>
              <g id="Grupo_133622" data-name="Grupo 133622" transform="translate(0.021)">
                <path id="Trazado_150612" data-name="Trazado 150612" d="M377.412,678.717a6.813,6.813,0,1,0-7.27,6.322A6.812,6.812,0,0,0,377.412,678.717Z" transform="translate(-357.639 -667.326)" fill="#502b3b"/>
                <path id="Trazado_150613" data-name="Trazado 150613" d="M387.967,680.339s.1-9.835-11.719-10.006c-13.593-.2-14.082,10.328-14.1,10.387,0,0,4.8-5.837,14.1-5.188S387.967,680.339,387.967,680.339Z" transform="translate(-362.151 -670.33)" fill="#ffac70"/>
                <path id="Trazado_150614" data-name="Trazado 150614" d="M364.739,675.471a3.349,3.349,0,1,1,3.105,3.576A3.349,3.349,0,0,1,364.739,675.471Z" transform="translate(-355.102 -664.79)" fill="#391c2b"/>
                <path id="Trazado_150615" data-name="Trazado 150615" d="M365.933,673.846a1.644,1.644,0,1,1,1.523,1.754A1.643,1.643,0,0,1,365.933,673.846Z" transform="translate(-351.829 -664.905)" fill="#fff"/>
                <path id="Trazado_150616" data-name="Trazado 150616" d="M364.717,674.207a.76.76,0,1,1,.728.791A.764.764,0,0,1,364.717,674.207Z" transform="translate(-355.14 -661.727)" fill="#fff"/>
              </g>
              <path id="Trazado_150617" data-name="Trazado 150617" d="M362.447,677.993a51.552,51.552,0,0,1,5.333-2.538c5.147-2.049,10.346-1.683,15.649-.28a7.93,7.93,0,0,1,4.12,2.273c.679.788,1-.866-1.261-2.784-2.281-1.93-6.091-3.15-10.383-3.15-5.845,0-8.659,1.575-10.686,2.993C362.155,676.653,361.73,677.911,362.447,677.993Z" transform="translate(-362.145 -667.096)" fill="#412130"/>
            </g>
            <g id="Grupo_133625" data-name="Grupo 133625" transform="translate(70.327 74.095)">
              <path id="Trazado_150618" data-name="Trazado 150618" d="M373.453,677.325c-.142-2.09-5.427-5.681-14.074-5.58-10.182.119-11.339,4.732-11.339,4.732s1.485,7.811,10.969,8.368A16.071,16.071,0,0,0,373.453,677.325Z" transform="translate(-347.968 -666.469)" fill="#fff"/>
              <g id="Grupo_133624" data-name="Grupo 133624" transform="translate(0.072)">
                <path id="Trazado_150619" data-name="Trazado 150619" d="M349.671,678.717a6.811,6.811,0,1,1,7.271,6.322A6.812,6.812,0,0,1,349.671,678.717Z" transform="translate(-343.629 -667.326)" fill="#502b3b"/>
                <path id="Trazado_150620" data-name="Trazado 150620" d="M348.04,680.339s-.1-9.835,11.716-10.006c13.6-.2,14.086,10.328,14.1,10.387,0,0-4.807-5.837-14.1-5.188S348.04,680.339,348.04,680.339Z" transform="translate(-348.04 -670.33)" fill="#ffac70"/>
                <path id="Trazado_150621" data-name="Trazado 150621" d="M357.268,675.471a3.347,3.347,0,1,0-3.105,3.576A3.347,3.347,0,0,0,357.268,675.471Z" transform="translate(-341.093 -664.79)" fill="#391c2b"/>
                <path id="Trazado_150622" data-name="Trazado 150622" d="M353.583,673.846a1.644,1.644,0,1,0-1.527,1.754A1.645,1.645,0,0,0,353.583,673.846Z" transform="translate(-341.871 -664.905)" fill="#fff"/>
                <path id="Trazado_150623" data-name="Trazado 150623" d="M353.5,674.207a.758.758,0,1,0-.724.791A.762.762,0,0,0,353.5,674.207Z" transform="translate(-337.264 -661.727)" fill="#fff"/>
              </g>
              <path id="Trazado_150624" data-name="Trazado 150624" d="M373.625,677.993a50.982,50.982,0,0,0-5.333-2.538c-5.147-2.049-10.346-1.683-15.649-.28a7.969,7.969,0,0,0-4.12,2.273c-.676.788-1-.866,1.265-2.784s6.087-3.15,10.383-3.15c5.841,0,8.655,1.575,10.682,2.993C373.92,676.653,374.345,677.911,373.625,677.993Z" transform="translate(-348.021 -667.096)" fill="#412130"/>
            </g>
            <path id="Trazado_150625" data-name="Trazado 150625" d="M346.589,665.087s32.874-24.573,64.248-9.98,30.317,21.774,30.317,21.774l-10.025,21.088s-35.542,12.817-44.892.8-39.3-12.156-39.3-12.156Z" transform="translate(-281.606 -650.478)" fill="#502b3b"/>
            <path id="Trazado_150626" data-name="Trazado 150626" d="M355.1,659.2a6.794,6.794,0,0,1-4.889-6.83l-1.194,5.774c-.086.4-.239.885-.638.978a1.113,1.113,0,0,1-.892-.362l-2.635-2.168a9.358,9.358,0,0,1,1.079,8.614" transform="translate(-286.355 -645.316)" fill="#502b3b"/>
          </g>
        </g>
      </g>
    </g>
  </g>
</svg>
