<svg xmlns="http://www.w3.org/2000/svg" width="410" height="291.646" viewBox="0 0 410 291.646">
  <g id="img1" transform="translate(-346 -1180.386)">
    <rect id="Rectángulo_35205" data-name="Rectángulo 35205" width="410" height="291.646" transform="translate(346 1180.386)" fill="#dad6f7"/>
    <g id="Grupo_130534" data-name="Grupo 130534" transform="translate(355 1210.512)">
      <g id="Grupo_87483" data-name="Grupo 87483" transform="translate(28.97 0)">
        <g id="Grupo_87476" data-name="Grupo 87476" transform="translate(111.867 101.819)">
          <path id="Trazado_101384" data-name="Trazado 101384" d="M-1356.375-851.448c4.6,5.46,8.766,14.513,11.352,15.95s6.949,1.937,11.07,15.2-16.686,11.449-16.686,11.449-8.9-5.11-12.489-17.454l-8.909-7.9Z" transform="translate(1400.327 898.961)" fill="#ffa497"/>
          <path id="Trazado_101385" data-name="Trazado 101385" d="M-1332.074-806.738a33.35,33.35,0,0,1-12.447-8.226c-5.733-6.056-6.473-16.831-6.473-16.831l-2.747,5.132-5.492-5.871-2.648-.256-1.952,2.15,8.909,7.9c3.593,12.345,12.49,17.454,12.49,17.454a33.075,33.075,0,0,0,10.588-.947C-1331.972-806.545-1332.074-806.738-1332.074-806.738Z" transform="translate(1392.123 895.398)" fill="#f45763"/>
          <path id="Trazado_101386" data-name="Trazado 101386" d="M-1338.976-910.178c6.373,4.659,10.176,8.04,13.345,14.378s23.028,29.108,24.3,31.139-11.16,23.58-21.108,28.861c0,0-15.018-17.323-23.681-23.873s-5.7-29.789-1.69-37.605A61.051,61.051,0,0,1-1338.976-910.178Z" transform="translate(1351.735 910.178)" fill="#0f0140"/>
          <path id="Trazado_101387" data-name="Trazado 101387" d="M-1322.328-861.41v-12.935s-1.686-.676-3,3.691a11.984,11.984,0,0,0-.25,5.164l-9.669-7.272c-.4,8.141.906,16.421,5.54,19.925,8.662,6.55,23.681,23.873,23.681,23.873a31.371,31.371,0,0,0,7.915-6.725C-1304.228-841.778-1315.829-853.531-1322.328-861.41Z" transform="translate(1335.319 903.341)" fill="#170c62"/>
          <path id="Trazado_101388" data-name="Trazado 101388" d="M-1382.161-805.106c1.654.516,2.875,1.307,2.875,3.39s-.359,5.389-1.15,6.682-4.871,2.068-4.871,2.068.273-8.606,1.135-10.187A4.025,4.025,0,0,1-1382.161-805.106Z" transform="translate(1456.936 890.111)" fill="#ffa497"/>
          <path id="Trazado_101389" data-name="Trazado 101389" d="M-1379.71-793.011a5.75,5.75,0,0,0,.562-1.505,2.785,2.785,0,0,1-2.267.992l-3.1.966c-.048.968-.068,1.616-.068,1.616S-1380.5-791.719-1379.71-793.011Z" transform="translate(1456.209 888.088)" fill="#f45763"/>
          <path id="Trazado_101390" data-name="Trazado 101390" d="M-1377.763-809c2.012.215,4.024,1.724,4.024,3.808s.719,7.9,0,8.837-4.239,3.593-5.461,3.808-3.3-.144-3.013-.79S-1377.763-809-1377.763-809Z" transform="translate(1448.586 890.854)" fill="#ffa497"/>
          <path id="Trazado_101391" data-name="Trazado 101391" d="M-1373.944-795.3c-1.526,1.722-5.426,1.567-5.426,1.567a15.557,15.557,0,0,0-1.925,2.419c-.128.355-.829.823-.926,1.184a5.5,5.5,0,0,0,2.511.2c1.2-.211,4.6-2.767,5.408-3.747l.358-1.621Z" transform="translate(1449.097 888.238)" fill="#f45763"/>
          <path id="Trazado_101392" data-name="Trazado 101392" d="M-1375.529-813.246c6.173.348,7.322.922,7.537,3.438s.072,9.843-.718,11.711-1.222,3.52-2.227,4.526a3.931,3.931,0,0,1-2.51,1.009s-3.381-4.961-3.525-9.128S-1375.529-813.246-1375.529-813.246Z" transform="translate(1438.816 891.665)" fill="#ffa497"/>
          <path id="Trazado_101393" data-name="Trazado 101393" d="M-1373.7-795.026a37.407,37.407,0,0,1-1.1-9.236c-.033-2.146-2.023,9.059-1.135,12.134.443.763.76,1.23.76,1.23a3.932,3.932,0,0,0,2.51-1.009c1.006-1.006,1.437-2.658,2.227-4.526a3.533,3.533,0,0,0,.146-.434C-1370.692-795.819-1371.972-795.131-1373.7-795.026Z" transform="translate(1440.541 890.001)" fill="#f45763"/>
          <path id="Trazado_101394" data-name="Trazado 101394" d="M-1370.56-801.088c.388,3.433,4.886,4.67,5.389,6.395s.143,3.306,1.006,3.736,4.454-1.58,4.311-3.879a4.473,4.473,0,0,0,3.018,2.3c2.083.359,2.586-1.163,2.227-3.455a29.245,29.245,0,0,1-.216-6.245c.072-2.73.718-5.245-.5-8.262s-2.874-5.676-6.179-5.173-5.317,4.67-7.113,6.107S-1370.991-804.9-1370.56-801.088Z" transform="translate(1420.332 892.14)" fill="#ffa497"/>
          <path id="Trazado_101395" data-name="Trazado 101395" d="M-1358.27-793.271c-.2-4.366-.43-7.94-.43-8.644s.228-5.339-1.42-5.62c-.25-.043-3.873,2.254-3.943,3.8s0,4.331,1.126,5.123S-1358.27-793.271-1358.27-793.271Z" transform="translate(1418.748 890.575)" fill="#f45763"/>
        </g>
        <g id="Grupo_87477" data-name="Grupo 87477" transform="translate(22.619 57.359)">
          <path id="Trazado_101396" data-name="Trazado 101396" d="M-1309.591-905.382c6.549-8.31,8.8-9.156,15.563-13.1s32.395-13.944,37.676-15.211,26.584,8.661,33.574,11.831,15.883,6.287,17.4,9.376c5.073,10.338-4.974,24.99-5.026,55.694-.028,16.082-3.692,52.244-3.692,52.244s-80.493.15-81.62-1.54-3.944-59.437-5.352-71.268S-1309.591-905.382-1309.591-905.382Z" transform="translate(1309.591 959.15)" fill="#0f0140"/>
          <line id="Línea_151" data-name="Línea 151" y1="11.937" x2="1.726" transform="translate(103.917 50.915)" fill="none" stroke="#170c62" stroke-miterlimit="10" stroke-width="1"/>
          <path id="Trazado_101397" data-name="Trazado 101397" d="M-1285.406-903.926c3.11-1.162,10.479.859,11.825,1.328s-.792-5.289-1.584-6-2.06-2.374-4.489-1.623a9.438,9.438,0,0,0-4.824,4.448A13.012,13.012,0,0,1-1285.406-903.926Z" transform="translate(1359.222 954.683)" fill="#170c62"/>
          <path id="Trazado_101398" data-name="Trazado 101398" d="M-1265.915-898.723c1.109-.052,7.579-3.028,9.128-3.767s8.568-1.085,13.281.232c0,0-9.073-6.13-14.354-6.077s-7.289,1.955-7.712,3.645A35.061,35.061,0,0,0-1265.915-898.723Z" transform="translate(1313.819 954.286)" fill="#170c62"/>
          <path id="Trazado_101399" data-name="Trazado 101399" d="M-1222.524-808.192c-.864-.845-53.431.845-54.488-4.649s-1.783-15.482-1.783-15.482c6.328,3.38,15.515,1.972,15.515,1.972-6.127-2-15-12.054-15.422-15.011-1.3-9.111,3.566-34.232,3.566-34.232l-3.566-7.175-4.173-2.324a57.921,57.921,0,0,0-14.679,11.189,56.989,56.989,0,0,1,1.045,5.853c1.328,11.155,3.907,63.114,5.143,70.438,16.281.6,45.8,1.681,65.546,2.359,9.569.023,16.283.01,16.283.01s.124-4.757.411-11.578C-1214.636-807.145-1221.989-807.669-1222.524-808.192Z" transform="translate(1305.03 949.847)" fill="#170c62"/>
          <path id="Trazado_101400" data-name="Trazado 101400" d="M-1258.85-907.348c-5.672-.684-14.789-5.6-18.381-3.908s-4.437,6.021-5.176,6.76-3.908-2.958-3.908-12.042-.278-18.387,6.41-19.651,24.013,5.285,27.5,7.926a16.465,16.465,0,0,1,5.916,7.886c.951,2.571,3.485,12.923,2.324,13.029s-4.437-6.655-6.866-6.866S-1257.314-907.162-1258.85-907.348Z" transform="translate(1330.681 959.637)" fill="#0f0140"/>
          <path id="Trazado_101401" data-name="Trazado 101401" d="M-1271.312-913.8c1.446-3.433,3.031-6.444,2.977-8.821s-.581-4.014-3.222-4.754-3.75.687-3.908,4.278S-1271.312-913.8-1271.312-913.8Z" transform="translate(1346.37 957.959)" fill="#170c62"/>
          <path id="Trazado_101402" data-name="Trazado 101402" d="M-1240.416-921.718c-5.522-5.008-6.147-10.607-5.628-11.769s2.8-2.006,2.8-2.006.9,3.644.37,4.542S-1240.416-921.718-1240.416-921.718Z" transform="translate(1294.766 959.473)" fill="#170c62"/>
          <path id="Trazado_101403" data-name="Trazado 101403" d="M-1238.227-905.883c-3.376-1.278-9.024-2.71-10.841-.789a14.905,14.905,0,0,0-3.145,4.345c-.88,1.722-1.206,3.328-3.248-.934s-1.54-12.714-1.54-12.714" transform="translate(1301.367 955.745)" fill="none" stroke="#170c62" stroke-miterlimit="10" stroke-width="1"/>
          <path id="Trazado_101404" data-name="Trazado 101404" d="M-1286.4-906.446s2.747-3.13,3.854-2.468a11.124,11.124,0,0,1,4.173,4.31c1.734,2.8,3.806,4.167,2.022-2.872" transform="translate(1362.543 954.414)" fill="none" stroke="#170c62" stroke-miterlimit="10" stroke-width="1"/>
          <path id="Trazado_101405" data-name="Trazado 101405" d="M-1247.358-941.613c-.013,2.232-.1,4.458-.333,6.678-.569,5.447-.011,12.631-.442,13.957-.481,1.479-3.333,6.76-3.333,6.76s-5.07-2.323-7.183-4.859-4.859-2.663-8.556-6.4-6.211-9.677-5.387-14.62c.106-.633.755-6.961.9-13.51s7.025-11.525,13.574-11.525,10.47,9.719,10.675,16.268C-1247.362-946.179-1247.346-943.655-1247.358-941.613Z" transform="translate(1323.191 965.134)" fill="#ffa497"/>
          <path id="Trazado_101406" data-name="Trazado 101406" d="M-1271.695-953.19c-.143,6.549-.792,12.876-.9,13.51a13.408,13.408,0,0,0,.131,4.775c1.449.268,20.1.718,24.934-1.532.11-1.582.161-3.168.17-4.757.011-2.042,0-4.565-.088-7.253a24.662,24.662,0,0,0-2.183-9.054l-15.343-5.438C-1268.739-960.93-1271.6-957.387-1271.695-953.19Z" transform="translate(1323.191 964.715)" fill="#f45763"/>
        </g>
        <g id="Grupo_87479" data-name="Grupo 87479" transform="translate(57.602 0)">
          <path id="Trazado_101407" data-name="Trazado 101407" d="M-1293.738-984.6c9.911,0,13.619,7.613,13.619,13.318,0,5.12-1.642,13.318-13.619,13.318-5.989,0-10.043-5.963-10.043-13.318S-1299.727-984.6-1293.738-984.6Z" transform="translate(1346.077 1026.21)" fill="#524786"/>
          <path id="Trazado_101408" data-name="Trazado 101408" d="M-1292.616-980.566c7.483,0,10.284,5.749,10.284,10.057,0,3.866-1.24,10.057-10.284,10.057-4.522,0-7.584-4.5-7.584-10.057S-1297.139-980.566-1292.616-980.566Z" transform="translate(1345.393 1025.44)" fill="#38295c"/>
          <path id="Trazado_101409" data-name="Trazado 101409" d="M-1249.362-986.266c-.586,3.472-2.3,4.8-3.072,9.481s1.28,11.483-1.774,17.408-7.991,13.714-10.843,14.044-25.7-3.531-33.409-18.86c-2.213-4.4-6.941-21.656-2.895-32.192s10.63-20.191,25.844-20.483S-1246.259-1004.669-1249.362-986.266Z" transform="translate(1314.204 1032.375)" fill="#ffa497"/>
          <path id="Trazado_101410" data-name="Trazado 101410" d="M-1286.164-956.164a2.683,2.683,0,0,1-2.107-.824,2.158,2.158,0,0,1-.393-1.656,4.9,4.9,0,0,0,4.111.893C-1284.371-956.659-1285.213-956.186-1286.164-956.164Z" transform="translate(1338.282 1021.254)" fill="#f45763"/>
          <path id="Trazado_101411" data-name="Trazado 101411" d="M-1287.008-989.925a10.2,10.2,0,0,1,2.993-5.7,44.59,44.59,0,0,1,10.313-2.853,59.2,59.2,0,0,0,9.106-1.756s-1.426,3.612-3.84,5.153c0,0,10.753-.544,14.154-3.726,0,0-.659,2.623-1.316,4.383,0,0,5.266-.543,6.912-2.628a35.577,35.577,0,0,1,1.316,7.123s6.327-8.659,4.717-15.535-3.8-9.508-3.8-9.508a34.937,34.937,0,0,0,7.022,0s-5.852-5.12-10.24-8.485-17.555-3.511-17.555-3.511a20.292,20.292,0,0,0-.146-9.07s-5.632,8.266-11.593,10.789-5.158,2.309-11.479,3.9-12.329,5.641-14.853,9.042-5.266,6.911-6.912,7.461c0,0,3.95-.549,5.925-2.195,0,0-3.293,7.48,1.06,17.107s15.257,6.778,17.372,4.653A4.138,4.138,0,0,0-1287.008-989.925Z" transform="translate(1312.212 1036.034)" fill="#d16452"/>
          <path id="Trazado_101412" data-name="Trazado 101412" d="M-1249.579-982.322a4.138,4.138,0,0,0,.847-4.653,10.291,10.291,0,0,1,2.124-4.75,64.165,64.165,0,0,1,1.873-28.862,33.133,33.133,0,0,1-5,1.578,54.129,54.129,0,0,0-6.6,14.333c-1.913,6.372-2.84,13.256-1.055,19.665a21.5,21.5,0,0,0,1.97,4.747A10.443,10.443,0,0,0-1249.579-982.322Z" transform="translate(1273.936 1033.084)" fill="#994234"/>
          <path id="Trazado_101413" data-name="Trazado 101413" d="M-1254.709-990.964s-.752-24.063,11.865-31.743a16.454,16.454,0,0,0-15.36,8.668c-5.6,9.764-5.217,18.14-5.076,22.834S-1254.709-990.964-1254.709-990.964Z" transform="translate(1276.088 1033.496)" fill="#524786"/>
          <path id="Trazado_101414" data-name="Trazado 101414" d="M-1242.718-984.6c-9.91,0-13.619,7.613-13.619,13.318,0,5.12,1.641,13.318,13.619,13.318,5.989,0,10.043-5.963,10.043-13.318S-1236.729-984.6-1242.718-984.6Z" transform="translate(1260.25 1026.21)" fill="#524786"/>
          <path id="Trazado_101415" data-name="Trazado 101415" d="M-1231.565-970.926c0-6.53-4.31-11.823-9.627-11.823s-9.334,5.293-9.334,11.823,4.018,11.823,9.334,11.823S-1231.565-964.4-1231.565-970.926Z" transform="translate(1254.44 1025.857)" fill="#38295c"/>
          <ellipse id="Elipse_4754" data-name="Elipse 4754" cx="6.551" cy="8.046" rx="6.551" ry="8.046" transform="translate(5.426 46.885)" fill="#524786"/>
          <g id="Grupo_87478" data-name="Grupo 87478" transform="translate(42.497 68.249)">
            <path id="Trazado_101416" data-name="Trazado 101416" d="M-1289.862-951.673c2.678,1.474,11.427,1.966,12.021,1.883s-.627,6.561-2.769,6.806-6.427-.328-8.212-2.048S-1289.862-951.673-1289.862-951.673Z" transform="translate(1290.017 951.673)" fill="#f45763"/>
            <path id="Trazado_101417" data-name="Trazado 101417" d="M-1289.2-949.639c.165-.588.294-1.061.419-1.522,2.946,1.006,8.746,1.431,10.533,1.474a12.294,12.294,0,0,1-.763,2.67c-.057-.037.014.085-.043.049A13.035,13.035,0,0,1-1289.2-949.639Z" transform="translate(1289.916 951.575)" fill="#fff"/>
          </g>
          <path id="Trazado_101418" data-name="Trazado 101418" d="M-1273.761-971.817c0-1.212-.6-2.195-1.335-2.195s-1.335.983-1.335,2.195.6,2.194,1.335,2.194S-1273.761-970.605-1273.761-971.817Z" transform="translate(1317.593 1024.189)" fill="#471052"/>
          <path id="Trazado_101419" data-name="Trazado 101419" d="M-1293.017-970.552c0-1.212-.515-2.194-1.148-2.194s-1.147.982-1.147,2.194.514,2.195,1.147,2.195S-1293.017-969.34-1293.017-970.552Z" transform="translate(1352.123 1023.947)" fill="#471052"/>
          <path id="Trazado_101420" data-name="Trazado 101420" d="M-1281.882-982.26a13.927,13.927,0,0,1,2.9-1.138,13.923,13.923,0,0,1,3.128-.469,7.76,7.76,0,0,1,3.2.314A5.889,5.889,0,0,1-1270-981.7l-.078.131c-1.1-.119-2.012-.389-2.973-.516-.94-.142-1.852-.485-2.833-.564a17,17,0,0,0-5.937.53Z" transform="translate(1318.241 1026.077)" fill="#471052"/>
          <path id="Trazado_101421" data-name="Trazado 101421" d="M-1294.2-978.829a6,6,0,0,0-1.476-.358,12.312,12.312,0,0,0-1.486-.1,6.53,6.53,0,0,1-1.472.052,4.38,4.38,0,0,1-.748-.208,3.047,3.047,0,0,1-.8-.4l-.016-.151a2.876,2.876,0,0,1,1.566-.765,3.725,3.725,0,0,1,1.635.264,7.626,7.626,0,0,1,1.552.579,5.057,5.057,0,0,1,1.336.962Z" transform="translate(1357.172 1025.481)" fill="#471052"/>
        </g>
        <g id="Grupo_87482" data-name="Grupo 87482" transform="translate(0 108.399)">
          <path id="Trazado_101422" data-name="Trazado 101422" d="M-1333.1-786.847c-.006.34.469.831,1.631.831h36.638c4.225,0,5.211-1.671,3.943-3.784s-6.619-6.76-19.859-10-20.2,4.335-22.353,7.747A5.359,5.359,0,0,0-1333.1-786.847Z" transform="translate(1438.229 882.668)" fill="#524786"/>
          <path id="Trazado_101423" data-name="Trazado 101423" d="M-1290.574-788.371c-.729,2.424-28.685,1.16-28.685,1.16s2.834-3.829,5.968-3.938,4.657.98,8.86,1.7,1.087-1.71,1.087-1.71a14.2,14.2,0,0,0,4.179-1.594s-6.926-2.047-9.83-2.522a65.522,65.522,0,0,0-11.25,0c-.672.112-4.085-1.87-8.208-.875a18.444,18.444,0,0,0-4.645,4.889,5.359,5.359,0,0,0,0,5.206c-.006.34.469.831,1.631.831h36.638C-1291.038-785.221-1289.861-786.569-1290.574-788.371Z" transform="translate(1438.223 881.873)" fill="#38295c"/>
          <path id="Trazado_101424" data-name="Trazado 101424" d="M-1297.289-816.317s26.055,4.029,40.177,6.555c13.378,2.394,24.93,3.433,28.2,2.8s14.472-4.753,18.063-6.232,10.774-2.324,14.472-1.163,6.725,2.43,8.2,2.43,1.2,2.394-.774,2.887a14.785,14.785,0,0,1-3.733.422s6.691,3.662,7.888,4.014-.222,2.535-1.841,2.394c0,0,1.418.845.926,1.69s-4.014.845-4.014.845,4.3,2.112.7,2.958-7.887-3.169-9.648-3.522-5.845-.141-7.817,1.338-10.423,8.31-21.972,4.225c0,0-78.39,3.176-86.207,3.176s-12.538-6.908-10.032-20.218a101.083,101.083,0,0,1,7.366-23.24l27.042,1.9Z" transform="translate(1325.365 889.231)" fill="#ffa497"/>
          <g id="Grupo_87480" data-name="Grupo 87480" transform="translate(124.933 78.22)">
            <path id="Trazado_101425" data-name="Trazado 101425" d="M-1305.851-805.081a10.74,10.74,0,0,0-1.585-.278S-1306.767-805.243-1305.851-805.081Z" transform="translate(1307.436 805.359)" fill="#f45763"/>
            <path id="Trazado_101426" data-name="Trazado 101426" d="M-1315.059-802.9a14.786,14.786,0,0,0,3.733-.422,2.351,2.351,0,0,0,1.256-.773c-2.193.969-4.892.35-6.37,0-.933-.222-3.224-.64-4.789-.919A36.693,36.693,0,0,1-1315.059-802.9Z" transform="translate(1322.815 805.293)" fill="#f45763"/>
          </g>
          <g id="Grupo_87481" data-name="Grupo 87481" transform="translate(131.939 83.618)">
            <path id="Trazado_101427" data-name="Trazado 101427" d="M-1314.233-798.521a4.082,4.082,0,0,0-.4-.165Z" transform="translate(1314.638 798.686)" fill="#f45763"/>
            <path id="Trazado_101428" data-name="Trazado 101428" d="M-1316.578-796.068c-.026.023-.8.7-2.426,0-1.356-.59-4.646-1.941-5.793-2.41,1.443.655,5.352,2.862,6.391,3.239A2.261,2.261,0,0,0-1316.578-796.068Z" transform="translate(1325.201 798.647)" fill="#f45763"/>
          </g>
          <path id="Trazado_101429" data-name="Trazado 101429" d="M-1314.222-793.1c-1.2-.352-3.7-1.866-5.229-2.59a10.53,10.53,0,0,0-3.486-.808,7.437,7.437,0,0,1,2.112.808c1.532.755,5.732,3.365,5.732,3.365a12.96,12.96,0,0,0,3.412-.436A10.007,10.007,0,0,1-1314.222-793.1Z" transform="translate(1450.739 881.887)" fill="#f45763"/>
          <path id="Trazado_101430" data-name="Trazado 101430" d="M-1192.195-791.188c-2.218,1.373-8.768,3.169-12.676,2.43a5.956,5.956,0,0,1-4.754-4.014l-1.091,3.522s-54.366,1.549-65.423,1.052c-10.929-.491-27.976-.739-30.2-7.3.611,7.619,4.738,11.541,10.625,11.541,7.817,0,86.207-3.176,86.207-3.176,11.55,4.085,20-2.747,21.972-4.225,1.639-1.229,4.735-1.581,6.745-1.463h0C-1183.791-793.878-1189.976-792.561-1192.195-791.188Z" transform="translate(1306.423 881.697)" fill="#f45763"/>
          <path id="Trazado_101431" data-name="Trazado 101431" d="M-1176.257-813.79s-10.185-1.384-12.227-1.6l1.549-6.339,12.887,2.606Z" transform="translate(1204.333 886.704)" fill="#f45763"/>
          <path id="Trazado_101432" data-name="Trazado 101432" d="M-1216.8-846.872a2.642,2.642,0,0,0,.621,2.851c4.734,4.622,10.948,10.918,17.34,11.887,6.972,1.056,18.592,1.479,19.225,0s2.958-20.282,7.183-29.789,6.971-14.366,8.028-19.86-8.451-18.38-12.676-19.437-13.944-1.69-17.958,1.9-6.972,17.323-11.62,27.676C-1210.4-863.288-1215.116-851.22-1216.8-846.872Z" transform="translate(1217.651 902.044)" fill="#0f0140"/>
          <path id="Trazado_101433" data-name="Trazado 101433" d="M-1214.978-901.39a35.212,35.212,0,0,1,13.572.184c6.539,1.62,11.141,12.888,11.141,12.888" transform="translate(1241.983 902.032)" fill="none" stroke="#170c62" stroke-miterlimit="10" stroke-width="1"/>
          <path id="Trazado_101434" data-name="Trazado 101434" d="M-1169.811-841.21c.035-3.375,7.163-34.322,13.46-51.571h0c-2.677,5.894-5.178,15.31-8.59,22.909-3.751,8.353-8.464,20.421-10.144,24.769a2.641,2.641,0,0,0,.62,2.85c1.813,1.771,3.845,3.785,6.02,5.653C-1168.609-836.758-1169.843-838.059-1169.811-841.21Z" transform="translate(1175.94 900.275)" fill="#170c62"/>
        </g>
      </g>
      <g id="Grupo_87491" data-name="Grupo 87491" transform="translate(333.474 111.9)">
        <g id="Grupo_87485" data-name="Grupo 87485" transform="translate(19.283 16.37)">
          <path id="Trazado_101435" data-name="Trazado 101435" d="M-1556.555-873.152a4.988,4.988,0,0,1-.594,3.01,21.618,21.618,0,0,0-2.658,11.031c.079,2.521.6,5.1-.089,7.526-1.184,4.187-5.6,6.775-7.025,10.887-1.26,3.645-.088,8.23-2.708,11.061a2.449,2.449,0,0,1-2.546.884,3.107,3.107,0,0,1-1.1-.911c-3-3.412-6.22-7.558-5.293-12.008.87-4.18,5.178-7.005,5.995-11.2.668-3.425-1.083-7.376.88-10.261.541-.8,1.316-1.4,1.908-2.164,2.333-3,1.469-7.772,4.157-10.454a6.2,6.2,0,0,1,3.17-1.626,4.925,4.925,0,0,1,5.9,4.222Z" transform="translate(1578.726 877.484)" fill="#d25e5a"/>
          <g id="Grupo_87484" data-name="Grupo 87484" transform="translate(4.748 5.592)">
            <path id="Trazado_101436" data-name="Trazado 101436" d="M-1571.1-818.714c-.181-2.23-.257-4.461-.341-6.7.1-2.229.221-4.459.412-6.688s.441-4.457.835-6.673a28.371,28.371,0,0,1,1.856-6.519c1.617-4.09,2.925-8.367,4.247-12.605l1.917-6.39q1.181-3.131,2.3-6.285c-.326,2.216-.833,4.392-1.277,6.583l-1.921,6.4c-1.329,4.259-2.625,8.511-4.281,12.7a27.306,27.306,0,0,0-1.79,6.3c-.386,2.168-.633,4.37-.823,6.576s-.316,4.424-.4,6.643Z" transform="translate(1571.439 870.572)" fill="#ffa7a4"/>
            <path id="Trazado_101437" data-name="Trazado 101437" d="M-1566.973-862.8a5.242,5.242,0,0,1-1.35,1.343,7.871,7.871,0,0,1-.853.433,3.26,3.26,0,0,0-.776.536l-.1.091-.091-.138c-.213-.325-.471-.627-.675-.956s-.4-.662-.578-1.006a7.833,7.833,0,0,1-.722-2.226l.064-.032a7.88,7.88,0,0,1,1.337,1.921c.168.347.3.71.451,1.068s.223.75.354,1.116l-.192-.047a3.233,3.233,0,0,0,.741-.582,7.818,7.818,0,0,1,.665-.685,5.237,5.237,0,0,1,1.683-.894Z" transform="translate(1579.086 869.461)" fill="#ffa7a4"/>
            <path id="Trazado_101438" data-name="Trazado 101438" d="M-1563.255-853.422c-.383.316-.778.657-1.192.942a9.9,9.9,0,0,1-1.287.8c-.459.22-.946.394-1.387.644a8.545,8.545,0,0,0-1.243.876l-.14.113-.141-.184a22.338,22.338,0,0,1-1.628-2.52,15.879,15.879,0,0,1-1.175-2.776l.061-.035a15.861,15.861,0,0,1,1.771,2.439,22.151,22.151,0,0,1,1.319,2.695l-.28-.071a9.022,9.022,0,0,0,1.336-.731c.42-.284.8-.641,1.2-.951a8.823,8.823,0,0,1,1.311-.774,5.882,5.882,0,0,1,1.459-.538Z" transform="translate(1574.826 867.705)" fill="#ffa7a4"/>
            <path id="Trazado_101439" data-name="Trazado 101439" d="M-1560.146-840.6a6.436,6.436,0,0,1-1.371,1.017,5.225,5.225,0,0,1-1.558.62,4.027,4.027,0,0,0-1.509.723c-.447.34-.885.714-1.333,1.008l-.337.222-.251-.377a10.576,10.576,0,0,1-.969-1.745,9.3,9.3,0,0,1-.625-1.933l.078-.043a9.27,9.27,0,0,1,1.3,1.563,10.636,10.636,0,0,1,.955,1.752l-.59-.155a10.111,10.111,0,0,1,1.593-.633,4.6,4.6,0,0,0,1.47-.82,4.779,4.779,0,0,1,1.451-.862,5.891,5.891,0,0,1,1.661-.418Z" transform="translate(1569.008 864.945)" fill="#ffa7a4"/>
          </g>
        </g>
        <g id="Grupo_87487" data-name="Grupo 87487" transform="translate(0)">
          <path id="Trazado_101440" data-name="Trazado 101440" d="M-1540.535-823.463c-1.743-.287-8.276-2.377-7.82-4.083,1.959-7.323,3.917-15.631-2.866-19.213-3.264-1.723-7.361-2.6-9.219-5.788-1.915-3.285-.506-7.46,1.213-10.852s3.786-7.021,3.05-10.752c-.771-3.906-4.464-6.788-5.056-10.725-.807-5.376,4.414-9.707,9.428-11.806a8.84,8.84,0,0,1,5.378-.89,6.6,6.6,0,0,1,3.277,2.117c3.522,3.938,3.378,9.881,2.575,15.1s-2.035,10.738-.067,15.642c1.4,3.484,4.388,6.76,3.587,10.427-.321,1.468-1.237,2.75-1.586,4.212-.942,3.942,2.332,7.493,3.834,11.257a13.819,13.819,0,0,1-3.064,14.478,3.063,3.063,0,0,1-2.666.871Z" transform="translate(1561.359 897.718)" fill="#ff7571"/>
          <g id="Grupo_87486" data-name="Grupo 87486" transform="translate(4.47 8.489)">
            <path id="Trazado_101441" data-name="Trazado 101441" d="M-1541.422-821.378c-.4-2.9-.807-5.788-1.324-8.655-.123-.718-.273-1.43-.388-2.147s-.174-1.442-.292-2.158c-.217-1.435-.458-2.865-.732-4.288a56.263,56.263,0,0,0-2.186-8.359,17.367,17.367,0,0,0-1.828-3.78,5.178,5.178,0,0,0-1.321-1.4,6.938,6.938,0,0,1-1.763-1.639,7.241,7.241,0,0,1-1.272-4.548,22.348,22.348,0,0,1,.652-4.461c.672-2.876,1.518-5.654,1.988-8.483a19.464,19.464,0,0,0-.173-8.4c-.229-.658-.409-1.329-.625-2a13.994,13.994,0,0,0-.833-1.953,19.511,19.511,0,0,0-2.441-3.581,16.484,16.484,0,0,1,3.115,3.157,14.93,14.93,0,0,1,1.223,1.906,7.8,7.8,0,0,1,.844,2.119,20.766,20.766,0,0,1,.2,8.969c-.489,2.935-1.349,5.755-2,8.561a21.138,21.138,0,0,0-.619,4.186,5.923,5.923,0,0,0,1.011,3.734,5.624,5.624,0,0,0,1.429,1.323,6.445,6.445,0,0,1,1.68,1.752,18.6,18.6,0,0,1,1.982,4.077,57.553,57.553,0,0,1,2.243,8.563q.417,2.165.741,4.342c.1.727.236,1.448.324,2.176s.107,1.464.153,2.2C-1541.477-827.233-1541.368-824.3-1541.422-821.378Z" transform="translate(1558.394 887.225)" fill="#ffa7a4"/>
            <path id="Trazado_101442" data-name="Trazado 101442" d="M-1547.79-876.49a4.478,4.478,0,0,1,1.312.779,4.73,4.73,0,0,1,1.026,1.079,6.981,6.981,0,0,0,.873,1.215,10.8,10.8,0,0,0,1.141.967l-.516.032c.174-.375.388-.727.586-1.087a10.944,10.944,0,0,1,.648-1.043c.226-.339.484-.659.731-.984s.527-.627.752-.972l.087.015a3.438,3.438,0,0,1-.258,1.28,8.5,8.5,0,0,1-.53,1.147,7.882,7.882,0,0,1-.684,1.045,11.57,11.57,0,0,1-.789.972l-.323.34-.194-.307a8.7,8.7,0,0,0-.849-1.221,5.949,5.949,0,0,0-1.152-.941,5.738,5.738,0,0,1-1.047-1.029,9.149,9.149,0,0,1-.869-1.218Z" transform="translate(1553.187 885.177)" fill="#ffa7a4"/>
            <path id="Trazado_101443" data-name="Trazado 101443" d="M-1538.612-862.989a7.146,7.146,0,0,1-.78,1.379,10.028,10.028,0,0,1-1,1.2c-.378.358-.81.665-1.214,1a7.238,7.238,0,0,0-1.064,1.133l-.1.133-.143-.114a12,12,0,0,1-1.362-1.25c-.394-.45-.813-.876-1.18-1.344s-.714-.948-1.042-1.444-.629-1.012-.973-1.5l.05-.074a6.254,6.254,0,0,1,1.476,1.1,13.745,13.745,0,0,1,1.226,1.317c.382.459.706.963,1.061,1.439s.638,1.048.968,1.457l-.243.019a6.464,6.464,0,0,0,1.073-1.116c.3-.424.574-.875.894-1.281a13.5,13.5,0,0,1,1.069-1.115,11.732,11.732,0,0,1,1.214-1Z" transform="translate(1550.343 882.765)" fill="#ffa7a4"/>
            <path id="Trazado_101444" data-name="Trazado 101444" d="M-1547.957-852.58c.551.646,1.12,1.241,1.7,1.809s1.213,1.068,1.824,1.616a5.933,5.933,0,0,0,2.13,1.238,7.844,7.844,0,0,0,2.447.273l-.363.256a16.352,16.352,0,0,1,.58-1.98,10.988,10.988,0,0,1,.842-1.888,9.2,9.2,0,0,1,1.207-1.706,4.509,4.509,0,0,1,1.7-1.223l.044.076a6.619,6.619,0,0,0-1.224,1.539,18.883,18.883,0,0,0-.915,1.732l-.815,1.8c-.269.6-.5,1.231-.739,1.842l-.114.294-.25-.039a14.126,14.126,0,0,1-2.487-.71,25.237,25.237,0,0,1-2.386-.98,6.234,6.234,0,0,1-2.006-1.648,6.407,6.407,0,0,1-1.257-2.259Z" transform="translate(1548.037 880.915)" fill="#ffa7a4"/>
            <path id="Trazado_101445" data-name="Trazado 101445" d="M-1541.554-844.1a4.955,4.955,0,0,1,.34,2.033,6.636,6.636,0,0,1-.38,2.04,7.3,7.3,0,0,1-1.046,1.781l-1.219,1.62-.087.116-.141-.1a17.914,17.914,0,0,0-2.126-1.2c-.714-.384-1.455-.711-2.2-1.028s-1.479-.642-2.238-.927c-.754-.309-1.531-.556-2.318-.852l.014-.088a11.671,11.671,0,0,1,4.923,1,15.433,15.433,0,0,1,2.21,1.23,14.823,14.823,0,0,1,1.944,1.616l-.227.015a5.647,5.647,0,0,0,1.125-1.607,13.831,13.831,0,0,0,.638-1.833,14.483,14.483,0,0,0,.7-3.8Z" transform="translate(1557.391 878.989)" fill="#ffa7a4"/>
          </g>
        </g>
        <g id="Grupo_87490" data-name="Grupo 87490" transform="translate(7.562 61.913)">
          <g id="Grupo_87489" data-name="Grupo 87489">
            <g id="Grupo_87488" data-name="Grupo 87488">
              <path id="Trazado_101446" data-name="Trazado 101446" d="M-1550.7-789.951h-18.653a3.748,3.748,0,0,1-3.463-3.522l-2.953-22.944c-.323-2.51,1.319-4.771,3.464-4.771h24.558c2.145,0,3.787,2.261,3.463,4.771l-2.952,22.944A3.749,3.749,0,0,1-1550.7-789.951Z" transform="translate(1575.806 821.189)" fill="#524786"/>
            </g>
          </g>
          <path id="Trazado_101447" data-name="Trazado 101447" d="M-1560.3-821.189h-12.555c2.146,0,3.787,2.261,3.464,4.771l-2.953,22.944a3.748,3.748,0,0,1-3.463,3.522h12.554a3.749,3.749,0,0,0,3.464-3.522l2.952-22.944C-1556.512-818.928-1558.154-821.189-1560.3-821.189Z" transform="translate(1588.362 821.189)" fill="#38295c"/>
        </g>
      </g>
      <g id="Grupo_87498" data-name="Grupo 87498" transform="translate(150.827 66.156)">
        <g id="Grupo_87492" data-name="Grupo 87492" transform="translate(28.156 132.588)">
          <path id="Trazado_101448" data-name="Trazado 101448" d="M-1459.483-790.364h78.013a1.422,1.422,0,0,1,1.423,1.422v3.456a1.422,1.422,0,0,1-1.423,1.422h-78.013Z" transform="translate(1479.56 790.371)" fill="#261b41"/>
          <path id="Trazado_101449" data-name="Trazado 101449" d="M-1362.817-786.02v1.405a.549.549,0,0,0,.549.549h19.652a1.107,1.107,0,0,0,1.108-1.107v-4.094a1.107,1.107,0,0,0-1.232-1.1l-19.589,3.8A.55.55,0,0,0-1362.817-786.02Z" transform="translate(1362.817 790.373)" fill="#524786"/>
        </g>
        <g id="Grupo_87497" data-name="Grupo 87497">
          <g id="Grupo_87495" data-name="Grupo 87495">
            <path id="Trazado_101450" data-name="Trazado 101450" d="M-1354.543-954.261h-145.806a7,7,0,0,0-6.582,4.626l-31.887,88.553c-1.333,4.568,2.007,7.989,7.378,8.568.823.089,4.74-1.671,10.89-4.564H-1390.2a7,7,0,0,0,6.582-4.626l28.805-79.994c4.871-2.543,7.647-3.995,7.647-3.995S-1345.362-954.261-1354.543-954.261Z" transform="translate(1539.111 954.261)" fill="#524786"/>
            <path id="Trazado_101451" data-name="Trazado 101451" d="M-1500.507-948.619H-1354.7a2.99,2.99,0,0,1,2.813,4l-31.887,88.554a7,7,0,0,1-6.582,4.625h-145.806a2.99,2.99,0,0,1-2.813-4l31.887-88.553A7,7,0,0,1-1500.507-948.619Z" transform="translate(1543.834 953.183)" fill="#38295c"/>
            <path id="Trazado_101452" data-name="Trazado 101452" d="M-1434.24-834.162l6.472-24.005,24.53,24.005Z" transform="translate(1510.484 935.908)" fill="#261b41"/>
            <path id="Trazado_101453" data-name="Trazado 101453" d="M-1428.694-911.489c-.641,3.959-3.2,5.555-6.271,5.555a4.728,4.728,0,0,1-4.839-5.555,6.678,6.678,0,0,1,6.271-5.555A4.748,4.748,0,0,1-1428.694-911.489Z" transform="translate(1540.438 947.153)" fill="#524786"/>
            <g id="Grupo_87493" data-name="Grupo 87493" transform="translate(40.864 81.804)">
              <path id="Trazado_101454" data-name="Trazado 101454" d="M-1355.06-847.938l1.875-5.207h-2.357l-1.875,5.207Z" transform="translate(1357.416 853.145)" fill="#261b41"/>
              <path id="Trazado_101455" data-name="Trazado 101455" d="M-1361.194-847.938l1.875-5.207h-2.357l-1.875,5.207Z" transform="translate(1368.514 853.145)" fill="#261b41"/>
              <path id="Trazado_101456" data-name="Trazado 101456" d="M-1367.328-847.938l1.875-5.207h-2.357l-1.875,5.207Z" transform="translate(1379.611 853.145)" fill="#261b41"/>
              <path id="Trazado_101457" data-name="Trazado 101457" d="M-1373.463-847.938l1.875-5.207h-2.357l-1.875,5.207Z" transform="translate(1390.708 853.145)" fill="#261b41"/>
            </g>
            <g id="Grupo_87494" data-name="Grupo 87494" transform="translate(126.246 81.804)">
              <path id="Trazado_101458" data-name="Trazado 101458" d="M-1460.6-847.938l1.875-5.207h-2.357l-1.875,5.207Z" transform="translate(1462.955 853.145)" fill="#261b41"/>
              <path id="Trazado_101459" data-name="Trazado 101459" d="M-1466.733-847.938l1.875-5.207h-2.357l-1.875,5.207Z" transform="translate(1474.053 853.145)" fill="#261b41"/>
              <path id="Trazado_101460" data-name="Trazado 101460" d="M-1472.868-847.938l1.875-5.207h-2.357l-1.875,5.207Z" transform="translate(1485.15 853.145)" fill="#261b41"/>
              <path id="Trazado_101461" data-name="Trazado 101461" d="M-1479-847.938l1.875-5.207h-2.357l-1.875,5.207Z" transform="translate(1496.247 853.145)" fill="#261b41"/>
            </g>
          </g>
          <g id="Grupo_87496" data-name="Grupo 87496" transform="translate(53.917 69.501)">
            <path id="Trazado_101462" data-name="Trazado 101462" d="M-1386.336-807.422c-1.439-4.137-18.886-60.437-18.886-60.437h-22.4l-1.48,7.841s15.017,48.459,16.456,52.6q.165.473.312.949h0c1.316,4.045-2.156,4.027-6.066,4.027h-39.5v3.582h65.806C-1384.178-798.864-1384.9-803.284-1386.336-807.422Z" transform="translate(1457.899 868.259)" fill="#38295c"/>
            <path id="Trazado_101463" data-name="Trazado 101463" d="M-1462.733-867.859s17.447,56.3,18.886,60.437,2.158,8.558-5.756,8.558h26.308c7.915,0,7.2-4.42,5.756-8.558s-18.886-60.437-18.886-60.437Z" transform="translate(1493.012 868.259)" fill="#524786"/>
            <path id="Trazado_101464" data-name="Trazado 101464" d="M-1448.738-867.953c1.735-.079,3.471-.12,5.206-.176s3.47-.072,5.205-.111,3.471-.078,5.206-.078l5.205-.032.29,0,.091.282c.725,2.268,1.441,4.539,2.122,6.819l2.076,6.834c1.335,4.571,2.673,9.14,3.894,13.747-1.6-4.488-3.09-9.011-4.578-13.534l-2.161-6.808c-.731-2.265-1.427-4.542-2.113-6.822l.38.28-5.205-.031c-1.735,0-3.471-.052-5.206-.079s-3.47-.051-5.205-.111S-1447-867.873-1448.738-867.953Z" transform="translate(1484.501 868.353)" fill="#8375d4"/>
          </g>
        </g>
      </g>
      <g id="Grupo_87499" data-name="Grupo 87499" transform="translate(0 205.051)">
        <path id="Trazado_101465" data-name="Trazado 101465" d="M-1216.582-768.754H-1602.76a6.911,6.911,0,0,1-6.911-6.911h0a6.911,6.911,0,0,1,6.911-6.911h386.179a6.911,6.911,0,0,1,6.911,6.911h0A6.911,6.911,0,0,1-1216.582-768.754Z" transform="translate(1609.671 782.576)" fill="#a04f58"/>
        <path id="Trazado_101466" data-name="Trazado 101466" d="M-1216.582-767.122H-1602.76a6.911,6.911,0,0,1-6.911-6.911h400A6.911,6.911,0,0,1-1216.582-767.122Z" transform="translate(1609.671 780.944)" fill="#713349"/>
      </g>
    </g>
  </g>
</svg>
