<svg xmlns="http://www.w3.org/2000/svg" xmlns:xlink="http://www.w3.org/1999/xlink" width="456.5" height="339.254" viewBox="0 0 456.5 339.254">
  <defs>
    <clipPath id="clip-path">
      <circle id="Elipse_4960" data-name="Elipse 4960" cx="18.414" cy="18.414" r="18.414" fill="none"/>
    </clipPath>
    <clipPath id="clip-path-2">
      <circle id="Elipse_4962" data-name="Elipse 4962" cx="27.462" cy="27.462" r="27.462" fill="none"/>
    </clipPath>
  </defs>
  <g id="img1" transform="translate(-963.5 -411.745)">
    <g id="Grupo_107128" data-name="Grupo 107128" transform="translate(0 -0.254)">
      <path id="Trazado_148788" data-name="Trazado 148788" d="M-5710.292-878.2c-.01-.838-.033-1.674-.033-2.514,0-116.537,99.991-211.087,223.631-211.817V-1217.45c-196.949.732-356.367,151.211-356.367,336.74,0,.839.01,1.676.017,2.514Z" transform="translate(6906.694 1629.449)" fill="#fcecdf" opacity="0.637" style="isolation: isolate"/>
    </g>
    <g id="Grupo_131035" data-name="Grupo 131035" transform="translate(906.004 330.088)">
      <g id="Grupo_130991" data-name="Grupo 130991" transform="translate(169.032 82.165)">
        <rect id="Rectángulo_35407" data-name="Rectángulo 35407" width="96.091" height="23.569" rx="8.156" fill="#f8f5f3"/>
        <path id="Trazado_149419" data-name="Trazado 149419" d="M178.659,87.5l1.812,3.671,4.051.589L181.59,94.62l.692,4.034-3.623-1.9-3.623,1.9.692-4.034L172.8,91.763l4.051-.589Z" transform="translate(-161.262 -81.771)" fill="#ffd496"/>
        <path id="Trazado_149420" data-name="Trazado 149420" d="M193.377,87.5l1.812,3.671,4.051.589-2.931,2.857L197,98.654l-3.623-1.9-3.623,1.9.692-4.034-2.931-2.857,4.051-.589Z" transform="translate(-160.27 -81.771)" fill="#ffd496"/>
        <path id="Trazado_149421" data-name="Trazado 149421" d="M208.534,87.5l1.812,3.671,4.051.589-2.931,2.857.692,4.034-3.623-1.9-3.623,1.9.692-4.034-2.931-2.857,4.051-.589Z" transform="translate(-159.249 -81.771)" fill="#ffd496"/>
        <path id="Trazado_149422" data-name="Trazado 149422" d="M223.032,87.5l1.812,3.671,4.051.589-2.931,2.857.692,4.034-3.623-1.9-3.623,1.9.692-4.034-2.931-2.857,4.051-.589Z" transform="translate(-158.272 -81.771)" fill="#ffd496"/>
        <path id="Trazado_149423" data-name="Trazado 149423" d="M237.97,87.5l1.812,3.671,4.051.589L240.9,94.62l.692,4.034-3.623-1.9-3.623,1.9.692-4.034-2.931-2.857,4.051-.589Z" transform="translate(-157.266 -81.771)" fill="#ffd496"/>
        <path id="Trazado_149424" data-name="Trazado 149424" d="M224.338,103.205H236v10.434Z" transform="translate(-157.789 -80.713)" fill="#f8f5f3"/>
      </g>
      <g id="Grupo_130992" data-name="Grupo 130992" transform="translate(426.523 308.023)">
        <path id="Trazado_149425" data-name="Trazado 149425" d="M403.226,360.071c1.818-13.177,13.177-58.616,24.082-66.339,0,0,6.815,46.347-14.995,67.248Z" transform="translate(-403.226 -293.732)" fill="#aab780"/>
        <path id="Trazado_149426" data-name="Trazado 149426" d="M407.909,361.255c4.211-19.61,8.369-39.394,15.546-58.123" transform="translate(-402.91 -293.099)" fill="none" stroke="#9ca36d" stroke-miterlimit="10" stroke-width="0.257"/>
      </g>
      <g id="Grupo_130993" data-name="Grupo 130993" transform="translate(76.213 330.38)">
        <path id="Trazado_149427" data-name="Trazado 149427" d="M75.386,331.577C71.7,337.785,97.877,341.5,100,343.617s-22.466,3.856-19.056,13.815c4.711,13.759,26.7-5.985,32.22-3.451S90.5,366.955,96.026,372.67s32.007-3.875,38.779-10.459,4.183-31.81-8.341-39.843,1.31,20.562-3.565,21.419-6.844-32.637-16.59-28.8c-9.8,3.853.992,19.623-.6,22.05S82.573,319.479,75.386,331.577Z" transform="translate(-75.031 -314.677)" fill="#aab780"/>
        <path id="Trazado_149428" data-name="Trazado 149428" d="M86.169,332.294a176.018,176.018,0,0,1,70.9,48.534" transform="translate(-74.28 -313.49)" fill="none" stroke="#9ca36d" stroke-miterlimit="10" stroke-width="0.376"/>
        <path id="Trazado_149429" data-name="Trazado 149429" d="M116.521,348.56A65.779,65.779,0,0,1,106.146,322.8" transform="translate(-72.934 -314.13)" fill="none" stroke="#9ca36d" stroke-miterlimit="10" stroke-width="0.376"/>
        <path id="Trazado_149430" data-name="Trazado 149430" d="M87.7,353.845a52.764,52.764,0,0,1,15.917-6.306,30.823,30.823,0,0,1,16.933,1.135" transform="translate(-74.177 -312.508)" fill="none" stroke="#9ca36d" stroke-miterlimit="10" stroke-width="0.376"/>
        <path id="Trazado_149431" data-name="Trazado 149431" d="M125.906,354.253c2.186-1.414,2.88-4.268,3.124-6.86a38.384,38.384,0,0,0-4.153-21.214" transform="translate(-71.672 -313.902)" fill="none" stroke="#9ca36d" stroke-miterlimit="10" stroke-width="0.376"/>
        <path id="Trazado_149432" data-name="Trazado 149432" d="M107.945,365.614A41.929,41.929,0,0,0,126.161,353.3" transform="translate(-72.813 -312.075)" fill="none" stroke="#9ca36d" stroke-miterlimit="10" stroke-width="0.376"/>
      </g>
      <g id="Grupo_130994" data-name="Grupo 130994" transform="translate(258.28 233.564)" opacity="0.15">
        <path id="Trazado_149433" data-name="Trazado 149433" d="M325.312,225.775c9.622,5.648-23.026,30.212-24.319,34.661s33.276-11.548,36.094,4.471c3.893,22.131-40.6,11.831-46.17,19.376s40.345.641,37.136,12.495-46.2,18.645-60.274,14.79-29.4-39.917-18.45-60.133,13.574,28.8,20.81,26.321-15.1-49.266.949-51.352c16.129-2.1,13.3,27.289,17.263,29.389S306.559,214.77,325.312,225.775Z" transform="translate(-245.605 -223.974)" fill="#adadad"/>
        <path id="Trazado_149434" data-name="Trazado 149434" d="M325.454,266.98c-16.178-.075-32.282,2.992-44.528,13.5a275.135,275.135,0,0,1,30.644-43.654c.778-.907-.583-2.173-1.364-1.263a277.586,277.586,0,0,0-29.386,41.374,108.129,108.129,0,0,0-5.463-38.829.93.93,0,0,0-1.772.563,107.175,107.175,0,0,1,5.18,41.868q-4.4,7.842-8.272,15.956a.811.811,0,0,0-.605-.45c-13.664-2.7-18.325-26.617-18.844-37.883a.93.93,0,0,0-1.857.071c.568,12.348,5.468,36.692,20.276,39.621a.947.947,0,0,0,.384,0,277.094,277.094,0,0,0-19.567,56.707.93.93,0,0,0,1.809.425A275.461,275.461,0,0,1,271.6,298.475a68.575,68.575,0,0,0,33.792,3c1.167-.185,1.109-2.044-.071-1.857a67.819,67.819,0,0,1-32.92-2.822q2.6-5.42,5.447-10.722l.014-.011c12.336-13.691,29.927-17.3,47.66-17.221C326.722,268.842,326.648,266.985,325.454,266.98Z" transform="translate(-245.363 -223.214)" fill="#5e5e5e"/>
      </g>
      <g id="Grupo_130995" data-name="Grupo 130995" transform="translate(132.322 222.661)" opacity="0.15">
        <path id="Trazado_149435" data-name="Trazado 149435" d="M138,215.806c-9.4,6.015,24.173,29.3,25.639,33.7s-33.7-10.257-35.894,5.86c-3.037,22.265,41.022,10.255,46.882,17.581s-40.29,2.2-36.626,13.918,46.882,16.849,60.8,12.453,27.836-41.022,16.115-60.8-12.453,29.3-19.779,27.1,13.186-49.813-2.93-51.277c-16.2-1.473-12.241,27.782-16.115,30.034S156.317,204.086,138,215.806Z" transform="translate(-127.599 -213.76)" fill="#adadad"/>
        <path id="Trazado_149436" data-name="Trazado 149436" d="M138.562,257.014c16.163-.7,32.373,1.744,45.016,11.776a275.172,275.172,0,0,0-32.305-42.439c-.812-.876.5-2.193,1.315-1.314a277.456,277.456,0,0,1,30.96,40.21,108.133,108.133,0,0,1,3.962-39.011.93.93,0,0,1,1.792.493,107.152,107.152,0,0,0-3.561,42.037q4.7,7.666,8.881,15.625a.812.812,0,0,1,.588-.474c13.549-3.228,17.284-27.3,17.367-38.581a.93.93,0,0,1,1.859,0c-.092,12.359-4.049,36.875-18.733,40.374a.963.963,0,0,1-.384.013,277.039,277.039,0,0,1,21.742,55.91.93.93,0,0,1-1.792.494,275.443,275.443,0,0,0-21.682-55.719,68.58,68.58,0,0,1-33.651,4.3c-1.173-.14-1.188-2,0-1.858a67.818,67.818,0,0,0,32.786-4.09q-2.811-5.316-5.857-10.5l-.014-.01c-12.855-13.206-30.572-16.136-48.289-15.369C137.366,258.925,137.368,257.066,138.562,257.014Z" transform="translate(-126.92 -213.019)" fill="#5e5e5e"/>
      </g>
      <g id="Grupo_130996" data-name="Grupo 130996" transform="translate(332.886 109.205)">
        <path id="Trazado_149437" data-name="Trazado 149437" d="M373.209,133.841H322.83l-7.33,4.978V114.061a6.6,6.6,0,0,1,6.6-6.6h51.114a6.6,6.6,0,0,1,6.6,6.6v13.183A6.6,6.6,0,0,1,373.209,133.841Z" transform="translate(-315.5 -107.466)" fill="none" stroke="#c5c2c0" stroke-miterlimit="10" stroke-width="0.558"/>
        <path id="Trazado_149438" data-name="Trazado 149438" d="M362.589,114.846q2.645.019,5.289.047" transform="translate(-312.327 -106.969)" fill="none" stroke="#c5c2c0" stroke-miterlimit="10" stroke-width="0.558"/>
        <path id="Trazado_149439" data-name="Trazado 149439" d="M348.475,114.791q5.926,0,11.85.037" transform="translate(-313.278 -106.972)" fill="none" stroke="#c5c2c0" stroke-miterlimit="10" stroke-width="0.558"/>
        <path id="Trazado_149440" data-name="Trazado 149440" d="M334.014,114.9c6.208-.062,5.842-.1,12.05-.1" transform="translate(-314.252 -106.972)" fill="none" stroke="#c5c2c0" stroke-miterlimit="10" stroke-width="0.558"/>
        <path id="Trazado_149441" data-name="Trazado 149441" d="M322.532,114.89h9.02" transform="translate(-315.026 -106.966)" fill="none" stroke="#c5c2c0" stroke-miterlimit="10" stroke-width="0.558"/>
        <path id="Trazado_149442" data-name="Trazado 149442" d="M349.508,120.3q3.977.062,7.954.158" transform="translate(-313.208 -106.601)" fill="none" stroke="#c5c2c0" stroke-miterlimit="10" stroke-width="0.558"/>
        <path id="Trazado_149443" data-name="Trazado 149443" d="M337.795,120.2q4.547.006,9.092.06" transform="translate(-313.998 -106.608)" fill="none" stroke="#c5c2c0" stroke-miterlimit="10" stroke-width="0.558"/>
        <path id="Trazado_149444" data-name="Trazado 149444" d="M322.532,120.465c6.52-.155,6.468-.245,12.99-.263" transform="translate(-315.026 -106.608)" fill="none" stroke="#c5c2c0" stroke-miterlimit="10" stroke-width="0.558"/>
        <path id="Trazado_149445" data-name="Trazado 149445" d="M363.991,125.425l4.559-.021" transform="translate(-312.232 -106.257)" fill="none" stroke="#c5c2c0" stroke-miterlimit="10" stroke-width="0.558"/>
        <path id="Trazado_149446" data-name="Trazado 149446" d="M352.782,125.455q4.558-.006,9.117-.021" transform="translate(-312.988 -106.255)" fill="none" stroke="#c5c2c0" stroke-miterlimit="10" stroke-width="0.558"/>
        <path id="Trazado_149447" data-name="Trazado 149447" d="M340.181,125.449q5.058.01,10.116.007" transform="translate(-313.837 -106.254)" fill="none" stroke="#c5c2c0" stroke-miterlimit="10" stroke-width="0.558"/>
        <path id="Trazado_149448" data-name="Trazado 149448" d="M333.177,125.4c3.559.018.544.031,4.1.041" transform="translate(-314.309 -106.257)" fill="none" stroke="#c5c2c0" stroke-miterlimit="10" stroke-width="0.558"/>
        <path id="Trazado_149449" data-name="Trazado 149449" d="M323.25,125.4h7.745" transform="translate(-314.978 -106.257)" fill="none" stroke="#c5c2c0" stroke-miterlimit="10" stroke-width="0.558"/>
      </g>
      <path id="Trazado_149450" data-name="Trazado 149450" d="M57.5,354.218H468.143s-31.267,48.327-191.037,48.327C91.5,402.545,57.5,354.218,57.5,354.218Z" transform="translate(0 18.367)" fill="#f5f2ef"/>
      <g id="Grupo_130999" data-name="Grupo 130999" transform="translate(388.549 310.492)">
        <path id="Trazado_149451" data-name="Trazado 149451" d="M373.23,349.8h22.889a2.424,2.424,0,0,1,2.428,2.4c.051,5.489-1.3,18.475-15.226,18.475-11.377,0-12.636-12.767-12.644-18.333A2.546,2.546,0,0,1,373.23,349.8Z" transform="translate(-367.445 -292.423)" fill="#956b59"/>
        <path id="Trazado_149452" data-name="Trazado 149452" d="M374.631,351.585h20.428a.4.4,0,0,1,.208.735,20.641,20.641,0,0,1-10.84,2.7,21.968,21.968,0,0,1-9.988-2.691A.4.4,0,0,1,374.631,351.585Z" transform="translate(-367.205 -292.303)" fill="#644d47"/>
        <g id="Grupo_130997" data-name="Grupo 130997" transform="translate(0 9.136)">
          <path id="Trazado_149453" data-name="Trazado 149453" d="M382.507,341.483c-.785,2.312-15.306-2.126-12.481-6.707C373.206,329.621,383.232,339.351,382.507,341.483Z" transform="translate(-367.513 -302.672)" fill="#9ca36d"/>
          <path id="Trazado_149454" data-name="Trazado 149454" d="M379.54,327.85c-2.469-.52-11.366-4.2-10.29-9.808C370.106,313.588,381.23,328.2,379.54,327.85Z" transform="translate(-367.547 -303.756)" fill="#9ca36d"/>
          <path id="Trazado_149455" data-name="Trazado 149455" d="M379.416,330.086c1.552-7.335,4.176-14.607,8.028-12.835S379.077,331.691,379.416,330.086Z" transform="translate(-366.856 -303.77)" fill="#9ca36d"/>
          <path id="Trazado_149456" data-name="Trazado 149456" d="M381.957,337.765c8.156-.121,10.447-8.905,8.131-11.626S380.4,337.788,381.957,337.765Z" transform="translate(-366.699 -303.176)" fill="#9ca36d"/>
          <path id="Trazado_149457" data-name="Trazado 149457" d="M376.5,317.224c-2.721-.3-11.332-12.346-8.163-12.61C373.192,304.209,377.928,317.379,376.5,317.224Z" transform="translate(-367.649 -304.604)" fill="#9ca36d"/>
          <path id="Trazado_149458" data-name="Trazado 149458" d="M383.165,357.92a157.667,157.667,0,0,0-3.689-30.007c-1.3-5.87-3.032-11.844-6.8-16.526" transform="translate(-367.31 -304.147)" fill="none" stroke="#9ca36d" stroke-miterlimit="10" stroke-width="0.376"/>
        </g>
        <g id="Grupo_130998" data-name="Grupo 130998" transform="translate(8.774)">
          <path id="Trazado_149459" data-name="Trazado 149459" d="M388.327,348.442c-2.288,2.308-17.067-11.48-11.013-15.31C384.127,328.824,390.439,346.314,388.327,348.442Z" transform="translate(-375.869 -293.592)" fill="#aab780"/>
          <path id="Trazado_149460" data-name="Trazado 149460" d="M392.728,330.46c-2.649-2.063-11.145-11.657-6.58-17.74C389.77,307.892,394.541,331.871,392.728,330.46Z" transform="translate(-375.265 -294.965)" fill="#aab780"/>
          <path id="Trazado_149461" data-name="Trazado 149461" d="M391.652,332.856c6.14-7.868,13.524-15.034,17.1-10.666S390.31,334.577,391.652,332.856Z" transform="translate(-374.809 -294.373)" fill="#aab780"/>
          <path id="Trazado_149462" data-name="Trazado 149462" d="M390.156,343.485c9.825,4.619,17.694-4.552,16.514-9.159S388.281,342.6,390.156,343.485Z" transform="translate(-374.916 -293.533)" fill="#aab780"/>
          <path id="Trazado_149463" data-name="Trazado 149463" d="M395.254,315.981c-3.079-1.946-6.347-21.384-2.4-19.849C398.893,298.482,396.868,317,395.254,315.981Z" transform="translate(-374.847 -296.045)" fill="#aab780"/>
          <path id="Trazado_149464" data-name="Trazado 149464" d="M383.579,358.037c5.574-12.224,6.5-14.45,9.631-27.514,1.869-7.78,3.289-15.937,1.512-23.74" transform="translate(-375.349 -295.322)" fill="none" stroke="#aab780" stroke-miterlimit="10" stroke-width="0.5"/>
        </g>
      </g>
      <g id="Grupo_131002" data-name="Grupo 131002" transform="translate(85.941 191.734)">
        <g id="Grupo_131000" data-name="Grupo 131000" transform="translate(0 23.388)">
          <path id="Trazado_149465" data-name="Trazado 149465" d="M91.827,229.517l37.316,1.308,8.629,6.315.731-20.865a7.959,7.959,0,0,0-7.676-8.234l-38.2-1.338a7.959,7.959,0,0,0-8.234,7.676l-.242,6.906A7.96,7.96,0,0,0,91.827,229.517Z" transform="translate(-84.145 -206.696)" fill="#ffd496"/>
          <circle id="Elipse_4948" data-name="Elipse 4948" cx="2.984" cy="2.984" r="2.984" transform="translate(35.182 9.391)" fill="#fff"/>
          <circle id="Elipse_4949" data-name="Elipse 4949" cx="2.984" cy="2.984" r="2.984" transform="translate(24.332 9.01)" fill="#fff"/>
          <circle id="Elipse_4950" data-name="Elipse 4950" cx="2.984" cy="2.984" r="2.984" transform="translate(14 8.648)" fill="#fff"/>
        </g>
        <g id="Grupo_131001" data-name="Grupo 131001" transform="translate(32.712)">
          <path id="Trazado_149466" data-name="Trazado 149466" d="M139.4,206.518l-16.128-.565-8.483,5.338.677-19.307a7.461,7.461,0,0,1,7.717-7.2l16.958.595a7.461,7.461,0,0,1,7.2,7.717l-.219,6.223A7.459,7.459,0,0,1,139.4,206.518Z" transform="translate(-114.792 -184.785)" fill="#aab780"/>
          <path id="Trazado_149467" data-name="Trazado 149467" d="M122.6,196.276l2.367,2.538,6.388-8.748" transform="translate(-114.266 -184.429)" fill="none" stroke="#fff" stroke-linecap="round" stroke-linejoin="round" stroke-width="1.731"/>
          <path id="Trazado_149468" data-name="Trazado 149468" d="M130.315,196.546l2.367,2.538,6.388-8.748" transform="translate(-113.746 -184.411)" fill="none" stroke="#fff" stroke-linecap="round" stroke-linejoin="round" stroke-width="1.731"/>
        </g>
      </g>
      <g id="Grupo_131008" data-name="Grupo 131008" transform="translate(153.946 134.682)">
        <g id="Grupo_131004" data-name="Grupo 131004" transform="translate(0 37.293)">
          <path id="Trazado_149469" data-name="Trazado 149469" d="M267.283,169.167c2.094-2.3,5.743-.885,5.743-.885s11.687-6.009,18.073,2.758-1.444,18.191-1.444,18.191,22.028.276,19.194,24.524c-1.455,12.445-11.373,13.54-11.373,13.54a17.8,17.8,0,0,1,2.24,13.228c-1.574,6.3-7.883,11.825-19.983,10.467,0,0,6.27,3.772.336,8.632s-11.984,11.458-18.708,4.347-14.828-20.3-14.828-20.3L241.3,189.813Z" transform="translate(-141.56 -166.273)" fill="#482f2f"/>
          <path id="Trazado_149470" data-name="Trazado 149470" d="M207.75,178.283c-1.859-3.543-9.328-5.239-8.463-1.293,0,0-4.008-4.17-7.915-.976a5.791,5.791,0,0,0-.069,9.384s-4.366-4.223-6.775-2.031c-3.934,3.578-2.868,6.49-2.868,6.49a18.07,18.07,0,0,0-18.071,9.764c-7.741,14.571.007,26.186,10.838,29.95a5.641,5.641,0,0,0-.584,7.331c1.778,2.666,6.338,2.443,6.338,2.443s-4.15,4.421.932,12.848,31.844,26.895,41.566,19.846c11.185-8.11,6.549-28.828,6.549-28.828l-.65-41.711Z" transform="translate(-147.008 -165.704)" fill="#482f2f"/>
          <g id="Grupo_131003" data-name="Grupo 131003" transform="translate(0 62.844)">
            <path id="Trazado_149471" data-name="Trazado 149471" d="M299.981,254.239c-6.29-7.4-13.1-11.723-21.884-10.141l-39.18,10.56-38.974-16.9s-14.116-5.74-23.259,3.4c-13.142,13.142-44.615,103.209-19.2,119.747,6.445,4.194,88.088,0,88.088,0a60.467,60.467,0,0,0,4.1-16.176l19.034,2.212,22.741-46.857,29.746-2.14S309.054,264.913,299.981,254.239Z" transform="translate(-147.857 -224.419)" fill="#ffa45c"/>
            <path id="Trazado_149472" data-name="Trazado 149472" d="M239.555,353.694h27.011s3.307-18.745-2.976-22.052-26.454-3.307-26.454-3.307Z" transform="translate(-141.841 -218.196)" fill="#ac6e5d"/>
            <path id="Trazado_149473" data-name="Trazado 149473" d="M239.365,326.543l-51.117-4.6c.591-28.515.577-32.522,1.958-54.352l5.628,45.19Z" transform="translate(-145.135 -222.289)" fill="#ec8f5c"/>
            <path id="Trazado_149474" data-name="Trazado 149474" d="M218.995,225.149c.124.65.866,6.023,1.564,11.148.675,4.955,1.311,9.677,1.311,9.677s-16.557-5.433-25.213-7.486c0,0-1.672,14.944,17.6,24.686,22.287,11.265,54.091,3.9,60.554-18.347l-20.979.424-.977-9.7-.9-8.9-14.611,1.018Z" transform="translate(-144.571 -225.149)" fill="#c88a73"/>
            <path id="Trazado_149475" data-name="Trazado 149475" d="M251.083,231.974l-.536-5.326-14.611,1.018-18.354-2.517c.124.65.866,6.023,1.564,11.148,0,0,5.832,3.642,15.593,3.051S251.083,231.974,251.083,231.974Z" transform="translate(-143.159 -225.149)" fill="#ac6e5d"/>
            <path id="Trazado_149476" data-name="Trazado 149476" d="M196.656,237.646s-1.672,14.944,17.6,24.686c22.287,11.265,54.091,3.9,60.554-18.347" transform="translate(-144.571 -224.307)" fill="none" stroke="#ec8f59" stroke-miterlimit="10" stroke-width="1.564"/>
            <path id="Trazado_149477" data-name="Trazado 149477" d="M190.206,267.587c-1.38,21.83-1.366,25.837-1.958,54.352l51.117,4.6" transform="translate(-145.135 -222.289)" fill="none" stroke="#ec8f59" stroke-miterlimit="10" stroke-width="0.391"/>
            <path id="Trazado_149478" data-name="Trazado 149478" d="M165.841,327.812a35.744,35.744,0,0,1,12.462-9.443c3.62-1.647,8.314-2.514,11.233.185" transform="translate(-146.645 -218.972)" fill="none" stroke="#ec8f59" stroke-miterlimit="10" stroke-width="0.391"/>
            <path id="Trazado_149479" data-name="Trazado 149479" d="M277.435,262.2c2.994,11.553,3.581,15.254,5.454,27.04" transform="translate(-139.125 -222.652)" fill="none" stroke="#ec8f5c" stroke-miterlimit="10" stroke-width="0.391"/>
            <path id="Trazado_149480" data-name="Trazado 149480" d="M219.228,361.309c-1.984-5.291-1.984-8.268,10.913-10.582s20.832-.993,20.832-.993l-6.283,10.251Z" transform="translate(-143.112 -216.779)" fill="#c88a73"/>
          </g>
        </g>
        <g id="Grupo_131007" data-name="Grupo 131007" transform="translate(23.433)">
          <path id="Trazado_149481" data-name="Trazado 149481" d="M288.65,189.231s7.829-9.424,1.444-18.191-18.073-2.758-18.073-2.758l-15.809,29.384s10.007,3.46,18.651,1.889C282.654,198.139,288.65,189.231,288.65,189.231Z" transform="translate(-163.988 -128.98)" opacity="0.47"/>
          <path id="Trazado_149482" data-name="Trazado 149482" d="M175.294,189.211c-4.657,4.139.742,9.079,6.926,12.576a29.8,29.8,0,0,0,6.511,2.71c2.112.6,5.506,2.827,9.408,5.829,11.707,9,27.994,24.985,27.994,24.985l-21.861-39.89Z" transform="translate(-169.559 -127.434)" opacity="0.47"/>
          <g id="Grupo_131005" data-name="Grupo 131005" transform="translate(20.111 23.683)">
            <path id="Trazado_149483" data-name="Trazado 149483" d="M265.171,183.279c1.891-1.548,4.3-3.1,6.19-1.376.708.644,1.151,3.141,1.3,6.186.253,5.093-.311,11.716-1.818,13.761-1.083,1.471-3.955,3.61-6.362,1.031-1.059-1.135-1.052-5.067-.714-9.115C264.2,188.615,265.171,183.279,265.171,183.279Z" transform="translate(-183.604 -151.661)" fill="#7b7473"/>
            <path id="Trazado_149484" data-name="Trazado 149484" d="M267.727,191.239l4.936-3.151c-.151-3.044-.593-5.542-1.3-6.186-1.661-1.509-3.718-.5-5.475.814-.2.145-.422.321-.715.561,0,0-.97,5.337-1.4,10.486-.338,4.049-.345,7.981.714,9.115,2.407,2.579,5.278.44,6.362-1.031l-4.1-1.071Z" transform="translate(-183.604 -151.661)" fill="#645b5a"/>
            <path id="Trazado_149485" data-name="Trazado 149485" d="M197.482,183.639c-2.213-1.809-5.027-3.619-7.24-1.609-1.317,1.2-1.85,7.888-1.471,13.91.258,4.09.936,7.872,2.075,9.416,1.268,1.722,4.625,4.224,7.44,1.207.88-.943,1.131-3.53,1.061-6.645A128.486,128.486,0,0,0,197.482,183.639Z" transform="translate(-188.652 -151.661)" fill="#7b7473"/>
            <path id="Trazado_149486" data-name="Trazado 149486" d="M199.347,199.92a128.486,128.486,0,0,0-1.865-16.281,8.318,8.318,0,0,0-1.792-1.319c-1.818-1.163-3.8-1.787-5.448-.289-1.317,1.2-1.85,7.888-1.471,13.91l5.652,2.126.423,5.7-4,1.59c1.267,1.722,4.625,4.224,7.44,1.207C199.166,205.622,199.417,203.035,199.347,199.92Z" transform="translate(-188.652 -151.661)" fill="#645b5a"/>
            <path id="Trazado_149487" data-name="Trazado 149487" d="M212.312,155.82c-9.784,3.069-16.144,13.005-15.18,23.6,1.549,17.023.933,31.827,4.637,39.3,3.4,6.856,19.007,20.793,34.18,20.793,3.858,0,12.2-2.188,17.94-6.321,7.487-5.391,12.945-14.672,13.612-17.64,2.444-10.86,3.829-22.591,2.537-39.029-.9-11.5-9.553-20.708-20.575-21.919-11.783-1.293-26.842-1.969-36.926,1.142Z" transform="translate(-188.087 -153.522)" fill="#c88a73"/>
            <path id="Trazado_149488" data-name="Trazado 149488" d="M225.846,216.008a5.713,5.713,0,0,1,4.713-3.6,6.886,6.886,0,0,1,3.758.352,7.1,7.1,0,0,1,4.815-2.115,4.749,4.749,0,0,1,3.914,1.537,55.063,55.063,0,0,1-12.254,3.26Z" transform="translate(-186.146 -149.674)" fill="#c05649"/>
            <path id="Trazado_149489" data-name="Trazado 149489" d="M235.665,218.536c-4.6,1.17-8.455-.47-8.925-2.7,0,0,5.678-.713,8.152-1.388s8.094-2.36,8.094-2.36S242.124,216.892,235.665,218.536Z" transform="translate(-186.086 -149.576)" fill="#c05649"/>
            <ellipse id="Elipse_4951" data-name="Elipse 4951" cx="1.842" cy="2.085" rx="1.842" ry="2.085" transform="translate(23.805 40.661)"/>
            <ellipse id="Elipse_4952" data-name="Elipse 4952" cx="1.842" cy="2.085" rx="1.842" ry="2.085" transform="translate(64.87 39.101)"/>
            <path id="Trazado_149490" data-name="Trazado 149490" d="M226.689,204.982c.9,1.012,4.384,1.573,4.384,1.573a9.678,9.678,0,0,0,3.71-2.473" transform="translate(-186.089 -150.115)" fill="none" stroke="#683f2b" stroke-miterlimit="10" stroke-width="0.391"/>
            <path id="Trazado_149491" data-name="Trazado 149491" d="M218.684,214.851c3.261,1.236,20.8,2.473,32.938-7.082" transform="translate(-186.629 -149.867)" fill="none" stroke="#683f2b" stroke-miterlimit="10" stroke-width="0.391"/>
            <path id="Trazado_149492" data-name="Trazado 149492" d="M198.85,201.882a2.538,2.538,0,0,0-1.808,2.985c1.056,4.8,4.493,15,15.539,20.357a71.546,71.546,0,0,0,18.537,5.767l-.412-2.471S214.2,226.756,205.441,217.4a24.092,24.092,0,0,1-6.591-15.517Z" transform="translate(-188.091 -150.264)" fill="#7b7473"/>
            <path id="Trazado_149493" data-name="Trazado 149493" d="M202.7,183.614c1.761-2.967,5.481-4.848,8.908-5.249a12.7,12.7,0,0,1,9.278,2.658" transform="translate(-187.705 -151.854)" fill="none" stroke="#000" stroke-miterlimit="10" stroke-width="0.391"/>
            <path id="Trazado_149494" data-name="Trazado 149494" d="M243.486,179.235c1.4-1.978,5.712-3.6,9.073-3.121,3.816.545,5.137,2.063,7.9,4.748" transform="translate(-184.957 -152.006)" fill="none" stroke="#000" stroke-miterlimit="10" stroke-width="0.391"/>
            <ellipse id="Elipse_4953" data-name="Elipse 4953" cx="6.416" cy="4.564" rx="6.416" ry="4.564" transform="translate(63.086 44.932) rotate(-1.262)" fill="#c86856" opacity="0.51"/>
            <ellipse id="Elipse_4954" data-name="Elipse 4954" cx="6.865" cy="4.564" rx="6.865" ry="4.564" transform="translate(15.548 45.433) rotate(-1.262)" fill="#c86856" opacity="0.51"/>
            <path id="Trazado_149495" data-name="Trazado 149495" d="M269.262,191.7" transform="translate(-183.22 -150.95)" fill="#482f2f"/>
          </g>
          <g id="Grupo_131006" data-name="Grupo 131006">
            <path id="Trazado_149496" data-name="Trazado 149496" d="M236.371,159.139c-1.049,3.8-3,13.223,5.978,17.994,6.973,3.7,15.016,2.527,15.016,2.527s-2.037,9.759,3.062,13.838a10.26,10.26,0,0,0,7.75,2.464l1.076-4.8L265.53,171.05Z" transform="translate(-165.389 -129.461)" fill="#ac6e5d" opacity="0.37" style="mix-blend-mode: multiply;isolation: isolate"/>
            <path id="Trazado_149497" data-name="Trazado 149497" d="M198.8,195.041s9.584,4.193,16.172-.9,5.691-21.263,5.691-21.263,7.487,2.994,7.787-7.788-2.7-13.776-2.7-13.776l-10.783,5.39Z" transform="translate(-167.857 -129.988)" fill="#ac6e5d" opacity="0.37" style="mix-blend-mode: multiply;isolation: isolate"/>
            <path id="Trazado_149498" data-name="Trazado 149498" d="M227.986,155.909s-11.467-.831-18.513,3.542-3.019-21.647,4.194-22.3,13.252,4.81,14.258,10.058A20.968,20.968,0,0,1,227.986,155.909Z" transform="translate(-167.385 -130.946)"/>
            <path id="Trazado_149499" data-name="Trazado 149499" d="M239.151,156.371c-1.446,8.427-11.707.093-11.415-1.025s1.152-14.283,6.2-13.239S240.316,149.589,239.151,156.371Z" transform="translate(-165.908 -130.613)"/>
            <path id="Trazado_149500" data-name="Trazado 149500" d="M169.952,180.053c-1.1,10.585,4.276,17.347,14.61,21.184,12.5,4.643,20.43,2.315,17.265-7.652,0,0,11.134,5.179,16.711-4.916,3.769-6.824-1.243-15.734-1.243-15.734s10.056.447,10.558-10.255-11.262-9.518-11.764-9.35-7.419-6.272-.56-9.811c4.859-2.509,9.379,8.85,11.968,12.733.165.248,3.148.268,4.319-.07,0,0,4.7-8.021,2.865-14.6-5.182-18.6-42.812-7.919-40.255,11.074,0,0-6.939-1.461-11.323,2.922-3.494,3.494-4.179,9.763,1.461,13.879C184.562,169.46,170.934,170.617,169.952,180.053Z" transform="translate(-169.811 -131.296)" fill="#482f2f"/>
            <path id="Trazado_149501" data-name="Trazado 149501" d="M227.849,148.918c.741-5.022,7.76-18.077,19.6-17.569,8.475.363,12.591,4.786,11.914,9.69a12.9,12.9,0,0,1,13.813-1.181c8.11,4.2,7.2,13.569,7.2,13.569s11.607-.065,14.609,11.323c2.569,9.745.757,19.273-10.592,27.759-8.58,6.416-21.8,5.519-27.038-3.252-5.29-8.868,2.876-13.192,2.876-13.192s-11.3,5.612-18.966-1.033c-7.592-6.579-4.373-14.019-4.373-14.019s1.221-13.211-1.566-14.356c-1.088-.446-3.7.694-5.276,4.667C228.83,154.412,227.094,154.038,227.849,148.918Z" transform="translate(-165.912 -131.334)" fill="#482f2f"/>
          </g>
          <path id="Trazado_149502" data-name="Trazado 149502" d="M228.989,229.328a20.256,20.256,0,0,0,6.654-.09c2.917-.695,2.362-2.5.972-2.64s-8.038.258-8.038.258Z" transform="translate(-165.85 -124.917)" fill="#615857"/>
        </g>
      </g>
      <g id="Grupo_131010" data-name="Grupo 131010" transform="translate(197.846 300.682)">
        <path id="Trazado_149503" data-name="Trazado 149503" d="M236.245,375.424l-47.259-17.791h87.166l24.585,16.273Z" transform="translate(-188.986 -282.086)" fill="#9d9895"/>
        <path id="Trazado_149504" data-name="Trazado 149504" d="M300.738,373.907l-64.493,1.517-47.259-17.791v3.254l45.98,20.511L363.1,381l.122-5.157Z" transform="translate(-188.986 -282.086)" fill="#9d9895"/>
        <path id="Trazado_149505" data-name="Trazado 149505" d="M360.279,380.6l-127.668-.288,43.227-93.351,127.668.288Z" transform="translate(-186.046 -286.848)" fill="#b9b5b3"/>
        <path id="Trazado_149506" data-name="Trazado 149506" d="M235.235,374.394c11.8-24.437,28.453-63.1,40.253-87.539h37.437" transform="translate(-185.869 -286.855)" fill="none" stroke="#7f787a" stroke-miterlimit="10" stroke-width="0.391"/>
        <g id="Grupo_131009" data-name="Grupo 131009" transform="translate(117.695 29.257)">
          <circle id="Elipse_4955" data-name="Elipse 4955" cx="18.521" cy="18.521" r="18.521" fill="#dad8d7"/>
          <path id="Trazado_149507" data-name="Trazado 149507" d="M308.705,325.1a4.266,4.266,0,0,0-.114,4.192,12.543,12.543,0,0,0,2.725,3.417,56.993,56.993,0,0,0,7.624,6.884c.917.612,3.874,1.631,5.607.305s3.262-2.549,1.631-4.588-2.039-2.243-3.466-1.529-2.039,1.325-2.651,1.325-5.912-5.1-6.116-5.708-.2-1.019.714-1.631a2.174,2.174,0,0,0,.1-3.568C313.231,322.975,311.723,320.8,308.705,325.1Z" transform="translate(-298.654 -313.707)" fill="#b9b5b3"/>
        </g>
        <path id="Trazado_149508" data-name="Trazado 149508" d="M236.245,375.424l-47.259-17.791v3.254l45.98,20.511Z" transform="translate(-188.986 -282.086)" fill="#908a87"/>
      </g>
      <g id="Grupo_131012" data-name="Grupo 131012" transform="translate(376.967 261.007)">
        <rect id="Rectángulo_35408" data-name="Rectángulo 35408" width="37.644" height="24.739" rx="4.359" transform="translate(0 2.544)" fill="#f3eeeb"/>
        <path id="Trazado_149509" data-name="Trazado 149509" d="M390.291,256.764l-14.431,11.69s-11.033-8.722-15.009-11.968v2.559l15.107,12.033,14.291-11.519Z" transform="translate(-356.525 -249.226)" fill="#9d9895" opacity="0.35"/>
        <path id="Trazado_149510" data-name="Trazado 149510" d="M360.851,256.486c3.976,3.246,15.009,11.968,15.009,11.968l14.431-11.69" transform="translate(-356.525 -249.226)" fill="none" stroke="#7f787a" stroke-miterlimit="10" stroke-width="0.316"/>
        <path id="Trazado_149511" data-name="Trazado 149511" d="M359.733,271.252c3.875-3.561,7.882-7.179,9.065-8.265" transform="translate(-356.601 -248.788)" fill="none" stroke="#7f787a" stroke-miterlimit="10" stroke-width="0.316"/>
        <path id="Trazado_149512" data-name="Trazado 149512" d="M389.567,272.05c-3.658-3.538-5.057-5.449-8.272-8.759" transform="translate(-355.148 -248.768)" fill="none" stroke="#7f787a" stroke-miterlimit="10" stroke-width="0.316"/>
        <g id="Grupo_131011" data-name="Grupo 131011" transform="translate(30.206)">
          <circle id="Elipse_4956" data-name="Elipse 4956" cx="4.698" cy="4.698" r="4.698" fill="#d05649"/>
          <line id="Línea_189" data-name="Línea 189" y1="3.141" transform="translate(4.698 1.877)" fill="none" stroke="#fff" stroke-linecap="round" stroke-linejoin="round" stroke-width="0.684"/>
          <line id="Línea_190" data-name="Línea 190" y2="0.322" transform="translate(4.651 6.677)" fill="none" stroke="#fff" stroke-linecap="round" stroke-linejoin="round" stroke-width="0.684"/>
        </g>
      </g>
      <g id="Grupo_131014" data-name="Grupo 131014" transform="translate(143.482 328.968)">
        <g id="Grupo_131013" data-name="Grupo 131013" transform="translate(0 23.585)">
          <path id="Trazado_149513" data-name="Trazado 149513" d="M146.468,345.809c-3-3.379-6.008-5.633-7.886-2.253s1.127,17.647,10.889,15.771" transform="translate(-138.054 -335.017)" fill="none" stroke="#abdbe7" stroke-miterlimit="10" stroke-width="3"/>
          <path id="Trazado_149514" data-name="Trazado 149514" d="M155.015,364.435c-4.155.437-12.465,2.624-7.435,3.935s24.492,2.844,26.679.438,3.5-5.03-5.03-5.467A50.082,50.082,0,0,0,155.015,364.435Z" transform="translate(-137.517 -333.577)" fill="#e9e3dc"/>
          <path id="Trazado_149515" data-name="Trazado 149515" d="M155.029,368.832h13.83c1.15,0,1.645-2.445,2.156-2.719,6.7-3.575,7.608-13.449,7.666-28.85a1.806,1.806,0,0,0-1.8-1.812h-31.03a1.8,1.8,0,0,0-1.8,1.729c-.257,6.027-.382,25.937,8.947,29.4C153.316,366.7,153.484,367.946,155.029,368.832Z" transform="translate(-137.655 -335.451)" fill="#abdbe7"/>
          <path id="Trazado_149516" data-name="Trazado 149516" d="M168.859,368.673h-13.83c-1.546-.886-1.713-2.133-2.04-2.254-8.82-3.273-9.19-21.246-8.986-28.292a.318.318,0,0,1,.63-.049c.943,5.2,3.044,16.113,4.559,18.982,3.292,6.238,5.157,7.389,5.157,7.389l.8,1.7,13.79.544Z" transform="translate(-137.655 -335.292)" fill="#7893bc" opacity="0.43"/>
          <path id="Trazado_149517" data-name="Trazado 149517" d="M175.138,336.654h-27.8a.715.715,0,0,0-.631,1.059,10.185,10.185,0,0,0,2.248,2.738c2.139,1.858,5.83,3.637,12.036,3.315a25.251,25.251,0,0,0,10.4-2.532,14.22,14.22,0,0,0,4.33-3.32A.762.762,0,0,0,175.138,336.654Z" transform="translate(-137.477 -335.37)" fill="#fff"/>
          <path id="Trazado_149518" data-name="Trazado 149518" d="M171.236,341.043a25.252,25.252,0,0,1-10.4,2.532c-6.206.321-9.9-1.457-12.036-3.315a69.965,69.965,0,0,1,9.9-.75C169.613,339.3,171.236,341.043,171.236,341.043Z" transform="translate(-137.329 -335.179)" fill="#482f2f"/>
        </g>
        <path id="Trazado_149519" data-name="Trazado 149519" d="M161.959,333.645c-1.829-.332-2.947-2.372-2.869-4.23a10.754,10.754,0,0,1,2.039-5.121,14.416,14.416,0,0,0,2.388-5,6.733,6.733,0,0,0-1.953-5.938" transform="translate(-136.636 -313.355)" fill="none" stroke="#fff" stroke-miterlimit="10" stroke-width="0.391"/>
        <path id="Trazado_149520" data-name="Trazado 149520" d="M153.88,326.794a4.494,4.494,0,0,1,.722-2.9c1.408-2.939,2.045-6.454.762-9.449" transform="translate(-136.991 -313.281)" fill="none" stroke="#fff" stroke-miterlimit="10" stroke-width="0.391"/>
        <path id="Trazado_149521" data-name="Trazado 149521" d="M165.823,328.187a5.224,5.224,0,0,1-.375-4.338" transform="translate(-136.228 -312.648)" fill="none" stroke="#fff" stroke-miterlimit="10" stroke-width="0.391"/>
      </g>
      <g id="Grupo_131015" data-name="Grupo 131015" transform="translate(167.66 389.989)">
        <path id="Trazado_149522" data-name="Trazado 149522" d="M161.539,375.105l-.394-4.339,25.03,2.945,34.79,11.517-.394,3.287-30.5.526Z" transform="translate(-160.676 -370.508)" fill="#c39599"/>
        <path id="Trazado_149523" data-name="Trazado 149523" d="M160.705,370.524h28.062l32.654,14.8H190.791Z" transform="translate(-160.705 -370.524)" fill="#ffc8ca"/>
        <line id="Línea_191" data-name="Línea 191" x2="20.488" transform="translate(26.909 10.858)" fill="none" stroke="#c39599" stroke-miterlimit="10" stroke-width="0.5"/>
        <line id="Línea_192" data-name="Línea 192" x2="20.488" transform="translate(22.441 8.393)" fill="none" stroke="#c39599" stroke-miterlimit="10" stroke-width="0.5"/>
        <line id="Línea_193" data-name="Línea 193" x2="20.488" transform="translate(16.125 5.62)" fill="none" stroke="#c39599" stroke-miterlimit="10" stroke-width="0.5"/>
        <line id="Línea_194" data-name="Línea 194" x2="20.488" transform="translate(11.35 3.001)" fill="none" stroke="#c39599" stroke-miterlimit="10" stroke-width="0.5"/>
      </g>
      <path id="Trazado_149524" data-name="Trazado 149524" d="M201.42,372.585l22.953,11.708,2.765-.461-1.923-1.81-21.176-10.515-3.61-.749Z" transform="translate(9.632 19.481)" fill="#9d9895"/>
      <g id="Grupo_131020" data-name="Grupo 131020" transform="translate(85.817 110.3)">
        <g id="Grupo_131018" data-name="Grupo 131018" transform="translate(25.549 16.03)">
          <g id="Grupo_131016" data-name="Grupo 131016">
            <rect id="Rectángulo_35409" data-name="Rectángulo 35409" width="34.791" height="22.864" rx="4.029" transform="translate(0 10.785)" fill="#f3eeeb"/>
            <path id="Trazado_149525" data-name="Trazado 149525" d="M136.21,134l-10.628,15.022s-6.336-11.781-10.626-15.243c-.425-.343-2.914,4.453-3.245,4.183v2.364l13.961,11.12L138.88,140.8l-.028-2.176Z" transform="translate(-107.712 -122.819)" fill="#9d9895" opacity="0.35"/>
            <path id="Trazado_149526" data-name="Trazado 149526" d="M114.529,123.51l21.433.335.566,16.862-11.119,9.007-11.127-8.846Z" transform="translate(-107.539 -123.51)" fill="#f3eeeb"/>
            <path id="Trazado_149527" data-name="Trazado 149527" d="M111.711,137.7c3.675,3,13.871,11.06,13.871,11.06l13.337-10.8" transform="translate(-107.712 -122.554)" fill="none" stroke="#7f787a" stroke-miterlimit="10" stroke-width="0.292"/>
            <path id="Trazado_149528" data-name="Trazado 149528" d="M110.677,151.344c3.581-3.291,7.284-6.635,8.379-7.638" transform="translate(-107.782 -122.149)" fill="none" stroke="#7f787a" stroke-miterlimit="10" stroke-width="0.292"/>
            <path id="Trazado_149529" data-name="Trazado 149529" d="M138.25,152.082c-3.38-3.27-4.673-5.036-7.645-8.1" transform="translate(-106.439 -122.13)" fill="none" stroke="#7f787a" stroke-miterlimit="10" stroke-width="0.292"/>
          </g>
          <path id="Trazado_149530" data-name="Trazado 149530" d="M118.1,127.25h12.85" transform="translate(-107.282 -123.258)" fill="none" stroke="#7f787a" stroke-miterlimit="10" stroke-width="0.293"/>
          <path id="Trazado_149531" data-name="Trazado 149531" d="M117.728,139.793h12.849" transform="translate(-107.307 -122.413)" fill="none" stroke="#7f787a" stroke-miterlimit="10" stroke-width="0.293"/>
          <path id="Trazado_149532" data-name="Trazado 149532" d="M118.751,130.408h1.685" transform="translate(-107.238 -123.045)" fill="none" stroke="#7f787a" stroke-miterlimit="10" stroke-width="0.293"/>
          <path id="Trazado_149533" data-name="Trazado 149533" d="M123.093,130.013h8.216" transform="translate(-106.945 -123.072)" fill="none" stroke="#7f787a" stroke-miterlimit="10" stroke-width="0.293"/>
          <path id="Trazado_149534" data-name="Trazado 149534" d="M117.765,133.171h13.061" transform="translate(-107.304 -122.859)" fill="none" stroke="#7f787a" stroke-miterlimit="10" stroke-width="0.293"/>
          <path id="Trazado_149535" data-name="Trazado 149535" d="M118.554,136.328h5.056" transform="translate(-107.251 -122.646)" fill="none" stroke="#7f787a" stroke-miterlimit="10" stroke-width="0.293"/>
          <path id="Trazado_149536" data-name="Trazado 149536" d="M126.448,136.723h2.317" transform="translate(-106.719 -122.62)" fill="none" stroke="#7f787a" stroke-miterlimit="10" stroke-width="0.293"/>
          <g id="Grupo_131017" data-name="Grupo 131017" transform="translate(24.992 13.457)">
            <circle id="Elipse_4957" data-name="Elipse 4957" cx="4.437" cy="4.437" r="4.437" fill="#aab780"/>
            <path id="Trazado_149537" data-name="Trazado 149537" d="M133.666,141.261l1.174,1.174,2.909-4.291" transform="translate(-131.225 -135.981)" fill="none" stroke="#fff" stroke-linecap="round" stroke-linejoin="round" stroke-width="0.829"/>
          </g>
        </g>
        <g id="Grupo_131019" data-name="Grupo 131019" transform="translate(0)">
          <rect id="Rectángulo_35410" data-name="Rectángulo 35410" width="34.061" height="17.607" rx="4.437" fill="#aab780"/>
          <path id="Trazado_149538" data-name="Trazado 149538" d="M103.726,124.234h6.228v5.572Z" transform="translate(-82.702 -107.431)" fill="#aab780"/>
          <text id="_24_7" data-name="24/7" transform="translate(6.151 10.948)" fill="#fff" font-size="8" font-family="Poppins-SemiBold, Poppins" font-weight="600"><tspan x="0" y="0">24/7</tspan></text>
        </g>
      </g>
      <g id="Grupo_131021" data-name="Grupo 131021" transform="translate(286.808 81.657)">
        <rect id="Rectángulo_35411" data-name="Rectángulo 35411" width="23.927" height="23.927" rx="5.974" fill="#f8f5f3"/>
        <path id="Trazado_149539" data-name="Trazado 149539" d="M280.215,103.549h7.742l-3.67,6.248Z" transform="translate(-271.8 -80.182)" fill="#f8f5f3"/>
        <circle id="Elipse_4958" data-name="Elipse 4958" cx="4.049" cy="4.049" r="4.049" transform="translate(6.493 6.07)" fill="none" stroke="#c5c2c0" stroke-miterlimit="10" stroke-width="1.275"/>
        <path id="Trazado_149540" data-name="Trazado 149540" d="M284.9,94.6l3.357,3.358Z" transform="translate(-271.484 -80.785)" fill="none" stroke="#c5c2c0" stroke-linecap="round" stroke-linejoin="round" stroke-width="1.275"/>
      </g>
      <g id="Grupo_131025" data-name="Grupo 131025" transform="translate(330.271 181.232)">
        <circle id="Elipse_4959" data-name="Elipse 4959" cx="18.414" cy="18.414" r="18.414" transform="translate(3.723 0)" fill="#f8f5f3"/>
        <path id="Trazado_149541" data-name="Trazado 149541" d="M320.957,184.251l-7.907-.57,5.448,7.493Z" transform="translate(-313.05 -174.358)" fill="#f8f5f3"/>
        <g id="Grupo_131024" data-name="Grupo 131024" transform="translate(3.723 0)">
          <g id="Grupo_131023" data-name="Grupo 131023" clip-path="url(#clip-path)">
            <g id="Grupo_131022" data-name="Grupo 131022" transform="translate(-6.141 3.631)" opacity="0.5">
              <path id="Trazado_149542" data-name="Trazado 149542" d="M316.56,227.458a15.024,15.024,0,0,0-2.5-.774,22.076,22.076,0,0,1-3.256-1.246,1.53,1.53,0,0,1,.02-.634c.073-.511,1.315-11.186,5.212-18.047,2.357-4.149,3.656-6.884,5.089-8,3.027-2.35,10.874-3.516,14.108-3.441,5.29.121,10.687,2.639,13.268,5.3,4.708,4.862,7.129,23.517,7.813,26.655a4.861,4.861,0,0,1-5,3.375s-3.58-5.107-4.2-6.48c-.914-2.024-1.635-4.93-2.806-7.7,0,0-.41,6.243-1.035,12.022a24.823,24.823,0,0,1-1.441,6.907c-.094.24-18.766-.887-20.542-2.114-1.05-.725-.153-6.437-.049-8.792.212-4.876.6-10.9.566-11.644Z" transform="translate(-310.785 -177.204)" fill="#b8b9c3"/>
              <path id="Trazado_149543" data-name="Trazado 149543" d="M329.151,184.1s-1.156,1.2-.284,4.734l1.284-4.651Z" transform="translate(-309.588 -177.96)" fill="#918f9f"/>
              <path id="Trazado_149544" data-name="Trazado 149544" d="M330.62,195.189s-2.344-.44-1.983-5.025,1.451-7.033,3.116-8.285a5.853,5.853,0,0,1,9.085,2.032c1.192,2.388-.9,7.451-1.257,8.475-.249.707-1.2,1.869-1.388,2.573a3.7,3.7,0,0,0,.074,2.518s-9.073,4.336-8.411-.367C329.867,197.019,330.62,195.189,330.62,195.189Z" transform="translate(-309.585 -178.204)" fill="#e3dce1"/>
              <path id="Trazado_149545" data-name="Trazado 149545" d="M321.764,197.671a39.072,39.072,0,0,0-.408,13.948" transform="translate(-310.102 -177.046)" fill="none" stroke="#4a4f5f" stroke-miterlimit="10" stroke-width="0.064"/>
              <path id="Trazado_149546" data-name="Trazado 149546" d="M338.54,182.56a2.851,2.851,0,0,1,1.9-.134" transform="translate(-308.915 -178.08)" fill="none" stroke="#000" stroke-miterlimit="10" stroke-width="0.071"/>
              <path id="Trazado_149547" data-name="Trazado 149547" d="M339.311,181.051l-.121.846" transform="translate(-308.871 -178.166)" fill="none" stroke="#000" stroke-miterlimit="10" stroke-width="0.071"/>
              <path id="Trazado_149548" data-name="Trazado 149548" d="M341.9,212.006a.923.923,0,0,1-.025.54,23.421,23.421,0,0,1,3.014-13.287" transform="translate(-308.694 -176.939)" fill="none" stroke="#4a4f5f" stroke-miterlimit="10" stroke-width="0.064"/>
              <path id="Trazado_149549" data-name="Trazado 149549" d="M329.337,195.94a1.478,1.478,0,0,0-.136,1.618,2.215,2.215,0,0,0,1.328,1.032" transform="translate(-309.556 -177.162)" fill="none" stroke="#4a4f5f" stroke-miterlimit="10" stroke-width="0.064"/>
              <path id="Trazado_149550" data-name="Trazado 149550" d="M331.556,198.581a4.532,4.532,0,0,0,1.062-.01" transform="translate(-309.385 -176.985)" fill="none" stroke="#4a4f5f" stroke-miterlimit="10" stroke-width="0.064"/>
              <path id="Trazado_149551" data-name="Trazado 149551" d="M333.868,198.524a11.663,11.663,0,0,0,3.169-.835,6.083,6.083,0,0,0,2.544-2.021" transform="translate(-309.229 -177.181)" fill="none" stroke="#4a4f5f" stroke-miterlimit="10" stroke-width="0.064"/>
              <path id="Trazado_149552" data-name="Trazado 149552" d="M330.724,185.831c-2.266-.3-3.153-1.027-3.851-3.178-.3-.92-.291-3.82,1.068-4.287.793-.272,1.591,2.4,1.591,2.4a1.565,1.565,0,0,1,.912-1.864c.75-.3,1.817.753,1.754,1.784a3.8,3.8,0,0,1,.938-1.736c.583-.387,2.183.154,2.046,2.041,0,0,1.018-1.355,4.437,1.409s.759,10.357-.428,11.667a6.145,6.145,0,0,1-.573-2.615,1.929,1.929,0,0,0,1.491-2.011c.137-2.049-1.3-1.242-1.5-.695l-.636.132-.112-1.171a3.049,3.049,0,0,1-2.106-1.817A29.341,29.341,0,0,1,330.724,185.831Z" transform="translate(-309.711 -178.348)" fill="#918f9f"/>
            </g>
          </g>
        </g>
      </g>
      <g id="Grupo_131029" data-name="Grupo 131029" transform="translate(125.902 240.597)">
        <circle id="Elipse_4961" data-name="Elipse 4961" cx="27.462" cy="27.462" r="27.462" fill="#f8f5f3"/>
        <path id="Trazado_149553" data-name="Trazado 149553" d="M167.194,244.44l11.793-.85-8.125,11.175Z" transform="translate(-118.51 -229.685)" fill="#f8f5f3"/>
        <g id="Grupo_131028" data-name="Grupo 131028">
          <g id="Grupo_131027" data-name="Grupo 131027" clip-path="url(#clip-path-2)">
            <g id="Grupo_131026" data-name="Grupo 131026" transform="translate(-3.819 5.415)">
              <path id="Trazado_149554" data-name="Trazado 149554" d="M177.295,308.879a22.466,22.466,0,0,1,3.731-1.154,32.91,32.91,0,0,0,4.854-1.857,2.288,2.288,0,0,0-.03-.946c-.109-.762-1.961-16.682-7.773-26.915-3.515-6.19-5.453-10.267-7.59-11.927-4.515-3.506-16.218-5.244-21.04-5.134-7.89.18-15.938,3.936-19.788,7.913-7.021,7.251-10.632,35.073-11.653,39.754,0,0,1.229,5.009,7.452,5.034,0,0,5.34-7.618,6.262-9.664,1.362-3.019,2.439-7.353,4.185-11.488,0,0,.612,9.31,1.545,17.929.64,5.924,1.394,8.374,2.148,10.3.141.359,27.989-1.324,30.638-3.154,1.565-1.081.225-9.6.073-13.113-.317-7.271-.893-16.251-.844-17.365Z" transform="translate(-118.006 -233.931)" fill="#3b75c3"/>
              <path id="Trazado_149555" data-name="Trazado 149555" d="M154.38,244.215s1.725,1.787.424,7.059l-1.915-6.935Z" transform="translate(-115.655 -235.058)" fill="#482f2f"/>
              <path id="Trazado_149556" data-name="Trazado 149556" d="M153.226,260.753s3.5-.657,2.958-7.494-2.164-10.491-4.647-12.357c-6.139-4.613-11.706-.662-13.549,3.031-1.777,3.561,1.341,11.113,1.876,12.64.369,1.053,1.791,2.786,2.069,3.838a5.518,5.518,0,0,1-.11,3.754s13.531,6.466,12.545-.548C154.348,263.482,153.226,260.753,153.226,260.753Z" transform="translate(-116.696 -235.422)" fill="#c88a73"/>
              <path id="Trazado_149557" data-name="Trazado 149557" d="M165.326,264.455a58.29,58.29,0,0,1,.607,20.8" transform="translate(-114.817 -233.694)" fill="none" stroke="#4a4f5f" stroke-miterlimit="10" stroke-width="0.095"/>
              <path id="Trazado_149558" data-name="Trazado 149558" d="M140.405,241.917a4.25,4.25,0,0,0-2.836-.2" transform="translate(-116.688 -235.236)" fill="none" stroke="#000" stroke-miterlimit="10" stroke-width="0.106"/>
              <path id="Trazado_149559" data-name="Trazado 149559" d="M139.089,239.667l.179,1.263" transform="translate(-116.585 -235.364)" fill="none" stroke="#000" stroke-miterlimit="10" stroke-width="0.106"/>
              <path id="Trazado_149560" data-name="Trazado 149560" d="M135.507,285.833a1.37,1.37,0,0,0,.036.807,34.927,34.927,0,0,0-4.5-19.817" transform="translate(-117.127 -233.534)" fill="none" stroke="#4a4f5f" stroke-miterlimit="10" stroke-width="0.095"/>
              <path id="Trazado_149561" data-name="Trazado 149561" d="M154.093,261.873a2.2,2.2,0,0,1,.2,2.414,3.3,3.3,0,0,1-1.98,1.538" transform="translate(-115.694 -233.868)" fill="none" stroke="#4a4f5f" stroke-miterlimit="10" stroke-width="0.095"/>
              <path id="Trazado_149562" data-name="Trazado 149562" d="M150.743,265.811a6.727,6.727,0,0,1-1.585-.014" transform="translate(-115.907 -233.603)" fill="none" stroke="#4a4f5f" stroke-miterlimit="10" stroke-width="0.095"/>
              <path id="Trazado_149563" data-name="Trazado 149563" d="M147.733,265.728a17.374,17.374,0,0,1-4.726-1.246,9.063,9.063,0,0,1-3.793-3.012" transform="translate(-116.577 -233.895)" fill="none" stroke="#4a4f5f" stroke-miterlimit="10" stroke-width="0.095"/>
              <path id="Trazado_149564" data-name="Trazado 149564" d="M153.257,246.8c3.379-.442,4.7-1.531,5.743-4.739.446-1.372.434-5.7-1.594-6.393-1.182-.406-2.373,3.583-2.373,3.583a2.334,2.334,0,0,0-1.359-2.78c-1.12-.444-2.71,1.122-2.616,2.661,0,0-.529-2.012-1.4-2.589s-3.256.229-3.052,3.044c0,0-1.518-2.02-6.618,2.1s-1.131,15.446.638,17.4a9.184,9.184,0,0,0,.855-3.9s-2.042-.268-2.223-3c-.2-3.057,1.932-1.853,2.236-1.038l.949.2.168-1.747a4.544,4.544,0,0,0,3.14-2.709A43.676,43.676,0,0,0,153.257,246.8Z" transform="translate(-116.694 -235.636)" fill="#482f2f"/>
            </g>
          </g>
        </g>
      </g>
      <g id="Grupo_131031" data-name="Grupo 131031" transform="translate(358.755 150.874)">
        <path id="Trazado_149565" data-name="Trazado 149565" d="M367.849,176.645H345.667l-5.931,4.028V164.538a5.338,5.338,0,0,1,5.337-5.337h22.776a5.338,5.338,0,0,1,5.337,5.337v6.77A5.338,5.338,0,0,1,367.849,176.645Z" transform="translate(-339.736 -145.648)" fill="#abdbe7"/>
        <circle id="Elipse_4963" data-name="Elipse 4963" cx="2.001" cy="2.001" r="2.001" transform="translate(8.037 20.995)" fill="#fff"/>
        <circle id="Elipse_4964" data-name="Elipse 4964" cx="2.001" cy="2.001" r="2.001" transform="translate(15.228 20.995)" fill="#fff"/>
        <circle id="Elipse_4965" data-name="Elipse 4965" cx="2.001" cy="2.001" r="2.001" transform="translate(22.396 20.995)" fill="#fff"/>
        <g id="Grupo_131030" data-name="Grupo 131030" transform="translate(23.637)">
          <path id="Trazado_149566" data-name="Trazado 149566" d="M378.261,160.684H367.44l-5.559,3.775V151.507a5,5,0,0,1,5-5h11.377a5,5,0,0,1,5,5v4.175A5,5,0,0,1,378.261,160.684Z" transform="translate(-361.881 -146.504)" fill="#aab780"/>
          <path id="Trazado_149567" data-name="Trazado 149567" d="M366.789,154.215l1.645,1.645,4.075-6.012" transform="translate(-361.55 -146.279)" fill="none" stroke="#fff" stroke-linecap="round" stroke-linejoin="round" stroke-width="1.161"/>
          <path id="Trazado_149568" data-name="Trazado 149568" d="M371.967,154.215l1.645,1.645,4.075-6.012" transform="translate(-361.201 -146.279)" fill="none" stroke="#fff" stroke-linecap="round" stroke-linejoin="round" stroke-width="1.161"/>
        </g>
      </g>
      <g id="Grupo_131032" data-name="Grupo 131032" transform="translate(110.011 303.884)">
        <rect id="Rectángulo_35412" data-name="Rectángulo 35412" width="19.445" height="17.79" rx="8.333" transform="translate(0)" fill="#888c99"/>
        <path id="Trazado_149569" data-name="Trazado 149569" d="M113.581,296.009a2.305,2.305,0,0,1,4.61,0" transform="translate(-106.232 -289.596)" fill="none" stroke="#fff" stroke-miterlimit="10" stroke-width="0.807"/>
        <path id="Trazado_149570" data-name="Trazado 149570" d="M113.05,295.94h5.989a1.071,1.071,0,0,1,1.051.872l.75,3.984a1.071,1.071,0,0,1-1.052,1.268H112.3a1.07,1.07,0,0,1-1.051-1.268l.749-3.984A1.071,1.071,0,0,1,113.05,295.94Z" transform="translate(-106.39 -289.445)" fill="none" stroke="#fff" stroke-miterlimit="10" stroke-width="0.807"/>
      </g>
      <g id="Grupo_131034" data-name="Grupo 131034" transform="translate(409.165 217.742)">
        <g id="Grupo_131033" data-name="Grupo 131033" transform="translate(0 0)">
          <rect id="Rectángulo_35413" data-name="Rectángulo 35413" width="16.194" height="14.815" rx="6.94" fill="#888c99"/>
        </g>
        <path id="Trazado_149571" data-name="Trazado 149571" d="M395.824,216.327l2.2-1.912-6.466-1.539.521,6.4,2.243-1.6,2.243,2.4,1.442-1.282Z" transform="translate(-386.653 -208.9)" fill="none" stroke="#fff" stroke-linecap="round" stroke-linejoin="round" stroke-width="0.562"/>
      </g>
    </g>
  </g>
</svg>
