<svg xmlns="http://www.w3.org/2000/svg" xmlns:xlink="http://www.w3.org/1999/xlink" width="425.544" height="272.254" viewBox="0 0 425.544 272.254">
  <defs>
    <clipPath id="clip-path">
      <path id="Trazado_150215" data-name="Trazado 150215" d="M459.5,542.641c0,75.041,54.059,126.7,122.926,126.7s124.584-55,124.584-130.043S651.294,397.588,582.423,397.588,459.5,467.6,459.5,542.641Z" transform="translate(-459.497 -397.588)" fill="none"/>
    </clipPath>
    <linearGradient id="linear-gradient" x1="0.5" y1="0.08" x2="0.5" y2="1.056" gradientUnits="objectBoundingBox">
      <stop offset="0" stop-color="#f7ba8a"/>
      <stop offset="0.281" stop-color="#f6b587"/>
      <stop offset="0.581" stop-color="#f4a87e"/>
      <stop offset="0.889" stop-color="#f19371"/>
      <stop offset="1" stop-color="#f08a6b"/>
    </linearGradient>
  </defs>
  <g id="img12" transform="translate(-920.5 -5637.303)">
    <path id="Sustracción_5" data-name="Sustracción 5" d="M212.272,0a213.88,213.88,0,0,0-42.78,4.313,211.117,211.117,0,0,0-75.9,31.938,212.875,212.875,0,0,0-76.907,93.392A211.168,211.168,0,0,0,4.313,169.488,213.841,213.841,0,0,0,0,212.269c0,.294,0,.595,0,.888H78.747c0-.267,0-.549,0-.888a134.507,134.507,0,0,1,2.713-26.912,132.764,132.764,0,0,1,20.093-47.744A133.913,133.913,0,0,1,160.3,89.238a132.946,132.946,0,0,1,25.064-7.779,134.864,134.864,0,0,1,53.819,0,132.8,132.8,0,0,1,47.745,20.089A133.913,133.913,0,0,1,335.3,160.292a132.842,132.842,0,0,1,7.78,25.064,134.527,134.527,0,0,1,2.713,26.912c0,.3,0,.591,0,.888h78.748l0-.4c0-.163,0-.326,0-.488a213.836,213.836,0,0,0-4.313-42.78,211.115,211.115,0,0,0-31.941-75.9,212.888,212.888,0,0,0-93.394-76.9A211.221,211.221,0,0,0,255.051,4.313,213.871,213.871,0,0,0,212.272,0Z" transform="translate(921 5695.901)" fill="#3e2ea6" stroke="rgba(0,0,0,0)" stroke-miterlimit="10" stroke-width="1"/>
    <g id="Grupo_133553" data-name="Grupo 133553" transform="translate(549.877 5239.715)">
      <circle id="Elipse_4979" data-name="Elipse 4979" cx="124.699" cy="124.699" r="124.699" transform="translate(459.123 419.943)" fill="#fefaf7"/>
      <g id="Grupo_133552" data-name="Grupo 133552" transform="translate(460.544 397.588)">
        <g id="Grupo_133551" data-name="Grupo 133551" clip-path="url(#clip-path)">
          <g id="Grupo_133550" data-name="Grupo 133550" transform="translate(20.789 18.346)">
            <path id="Trazado_150170" data-name="Trazado 150170" d="M615.295,502.013c9.858-5.752,9.322-12.668,2.718-15.861s-7.976-4.863-.107-16.941-3.65-10.942-9.664-17.131-1.274-11.079,0-18.329-8.182-11.455-15.409-14.333-17.2-12.82-25.26-15.987c-7.551-2.965-17.124,1.4-20.777,2.429-3.657-1.034-13.23-5.395-20.777-2.429-8.056,3.167-8.182,10.649-15.409,13.527s-24.351,10.368-23.074,17.614,6.015,12.139,0,18.329-17.534,5.053-9.664,17.131,6.5,13.748-.106,16.941-7.14,10.109,2.722,15.861-7.034,7.779-2.616,13.96,13.934,18.146,62.313,16.42a23,23,0,0,0,6.611-1.175,22.979,22.979,0,0,0,6.611,1.175c48.379,1.726,60.081-11.063,64.5-17.242S605.433,507.765,615.295,502.013Z" transform="translate(-442.663 -402.414)" fill="#502b3b"/>
            <g id="Grupo_133539" data-name="Grupo 133539" transform="translate(0 156.666)">
              <path id="Trazado_150171" data-name="Trazado 150171" d="M670.517,497.935c-8.224-12.117-40.106-18.051-52.755-20.572-3.4-.677-6.98-.875-9.463-2.46-2.083-1.334-2.425-3.581-2.68-7.026-.433-5.9.274-20.557,0-24.256H540.3c-.274,3.7.437,10,0,15.9-.255,3.445-.589,14.04-2.677,15.375-2.483,1.589-6.072,1.787-9.463,2.464-12.653,2.521-44.531,8.455-52.759,20.572-8.615,12.691-10.44,34.357-10.44,34.357s43.706,18.1,108,18.1,108-18.1,108-18.1S679.132,510.625,670.517,497.935Z" transform="translate(-464.965 -443.621)" fill="#ffbf91"/>
              <path id="Trazado_150172" data-name="Trazado 150172" d="M485.252,459.524c-.125,1.7-.274,5.133-.639,8.338,29.141,9.105,57.351-6.65,65.925-14.618.046-2.414.091-4.684.095-6.49,0-1.068-.015-1.962-.038-2.578-.007-.2-.015-.4-.026-.555H485.252C484.978,447.32,485.689,453.624,485.252,459.524Z" transform="translate(-409.914 -443.621)" fill="#ffac70"/>
            </g>
            <g id="Grupo_133540" data-name="Grupo 133540" transform="translate(34.175 87.314)">
              <path id="Trazado_150173" data-name="Trazado 150173" d="M496.264,431.092s-7.235-10.3-17.158-3.235c-4.5,3.209-8.3,15.322-1.251,27.381,6.9,11.8,19.051,13.36,22.948,7.33Z" transform="translate(-473.954 -425.38)" fill="#ffbf91"/>
              <path id="Trazado_150174" data-name="Trazado 150174" d="M496.247,431.092s-7.235-10.3-17.158-3.235c-2.616,1.863-4.977,6.741-5.129,12.858.167-.855,2.08-9.854,9.345-11.447,7.63-1.673,13.124,7.676,13.124,7.433,0-.061.091-1.167.224-2.794Z" transform="translate(-473.937 -425.38)" fill="#ffac70"/>
              <path id="Trazado_150175" data-name="Trazado 150175" d="M475.517,434.861c.756-4.783,3.676-6.961,7.49-6.722s6.045,5.368,6.208,10.406c0,0-4.7-.6-4.844,4.034-.122,4.133,3.954,5.581,5.638,4.6,0,0-.308,2.315-4.262,2.589C480.98,450.091,474.2,442.035,475.517,434.861Z" transform="translate(-470.042 -417.697)" fill="#ffac70"/>
            </g>
            <g id="Grupo_133541" data-name="Grupo 133541" transform="translate(154.968 87.314)">
              <path id="Trazado_150176" data-name="Trazado 150176" d="M510.266,431.092s7.235-10.3,17.158-3.235c4.5,3.209,8.3,15.322,1.251,27.381-6.9,11.8-19.047,13.36-22.948,7.33Z" transform="translate(-505.726 -425.38)" fill="#ffbf91"/>
              <path id="Trazado_150177" data-name="Trazado 150177" d="M514.9,457.751a26.6,26.6,0,0,0,1.764-2.616c7.049-12.059,3.251-24.172-1.251-27.381a12.79,12.79,0,0,0-5.4-2.338C516.076,426.929,523.437,440.057,514.9,457.751Z" transform="translate(-493.717 -425.277)" fill="#fddac1"/>
              <path id="Trazado_150178" data-name="Trazado 150178" d="M522.029,434.861c-.757-4.783-3.676-6.961-7.49-6.722s-6.041,5.368-6.208,10.406c0,0,4.707-.6,4.844,4.034.122,4.133-3.954,5.581-5.638,4.6,0,0,.308,2.315,4.262,2.589C516.565,450.091,523.352,442.035,522.029,434.861Z" transform="translate(-500.655 -417.697)" fill="#ffac70"/>
            </g>
            <g id="Grupo_133542" data-name="Grupo 133542" transform="translate(54.701 29.649)">
              <path id="Trazado_150179" data-name="Trazado 150179" d="M531.85,551.3c-16.861,0-37.1-14.181-43.338-21.591-6.623-7.866-7.573-47.261-8.634-61.267-3.041-40.2,23.268-58.233,51.972-58.233s55.017,18.032,51.972,58.233c-1.057,14.006-4.1,53.4-10.721,61.267C566.861,537.122,548.711,551.3,531.85,551.3Z" transform="translate(-478.555 -410.212)" fill="#ffbf91"/>
              <path id="Trazado_150180" data-name="Trazado 150180" d="M572.923,486.8c6.623-7.866,9.664-47.261,10.721-61.267l-11.7,37.654a6.2,6.2,0,0,1-6.764,4.3l-33.506-4.638-33.506,4.638a6.2,6.2,0,0,1-6.764-4.3l-11.7-37.654c1.061,14.006,2.011,53.4,8.634,61.267,6.239,7.41,26.476,21.591,43.338,21.591S566.684,494.206,572.923,486.8Z" transform="translate(-478.378 -367.296)" fill="#502b3b"/>
              <path id="Trazado_150181" data-name="Trazado 150181" d="M567.96,415.837s-8.718,10.851-28.719,13.8-40.311-6.9-40.311-6.9-1.167,12.371-7.273,18.69-10.763,7.912-10.98,10.695a31.051,31.051,0,0,1,0-18.143c2.977-10.238,9.714-20.348,30.35-21.61S567.96,415.837,567.96,415.837Z" transform="translate(-479.353 -404.766)" fill="#ffac70"/>
            </g>
            <path id="Trazado_150182" data-name="Trazado 150182" d="M488.259,458.568c1.456-3.68,7.566-5.767,11.1-14.6a119,119,0,0,0,5.49-19.6L496.2,409.113s-10.984,2.559-16.128,12.36c-3.616,6.889-4.41,33.209-2.087,45.752.969,5.224,6.851,19.443,12.151,19.781l-1.49-10.337A86.659,86.659,0,0,1,488.259,458.568Z" transform="translate(-432.162 -383.642)" fill="#502b3b"/>
            <path id="Trazado_150183" data-name="Trazado 150183" d="M519.247,450.966c-1.456-3.68-7.566-5.767-11.1-14.6a119.425,119.425,0,0,1-5.49-19.6l11.66-4.935s8.231.536,12.763,10.63c3.049,6.794,4.76,24.625,2.437,37.167-.969,5.224-6.851,19.443-12.151,19.781l1.49-10.337A86.667,86.667,0,0,0,519.247,450.966Z" transform="translate(-359.351 -376.041)" fill="#502b3b"/>
            <path id="Trazado_150184" data-name="Trazado 150184" d="M508.268,417.9a2.943,2.943,0,0,1,1-4.46,13.99,13.99,0,0,1,9.014-1.323c5.1,1.061-2.559,4.893-6.505,6.661a2.922,2.922,0,0,1-3.505-.878Z" transform="translate(-345.41 -375.965)" fill="#502b3b"/>
            <path id="Trazado_150185" data-name="Trazado 150185" d="M519.314,452.279c1.924-10.383,1.08-24.37-1-32.742-4.106-5.794-10.394-7.2-11.824-1.285s5.513,14.417,7.585,20.465c2.4,6.984,2.779,22.636-4.935,32.624C513.843,468.345,518.466,456.856,519.314,452.279Z" transform="translate(-349.146 -368.696)" fill="#713f55"/>
            <path id="Trazado_150186" data-name="Trazado 150186" d="M500.493,437.238c.654,3.216,4.98,5.049,9.657,4.095s7.942-4.33,7.288-7.547-4.98-5.049-9.661-4.095S499.839,434.025,500.493,437.238Z" transform="translate(-365.655 -326.693)" fill="#ff9470"/>
            <path id="Trazado_150187" data-name="Trazado 150187" d="M498.86,437.238c-.654,3.216-4.977,5.049-9.657,4.095s-7.942-4.33-7.288-7.547,4.98-5.049,9.661-4.095S499.518,434.025,498.86,437.238Z" transform="translate(-417.706 -326.693)" fill="#ff9470"/>
            <g id="Grupo_133543" data-name="Grupo 133543" transform="translate(121.07 87.406)">
              <path id="Trazado_150188" data-name="Trazado 150188" d="M521.856,437.035s.969-10.736-10.786-11.588S496.919,436.7,496.9,436.761c0,0,4.2-5.931,13.356-5.266S521.856,437.035,521.856,437.035Z" transform="translate(-496.546 -425.404)" fill="#ffac70"/>
              <path id="Trazado_150189" data-name="Trazado 150189" d="M497.119,433.413c.3.065,1.661-.829,6.266-2.114a23.92,23.92,0,0,1,11.721-.091,17.732,17.732,0,0,1,6.315,2.95c.855.563,1.7.023.521-1.985-1.133-1.939-3.015-4.057-8.748-5.007-6.144-1.015-10.485.7-13.493,2.969C496.758,432.36,496.419,433.265,497.119,433.413Z" transform="translate(-496.81 -421.303)" fill="#412130"/>
            </g>
            <g id="Grupo_133544" data-name="Grupo 133544" transform="translate(69.212 87.406)">
              <path id="Trazado_150190" data-name="Trazado 150190" d="M483.289,437.035s-.969-10.736,10.786-11.588,14.151,11.257,14.166,11.314c0,0-4.2-5.931-13.356-5.266S483.289,437.035,483.289,437.035Z" transform="translate(-482.889 -425.404)" fill="#ffac70"/>
              <path id="Trazado_150191" data-name="Trazado 150191" d="M508.575,433.413c-.308.065-1.665-.829-6.269-2.114a23.92,23.92,0,0,0-11.721-.091,17.73,17.73,0,0,0-6.315,2.95c-.855.563-1.7.023-.521-1.985,1.133-1.939,3.015-4.057,8.748-5.007,6.144-1.015,10.486.7,13.493,2.969C508.932,432.36,509.271,433.265,508.575,433.413Z" transform="translate(-483.17 -421.303)" fill="#412130"/>
            </g>
            <path id="Trazado_150192" data-name="Trazado 150192" d="M545.073,426.4s-6.026,35.844-8.3,46.17-7.208,15.846-17.245,22.667-19.876,10.7-26.157,10.7c16.861,0,35.011-14.181,41.25-21.591,6.155-7.311,9.216-41.859,10.466-57.937Z" transform="translate(-385.375 -335.201)" fill="#502b3b"/>
            <path id="Trazado_150193" data-name="Trazado 150193" d="M576.121,428.877s.528-12.428-14.105-17.443c-11.573-3.965-47.177.958-61.473-4.319-14.257-5.262-21.659,5.239-19.6,20.367,2.186,16.086-1.19,3.38,17.838,11.181,19.8,8.117,50.8,6.239,65.681-4.851Z" transform="translate(-421.153 -393.092)" fill="#502b3b"/>
            <path id="Trazado_150194" data-name="Trazado 150194" d="M559.213,417.594h0l-.015-.011-.019-.008c-6.38-4.285-28.233-8.691-41.832-13.246,7.33,2.927,17.424,8.307,15.668,18.188-2.247,12.622-40.216,1.251-46.812,3.414s-2.251,15.808,17.1,20.207c18.717,3.566,41.437.635,53.519-8.372h0l.354-.148.407-.171c.878-.373,2.148-.912,3.524-1.494l6.7-2.836.677-.285S568.892,423.331,559.213,417.594Z" transform="translate(-413.521 -397.047)" fill="#713f55"/>
            <path id="Trazado_150195" data-name="Trazado 150195" d="M511.231,420.183a58.572,58.572,0,0,0,2.312-10.5c.646-5.555-3.273-3.486-6.11,1.635S511.231,420.183,511.231,420.183Z" transform="translate(-347.948 -391.302)" fill="#502b3b"/>
            <g id="Grupo_133545" data-name="Grupo 133545" transform="translate(0 187.936)">
              <path id="Trazado_150196" data-name="Trazado 150196" d="M670.517,473.149c-8.224-12.117-40.106-18.051-52.755-20.572-.179-.034-.357-.072-.536-.107-5.132,13.17-23.37,23.595-44.261,23.595s-39.133-10.425-44.265-23.6h.008c-.182.038-.361.072-.544.11-12.653,2.521-44.531,8.455-52.759,20.572-8.615,12.691-10.44,34.357-10.44,34.357s43.706,18.1,108,18.1,108-18.1,108-18.1S679.132,485.84,670.517,473.149Z" transform="translate(-464.965 -450.106)" fill="#339266"/>
              <path id="Trazado_150197" data-name="Trazado 150197" d="M570.256,454.211a57.832,57.832,0,0,1-8.931-2.365h-.015c-2.878,9.242-17.314,17.622-35.316,17.622s-32.438-8.379-35.316-17.622h-.027a57.215,57.215,0,0,1-8.923,2.361c5.133,13.173,23.374,23.6,44.265,23.6S565.123,467.38,570.256,454.211Z" transform="translate(-417.994 -451.846)" fill="#17422e"/>
              <path id="Trazado_150198" data-name="Trazado 150198" d="M521.918,454.7c-7.189,7.083-12.162,22.009-10.668,39.673,1.49,17.633,3.232,17.508,3.235,17.53,17.945-4.186,37.532-10.668,37.532-10.668s-1.825-21.667-10.44-34.357C538.13,461.8,530.522,457.814,521.918,454.7Z" transform="translate(-336.025 -443.838)" fill="#1f593e"/>
              <path id="Trazado_150199" data-name="Trazado 150199" d="M505.74,494.379c1.494-17.663-3.483-32.59-10.668-39.676h0c-8.6,3.11-16.215,7.1-19.663,12.181-8.615,12.691-10.44,34.357-10.44,34.357s19.591,6.486,37.54,10.672C502.5,511.9,504.25,512.031,505.74,494.379Z" transform="translate(-464.965 -443.841)" fill="#1f593e"/>
              <path id="Trazado_150200" data-name="Trazado 150200" d="M511.856,460.635a69.958,69.958,0,0,0-.608,17.124c1.49,17.633,3.232,17.508,3.235,17.53,3.414-.795,6.885-1.673,10.273-2.578C517.08,487.3,511.886,460.791,511.856,460.635Z" transform="translate(-336.023 -427.22)" fill="#17422e"/>
              <path id="Trazado_150201" data-name="Trazado 150201" d="M485.033,460.635a69.752,69.752,0,0,1,.612,17.124c-1.49,17.633-3.232,17.508-3.235,17.53-3.414-.795-6.885-1.673-10.273-2.578C479.809,487.3,485,460.791,485.033,460.635Z" transform="translate(-444.87 -427.22)" fill="#17422e"/>
              <path id="Trazado_150202" data-name="Trazado 150202" d="M511.35,453.894c-2.939-.585-6.022-.817-8.406-1.9,6.764,3.357,26.628,7.965,40.809,14,15,6.383,18.827,15.957,21.7,27.446s-4.813,19.7-4.813,19.7l.517.27c8.634-2.627,13.386-4.589,13.386-4.589s-1.825-21.667-10.44-34.357C555.881,462.349,524,456.415,511.35,453.894Z" transform="translate(-358.553 -451.423)" fill="#def0f7" style="mix-blend-mode: soft-light;isolation: isolate"/>
            </g>
            <g id="Grupo_133547" data-name="Grupo 133547" transform="translate(87.282 137.549)">
              <path id="Trazado_150203" data-name="Trazado 150203" d="M507.751,439.928c-7.486,0-19.614-.855-19.614-.855s2.258,14.405,19.614,14.405,19.614-14.405,19.614-14.405S515.233,439.928,507.751,439.928Z" transform="translate(-487.322 -437.247)" fill="url(#linear-gradient)"/>
              <path id="Trazado_150204" data-name="Trazado 150204" d="M506.509,439.581c-3.558,0-17.9-.585-17.9-.585s2.156,7.771,17.835,7.771,17.835-7.661,17.835-7.661Z" transform="translate(-486.007 -437.465)" fill="#502b3b"/>
              <path id="Trazado_150205" data-name="Trazado 150205" d="M503.3,439.161l-13.58.673a5.677,5.677,0,0,1,.11,3.475c2.654,1.6,6.843,2.992,13.466,2.992h.015c6.627,0,10.816-1.372,13.47-2.954a5.579,5.579,0,0,1,.1-3.513Z" transform="translate(-482.875 -437)" fill="#fff"/>
              <g id="Grupo_133546" data-name="Grupo 133546">
                <path id="Trazado_150206" data-name="Trazado 150206" d="M528.753,439.354c-.342-.764-2.452.578-4.216.433-2.946-.247-6.509-1-8.646-1.16-3.642-.274-5.958,1.125-7.539,1.125s-3.9-1.4-7.543-1.125c-2.133.16-5.7.913-8.642,1.16-1.768.145-3.859-1.2-4.216-.433-.232.49.49,3.437,20.4,3.437S528.973,439.849,528.753,439.354Z" transform="translate(-487.922 -438.593)" fill="#984338"/>
                <path id="Trazado_150207" data-name="Trazado 150207" d="M500.186,446.111a10.27,10.27,0,0,0,4.555-1.084,34.756,34.756,0,0,0,4.657-2.57,25.72,25.72,0,0,1-18.428-.008,34.424,34.424,0,0,0,4.661,2.578A10.249,10.249,0,0,0,500.186,446.111Z" transform="translate(-479.757 -427.929)" fill="#984338"/>
              </g>
            </g>
            <path id="Trazado_150208" data-name="Trazado 150208" d="M511.927,421.5c-6.908-1.243-16,1.034-15.048,4.615.985,3.7,7.748.536,15.937,1.821,7.509,1.179,12.01,3.844,14.139,9.345.258.677.928.65.916-.072-.034-2.1-.205-5.741-2.551-8.718C522.067,424.365,517.881,422.571,511.927,421.5Z" transform="translate(-375.74 -349.888)" fill="#502b3b"/>
            <path id="Trazado_150209" data-name="Trazado 150209" d="M497.707,421.5c6.908-1.243,16,1.034,15.048,4.615-.981,3.7-7.748.536-15.937,1.821-7.509,1.179-12.01,3.844-14.135,9.345-.262.677-.932.65-.92-.072.034-2.1.205-5.741,2.555-8.718C487.568,424.365,491.754,422.571,497.707,421.5Z" transform="translate(-417.902 -349.888)" fill="#502b3b"/>
            <g id="Grupo_133549" data-name="Grupo 133549" transform="translate(96.071 86.438)">
              <path id="Trazado_150210" data-name="Trazado 150210" d="M513.607,461.647c-1.266-3.3-6.311-36.5-11.448-36.5s-10.181,33.2-11.448,36.5.384,4.524.384,4.524l1.745-.331c2.844-1,7.919,2.642,9.318,2.931h0c1.4-.289,6.475-3.931,9.318-2.931l1.749.331S514.873,464.947,513.607,461.647Z" transform="translate(-490.234 -425.149)" fill="#ffac70"/>
              <path id="Trazado_150211" data-name="Trazado 150211" d="M496.005,435.384a1.276,1.276,0,0,1-.654,1.585c-.536.156-1.114-.3-1.289-1.023a1.278,1.278,0,0,1,.654-1.586C495.252,434.206,495.83,434.662,496.005,435.384Z" transform="translate(-479.651 -399.422)" fill="#fff" opacity="0.3"/>
              <g id="Grupo_133548" data-name="Grupo 133548" transform="translate(0.434 38.898)">
                <path id="Trazado_150212" data-name="Trazado 150212" d="M507.282,435.89a6.513,6.513,0,0,0-3.3.411c-1.684.726-3.152,1.574-4.676,1.574s-2.992-.848-4.676-1.574a6.518,6.518,0,0,0-3.3-.411c-.049.008-.1.129-.038.133,2.908.255,4.433,2.513,7.14,3.2a3.809,3.809,0,0,0,1.756,0c2.707-.684,4.232-2.943,7.14-3.2C507.381,436.02,507.332,435.9,507.282,435.89Z" transform="translate(-487.807 -434.105)" fill="#502b3b"/>
                <path id="Trazado_150213" data-name="Trazado 150213" d="M496.856,438.056a9.981,9.981,0,0,0,2.551.114c1.19-.122,2.851-1.448.981-2.407a3.507,3.507,0,0,0-3.741.4,8.534,8.534,0,0,1-1.977,1.316Z" transform="translate(-478.24 -435.38)" fill="#502b3b"/>
                <path id="Trazado_150214" data-name="Trazado 150214" d="M494.723,438.056a9.981,9.981,0,0,1-2.551.114c-1.19-.122-2.851-1.448-.981-2.407a3.506,3.506,0,0,1,3.741.4,8.532,8.532,0,0,0,1.977,1.316Z" transform="translate(-490.349 -435.38)" fill="#502b3b"/>
              </g>
            </g>
          </g>
        </g>
      </g>
    </g>
  </g>
</svg>
