<svg xmlns="http://www.w3.org/2000/svg" width="400" height="511" viewBox="0 0 400 511">
  <g id="img2" transform="translate(-1020 -877)">
    <rect id="Rectángulo_35207" data-name="Rectángulo 35207" width="400" height="511" transform="translate(1020 877)" fill="none" opacity="0.891"/>
    <g id="Grupo_132123" data-name="Grupo 132123" transform="translate(-8.447 -12.621)">
      <g id="Grupo_132122" data-name="Grupo 132122" transform="translate(1083.65 1396.228) rotate(-90)" opacity="0.34">
        <g id="Grupo_131669" data-name="Grupo 131669" transform="translate(15.119 2.694)" opacity="0.4">
          <g id="Grupo_131668" data-name="Grupo 131668" transform="translate(0)">
            <g id="Grupo_131667" data-name="Grupo 131667">
              <path id="Trazado_149680" data-name="Trazado 149680" d="M117.148,290.02a147.983,147.983,0,0,1-76.471-37.473C12.626,226.7-12.514,184.548,6.8,121.906c36.6-118.688,202.73-138.389,278.363-111,120.2,43.527,175.28,219.683,10.078,276.758C254.175,301.852,161.89,297.326,117.148,290.02Z" fill="#ef6c00"/>
            </g>
          </g>
        </g>
        <g id="Grupo_131672" data-name="Grupo 131672" transform="translate(382.903 0)" opacity="0.4">
          <g id="Grupo_131671" data-name="Grupo 131671" transform="translate(0)">
            <g id="Grupo_131670" data-name="Grupo 131670">
              <path id="Trazado_149681" data-name="Trazado 149681" d="M85.8,17.892C64.232-4.149,27.48-7.683,8.628,17.81-.9,30.691-1.477,49.212,1.821,59.359c10.26,31.566,59.564,80.7,95.723,45.193C120.933,81.586,109.586,42.193,85.8,17.892Z" fill="#ef6c00"/>
            </g>
          </g>
        </g>
        <g id="Grupo_131675" data-name="Grupo 131675" transform="translate(484.822 22.515)">
          <g id="Grupo_131674" data-name="Grupo 131674" transform="translate(0 0)">
            <g id="Grupo_131673" data-name="Grupo 131673">
              <path id="Trazado_149682" data-name="Trazado 149682" d="M5.6,87.378a.447.447,0,0,1-.306-.122.543.543,0,0,1-.054-.723c.59-.75,1.164-1.523,1.706-2.294a.45.45,0,0,1,.664-.1.541.541,0,0,1,.09.719c-.553.786-1.137,1.572-1.739,2.337A.459.459,0,0,1,5.6,87.378ZM9.368,81.92a.438.438,0,0,1-.257-.083.537.537,0,0,1-.139-.708c.51-.85,1-1.726,1.459-2.6a.455.455,0,0,1,.645-.194.536.536,0,0,1,.178.7c-.467.895-.968,1.788-1.488,2.656A.465.465,0,0,1,9.368,81.92Zm3.1-6.043a.445.445,0,0,1-.2-.048.534.534,0,0,1-.229-.682c.4-.914.768-1.854,1.11-2.8a.463.463,0,0,1,.615-.289.528.528,0,0,1,.267.665c-.35.961-.732,1.922-1.133,2.854A.473.473,0,0,1,12.47,75.877Zm2.293-6.454a.432.432,0,0,1-.139-.023.522.522,0,0,1-.313-.641c.272-.962.523-1.949.742-2.933a.474.474,0,0,1,.571-.378.517.517,0,0,1,.349.619c-.225,1-.48,2.012-.758,2.994A.48.48,0,0,1,14.763,69.423Zm1.456-6.729a.378.378,0,0,1-.077-.007.509.509,0,0,1-.39-.589c.152-.991.28-2.007.381-3.017a.484.484,0,0,1,.521-.454.5.5,0,0,1,.419.565c-.1,1.03-.235,2.065-.388,3.074A.486.486,0,0,1,16.22,62.694Zm.65-6.879h-.02a.5.5,0,0,1-.453-.534c.032-.839.049-1.695.049-2.543q0-.253,0-.506a.5.5,0,0,1,.47-.516h0a.493.493,0,0,1,.473.509c0,.171,0,.341,0,.513,0,.862-.016,1.733-.05,2.586A.492.492,0,0,1,16.869,55.815ZM16.782,48.9a.49.49,0,0,1-.471-.478c-.062-1-.147-2.022-.251-3.042a.5.5,0,0,1,.418-.566.483.483,0,0,1,.522.453c.106,1.034.192,2.073.254,3.087a.5.5,0,0,1-.441.546Zm-.735-6.874a.486.486,0,0,1-.467-.43c-.15-.992-.321-2-.51-3.008a.513.513,0,0,1,.37-.6.475.475,0,0,1,.559.4c.191,1.017.364,2.042.516,3.047a.51.51,0,0,1-.39.589A.489.489,0,0,1,16.046,42.027Zm-1.3-6.78a.481.481,0,0,1-.458-.388c-.227-.978-.473-1.973-.733-2.956a.52.52,0,0,1,.325-.634.469.469,0,0,1,.585.352c.263.994.512,2,.741,2.99a.517.517,0,0,1-.344.622A.442.442,0,0,1,14.748,35.247ZM12.966,28.6a.478.478,0,0,1-.449-.353c-.29-.955-.6-1.929-.925-2.894a.525.525,0,0,1,.283-.657.464.464,0,0,1,.607.307c.326.975.641,1.959.934,2.923a.523.523,0,0,1-.3.647A.431.431,0,0,1,12.966,28.6Zm-2.2-6.5a.476.476,0,0,1-.44-.321c-.349-.939-.718-1.89-1.094-2.826a.532.532,0,0,1,.245-.676.46.46,0,0,1,.623.266c.38.945.752,1.905,1.1,2.853a.526.526,0,0,1-.262.667A.438.438,0,0,1,10.766,22.1ZM8.194,15.753a.473.473,0,0,1-.428-.293c-.4-.92-.822-1.846-1.246-2.754a.533.533,0,0,1,.208-.689.458.458,0,0,1,.636.227c.427.914.85,1.848,1.257,2.777A.531.531,0,0,1,8.4,15.7.439.439,0,0,1,8.194,15.753ZM5.287,9.581a.47.47,0,0,1-.415-.267c-.455-.9-.924-1.8-1.391-2.672a.536.536,0,0,1,.171-.7.454.454,0,0,1,.647.185c.472.878.944,1.784,1.4,2.695a.535.535,0,0,1-.189.7A.448.448,0,0,1,5.287,9.581ZM2.046,3.6a.464.464,0,0,1-.4-.238C.694,1.733.094.819.088.811A.542.542,0,0,1,.2.1.452.452,0,0,1,.859.214c.025.038.62.943,1.587,2.6a.537.537,0,0,1-.147.707A.446.446,0,0,1,2.046,3.6Z" fill="#ef6c00"/>
            </g>
          </g>
        </g>
        <g id="Grupo_131678" data-name="Grupo 131678" transform="translate(0 215.168)" opacity="0.4">
          <g id="Grupo_131677" data-name="Grupo 131677" transform="translate(0 0)">
            <g id="Grupo_131676" data-name="Grupo 131676">
              <path id="Trazado_149683" data-name="Trazado 149683" d="M.16,47.864C-1.963,20.218,17.321-3.247,42.712.369,57.835,2.523,65.126,12.161,69.675,20.037c14.151,24.5,14.863,82.4-27.286,82.232C12.713,102.147,2.5,78.345.16,47.864Z" fill="#ef6c00"/>
            </g>
          </g>
        </g>
        <g id="Grupo_131685" data-name="Grupo 131685" transform="translate(19.125 7.161)">
          <g id="Grupo_131680" data-name="Grupo 131680" transform="translate(115.632 0)">
            <g id="Grupo_131679" data-name="Grupo 131679" transform="translate(0)">
              <path id="Trazado_149684" data-name="Trazado 149684" d="M.729,2a.74.74,0,0,1-.7-.573.8.8,0,0,1,.5-.978C1.447.166,1.934.031,1.955.025A.729.729,0,0,1,2.843.6a.8.8,0,0,1-.527.961S1.824,1.693.93,1.97A.7.7,0,0,1,.729,2Z" fill="#ef6c00"/>
            </g>
          </g>
          <g id="Grupo_131682" data-name="Grupo 131682" transform="translate(3.022 1.835)">
            <g id="Grupo_131681" data-name="Grupo 131681" transform="translate(0 0)">
              <path id="Trazado_149685" data-name="Trazado 149685" d="M.729,88.323a.688.688,0,0,1-.386-.12.831.831,0,0,1-.233-1.09c.525-.909,1.068-1.832,1.614-2.738a.7.7,0,0,1,1.01-.231.832.832,0,0,1,.213,1.094c-.541.9-1.079,1.811-1.6,2.713A.719.719,0,0,1,.729,88.323Zm4.1-6.749a.687.687,0,0,1-.415-.141.833.833,0,0,1-.183-1.1c.565-.882,1.148-1.775,1.733-2.651A.694.694,0,0,1,6.987,77.5a.834.834,0,0,1,.164,1.1c-.579.868-1.157,1.753-1.717,2.626A.714.714,0,0,1,4.834,81.574Zm4.4-6.53a.69.69,0,0,1-.443-.162.836.836,0,0,1-.136-1.109c.6-.851,1.223-1.713,1.845-2.56a.693.693,0,0,1,1.025-.126A.837.837,0,0,1,11.64,72.2c-.617.84-1.233,1.694-1.829,2.537A.708.708,0,0,1,9.231,75.044Zm4.673-6.3a.692.692,0,0,1-.469-.186.836.836,0,0,1-.09-1.114c.639-.822,1.295-1.651,1.951-2.466a.692.692,0,0,1,1.03-.076.837.837,0,0,1,.07,1.115c-.651.807-1.3,1.63-1.934,2.444A.7.7,0,0,1,13.9,68.743Zm4.93-6.068a.7.7,0,0,1-.494-.209A.836.836,0,0,1,18.3,61.35c.673-.794,1.363-1.591,2.049-2.371a.69.69,0,0,1,1.031-.026A.837.837,0,0,1,21.4,60.07c-.68.774-1.364,1.564-2.031,2.35A.7.7,0,0,1,18.834,62.675ZM24,56.846a.7.7,0,0,1-.517-.232.838.838,0,0,1,0-1.118c.7-.757,1.42-1.522,2.14-2.273a.69.69,0,0,1,1.031.02.837.837,0,0,1-.018,1.117c-.713.746-1.427,1.5-2.122,2.255A.7.7,0,0,1,24,56.846ZM29.4,51.257A.706.706,0,0,1,28.858,51a.838.838,0,0,1,.044-1.117c.73-.725,1.478-1.457,2.224-2.176a.69.69,0,0,1,1.03.065.838.838,0,0,1-.06,1.116c-.741.713-1.484,1.44-2.206,2.158A.694.694,0,0,1,29.4,51.257Zm5.6-5.347a.706.706,0,0,1-.558-.279.836.836,0,0,1,.085-1.114c.757-.695,1.531-1.394,2.3-2.079a.692.692,0,0,1,1.026.109.837.837,0,0,1-.1,1.113c-.765.68-1.533,1.374-2.284,2.063A.691.691,0,0,1,34.994,45.91ZM40.779,40.8a.709.709,0,0,1-.575-.3.836.836,0,0,1,.125-1.11c.78-.662,1.578-1.329,2.373-1.983a.694.694,0,0,1,1.022.152.834.834,0,0,1-.14,1.107c-.789.65-1.581,1.312-2.355,1.969A.689.689,0,0,1,40.779,40.8Zm5.96-4.868a.711.711,0,0,1-.59-.327.833.833,0,0,1,.162-1.1c.8-.629,1.62-1.265,2.437-1.887a.7.7,0,0,1,1.018.191.833.833,0,0,1-.177,1.1c-.811.62-1.626,1.25-2.42,1.875A.692.692,0,0,1,46.739,35.935ZM52.858,31.3a.712.712,0,0,1-.606-.35.83.83,0,0,1,.2-1.1c.823-.6,1.664-1.2,2.5-1.794a.7.7,0,0,1,1.01.23.83.83,0,0,1-.212,1.094c-.829.586-1.663,1.186-2.48,1.781A.694.694,0,0,1,52.858,31.3Zm6.264-4.4a.717.717,0,0,1-.62-.372.829.829,0,0,1,.232-1.09c.84-.567,1.7-1.139,2.552-1.7a.7.7,0,0,1,1,.266.827.827,0,0,1-.246,1.085c-.848.556-1.7,1.126-2.535,1.689A.685.685,0,0,1,59.122,26.906Zm6.4-4.167a.721.721,0,0,1-.632-.394.827.827,0,0,1,.266-1.08c.859-.539,1.735-1.079,2.6-1.608a.7.7,0,0,1,.993.3.826.826,0,0,1-.278,1.076c-.863.525-1.733,1.062-2.586,1.6A.691.691,0,0,1,65.52,22.739ZM72.041,18.8a.723.723,0,0,1-.643-.417.824.824,0,0,1,.3-1.07c.877-.51,1.769-1.02,2.649-1.517a.7.7,0,0,1,.984.337.824.824,0,0,1-.31,1.065c-.875.493-1.761,1-2.632,1.506A.678.678,0,0,1,72.041,18.8Zm6.635-3.71a.725.725,0,0,1-.654-.439.822.822,0,0,1,.329-1.059c.884-.475,1.79-.955,2.693-1.425a.707.707,0,0,1,.974.37.821.821,0,0,1-.342,1.055c-.9.467-1.8.943-2.675,1.415A.672.672,0,0,1,78.676,15.092Zm6.741-3.482a.727.727,0,0,1-.663-.462.819.819,0,0,1,.36-1.048c.909-.45,1.827-.9,2.733-1.332a.709.709,0,0,1,.962.4.817.817,0,0,1-.373,1.042c-.9.431-1.812.877-2.715,1.324A.669.669,0,0,1,85.417,11.61Zm6.84-3.249a.732.732,0,0,1-.673-.485.816.816,0,0,1,.39-1.035C92.9,6.42,93.832,6,94.745,5.6a.711.711,0,0,1,.949.436.814.814,0,0,1-.4,1.03c-.908.4-1.834.811-2.753,1.229A.677.677,0,0,1,92.257,8.361Zm6.934-3.01a.734.734,0,0,1-.682-.509.811.811,0,0,1,.421-1.02c.932-.385,1.878-.767,2.81-1.137a.716.716,0,0,1,.936.471.811.811,0,0,1-.435,1.014c-.925.367-1.864.747-2.79,1.13A.692.692,0,0,1,99.191,5.351ZM106.218,2.6a.736.736,0,0,1-.69-.536.808.808,0,0,1,.455-1c.962-.354,1.921-.7,2.85-1.022a.72.72,0,0,1,.918.51.806.806,0,0,1-.472.995c-.921.32-1.872.662-2.827,1.014A.66.66,0,0,1,106.218,2.6Z" fill="#ef6c00"/>
            </g>
          </g>
          <g id="Grupo_131684" data-name="Grupo 131684" transform="translate(0 92.681)">
            <g id="Grupo_131683" data-name="Grupo 131683" transform="translate(0 0)">
              <path id="Trazado_149686" data-name="Trazado 149686" d="M.729,2.949a.686.686,0,0,1-.362-.1A.827.827,0,0,1,.1,1.766Q.46,1.077.83.392a.7.7,0,0,1,1-.283A.828.828,0,0,1,2.09,1.189q-.366.678-.728,1.362A.72.72,0,0,1,.729,2.949Z" fill="#ef6c00"/>
            </g>
          </g>
        </g>
      </g>
      <g id="Grupo_132121" data-name="Grupo 132121" transform="translate(1059.094 889.621)">
        <g id="Grupo_131704" data-name="Grupo 131704" transform="translate(1.293)">
          <g id="Grupo_131695" data-name="Grupo 131695">
            <rect id="Rectángulo_35420" data-name="Rectángulo 35420" width="139.077" height="33.434" rx="8.963" fill="#fff"/>
          </g>
          <g id="Grupo_131698" data-name="Grupo 131698" transform="translate(7.136 4.638)">
            <g id="Grupo_131696" data-name="Grupo 131696">
              <circle id="Elipse_4970" data-name="Elipse 4970" cx="10.903" cy="10.903" r="10.903" fill="#539380"/>
            </g>
            <g id="Grupo_131697" data-name="Grupo 131697" transform="translate(5.02 7.067)">
              <path id="Trazado_149723" data-name="Trazado 149723" d="M234.518,79.381l-3.771-3.771,1.576-1.576,2.195,2.2,6.419-6.419,1.576,1.576Z" transform="translate(-230.747 -69.81)" fill="#fff"/>
            </g>
          </g>
          <g id="Grupo_131702" data-name="Grupo 131702" transform="translate(34.83 7.027)">
            <g id="Grupo_131699" data-name="Grupo 131699">
              <path id="Trazado_149724" data-name="Trazado 149724" d="M344.4,69H249.981a1.433,1.433,0,0,1-1.433-1.433h0a1.433,1.433,0,0,1,1.433-1.433H344.4a1.433,1.433,0,0,1,1.433,1.433h0A1.433,1.433,0,0,1,344.4,69Z" transform="translate(-248.548 -66.137)" fill="#f0e8e0"/>
            </g>
            <g id="Grupo_131700" data-name="Grupo 131700" transform="translate(0 16.552)">
              <path id="Trazado_149725" data-name="Trazado 149725" d="M344.4,82H249.981a1.433,1.433,0,0,1-1.433-1.433h0a1.433,1.433,0,0,1,1.433-1.433H344.4a1.433,1.433,0,0,1,1.433,1.433h0A1.433,1.433,0,0,1,344.4,82Z" transform="translate(-248.548 -79.132)" fill="#f0e8e0"/>
            </g>
            <g id="Grupo_131701" data-name="Grupo 131701" transform="translate(0 8.258)">
              <path id="Trazado_149726" data-name="Trazado 149726" d="M344.4,75.486H249.981a1.433,1.433,0,0,1-1.433-1.433h0a1.433,1.433,0,0,1,1.433-1.433H344.4a1.433,1.433,0,0,1,1.433,1.433h0A1.433,1.433,0,0,1,344.4,75.486Z" transform="translate(-248.548 -72.62)" fill="#f0e8e0"/>
            </g>
          </g>
          <g id="Grupo_131703" data-name="Grupo 131703" transform="translate(10.644 30.113)">
            <path id="Trazado_149727" data-name="Trazado 149727" d="M229.56,84.262l7.394,15.708,7.394-15.708Z" transform="translate(-229.56 -84.262)" fill="#fff"/>
          </g>
        </g>
        <g id="Grupo_131712" data-name="Grupo 131712" transform="translate(84.543 185.326)">
          <rect id="Rectángulo_35421" data-name="Rectángulo 35421" width="39.94" height="39.94" rx="5.616" fill="#539380"/>
          <g id="Grupo_131710" data-name="Grupo 131710" transform="translate(8.701 7.049)">
            <g id="Grupo_131709" data-name="Grupo 131709">
              <g id="Grupo_131708" data-name="Grupo 131708">
                <g id="Grupo_131707" data-name="Grupo 131707">
                  <g id="Grupo_131706" data-name="Grupo 131706">
                    <g id="Grupo_131705" data-name="Grupo 131705">
                      <path id="Trazado_149728" data-name="Trazado 149728" d="M316.312,225.729l-2.586-1.051a9.122,9.122,0,0,0,.037-1.7l2.525-1.065a.73.73,0,0,0,.391-.958l-1.4-3.318a.725.725,0,0,0-.4-.391.733.733,0,0,0-.559,0l-2.356,1a8.653,8.653,0,0,0-1.644-1.642l1.053-2.59a.733.733,0,0,0-.005-.559.742.742,0,0,0-.4-.394l-3.333-1.354a.731.731,0,0,0-.953.4l-1.1,2.712a8.609,8.609,0,0,0-1.256,0l-1.064-2.527a.733.733,0,0,0-.958-.392l-3.316,1.4a.731.731,0,0,0-.391.958l.995,2.358a8.727,8.727,0,0,0-1.642,1.644l-2.195-.894a.734.734,0,0,0-.953.4l-1.354,3.333a.728.728,0,0,0,0,.562.72.72,0,0,0,.4.391l2.318.944a8.812,8.812,0,0,0,.064,1.879l-2.358.995a.735.735,0,0,0-.391.959l1.4,3.314a.732.732,0,0,0,.958.391l2.527-1.066a8.772,8.772,0,0,0,1.6,1.41l-1.05,2.576a.746.746,0,0,0,0,.562.732.732,0,0,0,.4.391l3.333,1.356a.7.7,0,0,0,.278.054.732.732,0,0,0,.675-.455l1.192-2.927a8.717,8.717,0,0,0,1.432-.088l.992,2.358a.733.733,0,0,0,.958.391l3.316-1.4a.732.732,0,0,0,.391-.958l-1.067-2.527a8.5,8.5,0,0,0,.879-.9l2.71,1.1a.722.722,0,0,0,.559,0,.736.736,0,0,0,.394-.4l1.354-3.333A.728.728,0,0,0,316.312,225.729Zm-7.616-.6a4.029,4.029,0,1,1-.018-3.084A4.007,4.007,0,0,1,308.7,225.133Z" transform="translate(-293.394 -211.653)" fill="#fff"/>
                    </g>
                  </g>
                </g>
              </g>
            </g>
          </g>
          <g id="Grupo_131711" data-name="Grupo 131711" transform="translate(20.832 38.202)">
            <path id="Trazado_149729" data-name="Trazado 149729" d="M302.918,236.111l6.532,13.876,6.532-13.876Z" transform="translate(-302.918 -236.111)" fill="#539380"/>
          </g>
        </g>
        <rect id="Rectángulo_35422" data-name="Rectángulo 35422" width="39.94" height="39.94" rx="5.616" transform="translate(136.761 185.326)" fill="#c04d3a"/>
        <g id="Grupo_131715" data-name="Grupo 131715" transform="translate(144.716 193.77)">
          <g id="Grupo_131714" data-name="Grupo 131714">
            <g id="Grupo_131713" data-name="Grupo 131713">
              <path id="Trazado_149730" data-name="Trazado 149730" d="M357.833,223.376c0,4.689-2.626,7.119-5.767,7.119a3.952,3.952,0,0,1-3.877-2.136,3.823,3.823,0,0,1-3.732,2.136c-2.649,0-5.2-2.332-5.2-6.111s2.479-6.087,5.2-6.087a3.883,3.883,0,0,1,3.02,1.2v-.983h4.713v7.021c0,1.032.418,1.349.957,1.349.688,0,1.252-.687,1.252-3.435,0-4.443-3.314-7.584-8.37-7.584a8,8,0,0,0-8.418,8.2,7.89,7.89,0,0,0,8.32,8.246,11.845,11.845,0,0,0,4.959-1.079l1.03,3.019a14.943,14.943,0,0,1-5.989,1.177c-7.389,0-12.126-4.932-12.126-11.363,0-6.333,4.737-11.316,12.224-11.316C353.1,212.748,357.833,217.485,357.833,223.376Zm-10.259,1.007c0-1.472-.762-2.234-1.767-2.234s-1.742.762-1.742,2.234c0,1.5.735,2.257,1.742,2.257S347.574,225.88,347.574,224.384Z" transform="translate(-333.804 -212.748)" fill="#fff"/>
            </g>
          </g>
        </g>
        <g id="Grupo_131716" data-name="Grupo 131716" transform="translate(157.593 223.528)">
          <path id="Trazado_149731" data-name="Trazado 149731" d="M343.914,236.111l6.532,13.876,6.532-13.876Z" transform="translate(-343.914 -236.111)" fill="#c04d3a"/>
        </g>
        <g id="Grupo_131759" data-name="Grupo 131759" transform="translate(86.025 57.431)">
          <g id="Grupo_131720" data-name="Grupo 131720" transform="translate(0 7.644)">
            <g id="Grupo_131719" data-name="Grupo 131719">
              <g id="Grupo_131718" data-name="Grupo 131718">
                <g id="Grupo_131717" data-name="Grupo 131717">
                  <path id="Trazado_149732" data-name="Trazado 149732" d="M287.726,111.71v89.342a8.7,8.7,0,0,0,8.7,8.7h70.755a8.7,8.7,0,0,0,8.7-8.7V111.71Z" transform="translate(-287.726 -111.71)" fill="#fff"/>
                </g>
              </g>
            </g>
          </g>
          <g id="Grupo_131740" data-name="Grupo 131740" transform="translate(18.113 21.998)">
            <g id="Grupo_131723" data-name="Grupo 131723" transform="translate(3 52.144)">
              <g id="Grupo_131722" data-name="Grupo 131722">
                <g id="Grupo_131721" data-name="Grupo 131721">
                  <rect id="Rectángulo_35423" data-name="Rectángulo 35423" width="8.57" height="20.71" fill="#314fa5"/>
                </g>
              </g>
            </g>
            <g id="Grupo_131726" data-name="Grupo 131726" transform="translate(15.641 37.437)">
              <g id="Grupo_131725" data-name="Grupo 131725">
                <g id="Grupo_131724" data-name="Grupo 131724">
                  <rect id="Rectángulo_35424" data-name="Rectángulo 35424" width="8.57" height="35.417" fill="#1c2b74"/>
                </g>
              </g>
            </g>
            <g id="Grupo_131729" data-name="Grupo 131729" transform="translate(29.639 26.584)">
              <g id="Grupo_131728" data-name="Grupo 131728">
                <g id="Grupo_131727" data-name="Grupo 131727">
                  <rect id="Rectángulo_35425" data-name="Rectángulo 35425" width="8.57" height="46.27" fill="#314fa5"/>
                </g>
              </g>
            </g>
            <g id="Grupo_131732" data-name="Grupo 131732" transform="translate(43.352 13.848)">
              <g id="Grupo_131731" data-name="Grupo 131731">
                <g id="Grupo_131730" data-name="Grupo 131730">
                  <rect id="Rectángulo_35426" data-name="Rectángulo 35426" width="8.57" height="59.007" fill="#1c2b74"/>
                </g>
              </g>
            </g>
            <g id="Grupo_131735" data-name="Grupo 131735" transform="translate(36.124)">
              <g id="Grupo_131734" data-name="Grupo 131734">
                <g id="Grupo_131733" data-name="Grupo 131733">
                  <path id="Trazado_149733" data-name="Trazado 149733" d="M330.307,127.754l5.942,2.181-.684-6.955Z" transform="translate(-330.307 -122.98)" fill="#5880eb"/>
                </g>
              </g>
            </g>
            <g id="Grupo_131739" data-name="Grupo 131739" transform="translate(0 3.935)">
              <g id="Grupo_131738" data-name="Grupo 131738">
                <g id="Grupo_131737" data-name="Grupo 131737">
                  <g id="Grupo_131736" data-name="Grupo 131736">
                    <path id="Trazado_149734" data-name="Trazado 149734" d="M302.589,164.224a.643.643,0,0,1-.224-1.246c.259-.1,26.05-9.98,38.631-36.541a.643.643,0,1,1,1.162.55c-12.811,27.048-39.079,37.1-39.343,37.2A.634.634,0,0,1,302.589,164.224Z" transform="translate(-301.947 -126.069)" fill="#5880eb"/>
                  </g>
                </g>
              </g>
            </g>
          </g>
          <g id="Grupo_131758" data-name="Grupo 131758">
            <g id="Grupo_131744" data-name="Grupo 131744">
              <g id="Grupo_131743" data-name="Grupo 131743">
                <g id="Grupo_131742" data-name="Grupo 131742">
                  <g id="Grupo_131741" data-name="Grupo 131741">
                    <path id="Trazado_149735" data-name="Trazado 149735" d="M375.875,110.058v12.056H287.726V110.058a4.348,4.348,0,0,1,4.347-4.349h79.454A4.348,4.348,0,0,1,375.875,110.058Z" transform="translate(-287.726 -105.709)" fill="#171612"/>
                  </g>
                </g>
              </g>
            </g>
            <g id="Grupo_131757" data-name="Grupo 131757" transform="translate(61.072 4.546)">
              <g id="Grupo_131748" data-name="Grupo 131748">
                <g id="Grupo_131747" data-name="Grupo 131747">
                  <g id="Grupo_131746" data-name="Grupo 131746">
                    <g id="Grupo_131745" data-name="Grupo 131745">
                      <path id="Trazado_149736" data-name="Trazado 149736" d="M341.4,112.144a2.866,2.866,0,1,1-2.866-2.866A2.865,2.865,0,0,1,341.4,112.144Z" transform="translate(-335.673 -109.278)" fill="#5a554d"/>
                    </g>
                  </g>
                </g>
              </g>
              <g id="Grupo_131752" data-name="Grupo 131752" transform="translate(9.29 0)">
                <g id="Grupo_131751" data-name="Grupo 131751">
                  <g id="Grupo_131750" data-name="Grupo 131750">
                    <g id="Grupo_131749" data-name="Grupo 131749">
                      <circle id="Elipse_4971" data-name="Elipse 4971" cx="2.866" cy="2.866" r="2.866" fill="#5a554d"/>
                    </g>
                  </g>
                </g>
              </g>
              <g id="Grupo_131756" data-name="Grupo 131756" transform="translate(18.184)">
                <g id="Grupo_131755" data-name="Grupo 131755">
                  <g id="Grupo_131754" data-name="Grupo 131754">
                    <g id="Grupo_131753" data-name="Grupo 131753">
                      <path id="Trazado_149737" data-name="Trazado 149737" d="M355.681,112.144a2.866,2.866,0,1,1-2.866-2.866A2.866,2.866,0,0,1,355.681,112.144Z" transform="translate(-349.949 -109.278)" fill="#5a554d"/>
                    </g>
                  </g>
                </g>
              </g>
            </g>
          </g>
        </g>
        <g id="Grupo_131777" data-name="Grupo 131777" transform="translate(37.265 252.744)">
          <g id="Grupo_131774" data-name="Grupo 131774" transform="translate(0 6.349)">
            <g id="Grupo_131760" data-name="Grupo 131760">
              <path id="Trazado_149738" data-name="Trazado 149738" d="M262.687,264.033l-10.983.038a2.265,2.265,0,0,0-2.258,2.274l.1,29.439a3.519,3.519,0,0,0,3.532,3.507l38.518-.133a2.129,2.129,0,0,0,2.122-2.136l-.094-27.42a1.844,1.844,0,0,0-1.851-1.837l-22.469.078Z" transform="translate(-249.445 -264.033)" fill="#b56d25"/>
            </g>
            <g id="Grupo_131761" data-name="Grupo 131761" transform="translate(0.041 13.946)">
              <path id="Trazado_149739" data-name="Trazado 149739" d="M293.71,294.024l-.066-19.042-44.167.153.066,19.042a2.127,2.127,0,0,0,2.136,2.121l39.909-.138A2.129,2.129,0,0,0,293.71,294.024Z" transform="translate(-249.477 -274.982)" fill="#e59f3f"/>
            </g>
            <g id="Grupo_131773" data-name="Grupo 131773" transform="translate(2.478 8.435)">
              <g id="Grupo_131762" data-name="Grupo 131762" transform="translate(0 0)">
                <path id="Rectángulo_35427" data-name="Rectángulo 35427" d="M0,0H2.272A3.249,3.249,0,0,1,5.521,3.249V35.87a3.249,3.249,0,0,1-3.249,3.249H0a0,0,0,0,1,0,0V0A0,0,0,0,1,0,0Z" transform="translate(0.019 5.654) rotate(-90.195)" fill="#fff"/>
              </g>
              <g id="Grupo_131772" data-name="Grupo 131772" transform="translate(3.122 2.021)">
                <g id="Grupo_131763" data-name="Grupo 131763" transform="translate(30.975)">
                  <path id="Trazado_149740" data-name="Trazado 149740" d="M279.877,273.1l.009,2.656-1.717.006-.009-2.657a.858.858,0,0,1,1.717-.005Z" transform="translate(-278.16 -272.242)" fill="#f0e8e0"/>
                </g>
                <g id="Grupo_131764" data-name="Grupo 131764" transform="translate(27.104 0.013)">
                  <path id="Trazado_149741" data-name="Trazado 149741" d="M276.837,273.107l.009,2.656-1.716.006-.009-2.656a.858.858,0,0,1,1.716-.006Z" transform="translate(-275.121 -272.252)" fill="#f0e8e0"/>
                </g>
                <g id="Grupo_131765" data-name="Grupo 131765" transform="translate(23.232 0.027)">
                  <path id="Trazado_149742" data-name="Trazado 149742" d="M273.8,273.118l.009,2.656-1.716.006-.009-2.656a.858.858,0,0,1,1.716-.006Z" transform="translate(-272.081 -272.263)" fill="#f0e8e0"/>
                </g>
                <g id="Grupo_131766" data-name="Grupo 131766" transform="translate(19.359 0.039)">
                  <path id="Trazado_149743" data-name="Trazado 149743" d="M270.757,273.128l.009,2.657-1.716.005-.009-2.656a.858.858,0,0,1,1.716-.006Z" transform="translate(-269.041 -272.273)" fill="#f0e8e0"/>
                </g>
                <g id="Grupo_131767" data-name="Grupo 131767" transform="translate(15.487 0.053)">
                  <path id="Trazado_149744" data-name="Trazado 149744" d="M267.718,273.139l.009,2.656-1.717.006L266,273.145a.858.858,0,0,1,1.717-.006Z" transform="translate(-266.001 -272.284)" fill="#f0e8e0"/>
                </g>
                <g id="Grupo_131768" data-name="Grupo 131768" transform="translate(11.616 0.066)">
                  <path id="Trazado_149745" data-name="Trazado 149745" d="M264.678,273.149l.009,2.657-1.716.005-.009-2.656a.858.858,0,0,1,1.716-.006Z" transform="translate(-262.962 -272.294)" fill="#f0e8e0"/>
                </g>
                <g id="Grupo_131769" data-name="Grupo 131769" transform="translate(7.744 0.08)">
                  <path id="Trazado_149746" data-name="Trazado 149746" d="M261.638,273.16l.009,2.656-1.716.006-.009-2.656a.858.858,0,1,1,1.716-.006Z" transform="translate(-259.922 -272.305)" fill="#f0e8e0"/>
                </g>
                <g id="Grupo_131770" data-name="Grupo 131770" transform="translate(3.872 0.093)">
                  <path id="Trazado_149747" data-name="Trazado 149747" d="M258.6,273.17l.009,2.657-1.716.005-.009-2.656a.858.858,0,0,1,1.716-.006Z" transform="translate(-256.882 -272.315)" fill="#f0e8e0"/>
                </g>
                <g id="Grupo_131771" data-name="Grupo 131771" transform="translate(0 0.107)">
                  <path id="Trazado_149748" data-name="Trazado 149748" d="M255.558,273.181l.01,2.656-1.716.006-.01-2.656a.858.858,0,1,1,1.716-.006Z" transform="translate(-253.842 -272.326)" fill="#f0e8e0"/>
                </g>
              </g>
            </g>
          </g>
          <g id="Grupo_131776" data-name="Grupo 131776" transform="translate(32.426)">
            <circle id="Elipse_4972" data-name="Elipse 4972" cx="9.953" cy="9.953" r="9.953" fill="#314fa5"/>
            <g id="Grupo_131775" data-name="Grupo 131775" transform="translate(4.509 5.225)">
              <path id="Trazado_149749" data-name="Trazado 149749" d="M281.848,272.607h0a.966.966,0,0,1-.683-.283l-2.439-2.439a.965.965,0,1,1,1.365-1.365l1.757,1.756,6.844-6.844a.965.965,0,1,1,1.365,1.364l-7.526,7.528A.966.966,0,0,1,281.848,272.607Z" transform="translate(-278.443 -263.15)" fill="#fff"/>
            </g>
          </g>
        </g>
        <g id="Grupo_131779" data-name="Grupo 131779" transform="translate(146.15 230.621)">
          <path id="Trazado_149750" data-name="Trazado 149750" d="M411.81,253.881c-.241,1.195-.492,2.318-.744,3.47s-.516,2.285-.782,3.424q-.8,3.416-1.676,6.812-1.748,6.792-3.719,13.542c-.655,2.252-1.346,4.5-2.039,6.746s-1.433,4.49-2.178,6.737-1.536,4.487-2.344,6.738-1.67,4.5-2.569,6.764-1.872,4.537-2.942,6.867c-.536,1.166-1.106,2.345-1.74,3.556s-1.322,2.46-2.187,3.829c-.437.687-.92,1.408-1.526,2.21-.311.406-.643.825-1.058,1.3a17.95,17.95,0,0,1-1.528,1.553l-.243.215-.1.083-.082.066-.324.26-.327.259-.313.232c-.428.318-.828.586-1.238.857-.8.512-1.567.953-2.311,1.348a37.306,37.306,0,0,1-4.239,1.88c-1.354.512-2.668.944-3.965,1.313a74.2,74.2,0,0,1-7.574,1.743c-2.48.439-4.931.773-7.372,1.014s-4.871.4-7.3.474q-1.821.055-3.647.04c-.609-.006-1.219-.017-1.833-.042l-.925-.034-.971-.05a7.461,7.461,0,0,1-2.325-14.407l.645-.247c.208-.08.493-.178.748-.26l.792-.259c.53-.178,1.064-.348,1.6-.517l3.2-1.009,6.333-1.991c2.085-.671,4.143-1.34,6.139-2.038s3.928-1.419,5.714-2.164c.887-.381,1.735-.76,2.511-1.14s1.458-.778,2-1.115c.262-.171.482-.329.643-.459a2.164,2.164,0,0,0,.166-.157l.031-.031.008-.018.009-.015,0,0-.017.013-.083.07c-.218.191-.3.283-.33.3s-.014,0,.02-.057c.079-.127.231-.372.4-.669.34-.6.745-1.4,1.141-2.242s.8-1.769,1.209-2.712c.808-1.89,1.583-3.9,2.35-5.936s1.52-4.121,2.252-6.223,1.471-4.22,2.186-6.353,1.438-4.275,2.144-6.426l2.123-6.467,4.231-13,2.14-6.506,1.086-3.245c.364-1.074.727-2.176,1.09-3.21l.033-.093a10.187,10.187,0,0,1,19.6,5.382Z" transform="translate(-334.93 -241.68)" fill="#314fa5"/>
          <g id="Grupo_131778" data-name="Grupo 131778" transform="translate(35.4 69.173)">
            <path id="Trazado_149751" data-name="Trazado 149751" d="M363.183,296.942a18.318,18.318,0,0,1,8.674,2.5.478.478,0,0,0,.483-.824,19.423,19.423,0,0,0-9.157-2.63c-.615-.02-.614.935,0,.955Z" transform="translate(-362.722 -295.987)" fill="#1c2b74"/>
          </g>
        </g>
        <g id="Grupo_131802" data-name="Grupo 131802" transform="translate(114.384 266.857)">
          <g id="Grupo_131788" data-name="Grupo 131788" transform="translate(84.058 121.502)">
            <g id="Grupo_131781" data-name="Grupo 131781" transform="translate(74.195)">
              <g id="Grupo_131780" data-name="Grupo 131780">
                <path id="Trazado_149752" data-name="Trazado 149752" d="M481.459,484.291a2.252,2.252,0,0,0,2.093-3.074L438.575,366.944a2.248,2.248,0,0,0-4.184,1.647l44.976,114.273A2.251,2.251,0,0,0,481.459,484.291Z" transform="translate(-434.233 -365.519)" fill="#5a554d"/>
              </g>
            </g>
            <g id="Grupo_131783" data-name="Grupo 131783" transform="translate(0 0.001)">
              <g id="Grupo_131782" data-name="Grupo 131782">
                <path id="Trazado_149753" data-name="Trazado 149753" d="M378.233,484.291a2.251,2.251,0,0,0,2.093-1.427L425.3,368.591a2.249,2.249,0,0,0-4.186-1.647L376.141,481.217a2.252,2.252,0,0,0,2.093,3.074Z" transform="translate(-375.984 -365.519)" fill="#5a554d"/>
              </g>
            </g>
            <g id="Grupo_131785" data-name="Grupo 131785" transform="translate(20.81 37.516)">
              <g id="Grupo_131784" data-name="Grupo 131784">
                <path id="Trazado_149754" data-name="Trazado 149754" d="M394.571,423.356a2.244,2.244,0,0,0,.744-.127l68.15-23.885a2.249,2.249,0,0,0-1.488-4.244l-68.15,23.885a2.249,2.249,0,0,0,.744,4.371Z" transform="translate(-392.322 -394.972)" fill="#5a554d"/>
              </g>
            </g>
            <g id="Grupo_131787" data-name="Grupo 131787" transform="translate(30.215 37.516)">
              <g id="Grupo_131786" data-name="Grupo 131786">
                <path id="Trazado_149755" data-name="Trazado 149755" d="M470.105,423.356a2.249,2.249,0,0,0,.744-4.371L402.7,395.1a2.249,2.249,0,1,0-1.488,4.244l68.151,23.885A2.233,2.233,0,0,0,470.105,423.356Z" transform="translate(-399.705 -394.972)" fill="#5a554d"/>
              </g>
            </g>
          </g>
          <g id="Grupo_131797" data-name="Grupo 131797" transform="translate(0 121.502)">
            <g id="Grupo_131790" data-name="Grupo 131790" transform="translate(74.194)">
              <g id="Grupo_131789" data-name="Grupo 131789">
                <path id="Trazado_149756" data-name="Trazado 149756" d="M415.466,484.291a2.253,2.253,0,0,0,2.093-3.074L372.582,366.944a2.249,2.249,0,0,0-4.185,1.647l44.977,114.273A2.25,2.25,0,0,0,415.466,484.291Z" transform="translate(-368.24 -365.519)" fill="#5a554d"/>
              </g>
            </g>
            <g id="Grupo_131792" data-name="Grupo 131792" transform="translate(0 0.001)">
              <g id="Grupo_131791" data-name="Grupo 131791">
                <path id="Trazado_149757" data-name="Trazado 149757" d="M312.239,484.291a2.251,2.251,0,0,0,2.094-1.427l44.976-114.273a2.248,2.248,0,0,0-4.184-1.647L310.148,481.217a2.252,2.252,0,0,0,2.091,3.074Z" transform="translate(-309.991 -365.519)" fill="#5a554d"/>
              </g>
            </g>
            <g id="Grupo_131794" data-name="Grupo 131794" transform="translate(20.81 37.516)">
              <g id="Grupo_131793" data-name="Grupo 131793">
                <path id="Trazado_149758" data-name="Trazado 149758" d="M328.577,423.356a2.234,2.234,0,0,0,.744-.127l68.15-23.885a2.248,2.248,0,1,0-1.486-4.244l-68.151,23.885a2.249,2.249,0,0,0,.744,4.371Z" transform="translate(-326.328 -394.972)" fill="#5a554d"/>
              </g>
            </g>
            <g id="Grupo_131796" data-name="Grupo 131796" transform="translate(30.214 37.516)">
              <g id="Grupo_131795" data-name="Grupo 131795">
                <path id="Trazado_149759" data-name="Trazado 149759" d="M404.111,423.356a2.249,2.249,0,0,0,.744-4.371L336.705,395.1a2.249,2.249,0,1,0-1.488,4.244l68.15,23.885A2.238,2.238,0,0,0,404.111,423.356Z" transform="translate(-333.712 -394.972)" fill="#5a554d"/>
              </g>
            </g>
          </g>
          <g id="Grupo_131798" data-name="Grupo 131798" transform="translate(17.041)">
            <path id="Trazado_149760" data-name="Trazado 149760" d="M326.724,379.965a16.913,16.913,0,0,0,6.8,25.608c30.529,13.281,92.834,33.466,136.719,1.46a83.825,83.825,0,0,0,7.013-5.718q1.177-1.062,2.327-2.19C523.69,356.02,481.536,290.534,468.832,273a6.911,6.911,0,0,0-8.4-2.276l-.051.023q-.894.392-1.784.792C391.063,301.989,346.4,353.546,326.724,379.965Z" transform="translate(-323.369 -270.128)" fill="#171612"/>
          </g>
          <g id="Grupo_131800" data-name="Grupo 131800" transform="translate(152.271 0.615)">
            <g id="Grupo_131799" data-name="Grupo 131799">
              <path id="Trazado_149761" data-name="Trazado 149761" d="M447.8,300.731c7.826,15.68,16.418,39.141,12.916,61.848-3.049,19.784-10.186,34.079-19.533,44.322a83.837,83.837,0,0,0,7.013-5.718c7.295-10.4,12.137-23.2,14.466-38.306,1.585-10.274.911-21.53-2-33.456a142.382,142.382,0,0,0-11.124-29.607,180.53,180.53,0,0,0-18.216-29.2q-.894.392-1.785.792a.959.959,0,0,0,.182.352A177.622,177.622,0,0,1,447.8,300.731Z" transform="translate(-429.538 -270.611)" fill="#5a554d"/>
            </g>
          </g>
          <g id="Grupo_131801" data-name="Grupo 131801" transform="translate(37.209 34.005)">
            <path id="Trazado_149762" data-name="Trazado 149762" d="M441.029,296.825s20.149,62.66,2.727,85.148c-15.8,20.391-46.55,21.781-96.366-1.79-7.186-3.4-10.5-5.932-6.408-12.3C373.738,329.522,406.857,298.184,441.029,296.825Z" transform="translate(-339.204 -296.825)" fill="#171612"/>
          </g>
        </g>
        <g id="Grupo_131831" data-name="Grupo 131831" transform="translate(0 322.475)">
          <path id="Trazado_149763" data-name="Trazado 149763" d="M359.644,345.112s-19.67,25.318-45.186,30.44l-51.744,30.9-1.494-15.071s68.312-70.778,81-72.338,33.041,8.028,33.041,8.028Z" transform="translate(-208.957 -312.404)" fill="#eaad8f"/>
          <g id="Grupo_131811" data-name="Grupo 131811" transform="translate(0 77.53)">
            <g id="Grupo_131806" data-name="Grupo 131806" transform="translate(0 13.856)">
              <g id="Grupo_131805" data-name="Grupo 131805">
                <g id="Grupo_131804" data-name="Grupo 131804">
                  <g id="Grupo_131803" data-name="Grupo 131803">
                    <path id="Trazado_149764" data-name="Trazado 149764" d="M237.8,385.958c4.71-.624,35.584,3.08,35.584,3.08s.129,5.827-3.074,8.167c-3.051,2.226-18.3,14.933-19.948,16.217l-1.727-2.105,6.03-6.929s-11.61,1.5-17.192.051-15.091-14-17.1-17.245S233.088,386.582,237.8,385.958Z" transform="translate(-220.189 -385.539)" fill="#171612"/>
                  </g>
                </g>
              </g>
            </g>
            <g id="Grupo_131810" data-name="Grupo 131810" transform="translate(13.751)">
              <g id="Grupo_131809" data-name="Grupo 131809">
                <g id="Grupo_131808" data-name="Grupo 131808">
                  <g id="Grupo_131807" data-name="Grupo 131807">
                    <path id="Trazado_149765" data-name="Trazado 149765" d="M278.731,385.294l-7.74,5.881a11.253,11.253,0,0,1-5.548,4.55c-4.108,1.741-12.383,2.363-19.166,2.04-5.85-.276-14.538-4.031-15.259-6.7s10.626-2.527,15.487-3.745a77.8,77.8,0,0,0,12.8-4.505c4.087-1.834,12.055-8.157,12.055-8.157Z" transform="translate(-230.984 -374.661)" fill="#eaad8f"/>
                  </g>
                </g>
              </g>
            </g>
          </g>
          <path id="Trazado_149766" data-name="Trazado 149766" d="M353.6,354.969s-2.907,31.929-21.628,50.006l-24.555,55.919-10.527-4.208c11.29-28.383,17.052-113.816,25-117.885,11.378-5.825,35.122-7.449,35.122-7.449Z" transform="translate(-199.193 -308.987)" fill="#eaad8f"/>
          <g id="Grupo_131812" data-name="Grupo 131812" transform="translate(113.603 22.332)">
            <path id="Trazado_149767" data-name="Trazado 149767" d="M347.77,332.279c-5.038.669-10.124,1.19-15.126,2.093-4.675.845-9.452,2.341-12.988,5.663-3.684,3.462-4.755,8.409-5.8,13.155q-1.763,8.051-3.524,16.1c-.131.6-1.078.467-.946-.134,1.258-5.751,2.5-11.506,3.777-17.253.99-4.462,2.2-8.981,5.557-12.289s7.864-4.977,12.381-5.918c5.439-1.135,11.039-1.638,16.545-2.368a.478.478,0,0,1,.121.948Z" transform="translate(-309.377 -331.326)" fill="#c6695d"/>
          </g>
          <g id="Grupo_131821" data-name="Grupo 131821" transform="translate(72.387 134.122)">
            <g id="Grupo_131816" data-name="Grupo 131816" transform="translate(0 15.29)">
              <g id="Grupo_131815" data-name="Grupo 131815">
                <g id="Grupo_131814" data-name="Grupo 131814">
                  <g id="Grupo_131813" data-name="Grupo 131813">
                    <path id="Trazado_149768" data-name="Trazado 149768" d="M288.439,455.574c2.674-3.927,26.011-24.479,26.011-24.479s4.431,3.788,4.04,7.735c-.372,3.758-1.058,23.593-1.2,25.68l-2.721-.116-1.148-9.112S306.8,464.936,302,468.134s-20.5,1.917-24.251,1.253S285.767,459.5,288.439,455.574Z" transform="translate(-277.019 -431.095)" fill="#171612"/>
                  </g>
                </g>
              </g>
            </g>
            <g id="Grupo_131820" data-name="Grupo 131820" transform="translate(9.978)">
              <g id="Grupo_131819" data-name="Grupo 131819">
                <g id="Grupo_131818" data-name="Grupo 131818">
                  <g id="Grupo_131817" data-name="Grupo 131817">
                    <path id="Trazado_149769" data-name="Trazado 149769" d="M316.872,422.847,312.055,433.4a11.255,11.255,0,0,1-.3,7.169c-1.441,4.222-6.491,10.806-11.251,15.649-4.107,4.178-12.7,8.153-15.164,6.914s5.2-9.606,7.529-14.043a77.905,77.905,0,0,0,5.175-12.549c1.357-4.27,6.263-17.45,6.263-17.45Z" transform="translate(-284.853 -419.091)" fill="#eaad8f"/>
                  </g>
                </g>
              </g>
            </g>
          </g>
          <g id="Grupo_131830" data-name="Grupo 131830" transform="translate(139.141)">
            <path id="Trazado_149770" data-name="Trazado 149770" d="M329.427,320.386c8.982,3.786,12.876,12.753,14.282,22.29.1.661.185,1.322.26,1.99,1.614,14.377-1.951,29.318-1.951,29.318,2.536,1.165,5.272,2.308,8.165,3.406l.909.341c4.081,1.521,8.459,2.959,13.013,4.275.325.094.646.185.974.276a209.811,209.811,0,0,0,25.838,5.6c.456.071.913.136,1.367.2h0c10.315,1.467,20.326,2,28.818,1.21.318-.028.638-.06.955-.094a51.717,51.717,0,0,0,9.861-1.93c.329-.1.653-.21.974-.318,4.844-1.667,8.521-4.156,10.554-7.63a60.073,60.073,0,0,0,6.606-16.91c.084-.364.164-.73.238-1.092a73.587,73.587,0,0,0,1.432-10.427c.024-.322.043-.641.06-.96a87.1,87.1,0,0,0-.248-12.718c-.029-.339-.062-.667-.1-.995a76.536,76.536,0,0,0-2.262-12.655,85.562,85.562,0,0,1-35.826-3.423c-.321-.1-.637-.2-.957-.31a93.122,93.122,0,0,1-14.016-6.037,14.21,14.21,0,0,1-3.61,3.077c-.266.172-.548.346-.85.522a29.281,29.281,0,0,1-4.145,2c-.293.116-.6.23-.911.34a52.828,52.828,0,0,1-17.683,2.747c-2.409.014-4.948-.017-7.542-.078h0c-.4-.011-.8-.02-1.2-.033-2.812-.079-5.663-.189-8.459-.321h0c-.581-.028-1.157-.059-1.731-.087h0C340.032,321.337,329.427,320.386,329.427,320.386Z" transform="translate(-329.427 -313.793)" fill="#c04d3a"/>
            <g id="Grupo_131829" data-name="Grupo 131829" transform="translate(14.282 3.077)">
              <g id="Grupo_131822" data-name="Grupo 131822" transform="translate(88.212 44.447)">
                <path id="Trazado_149771" data-name="Trazado 149771" d="M409.895,377.054c.329-.1.653-.21.974-.318a29.079,29.079,0,0,1,5.8-16.371,25.059,25.059,0,0,1,11.358-8.168c.084-.364.164-.73.238-1.092A26.211,26.211,0,0,0,412.6,365.357,32.242,32.242,0,0,0,409.895,377.054Z" transform="translate(-409.895 -351.104)" fill="#7e231a"/>
              </g>
              <g id="Grupo_131823" data-name="Grupo 131823" transform="translate(8.534 5.089)">
                <path id="Trazado_149772" data-name="Trazado 149772" d="M347.34,320.2a32.8,32.8,0,0,1,10.294,13.456c3.286,7.662,4.782,16.073,9.182,23.247,3.868,6.3,9.927,10.82,17.5,10.918,4.472.059,8.973-.923,13.42-.074a21.06,21.06,0,0,1,10.2,5.365,30.11,30.11,0,0,1,8.26,14.42c.318-.028.638-.06.955-.094-1.6-5.839-4.366-11.312-8.993-15.41a22.151,22.151,0,0,0-9.319-5.015c-4.27-1.05-8.616-.3-12.936-.159a18.427,18.427,0,0,1-12.424-3.755,28.21,28.21,0,0,1-7.916-10.559c-3.6-7.742-5.02-16.361-9.3-23.8a30.607,30.607,0,0,0-7.191-8.449h0C348.49,320.263,347.914,320.232,347.34,320.2Z" transform="translate(-347.34 -320.204)" fill="#7e231a"/>
              </g>
              <g id="Grupo_131824" data-name="Grupo 131824" transform="translate(0 25.806)">
                <path id="Trazado_149773" data-name="Trazado 149773" d="M340.64,336.469c.1.661.185,1.322.26,1.99a40.746,40.746,0,0,1,6.213,32.723l.909.341a41.85,41.85,0,0,0-7.383-35.054Z" transform="translate(-340.64 -336.469)" fill="#7e231a"/>
              </g>
              <g id="Grupo_131825" data-name="Grupo 131825" transform="translate(20.395 57.668)">
                <path id="Trazado_149774" data-name="Trazado 149774" d="M356.652,368.951c.325.094.646.185.974.276a6.926,6.926,0,0,1,1.981-5.436c1.9-1.637,4.72-1.5,7.018-1.032,7.2,1.464,12.508,6.366,16.839,12.066.456.071.913.136,1.367.2a47.031,47.031,0,0,0-4.315-5.151,28.6,28.6,0,0,0-11.332-7.418c-3.263-1.067-7.753-1.816-10.478.87A7.848,7.848,0,0,0,356.652,368.951Z" transform="translate(-356.652 -361.484)" fill="#7e231a"/>
              </g>
              <g id="Grupo_131826" data-name="Grupo 131826" transform="translate(18.726 2.521)">
                <path id="Trazado_149775" data-name="Trazado 149775" d="M355.342,321.163c1.987,2.764,4.013,5.494,6.115,8.171,4.087,5.211,8.4,10.609,13.535,14.847,3.263,2.7,10.329,7.217,14.249,3.244,1.572-1.593,1.779-4.017,1.638-6.138a42.76,42.76,0,0,0-1.686-8.681,54.261,54.261,0,0,0-6.51-14.419c-.293.116-.6.231-.911.34a53.322,53.322,0,0,1,6.794,15.4c1.056,4.033,3.77,14.144-3.335,13.983-5.883-.131-10.906-5.305-14.634-9.3A178.534,178.534,0,0,1,356.547,321.2h0C356.143,321.185,355.743,321.176,355.342,321.163Z" transform="translate(-355.342 -318.188)" fill="#7e231a"/>
              </g>
              <g id="Grupo_131827" data-name="Grupo 131827" transform="translate(50.212)">
                <path id="Trazado_149776" data-name="Trazado 149776" d="M380.061,316.731a34.958,34.958,0,0,1,9.386,15.542c1.9,6.092,1.69,13.03,4.887,18.672a15.123,15.123,0,0,0,14.366,7.506c6.3-.546,11.619-4.481,17.38-6.69a25.242,25.242,0,0,1,11.785-1.532c.024-.322.043-.641.06-.96a25.954,25.954,0,0,0-11.511,1.35c-5.962,2.135-11.378,6.327-17.836,6.886-7.363.636-13.145-4.406-15.121-11.22-.945-3.271-1.267-6.681-1.981-10a46.48,46.48,0,0,0-2.758-8.724,33.765,33.765,0,0,0-7.809-11.349C380.644,316.381,380.363,316.555,380.061,316.731Z" transform="translate(-380.061 -316.209)" fill="#7e231a"/>
              </g>
              <g id="Grupo_131828" data-name="Grupo 131828" transform="translate(68.686 2.96)">
                <path id="Trazado_149777" data-name="Trazado 149777" d="M394.566,318.533a15.734,15.734,0,0,0,2.4,8.451c4.755,7.645,14.564,11.218,23.21,11.376a35.1,35.1,0,0,0,13.53-2.446c-.029-.339-.062-.667-.1-.995a33.838,33.838,0,0,1-19.119,1.888c-5.4-1.057-10.841-3.537-14.63-7.616a15.747,15.747,0,0,1-4.34-10.349C395.2,318.743,394.886,318.64,394.566,318.533Z" transform="translate(-394.565 -318.533)" fill="#7e231a"/>
              </g>
            </g>
          </g>
        </g>
        <g id="Grupo_132072" data-name="Grupo 132072" transform="translate(184.102 164.916)">
          <g id="Grupo_131836" data-name="Grupo 131836" transform="translate(36.736)">
            <g id="Grupo_131835" data-name="Grupo 131835">
              <g id="Grupo_131834" data-name="Grupo 131834">
                <g id="Grupo_131833" data-name="Grupo 131833">
                  <g id="Grupo_131832" data-name="Grupo 131832">
                    <path id="Trazado_149778" data-name="Trazado 149778" d="M393.567,244.5c6.348,2.117,30.37,7.235,48.6,0,.883-4.247,1.69-7.886,2.111-9.353,2.83-9.877,7.351-38.156-13.074-43.685s-38.007,6.308-35.67,25.6C396.16,222.254,395.121,234.232,393.567,244.5Z" transform="translate(-393.567 -190.095)" fill="#e59f3f"/>
                  </g>
                </g>
              </g>
            </g>
          </g>
          <g id="Grupo_131841" data-name="Grupo 131841" transform="translate(8.333 59.906)">
            <g id="Grupo_131840" data-name="Grupo 131840">
              <g id="Grupo_131839" data-name="Grupo 131839">
                <g id="Grupo_131838" data-name="Grupo 131838">
                  <g id="Grupo_131837" data-name="Grupo 131837">
                    <path id="Trazado_149779" data-name="Trazado 149779" d="M460.358,265.959c-.3,1.53-2.5,4.546-5.041,8.674-.353.569-.718,1.162-1.092,1.768-.169.271-.339.545-.511.822-6.672,10.806-16.368,26.7-20.286,38.559a36.048,36.048,0,0,0-1.581,6.514c-1.883,14.6-1.39,32.921-1.39,32.921-47.6.753-59.19-12.2-59.19-12.2s7.1-9.378,8.014-15.117c.72-4.5,1.186-3.737,2.547-9.008v0c.1-.406.209-.81.306-1.214.461-1.849.87-3.677,1.209-5.43a40.294,40.294,0,0,0,.943-10.12,19.565,19.565,0,0,0-.31-2.193c-.061-.313-.126-.625-.2-.94a93.234,93.234,0,0,0-3.281-9.735c-.132-.372-.261-.746-.389-1.117-.332-.977-.641-1.954-.9-2.935-.08-.312-.162-.618-.229-.928a21.093,21.093,0,0,1-.62-4.727,13.978,13.978,0,0,1,.081-1.685c.031-.307.074-.611.122-.9a15.05,15.05,0,0,1,2.134-5.468c.051-.082.1-.159.152-.237.125-.2.253-.388.388-.578.078-.115.158-.225.238-.335,1.963-2.69,4.36-4.652,5.689-6.285,1.118-1.376,1.239-3.508,1.179-5.95a46.6,46.6,0,0,1,.069-7.563c.043-.326.1-.648.166-.971.079-.39.173-.774.289-1.155a8.417,8.417,0,0,1,1.627-3.165,5.584,5.584,0,0,1,.734-.712c2.055-1.652,4.959-1.56,8.37-1.651a15.718,15.718,0,0,0,3.337-.5c.395-.1.787-.206,1.177-.325a39.165,39.165,0,0,0,7.12-3.082l23.441-1.851s.839,2.508,5.547,5.737c.261.182.534.364.82.546a48.172,48.172,0,0,0,8.295,4.142q1.435.569,2.653,1.176c.359.178.7.357,1.034.539,3.88,2.122,5.975,4.508,7.017,6.963a9.576,9.576,0,0,1,.364.985,11.216,11.216,0,0,1,.43,1.959c.046.326.075.65.092.974A23.441,23.441,0,0,1,460.358,265.959Z" transform="translate(-371.268 -237.127)" fill="#fff"/>
                  </g>
                </g>
              </g>
            </g>
          </g>
          <g id="Grupo_131844" data-name="Grupo 131844" transform="translate(17.756 72.351)">
            <g id="Grupo_131843" data-name="Grupo 131843">
              <g id="Grupo_131842" data-name="Grupo 131842">
                <path id="Trazado_149780" data-name="Trazado 149780" d="M396.771,261.676c-.763,4.166-4.361,6.9-8.31,7.835a18.588,18.588,0,0,1-9.8-.7c.051-.082.1-.159.152-.237.125-.2.253-.388.388-.578a17.941,17.941,0,0,0,8.149.759c4.188-.7,8.142-3.49,8.582-7.983.434-4.4-2.4-8.6-5.917-10.968a21.4,21.4,0,0,0-3.64-1.941c.043-.326.1-.648.166-.971a20.153,20.153,0,0,1,5.5,3.245C395.286,252.892,397.564,257.366,396.771,261.676Z" transform="translate(-378.666 -246.897)" fill="#dbccc1"/>
              </g>
            </g>
          </g>
          <g id="Grupo_131847" data-name="Grupo 131847" transform="translate(17.171 78.854)">
            <g id="Grupo_131846" data-name="Grupo 131846">
              <g id="Grupo_131845" data-name="Grupo 131845">
                <path id="Trazado_149781" data-name="Trazado 149781" d="M458.5,253.143c-1.894-.155-3.8-.224-5.708-.192-8.722.146-16.758,2.95-24.188,7.408-7.449,4.472-14.03,10.189-20.986,15.356-6.157,4.57-13.035,9.513-20.877,10.4a18.123,18.123,0,0,1-8.143-.932c-.132-.372-.261-.746-.388-1.117,4.905,1.956,11.08,1.1,15.9-1.036,7.684-3.412,14.282-9.064,20.87-14.175,6.211-4.824,12.587-9.585,19.8-12.824a47.558,47.558,0,0,1,23.108-3.889l.254.019A9.6,9.6,0,0,1,458.5,253.143Z" transform="translate(-378.207 -252.002)" fill="#dbccc1"/>
              </g>
            </g>
          </g>
          <g id="Grupo_131850" data-name="Grupo 131850" transform="translate(18.895 119.689)">
            <g id="Grupo_131849" data-name="Grupo 131849">
              <g id="Grupo_131848" data-name="Grupo 131848">
                <path id="Trazado_149782" data-name="Trazado 149782" d="M398.862,292.723a70.157,70.157,0,0,1-19.3,13.313c.1-.406.209-.81.306-1.214a73.677,73.677,0,0,0,14.914-9.716c1.967-1.652,5.128-3.774,5.477-6.483.753-5.873-12.242-3.146-15.275-2.444-1.1.256-2.2.555-3.275.9-.061-.313-.126-.625-.2-.94q1.484-.466,3-.824a44.087,44.087,0,0,1,7.062-1.088,19.708,19.708,0,0,1,6.654.234,3.851,3.851,0,0,1,3.028,3.262C401.448,289.719,400.2,291.4,398.862,292.723Z" transform="translate(-379.56 -284.062)" fill="#dbccc1"/>
              </g>
            </g>
          </g>
          <g id="Grupo_131853" data-name="Grupo 131853" transform="translate(35.953 138.237)">
            <g id="Grupo_131852" data-name="Grupo 131852">
              <g id="Grupo_131851" data-name="Grupo 131851">
                <path id="Trazado_149783" data-name="Trazado 149783" d="M424.068,299.536c-3.82-2.041-8.093-.324-11.451,1.867a43.333,43.333,0,0,0-9.568,8.585,45.35,45.35,0,0,0-10.092,22.991c-.08.609.874.641.954.036a44.325,44.325,0,0,1,8.943-21.27,43.385,43.385,0,0,1,8.3-8.158c3.374-2.518,8.176-5.5,12.4-3.245.54.289,1.055-.516.512-.805Z" transform="translate(-392.952 -298.624)" fill="#dbccc1"/>
              </g>
            </g>
          </g>
          <g id="Grupo_131856" data-name="Grupo 131856" transform="translate(26.245 101.514)">
            <g id="Grupo_131855" data-name="Grupo 131855">
              <g id="Grupo_131854" data-name="Grupo 131854">
                <path id="Trazado_149784" data-name="Trazado 149784" d="M386.269,324.794c2.024-6,4.412-12.024,8.41-17.016A24.479,24.479,0,0,1,410.09,298.4c4.788-1.094,10.646-2.607,12.388-7.867.948-2.858.368-5.909.574-8.851a13.33,13.33,0,0,1,3-7.651,8.608,8.608,0,0,1,7.755-3.206,7.261,7.261,0,0,1,6.232,5.106.477.477,0,0,0,.929-.219c-1.107-4.266-5.8-6.541-9.977-5.775-5.041.922-8.186,6.046-8.807,10.8-.473,3.628.69,7.687-1.3,11-1.721,2.866-5.075,4.238-8.16,5.052-3.235.853-6.546,1.358-9.586,2.825a25.766,25.766,0,0,0-7.175,5.268c-5.286,5.426-8.224,12.548-10.608,19.617a.478.478,0,0,0,.911.288Z" transform="translate(-385.33 -269.793)" fill="#dbccc1"/>
              </g>
            </g>
          </g>
          <g id="Grupo_131859" data-name="Grupo 131859" transform="translate(85.528 81.753)">
            <g id="Grupo_131858" data-name="Grupo 131858">
              <g id="Grupo_131857" data-name="Grupo 131857">
                <path id="Trazado_149785" data-name="Trazado 149785" d="M432.925,265.554a8.14,8.14,0,0,0,4.71,6.152c-.169.271-.339.545-.511.822a9.092,9.092,0,0,1-5.24-7.853c-.311-6.885,6.183-11.425,12.353-10.2.046.326.075.65.092.974C438.315,254.023,431.972,258.912,432.925,265.554Z" transform="translate(-431.874 -254.278)" fill="#dbccc1"/>
              </g>
            </g>
          </g>
          <g id="Grupo_131862" data-name="Grupo 131862" transform="translate(75.161 65.643)">
            <g id="Grupo_131861" data-name="Grupo 131861">
              <g id="Grupo_131860" data-name="Grupo 131860">
                <path id="Trazado_149786" data-name="Trazado 149786" d="M438.653,248.034a38.3,38.3,0,0,1-7.5,3.065c-2.584.732-7.077,1.663-7.4-2.26a12.472,12.472,0,0,1,2.09-7.208c.261.182.534.364.82.546a15.711,15.711,0,0,0-.8,1.614c-.662,1.558-1.81,4.312-.925,5.952.974,1.807,3.681,1.025,5.221.631A33.439,33.439,0,0,0,435.3,248.6c.787-.344,1.559-.713,2.318-1.1C437.978,247.674,438.322,247.852,438.653,248.034Z" transform="translate(-423.735 -241.631)" fill="#dbccc1"/>
              </g>
            </g>
          </g>
          <g id="Grupo_131865" data-name="Grupo 131865" transform="translate(27.552 64.839)">
            <g id="Grupo_131864" data-name="Grupo 131864">
              <g id="Grupo_131863" data-name="Grupo 131863">
                <path id="Trazado_149787" data-name="Trazado 149787" d="M399.975,241c-1.371,2.875-2.968,5.5-6.246,6.213-2.947.642-5.412-.81-7.371-3.023a5.58,5.58,0,0,1,.734-.712c2.26,2.6,5.133,4.114,8.3,1.984a10.57,10.57,0,0,0,3.406-4.138C399.192,241.228,399.585,241.118,399.975,241Z" transform="translate(-386.357 -241)" fill="#dbccc1"/>
              </g>
            </g>
          </g>
          <g id="Grupo_131871" data-name="Grupo 131871" transform="translate(42.102 73.339)">
            <g id="Grupo_131870" data-name="Grupo 131870">
              <g id="Grupo_131869" data-name="Grupo 131869">
                <g id="Grupo_131868" data-name="Grupo 131868">
                  <g id="Grupo_131867" data-name="Grupo 131867">
                    <g id="Grupo_131866" data-name="Grupo 131866">
                      <path id="Trazado_149788" data-name="Trazado 149788" d="M397.982,247.989a3.988,3.988,0,0,0,1.758,4.613c2.178,1.414,5.23,1.2,7.7,1.125a48.583,48.583,0,0,0,17.122-3.759c.564-.234.113-1.071-.448-.838a47.651,47.651,0,0,1-13.3,3.42,42.271,42.271,0,0,1-6.766.209c-2.358-.13-6.271-1.288-5.164-4.484.2-.58-.706-.865-.906-.287Z" transform="translate(-397.78 -247.673)" fill="#dbccc1"/>
                    </g>
                  </g>
                </g>
              </g>
            </g>
          </g>
          <g id="Grupo_131877" data-name="Grupo 131877" transform="translate(60.594 102.271)">
            <g id="Grupo_131876" data-name="Grupo 131876">
              <g id="Grupo_131875" data-name="Grupo 131875">
                <g id="Grupo_131874" data-name="Grupo 131874">
                  <g id="Grupo_131873" data-name="Grupo 131873">
                    <g id="Grupo_131872" data-name="Grupo 131872">
                      <path id="Trazado_149789" data-name="Trazado 149789" d="M436.164,270.6a167.941,167.941,0,0,0-23.853,56.2c-.131.594.774.884.907.287a167.24,167.24,0,0,1,23.749-55.976c.339-.512-.465-1.02-.8-.51Z" transform="translate(-412.298 -270.387)" fill="#dbccc1"/>
                    </g>
                  </g>
                </g>
              </g>
            </g>
          </g>
          <g id="Grupo_132062" data-name="Grupo 132062" transform="translate(38.412 5.202)">
            <g id="Grupo_132055" data-name="Grupo 132055">
              <g id="Grupo_132054" data-name="Grupo 132054">
                <g id="Grupo_132053" data-name="Grupo 132053">
                  <g id="Grupo_132052" data-name="Grupo 132052">
                    <g id="Grupo_131887" data-name="Grupo 131887" transform="translate(2.196 22.067)">
                      <g id="Grupo_131886" data-name="Grupo 131886">
                        <g id="Grupo_131885" data-name="Grupo 131885">
                          <g id="Grupo_131884" data-name="Grupo 131884">
                            <g id="Grupo_131883" data-name="Grupo 131883">
                              <g id="Grupo_131882" data-name="Grupo 131882">
                                <g id="Grupo_131881" data-name="Grupo 131881">
                                  <g id="Grupo_131880" data-name="Grupo 131880">
                                    <g id="Grupo_131879" data-name="Grupo 131879">
                                      <g id="Grupo_131878" data-name="Grupo 131878">
                                        <path id="Trazado_149790" data-name="Trazado 149790" d="M400.4,211.505s-2.457-.167-3.407,2.854-.2,8.427,3.028,8.284S400.4,211.505,400.4,211.505Z" transform="translate(-396.607 -211.504)" fill="#c6695d"/>
                                      </g>
                                    </g>
                                  </g>
                                </g>
                              </g>
                            </g>
                          </g>
                        </g>
                      </g>
                    </g>
                    <g id="Grupo_131894" data-name="Grupo 131894" transform="translate(0 29.707)">
                      <g id="Grupo_131893" data-name="Grupo 131893">
                        <g id="Grupo_131892" data-name="Grupo 131892">
                          <g id="Grupo_131891" data-name="Grupo 131891">
                            <g id="Grupo_131890" data-name="Grupo 131890">
                              <g id="Grupo_131889" data-name="Grupo 131889">
                                <g id="Grupo_131888" data-name="Grupo 131888">
                                  <path id="Trazado_149791" data-name="Trazado 149791" d="M398.735,226.115a4.319,4.319,0,1,1,4.761-3.828A4.324,4.324,0,0,1,398.735,226.115Zm.8-7.333a3.057,3.057,0,1,0,2.708,3.369A3.06,3.06,0,0,0,399.532,218.782Z" transform="translate(-394.883 -217.502)" fill="#fff"/>
                                </g>
                              </g>
                            </g>
                          </g>
                        </g>
                      </g>
                    </g>
                    <g id="Grupo_131913" data-name="Grupo 131913" transform="translate(8.053 38.19)">
                      <g id="Grupo_131903" data-name="Grupo 131903" transform="translate(2.742 9.246)">
                        <g id="Grupo_131902" data-name="Grupo 131902">
                          <g id="Grupo_131901" data-name="Grupo 131901">
                            <g id="Grupo_131900" data-name="Grupo 131900">
                              <g id="Grupo_131899" data-name="Grupo 131899">
                                <g id="Grupo_131898" data-name="Grupo 131898">
                                  <g id="Grupo_131897" data-name="Grupo 131897">
                                    <g id="Grupo_131896" data-name="Grupo 131896">
                                      <g id="Grupo_131895" data-name="Grupo 131895">
                                        <line id="Línea_195" data-name="Línea 195" y2="0.003" fill="#eaad8f"/>
                                      </g>
                                    </g>
                                  </g>
                                </g>
                              </g>
                            </g>
                          </g>
                        </g>
                      </g>
                      <g id="Grupo_131912" data-name="Grupo 131912">
                        <g id="Grupo_131911" data-name="Grupo 131911">
                          <g id="Grupo_131910" data-name="Grupo 131910">
                            <g id="Grupo_131909" data-name="Grupo 131909">
                              <g id="Grupo_131908" data-name="Grupo 131908">
                                <g id="Grupo_131907" data-name="Grupo 131907">
                                  <g id="Grupo_131906" data-name="Grupo 131906">
                                    <g id="Grupo_131905" data-name="Grupo 131905">
                                      <g id="Grupo_131904" data-name="Grupo 131904">
                                        <path id="Trazado_149792" data-name="Trazado 149792" d="M428.25,245.99s-5.471,7.311-14.734,7.212c-11.767-.126-12.311-5.291-12.311-5.291a22.1,22.1,0,0,0,1.657-4.626c.149-.622.279-1.262.391-1.93a53.414,53.414,0,0,0,.615-6.169c.028-.548.053-1.117.075-1.7l0-.07c8.265-.651,15.337-3.175,20.713-8.363l1.307-.527.88-.359.076.489-.382,1.457C424.723,232.96,425.4,238.973,428.25,245.99Z" transform="translate(-401.205 -224.162)" fill="#eaad8f"/>
                                      </g>
                                    </g>
                                  </g>
                                </g>
                              </g>
                            </g>
                          </g>
                        </g>
                      </g>
                    </g>
                    <g id="Grupo_131923" data-name="Grupo 131923" transform="translate(10.101 44.346)">
                      <g id="Grupo_131922" data-name="Grupo 131922">
                        <g id="Grupo_131921" data-name="Grupo 131921">
                          <g id="Grupo_131920" data-name="Grupo 131920">
                            <g id="Grupo_131919" data-name="Grupo 131919">
                              <g id="Grupo_131918" data-name="Grupo 131918">
                                <g id="Grupo_131917" data-name="Grupo 131917">
                                  <g id="Grupo_131916" data-name="Grupo 131916">
                                    <g id="Grupo_131915" data-name="Grupo 131915">
                                      <g id="Grupo_131914" data-name="Grupo 131914">
                                        <path id="Trazado_149793" data-name="Trazado 149793" d="M417.745,228.995c-2.274,3.544-7.226,9.666-14.932,11.037a53.416,53.416,0,0,0,.615-6.169c.028-.548.054-1.117.075-1.7.154.042.313.08.473.116C408.275,233.237,413.34,231.73,417.745,228.995Z" transform="translate(-402.813 -228.995)" fill="#171612"/>
                                      </g>
                                    </g>
                                  </g>
                                </g>
                              </g>
                            </g>
                          </g>
                        </g>
                      </g>
                    </g>
                    <g id="Grupo_131933" data-name="Grupo 131933" transform="translate(3.869 1.145)">
                      <g id="Grupo_131932" data-name="Grupo 131932">
                        <g id="Grupo_131931" data-name="Grupo 131931">
                          <g id="Grupo_131930" data-name="Grupo 131930">
                            <g id="Grupo_131929" data-name="Grupo 131929">
                              <g id="Grupo_131928" data-name="Grupo 131928">
                                <g id="Grupo_131927" data-name="Grupo 131927">
                                  <g id="Grupo_131926" data-name="Grupo 131926">
                                    <g id="Grupo_131925" data-name="Grupo 131925">
                                      <g id="Grupo_131924" data-name="Grupo 131924">
                                        <path id="Trazado_149794" data-name="Trazado 149794" d="M439.221,222.145c-.4,4.361-4.578,9.367-10.3,9.005h-.032l-.121-.005c-.115.242-.245.478-.378.72-.057.1-.118.21-.178.313a.127.127,0,0,1-.019.029c-4.229,7.086-15.187,10.484-20.912,10.119a13.1,13.1,0,0,1-3.8-.851c-5.934-1.866-6.32-10.15-4.8-16.317a23.925,23.925,0,0,1,.773-2.522l.061-.161s-1.232-8.931-1.359-12.79c-.243-7.478,4.684-14.606,21.036-14.606s19.323,10.422,19.976,15.864c.111.908-.552,6.193-1.517,6.966C439.112,218.833,439.354,220.679,439.221,222.145Z" transform="translate(-397.921 -195.078)" fill="#eaad8f"/>
                                      </g>
                                    </g>
                                  </g>
                                </g>
                              </g>
                            </g>
                          </g>
                        </g>
                      </g>
                    </g>
                    <g id="Grupo_131945" data-name="Grupo 131945" transform="translate(5.788 23.686)">
                      <g id="Grupo_131938" data-name="Grupo 131938" transform="translate(1.558 0.478)">
                        <g id="Grupo_131937" data-name="Grupo 131937">
                          <g id="Grupo_131936" data-name="Grupo 131936">
                            <g id="Grupo_131935" data-name="Grupo 131935">
                              <g id="Grupo_131934" data-name="Grupo 131934">
                                <path id="Trazado_149795" data-name="Trazado 149795" d="M400.659,215.443c.079,1.225.657,2.187,1.294,2.146s1.089-1.066,1.011-2.293-.656-2.186-1.293-2.145S400.581,214.217,400.659,215.443Z" transform="translate(-400.65 -213.15)" fill="#171612"/>
                              </g>
                            </g>
                          </g>
                        </g>
                      </g>
                      <g id="Grupo_131944" data-name="Grupo 131944">
                        <g id="Grupo_131943" data-name="Grupo 131943">
                          <g id="Grupo_131942" data-name="Grupo 131942">
                            <g id="Grupo_131941" data-name="Grupo 131941">
                              <g id="Grupo_131940" data-name="Grupo 131940">
                                <g id="Grupo_131939" data-name="Grupo 131939">
                                  <path id="Trazado_149796" data-name="Trazado 149796" d="M405.13,214.412a.328.328,0,0,0,.162-.118.325.325,0,0,0-.076-.453c-.121-.088-3.021-2.118-5.646-.334a.325.325,0,0,0,.366.538c2.253-1.532,4.877.306,4.9.325A.325.325,0,0,0,405.13,214.412Z" transform="translate(-399.427 -212.775)" fill="#171612"/>
                                </g>
                              </g>
                            </g>
                          </g>
                        </g>
                      </g>
                    </g>
                    <g id="Grupo_131956" data-name="Grupo 131956" transform="translate(17.117 23.185)">
                      <g id="Grupo_131949" data-name="Grupo 131949" transform="translate(0.92 0.483)">
                        <g id="Grupo_131948" data-name="Grupo 131948">
                          <g id="Grupo_131947" data-name="Grupo 131947">
                            <g id="Grupo_131946" data-name="Grupo 131946">
                              <path id="Trazado_149797" data-name="Trazado 149797" d="M409.053,215.053c.079,1.225.657,2.186,1.294,2.146s1.089-1.067,1.011-2.293-.657-2.186-1.294-2.145S408.975,213.827,409.053,215.053Z" transform="translate(-409.044 -212.76)" fill="#171612"/>
                            </g>
                          </g>
                        </g>
                      </g>
                      <g id="Grupo_131955" data-name="Grupo 131955">
                        <g id="Grupo_131954" data-name="Grupo 131954">
                          <g id="Grupo_131953" data-name="Grupo 131953">
                            <g id="Grupo_131952" data-name="Grupo 131952">
                              <g id="Grupo_131951" data-name="Grupo 131951">
                                <g id="Grupo_131950" data-name="Grupo 131950">
                                  <path id="Trazado_149798" data-name="Trazado 149798" d="M413.9,214.443a.324.324,0,0,0,.158-.557c-.111-.1-2.73-2.484-5.56-1.044a.325.325,0,1,0,.3.58c2.43-1.237,4.8.92,4.822.941A.32.32,0,0,0,413.9,214.443Z" transform="translate(-408.322 -212.381)" fill="#171612"/>
                                </g>
                              </g>
                            </g>
                          </g>
                        </g>
                      </g>
                    </g>
                    <g id="Grupo_131957" data-name="Grupo 131957" transform="translate(8.915 35.29)">
                      <path id="Trazado_149799" data-name="Trazado 149799" d="M404.642,224.989a4.8,4.8,0,0,0,.582-.017,5.621,5.621,0,0,0,3.461-2.1.615.615,0,0,0-.979-.745,4.442,4.442,0,0,1-2.593,1.619,2.178,2.178,0,0,1-2.093-.786.619.619,0,0,0-.846-.192.612.612,0,0,0-.2.837A3.266,3.266,0,0,0,404.642,224.989Z" transform="translate(-401.882 -221.885)" fill="#c6695d"/>
                    </g>
                    <g id="Grupo_131968" data-name="Grupo 131968" transform="translate(34.008 26.797)">
                      <g id="Grupo_131967" data-name="Grupo 131967">
                        <g id="Grupo_131966" data-name="Grupo 131966">
                          <g id="Grupo_131965" data-name="Grupo 131965">
                            <g id="Grupo_131964" data-name="Grupo 131964">
                              <g id="Grupo_131963" data-name="Grupo 131963">
                                <g id="Grupo_131962" data-name="Grupo 131962">
                                  <g id="Grupo_131961" data-name="Grupo 131961">
                                    <g id="Grupo_131960" data-name="Grupo 131960">
                                      <g id="Grupo_131959" data-name="Grupo 131959">
                                        <g id="Grupo_131958" data-name="Grupo 131958">
                                          <path id="Trazado_149800" data-name="Trazado 149800" d="M422.216,222.184a.594.594,0,0,0,.526-.427c1.159-4.033,6.218-5.364,6.269-5.376a.591.591,0,0,0-.29-1.146c-.234.06-5.766,1.5-7.115,6.2a.59.59,0,0,0,.4.731A.6.6,0,0,0,422.216,222.184Z" transform="translate(-421.582 -215.217)" fill="#c6695d"/>
                                        </g>
                                      </g>
                                    </g>
                                  </g>
                                </g>
                              </g>
                            </g>
                          </g>
                        </g>
                      </g>
                    </g>
                    <g id="Grupo_131979" data-name="Grupo 131979" transform="translate(36.442 29.006)">
                      <g id="Grupo_131978" data-name="Grupo 131978">
                        <g id="Grupo_131977" data-name="Grupo 131977">
                          <g id="Grupo_131976" data-name="Grupo 131976">
                            <g id="Grupo_131975" data-name="Grupo 131975">
                              <g id="Grupo_131974" data-name="Grupo 131974">
                                <g id="Grupo_131973" data-name="Grupo 131973">
                                  <g id="Grupo_131972" data-name="Grupo 131972">
                                    <g id="Grupo_131971" data-name="Grupo 131971">
                                      <g id="Grupo_131970" data-name="Grupo 131970">
                                        <g id="Grupo_131969" data-name="Grupo 131969">
                                          <path id="Trazado_149801" data-name="Trazado 149801" d="M427.021,219.884a.575.575,0,0,0,.22-.06.59.59,0,0,0,.268-.791,4.056,4.056,0,0,0-3.395-2.081.591.591,0,1,0-.059,1.181,2.875,2.875,0,0,1,2.393,1.424A.591.591,0,0,0,427.021,219.884Z" transform="translate(-423.493 -216.951)" fill="#c6695d"/>
                                        </g>
                                      </g>
                                    </g>
                                  </g>
                                </g>
                              </g>
                            </g>
                          </g>
                        </g>
                      </g>
                    </g>
                    <g id="Grupo_131989" data-name="Grupo 131989" transform="translate(4.624 28.701)" opacity="0.5">
                      <g id="Grupo_131988" data-name="Grupo 131988">
                        <g id="Grupo_131987" data-name="Grupo 131987">
                          <g id="Grupo_131986" data-name="Grupo 131986">
                            <g id="Grupo_131985" data-name="Grupo 131985">
                              <g id="Grupo_131984" data-name="Grupo 131984">
                                <g id="Grupo_131983" data-name="Grupo 131983">
                                  <g id="Grupo_131982" data-name="Grupo 131982">
                                    <g id="Grupo_131981" data-name="Grupo 131981">
                                      <g id="Grupo_131980" data-name="Grupo 131980">
                                        <path id="Trazado_149802" data-name="Trazado 149802" d="M401.946,218.285c-.071.647-1.543,1.032-3.433.949a23.933,23.933,0,0,1,.773-2.522C400.892,217.067,402.012,217.7,401.946,218.285Z" transform="translate(-398.513 -216.712)" fill="#c6695d"/>
                                      </g>
                                    </g>
                                  </g>
                                </g>
                              </g>
                            </g>
                          </g>
                        </g>
                      </g>
                    </g>
                    <g id="Grupo_131999" data-name="Grupo 131999" transform="translate(18.124 30.315)" opacity="0.5">
                      <g id="Grupo_131998" data-name="Grupo 131998">
                        <g id="Grupo_131997" data-name="Grupo 131997">
                          <g id="Grupo_131996" data-name="Grupo 131996">
                            <g id="Grupo_131995" data-name="Grupo 131995">
                              <g id="Grupo_131994" data-name="Grupo 131994">
                                <g id="Grupo_131993" data-name="Grupo 131993">
                                  <g id="Grupo_131992" data-name="Grupo 131992">
                                    <g id="Grupo_131991" data-name="Grupo 131991">
                                      <g id="Grupo_131990" data-name="Grupo 131990">
                                        <path id="Trazado_149803" data-name="Trazado 149803" d="M409.115,218.941c-.082.738,1.69,1.537,3.957,1.785s4.169-.15,4.25-.888-1.692-1.537-3.959-1.785S409.195,218.2,409.115,218.941Z" transform="translate(-409.112 -217.979)" fill="#c6695d"/>
                                      </g>
                                    </g>
                                  </g>
                                </g>
                              </g>
                            </g>
                          </g>
                        </g>
                      </g>
                    </g>
                    <g id="Grupo_132010" data-name="Grupo 132010" transform="translate(30.91 34.983)">
                      <g id="Grupo_132009" data-name="Grupo 132009">
                        <g id="Grupo_132008" data-name="Grupo 132008">
                          <g id="Grupo_132007" data-name="Grupo 132007">
                            <g id="Grupo_132006" data-name="Grupo 132006">
                              <g id="Grupo_132005" data-name="Grupo 132005">
                                <g id="Grupo_132004" data-name="Grupo 132004">
                                  <g id="Grupo_132003" data-name="Grupo 132003">
                                    <g id="Grupo_132002" data-name="Grupo 132002">
                                      <g id="Grupo_132001" data-name="Grupo 132001">
                                        <g id="Grupo_132000" data-name="Grupo 132000">
                                          <path id="Trazado_149804" data-name="Trazado 149804" d="M423.111,223.878h-.033l-.121-.006c-.115.242-.243.478-.378.72-.057.1-.117.21-.177.313-.006.01-.011.019-.019.029a5.26,5.26,0,0,1-2.125-1.074,4.178,4.178,0,0,1-1.048-1.365.592.592,0,0,1,1.065-.516,3.174,3.174,0,0,0,1.293,1.357,4.233,4.233,0,0,0,1,.415A4.861,4.861,0,0,0,423.111,223.878Z" transform="translate(-419.15 -221.644)" fill="#c6695d"/>
                                        </g>
                                      </g>
                                    </g>
                                  </g>
                                </g>
                              </g>
                            </g>
                          </g>
                        </g>
                      </g>
                    </g>
                    <g id="Grupo_132017" data-name="Grupo 132017" transform="translate(33.38 33.445)">
                      <g id="Grupo_132016" data-name="Grupo 132016">
                        <g id="Grupo_132015" data-name="Grupo 132015">
                          <g id="Grupo_132014" data-name="Grupo 132014">
                            <g id="Grupo_132013" data-name="Grupo 132013">
                              <g id="Grupo_132012" data-name="Grupo 132012">
                                <g id="Grupo_132011" data-name="Grupo 132011">
                                  <path id="Trazado_149805" data-name="Trazado 149805" d="M421.15,223.94a5.36,5.36,0,0,0,1.232.315c0,.022-.009.042-.011.062a3.056,3.056,0,1,0,3.847-2.614.857.857,0,0,1,.139-1.267,4.318,4.318,0,1,1-5.24,3.745C421.124,224.1,421.137,224.02,421.15,223.94Z" transform="translate(-421.09 -220.436)" fill="#fff"/>
                                </g>
                              </g>
                            </g>
                          </g>
                        </g>
                      </g>
                    </g>
                    <g id="Grupo_132027" data-name="Grupo 132027" transform="translate(11.473 39.936)">
                      <g id="Grupo_132026" data-name="Grupo 132026">
                        <g id="Grupo_132025" data-name="Grupo 132025">
                          <g id="Grupo_132024" data-name="Grupo 132024">
                            <g id="Grupo_132023" data-name="Grupo 132023">
                              <g id="Grupo_132022" data-name="Grupo 132022">
                                <g id="Grupo_132021" data-name="Grupo 132021">
                                  <g id="Grupo_132020" data-name="Grupo 132020">
                                    <g id="Grupo_132019" data-name="Grupo 132019">
                                      <g id="Grupo_132018" data-name="Grupo 132018">
                                        <path id="Trazado_149806" data-name="Trazado 149806" d="M405.338,226.834a2.309,2.309,0,0,0,1.388-.65.388.388,0,0,0-.567-.529,1.572,1.572,0,0,1-1.736.266.387.387,0,0,0-.293.717A2.536,2.536,0,0,0,405.338,226.834Z" transform="translate(-403.89 -225.533)" fill="#c6695d"/>
                                      </g>
                                    </g>
                                  </g>
                                </g>
                              </g>
                            </g>
                          </g>
                        </g>
                      </g>
                    </g>
                    <g id="Grupo_132028" data-name="Grupo 132028" transform="translate(2.695)">
                      <path id="Trazado_149807" data-name="Trazado 149807" d="M435.691,201.639c-3.163-3.921-7.748-7.25-13.609-7.439-8.222-.265-16.044,1.908-20.628,5.956a11.589,11.589,0,0,0-4.062,7.069c-1.214,8.46.765,6.967.765,6.967a10.728,10.728,0,0,1,.388-1.983h0c.25-1.076.662-2.725,1.346-5.249,1.632-6.022,21.181-4.959,19.561-1.125a6.979,6.979,0,0,0-.12,1.251,8.45,8.45,0,0,0,.523,3.137c.154.037.3.078.439.115a17.68,17.68,0,0,1,4.742,2.038l.005.006c.157.136,2.912,2.556,2.207,5.618-.72,3.154-2.272,7.216-.031,6.623a5.448,5.448,0,0,0,3.2-3.122l0,0a10.187,10.187,0,0,1,5.021-3.126C436.684,212.837,437.4,207.138,435.691,201.639Z" transform="translate(-396.999 -194.179)" fill="#e59f3f"/>
                    </g>
                    <g id="Grupo_132029" data-name="Grupo 132029" transform="translate(25.031 10.282)">
                      <path id="Trazado_149808" data-name="Trazado 149808" d="M431.7,203.163c-5.652-2.531-15.427.931-17.162,1.714a8.451,8.451,0,0,0,.523,3.137c.154.037.3.078.439.115a17.678,17.678,0,0,1,4.742,2.038l.005.006c.157.136,2.912,2.556,2.207,5.618-.72,3.154-5.271,19.911-2.221,22.866,6.185,6,6.268-19.306,6.268-19.306h0c1.281-1.321,1.965-2.679,4.15-3.187C433.264,211.854,432.869,207.474,431.7,203.163Z" transform="translate(-414.534 -202.252)" fill="#e59f3f"/>
                    </g>
                    <g id="Grupo_132030" data-name="Grupo 132030" transform="translate(40.38 4.84)">
                      <path id="Trazado_149809" data-name="Trazado 149809" d="M427.122,203.878s3.063,5.4.229,13.457c0,0,2.885-.453,4.178.155s3.135-4.16,2.2-8.793-6.816-10.718-6.816-10.718S426.052,202.287,427.122,203.878Z" transform="translate(-426.585 -197.979)" fill="#e59f3f"/>
                    </g>
                    <g id="Grupo_132041" data-name="Grupo 132041" transform="translate(9.11 25.171)">
                      <g id="Grupo_132040" data-name="Grupo 132040">
                        <g id="Grupo_132039" data-name="Grupo 132039">
                          <g id="Grupo_132038" data-name="Grupo 132038">
                            <g id="Grupo_132037" data-name="Grupo 132037">
                              <g id="Grupo_132036" data-name="Grupo 132036">
                                <g id="Grupo_132035" data-name="Grupo 132035">
                                  <g id="Grupo_132034" data-name="Grupo 132034">
                                    <g id="Grupo_132033" data-name="Grupo 132033">
                                      <g id="Grupo_132032" data-name="Grupo 132032">
                                        <g id="Grupo_132031" data-name="Grupo 132031">
                                          <path id="Trazado_149810" data-name="Trazado 149810" d="M404.61,221.44a.494.494,0,0,1-.262-.09l-2.1-1.5a.495.495,0,0,1,.075-.851,7.15,7.15,0,0,0,3.786-4.706.5.5,0,0,1,.946.3,8.26,8.26,0,0,1-3.582,4.915l1.456,1.038a.5.5,0,0,1-.315.9Z" transform="translate(-402.036 -213.941)" fill="#c6695d"/>
                                        </g>
                                      </g>
                                    </g>
                                  </g>
                                </g>
                              </g>
                            </g>
                          </g>
                        </g>
                      </g>
                    </g>
                    <g id="Grupo_132050" data-name="Grupo 132050" transform="translate(16.304 17.223)">
                      <g id="Grupo_132049" data-name="Grupo 132049">
                        <g id="Grupo_132048" data-name="Grupo 132048">
                          <g id="Grupo_132047" data-name="Grupo 132047">
                            <g id="Grupo_132046" data-name="Grupo 132046">
                              <g id="Grupo_132045" data-name="Grupo 132045">
                                <g id="Grupo_132044" data-name="Grupo 132044">
                                  <g id="Grupo_132043" data-name="Grupo 132043">
                                    <g id="Grupo_132042" data-name="Grupo 132042">
                                      <path id="Trazado_149811" data-name="Trazado 149811" d="M409.522,210.883a1.205,1.205,0,0,1-1.577-1.764,3.5,3.5,0,0,1,2.117-1.239,8.742,8.742,0,0,1,7.5,2.071s-4.624-.413-6.813.36A6.827,6.827,0,0,0,409.522,210.883Z" transform="translate(-407.683 -207.701)" fill="#171612"/>
                                    </g>
                                  </g>
                                </g>
                              </g>
                            </g>
                          </g>
                        </g>
                      </g>
                    </g>
                    <g id="Grupo_132051" data-name="Grupo 132051" transform="translate(4.266 17.656)">
                      <path id="Trazado_149812" data-name="Trazado 149812" d="M404.807,211.126a1.2,1.2,0,0,0,1.486-1.841,3.5,3.5,0,0,0-2.174-1.132c-4.491-.708-5.887,2.162-5.887,2.162a15.989,15.989,0,0,1,5.324.3A6.808,6.808,0,0,1,404.807,211.126Z" transform="translate(-398.232 -208.041)" fill="#171612"/>
                    </g>
                  </g>
                </g>
              </g>
            </g>
            <g id="Grupo_132061" data-name="Grupo 132061" transform="translate(0.238 23.522)">
              <g id="Grupo_132056" data-name="Grupo 132056" transform="translate(0.358 0.093)" opacity="0.6">
                <path id="Trazado_149813" data-name="Trazado 149813" d="M395.353,216.639c-.084,2.281,2.425,4.226,5.606,4.343s5.829-1.634,5.914-3.914-2.425-4.226-5.607-4.343S395.439,214.359,395.353,216.639Z" transform="translate(-395.351 -212.72)" fill="#fff"/>
              </g>
              <g id="Grupo_132057" data-name="Grupo 132057" transform="translate(13.606)" opacity="0.6">
                <path id="Trazado_149814" data-name="Trazado 149814" d="M405.754,216.9c-.092,2.474,2.629,4.582,6.077,4.709s6.319-1.772,6.411-4.244-2.629-4.58-6.077-4.709S405.846,214.424,405.754,216.9Z" transform="translate(-405.752 -212.646)" fill="#fff"/>
              </g>
              <g id="Grupo_132058" data-name="Grupo 132058" transform="translate(11.011 3.279)">
                <path id="Trazado_149815" data-name="Trazado 149815" d="M404.063,216.469a.352.352,0,0,0,.24-.08,1.5,1.5,0,0,1,2.186.055.36.36,0,1,0,.546-.47,2.207,2.207,0,0,0-3.186-.145.361.361,0,0,0,.214.641Z" transform="translate(-403.715 -215.221)" fill="#fff"/>
              </g>
              <g id="Grupo_132059" data-name="Grupo 132059" transform="translate(25.02 1.316)">
                <path id="Trazado_149816" data-name="Trazado 149816" d="M415.061,216.5a.355.355,0,0,0,.191-.047,18.5,18.5,0,0,1,8.631-2.047.361.361,0,1,0,.027-.721,18.91,18.91,0,0,0-9.014,2.141.361.361,0,0,0,.166.674Z" transform="translate(-414.713 -213.679)" fill="#fff"/>
              </g>
              <g id="Grupo_132060" data-name="Grupo 132060" transform="translate(0 2.258)">
                <path id="Trazado_149817" data-name="Trazado 149817" d="M395.417,216.535a.358.358,0,0,0,.29-.129c.755-.9,3.112-1.219,3.956-1.266a.361.361,0,0,0-.039-.721c-.138.009-3.361.2-4.47,1.523a.361.361,0,0,0,.262.592Z" transform="translate(-395.07 -214.419)" fill="#fff"/>
              </g>
            </g>
          </g>
          <g id="Grupo_132066" data-name="Grupo 132066" transform="translate(43.029 55.209)">
            <path id="Trazado_149818" data-name="Trazado 149818" d="M426.381,233.439s6.372,1.822,7.848,11.389c0,0,11.431,3.868,14.448,6.457s6.641,5.356,6.244,9.415c-1.289,13.209-22.14,41.807-24.46,49.634s9.133,39.02,9.133,39.02c-9.984,10.042-26.526,11.74-41.086,8.072,0,0,6.032-78.713,12.193-90.942S422.561,245.129,426.381,233.439Z" transform="translate(-398.508 -233.439)" fill="#314fa5"/>
            <g id="Grupo_132063" data-name="Grupo 132063" transform="translate(17.433 11.422)">
              <path id="Trazado_149819" data-name="Trazado 149819" d="M431,243.211a28.451,28.451,0,0,1-18.079,20.743c-.751.271-1.029-.941-.285-1.21a27.217,27.217,0,0,0,17.181-19.907c.162-.781,1.345-.4,1.183.374Z" transform="translate(-412.195 -242.407)" fill="#1c2b74"/>
            </g>
            <g id="Grupo_132064" data-name="Grupo 132064" transform="translate(8.764 31.833)">
              <path id="Trazado_149820" data-name="Trazado 149820" d="M416.687,259.221a205.6,205.6,0,0,0-10.064,65.906q.088,9.7,1.065,19.354c.079.786-1.13,1.079-1.209.287a211.851,211.851,0,0,1,3.844-67.081q2.121-9.543,5.179-18.84a.622.622,0,0,1,1.185.375Z" transform="translate(-405.388 -258.431)" fill="#1c2b74"/>
            </g>
            <g id="Grupo_132065" data-name="Grupo 132065" transform="translate(0.606 109.96)">
              <path id="Trazado_149821" data-name="Trazado 149821" d="M437.595,321a51.206,51.206,0,0,1-38.167,7.539c-.8-.159-.415-1.377.385-1.219a49.939,49.939,0,0,0,37.179-7.448c.685-.457,1.283.674.6,1.127Z" transform="translate(-398.984 -319.768)" fill="#1c2b74"/>
            </g>
          </g>
          <g id="Grupo_132071" data-name="Grupo 132071" transform="translate(0 56.518)">
            <path id="Trazado_149822" data-name="Trazado 149822" d="M413.907,234.467s-2.127,13.284-3.659,21.9C408.6,265.6,396.9,291.682,395,309.056s-7.028,41.619-7.028,41.619-14.253-1.544-23.241-11.278c0,0,13.369-26.03,16.253-36.559s-4.284-24.425-2.15-30.208,8.188-7.77,8.874-13-1.461-13.638,2.564-16.017,14.694-1.317,16.105-2.395C406.372,241.217,409.8,234.787,413.907,234.467Z" transform="translate(-364.726 -234.467)" fill="#314fa5"/>
            <g id="Grupo_132067" data-name="Grupo 132067" transform="translate(12.182 17.209)">
              <path id="Trazado_149823" data-name="Trazado 149823" d="M384.8,248.432a46.389,46.389,0,0,1-1.455,7.686,28.227,28.227,0,0,1-3.784,7.192c-2.844,4.364-4.736,8.646-3.573,13.928.6,2.731,1.655,5.336,2.242,8.07a34.521,34.521,0,0,1,.736,8.37,35.323,35.323,0,0,1-4.611,16.309.477.477,0,0,0,.824.482,36.4,36.4,0,0,0,4.635-14.923c.485-5.742-.731-10.92-2.332-16.379-.886-3.023-1.35-6.012-.38-9.078a30.468,30.468,0,0,1,4-7.392,24.08,24.08,0,0,0,3.3-6.82,50.8,50.8,0,0,0,1.344-7.445c.078-.608-.878-.6-.955,0Z" transform="translate(-374.29 -247.978)" fill="#1c2b74"/>
            </g>
            <g id="Grupo_132068" data-name="Grupo 132068" transform="translate(39.981 8.611)">
              <path id="Trazado_149824" data-name="Trazado 149824" d="M397.749,241.843c-.72,5.486-.674,11.591,1.992,16.583a.622.622,0,0,1-1.1.587c-2.767-5.183-2.885-11.516-2.139-17.216.1-.786,1.345-.748,1.242.046Z" transform="translate(-396.115 -241.228)" fill="#1c2b74"/>
            </g>
            <g id="Grupo_132069" data-name="Grupo 132069" transform="translate(20.278 22.609)">
              <path id="Trazado_149825" data-name="Trazado 149825" d="M402.794,253a360.81,360.81,0,0,0-18.608,72.5c-.828,5.556-1.564,11.126-2.293,16.7-.1.786-1.345.748-1.241-.046,2.921-22.321,6.616-44.4,13.061-66.01,2.364-7.926,5.02-15.764,7.9-23.518.276-.746,1.464-.378,1.185.374Z" transform="translate(-380.646 -252.218)" fill="#1c2b74"/>
            </g>
            <g id="Grupo_132070" data-name="Grupo 132070" transform="translate(2.087 101.619)">
              <path id="Trazado_149826" data-name="Trazado 149826" d="M387.392,326.625a50.343,50.343,0,0,1-20.836-11.362c-.592-.538.322-1.379.911-.845a49.028,49.028,0,0,0,20.3,11.022c.771.208.4,1.392-.374,1.185Z" transform="translate(-366.364 -314.248)" fill="#1c2b74"/>
            </g>
          </g>
        </g>
        <g id="Grupo_132112" data-name="Grupo 132112" transform="translate(105.963 259.654)">
          <g id="Grupo_132077" data-name="Grupo 132077" transform="translate(24.632 61.595)">
            <g id="Grupo_132076" data-name="Grupo 132076" transform="translate(0 0)">
              <g id="Grupo_132075" data-name="Grupo 132075" transform="translate(0)">
                <g id="Grupo_132074" data-name="Grupo 132074">
                  <g id="Grupo_132073" data-name="Grupo 132073">
                    <rect id="Rectángulo_35428" data-name="Rectángulo 35428" width="10.802" height="82.888" rx="0.225" transform="matrix(0.097, -0.995, 0.995, 0.097, 0, 10.751)" fill="#5a554d"/>
                  </g>
                </g>
              </g>
            </g>
          </g>
          <g id="Grupo_132082" data-name="Grupo 132082">
            <g id="Grupo_132081" data-name="Grupo 132081">
              <g id="Grupo_132080" data-name="Grupo 132080">
                <g id="Grupo_132079" data-name="Grupo 132079">
                  <g id="Grupo_132078" data-name="Grupo 132078">
                    <path id="Trazado_149827" data-name="Trazado 149827" d="M319.4,335.983a6.888,6.888,0,0,1-6.129-5.731l-9.815-59.278a5.588,5.588,0,0,1,6.053-6.474l36.938,3.589a5.587,5.587,0,0,1,4.96,4.577l12.092,67.6Z" transform="translate(-303.38 -264.473)" fill="#171612"/>
                  </g>
                </g>
              </g>
            </g>
          </g>
          <g id="Grupo_132102" data-name="Grupo 132102" transform="translate(19.656 30.27)">
            <g id="Grupo_132085" data-name="Grupo 132085">
              <g id="Grupo_132084" data-name="Grupo 132084">
                <g id="Grupo_132083" data-name="Grupo 132083">
                  <path id="Trazado_149828" data-name="Trazado 149828" d="M319,294.7c.852,3.871,4.355,7.263,7.823,7.576s5.589-2.572,4.737-6.444-4.355-7.263-7.823-7.576S318.147,290.833,319,294.7Z" transform="translate(-318.811 -288.238)" fill="#e59f3f"/>
                </g>
              </g>
            </g>
            <g id="Grupo_132095" data-name="Grupo 132095" transform="translate(3.853 4.137)">
              <g id="Grupo_132091" data-name="Grupo 132091" transform="translate(3.276 0.295)">
                <g id="Grupo_132090" data-name="Grupo 132090">
                  <g id="Grupo_132089" data-name="Grupo 132089">
                    <g id="Grupo_132088" data-name="Grupo 132088">
                      <g id="Grupo_132087" data-name="Grupo 132087">
                        <g id="Grupo_132086" data-name="Grupo 132086">
                          <path id="Trazado_149829" data-name="Trazado 149829" d="M324.489,293.071c.171.774.554,1.424.855,1.452s.409-.58.238-1.353-.554-1.425-.855-1.452S324.319,292.3,324.489,293.071Z" transform="translate(-324.408 -291.717)" fill="#171612"/>
                        </g>
                      </g>
                    </g>
                  </g>
                </g>
              </g>
              <g id="Grupo_132094" data-name="Grupo 132094">
                <g id="Grupo_132093" data-name="Grupo 132093">
                  <g id="Grupo_132092" data-name="Grupo 132092">
                    <path id="Trazado_149830" data-name="Trazado 149830" d="M321.918,292.839c.171.774.553,1.424.855,1.452s.408-.579.237-1.354-.553-1.424-.855-1.451S321.747,292.064,321.918,292.839Z" transform="translate(-321.836 -291.485)" fill="#171612"/>
                  </g>
                </g>
              </g>
            </g>
            <g id="Grupo_132101" data-name="Grupo 132101" transform="translate(3.142 6.752)">
              <g id="Grupo_132100" data-name="Grupo 132100">
                <g id="Grupo_132099" data-name="Grupo 132099">
                  <g id="Grupo_132098" data-name="Grupo 132098">
                    <g id="Grupo_132097" data-name="Grupo 132097">
                      <g id="Grupo_132096" data-name="Grupo 132096">
                        <path id="Trazado_149831" data-name="Trazado 149831" d="M325.3,297.229c2.7.243,2.656-2.714,2.654-2.745a.438.438,0,0,0-.289-.381.2.2,0,0,0-.273.2c0,.108.027,2.517-2.228,2.313s-3.312-2.709-3.356-2.816a.391.391,0,0,0-.376-.261c-.139.023-.2.176-.129.343C321.319,293.916,322.6,296.985,325.3,297.229Z" transform="translate(-321.278 -293.539)" fill="#171612"/>
                      </g>
                    </g>
                  </g>
                </g>
              </g>
            </g>
          </g>
          <g id="Grupo_132111" data-name="Grupo 132111" transform="translate(43.068 3.614)">
            <g id="Grupo_132106" data-name="Grupo 132106">
              <g id="Grupo_132105" data-name="Grupo 132105">
                <g id="Grupo_132104" data-name="Grupo 132104">
                  <g id="Grupo_132103" data-name="Grupo 132103">
                    <path id="Trazado_149832" data-name="Trazado 149832" d="M342.154,271.892l11.99,67.042,4.221.41L346.374,272.3a5.593,5.593,0,0,0-4.961-4.58l-4.221-.41A5.6,5.6,0,0,1,342.154,271.892Z" transform="translate(-337.192 -267.31)" fill="#171612"/>
                  </g>
                </g>
              </g>
            </g>
            <g id="Grupo_132110" data-name="Grupo 132110" transform="translate(4.092 3.042)">
              <g id="Grupo_132109" data-name="Grupo 132109">
                <g id="Grupo_132108" data-name="Grupo 132108">
                  <g id="Grupo_132107" data-name="Grupo 132107">
                    <path id="Trazado_149833" data-name="Trazado 149833" d="M352.883,337.84a.682.682,0,0,0,.112-.01.624.624,0,0,0,.5-.722l-11.858-66.9a.623.623,0,0,0-1.227.217l11.858,66.9A.623.623,0,0,0,352.883,337.84Z" transform="translate(-340.404 -269.698)" fill="#5a554d"/>
                  </g>
                </g>
              </g>
            </g>
          </g>
        </g>
        <g id="Grupo_132120" data-name="Grupo 132120" transform="translate(166.302 236.448)">
          <g id="Grupo_132117" data-name="Grupo 132117">
            <path id="Trazado_149834" data-name="Trazado 149834" d="M465.83,261.818l-.32,1.083-.316,1.034-.638,2.047c-.433,1.358-.888,2.7-1.339,4.049-.9,2.694-1.864,5.362-2.854,8.025-1.991,5.323-4.131,10.606-6.471,15.863s-4.873,10.484-7.8,15.712c-1.461,2.616-3.019,5.236-4.794,7.877-.888,1.323-1.825,2.653-2.854,4a52.885,52.885,0,0,1-3.5,4.115A32.707,32.707,0,0,1,429.93,330c-.269.194-.526.357-.785.518s-.522.326-.78.479l-.751.42-.378.206-.364.185-.729.362c-.245.12-.473.217-.711.325s-.474.214-.7.311l-.687.278a51.859,51.859,0,0,1-10.057,2.759c-3.154.579-6.2.912-9.2,1.167-3,.229-5.939.372-8.86.411-5.836.1-11.573-.116-17.268-.535-2.847-.213-5.681-.476-8.51-.808q-2.121-.256-4.24-.536l-2.123-.315-1.067-.164-1.1-.185a7.384,7.384,0,0,1,.549-14.637l.2-.017,8.035-.72c2.7-.248,5.388-.5,8.065-.774,5.355-.545,10.669-1.159,15.85-1.921,2.586-.4,5.145-.8,7.625-1.3,2.484-.469,4.894-1.041,7.133-1.661,1.117-.315,2.188-.653,3.169-1.015a23.1,23.1,0,0,0,2.591-1.1l.264-.135c.084-.046.153-.09.232-.135s.159-.085.22-.129l.187-.122.093-.059.069-.055c.046-.037.093-.071.141-.1l.089-.085c.032-.027.064-.052.069-.07.084-.113.56-.578,1.069-1.219s1.108-1.453,1.7-2.339,1.2-1.848,1.8-2.854,1.185-2.066,1.772-3.146,1.168-2.188,1.737-3.318c2.277-4.526,4.452-9.31,6.541-14.172s4.129-9.818,6.128-14.8l2.983-7.488,2.923-7.411.06-.155a12.134,12.134,0,0,1,22.928,7.878Z" transform="translate(-349.466 -246.254)" fill="#314fa5"/>
            <g id="Grupo_132113" data-name="Grupo 132113" transform="translate(31.397 72.066)">
              <path id="Trazado_149835" data-name="Trazado 149835" d="M375.434,303.409a37.988,37.988,0,0,1,2.088,19.377c-.093.6.827.861.921.255a38.919,38.919,0,0,0-2.088-19.885c-.218-.569-1.141-.322-.921.253Z" transform="translate(-375.4 -302.833)" fill="#1c2b74"/>
            </g>
            <g id="Grupo_132116" data-name="Grupo 132116" transform="translate(66.667 63.105)">
              <g id="Grupo_132114" data-name="Grupo 132114" transform="translate(0.244 0.439)">
                <path id="Trazado_149836" data-name="Trazado 149836" d="M409.673,302.848a15.543,15.543,0,0,0-5.687-6.629c-.52-.331-1,.5-.482.825a14.653,14.653,0,0,1,5.343,6.286c.267.553,1.09.07.825-.483Z" transform="translate(-403.282 -296.143)" fill="#1c2b74"/>
              </g>
              <g id="Grupo_132115" data-name="Grupo 132115">
                <path id="Trazado_149837" data-name="Trazado 149837" d="M403.686,297.028a7.68,7.68,0,0,1,5.509.494c.547.28,1.029-.544.483-.825a8.741,8.741,0,0,0-6.245-.59c-.6.138-.345,1.059.253.921Z" transform="translate(-403.091 -295.798)" fill="#1c2b74"/>
              </g>
            </g>
            <path id="Trazado_149838" data-name="Trazado 149838" d="M374.128,306.366s-9.579-3.378-15.743-2.653-7.633,3.206-7.633,3.206l1.979,11.991,22.713,2.522A18.334,18.334,0,0,0,374.128,306.366Z" transform="translate(-350.751 -230.554)" fill="#eaad8f"/>
          </g>
          <g id="Grupo_132118" data-name="Grupo 132118" transform="translate(66.64 21.894)">
            <path id="Trazado_149839" data-name="Trazado 149839" d="M424.555,263.759q-4.752,11.316-10.368,22.252a178.128,178.128,0,0,1-11.034,19.172c-.348.509.48.988.824.483a179.549,179.549,0,0,0,11.276-19.646q5.508-10.812,10.224-22.008c.237-.566-.687-.813-.922-.253Z" transform="translate(-403.069 -263.443)" fill="#1c2b74"/>
          </g>
          <g id="Grupo_132119" data-name="Grupo 132119" transform="translate(62.121 69.403)">
            <path id="Trazado_149840" data-name="Trazado 149840" d="M399.983,321.371c12.7-.588,25.3-8.5,31.046-19.906.276-.546-.548-1.032-.824-.481-5.6,11.106-17.841,18.859-30.222,19.432-.613.028-.616.983,0,.955Z" transform="translate(-399.522 -300.742)" fill="#1c2b74"/>
          </g>
        </g>
      </g>
    </g>
  </g>
</svg>
