<svg xmlns="http://www.w3.org/2000/svg" width="260.218" height="801.914" viewBox="0 0 260.218 801.914">
  <g id="img4" transform="translate(-199 -3595)">
    <g id="Grupo_132444" data-name="Grupo 132444" transform="translate(64.946 3513.75)">
      <g id="Grupo_132150" data-name="Grupo 132150" transform="translate(241.548 138.251)">
        <g id="Grupo_132128" data-name="Grupo 132128" transform="translate(0 42.06)">
          <path id="Trazado_149841" data-name="Trazado 149841" d="M267.906,220.011c-.341.093-.681.177-1.022.253-9.683,2.179-18.969-3.313-27.565-9.571a279.17,279.17,0,0,1-21.993-18.32c-14.243-12.907-26.947-25.883-27.483-26.429A16.769,16.769,0,0,1,213.826,142.5c.152.154,10.471,10.69,22.453,21.759,13.075,12.077,20.779,18,24.964,20.857,3.251-3.346,8.949-10.178,17.667-23.732,8.109-12.608,14.445-24.242,14.508-24.358a16.768,16.768,0,1,1,29.468,16.011c-.32.592-7.991,14.671-17.654,29.39a211.635,211.635,0,0,1-16.089,21.844C281.371,213.257,274.773,218.161,267.906,220.011Zm-10.081-31.876Z" transform="translate(-185.066 -128.26)" fill="#314fa5"/>
        </g>
        <g id="Grupo_132129" data-name="Grupo 132129" transform="translate(105.696 54.911)">
          <path id="Trazado_149842" data-name="Trazado 149842" d="M235.284,135.306a28.192,28.192,0,0,0,27.8,17.756c1.011-.048,1.018-1.629,0-1.58a26.6,26.6,0,0,1-26.279-16.594c-.373-.933-1.9-.527-1.524.419Z" transform="translate(-235.225 -134.358)" fill="#1c2b74"/>
        </g>
        <g id="Grupo_132145" data-name="Grupo 132145" transform="translate(110.976)">
          <g id="Grupo_132130" data-name="Grupo 132130">
            <path id="Trazado_149843" data-name="Trazado 149843" d="M275.9,156.509s-5.858,13.619-14.77,14.978c-11.982,1.827-19.047-9.076-19.047-9.076-3.888-6.56-4.084-10.083-4.347-16.919s11.156-11.876,11.156-11.876,12.9-24.073,17.351-25.272-5.053,22.7-5.053,22.7a4.387,4.387,0,0,1,4.2-.145c3.361,1.488,10.684,7.963,13.446,12.751C281.3,147.939,275.9,156.509,275.9,156.509Z" transform="translate(-237.73 -108.3)" fill="#eaad8f"/>
          </g>
          <g id="Grupo_132132" data-name="Grupo 132132" transform="translate(2.182 26.484)">
            <g id="Grupo_132131" data-name="Grupo 132131">
              <path id="Trazado_149844" data-name="Trazado 149844" d="M239.761,135.235c5.285-1.132,12.1-2.063,16.209-5.915,1.551-1.452,2.967-3.976,1.608-6.006-1.193-1.783-3.764-2.015-5.671-2.425-.984-.213-1.365,1.309-.377,1.524,1.6.341,4.663.533,5.028,2.579.276,1.547-1.568,3.235-2.714,4.021a16.788,16.788,0,0,1-3.174,1.616,67.195,67.195,0,0,1-11.352,3.1c-.986.213-.539,1.715.443,1.5Z" transform="translate(-238.765 -120.868)" fill="#c6695d"/>
            </g>
          </g>
          <g id="Grupo_132134" data-name="Grupo 132134" transform="translate(19.528 32.27)">
            <g id="Grupo_132133" data-name="Grupo 132133">
              <path id="Trazado_149845" data-name="Trazado 149845" d="M247.155,124.749a42.357,42.357,0,0,0,17.212,13.3c.921.388,1.7-.976.767-1.368A40.881,40.881,0,0,1,248.5,123.94c-.611-.792-1.96.011-1.342.809Z" transform="translate(-246.997 -123.614)" fill="#c6695d"/>
            </g>
          </g>
          <g id="Grupo_132136" data-name="Grupo 132136" transform="translate(16.391 41.759)">
            <g id="Grupo_132135" data-name="Grupo 132135">
              <path id="Trazado_149846" data-name="Trazado 149846" d="M252.354,128.308a18.06,18.06,0,0,0-6.747,16.257c.1,1,1.665.967,1.568-.042a16.65,16.65,0,0,1,6.3-15.122c.78-.641-.354-1.726-1.125-1.094Z" transform="translate(-245.508 -128.117)" fill="#c6695d"/>
            </g>
          </g>
          <g id="Grupo_132138" data-name="Grupo 132138" transform="translate(22.17 24.392)">
            <g id="Grupo_132137" data-name="Grupo 132137">
              <path id="Trazado_149847" data-name="Trazado 149847" d="M249.716,131.241c1.928-3.641,3.983-7.371,7.165-10.073.771-.655-.362-1.743-1.125-1.094-3.277,2.782-5.422,6.65-7.407,10.4-.472.891.9,1.661,1.368.767Z" transform="translate(-248.251 -119.875)" fill="#c6695d"/>
            </g>
          </g>
          <g id="Grupo_132140" data-name="Grupo 132140" transform="translate(26.951 29.112)">
            <g id="Grupo_132139" data-name="Grupo 132139">
              <path id="Trazado_149848" data-name="Trazado 149848" d="M251.97,133.86a40.742,40.742,0,0,1,7.243-10.408c.7-.735-.43-1.827-1.123-1.094a42.219,42.219,0,0,0-7.487,10.732c-.432.908.934,1.679,1.368.769Z" transform="translate(-250.519 -122.116)" fill="#c6695d"/>
            </g>
          </g>
          <g id="Grupo_132142" data-name="Grupo 132142" transform="translate(33.461 34.867)">
            <g id="Grupo_132141" data-name="Grupo 132141">
              <path id="Trazado_149849" data-name="Trazado 149849" d="M253.9,133.237l-.209.322q.686.382,1.368.767a21.555,21.555,0,0,1,5.81-8.182c.761-.666-.369-1.753-1.125-1.092a22.467,22.467,0,0,0-6.052,8.507.785.785,0,0,0,1.368.767l.209-.322c.55-.849-.822-1.61-1.368-.767Z" transform="translate(-253.609 -124.846)" fill="#c6695d"/>
            </g>
          </g>
          <g id="Grupo_132144" data-name="Grupo 132144" transform="translate(19.308 22.71)">
            <g id="Grupo_132143" data-name="Grupo 132143">
              <path id="Trazado_149850" data-name="Trazado 149850" d="M249.73,119.431a18.828,18.828,0,0,0-2.807,5.8.785.785,0,0,0,1.524.377A17.533,17.533,0,0,1,251.1,120.2c.575-.83-.8-1.589-1.368-.767Z" transform="translate(-246.893 -119.077)" fill="#c6695d"/>
            </g>
          </g>
        </g>
        <g id="Grupo_132147" data-name="Grupo 132147" transform="translate(73.475 99.013)">
          <g id="Grupo_132146" data-name="Grupo 132146">
            <path id="Trazado_149851" data-name="Trazado 149851" d="M223.059,155.565a17.127,17.127,0,0,0-3.032,11.672c.082.788,1.323.8,1.243.006a16.11,16.11,0,0,1,2.866-11.059c.459-.657-.62-1.271-1.077-.619Z" transform="translate(-219.934 -155.287)" fill="#1c2b74"/>
          </g>
        </g>
        <g id="Grupo_132149" data-name="Grupo 132149" transform="translate(70.043 102.23)">
          <g id="Grupo_132148" data-name="Grupo 132148">
            <path id="Trazado_149852" data-name="Trazado 149852" d="M223.143,156.835a6.8,6.8,0,0,0-4.8,4.366c-.272.752.929,1.073,1.2.327a5.512,5.512,0,0,1,3.922-3.492.622.622,0,0,0-.322-1.2Z" transform="translate(-218.305 -156.814)" fill="#1c2b74"/>
          </g>
        </g>
      </g>
      <g id="Grupo_132159" data-name="Grupo 132159" transform="translate(166.241 492.621)">
        <path id="Trazado_149853" data-name="Trazado 149853" d="M218.163,317.626c-.662,11.784-1.728,25.79-3.243,41.626-.782,8.115-1.677,16.708-2.7,25.727,0,0,3.669,25.668-2.44,67.227-4.368,29.7-16.118,117.58-18.99,140.818-6.17,6.629-9.632,4.52-18.314-4.065-1.549-14.47-7.527-51.926-9.552-73.6-2.851-30.557-15.889-98.6,0-125.079-2.225-11.183-4.314-21.639-6.155-31.385-3.024-16-5.378-30.087-6.572-42.3-1.652-16.856-1.1-30.144,2.952-39.987l62.741,1.22C218.869,271.585,219.874,287.166,218.163,317.626Z" transform="translate(-149.328 -276.468)" fill="#eaad8f"/>
        <g id="Grupo_132157" data-name="Grupo 132157" transform="translate(12.712 299.435)">
          <g id="Grupo_132152" data-name="Grupo 132152" transform="translate(0 17.121)">
            <g id="Grupo_132151" data-name="Grupo 132151">
              <path id="Trazado_149854" data-name="Trazado 149854" d="M164.323,426.692s-8.507,3.466-8.823,15.442,0,42.855,0,42.855h4.343L162.2,474.1s1.5,11.836,7.483,19.4,18.908,7.879,27.415,6.619,2.206-17.016-1.26-25.839-10.717-29.935-10.717-29.935Z" transform="translate(-155.361 -426.692)" fill="#171612"/>
            </g>
          </g>
          <g id="Grupo_132156" data-name="Grupo 132156" transform="translate(4.62)">
            <g id="Grupo_132155" data-name="Grupo 132155">
              <g id="Grupo_132154" data-name="Grupo 132154">
                <g id="Grupo_132153" data-name="Grupo 132153">
                  <path id="Trazado_149855" data-name="Trazado 149855" d="M164.146,418.567s.272,14.6-2.251,17.121-5.987,10.713-3.466,20.8,4.2,24.79,10.085,31.09,21.216,6.513,22.478,1.471-7.774-23.738-8.193-33.4-2.1-35.713-2.1-35.713Z" transform="translate(-157.553 -418.567)" fill="#eaad8f"/>
                </g>
              </g>
            </g>
          </g>
        </g>
        <path id="Trazado_149856" data-name="Trazado 149856" d="M215.048,331.882c1.207-13.273,2.084-25.144,2.657-35.34l-67.965-1.031c.965,9.856,2.685,20.935,4.9,33.256C161.908,331.288,197.162,333.342,215.048,331.882Z" transform="translate(-148.871 -255.383)" fill="#c6695d"/>
        <g id="Grupo_132158" data-name="Grupo 132158" transform="translate(40.44 110.658)">
          <path id="Trazado_149857" data-name="Trazado 149857" d="M169.058,330.557a34.393,34.393,0,0,0,20.428,1.005.791.791,0,0,0-.419-1.523,32.891,32.891,0,0,1-19.589-1.005c-.957-.35-1.37,1.178-.419,1.523Z" transform="translate(-168.519 -328.981)" fill="#c6695d"/>
        </g>
      </g>
      <g id="Grupo_132170" data-name="Grupo 132170" transform="translate(236.166 488.279)">
        <path id="Trazado_149858" data-name="Trazado 149858" d="M249.312,396.225c-5.616,43.413-11.643,173.457-12.587,194.342-5.8,4.482-12.157,5.041-19.068,0-1.458-6.016-10.608-44.176-13.975-69.263-3.667-27.295-18.742-78.634-2.853-105.113-5.761-19.235-11.295-36.28-14.746-55.578a229.7,229.7,0,0,1-3.57-40.689,326.6,326.6,0,0,1,2.75-41.443l58.261-4.073s3.249,20.35,5.481,46.521c.653,7.689,1.22,15.876,1.591,24.2C251.381,362.716,251.293,380.908,249.312,396.225Z" transform="translate(-182.512 -274.408)" fill="#eaad8f"/>
        <g id="Grupo_132168" data-name="Grupo 132168" transform="translate(26.035 304.881)">
          <g id="Grupo_132163" data-name="Grupo 132163" transform="translate(0 19.572)">
            <g id="Grupo_132162" data-name="Grupo 132162">
              <g id="Grupo_132161" data-name="Grupo 132161">
                <g id="Grupo_132160" data-name="Grupo 132160">
                  <path id="Trazado_149859" data-name="Trazado 149859" d="M243.793,471.038c-4.179-6.739-41.628-42.659-41.628-42.659s-7.656,6-7.285,12.61c.354,6.29.088,39.41.181,42.9H199.6l2.56-15.111s10.355,16.565,18.126,22.238,34.04,4.653,40.343,3.812S247.97,477.775,243.793,471.038Z" transform="translate(-194.867 -428.379)" fill="#171612"/>
                </g>
              </g>
            </g>
          </g>
          <g id="Grupo_132167" data-name="Grupo 132167" transform="translate(6.853)">
            <g id="Grupo_132166" data-name="Grupo 132166">
              <g id="Grupo_132165" data-name="Grupo 132165">
                <g id="Grupo_132164" data-name="Grupo 132164">
                  <path id="Trazado_149860" data-name="Trazado 149860" d="M198.45,420.836l.6,16.211s-2.1,4.832,0,11.973S209.106,467.5,216.7,475.91c6.549,7.255,20.588,14.494,24.787,12.6s-7.982-16.386-11.554-23.947a130.039,130.039,0,0,1-7.736-21.289c-1.958-7.215-2.232-24.187-2.232-24.187Z" transform="translate(-198.119 -419.091)" fill="#eaad8f"/>
                </g>
              </g>
            </g>
          </g>
        </g>
        <path id="Trazado_149861" data-name="Trazado 149861" d="M185.026,330.263a231.575,231.575,0,0,1-2.514-34.255L249,297.013c.641,7.544,1.2,15.566,1.57,23.73C250.574,320.743,228.222,326.538,185.026,330.263Z" transform="translate(-182.511 -250.492)" fill="#c6695d"/>
        <g id="Grupo_132169" data-name="Grupo 132169" transform="translate(46.642 124.031)">
          <path id="Trazado_149862" data-name="Trazado 149862" d="M205.055,335.858a19.717,19.717,0,0,0,18.757-1.1c.864-.533.07-1.9-.8-1.363a18.09,18.09,0,0,1-17.159,1.1c-.919-.421-1.722.94-.8,1.366Z" transform="translate(-204.646 -333.268)" fill="#c6695d"/>
        </g>
      </g>
      <g id="Grupo_132175" data-name="Grupo 132175" transform="translate(163.587 81.25)">
        <g id="Grupo_132174" data-name="Grupo 132174">
          <g id="Grupo_132173" data-name="Grupo 132173">
            <g id="Grupo_132172" data-name="Grupo 132172">
              <g id="Grupo_132171" data-name="Grupo 132171">
                <path id="Trazado_149863" data-name="Trazado 149863" d="M155.39,177.772c24.9,6.817,51.737,5.607,79.628,0-2.312-17.971-3.635-40.948-2.145-50.321,5.051-31.754-23.291-52.4-57.4-44.517s-28.37,54.915-24.3,71.416C152,157.677,153.746,167.642,155.39,177.772Z" transform="translate(-148.069 -81.25)" fill="#e59f3f"/>
              </g>
            </g>
          </g>
        </g>
      </g>
      <g id="Grupo_132180" data-name="Grupo 132180" transform="translate(146.831 179.879)">
        <g id="Grupo_132179" data-name="Grupo 132179">
          <g id="Grupo_132178" data-name="Grupo 132178">
            <g id="Grupo_132177" data-name="Grupo 132177">
              <g id="Grupo_132176" data-name="Grupo 132176">
                <path id="Trazado_149864" data-name="Trazado 149864" d="M140.8,174.142c.407,2.548,3.85,7.67,7.8,14.652.548.963,1.117,1.964,1.7,2.99.261.459.525.921.794,1.391,10.365,18.274,25.417,45.143,31.166,64.991a59.575,59.575,0,0,1,2.21,10.867c2.217,24.254-10.271,47.135-10.271,47.135,62.534,38.685,113.7,36.063,113.7,36.063s-.868-20.7-13.781-60.823c-2.312-7.171-4.817-16.137-6.745-24.933v-.006c-.148-.679-.3-1.353-.432-2.027-.647-3.085-1.21-6.132-1.663-9.048-1.016-6.556-1.454-12.483-.938-16.79a32.985,32.985,0,0,1,.647-3.606c.122-.516.249-1.026.39-1.542,1.437-5.255,3.886-10.551,6.025-15.895.24-.6.478-1.216.71-1.821.611-1.6,1.178-3.19,1.673-4.8.154-.512.306-1.011.438-1.521a35.011,35.011,0,0,0,1.315-7.776,23.165,23.165,0,0,0-.032-2.792c-.032-.51-.084-1.016-.148-1.5a24.883,24.883,0,0,0-3.19-9.171c-.078-.137-.158-.268-.236-.4-.2-.331-.4-.657-.6-.978-.122-.2-.249-.386-.375-.569-3.079-4.571-6.922-7.961-9.019-10.741-1.764-2.343-1.831-5.875-1.585-9.908.242-3.907.78-8.286.354-12.509-.053-.542-.126-1.079-.217-1.616-.105-.647-.236-1.29-.4-1.926a13.97,13.97,0,0,0-2.495-5.333,9.371,9.371,0,0,0-1.169-1.222c-3.3-2.857-8.1-2.885-13.735-3.243a26.053,26.053,0,0,1-5.485-1.037c-.649-.183-1.292-.39-1.928-.611a64.782,64.782,0,0,1-11.581-5.534l-38.638-4.5s-1.542,4.1-9.523,9.145q-.664.427-1.391.853a79.86,79.86,0,0,1-13.967,6.339q-2.409.854-4.459,1.779c-.607.274-1.184.548-1.743.826-6.545,3.27-10.157,7.087-12.03,11.084a15.918,15.918,0,0,0-.664,1.606,18.462,18.462,0,0,0-.83,3.211c-.095.535-.164,1.068-.211,1.606A38.645,38.645,0,0,0,140.8,174.142Z" transform="translate(-140.117 -128.055)" fill="#fff"/>
              </g>
            </g>
          </g>
        </g>
      </g>
      <g id="Grupo_132183" data-name="Grupo 132183" transform="translate(249.22 203.286)">
        <g id="Grupo_132182" data-name="Grupo 132182">
          <g id="Grupo_132181" data-name="Grupo 132181">
            <path id="Trazado_149865" data-name="Trazado 149865" d="M188.872,162.971c1.007,6.933,6.787,11.676,13.257,13.461,5.424,1.49,10.9.875,16.236-.548-.078-.137-.158-.268-.236-.4-.2-.331-.4-.657-.6-.978a29.7,29.7,0,0,1-13.52.752c-6.882-1.422-13.246-6.271-13.7-13.724-.447-7.3,4.491-14.072,10.456-17.768a35.207,35.207,0,0,1,6.138-2.986c-.053-.542-.126-1.079-.217-1.616a33.371,33.371,0,0,0-9.3,5.028C191.869,148.54,187.825,155.8,188.872,162.971Z" transform="translate(-188.706 -139.163)" fill="#dbccc1"/>
          </g>
        </g>
      </g>
      <g id="Grupo_132186" data-name="Grupo 132186" transform="translate(147.983 209.836)">
        <g id="Grupo_132185" data-name="Grupo 132185">
          <g id="Grupo_132184" data-name="Grupo 132184">
            <path id="Trazado_149866" data-name="Trazado 149866" d="M140.664,143.946q4.716-.215,9.451.032c14.409.778,27.523,5.907,39.532,13.735,12.041,7.849,22.571,17.705,33.752,26.675,9.9,7.934,20.965,16.531,33.874,18.474a29.973,29.973,0,0,0,13.52-1.043c.24-.6.478-1.216.71-1.821-8.229,2.931-18.386,1.142-26.218-2.691-12.494-6.111-23.053-15.863-33.631-24.718-9.971-8.355-20.221-16.62-31.939-22.417a78.7,78.7,0,0,0-37.964-7.849l-.421.017A15.92,15.92,0,0,0,140.664,143.946Z" transform="translate(-140.664 -142.271)" fill="#dbccc1"/>
          </g>
        </g>
      </g>
      <g id="Grupo_132189" data-name="Grupo 132189" transform="translate(239.29 281.002)">
        <g id="Grupo_132188" data-name="Grupo 132188">
          <g id="Grupo_132187" data-name="Grupo 132187">
            <path id="Trazado_149867" data-name="Trazado 149867" d="M187.694,190.138a116.14,116.14,0,0,0,31.092,23.2c-.148-.679-.3-1.353-.432-2.027A121.821,121.821,0,0,1,194.3,194.329c-3.148-2.853-8.246-6.556-8.654-11.057-.885-9.754,20.432-4.448,25.4-3.1q2.718.733,5.359,1.69c.122-.516.249-1.026.39-1.542q-2.424-.863-4.9-1.549a73.117,73.117,0,0,0-11.609-2.232c-3.547-.39-7.5-.879-11.012-.021-2.649.643-4.813,2.4-5.207,5.207C183.6,185.011,185.562,187.864,187.694,190.138Z" transform="translate(-183.994 -176.043)" fill="#dbccc1"/>
          </g>
        </g>
      </g>
      <g id="Grupo_132192" data-name="Grupo 132192" transform="translate(194.19 309.882)">
        <g id="Grupo_132191" data-name="Grupo 132191">
          <g id="Grupo_132190" data-name="Grupo 132190">
            <path id="Trazado_149868" data-name="Trazado 149868" d="M162.995,191.039c6.442-3.138,13.4-.036,18.816,3.791A71.7,71.7,0,0,1,197.1,209.612a75.024,75.024,0,0,1,15.271,38.632c.1,1.009-1.484,1-1.578,0a73.349,73.349,0,0,0-13.478-35.716,71.68,71.68,0,0,0-13.225-14c-5.422-4.373-13.177-9.6-20.3-6.13-.91.445-1.713-.917-.8-1.363Z" transform="translate(-162.592 -189.749)" fill="#dbccc1"/>
          </g>
        </g>
      </g>
      <g id="Grupo_132195" data-name="Grupo 132195" transform="translate(172.009 248.545)">
        <g id="Grupo_132194" data-name="Grupo 132194">
          <g id="Grupo_132193" data-name="Grupo 132193">
            <path id="Trazado_149869" data-name="Trazado 149869" d="M239.523,254.432c-2.975-10.051-6.553-20.149-12.858-28.648a40.482,40.482,0,0,0-24.9-16.447c-7.849-2.105-17.442-4.967-20-13.769-1.389-4.783-.244-9.79-.4-14.668a22.058,22.058,0,0,0-4.495-12.835,14.241,14.241,0,0,0-12.624-5.776c-4.75.483-9.206,3.359-10.616,8.058a.791.791,0,0,1-1.524-.419c2.095-6.983,9.993-10.454,16.849-8.935,8.279,1.837,13.164,10.5,13.9,18.4.556,6.027-1.614,12.667,1.475,18.268,2.67,4.845,8.13,7.316,13.181,8.852,5.3,1.61,10.738,2.647,15.674,5.262a42.569,42.569,0,0,1,11.537,9.15c8.406,9.3,12.827,21.249,16.331,33.081a.791.791,0,0,1-1.524.421Z" transform="translate(-152.065 -160.641)" fill="#dbccc1"/>
          </g>
        </g>
      </g>
      <g id="Grupo_132198" data-name="Grupo 132198" transform="translate(146.942 214.503)">
        <g id="Grupo_132197" data-name="Grupo 132197">
          <g id="Grupo_132196" data-name="Grupo 132196">
            <path id="Trazado_149870" data-name="Trazado 149870" d="M158.4,163.71a13.469,13.469,0,0,1-8.166,9.881c.261.459.525.921.794,1.391a15.04,15.04,0,0,0,9.143-12.662c.938-11.36-9.518-19.269-19.793-17.614-.095.535-.164,1.068-.211,1.606C150.2,144.315,160.385,152.786,158.4,163.71Z" transform="translate(-140.17 -144.486)" fill="#dbccc1"/>
          </g>
        </g>
      </g>
      <g id="Grupo_132201" data-name="Grupo 132201" transform="translate(160.677 189.024)">
        <g id="Grupo_132200" data-name="Grupo 132200">
          <g id="Grupo_132199" data-name="Grupo 132199">
            <path id="Trazado_149871" data-name="Trazado 149871" d="M146.688,142.192a63.243,63.243,0,0,0,12.2,5.529c4.227,1.368,11.6,3.184,12.367-3.281.474-3.985-.91-8.271-3.011-12.045q-.664.427-1.391.853a26.468,26.468,0,0,1,1.226,2.716c1,2.617,2.727,7.238,1.163,9.9-1.722,2.927-6.149,1.469-8.671.721a55.478,55.478,0,0,1-8.38-3.254q-1.919-.923-3.764-1.964C147.824,141.639,147.246,141.913,146.688,142.192Z" transform="translate(-146.688 -132.395)" fill="#dbccc1"/>
          </g>
        </g>
      </g>
      <g id="Grupo_132204" data-name="Grupo 132204" transform="translate(241.979 189.914)">
        <g id="Grupo_132203" data-name="Grupo 132203">
          <g id="Grupo_132202" data-name="Grupo 132202">
            <path id="Trazado_149872" data-name="Trazado 149872" d="M185.27,132.817c2.09,4.838,4.571,9.272,9.946,10.656,4.832,1.243,9-1.005,12.372-4.543a9.37,9.37,0,0,0-1.17-1.222c-3.9,4.155-8.739,6.486-13.847,2.769a17.467,17.467,0,0,1-5.373-7.049C186.549,133.245,185.906,133.038,185.27,132.817Z" transform="translate(-185.27 -132.817)" fill="#dbccc1"/>
          </g>
        </g>
      </g>
      <g id="Grupo_132210" data-name="Grupo 132210" transform="translate(195.086 203.869)">
        <g id="Grupo_132209" data-name="Grupo 132209">
          <g id="Grupo_132208" data-name="Grupo 132208">
            <g id="Grupo_132207" data-name="Grupo 132207">
              <g id="Grupo_132206" data-name="Grupo 132206">
                <g id="Grupo_132205" data-name="Grupo 132205">
                  <path id="Trazado_149873" data-name="Trazado 149873" d="M207.492,139.989a6.6,6.6,0,0,1-3.19,7.521c-3.688,2.2-8.72,1.669-12.8,1.387a80.372,80.372,0,0,1-28.075-7.268c-.919-.421-.12-1.779.794-1.357a78.8,78.8,0,0,0,21.774,6.471,70.025,70.025,0,0,0,11.17.761c3.907-.07,10.448-1.743,8.812-7.1-.3-.971,1.222-1.384,1.517-.419Z" transform="translate(-163.017 -139.439)" fill="#dbccc1"/>
                </g>
              </g>
            </g>
          </g>
        </g>
      </g>
      <g id="Grupo_132216" data-name="Grupo 132216" transform="translate(166.618 249.114)">
        <g id="Grupo_132215" data-name="Grupo 132215">
          <g id="Grupo_132214" data-name="Grupo 132214">
            <g id="Grupo_132213" data-name="Grupo 132213">
              <g id="Grupo_132212" data-name="Grupo 132212">
                <g id="Grupo_132211" data-name="Grupo 132211">
                  <path id="Trazado_149874" data-name="Trazado 149874" d="M150.984,161.284a277.825,277.825,0,0,1,35.981,94.375c.181.99-1.334,1.416-1.515.419a276.653,276.653,0,0,0-35.823-94c-.529-.866.83-1.658,1.357-.794Z" transform="translate(-149.507 -160.911)" fill="#dbccc1"/>
                </g>
              </g>
            </g>
          </g>
        </g>
      </g>
      <g id="Grupo_132401" data-name="Grupo 132401" transform="translate(170.082 89.818)">
        <g id="Grupo_132394" data-name="Grupo 132394">
          <g id="Grupo_132393" data-name="Grupo 132393">
            <g id="Grupo_132392" data-name="Grupo 132392">
              <g id="Grupo_132391" data-name="Grupo 132391">
                <g id="Grupo_132226" data-name="Grupo 132226" transform="translate(66.456 37.789)">
                  <g id="Grupo_132225" data-name="Grupo 132225">
                    <g id="Grupo_132224" data-name="Grupo 132224">
                      <g id="Grupo_132223" data-name="Grupo 132223">
                        <g id="Grupo_132222" data-name="Grupo 132222">
                          <g id="Grupo_132221" data-name="Grupo 132221">
                            <g id="Grupo_132220" data-name="Grupo 132220">
                              <g id="Grupo_132219" data-name="Grupo 132219">
                                <g id="Grupo_132218" data-name="Grupo 132218">
                                  <g id="Grupo_132217" data-name="Grupo 132217">
                                    <path id="Trazado_149875" data-name="Trazado 149875" d="M185.1,103.249s4.073-.126,5.458,4.927-.183,13.946-5.515,13.512S185.1,103.249,185.1,103.249Z" transform="translate(-182.688 -103.249)" fill="#c6695d"/>
                                  </g>
                                </g>
                              </g>
                            </g>
                          </g>
                        </g>
                      </g>
                    </g>
                  </g>
                </g>
                <g id="Grupo_132233" data-name="Grupo 132233" transform="translate(63.744 50.514)">
                  <g id="Grupo_132232" data-name="Grupo 132232">
                    <g id="Grupo_132231" data-name="Grupo 132231">
                      <g id="Grupo_132230" data-name="Grupo 132230">
                        <g id="Grupo_132229" data-name="Grupo 132229">
                          <g id="Grupo_132228" data-name="Grupo 132228">
                            <g id="Grupo_132227" data-name="Grupo 132227">
                              <path id="Trazado_149876" data-name="Trazado 149876" d="M181.42,116.942a7.146,7.146,0,1,1,7.637,6.619A7.154,7.154,0,0,1,181.42,116.942Zm2.084-.15a5.056,5.056,0,1,0,4.684-5.4A5.06,5.06,0,0,0,183.5,116.793Z" transform="translate(-181.401 -109.287)" fill="#fff"/>
                            </g>
                          </g>
                        </g>
                      </g>
                    </g>
                  </g>
                </g>
                <g id="Grupo_132252" data-name="Grupo 132252" transform="translate(18.408 62.739)">
                  <g id="Grupo_132242" data-name="Grupo 132242" transform="translate(40.952 16.693)">
                    <g id="Grupo_132241" data-name="Grupo 132241">
                      <g id="Grupo_132240" data-name="Grupo 132240">
                        <g id="Grupo_132239" data-name="Grupo 132239">
                          <g id="Grupo_132238" data-name="Grupo 132238">
                            <g id="Grupo_132237" data-name="Grupo 132237">
                              <g id="Grupo_132236" data-name="Grupo 132236">
                                <g id="Grupo_132235" data-name="Grupo 132235">
                                  <g id="Grupo_132234" data-name="Grupo 132234">
                                    <line id="Línea_196" data-name="Línea 196" y2="0.004" fill="#eaad8f"/>
                                  </g>
                                </g>
                              </g>
                            </g>
                          </g>
                        </g>
                      </g>
                    </g>
                  </g>
                  <g id="Grupo_132251" data-name="Grupo 132251">
                    <g id="Grupo_132250" data-name="Grupo 132250">
                      <g id="Grupo_132249" data-name="Grupo 132249">
                        <g id="Grupo_132248" data-name="Grupo 132248">
                          <g id="Grupo_132247" data-name="Grupo 132247">
                            <g id="Grupo_132246" data-name="Grupo 132246">
                              <g id="Grupo_132245" data-name="Grupo 132245">
                                <g id="Grupo_132244" data-name="Grupo 132244">
                                  <g id="Grupo_132243" data-name="Grupo 132243">
                                    <path id="Trazado_149877" data-name="Trazado 149877" d="M159.887,151.089s8.6,12.424,23.915,12.829c19.462.514,20.678-7.991,20.678-7.991a36.643,36.643,0,0,1-2.455-7.75c-.207-1.035-.384-2.1-.529-3.214a88.445,88.445,0,0,1-.636-10.237c-.015-.906-.021-1.85-.019-2.824l0-.114c-13.623-1.585-25.158-6.193-33.728-15.1l-2.128-.952-1.435-.647-.156.8.544,2.434C166.518,129.764,165.033,139.664,159.887,151.089Z" transform="translate(-159.887 -115.089)" fill="#eaad8f"/>
                                  </g>
                                </g>
                              </g>
                            </g>
                          </g>
                        </g>
                      </g>
                    </g>
                  </g>
                </g>
                <g id="Grupo_132262" data-name="Grupo 132262" transform="translate(36.01 73.448)">
                  <g id="Grupo_132261" data-name="Grupo 132261">
                    <g id="Grupo_132260" data-name="Grupo 132260">
                      <g id="Grupo_132259" data-name="Grupo 132259">
                        <g id="Grupo_132258" data-name="Grupo 132258">
                          <g id="Grupo_132257" data-name="Grupo 132257">
                            <g id="Grupo_132256" data-name="Grupo 132256">
                              <g id="Grupo_132255" data-name="Grupo 132255">
                                <g id="Grupo_132254" data-name="Grupo 132254">
                                  <g id="Grupo_132253" data-name="Grupo 132253">
                                    <path id="Trazado_149878" data-name="Trazado 149878" d="M168.24,120.171c3.542,6,11.352,16.426,24.008,19.165a88.446,88.446,0,0,1-.636-10.237c-.015-.906-.021-1.85-.019-2.824-.257.061-.525.116-.79.164C183.638,127.765,175.354,124.963,168.24,120.171Z" transform="translate(-168.24 -120.171)" fill="#171612"/>
                                  </g>
                                </g>
                              </g>
                            </g>
                          </g>
                        </g>
                      </g>
                    </g>
                  </g>
                </g>
                <g id="Grupo_132272" data-name="Grupo 132272" transform="translate(3.694 1.979)">
                  <g id="Grupo_132271" data-name="Grupo 132271">
                    <g id="Grupo_132270" data-name="Grupo 132270">
                      <g id="Grupo_132269" data-name="Grupo 132269">
                        <g id="Grupo_132268" data-name="Grupo 132268">
                          <g id="Grupo_132267" data-name="Grupo 132267">
                            <g id="Grupo_132266" data-name="Grupo 132266">
                              <g id="Grupo_132265" data-name="Grupo 132265">
                                <g id="Grupo_132264" data-name="Grupo 132264">
                                  <g id="Grupo_132263" data-name="Grupo 132263">
                                    <path id="Trazado_149879" data-name="Trazado 149879" d="M152.923,129.812c.39,7.236,6.992,15.768,16.472,15.522l.048,0h0l.2,0c.175.407.375.807.582,1.214.089.175.181.354.274.529a.318.318,0,0,0,.032.048c6.556,11.978,24.463,18.268,33.95,18.015a21.716,21.716,0,0,0,6.343-1.172c9.925-2.723,11.074-16.392,8.941-26.68a39.654,39.654,0,0,0-1.123-4.219l-.091-.268s2.586-14.69,3.034-21.062c.86-12.348-6.846-24.433-33.88-25.439s-32.586,16.04-34,25c-.238,1.492.531,10.271,2.08,11.609C153.306,124.343,152.792,127.38,152.923,129.812Z" transform="translate(-152.904 -86.255)" fill="#eaad8f"/>
                                  </g>
                                </g>
                              </g>
                            </g>
                          </g>
                        </g>
                      </g>
                    </g>
                  </g>
                </g>
                <g id="Grupo_132284" data-name="Grupo 132284" transform="translate(59.221 40.315)">
                  <g id="Grupo_132277" data-name="Grupo 132277" transform="translate(3.277 0.788)">
                    <g id="Grupo_132276" data-name="Grupo 132276">
                      <g id="Grupo_132275" data-name="Grupo 132275">
                        <g id="Grupo_132274" data-name="Grupo 132274">
                          <g id="Grupo_132273" data-name="Grupo 132273">
                            <path id="Trazado_149880" data-name="Trazado 149880" d="M184.647,108.679c-.2,2.021-1.22,3.574-2.269,3.466s-1.736-1.829-1.532-3.85,1.22-3.574,2.27-3.469S184.852,106.658,184.647,108.679Z" transform="translate(-180.81 -104.822)" fill="#171612"/>
                          </g>
                        </g>
                      </g>
                    </g>
                  </g>
                  <g id="Grupo_132283" data-name="Grupo 132283">
                    <g id="Grupo_132282" data-name="Grupo 132282">
                      <g id="Grupo_132281" data-name="Grupo 132281">
                        <g id="Grupo_132280" data-name="Grupo 132280">
                          <g id="Grupo_132279" data-name="Grupo 132279">
                            <g id="Grupo_132278" data-name="Grupo 132278">
                              <path id="Trazado_149881" data-name="Trazado 149881" d="M179.6,106.965a.542.542,0,0,1-.259-.209.536.536,0,0,1,.154-.744c.207-.137,5.125-3.315,9.354-.2a.537.537,0,0,1-.636.866c-3.631-2.672-8.083.207-8.128.236A.538.538,0,0,1,179.6,106.965Z" transform="translate(-179.255 -104.447)" fill="#171612"/>
                            </g>
                          </g>
                        </g>
                      </g>
                    </g>
                  </g>
                </g>
                <g id="Grupo_132295" data-name="Grupo 132295" transform="translate(40.634 38.818)">
                  <g id="Grupo_132288" data-name="Grupo 132288" transform="translate(4.219 0.806)">
                    <g id="Grupo_132287" data-name="Grupo 132287">
                      <g id="Grupo_132286" data-name="Grupo 132286">
                        <g id="Grupo_132285" data-name="Grupo 132285">
                          <path id="Trazado_149882" data-name="Trazado 149882" d="M176.275,107.977c-.2,2.021-1.22,3.574-2.272,3.469s-1.734-1.831-1.532-3.852,1.222-3.574,2.272-3.468S176.48,105.956,176.275,107.977Z" transform="translate(-172.436 -104.12)" fill="#171612"/>
                        </g>
                      </g>
                    </g>
                  </g>
                  <g id="Grupo_132294" data-name="Grupo 132294">
                    <g id="Grupo_132293" data-name="Grupo 132293">
                      <g id="Grupo_132292" data-name="Grupo 132292">
                        <g id="Grupo_132291" data-name="Grupo 132291">
                          <g id="Grupo_132290" data-name="Grupo 132290">
                            <g id="Grupo_132289" data-name="Grupo 132289">
                              <path id="Trazado_149883" data-name="Trazado 149883" d="M170.849,106.936a.525.525,0,0,1-.284-.173.538.538,0,0,1,.057-.759c.19-.162,4.665-3.936,9.255-1.384a.538.538,0,1,1-.523.94c-3.943-2.194-7.991,1.226-8.031,1.26A.54.54,0,0,1,170.849,106.936Z" transform="translate(-170.434 -103.737)" fill="#171612"/>
                            </g>
                          </g>
                        </g>
                      </g>
                    </g>
                  </g>
                </g>
                <g id="Grupo_132296" data-name="Grupo 132296" transform="translate(51.722 59.077)">
                  <path id="Trazado_149884" data-name="Trazado 149884" d="M182.435,118.7a7.763,7.763,0,0,1-.961-.063c-3.264-.421-5.5-3.551-5.593-3.683a1.018,1.018,0,0,1,1.665-1.174c.027.038,1.827,2.533,4.189,2.836a3.6,3.6,0,0,0,3.506-1.17,1.024,1.024,0,0,1,1.41-.268,1.013,1.013,0,0,1,.287,1.4A5.405,5.405,0,0,1,182.435,118.7Z" transform="translate(-175.696 -113.351)" fill="#c6695d"/>
                </g>
                <g id="Grupo_132307" data-name="Grupo 132307" transform="translate(9.196 43.435)">
                  <g id="Grupo_132306" data-name="Grupo 132306">
                    <g id="Grupo_132305" data-name="Grupo 132305">
                      <g id="Grupo_132304" data-name="Grupo 132304">
                        <g id="Grupo_132303" data-name="Grupo 132303">
                          <g id="Grupo_132302" data-name="Grupo 132302">
                            <g id="Grupo_132301" data-name="Grupo 132301">
                              <g id="Grupo_132300" data-name="Grupo 132300">
                                <g id="Grupo_132299" data-name="Grupo 132299">
                                  <g id="Grupo_132298" data-name="Grupo 132298">
                                    <g id="Grupo_132297" data-name="Grupo 132297">
                                      <path id="Trazado_149885" data-name="Trazado 149885" d="M167.1,117.855a.975.975,0,0,1-.845-.738c-1.669-6.737-9.95-9.249-10.033-9.272a.978.978,0,0,1,.55-1.878c.384.112,9.44,2.841,11.383,10.679a.979.979,0,0,1-.714,1.184A.945.945,0,0,1,167.1,117.855Z" transform="translate(-155.515 -105.928)" fill="#c6695d"/>
                                    </g>
                                  </g>
                                </g>
                              </g>
                            </g>
                          </g>
                        </g>
                      </g>
                    </g>
                  </g>
                </g>
                <g id="Grupo_132318" data-name="Grupo 132318" transform="translate(11.206 47.348)">
                  <g id="Grupo_132317" data-name="Grupo 132317">
                    <g id="Grupo_132316" data-name="Grupo 132316">
                      <g id="Grupo_132315" data-name="Grupo 132315">
                        <g id="Grupo_132314" data-name="Grupo 132314">
                          <g id="Grupo_132313" data-name="Grupo 132313">
                            <g id="Grupo_132312" data-name="Grupo 132312">
                              <g id="Grupo_132311" data-name="Grupo 132311">
                                <g id="Grupo_132310" data-name="Grupo 132310">
                                  <g id="Grupo_132309" data-name="Grupo 132309">
                                    <g id="Grupo_132308" data-name="Grupo 132308">
                                      <path id="Trazado_149886" data-name="Trazado 149886" d="M157.341,112.455a.934.934,0,0,1-.358-.112.977.977,0,0,1-.4-1.325,6.718,6.718,0,0,1,5.74-3.232.978.978,0,0,1,.025,1.956,4.756,4.756,0,0,0-4.044,2.206A.98.98,0,0,1,157.341,112.455Z" transform="translate(-156.469 -107.785)" fill="#c6695d"/>
                                    </g>
                                  </g>
                                </g>
                              </g>
                            </g>
                          </g>
                        </g>
                      </g>
                    </g>
                  </g>
                </g>
                <g id="Grupo_132328" data-name="Grupo 132328" transform="translate(64.94 48.789)" opacity="0.5">
                  <g id="Grupo_132327" data-name="Grupo 132327">
                    <g id="Grupo_132326" data-name="Grupo 132326">
                      <g id="Grupo_132325" data-name="Grupo 132325">
                        <g id="Grupo_132324" data-name="Grupo 132324">
                          <g id="Grupo_132323" data-name="Grupo 132323">
                            <g id="Grupo_132322" data-name="Grupo 132322">
                              <g id="Grupo_132321" data-name="Grupo 132321">
                                <g id="Grupo_132320" data-name="Grupo 132320">
                                  <g id="Grupo_132319" data-name="Grupo 132319">
                                    <path id="Trazado_149887" data-name="Trazado 149887" d="M181.971,110.907c.078,1.073,2.486,1.8,5.616,1.781a39.654,39.654,0,0,0-1.123-4.219C183.788,108.958,181.9,109.927,181.971,110.907Z" transform="translate(-181.969 -108.469)" fill="#c6695d"/>
                                  </g>
                                </g>
                              </g>
                            </g>
                          </g>
                        </g>
                      </g>
                    </g>
                  </g>
                </g>
                <g id="Grupo_132338" data-name="Grupo 132338" transform="translate(34.607 50.482)" opacity="0.5">
                  <g id="Grupo_132337" data-name="Grupo 132337">
                    <g id="Grupo_132336" data-name="Grupo 132336">
                      <g id="Grupo_132335" data-name="Grupo 132335">
                        <g id="Grupo_132334" data-name="Grupo 132334">
                          <g id="Grupo_132333" data-name="Grupo 132333">
                            <g id="Grupo_132332" data-name="Grupo 132332">
                              <g id="Grupo_132331" data-name="Grupo 132331">
                                <g id="Grupo_132330" data-name="Grupo 132330">
                                  <g id="Grupo_132329" data-name="Grupo 132329">
                                    <path id="Trazado_149888" data-name="Trazado 149888" d="M181.2,111.056c.086,1.224-2.891,2.436-6.655,2.706s-6.884-.5-6.971-1.73,2.891-2.436,6.653-2.706S181.113,109.83,181.2,111.056Z" transform="translate(-167.574 -109.273)" fill="#c6695d"/>
                                  </g>
                                </g>
                              </g>
                            </g>
                          </g>
                        </g>
                      </g>
                    </g>
                  </g>
                </g>
                <g id="Grupo_132349" data-name="Grupo 132349" transform="translate(20.185 57.57)">
                  <g id="Grupo_132348" data-name="Grupo 132348">
                    <g id="Grupo_132347" data-name="Grupo 132347">
                      <g id="Grupo_132346" data-name="Grupo 132346">
                        <g id="Grupo_132345" data-name="Grupo 132345">
                          <g id="Grupo_132344" data-name="Grupo 132344">
                            <g id="Grupo_132343" data-name="Grupo 132343">
                              <g id="Grupo_132342" data-name="Grupo 132342">
                                <g id="Grupo_132341" data-name="Grupo 132341">
                                  <g id="Grupo_132340" data-name="Grupo 132340">
                                    <g id="Grupo_132339" data-name="Grupo 132339">
                                      <path id="Trazado_149889" data-name="Trazado 149889" d="M160.73,116.124l.048,0h.006l.2,0c.175.409.373.807.579,1.214.091.175.183.354.276.529a.229.229,0,0,0,.029.048,8.72,8.72,0,0,0,3.578-1.642,6.947,6.947,0,0,0,1.816-2.2.979.979,0,0,0-1.73-.917,5.265,5.265,0,0,1-2.219,2.164,7.059,7.059,0,0,1-1.677.624A8.43,8.43,0,0,1,160.73,116.124Z" transform="translate(-160.73 -112.636)" fill="#c6695d"/>
                                    </g>
                                  </g>
                                </g>
                              </g>
                            </g>
                          </g>
                        </g>
                      </g>
                    </g>
                  </g>
                </g>
                <g id="Grupo_132356" data-name="Grupo 132356" transform="translate(8.335 54.586)">
                  <g id="Grupo_132355" data-name="Grupo 132355">
                    <g id="Grupo_132354" data-name="Grupo 132354">
                      <g id="Grupo_132353" data-name="Grupo 132353">
                        <g id="Grupo_132352" data-name="Grupo 132352">
                          <g id="Grupo_132351" data-name="Grupo 132351">
                            <g id="Grupo_132350" data-name="Grupo 132350">
                              <path id="Trazado_149890" data-name="Trazado 149890" d="M169.338,117.335a8.859,8.859,0,0,1-2.055.445c0,.036.011.067.013.1a5.057,5.057,0,1,1-6.2-4.556,1.419,1.419,0,0,0-.15-2.107,7.144,7.144,0,1,0,8.433,6.516C169.372,117.6,169.355,117.468,169.338,117.335Z" transform="translate(-155.106 -111.22)" fill="#fff"/>
                            </g>
                          </g>
                        </g>
                      </g>
                    </g>
                  </g>
                </g>
                <g id="Grupo_132366" data-name="Grupo 132366" transform="translate(53.816 66.834)">
                  <g id="Grupo_132365" data-name="Grupo 132365">
                    <g id="Grupo_132364" data-name="Grupo 132364">
                      <g id="Grupo_132363" data-name="Grupo 132363">
                        <g id="Grupo_132362" data-name="Grupo 132362">
                          <g id="Grupo_132361" data-name="Grupo 132361">
                            <g id="Grupo_132360" data-name="Grupo 132360">
                              <g id="Grupo_132359" data-name="Grupo 132359">
                                <g id="Grupo_132358" data-name="Grupo 132358">
                                  <g id="Grupo_132357" data-name="Grupo 132357">
                                    <path id="Trazado_149891" data-name="Trazado 149891" d="M179.1,119.251a3.8,3.8,0,0,1-2.255-1.159.641.641,0,0,1,.967-.841,2.6,2.6,0,0,0,2.853.548.641.641,0,0,1,.44,1.2A4.179,4.179,0,0,1,179.1,119.251Z" transform="translate(-176.69 -117.032)" fill="#c6695d"/>
                                  </g>
                                </g>
                              </g>
                            </g>
                          </g>
                        </g>
                      </g>
                    </g>
                  </g>
                </g>
                <g id="Grupo_132367" data-name="Grupo 132367" transform="translate(9.099)">
                  <path id="Trazado_149892" data-name="Trazado 149892" d="M157.612,96.777c5.468-6.288,13.252-11.51,22.954-11.461,13.611.067,26.408,4.141,33.737,11.114a19.162,19.162,0,0,1,6.28,11.937c1.49,14.062-1.692,11.472-1.692,11.472a18.034,18.034,0,0,0-.52-3.3h0c-.346-1.791-.929-4.545-1.9-8.76-2.329-10.056-34.712-9.5-32.268-3.062a11.68,11.68,0,0,1,.12,2.076,13.959,13.959,0,0,1-1.06,5.154c-.257.053-.5.11-.733.162a29.2,29.2,0,0,0-7.963,3.079l-.011.011c-.268.215-4.971,4.046-4,9.152,1,5.26,3.313,12.07-.356,10.953s-5.1-5.359-5.1-5.359l0,0a16.859,16.859,0,0,0-8.111-5.477C155.281,115.228,154.441,105.763,157.612,96.777Z" transform="translate(-155.469 -85.316)" fill="#e59f3f"/>
                </g>
                <g id="Grupo_132368" data-name="Grupo 132368" transform="translate(7.796 16.365)">
                  <path id="Trazado_149893" data-name="Trazado 149893" d="M156.731,94.3c9.5-3.837,25.447,2.489,28.269,3.89a13.959,13.959,0,0,1-1.06,5.154c-.257.053-.5.11-.733.162a29.2,29.2,0,0,0-7.963,3.079l-.011.011c-.268.215-4.971,4.046-4,9.152,1,5.26,7.489,33.242,2.267,37.941-10.6,9.535-9.175-32.3-9.175-32.3h0c-2.038-2.263-3.085-4.55-6.665-5.523C153.608,108.57,154.529,101.357,156.731,94.3Z" transform="translate(-154.851 -93.082)" fill="#e59f3f"/>
                </g>
                <g id="Grupo_132369" data-name="Grupo 132369" transform="translate(0 7.171)">
                  <path id="Trazado_149894" data-name="Trazado 149894" d="M162.966,98.459s-5.395,8.741-1.205,22.233c0,0-4.741-.927-6.916,0s-4.927-7.07-3.093-14.671,11.927-17.3,11.927-17.3S164.833,95.894,162.966,98.459Z" transform="translate(-151.151 -88.719)" fill="#e59f3f"/>
                </g>
                <g id="Grupo_132380" data-name="Grupo 132380" transform="translate(55.153 42.446)">
                  <g id="Grupo_132379" data-name="Grupo 132379">
                    <g id="Grupo_132378" data-name="Grupo 132378">
                      <g id="Grupo_132377" data-name="Grupo 132377">
                        <g id="Grupo_132376" data-name="Grupo 132376">
                          <g id="Grupo_132375" data-name="Grupo 132375">
                            <g id="Grupo_132374" data-name="Grupo 132374">
                              <g id="Grupo_132373" data-name="Grupo 132373">
                                <g id="Grupo_132372" data-name="Grupo 132372">
                                  <g id="Grupo_132371" data-name="Grupo 132371">
                                    <g id="Grupo_132370" data-name="Grupo 132370">
                                      <path id="Trazado_149895" data-name="Trazado 149895" d="M180.967,117.978a.817.817,0,0,0,.438-.135l3.572-2.356a.819.819,0,0,0-.072-1.412c-3-1.559-4.9-4.1-5.968-8.014a.822.822,0,0,0-1.585.436c1.062,3.856,2.862,6.541,5.618,8.347l-2.47,1.629a.821.821,0,0,0,.466,1.5Z" transform="translate(-177.324 -105.459)" fill="#c6695d"/>
                                    </g>
                                  </g>
                                </g>
                              </g>
                            </g>
                          </g>
                        </g>
                      </g>
                    </g>
                  </g>
                </g>
                <g id="Grupo_132389" data-name="Grupo 132389" transform="translate(35.641 28.883)">
                  <g id="Grupo_132388" data-name="Grupo 132388">
                    <g id="Grupo_132387" data-name="Grupo 132387">
                      <g id="Grupo_132386" data-name="Grupo 132386">
                        <g id="Grupo_132385" data-name="Grupo 132385">
                          <g id="Grupo_132384" data-name="Grupo 132384">
                            <g id="Grupo_132383" data-name="Grupo 132383">
                              <g id="Grupo_132382" data-name="Grupo 132382">
                                <g id="Grupo_132381" data-name="Grupo 132381">
                                  <path id="Trazado_149896" data-name="Trazado 149896" d="M181.3,104.431a1.994,1.994,0,0,0,2.716-2.819,5.79,5.79,0,0,0-3.424-2.179,14.463,14.463,0,0,0-12.523,2.963s7.67-.4,11.244,1.016A11.106,11.106,0,0,1,181.3,104.431Z" transform="translate(-168.065 -99.022)" fill="#171612"/>
                                </g>
                              </g>
                            </g>
                          </g>
                        </g>
                      </g>
                    </g>
                  </g>
                </g>
                <g id="Grupo_132390" data-name="Grupo 132390" transform="translate(58.036 30.314)">
                  <path id="Trazado_149897" data-name="Trazado 149897" d="M181.58,104.684a1.994,1.994,0,0,1-2.345-3.133,5.78,5.78,0,0,1,3.667-1.738c7.466-.9,9.6,3.934,9.6,3.934s-5.1-.79-8.819.171A11.139,11.139,0,0,0,181.58,104.684Z" transform="translate(-178.693 -99.701)" fill="#171612"/>
                </g>
              </g>
            </g>
          </g>
        </g>
        <g id="Grupo_132400" data-name="Grupo 132400" transform="translate(21.036 39.326)">
          <g id="Grupo_132395" data-name="Grupo 132395" transform="translate(37.334 0.997)" opacity="0.6">
            <ellipse id="Elipse_4973" data-name="Elipse 4973" cx="9.535" cy="6.836" rx="9.535" ry="6.836" fill="#fff"/>
          </g>
          <g id="Grupo_132396" data-name="Grupo 132396" transform="translate(13.813)" opacity="0.6">
            <path id="Trazado_149898" data-name="Trazado 149898" d="M188.363,111.389c0,4.092-4.628,7.411-10.336,7.411s-10.338-3.319-10.338-7.411,4.628-7.411,10.338-7.411S188.363,107.295,188.363,111.389Z" transform="translate(-167.689 -103.978)" fill="#fff"/>
          </g>
          <g id="Grupo_132397" data-name="Grupo 132397" transform="translate(33.146 5.858)">
            <path id="Trazado_149899" data-name="Trazado 149899" d="M181.907,108.907a.594.594,0,0,1-.392-.148,2.486,2.486,0,0,0-3.618-.044.6.6,0,0,1-.875-.811,3.655,3.655,0,0,1,5.277-.044.6.6,0,0,1-.392,1.047Z" transform="translate(-176.864 -106.758)" fill="#fff"/>
          </g>
          <g id="Grupo_132398" data-name="Grupo 132398" transform="translate(0 1.3)">
            <path id="Trazado_149900" data-name="Trazado 149900" d="M176.188,109.791a.606.606,0,0,1-.314-.089c-6.246-3.865-14.066-3.915-14.144-3.915a.6.6,0,1,1,0-1.193c.333,0,8.231.046,14.772,4.092a.6.6,0,0,1-.314,1.1Z" transform="translate(-161.134 -104.595)" fill="#fff"/>
          </g>
          <g id="Grupo_132399" data-name="Grupo 132399" transform="translate(48.928 4.671)">
            <path id="Trazado_149901" data-name="Trazado 149901" d="M191.83,109.955a.6.6,0,0,1-.472-.232c-1.193-1.534-5.07-2.206-6.463-2.337A.6.6,0,0,1,185,106.2c.228.021,5.546.542,7.3,2.794a.6.6,0,0,1-.47.963Z" transform="translate(-184.353 -106.195)" fill="#fff"/>
          </g>
        </g>
      </g>
      <path id="Trazado_149902" data-name="Trazado 149902" d="M296.383,408.285q-4.182,1.315-8.349,2.47c-.459.131-.921.257-1.38.379a233.2,233.2,0,0,1-56.607,8.277c-.487.008-.971.017-1.46.021a222.217,222.217,0,0,1-26.64-1.222c-.539-.057-1.073-.114-1.606-.175a233.031,233.031,0,0,1-28.934-5.154c-.487-.114-.967-.236-1.448-.354q-7.5-1.878-14.953-4.242s-19.564-91.026-5.7-136.894c8.728-28.878,26.629-61.6,26.629-61.6,33.908,11.162,57.578,11.455,72.929,8.827.575-.1,1.142-.2,1.692-.314,14.923-2.868,21.384-8.437,21.384-8.437A241.265,241.265,0,0,1,283.4,247.3c.114.493.223.986.335,1.483,2.025,9.036,3.736,18.377,5.186,27.8.084.554.167,1.113.253,1.671,1.361,9.074,2.48,18.213,3.405,27.209.044.455.091.912.139,1.363q.642,6.413,1.153,12.7c.053.636.1,1.271.154,1.907.348,4.391.653,8.716.919,12.949.032.533.063,1.062.1,1.591.493,8.157.843,15.956,1.087,23.211.03.8.053,1.6.078,2.383C297.055,389.128,296.383,408.285,296.383,408.285Z" transform="translate(11.388 142.328)" fill="#c04d3a"/>
      <g id="Grupo_132410" data-name="Grupo 132410" transform="translate(166.447 360.636)">
        <g id="Grupo_132402" data-name="Grupo 132402" transform="translate(92.883 0)">
          <path id="Trazado_149903" data-name="Trazado 149903" d="M229.3,244.307c-8.6-2.653-18.112-3.822-25.476-8.515-5.106-3.251-9.489-8.2-10.207-14.407a16.005,16.005,0,0,1,.811-7.236c.575-.1,1.142-.2,1.692-.314a14.724,14.724,0,0,0,.451,12.334c6.058,11.843,20.674,13.181,32.395,16.656C229.074,243.316,229.184,243.809,229.3,244.307Z" transform="translate(-193.504 -213.834)" fill="#7e231a"/>
        </g>
        <g id="Grupo_132403" data-name="Grupo 132403" transform="translate(20.154 1.077)">
          <path id="Trazado_149904" data-name="Trazado 149904" d="M272.949,273.208c-1.214-.472-2.409-.99-3.578-1.54-19.231-9.053-33.143-26.189-49.644-39.051-16.46-12.825-39.336-23.028-59.626-12.576-.839.432-1.58-.832-.742-1.266,9.925-5.11,21.452-5.473,32.133-2.748,20.409,5.211,35.716,20.885,50.928,34.46,8.13,7.253,16.66,14.432,26.467,19.326,1.239.615,2.51,1.2,3.81,1.726C272.781,272.092,272.863,272.65,272.949,273.208Z" transform="translate(-158.99 -214.345)" fill="#7e231a"/>
        </g>
        <g id="Grupo_132404" data-name="Grupo 132404" transform="translate(13.356 20.747)">
          <path id="Trazado_149905" data-name="Trazado 149905" d="M279.927,290.082c-16.786.329-32.774-10.545-44.678-22.016-14.77-14.232-27.708-31.9-47.114-40.16-9.976-4.252-21.3-5.778-31.714-2.316a.914.914,0,0,1-.067.314c-.2.487-.4.976-.59,1.467,21.627-7.953,42.749,5.917,57.667,20.47,14.677,14.317,27.759,31.88,47.335,39.825a49.284,49.284,0,0,0,19.3,3.78C280.017,290.994,279.971,290.537,279.927,290.082Z" transform="translate(-155.764 -223.679)" fill="#7e231a"/>
        </g>
        <g id="Grupo_132405" data-name="Grupo 132405" transform="translate(45.283 92.946)">
          <path id="Trazado_149906" data-name="Trazado 149906" d="M264.6,268.111a42.779,42.779,0,0,0-29.253-8.568c-6.029.523-13.212,2.562-16.6,8.035-3.808,6.164.676,13.164-.424,19.751-.931,5.561-5.5,9.354-10.026,12.182-5.749,3.593-11.811,6.524-17.176,10.732a43.839,43.839,0,0,0-13.189,16,29.138,29.138,0,0,0-2.689,10.975c-.143,3.814.476,7.594.782,11.388.478,5.94-.407,11.36-3.5,16.3-.539-.057-1.073-.114-1.606-.175a24.463,24.463,0,0,0,2-3.557c3.846-8.467-.021-17.528,1.052-26.332,1.686-13.918,12.61-24.111,23.968-31.033,5.464-3.334,12-5.9,16.184-10.934a12.814,12.814,0,0,0,2.832-9.8c-.348-3.635-1.524-7.211-1.2-10.89,1.089-12.525,17.581-15.062,27.449-14.028a44.666,44.666,0,0,1,21.247,8.054C264.5,266.841,264.544,267.475,264.6,268.111Z" transform="translate(-170.915 -257.942)" fill="#7e231a"/>
        </g>
        <g id="Grupo_132406" data-name="Grupo 132406" transform="translate(129.263 140.867)">
          <path id="Trazado_149907" data-name="Trazado 149907" d="M219.428,288.351a58.373,58.373,0,0,0-5.38,42.351c.135.523.282,1.043.432,1.561-.459.131-.921.257-1.38.379a58.711,58.711,0,0,1-1.45-26.484,61.378,61.378,0,0,1,10.922-25.476c.03.8.053,1.6.078,2.383A60.016,60.016,0,0,0,219.428,288.351Z" transform="translate(-210.768 -280.683)" fill="#7e231a"/>
        </g>
        <g id="Grupo_132407" data-name="Grupo 132407" transform="translate(72.681 115.764)">
          <path id="Trazado_149908" data-name="Trazado 149908" d="M251.216,270.662c-8.031-1.041-16.55.2-20.143,8.349-1.8,4.075-1.694,8.667-2.9,12.911a20.252,20.252,0,0,1-6.29,9.62c-6.473,5.7-14.985,7.913-22.2,12.405-7.93,4.939-12.329,13.128-13.767,22.206a58.793,58.793,0,0,0,.306,17.958c-.487.008-.971.017-1.46.021-1.03-7.068-1.328-14.2.3-21.222,2-8.654,6.811-15.979,14.47-20.588,8.166-4.906,18.681-7.232,24.56-15.3,5.35-7.342,2.278-17.911,9.815-24.046,4.99-4.063,11.139-4.7,17.214-3.9C251.151,269.6,251.182,270.133,251.216,270.662Z" transform="translate(-183.917 -268.771)" fill="#7e231a"/>
        </g>
        <g id="Grupo_132408" data-name="Grupo 132408" transform="translate(9.131 30.879)">
          <path id="Trazado_149909" data-name="Trazado 149909" d="M206.9,297.972c-.91-6.218-4.606-11.531-7.289-17.073a25.251,25.251,0,0,1-2.853-9.546c-.2-3.77.936-7.407,1.979-10.981,1.73-5.94,2.919-12.064-.582-17.623-3.561-5.654-9.982-8.939-16.139-10.972a66.565,66.565,0,0,0-25.609-3.115c-.936.065-.944,1.534,0,1.467a65.57,65.57,0,0,1,23.078,2.4c6.081,1.776,12.475,4.526,16.479,9.66,4.771,6.119,2.714,12.985.786,19.762a28.936,28.936,0,0,0-1.458,9.407,24.256,24.256,0,0,0,2.1,8.191c2.375,5.559,6.077,10.587,7.622,16.487,1.779,6.8-.628,13.423-4.969,18.714-8.425,10.266-21.631,14.1-31.659,22.351-10.977,9.036-14.121,22.754-14.626,36.331.3,1.005.609,2.008.927,3.007a.683.683,0,0,0,.476-.664c.228-14.236,3.079-28.7,14.757-38.04,10.363-8.286,23.791-12.184,32.055-23.081C205.605,309.864,207.791,304.029,206.9,297.972Z" transform="translate(-153.759 -228.488)" fill="#7e231a"/>
        </g>
        <g id="Grupo_132409" data-name="Grupo 132409" transform="translate(0 45.103)">
          <path id="Trazado_149910" data-name="Trazado 149910" d="M156.037,236.711a38.476,38.476,0,0,1,22.311,27.756c2.417,12.131-2.044,24.566-10.8,33.134a37.264,37.264,0,0,1-17.593,9.723c-.919.213-.531,1.627.39,1.414a39.933,39.933,0,0,0,27.419-23.7c4.946-12.1,2.794-25.908-4.769-36.447a38.892,38.892,0,0,0-16.565-13.29c-.87-.365-1.25,1.054-.39,1.414Z" transform="translate(-149.426 -235.238)" fill="#7e231a"/>
        </g>
      </g>
      <g id="Grupo_132411" data-name="Grupo 132411" transform="translate(165.095 336.902)">
        <path id="Trazado_149911" data-name="Trazado 149911" d="M159.813,254.716a246.715,246.715,0,0,0-9.52,80.992,239.976,239.976,0,0,0,16.192,75.985c-.487-.114-.967-.236-1.448-.354a236.5,236.5,0,0,1-11.725-40.531,248.209,248.209,0,0,1-2.173-81.333,240.715,240.715,0,0,1,24.882-78.3c.367-.7,1.416-.082,1.056.613A236.117,236.117,0,0,0,159.813,254.716Z" transform="translate(-148.784 -193.385)" fill="#171612"/>
        <path id="Trazado_149912" data-name="Trazado 149912" d="M158.093,222.729s1.321-14.732,5.631-17.551c0,0,44.309,18.078,88.538-2.607,0,0,6.787,6.21,5.563,18.095C257.824,220.666,226.519,244.1,158.093,222.729Z" transform="translate(-138.478 -202.571)" fill="#7e231a"/>
      </g>
      <g id="Grupo_132415" data-name="Grupo 132415" transform="translate(144.538 172.164)">
        <path id="Trazado_149913" data-name="Trazado 149913" d="M187.906,124.394s-10.646,2.619-13.672,18.346c0,0-19.136,5.694-24.284,9.786s-11.307,8.446-10.9,15.183c1.321,21.917,34.034,70.476,37.387,83.558s-16.849,60.627-16.849,60.627q21.949,18.093,66.78,16.209S221.232,200.583,211.8,179.987,193.5,143.955,187.906,124.394Z" transform="translate(-139.029 -124.394)" fill="#314fa5"/>
        <g id="Grupo_132412" data-name="Grupo 132412" transform="translate(34.285 18.411)">
          <path id="Trazado_149914" data-name="Trazado 149914" d="M155.316,134.421a47.063,47.063,0,0,0,28.614,35.4c1.226.5,1.76-1.492.548-1.983A45.026,45.026,0,0,1,157.3,133.875c-.221-1.3-2.2-.75-1.981.546Z" transform="translate(-155.299 -133.131)" fill="#1c2b74"/>
        </g>
        <g id="Grupo_132413" data-name="Grupo 132413" transform="translate(59.741 52.492)">
          <path id="Trazado_149915" data-name="Trazado 149915" d="M167.425,150.574a340.083,340.083,0,0,1,12.584,109.574q-.74,16.026-2.95,31.933c-.177,1.294,1.8,1.852,1.983.546a350.488,350.488,0,0,0-2.234-111.136q-2.921-15.909-7.4-31.465a1.028,1.028,0,0,0-1.981.548Z" transform="translate(-167.38 -149.304)" fill="#1c2b74"/>
        </g>
        <g id="Grupo_132414" data-name="Grupo 132414" transform="translate(23.689 179.735)">
          <path id="Trazado_149916" data-name="Trazado 149916" d="M150.718,211.654a82.292,82.292,0,0,0,60.844,14.386c1.3-.206.75-2.187-.546-1.981a80.256,80.256,0,0,1-59.26-14.18c-1.075-.775-2.1,1.005-1.039,1.774Z" transform="translate(-150.271 -209.688)" fill="#1c2b74"/>
        </g>
      </g>
      <g id="Grupo_132420" data-name="Grupo 132420" transform="translate(229.247 175.665)">
        <path id="Trazado_149917" data-name="Trazado 149917" d="M179.228,126.055s2.7,22.094,4.7,36.432c2.149,15.37,19.9,59.2,21.978,88.045s9.061,69.237,9.061,69.237,23.658-1.675,39.115-17.216c0,0-20.5-43.854-24.623-61.439s8.583-40.118,5.411-49.809S221.815,177.958,221,169.264s3.254-22.455-3.254-26.638-24.212-3.081-26.477-4.948C191.271,137.678,185.992,126.837,179.228,126.055Z" transform="translate(-179.228 -126.055)" fill="#314fa5"/>
        <g id="Grupo_132416" data-name="Grupo 132416" transform="translate(39.475 28.637)">
          <path id="Trazado_149918" data-name="Trazado 149918" d="M197.963,140.633c.451,7.647,1.068,15.644,5.6,22.113,2.449,3.492,5.386,6.53,6.9,10.6a22.949,22.949,0,0,1,.839,13.065c-.287,1.29,1.694,1.84,1.981.548a25.4,25.4,0,0,0-4.965-21.374c-2.841-3.711-5.3-7.025-6.566-11.607a64.05,64.05,0,0,1-1.741-13.345c-.076-1.313-2.133-1.323-2.055,0Z" transform="translate(-197.961 -139.645)" fill="#1c2b74"/>
        </g>
        <g id="Grupo_132417" data-name="Grupo 132417" transform="translate(7.481 14.737)">
          <path id="Trazado_149919" data-name="Trazado 149919" d="M187.237,134.032c.853,9.114.4,19.2-4.311,27.293a1.028,1.028,0,0,0,1.774,1.037c4.891-8.4,5.477-18.86,4.592-28.33-.12-1.3-2.177-1.317-2.055,0Z" transform="translate(-182.778 -133.048)" fill="#1c2b74"/>
        </g>
        <g id="Grupo_132418" data-name="Grupo 132418" transform="translate(9.674 37.831)">
          <path id="Trazado_149920" data-name="Trazado 149920" d="M183.876,145.264a597.052,597.052,0,0,1,26.307,121.01c1.026,9.238,1.9,18.491,2.763,27.744.122,1.306,2.177,1.319,2.055,0-3.458-37.081-8.21-73.8-17.534-109.93-3.422-13.252-7.331-26.37-11.609-39.369-.413-1.25-2.4-.714-1.981.546Z" transform="translate(-183.819 -144.008)" fill="#1c2b74"/>
        </g>
        <g id="Grupo_132419" data-name="Grupo 132419" transform="translate(34.805 170.855)">
          <path id="Trazado_149921" data-name="Trazado 149921" d="M197.026,226.347a83.312,83.312,0,0,0,35.144-17.5c1.011-.853-.447-2.3-1.454-1.452a81.12,81.12,0,0,1-34.236,16.974c-1.288.3-.744,2.276.546,1.981Z" transform="translate(-195.745 -207.135)" fill="#1c2b74"/>
        </g>
      </g>
      <g id="Grupo_132443" data-name="Grupo 132443" transform="translate(134.054 202.457)">
        <g id="Grupo_132422" data-name="Grupo 132422">
          <g id="Grupo_132421" data-name="Grupo 132421">
            <path id="Trazado_149922" data-name="Trazado 149922" d="M142.443,155.152l-1.081,6.119c-.341,2.006-.683,4.008-.993,6.012-.626,4.01-1.233,8.018-1.789,12.039-1.089,8.043-2.1,16.118-2.851,24.286s-1.389,16.411-1.6,24.9c-.105,4.252-.124,8.566.044,13.054A95.829,95.829,0,0,0,135.7,256.08c.263,1.361.582,2.786,1.014,4.335a39.229,39.229,0,0,0,1.806,5.14,30.871,30.871,0,0,0,1.561,3.112,26.393,26.393,0,0,0,2.533,3.652,22.724,22.724,0,0,0,4.3,4.029,21.746,21.746,0,0,0,3.055,1.833l.415.2.3.133.592.255c.4.173.767.3,1.151.44A26.849,26.849,0,0,0,160,280.686a34.961,34.961,0,0,0,5.513-.152,53.534,53.534,0,0,0,8.368-1.6,102.883,102.883,0,0,0,13.212-4.722c4.054-1.732,7.9-3.57,11.666-5.468s7.417-3.863,11.025-5.871,7.135-4.1,10.576-6.313,6.8-4.537,10.073-6.992q2.459-1.836,4.838-3.8c.8-.647,1.578-1.323,2.362-2,.392-.337.784-.679,1.169-1.033L240,241.648a11.548,11.548,0,0,0-11.3-19.521l-.632.2c-.858.274-1.816.615-2.716.955s-1.833.676-2.742,1.033q-2.728,1.062-5.422,2.179c-3.593,1.488-7.141,3.03-10.654,4.594s-6.994,3.152-10.446,4.729-6.914,3.068-10.353,4.463-6.863,2.687-10.2,3.793a72.957,72.957,0,0,1-9.383,2.529,18.3,18.3,0,0,1-3.327.373c-.337-.008-.556-.053-.415-.084a4.5,4.5,0,0,1,1.779.322c.152.051.278.1.461.171l.251.1.379.175a12.519,12.519,0,0,1,1.791,1.06,12.1,12.1,0,0,1,2.173,1.97,10.183,10.183,0,0,1,.883,1.191c.16.232.244.411.28.436.078.112.025-.143-.027-.5s-.129-.885-.19-1.475c-.122-1.188-.2-2.657-.236-4.212s-.034-3.224.017-4.935c.091-3.426.327-7.028.653-10.679.674-7.314,1.625-14.837,2.735-22.383,1.138-7.548,2.366-15.149,3.736-22.743.679-3.8,1.361-7.6,2.086-11.39l1.077-5.679,1.1-5.55.063-.327a19.829,19.829,0,0,0-38.906-7.687C142.5,154.857,142.462,155.053,142.443,155.152Z" transform="translate(-134.054 -138.769)" fill="#314fa5"/>
          </g>
        </g>
        <g id="Grupo_132423" data-name="Grupo 132423" transform="translate(81.31 86.375)">
          <path id="Trazado_149923" data-name="Trazado 149923" d="M176.442,180.033A16.685,16.685,0,0,0,173.6,196.1c1.825,5,6.674,10.207,12.4,9.822,1.009-.07,1.016-1.65,0-1.58-5.3.356-9.676-4.764-11.137-9.43a15.067,15.067,0,0,1,2.7-13.762c.624-.79-.489-1.915-1.117-1.117Z" transform="translate(-172.64 -179.759)" fill="#1c2b74"/>
        </g>
        <g id="Grupo_132424" data-name="Grupo 132424" transform="translate(39.122 32.248)">
          <path id="Trazado_149924" data-name="Trazado 149924" d="M154.612,195.169q2.813-19.9,5.628-39.806l-1.981-.546,0,.023c-.181,1.294,1.8,1.852,1.981.548l0-.025c.181-1.292-1.8-1.852-1.981-.546q-2.838,19.9-5.628,39.806c-.183,1.292,1.8,1.852,1.981.546Z" transform="translate(-152.619 -154.073)" fill="#1c2b74"/>
        </g>
        <g id="Grupo_132426" data-name="Grupo 132426" transform="translate(24.719 107.606)">
          <g id="Grupo_132425" data-name="Grupo 132425">
            <path id="Trazado_149925" data-name="Trazado 149925" d="M152.641,190.057l-6.06-.221c-1.062-.04-1.06,1.61,0,1.648l6.06.223c1.062.038,1.06-1.61,0-1.65Z" transform="translate(-145.784 -189.835)" fill="#1c2b74"/>
          </g>
        </g>
        <g id="Grupo_132429" data-name="Grupo 132429" transform="translate(25.943 106.426)">
          <g id="Grupo_132428" data-name="Grupo 132428">
            <g id="Grupo_132427" data-name="Grupo 132427">
              <path id="Trazado_149926" data-name="Trazado 149926" d="M155.614,191.045a14.511,14.511,0,0,0-7.59,6.467.889.889,0,0,1-1.534-.9,16.411,16.411,0,0,1,8.652-7.283c1.073-.4,1.536,1.317.472,1.711Z" transform="translate(-146.365 -189.275)" fill="#1c2b74"/>
            </g>
          </g>
        </g>
        <g id="Grupo_132442" data-name="Grupo 132442" transform="translate(88.646 23.387)">
          <g id="Grupo_132430" data-name="Grupo 132430" transform="translate(18.848 6.383)">
            <rect id="Rectángulo_35429" data-name="Rectángulo 35429" width="95.929" height="73.818" transform="translate(0 94.242) rotate(-79.24)" fill="#171612"/>
          </g>
          <g id="Grupo_132431" data-name="Grupo 132431" transform="translate(15.515 5.75)">
            <rect id="Rectángulo_35430" data-name="Rectángulo 35430" width="95.929" height="73.818" transform="translate(0 94.243) rotate(-79.24)" fill="#171612"/>
          </g>
          <g id="Grupo_132432" data-name="Grupo 132432" transform="translate(51.726)">
            <path id="Trazado_149927" data-name="Trazado 149927" d="M200.668,159.15s2.988-5.283,8.248-4.118c0,0,2.046-5.165,7.114-5.165a30.872,30.872,0,0,1,13.054,2.824c3.119,1.559,3.07,6.459,3.07,6.459s3.458.946,4.821,2.9a6.323,6.323,0,0,1,1.018,4.2Z" transform="translate(-200.668 -149.868)" fill="#171612"/>
          </g>
          <g id="Grupo_132439" data-name="Grupo 132439" transform="translate(0 33.237)">
            <g id="Grupo_132438" data-name="Grupo 132438">
              <g id="Grupo_132437" data-name="Grupo 132437">
                <g id="Grupo_132436" data-name="Grupo 132436">
                  <g id="Grupo_132435" data-name="Grupo 132435">
                    <g id="Grupo_132434" data-name="Grupo 132434">
                      <g id="Grupo_132433" data-name="Grupo 132433">
                        <path id="Trazado_149928" data-name="Trazado 149928" d="M177.726,208.591c3.852,5.978,11.933,7.358,18.04,3.713,3.22-1.924,6.933-3.74,10.193-4.311,7.824-1.372,17.45-.818,21.205-2.628,5.544-2.672-.634-5.093-1.443-5.287a92.26,92.26,0,0,0-12.6-1.726s13.278-2.434,18.464-1.256,8.947-1.783,4.737-5.649-19.4-4.227-23.63-3.19c0,0,7.8-3.614,14.877-2.251s9.79.9,12.551-.044.31-6.273-9.615-7.925-14.144.209-18.8,1.755a53.319,53.319,0,0,1,8.821-5.618c5.782-3.047,13.834-.818,16.144-3.972,2.362-3.226-7.025-5.384-12.734-4.259s-9.957,1.46-16.162,5.563-11.992,8.239-15.115,11.59-15.8,13.8-16.506,20.362A8.157,8.157,0,0,0,177.726,208.591Z" transform="translate(-176.121 -165.641)" fill="#eaad8f"/>
                      </g>
                    </g>
                  </g>
                </g>
              </g>
            </g>
          </g>
          <g id="Grupo_132441" data-name="Grupo 132441" transform="translate(7.661 36.845)">
            <g id="Grupo_132440" data-name="Grupo 132440">
              <path id="Trazado_149929" data-name="Trazado 149929" d="M179.757,190.269s5.525-12.85,9.312-15.672,8-9.1,10.106-6.716-3.285,9.955-3.285,9.955Z" transform="translate(-179.757 -167.353)" fill="#eaad8f"/>
            </g>
          </g>
        </g>
      </g>
    </g>
    <g id="Grupo_132491" data-name="Grupo 132491" transform="translate(-252.745 3564.021)">
      <g id="Grupo_132481" data-name="Grupo 132481" transform="translate(576.87 36.979)">
        <g id="Grupo_132474" data-name="Grupo 132474">
          <g id="Grupo_132451" data-name="Grupo 132451">
            <g id="Grupo_132450" data-name="Grupo 132450">
              <g id="Grupo_132449" data-name="Grupo 132449">
                <g id="Grupo_132448" data-name="Grupo 132448">
                  <g id="Grupo_132447" data-name="Grupo 132447">
                    <g id="Grupo_132446" data-name="Grupo 132446">
                      <g id="Grupo_132445" data-name="Grupo 132445">
                        <circle id="Elipse_4974" data-name="Elipse 4974" cx="42.347" cy="42.347" r="42.347" transform="matrix(0.974, -0.228, 0.228, 0.974, 0, 19.283)" fill="#c8baae"/>
                      </g>
                    </g>
                  </g>
                </g>
              </g>
            </g>
          </g>
          <g id="Grupo_132458" data-name="Grupo 132458" transform="translate(8.529 3.017)">
            <g id="Grupo_132457" data-name="Grupo 132457">
              <g id="Grupo_132456" data-name="Grupo 132456">
                <g id="Grupo_132455" data-name="Grupo 132455">
                  <g id="Grupo_132454" data-name="Grupo 132454">
                    <g id="Grupo_132453" data-name="Grupo 132453">
                      <g id="Grupo_132452" data-name="Grupo 132452">
                        <circle id="Elipse_4975" data-name="Elipse 4975" cx="42.347" cy="42.347" r="42.347" fill="#c04d3a"/>
                      </g>
                    </g>
                  </g>
                </g>
              </g>
            </g>
          </g>
          <g id="Grupo_132466" data-name="Grupo 132466" transform="translate(16.449 10.937)">
            <g id="Grupo_132465" data-name="Grupo 132465">
              <g id="Grupo_132464" data-name="Grupo 132464">
                <g id="Grupo_132463" data-name="Grupo 132463">
                  <g id="Grupo_132462" data-name="Grupo 132462">
                    <g id="Grupo_132461" data-name="Grupo 132461">
                      <g id="Grupo_132460" data-name="Grupo 132460">
                        <g id="Grupo_132459" data-name="Grupo 132459">
                          <path id="Trazado_149930" data-name="Trazado 149930" d="M629.636,135.323A34.427,34.427,0,1,0,595.208,100.9,34.466,34.466,0,0,0,629.636,135.323Z" transform="translate(-595.208 -66.47)" fill="#fff"/>
                        </g>
                      </g>
                    </g>
                  </g>
                </g>
              </g>
            </g>
          </g>
          <g id="Grupo_132473" data-name="Grupo 132473" transform="translate(16.449 10.937)">
            <g id="Grupo_132472" data-name="Grupo 132472">
              <g id="Grupo_132471" data-name="Grupo 132471">
                <g id="Grupo_132470" data-name="Grupo 132470">
                  <g id="Grupo_132469" data-name="Grupo 132469">
                    <g id="Grupo_132468" data-name="Grupo 132468">
                      <g id="Grupo_132467" data-name="Grupo 132467">
                        <path id="Trazado_149931" data-name="Trazado 149931" d="M595.208,100.9q0,1.374.108,2.721a34.426,34.426,0,0,1,68.638,0c.07-.9.108-1.8.108-2.721a34.427,34.427,0,1,0-68.853,0Z" transform="translate(-595.208 -66.47)" fill="#c8baae"/>
                      </g>
                    </g>
                  </g>
                </g>
              </g>
            </g>
          </g>
        </g>
        <g id="Grupo_132480" data-name="Grupo 132480" transform="translate(48.451 24.766)">
          <g id="Grupo_132479" data-name="Grupo 132479">
            <g id="Grupo_132478" data-name="Grupo 132478">
              <g id="Grupo_132477" data-name="Grupo 132477">
                <g id="Grupo_132476" data-name="Grupo 132476">
                  <g id="Grupo_132475" data-name="Grupo 132475">
                    <path id="Trazado_149932" data-name="Trazado 149932" d="M611.327,95.661a.859.859,0,0,0,.563.532l27.134,8.116a.861.861,0,1,0,.494-1.649l-26.477-7.921,1.337-20.41a.861.861,0,0,0-1.719-.112L611.277,95.31A.859.859,0,0,0,611.327,95.661Z" transform="translate(-611.275 -73.413)" fill="#171612"/>
                  </g>
                </g>
              </g>
            </g>
          </g>
        </g>
      </g>
      <g id="Grupo_132483" data-name="Grupo 132483" transform="translate(646.228 309.395)">
        <g id="Grupo_132482" data-name="Grupo 132482" transform="translate(0 0)">
          <path id="Trazado_149933" data-name="Trazado 149933" d="M648.52,204.986a23.868,23.868,0,1,0,23.867,23.867A23.895,23.895,0,0,0,648.52,204.986Zm-4.874,2.466a32.569,32.569,0,0,0-3.083,3.784,31.354,31.354,0,0,0-3.215,5.868h-7.354A22.026,22.026,0,0,1,643.646,207.452ZM628.9,219.022h7.722a29.461,29.461,0,0,0-1.54,8.363h-8.463A21.667,21.667,0,0,1,628.9,219.022Zm-2.324,10.283h8.495a33.886,33.886,0,0,0,1.195,8.361h-7.847A21.691,21.691,0,0,1,626.577,229.305Zm2.8,10.281h7.493a26.68,26.68,0,0,0,4.149,7.6,24.1,24.1,0,0,0,2.942,3.131A22.152,22.152,0,0,1,629.379,239.587Zm18.181,11.058a22.591,22.591,0,0,1-8.636-11.058h8.636Zm0-12.978h-9.3a31.583,31.583,0,0,1-1.271-8.361H647.56Zm0-10.281H637.006a27.553,27.553,0,0,1,1.653-8.363h8.9Zm0-10.281h-8.12a29.355,29.355,0,0,1,2.669-4.724,28.345,28.345,0,0,1,4.844-5.42c.2-.014.4-.026.607-.034Zm22.859,10.281h-8.242a29.453,29.453,0,0,0-1.54-8.363h7.5A21.709,21.709,0,0,1,670.42,227.385ZM667.046,217.1h-7.132a31.234,31.234,0,0,0-3.215-5.868,32.107,32.107,0,0,0-3.022-3.719A22.056,22.056,0,0,1,667.046,217.1ZM649.48,206.926c.283.014.568.03.853.056a29.741,29.741,0,0,1,7.485,10.122H649.48Zm0,12.1h9.12a27.456,27.456,0,0,1,1.657,8.363H649.48Zm0,10.283H660.27a31.536,31.536,0,0,1-1.277,8.361H649.48Zm0,21.473V239.587h8.863a24.675,24.675,0,0,1-3.563,6.36A20.05,20.05,0,0,1,649.48,250.779Zm3.888-.516a24.425,24.425,0,0,0,2.872-3.071,26.58,26.58,0,0,0,4.149-7.6h7.27A21.866,21.866,0,0,1,653.368,250.263Zm7.626-12.6a33.886,33.886,0,0,0,1.2-8.361h8.272a21.693,21.693,0,0,1-1.842,8.361Z" transform="translate(-624.651 -204.986)" fill="#cabeb0"/>
        </g>
      </g>
      <g id="Grupo_132486" data-name="Grupo 132486" transform="translate(570.745 155.764)">
        <g id="Grupo_132484" data-name="Grupo 132484">
          <circle id="Elipse_4976" data-name="Elipse 4976" cx="28.853" cy="28.853" r="28.853" transform="translate(0 40.804) rotate(-45)" fill="#539380"/>
        </g>
        <g id="Grupo_132485" data-name="Grupo 132485" transform="translate(25.236 30.651)">
          <path id="Trazado_149934" data-name="Trazado 149934" d="M593.395,149.285l-9.979-9.979,4.171-4.171,5.808,5.809,16.986-16.986,4.171,4.171Z" transform="translate(-583.415 -123.957)" fill="#fff"/>
        </g>
      </g>
      <g id="Grupo_132490" data-name="Grupo 132490" transform="translate(635.418 400.036)">
        <g id="Grupo_132488" data-name="Grupo 132488">
          <g id="Grupo_132487" data-name="Grupo 132487">
            <circle id="Elipse_4977" data-name="Elipse 4977" cx="28.853" cy="28.853" r="28.853" transform="translate(0 56.182) rotate(-76.801)" fill="#c04d3a"/>
          </g>
        </g>
        <g id="Grupo_132489" data-name="Grupo 132489" transform="translate(19.88 19.88)">
          <path id="Trazado_149935" data-name="Trazado 149935" d="M603.879,175.658l9.52,9.516-5.283,5.283-9.516-9.521-9.521,9.521-5.278-5.283,9.516-9.516-9.516-9.521,5.278-5.278,9.521,9.516,9.516-9.516,5.283,5.278Z" transform="translate(-583.802 -160.859)" fill="#fff"/>
        </g>
      </g>
    </g>
  </g>
</svg>
