<svg xmlns="http://www.w3.org/2000/svg" width="361.656" height="392.751" viewBox="0 0 361.656 392.751">
  <g id="img4" transform="translate(-254 -3426.011)">
    <path id="Trazado_148788" data-name="Trazado 148788" d="M-5619.141-856.675c.01-.891.033-1.78.033-2.673,0-123.93-100.135-224.478-223.954-225.254V-1217.45c197.234.779,356.882,160.8,356.882,358.1,0,.892-.009,1.782-.017,2.673Z" transform="translate(6097.062 4674.45)" fill="#bcbcbc" style="isolation: isolate"/>
    <g id="Grupo_134491" data-name="Grupo 134491" transform="translate(236.148 3429.678)">
      <g id="Grupo_134497" data-name="Grupo 134497" transform="translate(38.806 88.356)">
        <path id="Trazado_151263" data-name="Trazado 151263" d="M104.8,192.637c-2.671,7.371,1.076,22.5,1.471,29.994.558,10.605-.66,31.685-1.507,42.28a98.8,98.8,0,0,0,3.178,36c1.868,6.688,3.907,20.04,3.873,26.984-.037,7.633-59.935,103.9-59.935,103.9h99.66s18.211-51.224,31.827-72.522c6.5-10.171,30.614-26.773,30.614-26.773l-1.723-82.562s26.294-18.473,30.255-22.038c6.489-5.839,7.487-30.267-9.937-22.406-29.114,13.137-31.714,29.189-31.714,29.189l-60.313,28.686L129.86,208.929S108.522,182.355,104.8,192.637Z" transform="translate(-41.685 -131.065)" fill="#ffaf9a"/>
        <path id="Trazado_151264" data-name="Trazado 151264" d="M219.357,339.39c-15.478,2.65-70.606.381-77.168-1.132-8.985-2.071-10.971-9.771-11.209-13.927-.38-6.629,1.723-20.2.4-28.4-1.507-9.36-4.557-18.587-3.966-28.053.2-3.341.774-6.646,1.259-9.966a211.412,211.412,0,0,0,.872-54.389,14.34,14.34,0,0,0-1.6-5.949,7.556,7.556,0,0,0-6.892-3.523,7.261,7.261,0,0,0-1.969.45,12.017,12.017,0,0,1,.506-1.864c3.727-10.281,25.064,16.287,25.064,16.287l10.689,54.438L215.66,234.68s1.8-11.1,19.17-22.405q.433,1.414.8,2.849a108.1,108.1,0,0,1,2.955,21.9c1.643-1.156,3.319-2.271,4.97-3.406,4.226-2.912,8.418-6.091,11.294-10.352s4.283-9.8,2.511-14.627c-.894-2.427-2.257-3.432-4.41-4.585a1.472,1.472,0,0,0-.147-.077c11.687-.83,10.232,18.769,4.507,23.924-2.165,1.95-10.993,8.345-18.558,13.748v0c-6.28,4.487-11.7,8.284-11.7,8.284L228,294.962c-3.663,12.131,2.066,33.549.779,37.536Z" transform="translate(-56.486 -131.066)" fill="#ff9c84"/>
        <path id="Trazado_151265" data-name="Trazado 151265" d="M257.549,265.115,285,259.2c3.029,23.374,3.645,46.632-.257,68.75L258.2,344.14Z" transform="translate(-86.977 -146.244)" fill="#ff9c84"/>
        <g id="Grupo_134491-2" data-name="Grupo 134491" transform="translate(75.803)">
          <path id="Rectángulo_35505" data-name="Rectángulo 35505" d="M6.135,0H97.743a6.135,6.135,0,0,1,6.135,6.135V190.7a12.27,12.27,0,0,1-12.27,12.27H12.27A12.27,12.27,0,0,1,0,190.7V6.135A6.135,6.135,0,0,1,6.135,0Z" fill="#292d33"/>
          <path id="Rectángulo_35506" data-name="Rectángulo 35506" d="M2.629,0H96.488a2.629,2.629,0,0,1,2.629,2.629V178.4a7.888,7.888,0,0,1-7.888,7.888H7.888A7.888,7.888,0,0,1,0,178.4V2.629A2.629,2.629,0,0,1,2.629,0Z" transform="translate(2.38 6.792)" fill="#3e2ea6"/>
        </g>
        <g id="Grupo_134493" data-name="Grupo 134493" transform="translate(44.98 67.073)">
          <rect id="Rectángulo_35507" data-name="Rectángulo 35507" width="140.106" height="28.003" rx="2.938" transform="translate(4.86 4.86)" fill="#e0e2e2" opacity="0.36" style="mix-blend-mode: multiply;isolation: isolate"/>
          <rect id="Rectángulo_35508" data-name="Rectángulo 35508" width="140.106" height="28.003" rx="2.938" transform="translate(0)" fill="#fff3eb"/>
          <g id="Grupo_134492" data-name="Grupo 134492" transform="translate(4.27 3.575)">
            <path id="Trazado_151266" data-name="Trazado 151266" d="M112.928,204.944l3.388,6.864,7.575,1.1-5.482,5.343L119.7,225.8l-6.776-3.562-6.776,3.562,1.294-7.545-5.482-5.343,7.575-1.1Z" transform="translate(-101.965 -204.944)" fill="#f2d9d4"/>
            <path id="Trazado_151267" data-name="Trazado 151267" d="M112.928,204.944l3.388,6.864,7.575,1.1-5.482,5.343L119.7,225.8l-6.776-3.562-6.776,3.562,1.294-7.545-5.482-5.343,7.575-1.1Z" transform="translate(-101.965 -204.944)" fill="#ffaa53"/>
            <path id="Trazado_151268" data-name="Trazado 151268" d="M148.079,204.944l3.388,6.864,7.575,1.1-5.482,5.343,1.294,7.545-6.776-3.562L141.3,225.8l1.294-7.545-5.482-5.343,7.575-1.1Z" transform="translate(-109.706 -204.944)" fill="#f2d9d4"/>
            <path id="Trazado_151269" data-name="Trazado 151269" d="M183.23,204.944l3.388,6.864,7.575,1.1-5.482,5.343,1.294,7.545-6.776-3.562-6.776,3.562,1.294-7.545-5.482-5.343,7.575-1.1Z" transform="translate(-117.447 -204.944)" fill="#f2d9d4"/>
            <path id="Trazado_151270" data-name="Trazado 151270" d="M218.38,204.944l3.388,6.864,7.575,1.1-5.482,5.343,1.294,7.545-6.776-3.562L211.6,225.8l1.294-7.545-5.482-5.343,7.575-1.1Z" transform="translate(-125.188 -204.944)" fill="#f2d9d4"/>
            <path id="Trazado_151271" data-name="Trazado 151271" d="M253.531,204.944l3.388,6.864,7.575,1.1-5.482,5.343,1.294,7.545-6.776-3.562-6.776,3.562,1.294-7.545-5.482-5.343,7.575-1.1Z" transform="translate(-132.928 -204.944)" fill="#f2d9d4"/>
          </g>
        </g>
        <g id="Grupo_134494" data-name="Grupo 134494" transform="translate(170.854 111.316)">
          <path id="Trazado_151272" data-name="Trazado 151272" d="M286.418,257.273c-7.69-.958-20.1,2.092-26.145,6.968-3.862,3.118-2.832,20.909,1.955,21.552,10.055,1.349,19.411-1.211,25.412-3.612C294.239,279.542,293.306,258.131,286.418,257.273Z" transform="translate(-257.911 -257.098)" fill="#ffaf9a"/>
          <path id="Trazado_151273" data-name="Trazado 151273" d="M287.638,282.195c-6,2.4-15.352,4.958-25.408,3.614-3.741-.506-5.183-11.463-3.8-17.721a41.159,41.159,0,0,0,1.125,10.548,9.335,9.335,0,0,0,2.651,4.888c1.92,1.624,4.655,1.786,7.159,1.673a47.226,47.226,0,0,0,12.419-2.264,13.181,13.181,0,0,0,3.706-1.709,9.7,9.7,0,0,0,3.214-4.233,21.1,21.1,0,0,0,1.245-7.806,17.875,17.875,0,0,0-1.526-8.53,8.522,8.522,0,0,0-3.348-3.5q.7.042,1.351.126C293.306,258.143,294.241,279.557,287.638,282.195Z" transform="translate(-257.911 -257.111)" fill="#ff9c84"/>
          <path id="Trazado_151274" data-name="Trazado 151274" d="M264.877,267.9l.936,15.9s7.779-.7,12.015-3.063c3.365-1.874,3.723-14.891-.12-16.093S264.877,267.9,264.877,267.9Z" transform="translate(-259.445 -258.714)" fill="#fff3eb"/>
        </g>
        <g id="Grupo_134495" data-name="Grupo 134495" transform="translate(172.293 138.786)">
          <path id="Trazado_151275" data-name="Trazado 151275" d="M285.679,292.48c-6.99-.854-18.279,1.891-23.774,6.27-3.514,2.8-2.57,18.668,1.762,19.333,8.414,1.294,17.182-1.161,23.02-3.242C292.743,312.684,291.941,293.245,285.679,292.48Z" transform="translate(-259.757 -292.325)" fill="#ffaf9a"/>
          <path id="Trazado_151276" data-name="Trazado 151276" d="M286.687,314.933c-5.837,2.082-14.606,4.536-23.017,3.242-4.332-.661-5.281-16.534-1.765-19.332.19-.148.38-.3.584-.443.837.147-.543,1.8-1.05,4.1-1.265,5.743,1.337-5.691,15.133-7.3,4.125-.482,10.809,1.207,10.635.267a20.945,20.945,0,0,0-.83-2.721C291.989,294.8,292.51,312.859,286.687,314.933Z" transform="translate(-259.757 -292.418)" fill="#ff9c84"/>
          <path id="Trazado_151277" data-name="Trazado 151277" d="M266.089,302.027l.84,14.266s7.073-.638,10.925-2.757c3.061-1.684,3.4-13.362-.1-14.438S266.089,302.027,266.089,302.027Z" transform="translate(-261.151 -293.776)" fill="#fff3eb"/>
        </g>
        <g id="Grupo_134496" data-name="Grupo 134496" transform="translate(173.975 161.966)">
          <path id="Trazado_151278" data-name="Trazado 151278" d="M285.882,322.163c-6.186-.755-17.2,2.395-22.066,6.269-3.11,2.478-2.278,16.542,1.56,17.111a32.731,32.731,0,0,0,20.331-3.753C290.679,339.024,291.424,322.841,285.882,322.163Z" transform="translate(-261.913 -322.051)" fill="#ffaf9a"/>
          <path id="Trazado_151279" data-name="Trazado 151279" d="M285.706,341.833a32.71,32.71,0,0,1-20.331,3.755c-3.84-.57-4.669-14.635-1.561-17.11.119-.091.239-.19.366-.282a1.55,1.55,0,0,1,.232,1.034,4.8,4.8,0,0,1-.534,1.448,15.693,15.693,0,0,0-1.484,7.441,7.235,7.235,0,0,0,1.146,3.931,6.15,6.15,0,0,0,3.474,2.222,15.4,15.4,0,0,0,4.177.345,24.017,24.017,0,0,0,9.529-1.829,11.376,11.376,0,0,0,6.393-6.976,15.891,15.891,0,0,0,.443-3.558,24.48,24.48,0,0,0-1.392-10C291.395,323.442,290.593,339.118,285.706,341.833Z" transform="translate(-261.913 -322.095)" fill="#ff9c84"/>
          <path id="Trazado_151280" data-name="Trazado 151280" d="M267.519,331.53l.743,12.625s6.259-.565,9.669-2.44c2.708-1.49,3-11.825-.087-12.778S267.519,331.53,267.519,331.53Z" transform="translate(-263.147 -323.532)" fill="#fff3eb"/>
        </g>
        <path id="Trazado_151281" data-name="Trazado 151281" d="M80.82,420.445c14.18-20.073,63.421,1.095,92.806,24.316,3.619,2.859-9.395,35.953-9.395,35.953H38.806S70.806,434.622,80.82,420.445Z" transform="translate(-38.806 -179.987)" fill="#ff8a33"/>
        <path id="Trazado_151282" data-name="Trazado 151282" d="M189.657,482.561H171.62c6.574-9.95,13.038-20,16.586-31.324a7.922,7.922,0,0,0,.444-4.4,7.732,7.732,0,0,0-1.575-2.682,59.177,59.177,0,0,0-17.537-14.792c-4.858-2.682-10.3-4.64-14.7-8.086-.2-.156-.4-.312-.569-.468a182.983,182.983,0,0,1,44.783,25.8C202.671,449.467,189.657,482.561,189.657,482.561Z" transform="translate(-64.233 -181.834)" fill="#ff8a33" opacity="0.36" style="mix-blend-mode: multiply;isolation: isolate"/>
      </g>
      <g id="Grupo_134498" data-name="Grupo 134498" transform="translate(112.883 181.984)">
        <path id="Trazado_151283" data-name="Trazado 151283" d="M224.334,387.736c6.63,4.583,15.123,5.716,21.986,17.912,2.3,4.09,8.493,18.99,8.493,18.99h88.15s-33.043-53.5-34.138-60.663c-7.412-48.461-23.992-70.43-28.182-75.755-1.811-2.3-8.047-6.372-12.006-7.059-5.2-.9-8.83,5.079-13.238,3.67-16.974-5.425-15.009,4.973-23.316,1.764-15.3-5.912-18.814,5.671-27.9,5.378-5.942-.191-48.885-48.463-58.045-56.289-5.617-4.8-17.655,4.755-9.686,16.1C142.3,260.1,190.135,322,190.135,322s-6.436,12.026-5.038,16.566,7.56,17.526,13.146,22.764S219.968,384.716,224.334,387.736Z" transform="translate(-133.803 -234.414)" fill="#ffaf9a"/>
        <path id="Trazado_151284" data-name="Trazado 151284" d="M277.65,461.531c21.987-22.663,65.235-42.918,80.667-27.582,4.009,3.984,32,50.326,32,50.326H288.232S277.184,462.011,277.65,461.531Z" transform="translate(-165.478 -277.177)" fill="#ff8a33"/>
        <path id="Trazado_151285" data-name="Trazado 151285" d="M290.567,464.262c-.366,7.486,4.749,14.091,8.328,21.007H288.228s-11.042-22.263-10.582-22.746c11.9-12.266,30.029-23.822,46.608-29.413a82.019,82.019,0,0,0-9.5,4.7,83.053,83.053,0,0,0-18.988,14.98,19.884,19.884,0,0,0-4.016,5.552A16.819,16.819,0,0,0,290.567,464.262Z" transform="translate(-165.477 -278.17)" fill="#ff8a33" opacity="0.36" style="mix-blend-mode: multiply;isolation: isolate"/>
        <path id="Trazado_151286" data-name="Trazado 151286" d="M249.91,415.292c-1.389-3.132-2.75-6.076-3.592-7.572-6.864-12.2-15.357-13.327-21.987-17.913-4.367-3.018-20.5-21.173-26.086-26.407s-11.751-18.227-13.146-22.768,5.034-16.565,5.034-16.565-47.837-61.89-53.686-70.216c-2.577-3.672-3.058-7.158-2.344-10.029A42.3,42.3,0,0,0,137.809,252c3.105,4.834,54.287,67.758,56.116,70.93s4.453,12.713,3.018,17.487c-1.161,3.886-5.975,2.07-7.972-.161,1.658,5.9,4.2,14.5,8.134,18.967,29.813,33.833,48.739,34.621,51.6,44.876A33.629,33.629,0,0,1,249.91,415.292Z" transform="translate(-133.804 -236.486)" fill="#ff9c84"/>
        <path id="Trazado_151287" data-name="Trazado 151287" d="M237.27,301.118a14.892,14.892,0,0,0-2.324,4.52,4.344,4.344,0,0,1-.748,1.643,3.022,3.022,0,0,1-1.128.728,8.605,8.605,0,0,1-8.62-1.342C229.384,306.679,232.689,303.195,237.27,301.118Z" transform="translate(-153.765 -249.103)" fill="#ff9c84"/>
        <path id="Trazado_151288" data-name="Trazado 151288" d="M268.9,301.368a2.735,2.735,0,0,1-2.35,2.29,6.6,6.6,0,0,1-3.452-.581,47.255,47.255,0,0,1-5.936-3.011c-.06-.034-.12-.067-.173-.1.714.214,1.455.468,2.223.768,4.534,1.749,6.009-.547,9.167-2.116v.04C268.4,299.579,268.958,300.44,268.9,301.368Z" transform="translate(-160.931 -248.553)" fill="#ff9c84"/>
        <path id="Trazado_151289" data-name="Trazado 151289" d="M298.443,295.21a2.989,2.989,0,0,0-.875,2.364,4.58,4.58,0,0,1-.547,2.637,3.177,3.177,0,0,1-3.1.894,7.387,7.387,0,0,1-3.493-1.562c-.587-.481-1.1-1.049-1.663-1.556.247.073.5.154.761.233C292.607,299.209,295.318,296.571,298.443,295.21Z" transform="translate(-167.928 -247.802)" fill="#ff9c84"/>
        <path id="Trazado_151290" data-name="Trazado 151290" d="M359.747,405.922a83.96,83.96,0,0,0-9.668-6.243,10.835,10.835,0,0,0-4.687-1.655,11.464,11.464,0,0,0-5.154,1.482c1.97-2.958,5.5-4.48,7.818-7.171,4.421-5.141,3.325-12.859,1.983-19.5q-.19-.931-.381-1.863c1.75,6.917,3.332,14.589,4.627,23.075C354.553,395.773,356.676,400.2,359.747,405.922Z" transform="translate(-179.264 -264.486)" fill="#ff9c84"/>
        <path id="Trazado_151291" data-name="Trazado 151291" d="M145.592,236.567c.823.356,6.329,4.857,8.369,8.351.512.876-6.717,7.993-9.91,5.448-3.968-3.162-6.245-7.744-6.245-8.625S143.1,235.489,145.592,236.567Z" transform="translate(-134.685 -234.857)" fill="#fff3eb"/>
      </g>
      <g id="Grupo_134507" data-name="Grupo 134507" transform="translate(179.961 -3.668)">
        <g id="Grupo_134500" data-name="Grupo 134500">
          <circle id="Elipse_5059" data-name="Elipse 5059" cx="70.55" cy="70.55" r="70.55" transform="translate(0 99.773) rotate(-45)" fill="#dad6f7"/>
          <g id="Grupo_134499" data-name="Grupo 134499" transform="translate(77.61 165.572)">
            <path id="Trazado_151292" data-name="Trazado 151292" d="M351.435,208.663s-12.11,16.794-32.082,18.068c0,0,11.473-5.33,13.6-18.068Z" transform="translate(-319.353 -208.663)" fill="#bee3ed"/>
          </g>
        </g>
        <g id="Grupo_134506" data-name="Grupo 134506" transform="translate(11.305 37.672)">
          <path id="Trazado_151293" data-name="Trazado 151293" d="M358.394,49.91c3.61,1.517,9.5,6.908,7.87,20.245-.769,6.275-3.446,8.07-1.631,12.124s8.089,9.07,6.934,13.991-5.7,14.494-9.29,16.145-40.312,4.78-44.19-.338S309.994,96.937,312.8,91.3s5.6-5.279,5.371-9.025-2.9-9.533-3.072-13.365c-.3-6.741,4.046-16.853,14.672-21.3C333.291,46.14,358.394,49.91,358.394,49.91Z" transform="translate(-251.403 -45.222)" fill="#292d33"/>
          <path id="Trazado_151294" data-name="Trazado 151294" d="M377.245,170.257a23.752,23.752,0,0,1-2.04,7.009,70.653,70.653,0,0,1-70.093,10.748l-.741-6.538a5.788,5.788,0,0,1-4.533,2.11,19.767,19.767,0,0,1-5.893-1.177c-6.973-2.345-15.115-7.784-18.871-12.116a13.824,13.824,0,0,1-3.635-7.523,9.284,9.284,0,0,1,.061-2.449,2.924,2.924,0,0,1,.052-.358c.6-3.217,3.252-6.555,6.512-6.772a8.616,8.616,0,0,1,3.522.444,6.749,6.749,0,0,1,3.348,2.458,46.4,46.4,0,0,0,5.622,4.533c.741-8.273,3.217-36.132,8.211-40.394,2.188-1.874,7.41-3.06,12.222-3.774,5.169-.776,9.867-1.02,9.867-1.02h21.81s4.79,1.853,9.837,3.221c3.844,1.046,7.767,2.449,9.685,4.193C372.159,131.908,377.62,165.446,377.245,170.257Z" transform="translate(-242.484 -60.234)" fill="#ffaa53"/>
          <path id="Trazado_151295" data-name="Trazado 151295" d="M334,115.434l-2.919.215s3.864,19.162,13.826,19.162c9.925,0,13.8-18.321,13.8-18.321l-2.9-1.056Z" transform="translate(-255.63 -60.233)" fill="#ff8a33"/>
          <g id="Grupo_134504" data-name="Grupo 134504" transform="translate(68.336)">
            <path id="Trazado_151296" data-name="Trazado 151296" d="M356.637,112.178s-4.016,16.89-10.907,16.89-10.907-16.89-10.907-16.89l.675-11.531h20.463Z" transform="translate(-324.79 -56.977)" fill="#ffaf9a"/>
            <path id="Trazado_151297" data-name="Trazado 151297" d="M335.559,100.647l-.462,7.876s6.289,6.778,10.693,6.878,10.731-6.233,10.731-6.233l-.5-8.521Z" transform="translate(-324.85 -56.977)" fill="#ff9c84"/>
            <ellipse id="Elipse_5060" data-name="Elipse 5060" cx="17.469" cy="20.934" rx="17.469" ry="20.934" transform="translate(3.718 13.505)" fill="#ffaf9a"/>
            <path id="Trazado_151298" data-name="Trazado 151298" d="M354.9,60.238s-19.8,7.873-26.113,6.268c-2.61-.664-2.212,8.8-2.212,8.8s-.938,0-4.049,0c-.207-4.712-2.122-19.247,2.474-23.752,5.875-5.759,20.563-10.89,30.8-2.512,0,0,5.041-1.4,7.47,2.583s.487,24.4.487,24.4h-3.125s-.646-8.319-1.668-10.049C358.1,64.518,356.261,65.679,354.9,60.238Z" transform="translate(-321.956 -44.644)" fill="#292d33"/>
            <g id="Grupo_134501" data-name="Grupo 134501" transform="translate(9.429 26.235)">
              <path id="Trazado_151299" data-name="Trazado 151299" d="M340.049,84.744c0,1.263-.668,2.288-1.492,2.288s-1.492-1.025-1.492-2.288.668-2.288,1.492-2.288S340.049,83.481,340.049,84.744Z" transform="translate(-334.712 -79.205)" fill="#292d33"/>
              <path id="Trazado_151300" data-name="Trazado 151300" d="M341.277,80.821a7.4,7.4,0,0,0-7.229-2.391" transform="translate(-334.048 -78.287)" fill="none" stroke="#292d33" stroke-miterlimit="10" stroke-width="1.118"/>
              <path id="Trazado_151301" data-name="Trazado 151301" d="M357.361,84.744c0,1.263.668,2.288,1.492,2.288s1.492-1.025,1.492-2.288-.668-2.288-1.492-2.288S357.361,83.481,357.361,84.744Z" transform="translate(-339.182 -79.205)" fill="#292d33"/>
              <path id="Trazado_151302" data-name="Trazado 151302" d="M354.935,80.821a7.4,7.4,0,0,1,7.229-2.391" transform="translate(-338.648 -78.287)" fill="none" stroke="#292d33" stroke-miterlimit="10" stroke-width="1.118"/>
            </g>
            <path id="Trazado_151303" data-name="Trazado 151303" d="M349.126,90.949c0,1.069,2.376,4.871,2.555,5.405s-2.079,1.069-2.555,1.009" transform="translate(-327.94 -54.841)" fill="none" stroke="#ff9c84" stroke-miterlimit="10" stroke-width="1.118"/>
            <path id="Trazado_151304" data-name="Trazado 151304" d="M343.609,104.113a29.039,29.039,0,0,1,8.6,0,5.546,5.546,0,0,0-8.6,0Z" transform="translate(-326.725 -57.289)" fill="#fff"/>
            <g id="Grupo_134502" data-name="Grupo 134502" transform="translate(0.108 25.712)">
              <path id="Trazado_151305" data-name="Trazado 151305" d="M326.59,80.691c-.352-1.478-2.992-4.279-4.124-2.5s.485,10.543,2.669,10.769S327,82.389,326.59,80.691Z" transform="translate(-322.095 -77.617)" fill="#ffaf9a"/>
              <path id="Trazado_151306" data-name="Trazado 151306" d="M325.239,80.72c-.209-.727-1.683-2.388-2.008-2.09a5.69,5.69,0,0,0-.543,2.226c0,.271.228-1.4.651-1.683s1.194,2.008,1.113,2.47a5.173,5.173,0,0,0-.57,2.388c.163,1.085.76,1.709,1.058,1.248s.353-1.547.381-1.276a6.855,6.855,0,0,1,0,4.043C325.132,88.667,326.8,86.131,325.239,80.72Z" transform="translate(-322.225 -77.832)" fill="#ff9c84"/>
            </g>
            <g id="Grupo_134503" data-name="Grupo 134503" transform="translate(37.477 25.712)">
              <path id="Trazado_151307" data-name="Trazado 151307" d="M370.309,80.691c.352-1.478,2.993-4.279,4.125-2.5s-.486,10.543-2.669,10.769S369.905,82.389,370.309,80.691Z" transform="translate(-370.017 -77.617)" fill="#ffaf9a"/>
              <path id="Trazado_151308" data-name="Trazado 151308" d="M372.1,80.72c.209-.727,1.682-2.388,2.008-2.09a5.691,5.691,0,0,1,.543,2.226c0,.271-.228-1.4-.651-1.683s-1.194,2.008-1.113,2.47a5.182,5.182,0,0,1,.57,2.388c-.163,1.085-.76,1.709-1.058,1.248s-.353-1.547-.381-1.276a6.848,6.848,0,0,0,0,4.043C372.211,88.667,370.548,86.131,372.1,80.72Z" transform="translate(-370.329 -77.832)" fill="#ff9c84"/>
            </g>
          </g>
          <path id="Trazado_151309" data-name="Trazado 151309" d="M280.058,164.831a5.972,5.972,0,0,1,3.965,1.946c1.466,1.4,4.973,7.186,1.546,12.518-2.911,4.527-7.824,3.156-9.906,1.5a12.7,12.7,0,0,1-3.951-7.667C271.506,169.963,274.983,164.907,280.058,164.831Z" transform="translate(-242.554 -71.111)" fill="#ff8a33" opacity="0.36" style="mix-blend-mode: multiply;isolation: isolate"/>
          <g id="Grupo_134505" data-name="Grupo 134505" transform="translate(0 84.387)">
            <path id="Trazado_151310" data-name="Trazado 151310" d="M271.871,160.4s-2.98-4.62-4.4-5.786-4.35-1.459-7.191-1.719c-2.064-.189-5.009.621-6.245.611-3.83-.03-6.907.364-7.9.892-1.368.724.323,3.051,1.073,3.135,2.162.241,3,.271,3,.271s-8.687,1.576-13.815,3.088c-1.393.411-1.014,3.235,1,2.877,3.986-.711,10.54-1.68,10.54-1.68s-9.272,2.792-12.847,4.188c-1.558.609-.463,3.33,1.143,2.979,4.453-.973,13.135-3.159,13.135-3.159s-6.281,2.233-11.6,4.085c-1.5.521.232,2.459,1.5,2.172,3.306-.752,12.141-3.225,12.141-3.225s-5.927,1.85-8.7,2.938c-1.036.405.229,1.923,1.689,1.665,4.623-.817,9.655-1.925,9.655-1.925l10.308-.873s1.91,4.018,4.135,5.3c1.889,1.092,5.529,1.948,8.313-2.66,2.166-3.585-1-9.431-1-9.431Z" transform="translate(-234.322 -152.862)" fill="#ffaf9a"/>
            <path id="Trazado_151311" data-name="Trazado 151311" d="M272.815,173.217s6-1.993,6-9.961" transform="translate(-242.799 -155.151)" fill="none" stroke="#ff9c84" stroke-linecap="round" stroke-linejoin="round" stroke-width="0.559"/>
            <path id="Trazado_151312" data-name="Trazado 151312" d="M254.684,158.527h3.629a2.365,2.365,0,0,0,.754-2.36" transform="translate(-238.806 -153.59)" fill="none" stroke="#ff9c84" stroke-linecap="round" stroke-linejoin="round" stroke-width="0.559"/>
            <path id="Trazado_151313" data-name="Trazado 151313" d="M259.987,160.875s2.614,4.116,10.39,3.66c0,0-8.776-.306-9.382,6.4" transform="translate(-239.974 -154.627)" fill="none" stroke="#ff9c84" stroke-linecap="round" stroke-linejoin="round" stroke-width="0.559"/>
          </g>
          <path id="Trazado_151314" data-name="Trazado 151314" d="M310.708,125.431s6.493,2.689,7.5,13.646c.869,9.494-1.524,36.178-5.172,44.6" transform="translate(-251.143 -62.435)" fill="none" stroke="#ff8a33" stroke-linecap="round" stroke-linejoin="round" stroke-width="1.118"/>
          <path id="Trazado_151315" data-name="Trazado 151315" d="M381.742,189.434c-.041-.782-.122-2.6-.122-3.985a68.659,68.659,0,0,1,1.543-12.779c.81-4.385,5.055-8.595,5.116-13.023.105-8.673-1.8-12.962-2.623-19.29a68.258,68.258,0,0,1-.462-11.707" transform="translate(-266.759 -63.143)" fill="none" stroke="#ff8a33" stroke-linecap="round" stroke-linejoin="round" stroke-width="1.118"/>
          <path id="Trazado_151316" data-name="Trazado 151316" d="M321.731,179.049c3.093,1.811,6.87,2.068,10.437,1.7s7.052-1.308,10.613-1.719a36.356,36.356,0,0,1,19.567,3.213" transform="translate(-253.571 -74.186)" fill="none" stroke="#ff8a33" stroke-linecap="round" stroke-linejoin="round" stroke-width="1.118"/>
        </g>
      </g>
      <g id="Grupo_134508" data-name="Grupo 134508" transform="translate(120.946 46.276)">
        <rect id="Rectángulo_35509" data-name="Rectángulo 35509" width="8.794" height="16.79" transform="translate(0 0.735)" fill="#0f0140"/>
        <path id="Trazado_151317" data-name="Trazado 151317" d="M157.565,77.906V61.115s3.84.1,5.115,0c2.4-.18,6.082-.8,8.486-.731a52.376,52.376,0,0,1,6.8.413c1.5.327,2.331,2.619,1.112,3.7,1.128.873,1.2,3.909-.077,4.55,1.22.772,1.431,3.6-.046,4.715a2.281,2.281,0,0,1-.923,4.149c-2.683.173-7.431-.066-7.505.295-.263,1.286.085,3.344.127,5.3.033,1.5.374,3.118-.58,4.279-.606.738-2.753,1.926-2.934.989-.548-2.838-.813-5.429-2.144-8.071C164.647,80,157.565,77.906,157.565,77.906Z" transform="translate(-147.099 -60.38)" fill="#ffaf9a"/>
      </g>
      <g id="Grupo_134512" data-name="Grupo 134512" transform="translate(66 75.855)">
        <circle id="Elipse_5061" data-name="Elipse 5061" cx="19.293" cy="19.293" r="19.293" fill="#ffd77d"/>
        <path id="Trazado_151318" data-name="Trazado 151318" d="M90.243,136.6a16.536,16.536,0,0,1,12.756,0s-2.845-2.927-6.379-2.927S90.243,136.6,90.243,136.6Z" transform="translate(-77.328 -106.1)" fill="#fff3eb"/>
        <g id="Grupo_134511" data-name="Grupo 134511" transform="translate(9.978 15.537)">
          <g id="Grupo_134509" data-name="Grupo 134509">
            <path id="Trazado_151319" data-name="Trazado 151319" d="M91.1,121.246c0,1.661-1.036,3.008-2.314,3.008s-2.314-1.347-2.314-3.008,1.036-3.008,2.314-3.008S91.1,119.585,91.1,121.246Z" transform="translate(-86.476 -118.238)" fill="#ff8a33"/>
          </g>
          <g id="Grupo_134510" data-name="Grupo 134510" transform="translate(14.002)">
            <path id="Trazado_151320" data-name="Trazado 151320" d="M104.432,121.246c0,1.661,1.036,3.008,2.314,3.008s2.314-1.347,2.314-3.008-1.036-3.008-2.314-3.008S104.432,119.585,104.432,121.246Z" transform="translate(-104.432 -118.238)" fill="#ff8a33"/>
          </g>
        </g>
      </g>
      <g id="Grupo_134516" data-name="Grupo 134516" transform="translate(297.078 199.363)">
        <circle id="Elipse_5062" data-name="Elipse 5062" cx="19.293" cy="19.293" r="19.293" fill="#ffd77d"/>
        <path id="Trazado_151321" data-name="Trazado 151321" d="M386.579,294.991a16.543,16.543,0,0,1,12.756,0s-2.844-2.927-6.378-2.927S386.579,294.991,386.579,294.991Z" transform="translate(-373.664 -264.489)" fill="#fff3eb"/>
        <g id="Grupo_134515" data-name="Grupo 134515" transform="translate(8.466 13.263)">
          <g id="Grupo_134513" data-name="Grupo 134513">
            <path id="Trazado_151322" data-name="Trazado 151322" d="M387.442,279.634c0,1.661-1.036,3.008-2.314,3.008s-2.314-1.347-2.314-3.008,1.036-3.007,2.314-3.007S387.442,277.973,387.442,279.634Z" transform="translate(-381.301 -274.352)" fill="#ff8a33"/>
            <path id="Trazado_151323" data-name="Trazado 151323" d="M380.874,273.932s4.409-1.323,6.141,2.486" transform="translate(-380.874 -273.71)" fill="none" stroke="#ff8a33" stroke-miterlimit="10" stroke-width="1.5"/>
          </g>
          <g id="Grupo_134514" data-name="Grupo 134514" transform="translate(15.513)">
            <path id="Trazado_151324" data-name="Trazado 151324" d="M400.768,279.634c0,1.661,1.036,3.008,2.314,3.008s2.314-1.347,2.314-3.008-1.036-3.007-2.314-3.007S400.768,277.973,400.768,279.634Z" transform="translate(-400.768 -274.352)" fill="#ff8a33"/>
            <path id="Trazado_151325" data-name="Trazado 151325" d="M406.909,273.932s-4.409-1.323-6.141,2.486" transform="translate(-400.768 -273.71)" fill="none" stroke="#ff8a33" stroke-miterlimit="10" stroke-width="1.5"/>
          </g>
        </g>
      </g>
    </g>
  </g>
</svg>
