<svg xmlns="http://www.w3.org/2000/svg" xmlns:xlink="http://www.w3.org/1999/xlink" width="425.544" height="262.451" viewBox="0 0 425.544 262.451">
  <defs>
    <clipPath id="clip-path">
      <path id="Trazado_150267" data-name="Trazado 150267" d="M459.5,787.419c0,72.338,52.109,122.134,118.5,122.134S698.081,856.535,698.081,784.2,644.375,647.6,577.992,647.6,459.5,715.084,459.5,787.419Z" transform="translate(-459.497 -647.602)" fill="none"/>
    </clipPath>
    <linearGradient id="linear-gradient" x1="0.828" y1="0.045" x2="0.828" y2="1.007" gradientUnits="objectBoundingBox">
      <stop offset="0" stop-color="#f3a47f"/>
      <stop offset="1" stop-color="#f08a6b"/>
    </linearGradient>
  </defs>
  <g id="img9" transform="translate(-269.5 -4845.107)">
    <path id="Sustracción_2" data-name="Sustracción 2" d="M212.272,0a213.88,213.88,0,0,0-42.78,4.313,211.117,211.117,0,0,0-75.9,31.938,212.875,212.875,0,0,0-76.907,93.392A211.168,211.168,0,0,0,4.313,169.488,213.841,213.841,0,0,0,0,212.269c0,.294,0,.595,0,.888H78.747c0-.267,0-.549,0-.888a134.507,134.507,0,0,1,2.713-26.912,132.764,132.764,0,0,1,20.093-47.744A133.913,133.913,0,0,1,160.3,89.238a132.946,132.946,0,0,1,25.064-7.779,134.864,134.864,0,0,1,53.819,0,132.8,132.8,0,0,1,47.745,20.089A133.913,133.913,0,0,1,335.3,160.292a132.842,132.842,0,0,1,7.78,25.064,134.527,134.527,0,0,1,2.713,26.912c0,.3,0,.591,0,.888h78.748l0-.4c0-.163,0-.326,0-.488a213.836,213.836,0,0,0-4.313-42.78,211.115,211.115,0,0,0-31.941-75.9,212.888,212.888,0,0,0-93.394-76.9A211.221,211.221,0,0,0,255.051,4.313,213.871,213.871,0,0,0,212.272,0Z" transform="translate(270 4893.901)" fill="#3e2ea6" stroke="rgba(0,0,0,0)" stroke-miterlimit="10" stroke-width="1"/>
    <g id="Grupo_133573" data-name="Grupo 133573" transform="translate(-97.124 4197.505)">
      <circle id="Elipse_4980" data-name="Elipse 4980" cx="120.201" cy="120.201" r="120.201" transform="translate(459.124 669.15)" fill="#fefaf7"/>
      <g id="Grupo_133572" data-name="Grupo 133572" transform="translate(460.492 647.602)">
        <g id="Grupo_133571" data-name="Grupo 133571" clip-path="url(#clip-path)">
          <g id="Grupo_133570" data-name="Grupo 133570" transform="translate(20.524 7.849)">
            <g id="Grupo_133558" data-name="Grupo 133558">
              <path id="Trazado_150216" data-name="Trazado 150216" d="M643.128,815.812c12.332-9.591,11.661-21.12,3.4-26.445s-9.972-8.11-.132-28.248-4.562-18.247-12.082-28.567-1.6-18.47,0-30.556-10.232-19.1-19.273-23.9-21.512-21.38-31.586-26.657c-9.44-4.947-21.413,2.323-25.983,4.05-4.57-1.726-16.542-9-25.983-4.05-10.074,5.277-10.232,17.752-19.269,22.549s-30.45,17.287-28.852,29.373,7.52,20.237,0,30.556-21.926,8.429-12.083,28.566,8.125,22.923-.132,28.248-8.931,16.858,3.4,26.445-8.8,12.973-3.269,23.278,17.422,30.26,77.919,27.379a22.376,22.376,0,0,0,8.268-1.961,22.377,22.377,0,0,0,8.268,1.961c60.5,2.881,75.134-18.445,80.657-28.75S630.8,825.4,643.128,815.812Z" transform="translate(-465.098 -649.744)" fill="#502b3b"/>
              <g id="Grupo_133554" data-name="Grupo 133554" transform="translate(13.633 4.021)">
                <path id="Trazado_150217" data-name="Trazado 150217" d="M478.959,841.4c-2.038-6.509.15-13.274,2.36-19.1.367-.975.828-2.03,1.312-3.13,2.862-6.553,4.544-11.419.07-14.41a16.341,16.341,0,0,0-3.412-1.55,14.783,14.783,0,0,1-5.277-2.822c-3.317-3.067-3.474-8.092-2.158-11.712a22.5,22.5,0,0,1,3.02-5.376c1.458-2.074,2.613-3.716,2.646-6.428.048-4.46-2.84-9.415-4.746-12.687-11.016-18.906,3.811-30.791,10.144-35.867,5.358-4.3,2.726-10.265-2.016-19.646-.6-1.169-1.2-2.36-1.785-3.566-1.47-3.023-1.744-5.834-.817-8.359,2.016-5.493,9.129-8.612,17.363-12.226l3.229-1.422c7.887-3.533,11.031-9.752,14.666-16.942a86.2,86.2,0,0,1,5.724-10.137,11.348,11.348,0,0,1,7.612-4.958c8.594-1.528,18.833,5.666,19.262,5.974l-2.125,2.987c-.092-.07-9.411-6.615-16.5-5.351a7.712,7.712,0,0,0-5.222,3.416,84.083,84.083,0,0,0-5.482,9.722c-3.786,7.491-7.362,14.567-16.44,18.632l-3.254,1.437c-7.154,3.141-13.915,6.1-15.4,10.133-.579,1.576-.359,3.372.674,5.49.579,1.187,1.173,2.364,1.755,3.518,4.423,8.744,8.993,17.785,1.041,24.158-9.242,7.41-17.576,16.909-9.272,31.161,2.686,4.606,5.3,9.524,5.248,14.574-.048,3.848-1.7,6.212-3.313,8.5a18.947,18.947,0,0,0-2.576,4.519c-.869,2.4-.861,5.856,1.206,7.777a12.027,12.027,0,0,0,4.053,2.067,19.028,19.028,0,0,1,4.182,1.942c7.373,4.925,3.69,13.347,1.253,18.921-.458,1.044-.894,2.041-1.242,2.961-1.994,5.259-3.98,11.317-2.287,16.711Z" transform="translate(-468.818 -650.841)" fill="#603748"/>
              </g>
              <g id="Grupo_133555" data-name="Grupo 133555" transform="translate(36.106 107.454)">
                <path id="Trazado_150218" data-name="Trazado 150218" d="M482.064,767c-9.979-9.089-1.689-27.159,4.782-36.405,5.1-7.3,1.678-14.754-7.425-27.709-10.184-14.5.2-23.722.3-23.817l2.4,2.771c-.326.29-7.938,7.223.3,18.943,9.887,14.073,13.75,22.868,7.425,31.913-5.387,7.7-13.428,24.205-5.314,31.59Z" transform="translate(-474.95 -679.065)" fill="#603748"/>
              </g>
              <g id="Grupo_133556" data-name="Grupo 133556" transform="translate(96.56 4.02)">
                <path id="Trazado_150219" data-name="Trazado 150219" d="M558.642,841.4l-3.5-1.1c1.693-5.4-.293-11.456-2.291-16.711-.344-.92-.784-1.92-1.239-2.965-2.433-5.574-6.113-13.992,1.257-18.921a19.183,19.183,0,0,1,4.181-1.939,11.972,11.972,0,0,0,4.05-2.067c2.067-1.92,2.074-5.38,1.206-7.777a18.834,18.834,0,0,0-2.58-4.519c-1.6-2.283-3.262-4.647-3.306-8.5-.059-5.464,3.13-10.947,5.241-14.574,8.3-14.256-.022-23.751-9.268-31.161-7.952-6.373-3.379-15.41,1.041-24.154.586-1.154,1.18-2.334,1.759-3.522,1.03-2.118,1.25-3.914.671-5.49-1.481-4.031-8.238-6.992-15.4-10.137l-3.251-1.433c-9.078-4.064-12.654-11.141-16.44-18.632a83.584,83.584,0,0,0-5.486-9.722,7.7,7.7,0,0,0-5.222-3.416c-7.062-1.264-16.407,5.281-16.495,5.351l-2.125-2.987c.429-.308,10.675-7.505,19.255-5.974a11.363,11.363,0,0,1,7.619,4.958,86.742,86.742,0,0,1,5.724,10.137c3.635,7.19,6.78,13.409,14.666,16.942l3.225,1.422c8.235,3.614,15.348,6.732,17.367,12.222.927,2.529.652,5.339-.817,8.363-.59,1.206-1.191,2.4-1.785,3.573-4.746,9.378-7.377,15.344-2.019,19.639,6.333,5.076,21.16,16.957,10.144,35.867-1.906,3.276-4.793,8.235-4.742,12.687.029,2.716,1.18,4.354,2.642,6.428a22.573,22.573,0,0,1,3.02,5.376c1.312,3.621,1.154,8.645-2.155,11.712a14.812,14.812,0,0,1-5.277,2.822,16.4,16.4,0,0,0-3.408,1.547c-4.478,2.994-2.8,7.857.062,14.41.48,1.1.942,2.155,1.312,3.133C558.492,828.119,560.68,834.884,558.642,841.4Z" transform="translate(-491.446 -650.841)" fill="#603748"/>
              </g>
              <g id="Grupo_133557" data-name="Grupo 133557" transform="translate(133.444 107.454)">
                <path id="Trazado_150220" data-name="Trazado 150220" d="M512.378,766.993l-2.47-2.708c8.106-7.384.073-23.894-5.314-31.594-6.325-9.045-2.463-17.84,7.425-31.913,8.231-11.72.623-18.653.293-18.943l2.4-2.771c.106.1,10.485,9.316.3,23.817-9.1,12.955-12.53,20.405-7.421,27.712C514.064,739.837,522.35,757.908,512.378,766.993Z" transform="translate(-501.511 -679.065)" fill="#603748"/>
              </g>
            </g>
            <g id="Grupo_133559" data-name="Grupo 133559" transform="translate(24.941 80.462)">
              <path id="Trazado_150221" data-name="Trazado 150221" d="M494.063,677.316s-6.992-10.214-16.986-3.093c-4.537,3.229-8.92,15.318,0,26.2s20.757,6.747,21.109,1.785Z" transform="translate(-471.903 -671.7)" fill="#f7be91"/>
              <path id="Trazado_150222" data-name="Trazado 150222" d="M477.077,674.22a11.909,11.909,0,0,1,7.48-2.51c-1.151.092-6.6.927-9.231,8.682a24.686,24.686,0,0,0,1.752,20.031C468.157,689.538,472.54,677.448,477.077,674.22Z" transform="translate(-471.903 -671.697)" fill="#fddac1"/>
              <path id="Trazado_150223" data-name="Trazado 150223" d="M474.244,678.085s1.73-4.269,6-4,6.509,4.438,7.088,7.831c0,0-5.263-.674-5.416,4.511-.139,4.628,4.42,6.248,6.307,5.145,0,0-.344,2.594-4.768,2.9C478.11,694.837,470.912,687.936,474.244,678.085Z" transform="translate(-467.926 -665.378)" fill="#ffac70"/>
            </g>
            <g id="Grupo_133561" data-name="Grupo 133561" transform="translate(1.02 153.08)">
              <g id="Grupo_133560" data-name="Grupo 133560">
                <path id="Trazado_150224" data-name="Trazado 150224" d="M583.908,691.515c0,9.711-.44,21.032,0,26.976s6.992,5.1,15.253,3.734c8.6-1.418,24.979-5.842,37.9,15.993,13.779,23.3,24.832,41.969,24.832,41.969s-33.507,16.128-98.255,16.128-98.258-16.128-98.258-16.128,11.053-18.672,24.832-41.969c12.918-21.834,29.3-17.411,37.9-15.993,8.264,1.364,14.813,2.21,15.253-3.734s0-17.265,0-26.976Z" transform="translate(-465.376 -691.515)" fill="#ffbf91"/>
                <path id="Trazado_150225" data-name="Trazado 150225" d="M499.526,701.876c4.771,8.348,10.576,23.176,11.364,28.688s-5.684,8.99-5.684,8.99,14.586-.868,13.761-4.06S499.526,701.876,499.526,701.876Z" transform="translate(-374.376 -663.906)" fill="#ffac70"/>
                <path id="Trazado_150226" data-name="Trazado 150226" d="M499.01,701.876c-4.771,8.348-10.576,23.176-11.364,28.688s5.684,8.99,5.684,8.99-14.586-.868-13.761-4.06S499.01,701.876,499.01,701.876Z" transform="translate(-427.647 -663.906)" fill="#ffac70"/>
                <path id="Trazado_150227" data-name="Trazado 150227" d="M520.436,742.288l-13.244-33.074s16.8,19.922,21.076,31.205C525.856,741.042,523.236,741.669,520.436,742.288Z" transform="translate(-353.948 -644.352)" fill="#ffac70"/>
                <path id="Trazado_150228" data-name="Trazado 150228" d="M479.263,742.288l13.244-33.074s-16.8,19.922-21.076,31.205C473.843,741.042,476.464,741.669,479.263,742.288Z" transform="translate(-449.238 -644.352)" fill="#ffac70"/>
                <path id="Trazado_150229" data-name="Trazado 150229" d="M486.71,698.558c-.029-2.375-.055-4.757-.055-7.043h40.55c0,8.513-.337,18.261-.125,24.542h0C494.336,715.841,486.717,698.577,486.71,698.558Z" transform="translate(-408.673 -691.515)" fill="#ffac70"/>
              </g>
              <path id="Trazado_150230" data-name="Trazado 150230" d="M564.344,699.943v-.011c1.909,1.037,4.885.993,8.458.546,1.015,1.1,29.9,32.627,37.23,66.544-16.282,3.595-39.077,6.864-68.23,6.864s-51.951-3.269-68.233-6.864c7.333-33.917,36.218-65.448,37.23-66.544,3.573.447,6.549.491,8.458-.546v.011c-4.2,6.439-15.242,25.752-17.638,32.462s-3.181,8.066,4.416,9.744,14.051,2.789,21.087,6.769c5.2,2.939,10.99,5.86,14.681,5.86s9.481-2.921,14.677-5.86c7.036-3.98,13.486-5.091,21.087-6.769s6.813-3.038,4.416-9.744S568.544,706.382,564.344,699.943Z" transform="translate(-443.544 -669.086)" fill="#fd532e"/>
              <path id="Trazado_150231" data-name="Trazado 150231" d="M523.447,700.08v.007c-5.13-.524-17.5,1.579-25.341,12.453s-28.739,47.92-28.757,47.953l-.055-.022-3.918-1.642s11.053-18.672,24.832-41.969C501.067,698.5,514.37,698.709,523.447,700.08Z" transform="translate(-465.376 -670.157)" fill="#fddac1"/>
              <path id="Trazado_150232" data-name="Trazado 150232" d="M522.925,773.013a300.366,300.366,0,0,1-49.356-6.387c7.333-33.917,36.218-65.448,37.23-66.544,0,0-19.32,28.156-23.044,43.115C484.065,758.024,500.4,771.635,522.925,773.013Z" transform="translate(-443.544 -668.689)" fill="#d64727"/>
            </g>
            <g id="Grupo_133569" data-name="Grupo 133569" transform="translate(41.485 6.828)">
              <g id="Grupo_133562" data-name="Grupo 133562" transform="translate(5.447 21.889)">
                <path id="Trazado_150233" data-name="Trazado 150233" d="M530.251,788.986c13.142,0,28.53-10.258,38.762-26.628s13.581-40.822,13.581-52.431a52.345,52.345,0,1,0-104.69,0c0,11.61,3.346,36.057,13.582,52.431S517.106,788.986,530.251,788.986Z" transform="translate(-477.904 -657.58)" fill="#ffbf91"/>
                <path id="Trazado_150234" data-name="Trazado 150234" d="M494.271,675.892a3.925,3.925,0,0,1-.388-3.342,10.066,10.066,0,0,1,1.374-2.668.125.125,0,0,1,.117-.029l.1.022c.059.011.022.062-.022.066.007,0-.341,1.293-.326,1.253a4.993,4.993,0,0,0,.055,3.5c.638,1.448,1.891,1.983,3.251,2.573.191.084.48.337.359.575C497.829,679.714,494.879,676.837,494.271,675.892Z" transform="translate(-435.877 -624.886)" fill="#ffac70"/>
                <path id="Trazado_150235" data-name="Trazado 150235" d="M493.97,674.462c-.271-1.451-1.5-3.639-3.243-3.515-.11.007-.165.246-.059.286A3.913,3.913,0,0,1,492.8,674.7a10.434,10.434,0,0,1-.271,2.785c-.1.4.084,1.059.6.993C494.429,678.31,494.132,675.313,493.97,674.462Z" transform="translate(-444.042 -621.973)" fill="#ffac70"/>
                <path id="Trazado_150236" data-name="Trazado 150236" d="M498.826,660.662s-3.056,21.171,9.631,34.361,19.078,11.705,19.078,11.705Z" transform="translate(-423.014 -649.367)" fill="#ffac70"/>
                <path id="Trazado_150237" data-name="Trazado 150237" d="M549.519,659.8a56.926,56.926,0,0,1-22.135,18.082c-15.421,7.231-44.229,10.562-47.905,21.314,0,0,0-13.395,22.45-24.044C518.636,667.222,549.519,659.8,549.519,659.8Z" transform="translate(-473.707 -651.661)" fill="#ffac70"/>
                <path id="Trazado_150238" data-name="Trazado 150238" d="M481.823,681.57c1.895,24.7,15.227,45.322,23.165,52.6a56.635,56.635,0,0,0,23.2,13.013c-12.694-.938-27.1-10.961-36.83-26.536-6.062-9.7-9.693-22.212-11.657-33.228l-1.752-14.168,0-.018Z" transform="translate(-477.781 -615.869)" fill="#fddac1"/>
              </g>
              <g id="Grupo_133563" data-name="Grupo 133563" transform="translate(48.407 85.952)">
                <path id="Trazado_150239" data-name="Trazado 150239" d="M490.108,693.638c1.272-3.038,5.336-18.577,8.905-18.577s7.63,15.539,8.9,18.577-.385,4.167-.385,4.167l-1.755-.3s-4.522,3.6-6.761,3.6-6.765-3.6-6.765-3.6l-1.755.3S488.833,696.676,490.108,693.638Z" transform="translate(-489.627 -675.061)" fill="#ffb682"/>
                <path id="Trazado_150240" data-name="Trazado 150240" d="M491.007,680.946a1.035,1.035,0,1,0,1.3-.942A1.148,1.148,0,0,0,491.007,680.946Z" transform="translate(-486.083 -661.962)" fill="#fff" opacity="0.3"/>
                <path id="Trazado_150241" data-name="Trazado 150241" d="M492.252,681.312a.508.508,0,1,0-.506.51A.507.507,0,0,0,492.252,681.312Z" transform="translate(-485.335 -659.752)" fill="#fff"/>
                <path id="Trazado_150242" data-name="Trazado 150242" d="M490.525,681.558a4.532,4.532,0,0,1,2.58.363c1.312.645,2.459,1.4,3.65,1.4s2.334-.751,3.646-1.4a4.539,4.539,0,0,1,2.584-.363c.037.007.073.114.026.117-2.269.227-3.46,2.232-5.571,2.844a2.73,2.73,0,0,1-1.374,0c-2.111-.612-3.3-2.617-5.57-2.844C490.448,681.672,490.484,681.566,490.525,681.558Z" transform="translate(-487.371 -657.877)" fill="#502b3b"/>
                <path id="Trazado_150243" data-name="Trazado 150243" d="M492.855,683.672a7.1,7.1,0,0,1-1.95-.51c-.88-.388-1.906-1.924-.323-2.3a2.671,2.671,0,0,1,2.763,1.228c.432.546.59,1.172,1.294,1.6Z" transform="translate(-489.277 -659.8)" fill="#502b3b"/>
                <path id="Trazado_150244" data-name="Trazado 150244" d="M495.068,683.672a7.1,7.1,0,0,0,1.95-.51c.88-.388,1.906-1.924.323-2.3a2.674,2.674,0,0,0-2.763,1.228c-.432.546-.59,1.172-1.294,1.6Z" transform="translate(-479.883 -659.8)" fill="#502b3b"/>
              </g>
              <g id="Grupo_133564" data-name="Grupo 133564">
                <path id="Trazado_150245" data-name="Trazado 150245" d="M557.677,681.636s-2.3,31.323,28.878,51.574l10.452-4.944s-2.507-12.537-3.683-25.257-3.111-37.344-30.172-38.084c0,0-14.578-15.352-42.7-13.09-38.835,3.119-53,44.4-38.417,79.022a29.806,29.806,0,0,1,15.824-20.724C511.754,703.067,541.428,698.592,557.677,681.636Z" transform="translate(-476.418 -651.607)" fill="#502b3b"/>
                <path id="Trazado_150246" data-name="Trazado 150246" d="M512.983,717.229c-11.866-21.538.169-24.591,3.833-41.756,1.114-5.222-5.691-14.38-12.852-18.752,13.765,6.226,22.219,17.272,23.1,26.73,1.176,12.72-3.456,31.187-3.456,31.187l-9.166,4.339A10.116,10.116,0,0,1,512.983,717.229Z" transform="translate(-403.014 -637.979)" fill="#603748"/>
                <path id="Trazado_150247" data-name="Trazado 150247" d="M477.44,667.317l1.041,22.2s1.081,13.7,2.481,16.418c1.041,2.012,2.111-4.922,2.47-15.168s3.3-14.655,3.3-14.655l-9.294-9.378" transform="translate(-473.693 -611.298)" fill="#502b3b"/>
              </g>
              <g id="Grupo_133565" data-name="Grupo 133565" transform="translate(104.127 73.634)">
                <path id="Trazado_150248" data-name="Trazado 150248" d="M509.423,677.316s6.992-10.214,16.986-3.093c4.537,3.229,8.92,15.318,0,26.2s-20.753,6.747-21.109,1.785Z" transform="translate(-503.581 -671.7)" fill="#f7be91"/>
                <path id="Trazado_150249" data-name="Trazado 150249" d="M506.87,677.316s7-10.214,16.99-3.093a9.51,9.51,0,0,1,2.158,2.287c-6.366-5.358-15.524-3.232-19.61,6.109l-.15-1.591Z" transform="translate(-501.028 -671.7)" fill="#ffac70"/>
                <path id="Trazado_150250" data-name="Trazado 150250" d="M510.672,675.4s-.685,11.111-2.012,15.645-3.83-18.62-3.83-18.62Z" transform="translate(-504.831 -669.78)" fill="#502b3b"/>
                <path id="Trazado_150251" data-name="Trazado 150251" d="M520.909,678.085s-1.73-4.269-6-4-6.509,4.438-7.088,7.831c0,0,5.263-.674,5.417,4.511.139,4.628-4.42,6.248-6.307,5.145,0,0,.344,2.594,4.768,2.9C517.042,694.837,524.24,687.936,520.909,678.085Z" transform="translate(-499.224 -665.378)" fill="#ffac70"/>
              </g>
              <g id="Grupo_133566" data-name="Grupo 133566" transform="translate(17.611 69.443)">
                <path id="Trazado_150252" data-name="Trazado 150252" d="M506.657,685.607s-.55-10.1-9.814-12.673-15.249,4.856-15.249,4.856a13.3,13.3,0,0,0,10.06,12.457A14.447,14.447,0,0,0,506.657,685.607Z" transform="translate(-480.234 -665.657)" fill="#fff"/>
                <path id="Trazado_150253" data-name="Trazado 150253" d="M508.038,690.019s2.071-6.34.784-10.331-6.967-10.595-16.788-8.843-10.811,11.723-10.811,11.723a16.511,16.511,0,0,1,16.609-4.735C506.246,679.96,508.038,690.019,508.038,690.019Z" transform="translate(-481.223 -670.556)" fill="#ffac70"/>
                <path id="Trazado_150254" data-name="Trazado 150254" d="M507.646,686.366c-.66.176-.891-4.617-4.713-8.07-2.987-2.69-8.99-4.372-13.633-2.562-4.086,1.591-5.46,3.591-5.46,3.591a13.6,13.6,0,0,0,3.709,8.118c2.968,3.034,6.8,3.657,6.6,3.9-.392.484-4.277-.253-7.619-2.983-2.675-2.191-5.226-5.97-5.307-9.935.388-2.316,7.366-7.458,14.325-6.091s10.3,5.134,11.537,8.634S508.338,686.179,507.646,686.366Z" transform="translate(-481.223 -666.415)" fill="#412130"/>
                <circle id="Elipse_4981" data-name="Elipse 4981" cx="7.257" cy="7.257" r="7.257" transform="translate(8.018 9.828)" fill="#2b5b11"/>
                <path id="Trazado_150255" data-name="Trazado 150255" d="M491.55,677.811a3.566,3.566,0,1,0-3.566,3.566A3.565,3.565,0,0,0,491.55,677.811Z" transform="translate(-472.709 -660.726)"/>
                <path id="Trazado_150256" data-name="Trazado 150256" d="M487.652,675.9a1.752,1.752,0,1,0-1.752,1.752A1.752,1.752,0,0,0,487.652,675.9Z" transform="translate(-473.426 -660.992)" fill="#fff"/>
              </g>
              <path id="Trazado_150257" data-name="Trazado 150257" d="M511.481,678.905c1.664.773,3.423.55,3.855,1.554.847,1.961-1.528,4.848-6.714,2.686-3.493-1.455-9.8-6.376-12.724-8.165-6.318-3.863-11.042-5.208-14.538-3.991,0,0,4.87-4.332,13.083-1.206C504.035,673.431,506.49,676.578,511.481,678.905Z" transform="translate(-463.245 -606.19)" fill="#603748"/>
              <g id="Grupo_133567" data-name="Grupo 133567" transform="translate(71.885 71.525)">
                <path id="Trazado_150258" data-name="Trazado 150258" d="M496.182,684.144s1.642-9.979,11.13-11.533,14.63,6.472,14.63,6.472a13.294,13.294,0,0,1-11.346,11.3A14.446,14.446,0,0,1,496.182,684.144Z" transform="translate(-495.636 -667.694)" fill="#fff"/>
                <path id="Trazado_150259" data-name="Trazado 150259" d="M496.242,687.05s-.846-4.819.869-8.649,7.832-9.312,17.4-6.509,9.191,10.65,9.191,10.65-3.837-6.761-14.659-5.251C500.453,678.493,496.242,687.05,496.242,687.05Z" transform="translate(-496.033 -671.124)" fill="#ffac70"/>
                <circle id="Elipse_4982" data-name="Elipse 4982" cx="7.257" cy="7.257" r="7.257" transform="translate(4.707 7.745)" fill="#2b5b11"/>
                <path id="Trazado_150260" data-name="Trazado 150260" d="M498.325,677.811a3.566,3.566,0,1,1,3.566,3.566A3.565,3.565,0,0,1,498.325,677.811Z" transform="translate(-489.925 -662.808)"/>
                <path id="Trazado_150261" data-name="Trazado 150261" d="M499.584,675.9a1.752,1.752,0,1,1,1.752,1.752A1.752,1.752,0,0,1,499.584,675.9Z" transform="translate(-486.571 -663.075)" fill="#fff"/>
                <path id="Trazado_150262" data-name="Trazado 150262" d="M496.433,684.172c.638.246,1.352-2.664,5.526-5.68,3.258-2.353,7.355-3.565,13.149-2.147,4.262,1.041,5.75,3.408,5.75,3.408a13.561,13.561,0,0,1-4.563,7.667c-3.276,2.694-7.154,2.9-6.981,3.166.333.524,4.28.213,7.894-2.144,2.9-1.887,5.842-5.369,6.351-9.3-.136-2.342-6.226-7.293-13.3-6.688s-9.646,3.078-12.273,7.095C495.956,682.658,495.766,683.915,496.433,684.172Z" transform="translate(-495.887 -667.722)" fill="#412130"/>
              </g>
              <g id="Grupo_133568" data-name="Grupo 133568" transform="translate(41.182 119.861)">
                <path id="Trazado_150263" data-name="Trazado 150263" d="M503.7,685.045l15.758.781s-4.409,8.524-15.755,8.524-15.758-8.458-15.758-8.458Z" transform="translate(-486.879 -682.365)" fill="url(#linear-gradient)"/>
                <path id="Trazado_150264" data-name="Trazado 150264" d="M498.2,684.583c2.723-.843,4.958.564,6.278.564s3.555-1.407,6.278-.564,11.287,3.39,10.5,3.808c-2.06.934-6.494-.682-16.777-.341-10.283-.341-14.718,1.275-16.773.341C486.915,687.972,495.479,685.426,498.2,684.583Z" transform="translate(-487.655 -684.313)" fill="#a02246"/>
                <path id="Trazado_150265" data-name="Trazado 150265" d="M499.448,688.125c6.644,0,9.906-1.242,9.906-1.242-.916,2.144-4.086,3.459-9.906,3.459s-8.986-1.316-9.906-3.459C489.542,686.883,492.807,688.125,499.448,688.125Z" transform="translate(-482.627 -677.467)" fill="#a02246"/>
              </g>
              <path id="Trazado_150266" data-name="Trazado 150266" d="M499.325,671.092c-1.807-.029-3.265-.982-4.083-.282-1.591,1.374-.726,4.951,4.79,5.263,3.716.209,11.416-1.44,14.765-1.767,7.252-.707,12.013.132,14.585,2.712,0,0-2.452-5.926-11.06-6.688C508.264,669.443,504.738,671.177,499.325,671.092Z" transform="translate(-428.147 -602.39)" fill="#603748"/>
            </g>
          </g>
        </g>
      </g>
    </g>
  </g>
</svg>
